<svg id="Layer_1" data-name="Layer 1" xmlns="http://www.w3.org/2000/svg" width="250" height="110" viewBox="0 0 250 110"><defs><style>.cls-1{fill:#f68d05;}.cls-2{fill:#fff;}</style></defs><title>knap_start</title><polygon class="cls-1" points="110.77 41.84 119.35 41.84 115.09 30.19 110.77 41.84"/><path class="cls-1" d="M233.5.21H16.5a12,12,0,0,0-12,12v54a12,12,0,0,0,12,12H50.39l-3.84,31.58L63.74,89.72l9.63-11.51H233.5a12,12,0,0,0,12-12v-54A12,12,0,0,0,233.5.21ZM64.24,41.73a16.83,16.83,0,0,0-4.06-1.92l-2.86-1a11.63,11.63,0,0,1-4.84-2.76,8.51,8.51,0,0,1-2.08-6,10.66,10.66,0,0,1,3-7.8c2.44-2.49,5.35-3.17,8.58-3.17a16.82,16.82,0,0,1,10.3,3.43l-3.59,5.83a8.47,8.47,0,0,0-5.83-2.5A4.35,4.35,0,0,0,59.5,27a3.1,3.1,0,0,0-.88,2.18,2.42,2.42,0,0,0,.78,1.92c.83.78,2,1.1,4.37,2l2.6,1a13.82,13.82,0,0,1,4.73,2.65,8.65,8.65,0,0,1,2.55,6.45,12.42,12.42,0,0,1-3.07,8.58C67.51,55,63,55.31,60.75,55.31a14.69,14.69,0,0,1-6.86-1.46,21.94,21.94,0,0,1-5.1-3.8L53,44.33A21.5,21.5,0,0,0,56.17,47a8.1,8.1,0,0,0,4.37,1.24A5.51,5.51,0,0,0,64.18,47a3.58,3.58,0,0,0,1.25-2.81A3.1,3.1,0,0,0,64.24,41.73Zm27.35,12.8h-8V26.6H76V19.84H99.13V26.6H91.59Zm32.55,0L121.54,48H108.43l-2.65,6.56H97.46l14-34.69h7.33l13.68,34.69Zm29.59,0-9.36-13.68V54.53h-8V19.84h12.17c4.42,0,7.17,1.46,8.84,3a10.47,10.47,0,0,1,3,7.74,9.52,9.52,0,0,1-2.7,7.08,11,11,0,0,1-4.84,2.65l10.66,14.2ZM186.54,26.6H179V54.53h-8V26.6h-7.54V19.84h23.09Z"/><path class="cls-1" d="M150.66,27.17a7.81,7.81,0,0,0-4.42-1.09h-1.87V35.6h1.82A6.59,6.59,0,0,0,151,34.09a4.67,4.67,0,0,0,1.3-3.38A4.23,4.23,0,0,0,150.66,27.17Z"/><path class="cls-2" d="M60.54,48.23A8.1,8.1,0,0,1,56.17,47,21.5,21.5,0,0,1,53,44.33l-4.16,5.72a21.94,21.94,0,0,0,5.1,3.8,14.69,14.69,0,0,0,6.86,1.46c2.29,0,6.76-.32,9.83-3.54a12.42,12.42,0,0,0,3.07-8.58,8.65,8.65,0,0,0-2.55-6.45,13.82,13.82,0,0,0-4.73-2.65l-2.6-1c-2.34-.88-3.54-1.2-4.37-2a2.42,2.42,0,0,1-.78-1.92A3.1,3.1,0,0,1,59.5,27a4.35,4.35,0,0,1,3.38-1.2,8.47,8.47,0,0,1,5.83,2.5l3.59-5.83A16.82,16.82,0,0,0,62,19.06c-3.23,0-6.14.68-8.58,3.17a10.66,10.66,0,0,0-3,7.8,8.51,8.51,0,0,0,2.08,6,11.63,11.63,0,0,0,4.84,2.76l2.86,1a16.83,16.83,0,0,1,4.06,1.92,3.1,3.1,0,0,1,1.19,2.5A3.58,3.58,0,0,1,64.18,47,5.51,5.51,0,0,1,60.54,48.23Z"/><polygon class="cls-2" points="99.13 19.84 76.04 19.84 76.04 26.6 83.58 26.6 83.58 54.53 91.59 54.53 91.59 26.6 99.13 26.6 99.13 19.84"/><path class="cls-2" d="M111.45,19.84l-14,34.69h8.32L108.43,48h13.11l2.6,6.56h8.32L118.78,19.84Zm-.68,22,4.32-11.65,4.26,11.65Z"/><path class="cls-2" d="M157.68,37.68a9.52,9.52,0,0,0,2.7-7.08,10.47,10.47,0,0,0-3-7.74c-1.67-1.56-4.42-3-8.84-3H136.36V54.53h8V40.85l9.36,13.68h9.77l-10.66-14.2A11,11,0,0,0,157.68,37.68ZM151,34.09a6.59,6.59,0,0,1-4.78,1.51h-1.82V26.08h1.87a7.81,7.81,0,0,1,4.42,1.09,4.23,4.23,0,0,1,1.61,3.54A4.67,4.67,0,0,1,151,34.09Z"/><polygon class="cls-2" points="163.45 26.6 170.99 26.6 170.99 54.53 179 54.53 179 26.6 186.54 26.6 186.54 19.84 163.45 19.84 163.45 26.6"/></svg>
