<svg id="Layer_1" data-name="Layer 1" xmlns="http://www.w3.org/2000/svg" xmlns:xlink="http://www.w3.org/1999/xlink" width="1685" height="421" viewBox="0 0 1685 421"><defs><style>.cls-1{fill:url(#linear-gradient);}.cls-2{fill:url(#linear-gradient-2);}.cls-3{fill:url(#linear-gradient-3);}.cls-4{fill:url(#linear-gradient-4);}.cls-5{fill:#ff85b5;}.cls-6{fill:#c1fff5;}.cls-7{fill:#f2f2f1;}.cls-8{fill:url(#linear-gradient-5);}.cls-9{fill:url(#linear-gradient-6);}.cls-10{fill:#ffa55d;}.cls-11{fill:red;}.cls-12{fill:url(#linear-gradient-7);}.cls-13{fill:url(#linear-gradient-8);}.cls-14{fill:url(#linear-gradient-9);}.cls-15{fill:url(#linear-gradient-10);}.cls-16{fill:url(#linear-gradient-11);}.cls-17{fill:#fff85b;}.cls-18{fill:#f4ff0f;}.cls-19{fill:#f13d24;}.cls-20{fill:#f15a24;}.cls-21{fill:#c6d0ff;}.cls-22{fill:#ff941a;}.cls-23{fill:#7f3900;}.cls-24{fill:url(#linear-gradient-12);}.cls-25{fill:url(#linear-gradient-13);}.cls-26{fill:url(#linear-gradient-14);}.cls-27{fill:url(#linear-gradient-15);}.cls-28{fill:url(#linear-gradient-16);}.cls-29{fill:url(#linear-gradient-17);}.cls-30{fill:url(#linear-gradient-18);}.cls-31{fill:url(#linear-gradient-19);}.cls-32{fill:url(#linear-gradient-20);}.cls-33{fill:url(#linear-gradient-21);}.cls-34{fill:url(#linear-gradient-22);}.cls-35{fill:url(#linear-gradient-23);}.cls-36{fill:url(#linear-gradient-24);}.cls-37{fill:url(#linear-gradient-25);}.cls-38{fill:url(#linear-gradient-26);}.cls-39{fill:url(#linear-gradient-27);}.cls-40{fill:none;}.cls-41{fill:url(#linear-gradient-28);}.cls-42{fill:url(#linear-gradient-29);}.cls-43{fill:url(#linear-gradient-30);}.cls-44{fill:url(#linear-gradient-31);}.cls-45{fill:url(#linear-gradient-32);}.cls-46{fill:url(#linear-gradient-33);}.cls-47{fill:url(#linear-gradient-34);}.cls-48{fill:url(#linear-gradient-35);}.cls-49{fill:url(#linear-gradient-36);}.cls-50{fill:url(#linear-gradient-37);}.cls-51{fill:url(#linear-gradient-38);}.cls-52{fill:url(#linear-gradient-39);}.cls-53{fill:url(#linear-gradient-40);}.cls-54{fill:url(#linear-gradient-41);}.cls-55{fill:url(#linear-gradient-42);}.cls-56{fill:url(#linear-gradient-43);}.cls-57{fill:url(#linear-gradient-44);}.cls-58{fill:url(#linear-gradient-45);}.cls-59{fill:url(#linear-gradient-46);}.cls-60{fill:url(#linear-gradient-47);}.cls-61{fill:url(#linear-gradient-48);}.cls-62{fill:url(#linear-gradient-49);}.cls-63{fill:url(#linear-gradient-50);}.cls-64{fill:url(#linear-gradient-51);}.cls-65{fill:url(#linear-gradient-52);}.cls-66{fill:url(#linear-gradient-53);}.cls-67{fill:url(#linear-gradient-54);}.cls-68{fill:url(#linear-gradient-55);}.cls-69{fill:url(#linear-gradient-56);}.cls-70{fill:url(#linear-gradient-57);}.cls-71{fill:url(#linear-gradient-58);}.cls-72{fill:url(#linear-gradient-59);}.cls-73{fill:url(#linear-gradient-60);}.cls-74{fill:url(#linear-gradient-61);}.cls-75{fill:url(#linear-gradient-62);}.cls-76{fill:url(#linear-gradient-63);}.cls-77{fill:url(#linear-gradient-64);}.cls-78{fill:url(#linear-gradient-65);}.cls-79{fill:url(#linear-gradient-66);}.cls-80{fill:url(#linear-gradient-67);}.cls-81{fill:url(#linear-gradient-68);}.cls-82{fill:url(#linear-gradient-69);}.cls-83{fill:url(#linear-gradient-70);}.cls-84{fill:url(#linear-gradient-71);}.cls-85{fill:url(#linear-gradient-72);}.cls-86{fill:url(#linear-gradient-73);}.cls-87{fill:url(#linear-gradient-74);}.cls-88{fill:url(#linear-gradient-75);}.cls-89{fill:url(#linear-gradient-76);}.cls-90{fill:url(#linear-gradient-77);}.cls-91{fill:url(#linear-gradient-78);}.cls-92{fill:url(#linear-gradient-79);}.cls-93{fill:url(#linear-gradient-80);}.cls-94{fill:url(#linear-gradient-81);}.cls-95{fill:url(#linear-gradient-82);}.cls-96{fill:url(#linear-gradient-83);}.cls-97{fill:url(#linear-gradient-84);}.cls-98{fill:url(#linear-gradient-85);}.cls-99{fill:url(#linear-gradient-86);}.cls-100{fill:url(#linear-gradient-87);}.cls-101{fill:url(#linear-gradient-88);}.cls-102{fill:url(#linear-gradient-89);}.cls-103{fill:url(#linear-gradient-90);}.cls-104{fill:url(#linear-gradient-91);}.cls-105{fill:url(#linear-gradient-92);}.cls-106{fill:url(#linear-gradient-93);}.cls-107{fill:url(#linear-gradient-94);}.cls-108{fill:url(#linear-gradient-95);}.cls-109{fill:url(#linear-gradient-96);}.cls-110{fill:url(#linear-gradient-97);}.cls-111{fill:url(#linear-gradient-98);}.cls-112{fill:url(#linear-gradient-99);}.cls-113{fill:url(#linear-gradient-100);}.cls-114{fill:url(#linear-gradient-101);}.cls-115{fill:url(#linear-gradient-102);}.cls-116{fill:url(#linear-gradient-103);}.cls-117{fill:url(#linear-gradient-104);}.cls-118{fill:url(#linear-gradient-105);}.cls-119{fill:url(#linear-gradient-106);}.cls-120{fill:url(#linear-gradient-107);}.cls-121{fill:url(#linear-gradient-108);}.cls-122{fill:url(#linear-gradient-109);}.cls-123{fill:url(#linear-gradient-110);}</style><linearGradient id="linear-gradient" x1="613.9" y1="147.28" x2="627.19" y2="147.28" gradientTransform="matrix(1, 0, 0, -1, 0.64, 422.82)" gradientUnits="userSpaceOnUse"><stop offset="0" stop-color="#ffb580"/><stop offset="0.3" stop-color="#ffb47c"/><stop offset="0.57" stop-color="#ffb071"/><stop offset="0.82" stop-color="#ffab5f"/><stop offset="1" stop-color="#ffa54e"/></linearGradient><linearGradient id="linear-gradient-2" x1="611.11" y1="280.85" x2="654.31" y2="280.85" gradientTransform="matrix(1, 0, 0, -1, 0, 422)" gradientUnits="userSpaceOnUse"><stop offset="0" stop-color="#f15a24"/><stop offset="0.21" stop-color="#ee5628"/><stop offset="0.42" stop-color="#e44a34"/><stop offset="0.63" stop-color="#d43647"/><stop offset="0.84" stop-color="#be1a62"/><stop offset="1" stop-color="#aa007b"/></linearGradient><linearGradient id="linear-gradient-3" x1="606.72" y1="348.07" x2="654.21" y2="348.07" gradientTransform="matrix(1, 0, 0, -1, 0, 422)" gradientUnits="userSpaceOnUse"><stop offset="0" stop-color="#ffb580"/><stop offset="0.38" stop-color="#ffb47d"/><stop offset="0.61" stop-color="#ffb175"/><stop offset="0.8" stop-color="#ffad66"/><stop offset="0.97" stop-color="#ffa652"/><stop offset="1" stop-color="#ffa54e"/></linearGradient><linearGradient id="linear-gradient-4" x1="648.27" y1="353.17" x2="660.15" y2="353.17" gradientTransform="matrix(1, 0, 0, -1, 0, 422)" gradientUnits="userSpaceOnUse"><stop offset="0" stop-color="#ffb580"/><stop offset="0.55" stop-color="#ffab62"/><stop offset="1" stop-color="#ffa54e"/></linearGradient><linearGradient id="linear-gradient-5" x1="636.4" y1="345" x2="646.3" y2="345" gradientTransform="matrix(1, 0, 0, -1, 0, 422)" gradientUnits="userSpaceOnUse"><stop offset="0" stop-color="#ff85b5"/><stop offset="0.27" stop-color="#ff7f9f"/><stop offset="0.84" stop-color="#ff6f68"/><stop offset="1" stop-color="#ff6a57"/></linearGradient><linearGradient id="linear-gradient-6" x1="610" x2="619.89" xlink:href="#linear-gradient-5"/><linearGradient id="linear-gradient-7" x1="640.48" y1="147.28" x2="653.77" y2="147.28" xlink:href="#linear-gradient"/><linearGradient id="linear-gradient-8" x1="624.29" y1="258.82" x2="641.1" y2="229.71" gradientTransform="matrix(1, 0, 0, -1, 0, 422)" gradientUnits="userSpaceOnUse"><stop offset="0" stop-color="#fff"/><stop offset="0.36" stop-color="#fefdfd"/><stop offset="0.55" stop-color="#faf6f5"/><stop offset="0.7" stop-color="#f4eae7"/><stop offset="0.83" stop-color="#ebdad4"/><stop offset="0.95" stop-color="#e0c4bb"/><stop offset="1" stop-color="#dab9ae"/></linearGradient><linearGradient id="linear-gradient-9" x1="793.99" y1="180.73" x2="807.58" y2="157.19" gradientTransform="matrix(0.01, 1, 1, -0.01, 434.6, -601.15)" xlink:href="#linear-gradient-8"/><linearGradient id="linear-gradient-10" x1="957.04" y1="163.3" x2="972.36" y2="136.75" gradientTransform="matrix(0.02, 1, 1, -0.02, 483.49, -768.27)" gradientUnits="userSpaceOnUse"><stop offset="0" stop-color="#fff"/><stop offset="0.18" stop-color="#f6eeeb"/><stop offset="0.52" stop-color="#e7d1ca"/><stop offset="0.81" stop-color="#ddbfb5"/><stop offset="1" stop-color="#dab9ae"/></linearGradient><linearGradient id="linear-gradient-11" x1="625.11" y1="239.67" x2="641.1" y2="211.98" gradientTransform="matrix(1, 0, 0, -1, 0, 422)" gradientUnits="userSpaceOnUse"><stop offset="0" stop-color="#fff"/><stop offset="0.26" stop-color="#f4eae7"/><stop offset="0.75" stop-color="#e1c7be"/><stop offset="1" stop-color="#dab9ae"/></linearGradient><linearGradient id="linear-gradient-12" x1="68.84" y1="569.65" x2="72.93" y2="570.63" gradientTransform="matrix(0.94, -0.33, -0.34, -0.97, 809.42, 802.95)" xlink:href="#linear-gradient"/><linearGradient id="linear-gradient-13" x1="72.56" y1="569.69" x2="76.65" y2="570.67" gradientTransform="matrix(0.94, -0.33, -0.34, -0.97, 809.42, 802.95)" xlink:href="#linear-gradient"/><linearGradient id="linear-gradient-14" x1="76.29" y1="569.72" x2="80.38" y2="570.71" gradientTransform="matrix(0.94, -0.33, -0.34, -0.97, 809.42, 802.95)" xlink:href="#linear-gradient"/><linearGradient id="linear-gradient-15" x1="80.01" y1="569.76" x2="84.1" y2="570.74" gradientTransform="matrix(0.94, -0.33, -0.34, -0.97, 809.42, 802.95)" xlink:href="#linear-gradient"/><linearGradient id="linear-gradient-16" x1="1380.54" y1="163.98" x2="1384.41" y2="164.91" gradientTransform="matrix(0.94, 0.34, 0.35, -0.97, -679.05, -88.17)" xlink:href="#linear-gradient"/><linearGradient id="linear-gradient-17" x1="238.5" y1="457.9" x2="252.58" y2="457.9" gradientTransform="matrix(0.97, -0.23, -0.23, -0.97, 542.41, 671.68)" xlink:href="#linear-gradient"/><linearGradient id="linear-gradient-18" x1="1397.75" y1="116.39" x2="1401.83" y2="117.36" gradientTransform="matrix(-0.94, -0.33, 0.34, -0.97, 1860.96, 802.95)" xlink:href="#linear-gradient"/><linearGradient id="linear-gradient-19" x1="1401.47" y1="116.4" x2="1405.54" y2="117.38" gradientTransform="matrix(-0.94, -0.33, 0.34, -0.97, 1860.96, 802.95)" xlink:href="#linear-gradient"/><linearGradient id="linear-gradient-20" x1="1405.18" y1="116.42" x2="1409.25" y2="117.4" gradientTransform="matrix(-0.94, -0.33, 0.34, -0.97, 1860.96, 802.95)" xlink:href="#linear-gradient"/><linearGradient id="linear-gradient-21" x1="1408.88" y1="116.49" x2="1412.95" y2="117.46" gradientTransform="matrix(-0.94, -0.33, 0.34, -0.97, 1860.96, 802.95)" xlink:href="#linear-gradient"/><linearGradient id="linear-gradient-22" x1="2702.79" y1="627.48" x2="2706.66" y2="628.4" gradientTransform="matrix(-0.94, 0.34, -0.35, -0.97, 3349.44, -88.17)" xlink:href="#linear-gradient"/><linearGradient id="linear-gradient-23" x1="1607.62" y1="130.52" x2="1621.7" y2="130.52" gradientTransform="translate(2130.33 667.96) rotate(-166.66)" xlink:href="#linear-gradient"/><linearGradient id="linear-gradient-24" x1="452.7" y1="389.29" x2="470.51" y2="389.29" gradientTransform="matrix(0.99, -0.11, -0.11, -0.99, 242.38, 546.34)" xlink:href="#linear-gradient"/><linearGradient id="linear-gradient-25" x1="424.52" y1="219.72" x2="442.33" y2="219.72" gradientTransform="matrix(0.99, -0.11, -0.11, -0.99, 242.38, 546.34)" xlink:href="#linear-gradient"/><linearGradient id="linear-gradient-26" x1="396.16" y1="391.27" x2="412.79" y2="391.27" gradientTransform="matrix(0.99, -0.11, -0.11, -0.99, 242.38, 546.34)" xlink:href="#linear-gradient"/><linearGradient id="linear-gradient-27" x1="394.78" y1="222.91" x2="412.59" y2="222.91" gradientTransform="matrix(0.99, -0.11, -0.11, -0.99, 242.38, 546.34)" xlink:href="#linear-gradient"/><linearGradient id="linear-gradient-28" x1="192.9" y1="147.28" x2="206.19" y2="147.28" xlink:href="#linear-gradient"/><linearGradient id="linear-gradient-29" x1="190.11" y1="280.85" x2="233.31" y2="280.85" xlink:href="#linear-gradient-2"/><linearGradient id="linear-gradient-30" x1="185.72" y1="348.07" x2="233.21" y2="348.07" xlink:href="#linear-gradient-3"/><linearGradient id="linear-gradient-31" x1="227.27" y1="353.17" x2="239.15" y2="353.17" xlink:href="#linear-gradient-4"/><linearGradient id="linear-gradient-32" x1="215.4" x2="225.3" xlink:href="#linear-gradient-5"/><linearGradient id="linear-gradient-33" x1="189" x2="198.89" xlink:href="#linear-gradient-5"/><linearGradient id="linear-gradient-34" x1="219.48" y1="147.28" x2="232.77" y2="147.28" xlink:href="#linear-gradient"/><linearGradient id="linear-gradient-35" x1="203.44" y1="258.77" x2="220.2" y2="229.76" xlink:href="#linear-gradient-8"/><linearGradient id="linear-gradient-36" x1="374.06" y1="141.8" x2="387.65" y2="118.26" gradientTransform="matrix(0.01, 1, 1, -0.01, 54.88, -186.04)" xlink:href="#linear-gradient-8"/><linearGradient id="linear-gradient-37" x1="541.16" y1="97.79" x2="556.49" y2="71.24" gradientTransform="matrix(0.02, 1, 1, -0.02, 137.51, -354)" xlink:href="#linear-gradient-10"/><linearGradient id="linear-gradient-38" x1="204.11" y1="239.67" x2="220.1" y2="211.98" xlink:href="#linear-gradient-11"/><linearGradient id="linear-gradient-39" x1="-328.69" y1="705.83" x2="-324.62" y2="706.8" gradientTransform="matrix(0.94, -0.33, -0.34, -0.97, 809.42, 802.95)" xlink:href="#linear-gradient"/><linearGradient id="linear-gradient-40" x1="-324.98" y1="705.86" x2="-320.91" y2="706.84" gradientTransform="matrix(0.94, -0.33, -0.34, -0.97, 809.42, 802.95)" xlink:href="#linear-gradient"/><linearGradient id="linear-gradient-41" x1="-321.27" y1="705.87" x2="-317.2" y2="706.85" gradientTransform="matrix(0.94, -0.33, -0.34, -0.97, 809.42, 802.95)" xlink:href="#linear-gradient"/><linearGradient id="linear-gradient-42" x1="-317.57" y1="705.93" x2="-313.5" y2="706.9" gradientTransform="matrix(0.94, -0.33, -0.34, -0.97, 809.42, 802.95)" xlink:href="#linear-gradient"/><linearGradient id="linear-gradient-43" x1="984.54" y1="25.15" x2="988.4" y2="26.08" gradientTransform="matrix(0.94, 0.34, 0.35, -0.97, -679.05, -88.17)" xlink:href="#linear-gradient"/><linearGradient id="linear-gradient-44" x1="-170.89" y1="556.11" x2="-156.81" y2="556.11" gradientTransform="matrix(0.97, -0.23, -0.23, -0.97, 542.41, 671.68)" xlink:href="#linear-gradient"/><linearGradient id="linear-gradient-45" x1="1795.1" y1="-19.65" x2="1799.17" y2="-18.67" gradientTransform="matrix(-0.94, -0.33, 0.34, -0.97, 1860.96, 802.95)" xlink:href="#linear-gradient"/><linearGradient id="linear-gradient-46" x1="1798.8" y1="-19.61" x2="1802.87" y2="-18.64" gradientTransform="matrix(-0.94, -0.33, 0.34, -0.97, 1860.96, 802.95)" xlink:href="#linear-gradient"/><linearGradient id="linear-gradient-47" x1="1802.51" y1="-19.6" x2="1806.59" y2="-18.62" gradientTransform="matrix(-0.94, -0.33, 0.34, -0.97, 1860.96, 802.95)" xlink:href="#linear-gradient"/><linearGradient id="linear-gradient-48" x1="1806.22" y1="-19.55" x2="1810.29" y2="-18.57" gradientTransform="matrix(-0.94, -0.33, 0.34, -0.97, 1860.96, 802.95)" xlink:href="#linear-gradient"/><linearGradient id="linear-gradient-49" x1="3098.78" y1="766.29" x2="3102.65" y2="767.22" gradientTransform="matrix(-0.94, 0.34, -0.35, -0.97, 3349.44, -88.17)" xlink:href="#linear-gradient"/><linearGradient id="linear-gradient-50" x1="2017.01" y1="33.09" x2="2031.09" y2="33.09" gradientTransform="translate(2130.33 667.96) rotate(-166.66)" xlink:href="#linear-gradient"/><linearGradient id="linear-gradient-51" x1="34.09" y1="434.1" x2="51.9" y2="434.1" gradientTransform="matrix(0.99, -0.11, -0.11, -0.99, 242.38, 546.34)" xlink:href="#linear-gradient"/><linearGradient id="linear-gradient-52" x1="5.92" y1="264.53" x2="23.72" y2="264.53" gradientTransform="matrix(0.99, -0.11, -0.11, -0.99, 242.38, 546.34)" xlink:href="#linear-gradient"/><linearGradient id="linear-gradient-53" x1="-22.45" y1="436.08" x2="-5.82" y2="436.08" gradientTransform="matrix(0.99, -0.11, -0.11, -0.99, 242.38, 546.34)" xlink:href="#linear-gradient"/><linearGradient id="linear-gradient-54" x1="-23.82" y1="267.72" x2="-6.02" y2="267.72" gradientTransform="matrix(0.99, -0.11, -0.11, -0.99, 242.38, 546.34)" xlink:href="#linear-gradient"/><linearGradient id="linear-gradient-55" x1="1035.9" y1="147.28" x2="1049.19" y2="147.28" xlink:href="#linear-gradient"/><linearGradient id="linear-gradient-56" x1="1033.11" y1="280.85" x2="1076.31" y2="280.85" xlink:href="#linear-gradient-2"/><linearGradient id="linear-gradient-57" x1="1028.72" y1="348.07" x2="1076.21" y2="348.07" xlink:href="#linear-gradient-3"/><linearGradient id="linear-gradient-58" x1="1070.27" y1="353.17" x2="1082.15" y2="353.17" xlink:href="#linear-gradient-4"/><linearGradient id="linear-gradient-59" x1="1058.4" x2="1068.3" xlink:href="#linear-gradient-5"/><linearGradient id="linear-gradient-60" x1="1032" x2="1041.9" xlink:href="#linear-gradient-5"/><linearGradient id="linear-gradient-61" x1="1062.48" y1="147.28" x2="1075.77" y2="147.28" xlink:href="#linear-gradient"/><linearGradient id="linear-gradient-62" x1="1046.37" y1="258.79" x2="1063.16" y2="229.74" xlink:href="#linear-gradient-8"/><linearGradient id="linear-gradient-63" x1="1213.12" y1="223.23" x2="1226.71" y2="199.69" gradientTransform="matrix(0.01, 1, 1, -0.01, 807.92, -1024.23)" xlink:href="#linear-gradient-8"/><linearGradient id="linear-gradient-64" x1="1373.89" y1="228.98" x2="1389.22" y2="202.43" gradientTransform="matrix(0.02, 1, 1, -0.02, 830.28, -1183.52)" xlink:href="#linear-gradient-10"/><linearGradient id="linear-gradient-65" x1="1047.11" y1="239.67" x2="1063.1" y2="211.98" xlink:href="#linear-gradient-11"/><linearGradient id="linear-gradient-66" x1="466.92" y1="433.45" x2="470.99" y2="434.42" gradientTransform="matrix(0.94, -0.33, -0.34, -0.97, 809.42, 802.95)" xlink:href="#linear-gradient"/><linearGradient id="linear-gradient-67" x1="470.64" y1="433.48" x2="474.71" y2="434.46" gradientTransform="matrix(0.94, -0.33, -0.34, -0.97, 809.42, 802.95)" xlink:href="#linear-gradient"/><linearGradient id="linear-gradient-68" x1="474.34" y1="433.5" x2="478.41" y2="434.48" gradientTransform="matrix(0.94, -0.33, -0.34, -0.97, 809.42, 802.95)" xlink:href="#linear-gradient"/><linearGradient id="linear-gradient-69" x1="478.04" y1="433.56" x2="482.11" y2="434.53" gradientTransform="matrix(0.94, -0.33, -0.34, -0.97, 809.42, 802.95)" xlink:href="#linear-gradient"/><linearGradient id="linear-gradient-70" x1="1777.47" y1="303.13" x2="1781.34" y2="304.06" gradientTransform="matrix(0.94, 0.34, 0.35, -0.97, -679.05, -88.17)" xlink:href="#linear-gradient"/><linearGradient id="linear-gradient-71" x1="648.86" y1="359.44" x2="662.94" y2="359.44" gradientTransform="matrix(0.97, -0.23, -0.23, -0.97, 542.41, 671.68)" xlink:href="#linear-gradient"/><linearGradient id="linear-gradient-72" x1="999.48" y1="252.73" x2="1003.55" y2="253.7" gradientTransform="matrix(-0.94, -0.33, 0.34, -0.97, 1860.96, 802.95)" xlink:href="#linear-gradient"/><linearGradient id="linear-gradient-73" x1="1003.19" y1="252.75" x2="1007.26" y2="253.73" gradientTransform="matrix(-0.94, -0.33, 0.34, -0.97, 1860.96, 802.95)" xlink:href="#linear-gradient"/><linearGradient id="linear-gradient-74" x1="1006.91" y1="252.77" x2="1010.98" y2="253.75" gradientTransform="matrix(-0.94, -0.33, 0.34, -0.97, 1860.96, 802.95)" xlink:href="#linear-gradient"/><linearGradient id="linear-gradient-75" x1="1010.6" y1="252.83" x2="1014.67" y2="253.8" gradientTransform="matrix(-0.94, -0.33, 0.34, -0.97, 1860.96, 802.95)" xlink:href="#linear-gradient"/><linearGradient id="linear-gradient-76" x1="2305.84" y1="488.32" x2="2309.7" y2="489.25" gradientTransform="matrix(-0.94, 0.34, -0.35, -0.97, 3349.44, -88.17)" xlink:href="#linear-gradient"/><linearGradient id="linear-gradient-77" x1="1197.26" y1="228.19" x2="1211.34" y2="228.19" gradientTransform="translate(2130.33 667.96) rotate(-166.66)" xlink:href="#linear-gradient"/><linearGradient id="linear-gradient-78" x1="872.3" y1="344.37" x2="890.11" y2="344.37" gradientTransform="matrix(0.99, -0.11, -0.11, -0.99, 242.38, 546.34)" xlink:href="#linear-gradient"/><linearGradient id="linear-gradient-79" x1="844.13" y1="174.81" x2="861.93" y2="174.81" gradientTransform="matrix(0.99, -0.11, -0.11, -0.99, 242.38, 546.34)" xlink:href="#linear-gradient"/><linearGradient id="linear-gradient-80" x1="815.76" y1="346.35" x2="832.39" y2="346.35" gradientTransform="matrix(0.99, -0.11, -0.11, -0.99, 242.38, 546.34)" xlink:href="#linear-gradient"/><linearGradient id="linear-gradient-81" x1="814.39" y1="177.99" x2="832.19" y2="177.99" gradientTransform="matrix(0.99, -0.11, -0.11, -0.99, 242.38, 546.34)" xlink:href="#linear-gradient"/><linearGradient id="linear-gradient-82" x1="1458.9" y1="147.28" x2="1472.19" y2="147.28" xlink:href="#linear-gradient"/><linearGradient id="linear-gradient-83" x1="1456.11" y1="280.85" x2="1499.31" y2="280.85" xlink:href="#linear-gradient-2"/><linearGradient id="linear-gradient-84" x1="1451.72" y1="348.07" x2="1499.21" y2="348.07" xlink:href="#linear-gradient-3"/><linearGradient id="linear-gradient-85" x1="1493.27" y1="353.17" x2="1505.15" y2="353.17" xlink:href="#linear-gradient-4"/><linearGradient id="linear-gradient-86" x1="1481.4" x2="1491.3" xlink:href="#linear-gradient-5"/><linearGradient id="linear-gradient-87" x1="1455" x2="1464.9" xlink:href="#linear-gradient-5"/><linearGradient id="linear-gradient-88" x1="1485.48" y1="147.28" x2="1498.77" y2="147.28" xlink:href="#linear-gradient"/><linearGradient id="linear-gradient-89" x1="1469.11" y1="258.88" x2="1485.99" y2="229.65" xlink:href="#linear-gradient-8"/><linearGradient id="linear-gradient-90" x1="1634.16" y1="264.06" x2="1647.75" y2="240.52" gradientTransform="matrix(0.01, 1, 1, -0.01, 1185.78, -1444.82)" xlink:href="#linear-gradient-8"/><linearGradient id="linear-gradient-91" x1="1795.68" y1="295.27" x2="1811" y2="268.75" gradientTransform="matrix(0.02, 1, 1, -0.02, 1178.76, -1602.76)" xlink:href="#linear-gradient-10"/><linearGradient id="linear-gradient-92" x1="1470.11" y1="239.67" x2="1486.1" y2="211.98" xlink:href="#linear-gradient-11"/><linearGradient id="linear-gradient-93" x1="866.14" y1="296.78" x2="870.21" y2="297.75" gradientTransform="matrix(0.94, -0.33, -0.34, -0.97, 809.42, 802.95)" xlink:href="#linear-gradient"/><linearGradient id="linear-gradient-94" x1="869.86" y1="296.81" x2="873.93" y2="297.79" gradientTransform="matrix(0.94, -0.33, -0.34, -0.97, 809.42, 802.95)" xlink:href="#linear-gradient"/><linearGradient id="linear-gradient-95" x1="873.57" y1="296.83" x2="877.64" y2="297.81" gradientTransform="matrix(0.94, -0.33, -0.34, -0.97, 809.42, 802.95)" xlink:href="#linear-gradient"/><linearGradient id="linear-gradient-96" x1="877.26" y1="296.89" x2="881.33" y2="297.86" gradientTransform="matrix(0.94, -0.33, -0.34, -0.97, 809.42, 802.95)" xlink:href="#linear-gradient"/><linearGradient id="linear-gradient-97" x1="2175.37" y1="442.62" x2="2179.24" y2="443.54" gradientTransform="matrix(0.94, 0.34, 0.35, -0.97, -679.05, -88.17)" xlink:href="#linear-gradient"/><linearGradient id="linear-gradient-98" x1="1060.19" y1="260.77" x2="1074.27" y2="260.77" gradientTransform="matrix(0.97, -0.23, -0.23, -0.97, 542.41, 671.68)" xlink:href="#linear-gradient"/><linearGradient id="linear-gradient-99" x1="600.26" y1="389.39" x2="604.33" y2="390.37" gradientTransform="matrix(-0.94, -0.33, 0.34, -0.97, 1860.96, 802.95)" xlink:href="#linear-gradient"/><linearGradient id="linear-gradient-100" x1="603.97" y1="389.43" x2="608.05" y2="390.4" gradientTransform="matrix(-0.94, -0.33, 0.34, -0.97, 1860.96, 802.95)" xlink:href="#linear-gradient"/><linearGradient id="linear-gradient-101" x1="607.68" y1="389.45" x2="611.75" y2="390.43" gradientTransform="matrix(-0.94, -0.33, 0.34, -0.97, 1860.96, 802.95)" xlink:href="#linear-gradient"/><linearGradient id="linear-gradient-102" x1="611.38" y1="389.5" x2="615.45" y2="390.48" gradientTransform="matrix(-0.94, -0.33, 0.34, -0.97, 1860.96, 802.95)" xlink:href="#linear-gradient"/><linearGradient id="linear-gradient-103" x1="1907.96" y1="348.84" x2="1911.83" y2="349.77" gradientTransform="matrix(-0.94, 0.34, -0.35, -0.97, 3349.44, -88.17)" xlink:href="#linear-gradient"/><linearGradient id="linear-gradient-104" x1="785.93" y1="326.09" x2="800.01" y2="326.09" gradientTransform="translate(2130.33 667.96) rotate(-166.66)" xlink:href="#linear-gradient"/><linearGradient id="linear-gradient-105" x1="1292.9" y1="299.35" x2="1310.71" y2="299.35" gradientTransform="matrix(0.99, -0.11, -0.11, -0.99, 242.38, 546.34)" xlink:href="#linear-gradient"/><linearGradient id="linear-gradient-106" x1="1264.72" y1="129.78" x2="1282.53" y2="129.78" gradientTransform="matrix(0.99, -0.11, -0.11, -0.99, 242.38, 546.34)" xlink:href="#linear-gradient"/><linearGradient id="linear-gradient-107" x1="1236.36" y1="301.33" x2="1252.99" y2="301.33" gradientTransform="matrix(0.99, -0.11, -0.11, -0.99, 242.38, 546.34)" xlink:href="#linear-gradient"/><linearGradient id="linear-gradient-108" x1="1234.98" y1="132.97" x2="1252.79" y2="132.97" gradientTransform="matrix(0.99, -0.11, -0.11, -0.99, 242.38, 546.34)" xlink:href="#linear-gradient"/><linearGradient id="linear-gradient-109" x1="581.66" y1="1506.87" x2="590.39" y2="1506.87" gradientTransform="matrix(-1, 0, 0, 1, 1224, -1444.92)" xlink:href="#linear-gradient-3"/><linearGradient id="linear-gradient-110" x1="601.16" y1="1507.53" x2="610.29" y2="1507.53" gradientTransform="matrix(-1, 0, 0, 1, 1224, -1444.92)" xlink:href="#linear-gradient-3"/></defs><title>Artboard 1</title><rect class="cls-1" x="614.54" y="188.03" width="13.29" height="175.03" rx="1.9"/><rect class="cls-2" x="611.11" y="93.1" width="43.2" height="96.09" rx="6.19"/><rect class="cls-3" x="606.72" y="38.17" width="47.49" height="71.53" rx="23.23"/><ellipse cx="637.97" cy="65.23" rx="4.37" ry="4.51"/><ellipse cx="618.19" cy="65.23" rx="4.37" ry="4.51"/><ellipse class="cls-4" cx="654.21" cy="68.83" rx="5.94" ry="6.13"/><ellipse class="cls-5" cx="654.21" cy="68.83" rx="3.96" ry="4.09"/><ellipse class="cls-6" cx="654.21" cy="74.96" rx="1.98" ry="2.04"/><ellipse class="cls-7" cx="636" cy="65.23" rx="1.69" ry="1.74"/><ellipse class="cls-7" cx="616.21" cy="65.23" rx="1.69" ry="1.74"/><ellipse class="cls-8" cx="641.35" cy="77" rx="4.95" ry="4.09"/><ellipse class="cls-9" cx="615.63" cy="77" rx="4.95" ry="4.09"/><path d="M640.8,60.61h0a1,1,0,0,1-.84-1.14h0l.29-2.16a1,1,0,0,1,1.11-.87h0a1,1,0,0,1,.84,1.14h0l-.29,2.17A1,1,0,0,1,640.8,60.61Z"/><path d="M643.13,61.86h0a1.06,1.06,0,0,1-.06-1.45l1.69-1.88a1,1,0,0,1,1.39-.06h0a1.06,1.06,0,0,1,.06,1.45l-1.69,1.88A1,1,0,0,1,643.13,61.86Z"/><path d="M644.61,65.26h0a1,1,0,0,1,.42-1.35l0,0,2.23-1.12a1,1,0,0,1,1.33.48h0a1,1,0,0,1-.43,1.35h0l-2.24,1.12A1,1,0,0,1,644.61,65.26Z"/><path d="M617.57,60.33h0a1,1,0,0,1-1.23-.69l-.71-2.46a1,1,0,0,1,.64-1.26h0a1,1,0,0,1,1.23.69l.71,2.46a1,1,0,0,1-.64,1.26Z"/><path d="M614.45,61.9h0a1,1,0,0,1-1.4-.1l-1.64-1.92a1.07,1.07,0,0,1,.1-1.45h0a1,1,0,0,1,1.39.1l1.64,1.93a1,1,0,0,1-.06,1.41Z"/><path d="M613.06,65.14h0a1,1,0,0,1-1.3.55l-2.29-1a1,1,0,0,1-.55-1.3l0,0h0a1,1,0,0,1,1.29-.54l2.3,1a1,1,0,0,1,.54,1.31Z"/><path class="cls-10" d="M627.5,71.91l.07,5.11h-.07a5.11,5.11,0,0,1,0-10.22Z"/><ellipse class="cls-11" cx="626.49" cy="86.55" rx="1.99" ry="2.06"/><ellipse class="cls-11" cx="629.48" cy="86.55" rx="1.99" ry="2.06"/><path class="cls-11" d="M629.55,87.2l2.86-.9c.65,2.21-.11,4.44-1.68,4.93s-3.39-.93-4-3.14h0Z"/><rect class="cls-12" x="641.12" y="188.03" width="13.29" height="175.03" rx="1.9"/><rect class="cls-13" x="610.97" y="170.87" width="43.45" height="13.73"/><ellipse class="cls-14" cx="610.97" cy="194.76" rx="12.21" ry="16.76" transform="translate(349.93 780.49) rotate(-83.66)"/><ellipse class="cls-15" cx="655.53" cy="192.75" rx="14.29" ry="17.83" transform="translate(349.11 803.47) rotate(-79.74)"/><ellipse class="cls-16" cx="632.52" cy="195.17" rx="17.81" ry="15.33"/><rect class="cls-17" x="615.7" y="358.54" width="9.07" height="14.83" rx="1.06"/><rect class="cls-18" x="615.7" y="361.39" width="9.07" height="3.66"/><path class="cls-19" d="M623.52,385.12l-10.95.23a.89.89,0,0,1,0-.23c0-8.06,5-14.69,11-14.69s11,6.63,11,14.69Z"/><path class="cls-20" d="M608.18,385.16l-19.72.26v-.26c0-9,8.9-16.46,19.72-16.46s19.72,7.43,19.72,16.46Z"/><rect class="cls-21" x="588.46" y="385.12" width="46.02" height="2.1"/><path class="cls-22" d="M610.37,356.88v.38c0,2.28,2.21,4.12,4.94,4.12h9.85c2.73,0,4.94-1.84,4.94-4.12v-.38c0-2.28-2.21-4.12-4.94-4.12h-9.85C612.58,352.76,610.37,354.6,610.37,356.88Z"/><rect class="cls-17" x="644.69" y="358.54" width="9.07" height="14.83" rx="1.06"/><rect class="cls-18" x="644.69" y="361.38" width="9.07" height="3.66"/><path class="cls-19" d="M645.94,385.12l11,.23v-.23c0-8.06-5-14.69-11-14.69s-11,6.63-11,14.69Z"/><path class="cls-20" d="M661.28,385.16l19.72.26v-.26c0-9-8.9-16.46-19.72-16.46s-19.72,7.43-19.72,16.46Z"/><rect class="cls-21" x="634.99" y="385.11" width="46.02" height="2.1"/><path class="cls-22" d="M659.09,356.88v.38c0,2.28-2.21,4.12-4.93,4.12H644.3c-2.72,0-4.93-1.84-4.93-4.12v-.38c0-2.28,2.21-4.12,4.93-4.12h9.86C656.88,352.76,659.09,354.6,659.09,356.88Z"/><polygon class="cls-23" points="672.77 75.28 679.6 75.04 686.42 74.81 683.2 81.25 679.97 87.68 676.37 81.48 672.77 75.28"/><ellipse class="cls-23" cx="640.79" cy="45.88" rx="7.02" ry="16.87" transform="matrix(0.63, -0.78, 0.78, 0.63, 201.79, 514.92)"/><ellipse class="cls-23" cx="616.91" cy="45.93" rx="16.91" ry="7.01" transform="matrix(0.75, -0.66, 0.66, 0.75, 121.9, 416.95)"/><ellipse class="cls-23" cx="654.41" cy="37.78" rx="5.4" ry="4.93" transform="translate(-0.84 19.64) rotate(-1.72)"/><ellipse class="cls-23" cx="667.62" cy="44.57" rx="5.4" ry="4.93" transform="translate(-0.95 17.84) rotate(-1.53)"/><ellipse class="cls-23" cx="675.9" cy="54.27" rx="5.4" ry="4.93" transform="translate(-1.21 18.07) rotate(-1.53)"/><ellipse class="cls-23" cx="678.83" cy="66.54" rx="5.4" ry="4.93" transform="translate(-1.53 18.15) rotate(-1.53)"/><ellipse class="cls-23" cx="606.18" cy="38.23" rx="4.65" ry="4.59" transform="translate(178.2 469.22) rotate(-48.81)"/><ellipse class="cls-23" cx="594.03" cy="40.97" rx="4.65" ry="4.59" transform="translate(172 461.01) rotate(-48.81)"/><ellipse class="cls-23" cx="585.65" cy="49" rx="4.65" ry="4.59" transform="translate(163.09 457.45) rotate(-48.81)"/><ellipse class="cls-23" cx="581.42" cy="60.06" rx="4.65" ry="4.59" transform="translate(153.32 458.04) rotate(-48.81)"/><polygon class="cls-23" points="574.66 65.78 581.32 66.64 587.98 67.49 583.85 72.85 579.72 78.21 577.19 71.99 574.66 65.78"/><path class="cls-24" d="M684.89,231.61h0a.93.93,0,0,1-1.19-.57h0l-3.19-9.39a1,1,0,0,1,.56-1.22h0a.93.93,0,0,1,1.19.57h0l3.19,9.39A1,1,0,0,1,684.89,231.61Z"/><path class="cls-25" d="M688.39,230.34h0a.93.93,0,0,1-1.18-.55v0l-3.2-9.38a1,1,0,0,1,.56-1.23h0a.94.94,0,0,1,1.19.59l3.19,9.39A1,1,0,0,1,688.39,230.34Z"/><path class="cls-26" d="M691.89,229.07h0a.92.92,0,0,1-1.18-.57v0l-3.19-9.38a1,1,0,0,1,.56-1.23h0a.92.92,0,0,1,1.18.57v0l3.19,9.39A1,1,0,0,1,691.89,229.07Z"/><path class="cls-27" d="M695.39,227.8h0a.94.94,0,0,1-1.19-.59l-3.2-9.39a1,1,0,0,1,.56-1.22h0a.92.92,0,0,1,1.18.57v0l3.19,9.39A1,1,0,0,1,695.39,227.8Z"/><path class="cls-28" d="M677.49,228.07h0a1,1,0,0,1-.56-1.22l3.24-9.33a.91.91,0,0,1,1.15-.58h0a1,1,0,0,1,.56,1.22l-3.24,9.32A.92.92,0,0,1,677.49,228.07Z"/><path class="cls-29" d="M687.92,227.55h0a6.66,6.66,0,0,1-8-5l0-.07L655.88,119a6.9,6.9,0,0,1,4.91-8.27h0a6.68,6.68,0,0,1,8,5v0l24,103.46A6.87,6.87,0,0,1,687.92,227.55Z"/><path class="cls-30" d="M580.36,231.51h0a.91.91,0,0,0,1.17-.56v0l3.18-9.35a1,1,0,0,0-.56-1.21h0a.92.92,0,0,0-1.15.6v0l-3.18,9.35A1,1,0,0,0,580.36,231.51Z"/><path class="cls-31" d="M576.88,230.25h0a.92.92,0,0,0,1.17-.57v0l3.18-9.34a1,1,0,0,0-.57-1.22h0a.91.91,0,0,0-1.16.56v0L576.31,229A1,1,0,0,0,576.88,230.25Z"/><path class="cls-32" d="M573.39,229h0a.91.91,0,0,0,1.17-.56v0l3.18-9.35a1,1,0,0,0-.56-1.21h0a.91.91,0,0,0-1.17.56v0l-3.18,9.35A1,1,0,0,0,573.39,229Z"/><path class="cls-33" d="M569.91,227.72h0a.92.92,0,0,0,1.17-.57v0l3.18-9.34a1,1,0,0,0-.56-1.22h0a.92.92,0,0,0-1.17.57v0l-3.18,9.34A1,1,0,0,0,569.91,227.72Z"/><path class="cls-34" d="M587.51,228.07h0a1,1,0,0,0,.56-1.22l-3.24-9.33a.91.91,0,0,0-1.15-.58h0a1,1,0,0,0-.56,1.22l3.24,9.32a.92.92,0,0,0,1.16.59Z"/><path class="cls-35" d="M577.08,227.55h0a6.66,6.66,0,0,0,8-5l0-.07,24-103.46a6.9,6.9,0,0,0-4.91-8.27h0a6.68,6.68,0,0,0-8,5v0l-24,103.46A6.88,6.88,0,0,0,577.08,227.55Z"/><ellipse class="cls-36" cx="659.93" cy="110.13" rx="8.9" ry="9.19"/><ellipse class="cls-37" cx="649.96" cy="281.73" rx="8.9" ry="9.19"/><ellipse class="cls-38" cx="602.91" cy="114.24" rx="8.31" ry="8.58"/><ellipse class="cls-39" cx="620.05" cy="281.73" rx="8.9" ry="9.19"/><rect class="cls-40" x="422.5" y="0.4" width="420" height="420"/><rect class="cls-41" x="193.54" y="188.03" width="13.29" height="175.03" rx="1.9"/><rect class="cls-42" x="190.11" y="93.1" width="43.2" height="96.09" rx="6.19"/><rect class="cls-43" x="185.72" y="38.17" width="47.49" height="71.53" rx="23.23"/><ellipse cx="216.97" cy="65.23" rx="4.37" ry="4.51"/><ellipse cx="197.19" cy="65.23" rx="4.37" ry="4.51"/><ellipse class="cls-44" cx="233.21" cy="68.83" rx="5.94" ry="6.13"/><ellipse class="cls-5" cx="233.21" cy="68.83" rx="3.96" ry="4.09"/><ellipse class="cls-6" cx="233.21" cy="74.96" rx="1.98" ry="2.04"/><ellipse class="cls-7" cx="215" cy="65.23" rx="1.69" ry="1.74"/><ellipse class="cls-7" cx="195.21" cy="65.23" rx="1.69" ry="1.74"/><ellipse class="cls-45" cx="220.35" cy="77" rx="4.95" ry="4.09"/><ellipse class="cls-46" cx="194.63" cy="77" rx="4.95" ry="4.09"/><path d="M219.8,60.61h0a1,1,0,0,1-.84-1.14h0l.29-2.16a1,1,0,0,1,1.11-.87h0a1,1,0,0,1,.84,1.14h0l-.29,2.17A1,1,0,0,1,219.8,60.61Z"/><path d="M222.13,61.86h0a1.06,1.06,0,0,1-.06-1.45l1.69-1.88a1,1,0,0,1,1.39-.06h0a1.06,1.06,0,0,1,.06,1.45l-1.69,1.88A1,1,0,0,1,222.13,61.86Z"/><path d="M223.61,65.26h0a1,1,0,0,1,.42-1.35l0,0,2.23-1.12a1,1,0,0,1,1.33.48h0a1,1,0,0,1-.43,1.35h0l-2.24,1.12A1,1,0,0,1,223.61,65.26Z"/><path d="M196.57,60.33h0a1,1,0,0,1-1.23-.69l-.71-2.46a1,1,0,0,1,.64-1.26h0a1,1,0,0,1,1.23.69l.71,2.46a1,1,0,0,1-.64,1.26Z"/><path d="M193.45,61.9h0a1,1,0,0,1-1.4-.1l-1.64-1.92a1.07,1.07,0,0,1,.1-1.45h0a1,1,0,0,1,1.39.1l1.64,1.93a1,1,0,0,1-.06,1.41Z"/><path d="M192.06,65.14h0a1,1,0,0,1-1.3.55l-2.29-1a1,1,0,0,1-.55-1.3l0,0h0a1,1,0,0,1,1.29-.54l2.3,1a1,1,0,0,1,.54,1.31Z"/><path class="cls-10" d="M206.5,71.91l.07,5.11h-.07a5.11,5.11,0,0,1,0-10.22h0Z"/><ellipse class="cls-11" cx="205.49" cy="86.55" rx="1.99" ry="2.06"/><ellipse class="cls-11" cx="208.48" cy="86.55" rx="1.99" ry="2.06"/><path class="cls-11" d="M208.55,87.2l2.86-.9c.65,2.21-.11,4.44-1.68,4.93s-3.39-.93-4-3.14h0Z"/><rect class="cls-47" x="220.12" y="188.03" width="13.29" height="175.03" rx="1.9"/><rect class="cls-48" x="190.22" y="170.87" width="43.2" height="13.73"/><ellipse class="cls-49" cx="188.75" cy="193.48" rx="12.26" ry="16.83" transform="translate(-23.75 360.53) rotate(-83.88)"/><ellipse class="cls-50" cx="234.55" cy="192.74" rx="14.29" ry="17.83" transform="translate(3.11 389.21) rotate(-79.74)"/><ellipse class="cls-51" cx="211.52" cy="195.17" rx="17.81" ry="15.33"/><rect class="cls-17" x="194.7" y="358.54" width="9.07" height="14.83" rx="1.06"/><rect class="cls-18" x="194.7" y="361.39" width="9.07" height="3.66"/><path class="cls-19" d="M202.52,385.12l-11,.23a.89.89,0,0,1,0-.23c0-8.06,4.95-14.69,11-14.69s11,6.63,11,14.69Z"/><path class="cls-20" d="M187.18,385.16l-19.72.26v-.26c0-9,8.9-16.46,19.72-16.46s19.72,7.43,19.72,16.46Z"/><rect class="cls-21" x="167.46" y="385.12" width="46.02" height="2.1"/><path class="cls-22" d="M189.37,356.88v.38c0,2.28,2.21,4.12,4.94,4.12h9.85c2.73,0,4.94-1.84,4.94-4.12v-.38c0-2.28-2.21-4.12-4.94-4.12h-9.85C191.58,352.76,189.37,354.6,189.37,356.88Z"/><rect class="cls-17" x="223.69" y="358.54" width="9.07" height="14.83" rx="1.06"/><rect class="cls-18" x="223.69" y="361.38" width="9.07" height="3.66"/><path class="cls-19" d="M224.94,385.12l11,.23v-.23c0-8.06-5-14.69-11-14.69s-11,6.63-11,14.69Z"/><path class="cls-20" d="M240.28,385.16l19.72.26v-.26c0-9-8.9-16.46-19.72-16.46s-19.72,7.43-19.72,16.46Z"/><rect class="cls-21" x="213.99" y="385.11" width="46.02" height="2.1"/><path class="cls-22" d="M238.09,356.88v.38c0,2.28-2.21,4.12-4.93,4.12H223.3c-2.72,0-4.93-1.84-4.93-4.12v-.38c0-2.28,2.21-4.12,4.93-4.12h9.86C235.88,352.76,238.09,354.6,238.09,356.88Z"/><polygon class="cls-23" points="251.77 75.28 258.6 75.04 265.42 74.81 262.2 81.25 258.97 87.68 255.37 81.48 251.77 75.28"/><ellipse class="cls-23" cx="219.81" cy="45.89" rx="7.02" ry="16.87" transform="translate(45.79 187.81) rotate(-50.99)"/><ellipse class="cls-23" cx="195.89" cy="45.91" rx="16.91" ry="7.01" transform="translate(18.11 140.12) rotate(-41.11)"/><ellipse class="cls-23" cx="233.26" cy="39.15" rx="5.4" ry="4.93" transform="translate(-1.07 7.01) rotate(-1.72)"/><ellipse class="cls-23" cx="246.62" cy="44.56" rx="5.4" ry="4.93" transform="translate(-1.1 6.6) rotate(-1.53)"/><ellipse class="cls-23" cx="254.9" cy="54.25" rx="5.4" ry="4.93" transform="translate(-1.36 6.83) rotate(-1.53)"/><ellipse class="cls-23" cx="257.83" cy="66.53" rx="5.4" ry="4.93" transform="translate(-1.68 6.91) rotate(-1.53)"/><ellipse class="cls-23" cx="185.16" cy="38.22" rx="4.65" ry="4.59" transform="translate(34.46 152.39) rotate(-48.81)"/><ellipse class="cls-23" cx="173.01" cy="40.95" rx="4.65" ry="4.59" transform="translate(28.26 144.18) rotate(-48.81)"/><ellipse class="cls-23" cx="164.63" cy="48.99" rx="4.65" ry="4.59" transform="translate(19.34 140.62) rotate(-48.81)"/><ellipse class="cls-23" cx="160.4" cy="60.04" rx="4.65" ry="4.59" transform="translate(9.58 141.21) rotate(-48.81)"/><polygon class="cls-23" points="153.66 65.78 160.32 66.64 166.98 67.49 162.85 72.85 158.72 78.21 156.19 71.99 153.66 65.78"/><path class="cls-52" d="M263.64,231.51h0a.91.91,0,0,1-1.17-.56v0l-3.18-9.35a1,1,0,0,1,.56-1.21h0a.92.92,0,0,1,1.15.6v0l3.18,9.35A1,1,0,0,1,263.64,231.51Z"/><path class="cls-53" d="M267.12,230.25h0a.92.92,0,0,1-1.17-.57v0l-3.18-9.34a1,1,0,0,1,.57-1.22h0a.91.91,0,0,1,1.16.56v0l3.19,9.34A1,1,0,0,1,267.12,230.25Z"/><path class="cls-54" d="M270.6,229h0a.91.91,0,0,1-1.16-.55v0l-3.18-9.35a1,1,0,0,1,.56-1.21h0a.91.91,0,0,1,1.17.56v0l3.18,9.35A1,1,0,0,1,270.6,229Z"/><path class="cls-55" d="M274.09,227.72h0a.92.92,0,0,1-1.17-.57v0l-3.18-9.34a1,1,0,0,1,.56-1.22h0a.92.92,0,0,1,1.17.57v0l3.18,9.34A1,1,0,0,1,274.09,227.72Z"/><path class="cls-56" d="M256.49,228.07h0a1,1,0,0,1-.56-1.22l3.24-9.33a.91.91,0,0,1,1.15-.58h0a1,1,0,0,1,.56,1.22l-3.24,9.32A.92.92,0,0,1,256.49,228.07Z"/><path class="cls-57" d="M266.92,227.55h0a6.66,6.66,0,0,1-8-5l0-.07L234.88,119a6.9,6.9,0,0,1,4.91-8.27h0a6.68,6.68,0,0,1,8,5v0l24,103.46A6.87,6.87,0,0,1,266.92,227.55Z"/><path class="cls-58" d="M159.36,231.51h0a.91.91,0,0,0,1.17-.56v0l3.18-9.35a1,1,0,0,0-.56-1.21h0a.92.92,0,0,0-1.15.6v0l-3.18,9.35A1,1,0,0,0,159.36,231.51Z"/><path class="cls-59" d="M155.88,230.25h0a.92.92,0,0,0,1.17-.57v0l3.18-9.34a1,1,0,0,0-.57-1.22h0a.91.91,0,0,0-1.16.56v0L155.31,229A1,1,0,0,0,155.88,230.25Z"/><path class="cls-60" d="M152.39,229h0a.91.91,0,0,0,1.17-.56v0l3.18-9.35a1,1,0,0,0-.56-1.21h0a.91.91,0,0,0-1.17.56v0l-3.18,9.35A1,1,0,0,0,152.39,229Z"/><path class="cls-61" d="M148.91,227.72h0a.92.92,0,0,0,1.17-.57v0l3.18-9.34a1,1,0,0,0-.56-1.22h0a.92.92,0,0,0-1.17.57v0l-3.18,9.34A1,1,0,0,0,148.91,227.72Z"/><path class="cls-62" d="M166.51,228.07h0a1,1,0,0,0,.56-1.22l-3.24-9.33a.91.91,0,0,0-1.15-.58h0a1,1,0,0,0-.56,1.22l3.24,9.32a.92.92,0,0,0,1.16.59Z"/><path class="cls-63" d="M156.08,227.55h0a6.66,6.66,0,0,0,8-5l0-.07,24-103.46a6.9,6.9,0,0,0-4.91-8.27h0a6.68,6.68,0,0,0-8,5v0l-24,103.46A6.88,6.88,0,0,0,156.08,227.55Z"/><ellipse class="cls-64" cx="238.93" cy="110.13" rx="8.9" ry="9.19"/><ellipse class="cls-65" cx="228.96" cy="281.73" rx="8.9" ry="9.19"/><ellipse class="cls-66" cx="181.91" cy="114.24" rx="8.31" ry="8.58"/><ellipse class="cls-67" cx="199.05" cy="281.73" rx="8.9" ry="9.19"/><rect class="cls-40" x="1.5" y="0.4" width="420" height="420"/><rect class="cls-68" x="1036.54" y="188.03" width="13.29" height="175.03" rx="1.9"/><rect class="cls-69" x="1033.11" y="93.1" width="43.2" height="96.09" rx="6.19"/><rect class="cls-70" x="1028.72" y="38.17" width="47.49" height="71.53" rx="23.23"/><ellipse class="cls-71" cx="1076.21" cy="68.83" rx="5.94" ry="6.13"/><ellipse class="cls-5" cx="1076.21" cy="68.83" rx="3.96" ry="4.09"/><ellipse class="cls-6" cx="1076.21" cy="74.96" rx="1.98" ry="2.04"/><ellipse class="cls-72" cx="1063.35" cy="77" rx="4.95" ry="4.09"/><ellipse class="cls-73" cx="1037.63" cy="77" rx="4.95" ry="4.09"/><path d="M1059.8,63.61h0a1,1,0,0,1-.84-1.14h0l.29-2.16a1,1,0,0,1,1.11-.87h0a1,1,0,0,1,.84,1.14h0l-.29,2.17A1,1,0,0,1,1059.8,63.61Z"/><path d="M1062.13,63.86h0a1.06,1.06,0,0,1-.06-1.45l1.69-1.88a1,1,0,0,1,1.39-.06h0a1.06,1.06,0,0,1,.06,1.45l-1.69,1.88A1,1,0,0,1,1062.13,63.86Z"/><path d="M1064.61,65.26h0a1,1,0,0,1,.42-1.35l0,0,2.23-1.12a1,1,0,0,1,1.33.48h0a1,1,0,0,1-.43,1.35h0l-2.24,1.12A1,1,0,0,1,1064.61,65.26Z"/><path d="M1040.57,64.33h0a1,1,0,0,1-1.23-.69l-.71-2.46a1,1,0,0,1,.64-1.26h0a1,1,0,0,1,1.23.69l.71,2.46a1,1,0,0,1-.64,1.26Z"/><path d="M1037.45,64.9h0a1,1,0,0,1-1.4-.1l-1.64-1.92a1.07,1.07,0,0,1,.1-1.45h0a1,1,0,0,1,1.39.1l1.64,1.93a1,1,0,0,1-.06,1.41Z"/><path d="M1035.06,66.14h0a1,1,0,0,1-1.3.55l-2.29-1a1,1,0,0,1-.55-1.3l0,0h0a1,1,0,0,1,1.29-.54l2.3,1a1,1,0,0,1,.54,1.31Z"/><path class="cls-10" d="M1049.5,71.91l.07,5.11h-.07a5.11,5.11,0,1,1,0-10.22Z"/><ellipse class="cls-11" cx="1048.49" cy="86.55" rx="1.99" ry="2.06"/><ellipse class="cls-11" cx="1051.48" cy="86.55" rx="1.99" ry="2.06"/><path class="cls-11" d="M1051.55,87.2l2.86-.9c.65,2.21-.11,4.44-1.68,4.93s-3.39-.93-4-3.14h0Z"/><rect class="cls-74" x="1063.12" y="188.03" width="13.29" height="175.03" rx="1.9"/><rect class="cls-75" x="1033.11" y="170.87" width="43.31" height="13.73"/><ellipse class="cls-76" cx="1031.71" cy="193.48" rx="12.26" ry="16.83" transform="translate(729.35 1198.69) rotate(-83.88)"/><ellipse class="cls-77" cx="1077.51" cy="192.73" rx="14.29" ry="17.83" transform="translate(695.93 1218.68) rotate(-79.74)"/><ellipse class="cls-78" cx="1054.52" cy="195.17" rx="17.81" ry="15.33"/><rect class="cls-17" x="1037.7" y="358.54" width="9.07" height="14.83" rx="1.06"/><rect class="cls-18" x="1037.7" y="361.39" width="9.07" height="3.66"/><path class="cls-19" d="M1045.52,385.12l-11,.23a.89.89,0,0,1,0-.23c0-8.06,5-14.69,11-14.69s11,6.63,11,14.69Z"/><path class="cls-20" d="M1030.18,385.16l-19.72.26v-.26c0-9,8.9-16.46,19.72-16.46s19.72,7.43,19.72,16.46Z"/><rect class="cls-21" x="1010.46" y="385.12" width="46.02" height="2.1"/><path class="cls-22" d="M1032.37,356.88v.38c0,2.28,2.21,4.12,4.94,4.12h9.85c2.73,0,4.94-1.84,4.94-4.12v-.38c0-2.28-2.21-4.12-4.94-4.12h-9.85C1034.58,352.76,1032.37,354.6,1032.37,356.88Z"/><rect class="cls-17" x="1066.69" y="358.54" width="9.07" height="14.83" rx="1.06"/><rect class="cls-18" x="1066.69" y="361.38" width="9.07" height="3.66"/><path class="cls-19" d="M1067.94,385.12l11,.23v-.23c0-8.06-5-14.69-11-14.69s-11,6.63-11,14.69Z"/><path class="cls-20" d="M1083.28,385.16l19.72.26v-.26c0-9-8.9-16.46-19.72-16.46s-19.72,7.43-19.72,16.46Z"/><rect class="cls-21" x="1056.99" y="385.11" width="46.02" height="2.1"/><path class="cls-22" d="M1081.09,356.88v.38c0,2.28-2.21,4.12-4.93,4.12h-9.86c-2.72,0-4.93-1.84-4.93-4.12v-.38c0-2.28,2.21-4.12,4.93-4.12h9.86C1078.88,352.76,1081.09,354.6,1081.09,356.88Z"/><polygon class="cls-23" points="1094.77 75.28 1101.6 75.04 1108.42 74.81 1105.2 81.25 1101.97 87.68 1098.37 81.48 1094.77 75.28"/><ellipse class="cls-23" cx="1062.77" cy="45.86" rx="7.02" ry="16.87" transform="matrix(0.63, -0.78, 0.78, 0.63, 358.17, 842.81)"/><ellipse class="cls-23" cx="1038.94" cy="45.97" rx="16.91" ry="7.01" transform="translate(225.93 694.44) rotate(-41.11)"/><ellipse class="cls-23" cx="1076.61" cy="38.85" rx="5.4" ry="4.93" transform="translate(-0.65 28.76) rotate(-1.53)"/><ellipse class="cls-23" cx="1089.62" cy="44.58" rx="5.4" ry="4.93" transform="translate(-0.8 29.11) rotate(-1.53)"/><ellipse class="cls-23" cx="1097.9" cy="54.29" rx="5.4" ry="4.93" transform="translate(-1.06 29.33) rotate(-1.53)"/><ellipse class="cls-23" cx="1100.84" cy="66.55" rx="5.4" ry="4.93" transform="matrix(1, -0.03, 0.03, 1, -1.38, 29.42)"/><ellipse class="cls-23" cx="1028.19" cy="38.24" rx="4.65" ry="4.59" transform="translate(322.29 786.8) rotate(-48.81)"/><ellipse class="cls-23" cx="1016.04" cy="40.98" rx="4.65" ry="4.59" transform="translate(316.08 778.59) rotate(-48.81)"/><ellipse class="cls-23" cx="1007.66" cy="49.01" rx="4.65" ry="4.59" transform="translate(307.17 775.03) rotate(-48.81)"/><ellipse class="cls-23" cx="1003.43" cy="60.07" rx="4.65" ry="4.59" transform="translate(297.41 775.62) rotate(-48.81)"/><polygon class="cls-23" points="996.66 65.78 1003.32 66.64 1009.98 67.49 1005.85 72.85 1001.72 78.21 999.19 71.99 996.66 65.78"/><path class="cls-79" d="M1106.64,231.51h0a.91.91,0,0,1-1.17-.56v0l-3.18-9.35a1,1,0,0,1,.56-1.21h0a.91.91,0,0,1,1.17.56v0l3.18,9.35A1,1,0,0,1,1106.64,231.51Z"/><path class="cls-80" d="M1110.12,230.25h0a.92.92,0,0,1-1.17-.57v0l-3.18-9.34a1,1,0,0,1,.57-1.22h0a.91.91,0,0,1,1.16.56v0l3.19,9.34A1,1,0,0,1,1110.12,230.25Z"/><path class="cls-81" d="M1113.6,229h0a.91.91,0,0,1-1.16-.55v0l-3.18-9.35a1,1,0,0,1,.56-1.21h0a.91.91,0,0,1,1.17.56v0l3.18,9.35A1,1,0,0,1,1113.6,229Z"/><path class="cls-82" d="M1117.09,227.72h0a.92.92,0,0,1-1.17-.57v0l-3.18-9.34a1,1,0,0,1,.56-1.22h0a.92.92,0,0,1,1.17.57v0l3.18,9.34A1,1,0,0,1,1117.09,227.72Z"/><path class="cls-83" d="M1099.49,228.07h0a1,1,0,0,1-.56-1.22l3.24-9.33a.91.91,0,0,1,1.15-.58h0a1,1,0,0,1,.56,1.22l-3.24,9.32A.92.92,0,0,1,1099.49,228.07Z"/><path class="cls-84" d="M1109.92,227.55h0a6.66,6.66,0,0,1-8-5l0-.07-24-103.46a6.9,6.9,0,0,1,4.91-8.27h0a6.68,6.68,0,0,1,8,5v0l24,103.46A6.88,6.88,0,0,1,1109.92,227.55Z"/><path class="cls-85" d="M1002.36,231.51h0a.91.91,0,0,0,1.17-.56v0l3.18-9.35a1,1,0,0,0-.56-1.21h0a.91.91,0,0,0-1.17.56v0l-3.18,9.35A1,1,0,0,0,1002.36,231.51Z"/><path class="cls-86" d="M998.88,230.25h0a.92.92,0,0,0,1.17-.57v0l3.18-9.34a1,1,0,0,0-.57-1.22h0a.91.91,0,0,0-1.16.56v0L998.31,229A1,1,0,0,0,998.88,230.25Z"/><path class="cls-87" d="M995.39,229h0a.91.91,0,0,0,1.17-.56v0l3.18-9.35a1,1,0,0,0-.56-1.21h0a.91.91,0,0,0-1.17.56v0l-3.18,9.35A1,1,0,0,0,995.39,229Z"/><path class="cls-88" d="M991.91,227.72h0a.92.92,0,0,0,1.17-.57v0l3.18-9.34a1,1,0,0,0-.56-1.22h0a.92.92,0,0,0-1.17.57v0l-3.18,9.34A1,1,0,0,0,991.91,227.72Z"/><path class="cls-89" d="M1009.51,228.07h0a1,1,0,0,0,.56-1.22l-3.24-9.33a.91.91,0,0,0-1.15-.58h0a1,1,0,0,0-.56,1.22l3.24,9.32a.92.92,0,0,0,1.16.59Z"/><path class="cls-90" d="M999.08,227.55h0a6.66,6.66,0,0,0,8-5l0-.07,24-103.46a6.9,6.9,0,0,0-4.91-8.27h0a6.68,6.68,0,0,0-8,5v0l-24,103.46A6.88,6.88,0,0,0,999.08,227.55Z"/><ellipse class="cls-91" cx="1081.93" cy="110.13" rx="8.9" ry="9.19"/><ellipse class="cls-92" cx="1071.96" cy="281.73" rx="8.9" ry="9.19"/><ellipse class="cls-93" cx="1024.91" cy="114.24" rx="8.31" ry="8.58"/><ellipse class="cls-94" cx="1042.05" cy="281.73" rx="8.9" ry="9.19"/><rect class="cls-40" x="844.5" y="0.4" width="420" height="420"/><rect class="cls-95" x="1459.54" y="188.03" width="13.29" height="175.03" rx="1.9"/><rect class="cls-96" x="1456.11" y="93.1" width="43.2" height="96.09" rx="6.19"/><rect class="cls-97" x="1451.72" y="38.17" width="47.49" height="71.53" rx="23.23"/><ellipse cx="1482.97" cy="65.23" rx="4.37" ry="4.51"/><ellipse cx="1463.19" cy="65.23" rx="4.37" ry="4.51"/><ellipse class="cls-98" cx="1499.21" cy="68.83" rx="5.94" ry="6.13"/><ellipse class="cls-5" cx="1499.21" cy="68.83" rx="3.96" ry="4.09"/><ellipse class="cls-6" cx="1499.21" cy="74.96" rx="1.98" ry="2.04"/><ellipse class="cls-7" cx="1481" cy="65.23" rx="1.69" ry="1.74"/><ellipse class="cls-7" cx="1461.21" cy="65.23" rx="1.69" ry="1.74"/><ellipse class="cls-99" cx="1486.35" cy="77" rx="4.95" ry="4.09"/><ellipse class="cls-100" cx="1460.63" cy="77" rx="4.95" ry="4.09"/><path d="M1485.8,60.61h0a1,1,0,0,1-.84-1.14h0l.29-2.16a1,1,0,0,1,1.11-.87h0a1,1,0,0,1,.84,1.14h0l-.29,2.17A1,1,0,0,1,1485.8,60.61Z"/><path d="M1488.13,61.86h0a1.06,1.06,0,0,1-.06-1.45l1.69-1.88a1,1,0,0,1,1.39-.06h0a1.06,1.06,0,0,1,.06,1.45l-1.69,1.88A1,1,0,0,1,1488.13,61.86Z"/><path d="M1489.61,65.26h0a1,1,0,0,1,.42-1.35l0,0,2.23-1.12a1,1,0,0,1,1.33.48h0a1,1,0,0,1-.43,1.35h0l-2.24,1.12A1,1,0,0,1,1489.61,65.26Z"/><path d="M1462.57,60.33h0a1,1,0,0,1-1.23-.69l-.71-2.46a1,1,0,0,1,.64-1.26h0a1,1,0,0,1,1.23.69l.71,2.46a1,1,0,0,1-.64,1.26Z"/><path d="M1459.45,61.9h0a1,1,0,0,1-1.4-.1l-1.64-1.92a1.07,1.07,0,0,1,.1-1.45h0a1,1,0,0,1,1.39.1l1.64,1.93a1,1,0,0,1-.06,1.41Z"/><path d="M1458.06,65.14h0a1,1,0,0,1-1.3.55l-2.29-1a1,1,0,0,1-.55-1.3l0,0h0a1,1,0,0,1,1.29-.54l2.3,1a1,1,0,0,1,.54,1.31Z"/><path class="cls-10" d="M1472.5,71.91l.07,5.11h-.07a5.11,5.11,0,1,1,0-10.22Z"/><ellipse class="cls-11" cx="1471.49" cy="86.55" rx="1.99" ry="2.06"/><ellipse class="cls-11" cx="1474.48" cy="86.55" rx="1.99" ry="2.06"/><path class="cls-11" d="M1474.55,87.2l2.86-.9c.65,2.21-.11,4.44-1.68,4.93s-3.39-.93-4-3.14h0Z"/><rect class="cls-101" x="1486.12" y="188.03" width="13.29" height="175.03" rx="1.9"/><rect class="cls-102" x="1455.68" y="170.87" width="43.74" height="13.73"/><ellipse class="cls-103" cx="1454.69" cy="193.48" rx="12.26" ry="16.83" transform="translate(1107.23 1619.25) rotate(-83.88)"/><ellipse class="cls-104" cx="1500.49" cy="192.74" rx="14.29" ry="17.83" transform="translate(1043.57 1634.91) rotate(-79.74)"/><ellipse class="cls-105" cx="1477.52" cy="195.17" rx="17.81" ry="15.33"/><rect class="cls-17" x="1460.7" y="358.54" width="9.07" height="14.83" rx="1.06"/><rect class="cls-18" x="1460.7" y="361.39" width="9.07" height="3.66"/><path class="cls-19" d="M1468.52,385.12l-11,.23a.89.89,0,0,1,0-.23c0-8.06,5-14.69,11-14.69s11,6.63,11,14.69Z"/><path class="cls-20" d="M1453.18,385.16l-19.72.26v-.26c0-9,8.9-16.46,19.72-16.46s19.72,7.43,19.72,16.46Z"/><rect class="cls-21" x="1433.46" y="385.12" width="46.02" height="2.1"/><path class="cls-22" d="M1455.37,356.88v.38c0,2.28,2.21,4.12,4.94,4.12h9.85c2.73,0,4.94-1.84,4.94-4.12v-.38c0-2.28-2.21-4.12-4.94-4.12h-9.85C1457.58,352.76,1455.37,354.6,1455.37,356.88Z"/><rect class="cls-17" x="1489.69" y="358.54" width="9.07" height="14.83" rx="1.06"/><rect class="cls-18" x="1489.69" y="361.38" width="9.07" height="3.66"/><path class="cls-19" d="M1490.94,385.12l11,.23v-.23c0-8.06-5-14.69-11-14.69s-11,6.63-11,14.69Z"/><path class="cls-20" d="M1506.28,385.16l19.72.26v-.26c0-9-8.9-16.46-19.72-16.46s-19.72,7.43-19.72,16.46Z"/><rect class="cls-21" x="1479.99" y="385.11" width="46.02" height="2.1"/><path class="cls-22" d="M1504.09,356.88v.38c0,2.28-2.21,4.12-4.93,4.12h-9.86c-2.72,0-4.93-1.84-4.93-4.12v-.38c0-2.28,2.21-4.12,4.93-4.12h9.86C1501.88,352.76,1504.09,354.6,1504.09,356.88Z"/><polygon class="cls-23" points="1517.77 75.28 1524.6 75.04 1531.42 74.81 1528.2 81.25 1524.97 87.68 1521.37 81.48 1517.77 75.28"/><ellipse class="cls-23" cx="1485.76" cy="45.85" rx="7.02" ry="16.87" transform="matrix(0.63, -0.78, 0.78, 0.63, 514.92, 1171.48)"/><ellipse class="cls-23" cx="1461.96" cy="45.99" rx="16.91" ry="7.01" transform="matrix(0.75, -0.66, 0.66, 0.75, 330.21, 972.59)"/><ellipse class="cls-23" cx="1499.04" cy="38.95" rx="5.4" ry="4.93" transform="translate(-0.51 40.04) rotate(-1.53)"/><ellipse class="cls-23" cx="1512.62" cy="44.6" rx="5.4" ry="4.93" transform="translate(-0.65 40.4) rotate(-1.53)"/><ellipse class="cls-23" cx="1520.9" cy="54.3" rx="5.4" ry="4.93" transform="translate(-0.91 40.63) rotate(-1.53)"/><ellipse class="cls-23" cx="1523.84" cy="66.57" rx="5.4" ry="4.93" transform="matrix(1, -0.03, 0.03, 1, -1.23, 40.71)"/><ellipse class="cls-23" cx="1451.2" cy="38.25" rx="4.65" ry="4.59" transform="translate(466.71 1105.13) rotate(-48.81)"/><ellipse class="cls-23" cx="1439.05" cy="40.99" rx="4.65" ry="4.59" transform="translate(460.5 1096.92) rotate(-48.81)"/><ellipse class="cls-23" cx="1430.67" cy="49.02" rx="4.65" ry="4.59" transform="translate(451.6 1093.36) rotate(-48.81)"/><ellipse class="cls-23" cx="1426.44" cy="60.08" rx="4.65" ry="4.59" transform="translate(441.83 1093.95) rotate(-48.81)"/><polygon class="cls-23" points="1419.66 65.78 1426.32 66.64 1432.98 67.49 1428.85 72.85 1424.72 78.21 1422.19 71.99 1419.66 65.78"/><path class="cls-106" d="M1529.64,231.51h0a.91.91,0,0,1-1.17-.56v0l-3.18-9.35a1,1,0,0,1,.56-1.21h0a.91.91,0,0,1,1.17.56v0l3.18,9.35A1,1,0,0,1,1529.64,231.51Z"/><path class="cls-107" d="M1533.12,230.25h0a.92.92,0,0,1-1.17-.57v0l-3.18-9.34a1,1,0,0,1,.57-1.22h0a.91.91,0,0,1,1.16.56v0l3.19,9.34A1,1,0,0,1,1533.12,230.25Z"/><path class="cls-108" d="M1536.6,229h0a.91.91,0,0,1-1.16-.55v0l-3.18-9.35a1,1,0,0,1,.56-1.21h0a.91.91,0,0,1,1.17.56v0l3.18,9.35A1,1,0,0,1,1536.6,229Z"/><path class="cls-109" d="M1540.09,227.72h0a.92.92,0,0,1-1.17-.57v0l-3.18-9.34a1,1,0,0,1,.56-1.22h0a.92.92,0,0,1,1.17.57v0l3.18,9.34A1,1,0,0,1,1540.09,227.72Z"/><path class="cls-110" d="M1522.49,228.07h0a1,1,0,0,1-.56-1.22l3.24-9.33a.91.91,0,0,1,1.15-.58h0a1,1,0,0,1,.56,1.22l-3.24,9.32A.92.92,0,0,1,1522.49,228.07Z"/><path class="cls-111" d="M1532.92,227.55h0a6.66,6.66,0,0,1-8-5l0-.07-24-103.46a6.9,6.9,0,0,1,4.91-8.27h0a6.68,6.68,0,0,1,8,5v0l24,103.46A6.88,6.88,0,0,1,1532.92,227.55Z"/><path class="cls-112" d="M1425.36,231.51h0a.91.91,0,0,0,1.17-.56v0l3.18-9.35a1,1,0,0,0-.56-1.21h0a.91.91,0,0,0-1.17.56v0l-3.18,9.35A1,1,0,0,0,1425.36,231.51Z"/><path class="cls-113" d="M1421.88,230.25h0a.92.92,0,0,0,1.17-.57v0l3.18-9.34a1,1,0,0,0-.57-1.22h0a.91.91,0,0,0-1.16.56v0l-3.19,9.34A1,1,0,0,0,1421.88,230.25Z"/><path class="cls-114" d="M1418.39,229h0a.91.91,0,0,0,1.17-.56v0l3.18-9.35a1,1,0,0,0-.56-1.21h0a.91.91,0,0,0-1.17.56v0l-3.18,9.35A1,1,0,0,0,1418.39,229Z"/><path class="cls-115" d="M1414.91,227.72h0a.92.92,0,0,0,1.17-.57v0l3.18-9.34a1,1,0,0,0-.56-1.22h0a.92.92,0,0,0-1.17.57v0l-3.18,9.34A1,1,0,0,0,1414.91,227.72Z"/><path class="cls-116" d="M1432.51,228.07h0a1,1,0,0,0,.56-1.22l-3.24-9.33a.91.91,0,0,0-1.15-.58h0a1,1,0,0,0-.56,1.22l3.24,9.32a.92.92,0,0,0,1.16.59Z"/><path class="cls-117" d="M1422.08,227.55h0a6.66,6.66,0,0,0,8-5l0-.07,24-103.46a6.9,6.9,0,0,0-4.91-8.27h0a6.68,6.68,0,0,0-8,5v0l-24,103.46A6.88,6.88,0,0,0,1422.08,227.55Z"/><ellipse class="cls-118" cx="1504.93" cy="110.13" rx="8.9" ry="9.19"/><ellipse class="cls-119" cx="1494.96" cy="281.73" rx="8.9" ry="9.19"/><ellipse class="cls-120" cx="1447.91" cy="114.24" rx="8.31" ry="8.58"/><ellipse class="cls-121" cx="1465.05" cy="281.73" rx="8.9" ry="9.19"/><rect class="cls-40" x="1267.5" y="0.4" width="420" height="420"/><path class="cls-122" d="M638,64.24h-4.36a4.37,4.37,0,0,1,8.73-.42,2.94,2.94,0,0,1,0,.42Z"/><path class="cls-123" d="M618.27,65H613.7a4.57,4.57,0,0,1,9.13-.43,3.08,3.08,0,0,1,0,.43Z"/><path d="M1036.29,66.46h9a.5.5,0,0,1,.5.5h0a.5.5,0,0,1-.5.5h-9a.5.5,0,0,1-.5-.5h0A.5.5,0,0,1,1036.29,66.46Z"/><path d="M1055.29,66.46h9a.5.5,0,0,1,.5.5h0a.5.5,0,0,1-.5.5h-9a.5.5,0,0,1-.5-.5h0A.5.5,0,0,1,1055.29,66.46Z"/></svg>
