<svg id="Layer_1" data-name="Layer 1" xmlns="http://www.w3.org/2000/svg" width="85" height="85" viewBox="0 0 85 85"><defs><style>.cls-1{fill:#d6d6d6;}.cls-2{fill:#4c4c4c;}</style></defs><title>tandhjul</title><circle class="cls-1" cx="42.5" cy="42.5" r="42.5"/><path class="cls-2" d="M42.5,38.34l1.27.28a5.45,5.45,0,0,1,1.57.61l1,.59.63.92a4.18,4.18,0,0,1,.62,1.34l.24.92-.18,1a4.06,4.06,0,0,1-.58,1.46l-.56.89-.92.61a5.48,5.48,0,0,1-1.9.79L42.5,48l-1.2-.25a5.48,5.48,0,0,1-1.9-.79l-.92-.61-.56-.89A4.06,4.06,0,0,1,37.34,44l-.18-1,.24-.92A4.18,4.18,0,0,1,38,40.74l.63-.92,1-.59a5.45,5.45,0,0,1,1.57-.61l1.27-.28m3.27-22.29H39.23L37.77,23a21.51,21.51,0,0,0-6.17,2.42l-6-3.86L21,26.05l3.84,5.66A20.3,20.3,0,0,0,21.92,38l-6.59,1.31v6.36l6.29,1.25a20.28,20.28,0,0,0,2.76,7L21,59l4.63,4.5,5-3.2a21.45,21.45,0,0,0,7.49,3.12L39.23,69h6.54l1.17-5.58a21.45,21.45,0,0,0,7.49-3.12l5,3.2L64,59l-3.41-5a20.28,20.28,0,0,0,2.76-7l6.29-1.25V39.32L63.08,38a20.3,20.3,0,0,0-2.89-6.3L64,26.05l-4.63-4.5-6,3.86A21.51,21.51,0,0,0,47.23,23l-1.46-6.94Z"/></svg>
