<svg id="Layer_1" data-name="Layer 1" xmlns="http://www.w3.org/2000/svg" xmlns:xlink="http://www.w3.org/1999/xlink" width="1920" height="1080" viewBox="0 0 1920 1080"><defs><style>.cls-1{fill:url(#radial-gradient);}.cls-2{opacity:0.4;}.cls-3{fill:#88c3de;}.cls-4{fill:#598092;}.cls-5{fill:#f2902c;}.cls-6{fill:#fff;}</style><radialGradient id="radial-gradient" cx="206.05" cy="97.34" r="1135.5" gradientTransform="matrix(1, 0, 0, -1, 0, 1081.69)" gradientUnits="userSpaceOnUse"><stop offset="0" stop-color="#4d5972"/><stop offset="0.15" stop-color="#3b4558"/><stop offset="0.32" stop-color="#2c3341"/><stop offset="0.51" stop-color="#212731"/><stop offset="0.72" stop-color="#1b1f28"/><stop offset="1" stop-color="#191d25"/></radialGradient></defs><title>gameover_ny</title><rect class="cls-1" y="0.5" width="1920" height="1080"/><g class="cls-2"><rect class="cls-3" x="827.5" y="498.58" width="955" height="289.42" rx="16.5"/><path class="cls-4" d="M1766,503.08a12,12,0,0,1,12,12V771.5a12,12,0,0,1-12,12H844a12,12,0,0,1-12-12V515.08a12,12,0,0,1,12-12h922m0-9H844a21,21,0,0,0-21,21V771.5a21,21,0,0,0,21,21h922a21,21,0,0,0,21-21h0V515.08A21,21,0,0,0,1766,494.08Z"/></g><path class="cls-5" d="M466,141.25c20.76,20.11,25.24,38.78,25.24,52.2,0,21.56-12.21,44.39-38,63.25-25.33,18.47-62.31,32.71-116.9,39.42-48.1,5.91-87.36,2.93-122.72-3.82l-63.84,38.26L75.89,308l72.3-38.57c-30.37-15.57-58.25-38.74-58.25-75.33,0-41.16,38.47-71.7,84-88.28C214.25,91.2,271.1,83,336.3,91c40.8,5,70.51,14.32,94.83,26.26L465.22,98.9l31.42,24.18Zm-90.26,7.32c-10-4-21.69-7-39.4-8.12-32.21-2-58,3.55-76.14,12.17-18.85,9-33.84,23.46-33.84,42.11,0,11,5.27,19.54,13.71,26.9Zm-82.33,94.65c14,3.47,27.67,4.43,43.45,3.43,28.9-1.84,49.53-9,63.43-18.17s23.09-21.08,23.09-34.78c0-9.23-3.33-16.42-9.24-22.68Z"/><path class="cls-5" d="M556.3,121.3l41.79,86.91L635,130.56l37.27,4.38L613.72,259.08,580.78,263,498.33,114.48Z"/><path class="cls-5" d="M689.7,248.11a15.42,15.42,0,0,1-5.38-11.92,18.59,18.59,0,0,1,5.38-12.85,18,18,0,0,1,12.23-5.88A15.61,15.61,0,0,1,713.7,222c2.62,2.56,4.45,5.94,4.45,11.21a17.53,17.53,0,0,1-4.61,12.17,18.39,18.39,0,0,1-11.61,6.45A15.27,15.27,0,0,1,689.7,248.11Zm-1.89-36.41V136.77L714.94,140v70.73Z"/><path class="cls-5" d="M866.66,430.8l24,60.9L915,430.8h28.2L900.6,530.85H880.31l-42-100.05Z"/><path class="cls-5" d="M963.41,422.4a13.5,13.5,0,1,1-13.5,13.5h0a13.44,13.44,0,0,1,13.38-13.5Zm12,41.4v67.05h-24V463.8Z"/><path class="cls-5" d="M1067.66,530.85h-24V523.5a24.58,24.58,0,0,1-20.25,9.6c-9.6,0-17.25-3.15-23.55-9.3a37,37,0,0,1-10.8-26.7,36.56,36.56,0,0,1,11-26.55c6.6-6.3,15.45-9,23.7-9a26.54,26.54,0,0,1,20,8.7V421.5h24Zm-28.35-22.2a16.06,16.06,0,0,0,5.1-11.4,17.55,17.55,0,0,0-4.5-10.8,15.39,15.39,0,0,0-21.6-.15,16.46,16.46,0,0,0-4.65,11.4,15.13,15.13,0,0,0,4.65,10.5,14.89,14.89,0,0,0,10.65,4.5,16.38,16.38,0,0,0,10.35-4.05Z"/><path class="cls-5" d="M1088.51,508.65a34.59,34.59,0,0,0,9.6,5,31.31,31.31,0,0,0,9.3,1.65c1.8,0,4.65-.45,6.15-1.8a3.84,3.84,0,0,0,1.2-3.15,3.56,3.56,0,0,0-1.2-3c-1.5-1.35-3.9-1.8-6.3-2.4l-6.3-1.5c-3.3-.75-8.1-1.95-11.7-5.85a16.2,16.2,0,0,1-4.35-11.55,24,24,0,0,1,6.3-16.35c5.1-5.25,14.1-8.1,24-8.1a55.45,55.45,0,0,1,21.45,4.35l-8.1,15.3c-3.3-1.5-8.25-3.3-12.6-3.3a10.17,10.17,0,0,0-5.55,1.35,3.6,3.6,0,0,0-2.1,3.3,3.91,3.91,0,0,0,2.85,3.75c2.25.9,4.2.9,7.95,1.95l4.35,1.2c3.15.9,8,3.3,9.9,5.25,3.3,3.15,5.1,8.4,5.1,13.35a22.43,22.43,0,0,1-6.75,16.65c-7.8,7.8-19.2,8.4-24.75,8.4-6,0-15.45-.75-27-7.8Z"/><path class="cls-5" d="M1177.3,483.45v47.4h-24v-47.4h-7.65V463.8h7.65V441.75h24V463.8H1191v19.65Z"/><path class="cls-5" d="M1271.05,501.75h-50c0,3.6,1.35,8.4,4.2,11.25,1.5,1.5,4.5,3.3,9.9,3.3a19,19,0,0,0,7.8-1.8,11.23,11.23,0,0,0,4.2-4.5h23a30.2,30.2,0,0,1-8.1,13.8c-5,4.8-12.75,9.3-27.3,9.3-8.85,0-19.5-2-27.75-10.2-4.35-4.35-9.9-12.6-9.9-25.35,0-11.25,4.2-20.25,10.05-25.95,5.55-5.4,14.25-9.75,27.45-9.75,7.8,0,17.85,1.65,25.8,9.15,9.45,9,10.65,20.7,10.65,28.2ZM1249,488a16.07,16.07,0,0,0-3.9-7.2c-3.15-3.15-7.5-3.6-9.9-3.6-4,0-7.2,1.05-9.75,3.6a13.68,13.68,0,0,0-3.6,7.2Z"/><path class="cls-5" d="M1395.7,530.85h-24V523.5a24.58,24.58,0,0,1-20.25,9.6c-9.6,0-17.25-3.15-23.55-9.3a37,37,0,0,1-10.8-26.7,36.56,36.56,0,0,1,11-26.55c6.6-6.3,15.45-9,23.7-9a26.54,26.54,0,0,1,20,8.7V421.5h24Zm-28.35-22.2a16.06,16.06,0,0,0,5.1-11.4,17.55,17.55,0,0,0-4.5-10.8,15.39,15.39,0,0,0-21.6-.15,16.46,16.46,0,0,0-4.65,11.4,15.13,15.13,0,0,0,4.65,10.5,14.89,14.89,0,0,0,10.65,4.5,16.38,16.38,0,0,0,10.35-4.05Z"/><path class="cls-5" d="M1436.2,463.8v37.5c0,2.7.45,6.9,3.6,9.75,2.4,2.1,5.55,2.55,8.4,2.55s5.85-.3,8.55-2.85c3-3,3.45-6.45,3.45-9.45V463.8h24v41.85c0,5.7-.45,11.85-6.45,18-8.25,8.55-19.8,9.45-29,9.45-10,0-22.35-1.05-30.3-9.6-5.1-5.4-6.3-11.4-6.3-17.85V463.8Z"/><path class="cls-5" d="M1520.05,496.2V471.9a18.35,18.35,0,0,0,5.1.75c4.65,0,10.5-1.35,14.1-4.95a12,12,0,0,0,3.45-8.25,10.24,10.24,0,0,0-2.55-7.05,9.79,9.79,0,0,0-7.2-2.85,8.56,8.56,0,0,0-6.45,2.55,10.87,10.87,0,0,0-2.7,7.5h-26.4a32.29,32.29,0,0,1,9-21.3c4.95-4.95,13.5-9.75,26.1-9.75s21.15,4.65,26.55,9.75a29.3,29.3,0,0,1,9.45,21.45,29,29,0,0,1-7.2,18.9,31.75,31.75,0,0,1-16.8,9.6v7.95Zm2,32.25a15.21,15.21,0,0,1-.38-21.52l.38-.38a14.86,14.86,0,0,1,10.8-4.65,15.86,15.86,0,0,1,11.25,4.8,15.58,15.58,0,0,1-.15,21.75,15.28,15.28,0,0,1-22,0Z"/><path class="cls-6" d="M832,143.14c0-2.44-2.57-1.24-2.57-3.22,0-.88.46-1.38,2.11-1.38H841c15.55,0,21.94,6.71,21.94,16.79,0,10.26-6.67,16.88-18.63,16.88H831.53c-1.65,0-2.11-.5-2.11-1.38,0-2,2.57-.78,2.57-3.22Zm6.81,21.71c0,3.87.46,4.23,3.77,4.23,8.38,0,13-5.7,13-13.7,0-8.29-4.64-13.71-13-13.71-3.31,0-3.77.36-3.77,4.23Z"/><path class="cls-6" d="M878.41,149.76c3.86,0,8.92,1.8,8.88,6.4,0,6.21-10.49,7.31-15.28,7.59a6.43,6.43,0,0,0,6.44,5.61,9.45,9.45,0,0,0,6.44-2.76c.56-.51.88-1,1.71-1a1,1,0,0,1,1,1v.06c0,2.3-5.06,6-10.62,6-6.35,0-11.69-4.32-11.74-10.9C865.34,154.64,869.8,149.76,878.41,149.76Zm-6.77,11.5c2.4-.23,9.66-1.15,9.66-5.75a3,3,0,0,0-3.31-3.26c-4.41,0-6.44,4.41-6.35,9Z"/><path class="cls-6" d="M892.25,172.21c-1.19,0-1.7-.46-1.7-1.24,0-1.75,2.16-.32,2.16-3.36v-9.29c0-5.29-3.08-3.31-3.08-5.29,0-1.34,1.38-1.61,2.67-2.26a10.75,10.75,0,0,1,3.17-1c2,0,2.35,3.91,2.49,5.39h.09c1.06-2.53,3.36-5.39,6.12-5.39a3,3,0,0,1,3.09,2.91c0,.1,0,.21,0,.31,0,1.24-.55,2.58-2.16,2.58-.69,0-1.84-.74-2.76-.74-1.89,0-3.64,3.18-3.64,6.63v6.16c0,3,2.16,1.61,2.16,3.36,0,.78-.5,1.24-1.7,1.24Z"/><path class="cls-6" d="M924.63,143.14c0-2.26-2.39-1.75-2.39-3.13,0-.69.55-1,1.11-1.1s4.32-1.75,5.61-1.75,1.66,1,1.66,3v12.38a9.54,9.54,0,0,1,6.8-2.81c6.35,0,9.85,4.65,9.85,10.77,0,7.4-5.34,12.14-12.79,12.14-6.07,0-9.85-2.85-9.85-9Zm6,19.18c0,5.84,2.11,7.59,4.64,7.59,3.36,0,5.66-2.57,5.66-8.19,0-5.79-2.21-9-5.15-9-2.12,0-5.15,1.47-5.15,6.16Z"/><path class="cls-6" d="M951.36,172.21c-1.2,0-1.7-.46-1.7-1.24,0-1.75,2.16-.32,2.16-3.36V143.14c0-2.49-2.48-1.38-2.48-3.41,0-.92,4.92-2.57,6.8-2.57,1.06,0,1.66.55,1.66,3v27.42c0,3,2.16,1.61,2.16,3.36,0,.78-.5,1.24-1.7,1.24Z"/><path class="cls-6" d="M975,149.76c3.87,0,8.93,1.8,8.88,6.4,0,6.21-10.49,7.31-15.27,7.59a6.43,6.43,0,0,0,6.44,5.61,9.45,9.45,0,0,0,6.44-2.76c.55-.51.88-1,1.7-1a1,1,0,0,1,1.06.94v.12c0,2.3-5.06,6-10.63,6-6.34,0-11.68-4.32-11.73-10.9C961.94,154.64,966.4,149.76,975,149.76Zm-6.76,11.5c2.39-.23,9.66-1.15,9.66-5.75a3,3,0,0,0-3.31-3.26C970.17,152.25,968.15,156.66,968.24,161.26Z"/><path class="cls-6" d="M1007.62,150.22a1,1,0,0,1,1,1v.06c0,1.34-.87.92-1.56,3.54-2.76,10.22-6.12,15.32-7.18,17-.46.78-1,.82-2.81.82a3.8,3.8,0,0,1-3.63-2.11c-3.4-5.34-4.88-10-6.53-16.84-.28-1.15-1.84-1.1-1.84-2.58,0-.64.46-.92,1.56-.92h7.64c1,0,1.38.46,1.38,1,0,1.48-2.3,1.11-2.3,2.67,0,3.55,3.31,11.09,5.24,14.36,2.49-4,4.79-10.31,4.79-13.67,0-2.11-2.3-1.79-2.3-3.36,0-.69.55-1,1.47-1Z"/><path class="cls-6" d="M1043.41,172.21c-2.12,0-2-1-2.17-2.71-1.84,2.21-4,3.17-7.4,3.17-7,0-9.85-5.15-9.85-10.95,0-6.53,4.51-12,11.27-12a9.09,9.09,0,0,1,5.57,1.84V143.1c0-2.26-2.58-1.75-2.58-3.31a1.51,1.51,0,0,1,1.11-1.29,28.82,28.82,0,0,1,5.8-1.38c1.28,0,1.65.27,1.65,1.65v28.94c0,2.3,2.21,2,2.21,3s-.37,1.42-2.21,1.42Zm-2.58-15.09c0-2.85-2.16-4.41-4.83-4.41-3.17,0-5.66,2.57-5.66,8.42s2.49,8.41,5.66,8.41c2.48,0,4.83-2,4.83-4.32Z"/><path class="cls-6" d="M1063.78,149.76c3.87,0,8.93,1.8,8.88,6.4,0,6.21-10.49,7.31-15.27,7.59a6.43,6.43,0,0,0,6.44,5.61,9.47,9.47,0,0,0,6.44-2.76c.55-.51.87-1,1.7-1a1,1,0,0,1,1.06.94v.12c0,2.3-5.06,6-10.63,6-6.35,0-11.68-4.32-11.73-10.9C1050.72,154.64,1055.18,149.76,1063.78,149.76Zm-6.76,11.5c2.39-.23,9.66-1.15,9.66-5.75a3,3,0,0,0-3.31-3.26c-4.37,0-6.44,4.41-6.37,9Z"/><path class="cls-6" d="M1076.94,172.21c-1.2,0-1.7-.46-1.7-1.24,0-1.75,2.16-.32,2.16-3.36V143.14c0-2.49-2.49-1.38-2.49-3.41,0-.92,4.93-2.57,6.81-2.57,1.06,0,1.66.55,1.66,3v27.42c0,3,2.16,1.61,2.16,3.36,0,.78-.5,1.24-1.7,1.24Z"/><path class="cls-6" d="M1099.89,150.22c1.06,0,1.75.37,1.75,1.47s-.69,1.48-1.75,1.48h-3.77v13.34c0,2.16.74,2.76,3.08,2.76,2.12,0,2.67.32,2.67,1.33a1.4,1.4,0,0,1-1.15,1.61,1.19,1.19,0,0,1-.46,0h-6.53c-3,0-3.59-.5-3.59-3v-16h-1.89c-1.33,0-1.74-.32-1.74-1.48s.87-1.33,2.57-1.47c5.25-.5,3.73-8,5.84-8,1,0,1.2.46,1.2,1.84v6.16Z"/><path class="cls-6" d="M1135.31,159.15c0-3.31-.27-6-4.37-6a4.84,4.84,0,0,0-4.78,4.9v9.57c0,3,2.16,1.61,2.16,3.36,0,.78-.51,1.24-1.7,1.24h-6.9c-1.2,0-1.71-.46-1.71-1.24,0-1.75,2.17-.32,2.17-3.36V156.39c0-3.59-2.44-1.84-2.44-4,0-1.75,5.06-2.67,6-2.67,1.38,0,1.56.92,1.66,3.68a9.69,9.69,0,0,1,7.59-3.68c5.7,0,8.32,2.86,8.32,9v8.83c0,3,2.17,1.61,2.17,3.36,0,.78-.51,1.24-1.71,1.24h-6.9c-1.19,0-1.7-.46-1.7-1.24,0-1.75,2.16-.32,2.16-3.36Z"/><path class="cls-6" d="M1157.44,172.67c-6.9,0-12.47-4.64-12.47-11.45s5.57-11.46,12.47-11.46,12.47,4.65,12.47,11.46S1164.34,172.67,1157.44,172.67Zm0-2.76c3.45,0,6.12-2.94,6.12-8.69s-2.67-8.7-6.12-8.7-6.12,2.95-6.12,8.7S1154,169.91,1157.44,169.91Z"/><path class="cls-6" d="M1192,153.26a10.22,10.22,0,0,1,2.86,7.08,9.35,9.35,0,0,1-4.47,8.42c2.67.78,5.11,2.72,5.11,5.29,0,4.33-4.23,7.18-12.28,7.18-7,0-10.54-1.56-10.54-4s2.81-3.68,4.65-3.68c.87,0,1.52.28,1.52.83s-.46.87-.46,1.47c0,.83.73,2,5,2,4.65,0,6.3-1.66,6.3-3.5s-1.61-3.17-3.26-3.91a9.48,9.48,0,0,1-3.08.51c-6.54,0-11.23-3.87-11.23-10.13,0-7.27,4.83-11,11.92-11,3.12,0,6.25.46,9.38.46,2.53,0,2.85.65,2.85,1.47,0,1.11-.6,1.48-2.44,1.57Zm-8.51-.74c-2.8,0-5,2.67-5,7.73s2.21,7.73,5,7.73,5-2.67,5-7.73-2.21-7.73-5-7.73Z"/><path class="cls-6" d="M1199.76,172.21c-1.2,0-1.71-.46-1.71-1.24,0-1.75,2.17-.32,2.17-3.36V143.14c0-2.49-2.49-1.38-2.49-3.41,0-.92,4.92-2.57,6.81-2.57,1.06,0,1.66.55,1.66,3v27.42c0,3,2.16,1.61,2.16,3.36,0,.78-.51,1.24-1.7,1.24Z"/><path class="cls-6" d="M1223.4,149.76c3.87,0,8.93,1.8,8.88,6.4,0,6.21-10.49,7.31-15.27,7.59a6.43,6.43,0,0,0,6.44,5.61,9.47,9.47,0,0,0,6.44-2.76c.55-.51.87-1,1.7-1a1,1,0,0,1,1.06.94v.12c0,2.3-5.06,6-10.63,6-6.35,0-11.69-4.32-11.73-10.9C1210.33,154.64,1214.8,149.76,1223.4,149.76Zm-6.76,11.5c2.39-.23,9.66-1.15,9.66-5.75a3,3,0,0,0-3.31-3.26C1218.57,152.25,1216.55,156.66,1216.64,161.26Z"/><path class="cls-6" d="M1251.37,172.21c-1.2,0-1.7-.41-1.7-1.19,0-1.75,2.16-.32,2.16-3.36V155.74c0-2.25-2.49-1.75-2.49-3.12,0-.69.65-1,1.2-1.11s4.32-1.75,5.61-1.75,1.66,1,1.66,3.5v14.4c0,3,2.16,1.61,2.16,3.36,0,.78-.51,1.19-1.7,1.19Zm6.58-27.78c0,2-1.48,3.22-3.82,3.22-2.12,0-3.64-1.2-3.64-3.22s1.52-3.22,3.82-3.22,3.69,1.24,3.69,3.22Z"/><path class="cls-6" d="M1279.29,159.15c0-3.31-.28-6-4.37-6a4.83,4.83,0,0,0-4.78,4.88v9.59c0,3,2.16,1.61,2.16,3.36,0,.78-.51,1.24-1.7,1.24h-6.91c-1.19,0-1.7-.46-1.7-1.24,0-1.75,2.16-.32,2.16-3.36V156.39c0-3.59-2.43-1.84-2.43-4,0-1.75,5.06-2.67,6-2.67,1.38,0,1.56.92,1.65,3.68a9.72,9.72,0,0,1,7.59-3.68c5.71,0,8.33,2.86,8.33,9v8.83c0,3,2.16,1.61,2.16,3.36,0,.78-.5,1.24-1.7,1.24h-6.9c-1.2,0-1.7-.46-1.7-1.24,0-1.75,2.16-.32,2.16-3.36Z"/><path class="cls-6" d="M1301.37,150.22c1.06,0,1.75.37,1.75,1.47s-.69,1.48-1.75,1.48h-3.77v13.34c0,2.16.73,2.76,3.08,2.76,2.12,0,2.67.32,2.67,1.33a1.4,1.4,0,0,1-1.15,1.61,1.19,1.19,0,0,1-.46,0h-6.54c-2.94,0-3.58-.5-3.58-3v-16h-1.89c-1.33,0-1.75-.32-1.75-1.48s.88-1.33,2.58-1.47c5.24-.5,3.72-8,5.84-8,1,0,1.2.46,1.2,1.84v6.16Z"/><path class="cls-6" d="M1306.57,172.21c-1.2,0-1.71-.41-1.71-1.19,0-1.75,2.17-.32,2.17-3.36V155.74c0-2.25-2.49-1.75-2.49-3.12,0-.69.65-1,1.2-1.11s4.32-1.75,5.61-1.75,1.66,1,1.66,3.5v14.4c0,3,2.16,1.61,2.16,3.36,0,.78-.51,1.19-1.7,1.19Zm6.57-27.78c0,2-1.47,3.22-3.81,3.22-2.12,0-3.64-1.2-3.64-3.22s1.52-3.22,3.82-3.22,3.63,1.24,3.63,3.22Z"/><path class="cls-6" d="M1347.6,172.21c-1.2,0-1.7-.46-1.7-1.24,0-1.75,2.16-.32,2.16-3.36v-10.3c0-2.76-1.33-4.14-3.59-4.14-2.9,0-4.78,2.16-4.78,4v10.49c0,3,2.16,1.61,2.16,3.36,0,.78-.51,1.24-1.7,1.24h-6.9c-1.2,0-1.71-.46-1.71-1.24,0-1.75,2.17-.32,2.17-3.36v-10.3c0-2.76-1.34-4.14-3.59-4.14-2.9,0-4.79,2.16-4.79,4v10.49c0,3,2.17,1.61,2.17,3.36,0,.78-.51,1.24-1.71,1.24h-6.9c-1.19,0-1.7-.46-1.7-1.24,0-1.75,2.16-.32,2.16-3.36V156.39c0-3.59-2.43-1.84-2.43-4,0-1.75,5.06-2.67,6-2.67,1.38,0,1.56.92,1.65,3.68h.09a8.72,8.72,0,0,1,7.36-3.68,6.58,6.58,0,0,1,6.35,3.68,9.32,9.32,0,0,1,8-3.68c3.68,0,7.68,2,7.68,7.32v10.53c0,3,2.16,1.61,2.16,3.36,0,.78-.5,1.24-1.7,1.24Z"/><path class="cls-6" d="M1370.6,149.76c3.86,0,8.92,1.8,8.88,6.4,0,6.21-10.49,7.31-15.28,7.59a6.43,6.43,0,0,0,6.44,5.61,9.47,9.47,0,0,0,6.44-2.76c.56-.51.88-1,1.71-1a1,1,0,0,1,1.06.94v.12c0,2.3-5.07,6-10.63,6-6.35,0-11.69-4.32-11.73-10.9C1357.53,154.64,1362,149.76,1370.6,149.76Zm-6.77,11.5c2.4-.23,9.67-1.15,9.67-5.75a3,3,0,0,0-2.71-3.27,4.14,4.14,0,0,0-.61,0C1365.77,152.25,1363.74,156.66,1363.83,161.26Z"/><path class="cls-6" d="M1398.43,143.14c0-2.26-2.4-1.75-2.4-3.13,0-.69.56-1,1.11-1.1s4.32-1.75,5.61-1.75,1.66,1,1.66,3v12.38a9.56,9.56,0,0,1,6.81-2.81c6.34,0,9.84,4.65,9.84,10.77,0,7.4-5.34,12.14-12.79,12.14-6.07,0-9.84-2.85-9.84-9Zm6,19.18c0,5.84,2.11,7.59,4.64,7.59,3.36,0,5.66-2.57,5.66-8.19,0-5.79-2.21-9-5.15-9-2.12,0-5.15,1.47-5.15,6.16Z"/><path class="cls-6" d="M1425.24,172.21c-1.19,0-1.7-.41-1.7-1.19,0-1.75,2.16-.32,2.16-3.36V155.74c0-2.25-2.48-1.75-2.48-3.12,0-.69.64-1,1.2-1.11s4.32-1.75,5.61-1.75,1.65,1,1.65,3.5v14.4c0,3,2.17,1.61,2.17,3.36,0,.78-.51,1.19-1.71,1.19Zm6.58-27.78c0,2-1.47,3.22-3.82,3.22-2.11,0-3.63-1.2-3.63-3.22s1.52-3.22,3.82-3.22,3.63,1.24,3.63,3.22Z"/><path class="cls-6" d="M1437.57,172.21c-1.19,0-1.7-.46-1.7-1.24,0-1.75,2.16-.32,2.16-3.36V143.14c0-2.49-2.48-1.38-2.48-3.41,0-.92,4.92-2.57,6.81-2.57,1.05,0,1.65.55,1.65,3v27.42c0,3,2.16,1.61,2.16,3.36,0,.78-.5,1.24-1.7,1.24Z"/><path class="cls-6" d="M1450,172.21c-1.2,0-1.7-.46-1.7-1.24,0-1.75,2.16-.32,2.16-3.36V143.14c0-2.49-2.48-1.38-2.48-3.41,0-.92,4.92-2.57,6.8-2.57,1.06,0,1.66.55,1.66,3v27.42c0,3,2.16,1.61,2.16,3.36,0,.78-.5,1.24-1.7,1.24Z"/><path class="cls-6" d="M1473.64,149.76c3.86,0,8.92,1.8,8.87,6.4,0,6.21-10.49,7.31-15.27,7.59a6.43,6.43,0,0,0,6.44,5.61,9.45,9.45,0,0,0,6.44-2.76c.55-.51.88-1,1.7-1a1,1,0,0,1,1.06.94v.12c0,2.3-5.06,6-10.63,6-6.34,0-11.68-4.32-11.73-10.9C1460.57,154.64,1465,149.76,1473.64,149.76Zm-6.77,11.5c2.39-.23,9.66-1.15,9.66-5.75a3,3,0,0,0-3.31-3.26C1468.8,152.25,1466.78,156.66,1466.87,161.26Z"/><path class="cls-6" d="M1504.32,172.21c-2.12,0-2-1-2.16-2.71-1.84,2.21-4,3.17-7.41,3.17-7,0-9.85-5.15-9.85-10.95,0-6.53,4.51-12,11.27-12a9.09,9.09,0,0,1,5.57,1.84V143.1c0-2.26-2.57-1.75-2.57-3.31a1.51,1.51,0,0,1,1.1-1.29,29.68,29.68,0,0,1,5.8-1.38c1.28,0,1.65.27,1.65,1.65v28.94c0,2.3,2.21,2,2.21,3s-.37,1.42-2.21,1.42Zm-2.58-15.09c0-2.85-2.16-4.41-4.83-4.41-3.17,0-5.66,2.57-5.66,8.42s2.49,8.41,5.66,8.41c2.49,0,4.83-2,4.83-4.32Z"/><path class="cls-6" d="M1524.69,149.76c3.87,0,8.93,1.8,8.88,6.4,0,6.21-10.49,7.31-15.27,7.59a6.43,6.43,0,0,0,6.44,5.61,9.47,9.47,0,0,0,6.44-2.76c.55-.51.88-1,1.7-1a1,1,0,0,1,1.06.94v.12c0,2.3-5.06,6-10.63,6-6.34,0-11.68-4.32-11.73-10.9C1511.63,154.64,1516.09,149.76,1524.69,149.76Zm-6.76,11.5c2.39-.23,9.66-1.15,9.66-5.75a3,3,0,0,0-3.31-3.26c-4.42,0-6.44,4.41-6.35,9Z"/><path class="cls-6" d="M1538.54,172.21c-1.2,0-1.7-.46-1.7-1.24,0-1.75,2.16-.32,2.16-3.36v-9.29c0-5.29-3.08-3.31-3.08-5.29,0-1.34,1.38-1.61,2.66-2.26a11.11,11.11,0,0,1,3.18-1c2,0,2.35,3.91,2.48,5.39h.1c1.05-2.53,3.35-5.39,6.11-5.39a3,3,0,0,1,3.1,2.9c0,.11,0,.21,0,.32,0,1.24-.56,2.58-2.17,2.58-.69,0-1.84-.74-2.76-.74-1.88,0-3.63,3.18-3.63,6.63v6.16c0,3,2.16,1.61,2.16,3.36,0,.78-.5,1.24-1.7,1.24Z"/><path class="cls-6" d="M1588.77,172.21c-2.3,0-2.48-.78-2.76-2.9a10.63,10.63,0,0,1-7.63,3.36c-5.34,0-7.55-3.4-7.55-7.59v-9.43c0-3.26-2.12-1.84-2.12-3.59,0-1.47,5.52-2.3,6.21-2.3,1.11,0,1.89.55,1.89,3.41v10.9c0,4.19,1,5.2,3.68,5.2s5.15-1.66,5.15-4.23v-9.39c0-3.26-2.11-1.84-2.11-3.59,0-1.47,5.52-2.3,6.21-2.3,1.1,0,1.88.55,1.88,3.41v14.58c0,2.53,2.35,2,2.35,3.22,0,.69-.32,1.24-1.7,1.24Z"/><path class="cls-6" d="M1614.72,172.21c-2.12,0-2-1-2.17-2.71-1.84,2.21-4,3.17-7.4,3.17-7,0-9.85-5.15-9.85-10.95,0-6.53,4.51-12,11.27-12a9.09,9.09,0,0,1,5.57,1.84V143.1c0-2.26-2.58-1.75-2.58-3.31a1.51,1.51,0,0,1,1.11-1.29,29.58,29.58,0,0,1,5.79-1.38c1.29,0,1.66.27,1.66,1.65v28.94c0,2.3,2.21,2,2.21,3s-.37,1.42-2.21,1.42Zm-2.58-15.09c0-2.85-2.16-4.41-4.83-4.41-3.18,0-5.66,2.57-5.66,8.42s2.48,8.41,5.66,8.41c2.48,0,4.83-2,4.83-4.32Z"/><path class="cls-6" d="M1635.09,149.76c3.87,0,8.93,1.8,8.88,6.4,0,6.21-10.49,7.31-15.27,7.59a6.43,6.43,0,0,0,6.44,5.61,9.47,9.47,0,0,0,6.44-2.76c.55-.51.87-1,1.7-1a1,1,0,0,1,1.06.94v.12c0,2.3-5.06,6-10.63,6-6.35,0-11.68-4.32-11.73-10.9C1622,154.64,1626.49,149.76,1635.09,149.76Zm-6.76,11.5c2.39-.23,9.66-1.15,9.66-5.75a3,3,0,0,0-3.31-3.26C1630.26,152.25,1628.24,156.66,1628.33,161.26Z"/><path class="cls-6" d="M1663.84,159.15c0-3.31-.27-6-4.37-6a4.84,4.84,0,0,0-4.78,4.9v9.57c0,3,2.16,1.61,2.16,3.36,0,.78-.51,1.24-1.7,1.24h-6.9c-1.2,0-1.71-.46-1.71-1.24,0-1.75,2.17-.32,2.17-3.36V156.39c0-3.59-2.44-1.84-2.44-4,0-1.75,5.06-2.67,6-2.67,1.38,0,1.56.92,1.66,3.68a9.69,9.69,0,0,1,7.59-3.68c5.7,0,8.32,2.86,8.32,9v8.83c0,3,2.17,1.61,2.17,3.36,0,.78-.51,1.24-1.71,1.24h-6.9c-1.19,0-1.7-.46-1.7-1.24,0-1.75,2.16-.32,2.16-3.36Z"/><path class="cls-6" d="M831.39,227.41c-1.19,0-1.7-.41-1.7-1.19,0-1.75,2.16-.33,2.16-3.36V210.94c0-2.25-2.48-1.75-2.48-3.13,0-.69.64-1,1.2-1.1s4.32-1.75,5.61-1.75,1.65,1,1.65,3.5v14.4c0,3,2.17,1.61,2.17,3.36,0,.78-.51,1.19-1.71,1.19ZM838,199.63c0,2-1.47,3.22-3.82,3.22-2.11,0-3.63-1.2-3.63-3.22s1.52-3.22,3.82-3.22S838,197.65,838,199.63Z"/><path class="cls-6" d="M859.32,214.35c0-3.32-.28-6-4.37-6a4.84,4.84,0,0,0-4.79,4.89v9.58c0,3,2.16,1.61,2.16,3.36,0,.78-.5,1.24-1.7,1.24h-6.9c-1.2,0-1.7-.46-1.7-1.24,0-1.75,2.16-.32,2.16-3.36V211.59c0-3.59-2.44-1.84-2.44-4,0-1.75,5.06-2.67,6-2.67,1.38,0,1.57.92,1.66,3.68A9.74,9.74,0,0,1,857,205c5.7,0,8.33,2.85,8.33,9v8.83c0,3,2.16,1.61,2.16,3.36,0,.78-.51,1.24-1.7,1.24h-6.9c-1.2,0-1.71-.46-1.71-1.24,0-1.75,2.17-.32,2.17-3.36Z"/><path class="cls-6" d="M890.32,205.42a1,1,0,0,1,1,1v.06c0,1.33-.87.92-1.56,3.54-2.76,10.22-6.12,15.32-7.18,17-.46.79-1,.83-2.8.83a3.81,3.81,0,0,1-3.64-2.11c-3.4-5.34-4.88-10-6.53-16.84-.28-1.15-1.84-1.11-1.84-2.58,0-.64.46-.92,1.56-.92H877c1,0,1.38.46,1.38,1,0,1.48-2.3,1.11-2.3,2.67,0,3.55,3.31,11.09,5.24,14.36,2.49-4,4.79-10.31,4.79-13.67,0-2.11-2.3-1.79-2.3-3.36,0-.69.55-1,1.47-1Z"/><path class="cls-6" d="M904.44,227.87c-6.9,0-12.47-4.64-12.47-11.45S897.54,205,904.44,205s12.47,4.65,12.47,11.46S911.34,227.87,904.44,227.87Zm0-2.76c3.45,0,6.12-2.94,6.12-8.69s-2.67-8.7-6.12-8.7-6.12,2.95-6.12,8.7S901,225.11,904.44,225.11Z"/><path class="cls-6" d="M921,227.41c-1.2,0-1.7-.46-1.7-1.24,0-1.75,2.16-.32,2.16-3.36V198.34c0-2.49-2.48-1.38-2.48-3.41,0-.92,4.92-2.57,6.8-2.57,1.06,0,1.66.55,1.66,3v27.42c0,3,2.16,1.61,2.16,3.36,0,.78-.5,1.24-1.7,1.24Z"/><path class="cls-6" d="M952.88,205.42a1,1,0,0,1,1,1v.06c0,1.33-.87.92-1.56,3.54-2.76,10.22-6.12,15.32-7.18,17-.46.79-1,.83-2.81.83a3.84,3.84,0,0,1-3.63-2.11c-3.4-5.34-4.88-10-6.53-16.84-.28-1.15-1.84-1.11-1.84-2.58,0-.64.46-.92,1.56-.92h7.64c1,0,1.38.46,1.38,1,0,1.48-2.3,1.11-2.3,2.67,0,3.55,3.31,11.09,5.24,14.36,2.49-4,4.79-10.31,4.79-13.67,0-2.11-2.3-1.79-2.3-3.36,0-.69.55-1,1.47-1Z"/><path class="cls-6" d="M967.65,205c3.86,0,8.92,1.8,8.87,6.4,0,6.21-10.49,7.31-15.27,7.59a6.43,6.43,0,0,0,6.44,5.61,9.45,9.45,0,0,0,6.44-2.76c.55-.51.88-1,1.7-1a1,1,0,0,1,1.06.94v.12c0,2.3-5.06,6-10.63,6-6.34,0-11.68-4.32-11.73-10.9C954.58,209.84,959,205,967.65,205Zm-6.77,11.5c2.39-.23,9.66-1.15,9.66-5.75a3,3,0,0,0-3.31-3.26c-4.42,0-6.44,4.37-6.35,9Z"/><path class="cls-6" d="M981.49,227.41c-1.2,0-1.7-.46-1.7-1.24,0-1.75,2.16-.32,2.16-3.36v-9.29c0-5.29-3.08-3.31-3.08-5.29,0-1.34,1.38-1.61,2.67-2.26a10.75,10.75,0,0,1,3.17-1c2,0,2.35,3.91,2.48,5.39h.1c1.05-2.54,3.35-5.39,6.11-5.39a3,3,0,0,1,3.1,2.9c0,.11,0,.21,0,.32,0,1.24-.55,2.58-2.16,2.58-.7,0-1.85-.74-2.77-.74-1.88,0-3.63,3.18-3.63,6.63v6.16c0,3,2.16,1.61,2.16,3.36,0,.78-.5,1.24-1.7,1.24Z"/><path class="cls-6" d="M1010.42,205c3.87,0,8.93,1.8,8.88,6.4,0,6.21-10.49,7.31-15.27,7.59a6.43,6.43,0,0,0,6.44,5.61,9.45,9.45,0,0,0,6.44-2.76c.55-.51.88-1,1.7-1a1,1,0,0,1,1.06.94v.12c0,2.3-5.06,6-10.63,6-6.34,0-11.68-4.32-11.73-10.9C997.36,209.84,1001.82,205,1010.42,205Zm-6.76,11.5c2.39-.23,9.66-1.15,9.66-5.75a3,3,0,0,0-3.31-3.26c-4.42,0-6.44,4.37-6.35,9Z"/><path class="cls-6" d="M1041.11,227.41c-2.12,0-2-1-2.17-2.71-1.84,2.21-4,3.17-7.4,3.17-7,0-9.85-5.15-9.85-11,0-6.53,4.51-12,11.27-12a9.09,9.09,0,0,1,5.57,1.84v-8.46c0-2.26-2.58-1.75-2.58-3.31a1.51,1.51,0,0,1,1.11-1.29,28.82,28.82,0,0,1,5.8-1.38c1.28,0,1.65.27,1.65,1.65V223c0,2.3,2.21,2,2.21,3s-.37,1.42-2.21,1.42Zm-2.58-15.09c0-2.85-2.16-4.41-4.83-4.41-3.17,0-5.66,2.57-5.66,8.42s2.49,8.41,5.66,8.41c2.48,0,4.83-2,4.83-4.32Z"/><path class="cls-6" d="M1061.48,205c3.87,0,8.93,1.8,8.88,6.4,0,6.21-10.49,7.31-15.27,7.59a6.43,6.43,0,0,0,6.44,5.61,9.47,9.47,0,0,0,6.44-2.76c.55-.51.87-1,1.7-1a1,1,0,0,1,1.06.94v.12c0,2.3-5.06,6-10.63,6-6.35,0-11.68-4.32-11.73-10.9C1048.42,209.84,1052.88,205,1061.48,205Zm-6.76,11.5c2.39-.23,9.66-1.15,9.66-5.75a3,3,0,0,0-3.31-3.26c-4.42,0-6.44,4.37-6.35,9Z"/><path class="cls-6" d="M1083,205c4.92,0,7.64,1.93,7.64,3.36,0,2.9-.23,3.13-1,3.13-2,0-2-3.73-6.63-3.73-3,0-3.68,1.84-3.68,3,0,4.32,12.38,1.47,12.38,9.2,0,4.88-4,7.91-10.08,7.91-5.2,0-8.88-3.4-8.88-4.92,0-1.06.65-2.35,1.84-2.35,2.3,0,2.26,4.51,6.9,4.51,2.4,0,4.24-1.38,4.24-3.26,0-5-12.2-1.34-12.2-9.53C1073.53,207.17,1078.55,205,1083,205Z"/><path class="cls-6" d="M1118.43,205c4.92,0,7.64,1.93,7.64,3.36,0,2.9-.23,3.13-1,3.13-2,0-2-3.73-6.63-3.73-3,0-3.68,1.84-3.68,3,0,4.32,12.38,1.47,12.38,9.2,0,4.88-4.05,7.91-10.08,7.91-5.2,0-8.88-3.4-8.88-4.92,0-1.06.65-2.35,1.84-2.35,2.3,0,2.26,4.51,6.9,4.51,2.39,0,4.24-1.38,4.24-3.26,0-5-12.2-1.34-12.2-9.53C1109,207.17,1114,205,1118.43,205Z"/><path class="cls-6" d="M1146.45,227.41c-1.94,0-2.12-1-2-2.48h-.18c-1.29,1.93-4.19,2.94-7.27,2.94-5.25,0-8.1-3.22-8.1-6.81,0-6.25,8.47-8.64,15.09-8.64,0-2.67-1.56-4.7-4.6-4.7-3.63,0-4,2.67-6.9,2.67a1.81,1.81,0,0,1-2-1.61,1.77,1.77,0,0,1,0-.23c0-2.21,4.5-3.59,8.6-3.59,6,0,10.9,2.21,10.9,8.1V223c0,2.3,2.3,1.7,2.3,3,0,1-.37,1.42-2.21,1.42ZM1144,214.9c-5.34,0-8.74,3.22-8.74,6.12a4.31,4.31,0,0,0,4.14,4.28c3,0,4.51-2.86,4.6-5.06Z"/><path class="cls-6" d="M1184.76,227.41c-1.19,0-1.7-.46-1.7-1.24,0-1.75,2.16-.32,2.16-3.36v-10.3c0-2.76-1.33-4.14-3.58-4.14-2.9,0-4.79,2.16-4.79,3.95v10.49c0,3,2.16,1.61,2.16,3.36,0,.78-.5,1.24-1.7,1.24h-6.9c-1.2,0-1.7-.46-1.7-1.24,0-1.75,2.16-.32,2.16-3.36v-10.3c0-2.76-1.33-4.14-3.59-4.14-2.9,0-4.78,2.16-4.78,3.95v10.49c0,3,2.16,1.61,2.16,3.36,0,.78-.51,1.24-1.7,1.24h-6.9c-1.2,0-1.71-.46-1.71-1.24,0-1.75,2.17-.32,2.17-3.36V211.59c0-3.59-2.44-1.84-2.44-4,0-1.75,5.06-2.67,6-2.67,1.38,0,1.56.92,1.66,3.68h.09a8.72,8.72,0,0,1,7.36-3.68,6.6,6.6,0,0,1,6.35,3.68,9.28,9.28,0,0,1,8-3.68c3.68,0,7.68,2,7.68,7.32v10.53c0,3,2.17,1.61,2.17,3.36,0,.78-.51,1.24-1.7,1.24Z"/><path class="cls-6" d="M1207.07,205.42c1.06,0,1.75.37,1.75,1.47s-.69,1.48-1.75,1.48h-3.77v13.34c0,2.16.74,2.76,3.08,2.76,2.12,0,2.67.32,2.67,1.33a1.4,1.4,0,0,1-1.15,1.61,1.19,1.19,0,0,1-.46,0h-6.53c-3,0-3.59-.5-3.59-3v-16h-1.89c-1.33,0-1.75-.33-1.75-1.48s.88-1.33,2.58-1.47c5.24-.5,3.73-8,5.84-8,1,0,1.2.46,1.2,1.84v6.16Z"/><path class="cls-6" d="M1217.28,205.42c1,0,1.43.42,1.43,1.2,0,1.24-1.61.64-1.61,3.4,0,3.91,2,13.71,5.52,13.71,2.94,0,4.51-11,4.51-13.8,0-2.21-2.58-2.12-2.58-3.59,0-.55.28-.92,1-.92h6c.92,0,1.29.42,1.29,1,0,1.38-1.88,1-2.3,4.28-1.56,12.33-7.36,25.76-16,25.76-1.52,0-4.1-.69-4.1-2.39,0-1.47,1-2.21,2.76-2.21,1.29,0,2.44.74,3.36.74,1.7,0,4.88-3,6.12-6.12a7,7,0,0,1-1.75.41c-8.51,0-9.57-13.2-10.39-18-.28-1.47-1.48-1.19-1.48-2.3,0-.73.37-1.15,1.43-1.15Z"/><path class="cls-6" d="M1235.36,227.41c-1.2,0-1.7-.46-1.7-1.24,0-1.75,2.16-.32,2.16-3.36V198.34c0-2.26-2.48-1.75-2.48-3.13,0-.69.69-.83,1.19-1.1a19.07,19.07,0,0,1,5.61-1.75c1.43,0,1.66,1,1.66,3v20.15c1.75-.87,7.5-5.29,7.5-6.94,0-1.06-2.3-.6-2.3-2.07,0-.79.46-1.11,1.2-1.11h6.53c1.1,0,1.75.37,1.75,1.11,0,1.28-1.29,1.05-3,2.71s-4.32,4.28-4.78,4.92a44.59,44.59,0,0,1,7.54,9.85c.74,1.24,2.39,1,2.39,2.3,0,.83-.6,1.1-1.42,1.1h-7.87a1.31,1.31,0,0,1-1.46-1.14.76.76,0,0,1,0-.15c0-1,1.29-.92,1.29-1.47,0-.83-3-5.06-4.7-7.27l-2.62,1.84v3.59c0,3,2.16,1.61,2.16,3.36,0,.78-.5,1.24-1.7,1.24Z"/><path class="cls-6" d="M1261.12,227.41c-1.2,0-1.7-.46-1.7-1.24,0-1.75,2.16-.32,2.16-3.36V198.34c0-2.26-2.48-1.75-2.48-3.13,0-.69.69-.83,1.19-1.1a19.07,19.07,0,0,1,5.61-1.75c1.43,0,1.66,1,1.66,3v20.15c1.75-.87,7.5-5.29,7.5-6.94,0-1.06-2.3-.6-2.3-2.07,0-.79.46-1.11,1.2-1.11h6.53c1.1,0,1.75.37,1.75,1.11,0,1.28-1.29,1.05-3,2.71s-4.32,4.28-4.78,4.92A44.47,44.47,0,0,1,1282,224c.74,1.24,2.39,1,2.39,2.3,0,.83-.6,1.1-1.42,1.1h-7.87a1.31,1.31,0,0,1-1.46-1.14.76.76,0,0,1,0-.15c0-1,1.29-.92,1.29-1.47,0-.83-3-5.06-4.7-7.27l-2.62,1.84v3.59c0,3,2.16,1.61,2.16,3.36,0,.78-.5,1.24-1.7,1.24Z"/><path class="cls-6" d="M1298.38,205c3.87,0,8.93,1.8,8.88,6.4,0,6.21-10.49,7.31-15.27,7.59a6.43,6.43,0,0,0,6.44,5.61,9.47,9.47,0,0,0,6.44-2.76c.55-.51.87-1,1.7-1a1,1,0,0,1,1.06.94v.12c0,2.3-5.06,6-10.63,6-6.35,0-11.69-4.32-11.73-10.9C1285.31,209.84,1289.78,205,1298.38,205Zm-6.76,11.5c2.39-.23,9.66-1.15,9.66-5.75a3,3,0,0,0-3.31-3.26c-4.42,0-6.44,4.37-6.35,9Z"/><path class="cls-6" d="M1312.23,224.65a3.71,3.71,0,1,1,4.17,3.19,4,4,0,0,1-.49,0A3.46,3.46,0,0,1,1312.23,224.65Z"/><path class="cls-6" d="M1327,224.65a3.71,3.71,0,1,1,4.17,3.19,4,4,0,0,1-.49,0A3.46,3.46,0,0,1,1327,224.65Z"/><path class="cls-6" d="M1341.67,224.65a3.71,3.71,0,1,1,4.17,3.19,4,4,0,0,1-.49,0A3.46,3.46,0,0,1,1341.67,224.65Z"/><path class="cls-6" d="M868.66,332.2c0,2.48,2.44,1.38,2.44,3.77,0,1.15-.6,1.84-3,1.84h-10c-2.34,0-2.94-.69-2.94-1.84,0-2.39,2.44-1.29,2.44-3.77V314.72h-.1l-6,16.88c-.5,1.43-1.47,1.84-4.41,1.84-2,0-3.27-.14-4.14-2.3l-6.17-15.78h-.09v16.2c0,2.85,3.59,2,3.59,4.41,0,1.2-.88,1.84-2.81,1.84H832c-1.74,0-3-.46-3-1.93,0-2.58,3-1.1,3-4.32v-21.9c0-2.76-3.17-.65-3.17-4.05,0-1,.64-1.47,2.3-1.47h10.12c2.62,0,3.22.46,4.41,3.82l5,13.89,5.94-15.78c.55-1.52,1.38-1.93,3.12-1.93h8.61c2.8,0,3.36.73,3.36,2.07,0,2.44-3.13,1.24-3.13,3.17Z"/><path class="cls-6" d="M875.14,309.75c0-2.48-2.44-1.38-2.44-3.77,0-1.15.6-1.84,2.95-1.84H898.1c2.57,0,3.72.64,3.72,2.76V309c0,1.94-1.15,2.76-2.21,2.76-3.58,0-.5-3.49-9.24-3.49-3.55,0-4.19.32-4.19,3.49v5.52h5.66c3.63,0,2.94-1.88,4.88-1.88,1.28,0,1.93.78,1.93,4.14s-.65,4.23-1.93,4.23c-2,0-1.25-1.88-4.88-1.88h-5.66v6.94c0,4.37.87,4.83,5.11,4.83,8.46,0,6.12-4.28,9.43-4.28a2.23,2.23,0,0,1,2.35,2.08c0,.12,0,.24,0,.36a17.49,17.49,0,0,1-1,5.06c-.46.79-1.42.92-3.4.92h-23c-2.35,0-2.95-.69-2.95-1.84,0-2.39,2.44-1.29,2.44-3.77Z"/><path class="cls-6" d="M931.72,311.13c0-4.37-2.85-2.67-2.85-5.11,0-1.33.55-1.88,2.85-1.88h4.6c2.3,0,2.85.55,2.85,1.88,0,2.44-2.85.74-2.85,5.11v23.55c0,2.31-.37,3.13-3.4,3.13-3.59,0-3.77-.13-5.06-1.88L913,315.55h-.09v15.27c0,4.88,3.22,2.76,3.22,5.25,0,1.1-.64,1.74-3.22,1.74h-4.6c-2.58,0-3.22-.64-3.22-1.74,0-2.49,3.22-.37,3.22-5.25V312.23c0-6.07-3.87-3.22-3.87-6.11,0-1.25.28-2,2.86-2h8.55a3.5,3.5,0,0,1,3.59,1.79l12.24,16.61h.09Z"/><path class="cls-6" d="M953.25,334c0,2.81-3,4.51-5.62,4.51S942,336.85,942,334s3-4.51,5.61-4.51S953.25,331.23,953.25,334Z"/><path class="cls-6" d="M969.81,334c0,2.81-3,4.51-5.62,4.51s-5.61-1.7-5.61-4.51,3-4.51,5.61-4.51S969.81,331.23,969.81,334Z"/><path class="cls-6" d="M986.37,334c0,2.81-3,4.51-5.62,4.51s-5.61-1.7-5.61-4.51,3-4.51,5.61-4.51S986.37,331.23,986.37,334Z"/><path class="cls-6" d="M1025.93,337.81c-2.12,0-2-1-2.17-2.71-1.84,2.21-4,3.17-7.4,3.17-7,0-9.85-5.15-9.85-10.95,0-6.53,4.51-12,11.27-12a9.09,9.09,0,0,1,5.57,1.84V308.7c0-2.26-2.58-1.75-2.58-3.31a1.51,1.51,0,0,1,1.11-1.29,29.58,29.58,0,0,1,5.79-1.38c1.29,0,1.66.27,1.66,1.65v28.94c0,2.3,2.21,2,2.21,3s-.37,1.42-2.21,1.42Zm-2.58-15.09c0-2.85-2.16-4.41-4.83-4.41-3.18,0-5.66,2.57-5.66,8.42s2.48,8.41,5.66,8.41c2.48,0,4.83-2,4.83-4.32Z"/><path class="cls-6" d="M1052.88,337.81c-2.3,0-2.48-.78-2.76-2.9a10.64,10.64,0,0,1-7.64,3.36c-5.33,0-7.54-3.4-7.54-7.59v-9.43c0-3.26-2.12-1.84-2.12-3.59,0-1.47,5.52-2.3,6.21-2.3,1.11,0,1.89.55,1.89,3.41v10.9c0,4.19,1,5.2,3.68,5.2s5.15-1.66,5.15-4.23v-9.39c0-3.26-2.11-1.84-2.11-3.59,0-1.47,5.52-2.3,6.21-2.3,1.1,0,1.88.55,1.88,3.41v14.58c0,2.53,2.35,2,2.35,3.22,0,.69-.32,1.24-1.7,1.24Z"/><path class="cls-6" d="M1075.74,337.81c-1.2,0-1.7-.46-1.7-1.24,0-1.75,2.16-.32,2.16-3.36V308.74c0-2.26-2.48-1.75-2.48-3.13,0-.69.69-.83,1.19-1.1a19.07,19.07,0,0,1,5.61-1.75c1.43,0,1.66,1,1.66,3v20.15c1.75-.87,7.5-5.29,7.5-6.94,0-1.06-2.3-.6-2.3-2.07,0-.79.46-1.11,1.2-1.11h6.53c1.1,0,1.75.37,1.75,1.11,0,1.29-1.29,1.06-3,2.71s-4.32,4.28-4.78,4.92a44.59,44.59,0,0,1,7.54,9.85c.74,1.24,2.39,1,2.39,2.3,0,.83-.59,1.1-1.42,1.1h-7.87a1.31,1.31,0,0,1-1.46-1.14.66.66,0,0,1,0-.14c0-1,1.29-.93,1.29-1.48,0-.83-3-5.06-4.7-7.27l-2.62,1.84v3.59c0,3,2.16,1.61,2.16,3.36,0,.78-.5,1.24-1.7,1.24Z"/><path class="cls-6" d="M1117.46,337.81c-1.93,0-2.11-1-2-2.48h-.18c-1.29,1.93-4.19,2.94-7.27,2.94-5.25,0-8.1-3.22-8.1-6.81,0-6.25,8.46-8.64,15.09-8.64,0-2.67-1.56-4.7-4.6-4.7-3.64,0-4,2.67-6.9,2.67a1.82,1.82,0,0,1-2-1.63,1.48,1.48,0,0,1,0-.21c0-2.21,4.51-3.59,8.61-3.59,6,0,10.9,2.21,10.9,8.1v9.89c0,2.3,2.3,1.7,2.3,3,0,1-.37,1.42-2.21,1.42ZM1115,325.3c-5.34,0-8.74,3.22-8.74,6.12a4.31,4.31,0,0,0,4.14,4.28c3,0,4.51-2.86,4.6-5.06Z"/><path class="cls-6" d="M1142.67,324.75c0-3.31-.27-6-4.37-6a4.83,4.83,0,0,0-4.78,4.88v9.59c0,3,2.16,1.61,2.16,3.36,0,.78-.51,1.24-1.7,1.24h-6.9c-1.2,0-1.71-.46-1.71-1.24,0-1.75,2.17-.32,2.17-3.36V322c0-3.59-2.44-1.84-2.44-4,0-1.75,5.06-2.67,6-2.67,1.38,0,1.56.92,1.65,3.68a9.72,9.72,0,0,1,7.59-3.68c5.71,0,8.33,2.86,8.33,9v8.83c0,3,2.16,1.61,2.16,3.36,0,.78-.5,1.24-1.7,1.24h-6.9c-1.2,0-1.7-.46-1.7-1.24,0-1.75,2.16-.32,2.16-3.36Z"/><path class="cls-6" d="M1177.31,315.36c4.92,0,7.63,1.93,7.63,3.36,0,2.9-.23,3.13-1,3.13-2,0-2-3.73-6.62-3.73-3,0-3.68,1.84-3.68,3,0,4.32,12.37,1.47,12.37,9.2,0,4.88-4,7.91-10.07,7.91-5.2,0-8.88-3.4-8.88-4.92,0-1.06.64-2.35,1.84-2.35,2.3,0,2.25,4.51,6.9,4.51,2.39,0,4.23-1.38,4.23-3.26,0-5-12.19-1.34-12.19-9.53C1167.83,317.57,1172.85,315.36,1177.31,315.36Z"/><path class="cls-6" d="M1200.17,315.82c1.06,0,1.75.37,1.75,1.47s-.69,1.48-1.75,1.48h-3.77v13.34c0,2.16.73,2.76,3.08,2.76,2.12,0,2.67.32,2.67,1.33a1.4,1.4,0,0,1-1.15,1.61,1.19,1.19,0,0,1-.46,0H1194c-2.94,0-3.58-.5-3.58-3v-16h-1.89c-1.33,0-1.75-.32-1.75-1.48s.88-1.33,2.58-1.47c5.24-.5,3.72-8,5.84-8,1,0,1.2.46,1.2,1.84v6.16Z"/><path class="cls-6" d="M1221,337.81c-1.93,0-2.11-1-2-2.48h-.19c-1.28,1.93-4.18,2.94-7.27,2.94-5.24,0-8.09-3.22-8.09-6.81,0-6.25,8.46-8.64,15.09-8.64,0-2.67-1.57-4.7-4.6-4.7-3.64,0-4,2.67-6.9,2.67a1.82,1.82,0,0,1-2-1.63,1.48,1.48,0,0,1,0-.21c0-2.21,4.51-3.59,8.61-3.59,6,0,10.9,2.21,10.9,8.1v9.89c0,2.3,2.3,1.7,2.3,3,0,1-.37,1.42-2.21,1.42Zm-2.48-12.51c-5.34,0-8.74,3.22-8.74,6.12a4.3,4.3,0,0,0,4.14,4.28c3,0,4.51-2.86,4.6-5.06Z"/><path class="cls-6" d="M1248.1,337.81c-2.11,0-2-1-2.16-2.71-1.84,2.21-4,3.17-7.41,3.17-7,0-9.84-5.15-9.84-10.95,0-6.53,4.51-12,11.27-12a9.06,9.06,0,0,1,5.56,1.84V308.7c0-2.26-2.57-1.75-2.57-3.31a1.53,1.53,0,0,1,1.1-1.29,29.68,29.68,0,0,1,5.8-1.38c1.29,0,1.66.27,1.66,1.65v28.94c0,2.3,2.2,2,2.2,3s-.36,1.42-2.2,1.42Zm-2.58-15.09c0-2.85-2.16-4.41-4.83-4.41-3.17,0-5.65,2.57-5.65,8.42s2.48,8.41,5.65,8.41c2.49,0,4.83-2,4.83-4.32Z"/><path class="cls-6" d="M1257.34,337.81c-1.19,0-1.7-.41-1.7-1.19,0-1.75,2.16-.32,2.16-3.36V321.34c0-2.25-2.48-1.74-2.48-3.12,0-.69.64-1,1.2-1.11s4.32-1.75,5.61-1.75,1.66,1,1.66,3.5v14.4c0,3,2.16,1.61,2.16,3.36,0,.78-.51,1.19-1.7,1.19Zm6.58-27.78c0,2-1.47,3.22-3.82,3.22-2.11,0-3.63-1.2-3.63-3.22s1.52-3.22,3.82-3.22,3.63,1.24,3.63,3.19Z"/><path class="cls-6" d="M1287.66,318.86a10.21,10.21,0,0,1,2.85,7.08,9.36,9.36,0,0,1-4.46,8.42c2.67.78,5.11,2.72,5.11,5.29,0,4.33-4.24,7.18-12.29,7.18-7,0-10.53-1.56-10.53-4.05,0-2.3,2.8-3.68,4.64-3.68.88,0,1.52.28,1.52.83s-.46.87-.46,1.47c0,.83.74,2,5,2,4.64,0,6.3-1.66,6.3-3.5s-1.61-3.17-3.27-3.91a9.48,9.48,0,0,1-3.08.51c-6.53,0-11.22-3.87-11.22-10.13,0-7.26,4.83-11,11.91-11,3.13,0,6.26.46,9.39.46,2.53,0,2.85.65,2.85,1.47,0,1.11-.6,1.48-2.44,1.57Zm-8.51-.74c-2.81,0-5,2.67-5,7.73s2.21,7.73,5,7.73,5-2.67,5-7.73S1282,318.12,1279.15,318.12Z"/><path class="cls-6" d="M1328.14,318.86a10.21,10.21,0,0,1,2.85,7.08,9.36,9.36,0,0,1-4.46,8.42c2.67.78,5.11,2.72,5.11,5.29,0,4.33-4.24,7.18-12.29,7.18-7,0-10.53-1.56-10.53-4.05,0-2.3,2.8-3.68,4.64-3.68.88,0,1.52.28,1.52.83s-.46.87-.46,1.47c0,.83.74,2,5,2,4.64,0,6.3-1.66,6.3-3.5s-1.61-3.17-3.27-3.91a9.48,9.48,0,0,1-3.08.51c-6.53,0-11.22-3.87-11.22-10.13,0-7.26,4.83-11,11.91-11,3.13,0,6.26.46,9.39.46,2.53,0,2.85.65,2.85,1.47,0,1.11-.6,1.48-2.44,1.57Zm-8.51-.74c-2.81,0-5,2.67-5,7.73s2.21,7.73,5,7.73,5-2.67,5-7.73S1322.44,318.12,1319.63,318.12Z"/><path class="cls-6" d="M1340.88,340.71a2,2,0,0,1-2,1.15c-1,0-1.38-.6-1.38-1.06a2.07,2.07,0,0,1,.18-.92l1.89-3.45a10.82,10.82,0,0,1-5.53-9.61c0-6.81,5.57-11.46,12.47-11.46a13.24,13.24,0,0,1,4.19.65l1.47-2.72c.46-.92.88-1.42,2-1.42s1.47.64,1.47,1.24a1.42,1.42,0,0,1-.23.78l-1.84,3.4a10.79,10.79,0,0,1,5.43,9.53c0,6.81-5.57,11.45-12.47,11.45a12.32,12.32,0,0,1-4-.59Zm8.28-21.9a5.56,5.56,0,0,0-2.67-.69c-3.45,0-6.12,2.95-6.12,8.7a11.18,11.18,0,0,0,1.29,5.7Zm-5.11,16.1a4.85,4.85,0,0,0,2.44.6c3.45,0,6.12-2.94,6.12-8.69a12.09,12.09,0,0,0-1.19-5.61Z"/><path class="cls-6" d="M1363.74,337.81c-1.2,0-1.7-.46-1.7-1.24,0-1.75,2.16-.32,2.16-3.36v-9.29c0-5.29-3.08-3.31-3.08-5.29,0-1.34,1.38-1.61,2.67-2.26a10.75,10.75,0,0,1,3.17-1c2,0,2.35,3.91,2.49,5.39h.09c1.06-2.53,3.36-5.39,6.12-5.39a3,3,0,0,1,3.09,2.91c0,.1,0,.21,0,.31,0,1.25-.55,2.58-2.16,2.58-.69,0-1.84-.74-2.76-.74-1.89,0-3.64,3.18-3.64,6.63v6.16c0,3,2.16,1.61,2.16,3.36,0,.78-.5,1.24-1.7,1.24Z"/><path class="cls-6" d="M1392.68,315.36c3.86,0,8.92,1.8,8.88,6.4,0,6.21-10.49,7.31-15.28,7.59a6.43,6.43,0,0,0,6.44,5.61,9.45,9.45,0,0,0,6.44-2.76c.55-.51.88-1,1.71-1a1,1,0,0,1,1.05.95v.11c0,2.3-5.06,6-10.62,6-6.35,0-11.69-4.32-11.74-10.9C1379.61,320.24,1384.07,315.36,1392.68,315.36Zm-6.77,11.5c2.4-.23,9.66-1.15,9.66-5.75a3,3,0,0,0-3.31-3.26C1387.85,317.85,1385.82,322.26,1385.91,326.86Z"/><path class="cls-6" d="M1436.15,324.75c0-3.31-.28-6-4.37-6a4.84,4.84,0,0,0-4.79,4.89v9.58c0,3,2.16,1.61,2.16,3.36,0,.78-.5,1.24-1.7,1.24h-6.9c-1.2,0-1.7-.46-1.7-1.24,0-1.75,2.16-.32,2.16-3.36V322c0-3.59-2.44-1.84-2.44-4,0-1.75,5.06-2.67,6-2.67,1.38,0,1.57.92,1.66,3.68a9.72,9.72,0,0,1,7.59-3.68c5.7,0,8.33,2.86,8.33,9v8.83c0,3,2.16,1.61,2.16,3.36,0,.78-.51,1.24-1.7,1.24h-6.9c-1.2,0-1.71-.46-1.71-1.24,0-1.75,2.17-.32,2.17-3.36Z"/><path class="cls-6" d="M1458.27,338.27c-6.9,0-12.47-4.64-12.47-11.45s5.57-11.46,12.47-11.46,12.47,4.65,12.47,11.46S1465.17,338.27,1458.27,338.27Zm0-2.76c3.45,0,6.12-2.94,6.12-8.69s-2.67-8.7-6.12-8.7-6.12,2.95-6.12,8.7,2.67,8.69,6.12,8.69Z"/><path class="cls-6" d="M1492.82,318.86a10.21,10.21,0,0,1,2.85,7.08,9.36,9.36,0,0,1-4.46,8.42c2.67.78,5.1,2.72,5.1,5.29,0,4.33-4.23,7.18-12.28,7.18-7,0-10.53-1.56-10.53-4.05,0-2.3,2.8-3.68,4.64-3.68.88,0,1.52.28,1.52.83s-.46.87-.46,1.47c0,.83.74,2,5,2,4.65,0,6.31-1.66,6.31-3.5s-1.61-3.17-3.27-3.91a9.48,9.48,0,0,1-3.08.51c-6.53,0-11.23-3.87-11.23-10.13,0-7.26,4.83-11,11.92-11,3.13,0,6.26.46,9.38.46,2.53,0,2.86.65,2.86,1.47,0,1.11-.6,1.48-2.44,1.57Zm-8.51-.74c-2.81,0-5,2.67-5,7.73s2.21,7.73,5,7.73,5-2.67,5-7.73-2.2-7.73-5-7.73Z"/><path class="cls-6" d="M1511.81,315.36c3.87,0,8.93,1.8,8.88,6.4,0,6.21-10.49,7.31-15.27,7.59a6.43,6.43,0,0,0,6.44,5.61,9.45,9.45,0,0,0,6.44-2.76c.55-.51.88-1,1.7-1a1,1,0,0,1,1.06.94v.12c0,2.3-5.06,6-10.63,6-6.34,0-11.68-4.32-11.73-10.9C1498.75,320.24,1503.21,315.36,1511.81,315.36Zm-6.76,11.5c2.39-.23,9.66-1.15,9.66-5.75a3,3,0,0,0-3.31-3.26C1507,317.85,1505,322.26,1505.05,326.86Z"/><path class="cls-6" d="M1535.5,315.82c1.06,0,1.75.37,1.75,1.47s-.69,1.48-1.75,1.48h-3.77v13.34c0,2.16.74,2.76,3.08,2.76,2.12,0,2.67.32,2.67,1.33a1.43,1.43,0,0,1-1.61,1.61h-6.53c-2.94,0-3.59-.5-3.59-3v-16h-1.88c-1.34,0-1.75-.32-1.75-1.48s.87-1.33,2.57-1.47c5.25-.5,3.73-8,5.85-8,1,0,1.19.46,1.19,1.84v6.16Z"/><path class="cls-6" d="M1541.53,307.86c-.09-.69-.23-1.56-.23-2,0-2.26,2.39-2.95,3.91-2.95s3.91.69,3.91,2.95c0,.41-.14,1.28-.23,2l-2.07,18.5c-.23,2-.51,2.62-1.61,2.62s-1.38-.6-1.61-2.62Zm0,27.19a3.71,3.71,0,1,1,4.17,3.19,4,4,0,0,1-.49,0A3.47,3.47,0,0,1,1541.53,335.05Z"/><path class="cls-6" d="M874.19,609.44a2.91,2.91,0,1,1,3.27,2.49,2.56,2.56,0,0,1-.39,0A2.72,2.72,0,0,1,874.19,609.44Z"/><path class="cls-6" d="M885.71,609.44a2.91,2.91,0,1,1,3.27,2.49,2.56,2.56,0,0,1-.39,0A2.72,2.72,0,0,1,885.71,609.44Z"/><path class="cls-6" d="M897.23,609.44a2.91,2.91,0,1,1,3.27,2.49,2.56,2.56,0,0,1-.39,0A2.72,2.72,0,0,1,897.23,609.44Z"/><path class="cls-6" d="M932,611.6c-1.51,0-1.65-.79-1.58-1.94h-.14c-1,1.51-3.28,2.3-5.69,2.3-4.11,0-6.34-2.52-6.34-5.33,0-4.89,6.63-6.76,11.81-6.76a3.38,3.38,0,0,0-3.07-3.66,3.13,3.13,0,0,0-.53,0c-2.84,0-3.1,2.08-5.4,2.08a1.41,1.41,0,0,1-1.57-1.23,1.48,1.48,0,0,1,0-.21c0-1.72,3.52-2.8,6.73-2.8,4.71,0,8.53,1.72,8.53,6.33v7.74c0,1.8,1.8,1.33,1.8,2.38,0,.79-.29,1.11-1.73,1.11Zm-1.94-9.79c-4.18,0-6.84,2.52-6.84,4.79a3.38,3.38,0,0,0,3.24,3.35c2.34,0,3.53-2.24,3.6-4Z"/><path class="cls-6" d="M947.77,594.4c.83,0,1.37.28,1.37,1.15s-.54,1.15-1.37,1.15h-2.95v10.44c0,1.69.58,2.16,2.41,2.16,1.66,0,2.09.25,2.09,1a1.09,1.09,0,0,1-.89,1.26,1.15,1.15,0,0,1-.37,0H943c-2.31,0-2.81-.39-2.81-2.34V596.7h-1.48c-1,0-1.36-.25-1.36-1.15s.68-1,2-1.15c4.11-.4,2.92-6.27,4.57-6.27.76,0,.94.36.94,1.44v4.83Z"/><path class="cls-6" d="M977,611.6c-1.65,0-1.58-.79-1.69-2.12a6.78,6.78,0,0,1-5.8,2.48c-5.47,0-7.7-4-7.7-8.57,0-5.11,3.53-9.35,8.82-9.35a7.07,7.07,0,0,1,4.36,1.44v-6.63c0-1.76-2-1.37-2-2.59a1.23,1.23,0,0,1,.86-1,23.45,23.45,0,0,1,4.54-1.08c1,0,1.3.22,1.3,1.3v22.64c0,1.8,1.72,1.55,1.72,2.38s-.28,1.11-1.72,1.11Zm-2-11.81c0-2.23-1.7-3.45-3.78-3.45-2.49,0-4.43,2-4.43,6.59s1.94,6.58,4.43,6.58a3.74,3.74,0,0,0,3.78-3.38Z"/><path class="cls-6" d="M993,594c3,0,7,1.4,7,5,0,4.86-8.21,5.72-12,5.94a5,5,0,0,0,5,4.39,7.4,7.4,0,0,0,5-2.16c.44-.4.69-.76,1.34-.76a.76.76,0,0,1,.83.68v.15c0,1.8-4,4.68-8.32,4.68-5,0-9.14-3.38-9.18-8.53C982.73,597.85,986.22,594,993,594Zm-5.29,9c1.87-.18,7.56-.9,7.56-4.5a2.34,2.34,0,0,0-2.13-2.55,1.77,1.77,0,0,0-.46,0c-3.51,0-5.09,3.48-5,7Z"/><path class="cls-6" d="M1011.49,594.4c.83,0,1.37.28,1.37,1.15s-.54,1.15-1.37,1.15h-3v10.44c0,1.69.57,2.16,2.41,2.16,1.66,0,2.09.25,2.09,1a1.09,1.09,0,0,1-.89,1.26,1.15,1.15,0,0,1-.37,0h-5.11c-2.31,0-2.81-.39-2.81-2.34V596.7h-1.48c-1,0-1.36-.25-1.36-1.15s.68-1,2-1.15c4.1-.4,2.92-6.27,4.57-6.27.76,0,.94.36.94,1.44v4.83Z"/><path class="cls-6" d="M1035.79,594c3,0,7,1.4,7,5,0,4.86-8.21,5.72-12,5.94a5,5,0,0,0,5,4.39,7.4,7.4,0,0,0,5-2.16c.44-.4.69-.76,1.34-.76a.75.75,0,0,1,.82.67.43.43,0,0,1,0,.16c0,1.8-4,4.68-8.31,4.68-5,0-9.14-3.38-9.18-8.53C1025.57,597.85,1029.06,594,1035.79,594Zm-5.29,9c1.87-.18,7.56-.9,7.56-4.5a2.36,2.36,0,0,0-2.15-2.55,2.16,2.16,0,0,0-.44,0C1032,596,1030.43,599.43,1030.5,603Z"/><path class="cls-6" d="M1046.63,611.6c-.94,0-1.34-.36-1.34-1,0-1.37,1.7-.25,1.7-2.63V600.7c0-4.14-2.42-2.59-2.42-4.14,0-1,1.08-1.26,2.09-1.76a8.32,8.32,0,0,1,2.49-.79c1.58,0,1.83,3,1.94,4.21h.07c.83-2,2.63-4.21,4.79-4.21a2.37,2.37,0,0,1,2.41,2.32,1.34,1.34,0,0,1,0,.2c0,1-.43,2-1.69,2-.54,0-1.44-.58-2.16-.58-1.48,0-2.84,2.49-2.84,5.19V608c0,2.38,1.69,1.26,1.69,2.63,0,.61-.4,1-1.33,1Z"/><path class="cls-6" d="M1078.56,594c3.85,0,6,1.51,6,2.62,0,2.27-.18,2.45-.79,2.45-1.58,0-1.55-2.91-5.18-2.91-2.34,0-2.88,1.44-2.88,2.37,0,3.38,9.68,1.15,9.68,7.2,0,3.82-3.17,6.19-7.88,6.19-4.07,0-7-2.66-7-3.85,0-.83.5-1.84,1.44-1.84,1.8,0,1.76,3.53,5.4,3.53,1.87,0,3.31-1.08,3.31-2.55,0-3.89-9.54-1-9.54-7.46C1071.14,595.76,1075.07,594,1078.56,594Z"/><path class="cls-6" d="M1096.45,594.4c.83,0,1.37.28,1.37,1.15s-.54,1.15-1.37,1.15h-3v10.44c0,1.69.57,2.16,2.41,2.16,1.65,0,2.09.25,2.09,1a1.09,1.09,0,0,1-.89,1.26,1.15,1.15,0,0,1-.37,0h-5.12c-2.3,0-2.8-.39-2.8-2.34V596.7h-1.48c-1,0-1.37-.25-1.37-1.15s.69-1,2-1.15c4.1-.4,2.92-6.27,4.57-6.27.76,0,.94.36.94,1.44v4.83Z"/><path class="cls-6" d="M1101,611.6c-.94,0-1.34-.36-1.34-1,0-1.37,1.7-.25,1.7-2.63V600.7c0-4.14-2.42-2.59-2.42-4.14,0-1,1.08-1.26,2.09-1.76a8.35,8.35,0,0,1,2.48-.79c1.59,0,1.84,3,2,4.21h.07c.83-2,2.63-4.21,4.79-4.21a2.37,2.37,0,0,1,2.41,2.32,1.34,1.34,0,0,1,0,.2c0,1-.43,2-1.69,2-.54,0-1.44-.58-2.16-.58-1.48,0-2.85,2.49-2.85,5.19V608c0,2.38,1.7,1.26,1.7,2.63,0,.61-.4,1-1.34,1Z"/><path class="cls-6" d="M1127.12,611.6c-1.51,0-1.66-.79-1.58-1.94h-.15c-1,1.51-3.27,2.3-5.69,2.3-4.1,0-6.33-2.52-6.33-5.33,0-4.89,6.62-6.76,11.81-6.76a3.38,3.38,0,0,0-3.07-3.66,3.13,3.13,0,0,0-.53,0c-2.85,0-3.1,2.08-5.4,2.08a1.42,1.42,0,0,1-1.58-1.24,1.34,1.34,0,0,1,0-.2c0-1.72,3.53-2.8,6.73-2.8,4.72,0,8.53,1.72,8.53,6.33v7.74c0,1.8,1.8,1.33,1.8,2.38,0,.79-.28,1.11-1.72,1.11Zm-1.94-9.79c-4.18,0-6.84,2.52-6.84,4.79a3.38,3.38,0,0,0,3.24,3.35c2.34,0,3.52-2.24,3.6-4Z"/><path class="cls-6" d="M1140.3,608c0,2.38,1.69,1.26,1.69,2.63,0,.61-.4,1-1.33,1h-5.4c-.94,0-1.34-.36-1.34-1,0-1.37,1.7-.25,1.7-2.63V596.7h-1.23c-.83,0-1.37-.25-1.37-1.15s.54-1.15,1.37-1.15h1.26c0-4.18.33-10.51,6.12-10.51,1.3,0,3.17.68,3.17,2.23a1.77,1.77,0,0,1-1.65,1.87h-.08c-1,0-1.29-1-2-1-.4,0-1,.36-1,3.71v3.71h2.42c.82,0,1.36.28,1.36,1.15s-.54,1.15-1.36,1.15h-2.34Z"/><path class="cls-6" d="M1146.49,588.85c0-1.76-1.87-1.37-1.87-2.44,0-.55.43-.76.86-.87s3.38-1.37,4.39-1.37,1.3.76,1.3,2.38v9.68a7.48,7.48,0,0,1,5.32-2.19c5,0,7.71,3.63,7.71,8.42,0,5.79-4.18,9.5-10,9.5-4.75,0-7.7-2.23-7.7-7.05Zm4.68,15c0,4.57,1.65,5.94,3.63,5.94,2.63,0,4.43-2,4.43-6.41s-1.73-7-4-7c-1.66,0-4,1.15-4,4.82Z"/><path class="cls-6" d="M1179.68,611.6c-1.51,0-1.66-.79-1.59-1.94H1178c-1,1.51-3.28,2.3-5.69,2.3-4.1,0-6.33-2.52-6.33-5.33,0-4.89,6.62-6.76,11.8-6.76a3.38,3.38,0,0,0-3.07-3.66,3.13,3.13,0,0,0-.53,0c-2.84,0-3.09,2.08-5.4,2.08a1.41,1.41,0,0,1-1.57-1.23,1.48,1.48,0,0,1,0-.21c0-1.72,3.53-2.8,6.73-2.8,4.72,0,8.53,1.72,8.53,6.33v7.74c0,1.8,1.8,1.33,1.8,2.38,0,.79-.28,1.11-1.72,1.11Zm-2-9.79c-4.17,0-6.84,2.52-6.84,4.79a3.38,3.38,0,0,0,3.24,3.35c2.34,0,3.53-2.24,3.6-4Z"/><path class="cls-6" d="M1187.74,611.6c-.93,0-1.33-.36-1.33-1,0-1.37,1.69-.25,1.69-2.63V600.7c0-4.14-2.41-2.59-2.41-4.14,0-1,1.08-1.26,2.09-1.76a8.35,8.35,0,0,1,2.48-.79c1.59,0,1.84,3,2,4.21h.07c.83-2,2.63-4.21,4.79-4.21a2.37,2.37,0,0,1,2.41,2.32,1.34,1.34,0,0,1,0,.2c0,1-.43,2-1.69,2-.54,0-1.44-.58-2.16-.58-1.48,0-2.85,2.49-2.85,5.19V608c0,2.38,1.69,1.26,1.69,2.63,0,.61-.39,1-1.33,1Z"/><path class="cls-6" d="M1209.85,594.4c.82,0,1.36.28,1.36,1.15s-.54,1.15-1.36,1.15h-3v10.44c0,1.69.58,2.16,2.42,2.16,1.65,0,2.08.25,2.08,1a1.14,1.14,0,0,1-1.26,1.26H1205c-2.3,0-2.81-.39-2.81-2.34V596.7h-1.47c-1,0-1.37-.25-1.37-1.15s.69-1,2-1.15c4.1-.4,2.91-6.27,4.57-6.27.75,0,.93.36.93,1.44v4.83Z"/><path class="cls-6" d="M1237.64,611.6c-1.52,0-1.66-.79-1.59-1.94h-.14c-1,1.51-3.28,2.3-5.69,2.3-4.1,0-6.33-2.52-6.33-5.33,0-4.89,6.62-6.76,11.8-6.76a3.38,3.38,0,0,0-3.07-3.66,3.13,3.13,0,0,0-.53,0c-2.84,0-3.09,2.08-5.4,2.08a1.41,1.41,0,0,1-1.57-1.23,1.48,1.48,0,0,1,0-.21c0-1.72,3.53-2.8,6.73-2.8,4.72,0,8.53,1.72,8.53,6.33v7.74c0,1.8,1.8,1.33,1.8,2.38,0,.79-.29,1.11-1.73,1.11Zm-2-9.79c-4.17,0-6.84,2.52-6.84,4.79A3.38,3.38,0,0,0,1232,610c2.34,0,3.53-2.24,3.6-4Z"/><path class="cls-6" d="M1253.4,594.4c.83,0,1.37.28,1.37,1.15s-.54,1.15-1.37,1.15h-3v10.44c0,1.69.58,2.16,2.42,2.16,1.65,0,2.08.25,2.08,1a1.14,1.14,0,0,1-1.26,1.26h-5.11c-2.3,0-2.81-.39-2.81-2.34V596.7h-1.47c-1,0-1.37-.25-1.37-1.15s.68-1,2-1.15c4.1-.4,2.91-6.27,4.57-6.27.75,0,.93.36.93,1.44v4.83Z"/><path class="cls-6" d="M1282.64,611.6c-1.66,0-1.59-.79-1.7-2.12a6.75,6.75,0,0,1-5.79,2.48c-5.47,0-7.7-4-7.7-8.57,0-5.11,3.52-9.35,8.81-9.35a7.07,7.07,0,0,1,4.36,1.44v-6.63c0-1.76-2-1.37-2-2.59a1.22,1.22,0,0,1,.87-1,23.52,23.52,0,0,1,4.53-1.08c1,0,1.3.22,1.3,1.3v22.64c0,1.8,1.73,1.55,1.73,2.38s-.29,1.11-1.73,1.11Zm-2-11.81c0-2.23-1.69-3.45-3.78-3.45-2.48,0-4.43,2-4.43,6.59s2,6.58,4.43,6.58a3.74,3.74,0,0,0,3.78-3.38Z"/><path class="cls-6" d="M1298.58,594c3,0,7,1.4,7,5,0,4.86-8.21,5.72-12,5.94a5,5,0,0,0,5,4.39,7.4,7.4,0,0,0,5-2.16c.43-.4.68-.76,1.33-.76a.76.76,0,0,1,.83.68v.15c0,1.8-4,4.68-8.32,4.68-5,0-9.14-3.38-9.18-8.53C1288.36,597.85,1291.85,594,1298.58,594Zm-5.29,9c1.87-.18,7.56-.9,7.56-4.5a2.34,2.34,0,0,0-2.13-2.55,1.77,1.77,0,0,0-.46,0c-3.46,0-5,3.48-5,7Z"/><path class="cls-6" d="M1308.88,611.6c-.94,0-1.33-.36-1.33-1,0-1.37,1.69-.25,1.69-2.63V588.85c0-1.94-1.94-1.08-1.94-2.66,0-.72,3.85-2,5.32-2,.83,0,1.3.43,1.3,2.38V608c0,2.38,1.69,1.26,1.69,2.63,0,.61-.39,1-1.33,1Z"/><path class="cls-6" d="M1327.38,594c3,0,7,1.4,6.95,5,0,4.86-8.21,5.72-11.95,5.94a5,5,0,0,0,5,4.39,7.4,7.4,0,0,0,5-2.16c.43-.4.68-.76,1.33-.76a.76.76,0,0,1,.83.68v.15c0,1.8-4,4.68-8.32,4.68-5,0-9.14-3.38-9.18-8.53C1317.16,597.85,1320.65,594,1327.38,594Zm-5.29,9c1.87-.18,7.56-.9,7.56-4.5a2.34,2.34,0,0,0-2.13-2.55,1.77,1.77,0,0,0-.46,0C1323.6,596,1322,599.43,1322.09,603Z"/><path class="cls-6" d="M1355.75,594c3.85,0,6,1.51,6,2.62,0,2.27-.18,2.45-.8,2.45-1.58,0-1.54-2.91-5.18-2.91-2.34,0-2.88,1.44-2.88,2.37,0,3.38,9.68,1.15,9.68,7.2,0,3.82-3.16,6.19-7.88,6.19-4.07,0-7-2.66-7-3.85,0-.83.51-1.84,1.44-1.84,1.8,0,1.77,3.53,5.4,3.53,1.88,0,3.32-1.08,3.32-2.55,0-3.89-9.54-1-9.54-7.46C1348.34,595.76,1352.26,594,1355.75,594Z"/><path class="cls-6" d="M1374.18,594c3,0,7,1.4,7,5,0,4.86-8.21,5.72-12,5.94a5,5,0,0,0,5,4.39,7.4,7.4,0,0,0,5-2.16c.43-.4.68-.76,1.33-.76a.76.76,0,0,1,.83.68v.15c0,1.8-4,4.68-8.32,4.68-5,0-9.14-3.38-9.18-8.53C1364,597.85,1367.45,594,1374.18,594Zm-5.29,9c1.87-.18,7.56-.9,7.56-4.5a2.34,2.34,0,0,0-2.13-2.55,1.77,1.77,0,0,0-.46,0C1370.4,596,1368.82,599.43,1368.89,603Z"/><path class="cls-6" d="M1384.26,611.6c-.93,0-1.33-.36-1.33-1,0-1.37,1.69-.25,1.69-2.63V588.85c0-1.76-1.94-1.37-1.94-2.44,0-.55.54-.65.94-.87a15.14,15.14,0,0,1,4.39-1.37c1.11,0,1.29.76,1.29,2.38v15.77c1.37-.69,5.87-4.15,5.87-5.44,0-.83-1.8-.47-1.8-1.62,0-.61.36-.86.94-.86h5.11c.86,0,1.37.28,1.37.86,0,1-1,.83-2.38,2.12a49.18,49.18,0,0,0-3.74,3.86,34.79,34.79,0,0,1,5.9,7.7c.58,1,1.87.79,1.87,1.8,0,.65-.47.86-1.11.86h-6.16a1,1,0,0,1-1.14-.84.86.86,0,0,1,0-.16c0-.79,1-.72,1-1.15,0-.65-2.31-4-3.68-5.69l-2,1.44V608c0,2.38,1.7,1.26,1.7,2.63,0,.61-.4,1-1.34,1Z"/><path class="cls-6" d="M1411.19,594c3.85,0,6,1.51,6,2.62,0,2.27-.18,2.45-.8,2.45-1.58,0-1.54-2.91-5.18-2.91-2.34,0-2.88,1.44-2.88,2.37,0,3.38,9.68,1.15,9.68,7.2,0,3.82-3.16,6.19-7.88,6.19-4.07,0-7-2.66-7-3.85,0-.83.51-1.84,1.44-1.84,1.8,0,1.77,3.53,5.4,3.53,1.87,0,3.31-1.08,3.31-2.55,0-3.89-9.53-1-9.53-7.46C1403.78,595.76,1407.7,594,1411.19,594Z"/><path class="cls-6" d="M1434.77,611.6c-1.8,0-1.94-.61-2.16-2.27a8.34,8.34,0,0,1-6,2.63c-4.17,0-5.9-2.66-5.9-5.94v-7.38c0-2.55-1.65-1.44-1.65-2.81,0-1.15,4.32-1.79,4.86-1.79.86,0,1.47.43,1.47,2.66v8.53c0,3.28.79,4.07,2.88,4.07s4-1.3,4-3.31v-7.35c0-2.55-1.65-1.44-1.65-2.81,0-1.15,4.32-1.79,4.86-1.79.86,0,1.47.43,1.47,2.66v11.41c0,2,1.84,1.55,1.84,2.52,0,.54-.26,1-1.34,1Z"/><path class="cls-6" d="M1450.14,594c3,0,7,1.4,6.95,5,0,4.86-8.21,5.72-11.95,5.94a5,5,0,0,0,5,4.39,7.4,7.4,0,0,0,5-2.16c.43-.4.68-.76,1.33-.76a.76.76,0,0,1,.83.68v.15c0,1.8-4,4.68-8.32,4.68-5,0-9.14-3.38-9.18-8.53C1439.92,597.85,1443.41,594,1450.14,594Zm-5.29,9c1.87-.18,7.56-.9,7.56-4.5a2.34,2.34,0,0,0-2.13-2.55,1.77,1.77,0,0,0-.46,0C1446.36,596,1444.78,599.43,1444.85,603Z"/><path class="cls-6" d="M1460.44,611.6c-.94,0-1.33-.36-1.33-1,0-1.37,1.69-.25,1.69-2.63V588.85c0-1.94-2-1.08-2-2.66,0-.72,3.86-2,5.33-2,.83,0,1.3.43,1.3,2.38V608c0,2.38,1.69,1.26,1.69,2.63,0,.61-.4,1-1.33,1Z"/><path class="cls-6" d="M1470.16,611.6c-.94,0-1.33-.36-1.33-1,0-1.37,1.69-.25,1.69-2.63V588.85c0-1.94-2-1.08-2-2.66,0-.72,3.86-2,5.33-2,.83,0,1.3.43,1.3,2.38V608c0,2.38,1.69,1.26,1.69,2.63,0,.61-.4,1-1.33,1Z"/><path class="cls-6" d="M1488.66,594c3,0,7,1.4,6.95,5,0,4.86-8.21,5.72-11.95,5.94a5,5,0,0,0,5,4.39,7.4,7.4,0,0,0,5-2.16c.43-.4.68-.76,1.33-.76a.76.76,0,0,1,.83.68v.15c0,1.8-4,4.68-8.32,4.68-5,0-9.14-3.38-9.18-8.53C1478.44,597.85,1481.93,594,1488.66,594Zm-5.29,9c1.87-.18,7.56-.9,7.56-4.5a2.34,2.34,0,0,0-2.13-2.55,1.77,1.77,0,0,0-.46,0C1484.88,596,1483.3,599.43,1483.37,603Z"/><path class="cls-6" d="M1519.26,594c3,0,7,1.4,7,5,0,4.86-8.21,5.72-12,5.94a5,5,0,0,0,5,4.39,7.4,7.4,0,0,0,5-2.16c.43-.4.68-.76,1.33-.76a.76.76,0,0,1,.83.68v.15c0,1.8-4,4.68-8.32,4.68-5,0-9.14-3.38-9.18-8.53C1509,597.85,1512.53,594,1519.26,594Zm-5.29,9c1.87-.18,7.56-.9,7.56-4.5a2.34,2.34,0,0,0-2.13-2.55,1.77,1.77,0,0,0-.46,0c-3.46,0-5,3.48-4.94,7Z"/><path class="cls-6" d="M1529.56,611.6c-.94,0-1.33-.36-1.33-1,0-1.37,1.69-.25,1.69-2.63V588.85c0-1.94-2-1.08-2-2.66,0-.72,3.86-2,5.33-2,.83,0,1.3.43,1.3,2.38V608c0,2.38,1.69,1.26,1.69,2.63,0,.61-.4,1-1.33,1Z"/><path class="cls-6" d="M1539.28,611.6c-.94,0-1.33-.36-1.33-1,0-1.37,1.69-.25,1.69-2.63V588.85c0-1.94-2-1.08-2-2.66,0-.72,3.86-2,5.33-2,.83,0,1.3.43,1.3,2.38V608c0,2.38,1.69,1.26,1.69,2.63,0,.61-.4,1-1.33,1Z"/><path class="cls-6" d="M1557.78,594c3,0,7,1.4,7,5,0,4.86-8.21,5.72-12,5.94a5,5,0,0,0,5,4.39,7.4,7.4,0,0,0,5-2.16c.43-.4.68-.76,1.33-.76a.76.76,0,0,1,.83.68v.15c0,1.8-4,4.68-8.32,4.68-5,0-9.14-3.38-9.18-8.53C1547.56,597.85,1551.05,594,1557.78,594Zm-5.29,9c1.87-.18,7.56-.9,7.56-4.5a2.34,2.34,0,0,0-2.13-2.55,1.77,1.77,0,0,0-.46,0C1554,596,1552.42,599.43,1552.49,603Z"/><path class="cls-6" d="M1568.62,611.6c-.94,0-1.33-.36-1.33-1,0-1.37,1.69-.25,1.69-2.63V600.7c0-4.14-2.41-2.59-2.41-4.14,0-1,1.08-1.26,2.08-1.76a8.32,8.32,0,0,1,2.49-.79c1.58,0,1.83,3,1.94,4.21h.07c.83-2,2.63-4.21,4.79-4.21a2.37,2.37,0,0,1,2.41,2.32,1.34,1.34,0,0,1,0,.2c0,1-.43,2-1.69,2-.54,0-1.44-.58-2.16-.58-1.48,0-2.84,2.49-2.84,5.19V608c0,2.38,1.69,1.26,1.69,2.63,0,.61-.4,1-1.33,1Z"/><path class="cls-6" d="M1593.78,611.6c-.93,0-1.33-.36-1.33-1,0-1.37,1.69-.25,1.69-2.63V588.85c0-1.76-1.94-1.37-1.94-2.44,0-.55.54-.65.93-.87a15.45,15.45,0,0,1,4.39-1.37c1.12,0,1.3.76,1.3,2.38v15.77c1.37-.69,5.87-4.15,5.87-5.44,0-.83-1.8-.47-1.8-1.62,0-.61.36-.86.93-.86h5.12c.86,0,1.36.28,1.36.86,0,1-1,.83-2.37,2.12a51.75,51.75,0,0,0-3.75,3.86,34.6,34.6,0,0,1,5.91,7.7c.57,1,1.87.79,1.87,1.8,0,.65-.47.86-1.12.86h-6.15a1,1,0,0,1-1.14-.84.86.86,0,0,1,0-.16c0-.79,1-.72,1-1.15,0-.65-2.3-4-3.67-5.69l-2,1.44V608c0,2.38,1.69,1.26,1.69,2.63,0,.61-.39,1-1.33,1Z"/><path class="cls-6" d="M1614.7,611.6c-.94,0-1.33-.36-1.33-1,0-1.37,1.69-.25,1.69-2.63V600.7c0-4.14-2.41-2.59-2.41-4.14,0-1,1.08-1.26,2.08-1.76a8.32,8.32,0,0,1,2.49-.79c1.58,0,1.83,3,1.94,4.21h.07c.83-2,2.63-4.21,4.79-4.21a2.37,2.37,0,0,1,2.41,2.32,1.34,1.34,0,0,1,0,.2c0,1-.43,2-1.69,2-.54,0-1.44-.58-2.16-.58-1.48,0-2.84,2.49-2.84,5.19V608c0,2.38,1.69,1.26,1.69,2.63,0,.61-.4,1-1.33,1Z"/><path class="cls-6" d="M1636.33,600.91c.61,0,1.23.14,2,.18,0-2.88-1-4.89-3.42-4.89-2.84,0-2.88,2.3-5.07,2.3-.87,0-1.73-.68-1.73-1.37,0-.93,1.58-3.09,7-3.09,2.3,0,5.58,1.08,6.44,2.08a10.25,10.25,0,0,1,6-2.08c3.2,0,7.38,1.4,7.38,5.25,0,3.53-3.6,5-8.36,5a19.89,19.89,0,0,1-3.7-.22c.11,3.57,2.23,5.26,4.71,5.26a7.51,7.51,0,0,0,5.22-2.16c.43-.4.69-.76,1.3-.76a.9.9,0,0,1,.93.83c0,1.8-4,4.68-7.88,4.68s-6-1.44-7-2.66a8.48,8.48,0,0,1-6.69,2.66c-3.75,0-6.34-1.73-6.34-5.33S1631.08,600.91,1636.33,600.91Zm2,2.34a7.91,7.91,0,0,0-1.08-.11c-2.73,0-5.18,1.55-5.18,3.85a2.63,2.63,0,0,0,2.44,2.81h.08c3.06,0,3.74-2.91,3.74-4.32Zm6.48-1.15c2,0,5.44-.94,5.44-3.24a2.74,2.74,0,0,0-2.57-2.88h-.28c-2.59,0-4.46,2.59-4.46,6,.61.07,1.23.11,1.85.12Z"/><path class="cls-6" d="M1670.28,601.38c0-2.59-.22-4.68-3.42-4.68a3.78,3.78,0,0,0-3.74,3.82V608c0,2.38,1.69,1.26,1.69,2.63,0,.61-.4,1-1.33,1h-5.4c-.94,0-1.34-.36-1.34-1,0-1.37,1.7-.25,1.7-2.63v-8.78c0-2.81-1.91-1.44-1.91-3.1,0-1.36,4-2.08,4.68-2.08,1.08,0,1.22.72,1.29,2.87a7.6,7.6,0,0,1,5.94-2.87c4.47,0,6.52,2.23,6.52,7.05V608c0,2.38,1.69,1.26,1.69,2.63,0,.61-.4,1-1.33,1h-5.4c-.94,0-1.33-.36-1.33-1,0-1.37,1.69-.25,1.69-2.63Z"/><path class="cls-6" d="M1679.1,611.6c-.94,0-1.33-.36-1.33-1,0-1.37,1.69-.25,1.69-2.63V588.85c0-1.76-1.94-1.37-1.94-2.44,0-.55.54-.65.93-.87a15.45,15.45,0,0,1,4.39-1.37c1.12,0,1.3.76,1.3,2.38v15.77c1.37-.69,5.87-4.15,5.87-5.44,0-.83-1.8-.47-1.8-1.62,0-.61.36-.86.93-.86h5.11c.87,0,1.37.28,1.37.86,0,1-1,.83-2.37,2.12a51.75,51.75,0,0,0-3.75,3.86,34.6,34.6,0,0,1,5.91,7.7c.57,1,1.87.79,1.87,1.8,0,.65-.47.86-1.12.86H1690a1,1,0,0,1-1.15-.83.91.91,0,0,1,0-.17c0-.79,1-.72,1-1.15,0-.65-2.3-4-3.67-5.69l-2,1.44V608c0,2.38,1.69,1.26,1.69,2.63,0,.61-.39,1-1.33,1Z"/><path class="cls-6" d="M1698.9,604.73c-.58,0-1-.26-1-1.73s.46-1.73,1-1.73h8c.58,0,1,.25,1,1.73s-.47,1.73-1,1.73Z"/><path class="cls-6" d="M882.43,637.24c3,0,7,1.4,7,5,0,4.86-8.21,5.72-12,5.94a5,5,0,0,0,5,4.39,7.4,7.4,0,0,0,5-2.16c.43-.4.68-.76,1.33-.76a.76.76,0,0,1,.83.68v.15c0,1.8-4,4.68-8.32,4.68-5,0-9.14-3.38-9.18-8.53C872.21,641.05,875.7,637.24,882.43,637.24Zm-5.29,9c1.87-.19,7.56-.91,7.56-4.5a2.35,2.35,0,0,0-2.14-2.56,1.7,1.7,0,0,0-.45,0C878.65,639.18,877.07,642.64,877.14,646.24Z"/><path class="cls-6" d="M904.93,644.58c0-2.59-.21-4.68-3.42-4.68a3.78,3.78,0,0,0-3.74,3.82v7.48c0,2.38,1.69,1.26,1.69,2.63,0,.61-.39,1-1.33,1h-5.4c-.94,0-1.33-.36-1.33-1,0-1.37,1.69-.25,1.69-2.63v-8.78c0-2.81-1.91-1.44-1.91-3.1,0-1.36,4-2.08,4.68-2.08,1.08,0,1.23.72,1.3,2.88a7.56,7.56,0,0,1,5.94-2.88c4.46,0,6.51,2.23,6.51,7v6.91c0,2.38,1.69,1.26,1.69,2.63,0,.61-.39,1-1.33,1h-5.4c-.93,0-1.33-.36-1.33-1,0-1.37,1.69-.25,1.69-2.63Z"/><path class="cls-6" d="M927.69,654.8c-1.66,0-1.59-.79-1.7-2.12a6.75,6.75,0,0,1-5.79,2.48c-5.47,0-7.71-4-7.71-8.57,0-5.11,3.53-9.35,8.82-9.35a7.07,7.07,0,0,1,4.36,1.44v-6.63c0-1.76-2-1.37-2-2.59a1.22,1.22,0,0,1,.87-1,23.52,23.52,0,0,1,4.53-1.08c1,0,1.3.22,1.3,1.3v22.64c0,1.8,1.73,1.55,1.73,2.38s-.29,1.11-1.73,1.11Zm-2-11.81c0-2.23-1.69-3.45-3.78-3.45-2.48,0-4.43,2-4.43,6.59s1.95,6.58,4.43,6.58a3.74,3.74,0,0,0,3.78-3.38Z"/><path class="cls-6" d="M943.63,637.24c3,0,7,1.4,7,5,0,4.86-8.21,5.72-12,5.94a5,5,0,0,0,5,4.39,7.4,7.4,0,0,0,5-2.16c.43-.4.68-.76,1.33-.76a.76.76,0,0,1,.83.68v.15c0,1.8-4,4.68-8.32,4.68-5,0-9.14-3.38-9.18-8.53C933.41,641.05,936.9,637.24,943.63,637.24Zm-5.29,9c1.87-.19,7.56-.91,7.56-4.5a2.35,2.35,0,0,0-2.14-2.56,1.69,1.69,0,0,0-.45,0C939.85,639.18,938.27,642.64,938.34,646.24Z"/><path class="cls-6" d="M965.41,632.05c0-1.76-1.87-1.37-1.87-2.45,0-.53.43-.75.87-.86s3.38-1.37,4.39-1.37,1.29.76,1.29,2.38v9.68a7.55,7.55,0,0,1,5.33-2.19c5,0,7.7,3.63,7.7,8.42,0,5.79-4.17,9.5-10,9.5-4.75,0-7.71-2.23-7.71-7Zm4.68,15c0,4.57,1.66,5.94,3.64,5.94,2.63,0,4.43-2,4.43-6.41s-1.73-7.05-4-7.05c-1.65,0-4,1.15-4,4.82Z"/><path class="cls-6" d="M986.4,654.8c-.94,0-1.33-.32-1.33-.93,0-1.37,1.69-.26,1.69-2.63v-9.33c0-1.76-1.94-1.36-1.94-2.44,0-.54.5-.76.93-.87s3.39-1.36,4.39-1.36,1.3.75,1.3,2.73v11.27c0,2.37,1.69,1.26,1.69,2.63,0,.61-.39.93-1.33.93Zm5.15-21.74c0,1.58-1.15,2.52-3,2.52a2.52,2.52,0,0,1-2.82-2.2c0-.11,0-.21,0-.32,0-1.55,1.18-2.52,3-2.52s2.84,1,2.84,2.52Z"/><path class="cls-6" d="M996.05,654.8c-.94,0-1.33-.36-1.33-1,0-1.37,1.69-.25,1.69-2.63V632.05c0-1.94-1.95-1.08-1.95-2.66,0-.72,3.86-2,5.33-2,.83,0,1.3.44,1.3,2.38V651.2c0,2.38,1.69,1.26,1.69,2.63,0,.61-.4,1-1.33,1Z"/><path class="cls-6" d="M1005.77,654.8c-.94,0-1.33-.36-1.33-1,0-1.37,1.69-.25,1.69-2.63V632.05c0-1.94-2-1.08-2-2.66,0-.72,3.86-2,5.33-2,.83,0,1.3.44,1.3,2.38V651.2c0,2.38,1.69,1.26,1.69,2.63,0,.61-.4,1-1.33,1Z"/><path class="cls-6" d="M1024.27,637.24c3,0,7,1.4,7,5,0,4.86-8.21,5.72-12,5.94a5,5,0,0,0,5,4.39,7.4,7.4,0,0,0,5-2.16c.43-.4.68-.76,1.33-.76a.76.76,0,0,1,.83.68v.15c0,1.8-4,4.68-8.32,4.68-5,0-9.14-3.38-9.18-8.53C1014.05,641.05,1017.54,637.24,1024.27,637.24Zm-5.29,9c1.87-.19,7.56-.91,7.56-4.5a2.35,2.35,0,0,0-2.14-2.56,1.69,1.69,0,0,0-.45,0c-3.46,0-5,3.46-5,7.06Z"/><path class="cls-6" d="M1048.28,654.8c-1.65,0-1.58-.79-1.69-2.12a6.75,6.75,0,0,1-5.79,2.48c-5.48,0-7.71-4-7.71-8.57,0-5.11,3.53-9.35,8.82-9.35a7.07,7.07,0,0,1,4.36,1.44v-6.63c0-1.76-2-1.37-2-2.59a1.23,1.23,0,0,1,.86-1,23.62,23.62,0,0,1,4.54-1.08c1,0,1.3.22,1.3,1.3v22.64c0,1.8,1.72,1.55,1.72,2.38s-.28,1.11-1.72,1.11Zm-2-11.81c0-2.23-1.69-3.45-3.78-3.45-2.49,0-4.43,2-4.43,6.59s1.94,6.58,4.43,6.58a3.74,3.74,0,0,0,3.78-3.38Z"/><path class="cls-6" d="M1064.23,637.24c3,0,7,1.4,7,5,0,4.86-8.21,5.72-12,5.94a5,5,0,0,0,5,4.39,7.4,7.4,0,0,0,5-2.16c.43-.4.68-.76,1.33-.76a.76.76,0,0,1,.83.68v.15c0,1.8-4,4.68-8.32,4.68-5,0-9.14-3.38-9.18-8.53C1054,641.05,1057.5,637.24,1064.23,637.24Zm-5.29,9c1.87-.19,7.56-.91,7.56-4.5a2.35,2.35,0,0,0-2.14-2.56,1.69,1.69,0,0,0-.45,0C1060.45,639.18,1058.87,642.64,1058.94,646.24Z"/><path class="cls-6" d="M1075.07,654.8c-.94,0-1.33-.36-1.33-1,0-1.37,1.69-.25,1.69-2.63V643.9c0-4.14-2.41-2.59-2.41-4.14,0-1,1.08-1.26,2.08-1.76a8.32,8.32,0,0,1,2.49-.79c1.58,0,1.83,3.06,1.94,4.21h.07c.83-2,2.63-4.21,4.79-4.21a2.37,2.37,0,0,1,2.41,2.32,1.34,1.34,0,0,1,0,.2c0,1-.43,2-1.69,2-.54,0-1.44-.57-2.16-.57-1.48,0-2.84,2.48-2.84,5.18v4.82c0,2.38,1.69,1.26,1.69,2.63,0,.61-.4,1-1.33,1Z"/><path class="cls-6" d="M1112.72,654.8c-1.51,0-1.65-.79-1.58-1.94H1111c-1,1.51-3.27,2.3-5.68,2.3-4.11,0-6.34-2.52-6.34-5.33,0-4.89,6.62-6.76,11.81-6.76a3.38,3.38,0,0,0-3.07-3.66,3.13,3.13,0,0,0-.53,0c-2.85,0-3.1,2.08-5.4,2.08a1.41,1.41,0,0,1-1.57-1.23,1.48,1.48,0,0,1,0-.21c0-1.72,3.52-2.8,6.73-2.8,4.71,0,8.53,1.72,8.53,6.33v7.74c0,1.8,1.8,1.33,1.8,2.38,0,.79-.29,1.11-1.73,1.11Zm-1.94-9.79c-4.18,0-6.84,2.52-6.84,4.79a3.38,3.38,0,0,0,3.24,3.35c2.34,0,3.53-2.24,3.6-4Z"/><path class="cls-6" d="M1125.9,651.2c0,2.38,1.69,1.26,1.69,2.63,0,.61-.4,1-1.33,1h-5.4c-.94,0-1.33-.36-1.33-1,0-1.37,1.69-.25,1.69-2.63V639.9H1120c-.83,0-1.37-.25-1.37-1.15s.54-1.15,1.37-1.15h1.25c0-4.18.33-10.52,6.12-10.52,1.3,0,3.17.69,3.17,2.24a1.77,1.77,0,0,1-1.65,1.87h-.08c-1,0-1.29-1-2-1-.4,0-1,.36-1,3.71v3.71h2.41c.83,0,1.37.28,1.37,1.15s-.54,1.15-1.37,1.15h-2.34Z"/><path class="cls-6" d="M1155.92,654.8c-1.51,0-1.66-.79-1.58-1.94h-.15c-1,1.51-3.27,2.3-5.68,2.3-4.11,0-6.34-2.52-6.34-5.33,0-4.89,6.62-6.76,11.81-6.76a3.38,3.38,0,0,0-3.07-3.66,3.13,3.13,0,0,0-.53,0c-2.85,0-3.1,2.08-5.4,2.08a1.42,1.42,0,0,1-1.58-1.24,1.34,1.34,0,0,1,0-.2c0-1.72,3.53-2.8,6.73-2.8,4.72,0,8.54,1.72,8.54,6.33v7.74c0,1.8,1.8,1.33,1.8,2.38,0,.79-.29,1.11-1.73,1.11ZM1154,645c-4.18,0-6.84,2.52-6.84,4.79a3.38,3.38,0,0,0,3.24,3.35c2.34,0,3.52-2.24,3.6-4Z"/><path class="cls-6" d="M1175.65,644.58c0-2.59-.22-4.68-3.42-4.68a3.79,3.79,0,0,0-3.75,3.83v7.47c0,2.38,1.7,1.26,1.7,2.63,0,.61-.4,1-1.34,1h-5.39c-.94,0-1.34-.36-1.34-1,0-1.37,1.7-.25,1.7-2.63v-8.78c0-2.81-1.91-1.44-1.91-3.1,0-1.36,4-2.08,4.68-2.08,1.08,0,1.22.72,1.29,2.88a7.56,7.56,0,0,1,5.94-2.88c4.47,0,6.52,2.23,6.52,7v6.91c0,2.38,1.69,1.26,1.69,2.63,0,.61-.4,1-1.33,1h-5.4c-.94,0-1.33-.36-1.33-1,0-1.37,1.69-.25,1.69-2.63Z"/><path class="cls-6" d="M1198.4,654.8c-1.66,0-1.58-.79-1.69-2.12a6.78,6.78,0,0,1-5.8,2.48c-5.47,0-7.7-4-7.7-8.57,0-5.11,3.53-9.35,8.82-9.35a7,7,0,0,1,4.35,1.44v-6.63c0-1.76-2-1.37-2-2.59a1.23,1.23,0,0,1,.86-1,23.45,23.45,0,0,1,4.54-1.08c1,0,1.29.22,1.29,1.3v22.64c0,1.8,1.73,1.55,1.73,2.38s-.29,1.11-1.73,1.11Zm-2-11.81c0-2.23-1.69-3.45-3.78-3.45-2.48,0-4.42,2-4.42,6.59s1.94,6.58,4.42,6.58a3.74,3.74,0,0,0,3.78-3.38Z"/><path class="cls-6" d="M1206.1,654.8c-.93,0-1.33-.36-1.33-1,0-1.37,1.69-.25,1.69-2.63V643.9c0-4.14-2.41-2.59-2.41-4.14,0-1,1.08-1.26,2.09-1.76a8.35,8.35,0,0,1,2.48-.79c1.59,0,1.84,3.06,2,4.21h.07c.83-2,2.63-4.21,4.79-4.21a2.37,2.37,0,0,1,2.41,2.32,1.34,1.34,0,0,1,0,.2c0,1-.43,2-1.69,2-.54,0-1.44-.57-2.16-.57-1.48,0-2.85,2.48-2.85,5.18v4.82c0,2.38,1.7,1.26,1.7,2.63,0,.61-.4,1-1.34,1Z"/><path class="cls-6" d="M1228.75,637.24c3,0,7,1.4,6.94,5,0,4.86-8.2,5.72-12,5.94a5,5,0,0,0,5,4.39,7.4,7.4,0,0,0,5-2.16c.43-.4.69-.76,1.33-.76a.76.76,0,0,1,.83.68v.15c0,1.8-4,4.68-8.31,4.68-5,0-9.15-3.38-9.18-8.53C1218.52,641.05,1222,637.24,1228.75,637.24Zm-5.29,9c1.87-.19,7.55-.91,7.55-4.5a2.35,2.35,0,0,0-2.14-2.56,1.69,1.69,0,0,0-.45,0C1225,639.18,1223.38,642.64,1223.46,646.24Z"/><path class="cls-6" d="M1241.06,660.31c-.32,0-.76-.32-.76-.65,0-.61,2.42-1.76,2.63-4.86a5.62,5.62,0,0,1-1,.15,2.37,2.37,0,0,1-2.45-2.27v-.15a2.68,2.68,0,0,1,2.92-2.41c2.08,0,3.13,1.69,3.13,3.64C1245.49,657.29,1242,660.31,1241.06,660.31Z"/><path class="cls-6" d="M1266.91,639.18a9,9,0,0,1,5.58-1.94c4.46,0,6.51,2.23,6.51,7v6.91c0,2.38,1.69,1.26,1.69,2.63,0,.61-.39,1-1.33,1H1274c-.93,0-1.33-.36-1.33-1,0-1.37,1.69-.25,1.69-2.63v-6.62c0-2.59-.21-4.68-3.67-4.68a3.78,3.78,0,0,0-3.74,3.82v7.48c0,2.38,1.69,1.26,1.69,2.63,0,.61-.4,1-1.33,1h-5.4c-.94,0-1.33-.36-1.33-1,0-1.37,1.69-.25,1.69-2.63v-19.1c0-1.76-2-1.37-2-2.45,0-.53.54-.64.94-.86a15.14,15.14,0,0,1,4.39-1.37c1.12,0,1.3.76,1.3,2.38Z"/><path class="cls-6" d="M1298.55,637.6a.74.74,0,0,1,.79.68.33.33,0,0,1,0,.14c0,1.05-.68.72-1.22,2.78a45.43,45.43,0,0,1-5.62,13.31c-.36.62-.79.65-2.19.65a3,3,0,0,1-2.85-1.65c-2.66-4.18-3.81-7.82-5.11-13.18-.21-.9-1.44-.86-1.44-2,0-.51.36-.72,1.23-.72h6c.79,0,1.08.36,1.08.79,0,1.15-1.8.86-1.8,2.09,0,2.77,2.59,8.67,4.1,11.23,2-3.1,3.75-8.07,3.75-10.69,0-1.66-1.8-1.41-1.8-2.63,0-.54.43-.79,1.15-.79Z"/><path class="cls-6" d="M1301.4,654.8c-.94,0-1.34-.32-1.34-.93,0-1.37,1.69-.26,1.69-2.63v-9.33c0-1.76-1.94-1.36-1.94-2.44,0-.54.51-.76.94-.87s3.38-1.36,4.39-1.36,1.29.75,1.29,2.73v11.27c0,2.37,1.7,1.26,1.7,2.63,0,.61-.4.93-1.34.93Zm5.14-21.74c0,1.58-1.15,2.52-3,2.52a2.53,2.53,0,0,1-2.82-2.22c0-.1,0-.2,0-.3,0-1.55,1.19-2.52,3-2.52a2.52,2.52,0,0,1,2.82,2.2C1306.53,632.85,1306.54,633,1306.54,633.06Z"/><path class="cls-6" d="M1317.59,637.24c3.86,0,6,1.51,6,2.62,0,2.27-.18,2.45-.79,2.45-1.59,0-1.55-2.91-5.19-2.91-2.34,0-2.88,1.43-2.88,2.37,0,3.39,9.69,1.15,9.69,7.2,0,3.82-3.17,6.19-7.89,6.19-4.06,0-6.94-2.66-6.94-3.85,0-.83.5-1.84,1.44-1.84,1.8,0,1.76,3.53,5.4,3.53,1.87,0,3.31-1.08,3.31-2.55,0-3.89-9.54-1.05-9.54-7.46C1310.18,639,1314.1,637.24,1317.59,637.24Z"/><path class="cls-6" d="M1338.83,654.8c-.93,0-1.33-.32-1.33-.93,0-1.37,1.69-.26,1.69-2.63v-9.33c0-1.76-1.94-1.36-1.94-2.44,0-.54.5-.76.94-.87s3.38-1.36,4.39-1.36,1.29.75,1.29,2.73v11.27c0,2.37,1.7,1.26,1.7,2.63,0,.61-.4.93-1.34.93Zm5.15-21.74c0,1.58-1.15,2.52-3,2.52a2.53,2.53,0,0,1-2.82-2.22c0-.1,0-.2,0-.3,0-1.55,1.19-2.52,3-2.52a2.53,2.53,0,0,1,2.84,2.18c0,.11,0,.23,0,.34Z"/><path class="cls-6" d="M1348.27,654.8c-.94,0-1.34-.36-1.34-1,0-1.37,1.7-.25,1.7-2.63V632.05c0-1.76-2-1.37-2-2.45,0-.53.54-.64.94-.86a15.14,15.14,0,0,1,4.39-1.37c1.11,0,1.3.76,1.3,2.38v15.76c1.36-.68,5.86-4.13,5.86-5.43,0-.83-1.8-.47-1.8-1.62,0-.61.36-.86.94-.86h5.11c.86,0,1.37.28,1.37.86,0,1-1,.83-2.38,2.12a51.36,51.36,0,0,0-3.74,3.85,34.85,34.85,0,0,1,5.9,7.71c.58,1,1.87.79,1.87,1.8,0,.65-.46.86-1.11.86h-6.16A1,1,0,0,1,1358,654a.86.86,0,0,1,0-.16c0-.79,1-.72,1-1.15,0-.65-2.31-4-3.67-5.69l-2,1.44v2.81c0,2.38,1.69,1.26,1.69,2.63,0,.61-.4,1-1.33,1Z"/><path class="cls-6" d="M1368.43,654.8c-.94,0-1.34-.36-1.34-1,0-1.37,1.7-.25,1.7-2.63V632.05c0-1.76-2-1.37-2-2.45,0-.53.54-.64.94-.86a15.14,15.14,0,0,1,4.39-1.37c1.11,0,1.29.76,1.29,2.38v15.76c1.37-.68,5.87-4.13,5.87-5.43,0-.83-1.8-.47-1.8-1.62,0-.61.36-.86.94-.86h5.11c.86,0,1.37.28,1.37.86,0,1-1,.83-2.38,2.12a51.36,51.36,0,0,0-3.74,3.85,34.85,34.85,0,0,1,5.9,7.71c.58,1,1.87.79,1.87,1.8,0,.65-.46.86-1.11.86h-6.16a1,1,0,0,1-1.14-.84.86.86,0,0,1,0-.16c0-.79,1-.72,1-1.15,0-.65-2.31-4-3.67-5.69l-2.06,1.44v2.81c0,2.38,1.7,1.26,1.7,2.63,0,.61-.4,1-1.34,1Z"/><path class="cls-6" d="M1397.58,637.24c3,0,7,1.4,7,5,0,4.86-8.21,5.72-12,5.94a5,5,0,0,0,5,4.39,7.4,7.4,0,0,0,5-2.16c.43-.4.68-.76,1.33-.76a.76.76,0,0,1,.83.68v.15c0,1.8-4,4.68-8.32,4.68-5,0-9.14-3.38-9.17-8.53C1387.36,641.05,1390.85,637.24,1397.58,637.24Zm-5.29,9c1.88-.19,7.56-.91,7.56-4.5a2.35,2.35,0,0,0-2.14-2.56,1.69,1.69,0,0,0-.45,0c-3.45,0-5,3.46-5,7.06Z"/><path class="cls-6" d="M1433.12,654.8c-1.66,0-1.59-.79-1.7-2.12a6.75,6.75,0,0,1-5.79,2.48c-5.47,0-7.7-4-7.7-8.57,0-5.11,3.52-9.35,8.81-9.35a7.07,7.07,0,0,1,4.36,1.44v-6.63c0-1.76-2-1.37-2-2.59a1.22,1.22,0,0,1,.87-1,23.52,23.52,0,0,1,4.53-1.08c1,0,1.3.22,1.3,1.3v22.64c0,1.8,1.73,1.55,1.73,2.38s-.29,1.11-1.73,1.11Zm-2-11.81c0-2.23-1.69-3.45-3.78-3.45-2.48,0-4.43,2-4.43,6.59s1.95,6.58,4.43,6.58a3.74,3.74,0,0,0,3.78-3.38Z"/><path class="cls-6" d="M1449.06,637.24c3,0,7,1.4,7,5,0,4.86-8.21,5.72-12,5.94a5,5,0,0,0,5,4.39,7.4,7.4,0,0,0,5-2.16c.43-.4.68-.76,1.33-.76a.76.76,0,0,1,.83.68v.15c0,1.8-4,4.68-8.32,4.68-5,0-9.14-3.38-9.18-8.53C1438.84,641.05,1442.33,637.24,1449.06,637.24Zm-5.29,9c1.87-.19,7.56-.91,7.56-4.5a2.35,2.35,0,0,0-2.14-2.56,1.7,1.7,0,0,0-.45,0C1445.28,639.18,1443.7,642.64,1443.77,646.24Z"/><path class="cls-6" d="M1475.7,639.18a9.11,9.11,0,0,1,5.58-1.94c4.47,0,6.52,2.23,6.52,7v6.91c0,2.38,1.69,1.26,1.69,2.63,0,.61-.4,1-1.33,1h-5.4c-.94,0-1.33-.36-1.33-1,0-1.37,1.69-.25,1.69-2.63v-6.62c0-2.59-.22-4.68-3.67-4.68a3.79,3.79,0,0,0-3.75,3.83v7.47c0,2.38,1.7,1.26,1.7,2.63,0,.61-.4,1-1.34,1h-5.4c-.93,0-1.33-.36-1.33-1,0-1.37,1.69-.25,1.69-2.63v-19.1c0-1.76-1.94-1.37-1.94-2.45,0-.53.54-.64.94-.86a15.14,15.14,0,0,1,4.39-1.37c1.11,0,1.29.76,1.29,2.38Z"/><path class="cls-6" d="M1504.39,654.8c-1.51,0-1.65-.79-1.58-1.94h-.14c-1,1.51-3.28,2.3-5.69,2.3-4.1,0-6.34-2.52-6.34-5.33,0-4.89,6.63-6.76,11.81-6.76a3.38,3.38,0,0,0-3.07-3.66,3.13,3.13,0,0,0-.53,0c-2.84,0-3.09,2.08-5.4,2.08a1.41,1.41,0,0,1-1.57-1.23,1.48,1.48,0,0,1,0-.21c0-1.72,3.53-2.8,6.73-2.8,4.71,0,8.53,1.72,8.53,6.33v7.74c0,1.8,1.8,1.33,1.8,2.38,0,.79-.29,1.11-1.73,1.11Zm-1.94-9.79c-4.17,0-6.84,2.52-6.84,4.79a3.38,3.38,0,0,0,3.24,3.35c2.34,0,3.53-2.24,3.6-4Z"/><path class="cls-6" d="M1512.46,654.8c-.94,0-1.33-.36-1.33-1,0-1.37,1.69-.25,1.69-2.63V643.9c0-4.14-2.41-2.59-2.41-4.14,0-1,1.08-1.26,2.09-1.76a8.35,8.35,0,0,1,2.48-.79c1.58,0,1.83,3.06,1.94,4.21h.08c.82-2,2.62-4.21,4.78-4.21a2.37,2.37,0,0,1,2.41,2.32,1.34,1.34,0,0,1,0,.2c0,1-.43,2-1.69,2-.54,0-1.44-.57-2.16-.57-1.47,0-2.84,2.48-2.84,5.18v4.82c0,2.38,1.69,1.26,1.69,2.63,0,.61-.4,1-1.33,1Z"/><path class="cls-6" d="M1551.91,640a8,8,0,0,1,2.24,5.54,7.31,7.31,0,0,1-3.5,6.59c2.09.61,4,2.13,4,4.14,0,3.38-3.31,5.62-9.61,5.62-5.51,0-8.24-1.23-8.24-3.17s2.19-2.88,3.63-2.88c.68,0,1.19.22,1.19.65s-.36.68-.36,1.15c0,.65.57,1.58,3.92,1.58,3.64,0,4.93-1.29,4.93-2.73s-1.26-2.49-2.55-3.06a7.6,7.6,0,0,1-2.41.39c-5.11,0-8.79-3-8.79-7.92,0-5.68,3.78-8.63,9.33-8.63,2.44,0,4.89.36,7.34.36,2,0,2.23.5,2.23,1.15,0,.86-.47,1.15-1.91,1.22Zm-6.66-.57c-2.19,0-3.92,2.08-3.92,6s1.73,6,3.92,6,3.93-2.09,3.93-6-1.73-6-3.93-6Z"/><path class="cls-6" d="M1558.07,654.8c-.94,0-1.33-.32-1.33-.93,0-1.37,1.69-.26,1.69-2.63v-9.33c0-1.76-1.94-1.36-1.94-2.44,0-.54.5-.76.93-.87s3.39-1.36,4.39-1.36,1.3.75,1.3,2.73v11.27c0,2.37,1.69,1.26,1.69,2.63,0,.61-.39.93-1.33.93Zm5.15-21.74c0,1.58-1.15,2.52-3,2.52a2.52,2.52,0,0,1-2.82-2.2c0-.11,0-.21,0-.32,0-1.55,1.18-2.52,3-2.52S1563.22,631.51,1563.22,633.06Z"/><path class="cls-6" d="M1582.94,637.6a.75.75,0,0,1,.8.69v.13c0,1.05-.69.72-1.23,2.78a45.4,45.4,0,0,1-5.61,13.31c-.36.62-.79.65-2.2.65a3,3,0,0,1-2.84-1.65c-2.67-4.18-3.82-7.82-5.11-13.18-.22-.9-1.44-.86-1.44-2,0-.51.36-.72,1.22-.72h6c.79,0,1.08.36,1.08.79,0,1.15-1.8.86-1.8,2.09,0,2.77,2.59,8.67,4.1,11.23,1.94-3.1,3.74-8.07,3.74-10.69,0-1.66-1.8-1.41-1.8-2.63,0-.54.44-.79,1.16-.79Z"/><path class="cls-6" d="M1594.5,637.24c3,0,7,1.4,7,5,0,4.86-8.21,5.72-12,5.94a5,5,0,0,0,5,4.39,7.4,7.4,0,0,0,5-2.16c.43-.4.68-.76,1.33-.76a.76.76,0,0,1,.83.68v.15c0,1.8-4,4.68-8.32,4.68-5,0-9.14-3.38-9.18-8.53C1584.28,641.05,1587.77,637.24,1594.5,637.24Zm-5.29,9c1.87-.19,7.56-.91,7.56-4.5a2.35,2.35,0,0,0-2.14-2.56,1.69,1.69,0,0,0-.45,0C1590.72,639.18,1589.14,642.64,1589.21,646.24Z"/><path class="cls-6" d="M1613,637.6c.83,0,1.37.28,1.37,1.15s-.54,1.15-1.37,1.15h-3v10.44c0,1.69.58,2.16,2.41,2.16,1.66,0,2.09.25,2.09,1a1.09,1.09,0,0,1-.89,1.26,1.15,1.15,0,0,1-.37,0h-5.11c-2.31,0-2.81-.39-2.81-2.34V639.9h-1.48c-1,0-1.36-.25-1.36-1.15s.68-1,2-1.15c4.11-.4,2.92-6.27,4.57-6.27.76,0,.94.36.94,1.44v4.83Z"/><path class="cls-6" d="M1642.27,654.8c-1.65,0-1.58-.79-1.69-2.12a6.75,6.75,0,0,1-5.79,2.48c-5.48,0-7.71-4-7.71-8.57,0-5.11,3.53-9.35,8.82-9.35a7.07,7.07,0,0,1,4.36,1.44v-6.63c0-1.76-2-1.37-2-2.59a1.23,1.23,0,0,1,.86-1,23.45,23.45,0,0,1,4.54-1.08c1,0,1.3.22,1.3,1.3v22.64c0,1.8,1.72,1.55,1.72,2.38s-.28,1.11-1.72,1.11Zm-2-11.81c0-2.23-1.7-3.45-3.78-3.45-2.49,0-4.43,2-4.43,6.59s1.94,6.58,4.43,6.58a3.74,3.74,0,0,0,3.78-3.38Z"/><path class="cls-6" d="M1649.51,654.8c-.94,0-1.33-.32-1.33-.93,0-1.37,1.69-.26,1.69-2.63v-9.33c0-1.76-1.94-1.36-1.94-2.44,0-.54.5-.76.93-.87s3.39-1.36,4.39-1.36,1.3.75,1.3,2.73v11.27c0,2.37,1.69,1.26,1.69,2.63,0,.61-.4.93-1.33.93Zm5.15-21.74c0,1.58-1.16,2.52-3,2.52a2.52,2.52,0,0,1-2.82-2.2c0-.11,0-.21,0-.32,0-1.55,1.18-2.52,3-2.52a2.53,2.53,0,0,1,2.82,2.22C1654.65,632.86,1654.66,633,1654.66,633.06Z"/><path class="cls-6" d="M1673.23,640a8,8,0,0,1,2.23,5.54,7.3,7.3,0,0,1-3.49,6.59c2.09.61,4,2.13,4,4.14,0,3.38-3.31,5.62-9.61,5.62-5.51,0-8.25-1.23-8.25-3.17s2.2-2.88,3.64-2.88c.68,0,1.19.22,1.19.65s-.36.68-.36,1.15c0,.65.57,1.58,3.92,1.58,3.64,0,4.93-1.29,4.93-2.73s-1.26-2.49-2.55-3.06a7.66,7.66,0,0,1-2.42.39c-5.11,0-8.78-3-8.78-7.92,0-5.68,3.78-8.63,9.32-8.63,2.45,0,4.9.36,7.35.36,2,0,2.23.5,2.23,1.15,0,.86-.47,1.15-1.91,1.22Zm-6.66-.57c-2.19,0-3.92,2.08-3.92,6s1.73,6,3.92,6,3.93-2.09,3.93-6-1.73-6-3.93-6Z"/><path class="cls-6" d="M1690.84,654.8c-.94,0-1.34-.36-1.34-1,0-1.37,1.7-.25,1.7-2.63V632.05c0-1.94-2-1.08-2-2.66,0-.72,3.85-2,5.33-2,.83,0,1.3.44,1.3,2.38V651.2c0,2.38,1.69,1.26,1.69,2.63,0,.61-.4,1-1.33,1Z"/><path class="cls-6" d="M1708.84,655.16c-5.4,0-9.76-3.63-9.76-9s4.36-9,9.76-9,9.75,3.63,9.75,9S1714.23,655.16,1708.84,655.16Zm0-2.16c2.7,0,4.78-2.3,4.78-6.8s-2.08-6.8-4.78-6.8-4.79,2.3-4.79,6.8S1706.14,653,1708.84,653Z"/><path class="cls-6" d="M1737,637.6a.74.74,0,0,1,.79.68.33.33,0,0,1,0,.14c0,1.05-.68.72-1.22,2.78a45.4,45.4,0,0,1-5.61,13.31c-.36.62-.8.65-2.2.65a3,3,0,0,1-2.84-1.65c-2.67-4.18-3.82-7.82-5.12-13.18-.21-.9-1.44-.86-1.44-2,0-.51.36-.72,1.23-.72h6c.8,0,1.08.36,1.08.79,0,1.15-1.8.86-1.8,2.09,0,2.77,2.6,8.67,4.11,11.23,1.94-3.1,3.74-8.07,3.74-10.69,0-1.66-1.8-1.41-1.8-2.63,0-.54.43-.79,1.15-.79Z"/><path class="cls-6" d="M878.91,701.17c0,2.34,2.05,1.22,2.05,2.66,0,.65-.76.94-1.69.94h-5.4c-.94,0-1.34-.36-1.34-1,0-1.37,1.7-.26,1.7-2.63V685.62c0-2.81-2.13-1.44-2.13-3.1,0-1.36,4.18-2.08,4.9-2.08,1.22,0,1.37.72,1.58,2.73,1.44-2.09,3.35-2.73,5.83-2.73,5,0,8,4.17,8,8.85,0,5-3.45,9.07-8.63,9.07-1.44,0-3.93-.29-3.93-1.65a.87.87,0,0,1,.8-.94h.1c.29,0,1.33.14,2.23.14,3.35,0,4.47-3.78,4.47-6.51s-1.05-6.66-4.47-6.66c-2.8,0-4.06,2.59-4.06,5.29Z"/><path class="cls-6" d="M907.88,698c-1.51,0-1.65-.79-1.58-1.94h-.14c-1,1.51-3.28,2.3-5.69,2.3-4.1,0-6.34-2.52-6.34-5.33,0-4.89,6.63-6.76,11.81-6.76a3.38,3.38,0,0,0-3.08-3.67,3,3,0,0,0-.52,0c-2.84,0-3.09,2.09-5.4,2.09a1.41,1.41,0,0,1-1.57-1.23,1.48,1.48,0,0,1,0-.21c0-1.72,3.53-2.8,6.73-2.8,4.71,0,8.53,1.72,8.53,6.33v7.74c0,1.8,1.8,1.33,1.8,2.38,0,.79-.29,1.11-1.73,1.11Zm-1.94-9.79c-4.17,0-6.84,2.52-6.84,4.79a3.38,3.38,0,0,0,3.24,3.35c2.34,0,3.53-2.24,3.6-4Zm-6.8-12.71a3.74,3.74,0,1,1,3.74,3.75A3.79,3.79,0,0,1,899.14,675.5Zm5.9,0a2.16,2.16,0,1,0-2.16,2.16h0A2.17,2.17,0,0,0,905,675.5Z"/><path class="cls-6" d="M932.58,694.4c0,2.38,1.69,1.26,1.69,2.63,0,.61-.39,1-1.33,1h-5.4c-.93,0-1.33-.36-1.33-1,0-1.37,1.69-.25,1.69-2.63V683.1h-1.22c-.83,0-1.37-.25-1.37-1.15s.54-1.15,1.37-1.15h1.26c0-4.18.32-10.52,6.12-10.52,1.29,0,3.16.69,3.16,2.24a1.77,1.77,0,0,1-1.65,1.87h-.07c-1,0-1.3-1-2-1-.4,0-1,.36-1,3.71v3.71h2.41c.83,0,1.37.28,1.37,1.15s-.54,1.15-1.37,1.15h-2.34Z"/><path class="cls-6" d="M947.09,698.36c-5.4,0-9.76-3.63-9.76-9s4.36-9,9.76-9,9.75,3.63,9.75,9S952.49,698.36,947.09,698.36Zm0-2.16c2.7,0,4.79-2.3,4.79-6.8s-2.09-6.81-4.79-6.81-4.79,2.31-4.79,6.81S944.39,696.2,947.09,696.2Z"/><path class="cls-6" d="M960.59,698c-.94,0-1.33-.36-1.33-1,0-1.37,1.69-.25,1.69-2.63V687.1c0-4.14-2.41-2.59-2.41-4.14,0-1,1.08-1.26,2.08-1.76a8.32,8.32,0,0,1,2.49-.79c1.58,0,1.83,3,1.94,4.21h.07c.83-2,2.63-4.21,4.79-4.21a2.37,2.37,0,0,1,2.41,2.32,1.34,1.34,0,0,1,0,.2c0,1-.43,2-1.69,2-.54,0-1.44-.57-2.16-.57-1.47,0-2.84,2.48-2.84,5.18v4.82c0,2.38,1.69,1.26,1.69,2.63,0,.61-.4,1-1.33,1Z"/><path class="cls-6" d="M979.27,682.38a9.11,9.11,0,0,1,5.58-1.94c4.46,0,6.52,2.23,6.52,7v6.91c0,2.38,1.69,1.26,1.69,2.63,0,.61-.4,1-1.33,1h-5.4c-.94,0-1.33-.36-1.33-1,0-1.37,1.69-.25,1.69-2.63v-6.62c0-2.59-.22-4.68-3.67-4.68a3.79,3.79,0,0,0-3.75,3.83v7.47c0,2.38,1.69,1.26,1.69,2.63,0,.61-.39,1-1.33,1h-5.4c-.93,0-1.33-.36-1.33-1,0-1.37,1.69-.25,1.69-2.63v-19.1c0-1.76-1.94-1.37-1.94-2.45,0-.54.54-.64.93-.86a15.11,15.11,0,0,1,4.4-1.37c1.11,0,1.29.76,1.29,2.38Z"/><path class="cls-6" d="M1008,698c-1.51,0-1.65-.79-1.58-1.94h-.15c-1,1.51-3.27,2.3-5.68,2.3-4.11,0-6.34-2.52-6.34-5.33,0-4.89,6.63-6.76,11.81-6.76a3.38,3.38,0,0,0-3.08-3.67,3,3,0,0,0-.52,0c-2.84,0-3.1,2.09-5.4,2.09a1.41,1.41,0,0,1-1.57-1.23,1.48,1.48,0,0,1,0-.21c0-1.72,3.52-2.8,6.73-2.8,4.71,0,8.53,1.72,8.53,6.33v7.74c0,1.8,1.8,1.33,1.8,2.38,0,.79-.29,1.11-1.73,1.11Zm-1.94-9.79c-4.18,0-6.84,2.52-6.84,4.79a3.38,3.38,0,0,0,3.24,3.35c2.34,0,3.53-2.24,3.6-4Zm-6.8-12.71a3.74,3.74,0,1,1,3.74,3.75,3.78,3.78,0,0,1-3.78-3.75Zm5.9,0a2.16,2.16,0,1,0-2.16,2.16h0a2.17,2.17,0,0,0,2.12-2.16Z"/><path class="cls-6" d="M1027.69,687.78c0-2.59-.22-4.68-3.42-4.68a3.79,3.79,0,0,0-3.74,3.84v7.46c0,2.38,1.69,1.26,1.69,2.63,0,.61-.4,1-1.33,1h-5.4c-.94,0-1.33-.36-1.33-1,0-1.37,1.69-.25,1.69-2.63v-8.78c0-2.81-1.91-1.44-1.91-3.1,0-1.36,4-2.08,4.68-2.08,1.08,0,1.22.72,1.3,2.88a7.54,7.54,0,0,1,5.93-2.88c4.47,0,6.52,2.23,6.52,7v6.91c0,2.38,1.69,1.26,1.69,2.63,0,.61-.39,1-1.33,1h-5.4c-.94,0-1.33-.36-1.33-1,0-1.37,1.69-.25,1.69-2.63Z"/><path class="cls-6" d="M1050.44,698c-1.65,0-1.58-.79-1.69-2.12a6.75,6.75,0,0,1-5.79,2.48c-5.48,0-7.71-4-7.71-8.57,0-5.11,3.53-9.35,8.82-9.35a7.07,7.07,0,0,1,4.36,1.44v-6.63c0-1.76-2-1.37-2-2.59a1.23,1.23,0,0,1,.86-1,23.45,23.45,0,0,1,4.54-1.08c1,0,1.3.22,1.3,1.3v22.64c0,1.8,1.72,1.55,1.72,2.38s-.28,1.11-1.72,1.11Zm-2-11.81c0-2.23-1.7-3.45-3.78-3.45-2.49,0-4.43,2-4.43,6.59s1.94,6.58,4.43,6.58a3.74,3.74,0,0,0,3.78-3.38Z"/><path class="cls-6" d="M1068.55,691.13c-.57,0-1-.26-1-1.73s.47-1.73,1-1.73h8c.58,0,1,.25,1,1.73s-.47,1.73-1,1.73Z"/><path class="cls-6" d="M1092.24,698c-.94,0-1.33-.32-1.33-.93,0-1.37,1.69-.26,1.69-2.63v-9.32c0-1.77-1.95-1.37-1.95-2.45,0-.54.51-.76.94-.87s3.38-1.36,4.39-1.36,1.3.75,1.3,2.73v11.27c0,2.37,1.69,1.26,1.69,2.63,0,.61-.4.93-1.33.93Zm5.15-21.74c0,1.58-1.16,2.52-3,2.52-1.66,0-2.85-.94-2.85-2.52s1.19-2.52,3-2.52a2.54,2.54,0,0,1,2.83,2.21C1097.38,676.05,1097.39,676.16,1097.39,676.26Z"/><path class="cls-6" d="M1108.44,680.44c3.85,0,6,1.51,6,2.62,0,2.27-.18,2.45-.79,2.45-1.58,0-1.55-2.92-5.18-2.92-2.34,0-2.88,1.44-2.88,2.38,0,3.38,9.68,1.15,9.68,7.2,0,3.82-3.17,6.19-7.88,6.19-4.07,0-7-2.66-7-3.85,0-.83.5-1.84,1.44-1.84,1.8,0,1.76,3.53,5.4,3.53,1.87,0,3.31-1.08,3.31-2.55,0-3.89-9.54-1-9.54-7.46C1101,682.16,1105,680.44,1108.44,680.44Z"/><path class="cls-6" d="M1125.86,687.31c.61,0,1.22.14,2,.18,0-2.88-1-4.9-3.42-4.9-2.84,0-2.88,2.31-5.07,2.31-.87,0-1.73-.68-1.73-1.37,0-.94,1.58-3.09,6.94-3.09,2.31,0,5.58,1.08,6.45,2.08a10.25,10.25,0,0,1,6-2.08c3.21,0,7.38,1.4,7.38,5.25,0,3.53-3.6,5-8.35,5a19.89,19.89,0,0,1-3.7-.22c.1,3.57,2.23,5.26,4.71,5.26a7.51,7.51,0,0,0,5.22-2.16c.43-.4.68-.76,1.3-.76a.91.91,0,0,1,.93.83c0,1.8-4,4.68-7.88,4.68s-6-1.44-7-2.66a8.49,8.49,0,0,1-6.7,2.66c-3.74,0-6.33-1.73-6.33-5.33C1116.61,689.58,1120.6,687.31,1125.86,687.31Zm2,2.34a7.91,7.91,0,0,0-1.08-.11c-2.74,0-5.18,1.55-5.18,3.85a2.63,2.63,0,0,0,2.44,2.81h.08c3.06,0,3.74-2.91,3.74-4.32Zm6.48-1.15c2,0,5.43-.94,5.43-3.24a2.72,2.72,0,0,0-2.55-2.88h-.29c-2.59,0-4.46,2.59-4.46,6,.61.07,1.23.11,1.85.12Z"/><path class="cls-6" d="M1148.14,698c-.93,0-1.33-.36-1.33-1,0-1.37,1.69-.25,1.69-2.63V687.1c0-4.14-2.41-2.59-2.41-4.14,0-1,1.08-1.26,2.09-1.76a8.35,8.35,0,0,1,2.48-.79c1.59,0,1.84,3,1.95,4.21h.07c.83-2,2.63-4.21,4.79-4.21a2.37,2.37,0,0,1,2.41,2.32,1.34,1.34,0,0,1,0,.2c0,1-.43,2-1.69,2-.54,0-1.44-.57-2.16-.57-1.48,0-2.85,2.48-2.85,5.18v4.82c0,2.38,1.7,1.26,1.7,2.63,0,.61-.4,1-1.34,1Z"/><path class="cls-6" d="M1178.35,682.38a9,9,0,0,1,5.58-1.94c4.46,0,6.51,2.23,6.51,7v6.91c0,2.38,1.69,1.26,1.69,2.63,0,.61-.39,1-1.33,1h-5.4c-.93,0-1.33-.36-1.33-1,0-1.37,1.69-.25,1.69-2.63v-6.62c0-2.59-.21-4.68-3.67-4.68a3.79,3.79,0,0,0-3.74,3.84v7.46c0,2.38,1.69,1.26,1.69,2.63,0,.61-.4,1-1.33,1h-5.4c-.94,0-1.33-.36-1.33-1,0-1.37,1.69-.25,1.69-2.63v-19.1c0-1.76-2-1.37-2-2.45,0-.54.54-.64.94-.86a15.14,15.14,0,0,1,4.39-1.37c1.12,0,1.3.76,1.3,2.38Z"/><path class="cls-6" d="M1210,680.8a.74.74,0,0,1,.79.68.33.33,0,0,1,0,.14c0,1-.68.72-1.22,2.78a45.43,45.43,0,0,1-5.62,13.31c-.36.62-.79.65-2.19.65a3,3,0,0,1-2.85-1.65c-2.66-4.18-3.81-7.82-5.11-13.18-.21-.9-1.44-.86-1.44-2,0-.51.36-.72,1.23-.72h6c.79,0,1.08.36,1.08.79,0,1.15-1.8.86-1.8,2.08,0,2.78,2.59,8.68,4.11,11.24,1.94-3.1,3.74-8.07,3.74-10.69,0-1.66-1.8-1.41-1.8-2.63,0-.54.43-.79,1.15-.79Z"/><path class="cls-6" d="M1212.84,698c-.94,0-1.34-.32-1.34-.93,0-1.37,1.7-.26,1.7-2.63v-9.32c0-1.77-2-1.37-2-2.45,0-.54.51-.76.94-.87s3.38-1.36,4.39-1.36,1.3.75,1.3,2.73v11.27c0,2.37,1.69,1.26,1.69,2.63,0,.61-.4.93-1.33.93Zm5.14-21.74c0,1.58-1.15,2.52-3,2.52-1.66,0-2.85-.94-2.85-2.52s1.19-2.52,3-2.52a2.53,2.53,0,0,1,2.85,2.17c0,.11,0,.23,0,.35Z"/><path class="cls-6" d="M1229,680.44c3.85,0,6,1.51,6,2.62,0,2.27-.18,2.45-.79,2.45-1.59,0-1.55-2.92-5.18-2.92-2.34,0-2.88,1.44-2.88,2.38,0,3.38,9.68,1.15,9.68,7.2,0,3.82-3.17,6.19-7.88,6.19-4.07,0-7-2.66-7-3.85,0-.83.5-1.84,1.44-1.84,1.8,0,1.76,3.53,5.4,3.53,1.87,0,3.31-1.08,3.31-2.55,0-3.89-9.54-1-9.54-7.46C1221.62,682.16,1225.54,680.44,1229,680.44Z"/><path class="cls-6" d="M1263.92,698c-1.66,0-1.59-.79-1.69-2.12a6.78,6.78,0,0,1-5.8,2.48c-5.47,0-7.7-4-7.7-8.57,0-5.11,3.52-9.35,8.82-9.35a7,7,0,0,1,4.35,1.44v-6.63c0-1.76-2-1.37-2-2.59a1.19,1.19,0,0,1,.86-1,23.62,23.62,0,0,1,4.54-1.08c1,0,1.29.22,1.29,1.3v22.64c0,1.8,1.73,1.55,1.73,2.38s-.29,1.11-1.73,1.11Zm-2-11.81c0-2.23-1.69-3.45-3.78-3.45-2.48,0-4.43,2-4.43,6.59s2,6.58,4.43,6.58a3.74,3.74,0,0,0,3.78-3.38Z"/><path class="cls-6" d="M1279.87,680.44c3,0,7,1.4,6.94,5,0,4.86-8.2,5.72-12,5.94a5,5,0,0,0,5,4.39,7.4,7.4,0,0,0,5-2.16c.43-.4.68-.76,1.33-.76a.76.76,0,0,1,.83.68v.15c0,1.8-4,4.68-8.31,4.68-5,0-9.15-3.38-9.18-8.53C1269.64,684.25,1273.13,680.44,1279.87,680.44Zm-5.3,9c1.88-.18,7.56-.9,7.56-4.5a2.36,2.36,0,0,0-2.15-2.55,2.16,2.16,0,0,0-.44,0c-3.45,0-5,3.44-5,7Z"/><path class="cls-6" d="M1298.41,680.8c.82,0,1.36.28,1.36,1.15s-.54,1.15-1.36,1.15h-3v10.44c0,1.69.58,2.16,2.42,2.16,1.65,0,2.08.25,2.08,1a1.14,1.14,0,0,1-1.26,1.26h-5.11c-2.3,0-2.81-.39-2.81-2.34V683.1h-1.47c-1,0-1.37-.25-1.37-1.15s.68-1.05,2-1.15c4.1-.4,2.91-6.27,4.57-6.27.75,0,.93.36.93,1.44v4.83Z"/><path class="cls-6" d="M1322.2,698.36c-5.4,0-9.75-3.63-9.75-9s4.35-9,9.75-9,9.76,3.63,9.76,9S1327.6,698.36,1322.2,698.36Zm0-2.16c2.7,0,4.79-2.3,4.79-6.8s-2.09-6.81-4.79-6.81-4.79,2.31-4.79,6.81S1319.5,696.2,1322.2,696.2Z"/><path class="cls-6" d="M1357.62,698c-.93,0-1.33-.36-1.33-1,0-1.37,1.69-.25,1.69-2.63v-8.06c0-2.16-1-3.24-2.81-3.24a3.55,3.55,0,0,0-3.74,3.09v8.21c0,2.38,1.69,1.26,1.69,2.63,0,.61-.39,1-1.33,1h-5.4c-.93,0-1.33-.36-1.33-1,0-1.37,1.69-.25,1.69-2.63v-8.06c0-2.16-1-3.24-2.81-3.24a3.55,3.55,0,0,0-3.74,3.09v8.21c0,2.38,1.69,1.26,1.69,2.63,0,.61-.39,1-1.33,1h-5.4c-.93,0-1.33-.36-1.33-1,0-1.37,1.69-.25,1.69-2.63v-8.78c0-2.81-1.91-1.44-1.91-3.1,0-1.36,4-2.08,4.68-2.08,1.08,0,1.23.72,1.3,2.88h.07a6.78,6.78,0,0,1,5.76-2.88,5.15,5.15,0,0,1,5,2.88,7.23,7.23,0,0,1,6.26-2.88c2.88,0,6,1.54,6,5.72v8.24c0,2.38,1.69,1.26,1.69,2.63,0,.61-.39,1-1.33,1Z"/><path class="cls-6" d="M1371.66,682.38a9.11,9.11,0,0,1,5.58-1.94c4.47,0,6.52,2.23,6.52,7v6.91c0,2.38,1.69,1.26,1.69,2.63,0,.61-.4,1-1.33,1h-5.4c-.94,0-1.33-.36-1.33-1,0-1.37,1.69-.25,1.69-2.63v-6.62c0-2.59-.22-4.68-3.67-4.68a3.79,3.79,0,0,0-3.75,3.83v7.47c0,2.38,1.7,1.26,1.7,2.63,0,.61-.4,1-1.34,1h-5.4c-.93,0-1.33-.36-1.33-1,0-1.37,1.7-.25,1.7-2.63v-19.1c0-1.76-2-1.37-2-2.45,0-.54.54-.64.94-.86a15.14,15.14,0,0,1,4.39-1.37c1.11,0,1.29.76,1.29,2.38Z"/><path class="cls-6" d="M1400.36,698c-1.52,0-1.66-.79-1.59-1.94h-.14c-1,1.51-3.28,2.3-5.69,2.3-4.1,0-6.34-2.52-6.34-5.33,0-4.89,6.63-6.76,11.81-6.76a3.38,3.38,0,0,0-3.08-3.67,3,3,0,0,0-.52,0c-2.84,0-3.09,2.09-5.4,2.09a1.41,1.41,0,0,1-1.57-1.23,1.48,1.48,0,0,1,0-.21c0-1.72,3.53-2.8,6.73-2.8,4.72,0,8.53,1.72,8.53,6.33v7.74c0,1.8,1.8,1.33,1.8,2.38,0,.79-.29,1.11-1.73,1.11Zm-1.95-9.79c-4.17,0-6.84,2.52-6.84,4.79a3.38,3.38,0,0,0,3.24,3.35c2.34,0,3.53-2.24,3.6-4Z"/><path class="cls-6" d="M1420.08,687.78c0-2.59-.21-4.68-3.42-4.68a3.79,3.79,0,0,0-3.74,3.84v7.46c0,2.38,1.69,1.26,1.69,2.63,0,.61-.39,1-1.33,1h-5.4c-.94,0-1.33-.36-1.33-1,0-1.37,1.69-.25,1.69-2.63v-8.78c0-2.81-1.91-1.44-1.91-3.1,0-1.36,4-2.08,4.68-2.08,1.08,0,1.23.72,1.3,2.88a7.56,7.56,0,0,1,5.94-2.88c4.46,0,6.51,2.23,6.51,7v6.91c0,2.38,1.69,1.26,1.69,2.63,0,.61-.39,1-1.33,1h-5.4c-.93,0-1.33-.36-1.33-1,0-1.37,1.69-.25,1.69-2.63Z"/><path class="cls-6" d="M1442.83,698c-1.65,0-1.58-.79-1.69-2.12a6.75,6.75,0,0,1-5.79,2.48c-5.47,0-7.71-4-7.71-8.57,0-5.11,3.53-9.35,8.82-9.35a7.07,7.07,0,0,1,4.36,1.44v-6.63c0-1.76-2-1.37-2-2.59a1.22,1.22,0,0,1,.87-1,23.52,23.52,0,0,1,4.53-1.08c1,0,1.3.22,1.3,1.3v22.64c0,1.8,1.73,1.55,1.73,2.38s-.29,1.11-1.73,1.11Zm-2-11.81c0-2.23-1.69-3.45-3.78-3.45-2.48,0-4.43,2-4.43,6.59s2,6.58,4.43,6.58a3.74,3.74,0,0,0,3.78-3.38Z"/><path class="cls-6" d="M1450,698c-.94,0-1.33-.36-1.33-1,0-1.37,1.69-.25,1.69-2.63V675.25c0-1.94-1.94-1.08-1.94-2.66,0-.72,3.85-2,5.32-2,.83,0,1.3.43,1.3,2.38V694.4c0,2.38,1.69,1.26,1.69,2.63,0,.61-.4,1-1.33,1Z"/><path class="cls-6" d="M1468.5,680.44c3,0,7,1.4,7,5,0,4.86-8.21,5.72-12,5.94a5,5,0,0,0,5,4.39,7.4,7.4,0,0,0,5-2.16c.43-.4.68-.76,1.33-.76a.76.76,0,0,1,.83.68v.15c0,1.8-4,4.68-8.32,4.68-5,0-9.14-3.38-9.18-8.53C1458.28,684.25,1461.77,680.44,1468.5,680.44Zm-5.29,9c1.87-.18,7.56-.9,7.56-4.5a2.36,2.36,0,0,0-2.15-2.55,2.16,2.16,0,0,0-.44,0c-3.46,0-5,3.44-5,7Z"/><path class="cls-6" d="M1479.34,698c-.94,0-1.33-.36-1.33-1,0-1.37,1.69-.25,1.69-2.63V687.1c0-4.14-2.41-2.59-2.41-4.14,0-1,1.08-1.26,2.09-1.76a8.35,8.35,0,0,1,2.48-.79c1.58,0,1.83,3,1.94,4.21h.08c.82-2,2.62-4.21,4.78-4.21a2.37,2.37,0,0,1,2.41,2.32,1.34,1.34,0,0,1,0,.2c0,1-.43,2-1.69,2-.54,0-1.44-.57-2.16-.57-1.47,0-2.84,2.48-2.84,5.18v4.82c0,2.38,1.69,1.26,1.69,2.63,0,.61-.4,1-1.33,1Z"/><path class="cls-6" d="M1510,701.17c0,2.34,2.06,1.22,2.06,2.66,0,.65-.76.94-1.7.94H1505c-.94,0-1.34-.36-1.34-1,0-1.37,1.69-.26,1.69-2.63V685.62c0-2.81-2.12-1.44-2.12-3.1,0-1.36,4.18-2.08,4.9-2.08,1.22,0,1.36.72,1.58,2.73,1.44-2.09,3.35-2.73,5.83-2.73,5,0,8,4.17,8,8.85,0,5-3.45,9.07-8.64,9.07-1.44,0-3.92-.29-3.92-1.65a.87.87,0,0,1,.8-.94h.1c.29,0,1.33.14,2.23.14,3.35,0,4.47-3.78,4.47-6.51s-1-6.66-4.47-6.66c-2.81,0-4.07,2.59-4.07,5.29Z"/><path class="cls-6" d="M1535.46,680.44c3,0,7,1.4,7,5,0,4.86-8.21,5.72-12,5.94a5,5,0,0,0,5,4.39,7.4,7.4,0,0,0,5-2.16c.43-.4.68-.76,1.33-.76a.76.76,0,0,1,.83.68v.15c0,1.8-4,4.68-8.32,4.68-5,0-9.14-3.38-9.18-8.53C1525.24,684.25,1528.73,680.44,1535.46,680.44Zm-5.29,9c1.87-.18,7.56-.9,7.56-4.5a2.36,2.36,0,0,0-2.15-2.55,2.16,2.16,0,0,0-.44,0c-3.46,0-5,3.44-5,7Z"/><path class="cls-6" d="M1546.3,698c-.94,0-1.33-.36-1.33-1,0-1.37,1.69-.25,1.69-2.63V687.1c0-4.14-2.41-2.59-2.41-4.14,0-1,1.08-1.26,2.08-1.76a8.32,8.32,0,0,1,2.49-.79c1.58,0,1.83,3,1.94,4.21h.07c.83-2,2.63-4.21,4.79-4.21a2.37,2.37,0,0,1,2.39,2.35,1.93,1.93,0,0,1,0,.24c0,1-.43,2-1.69,2-.54,0-1.44-.57-2.16-.57-1.47,0-2.84,2.48-2.84,5.18v4.82c0,2.38,1.69,1.26,1.69,2.63,0,.61-.4,1-1.33,1Z"/><path class="cls-6" d="M1566.71,680.44c3.85,0,6,1.51,6,2.62,0,2.27-.19,2.45-.8,2.45-1.58,0-1.54-2.92-5.18-2.92-2.34,0-2.88,1.44-2.88,2.38,0,3.38,9.68,1.15,9.68,7.2,0,3.82-3.16,6.19-7.88,6.19-4.07,0-7-2.66-7-3.85,0-.83.51-1.84,1.44-1.84,1.8,0,1.77,3.53,5.4,3.53,1.87,0,3.31-1.08,3.31-2.55,0-3.89-9.54-1-9.54-7.46C1559.29,682.16,1563.22,680.44,1566.71,680.44Z"/><path class="cls-6" d="M1584.64,698.36c-5.4,0-9.76-3.63-9.76-9s4.36-9,9.76-9,9.75,3.63,9.75,9S1590,698.36,1584.64,698.36Zm0-2.16c2.7,0,4.78-2.3,4.78-6.8s-2.08-6.81-4.78-6.81-4.79,2.31-4.79,6.81S1581.94,696.2,1584.64,696.2Z"/><path class="cls-6" d="M1609.8,687.78c0-2.59-.22-4.68-3.42-4.68a3.79,3.79,0,0,0-3.74,3.84v7.46c0,2.38,1.69,1.26,1.69,2.63,0,.61-.4,1-1.33,1h-5.4c-.94,0-1.33-.36-1.33-1,0-1.37,1.69-.25,1.69-2.63v-8.78c0-2.81-1.91-1.44-1.91-3.1,0-1.36,4-2.08,4.68-2.08,1.08,0,1.22.72,1.3,2.88a7.54,7.54,0,0,1,5.93-2.88c4.47,0,6.52,2.23,6.52,7v6.91c0,2.38,1.69,1.26,1.69,2.63,0,.61-.39,1-1.33,1h-5.4c-.94,0-1.33-.36-1.33-1,0-1.37,1.69-.25,1.69-2.63Z"/><path class="cls-6" d="M1627.62,680.44c3,0,7,1.4,7,5,0,4.86-8.21,5.72-12,5.94a5,5,0,0,0,5,4.39,7.4,7.4,0,0,0,5-2.16c.43-.4.68-.76,1.33-.76a.76.76,0,0,1,.83.68v.15c0,1.8-4,4.68-8.32,4.68-5,0-9.14-3.38-9.18-8.53C1617.4,684.25,1620.89,680.44,1627.62,680.44Zm-5.29,9c1.87-.18,7.56-.9,7.56-4.5a2.36,2.36,0,0,0-2.15-2.55,2.16,2.16,0,0,0-.44,0c-3.46,0-5,3.44-5,7Z"/><path class="cls-6" d="M1638.46,698c-.94,0-1.33-.36-1.33-1,0-1.37,1.69-.25,1.69-2.63V687.1c0-4.14-2.41-2.59-2.41-4.14,0-1,1.08-1.26,2.08-1.76a8.32,8.32,0,0,1,2.49-.79c1.58,0,1.83,3,1.94,4.21h.07c.83-2,2.63-4.21,4.79-4.21a2.37,2.37,0,0,1,2.41,2.32,1.34,1.34,0,0,1,0,.2c0,1-.43,2-1.69,2-.54,0-1.44-.57-2.16-.57-1.48,0-2.84,2.48-2.84,5.18v4.82c0,2.38,1.69,1.26,1.69,2.63,0,.61-.4,1-1.33,1Z"/><path class="cls-6" d="M887.58,741.2c-1.8,0-1.94-.61-2.16-2.27a8.34,8.34,0,0,1-6,2.63c-4.18,0-5.91-2.66-5.91-5.94v-7.38c0-2.55-1.65-1.44-1.65-2.8,0-1.16,4.32-1.8,4.86-1.8.86,0,1.47.43,1.47,2.66v8.53c0,3.28.79,4.07,2.88,4.07s4-1.3,4-3.31v-7.35c0-2.55-1.65-1.44-1.65-2.8,0-1.16,4.32-1.8,4.86-1.8.86,0,1.47.43,1.47,2.66v11.41c0,2,1.84,1.55,1.84,2.52,0,.54-.25,1-1.33,1Z"/><path class="cls-6" d="M906.37,731c0-2.59-.21-4.68-3.42-4.68a3.79,3.79,0,0,0-3.74,3.84v7.46c0,2.38,1.69,1.26,1.69,2.63,0,.61-.39,1-1.33,1h-5.4c-.94,0-1.33-.36-1.33-1,0-1.37,1.69-.25,1.69-2.63v-8.78c0-2.81-1.91-1.44-1.91-3.1,0-1.36,4-2.08,4.68-2.08,1.08,0,1.23.72,1.3,2.88a7.56,7.56,0,0,1,5.94-2.88c4.46,0,6.51,2.23,6.51,7.05v6.91c0,2.38,1.69,1.26,1.69,2.63,0,.61-.39,1-1.33,1H906c-.93,0-1.33-.36-1.33-1,0-1.37,1.69-.25,1.69-2.63Z"/><path class="cls-6" d="M929.12,741.2c-1.65,0-1.58-.79-1.69-2.12a6.75,6.75,0,0,1-5.79,2.48c-5.47,0-7.71-4-7.71-8.57,0-5.11,3.53-9.35,8.82-9.35a7.07,7.07,0,0,1,4.36,1.44v-6.63c0-1.76-2-1.37-2-2.59a1.22,1.22,0,0,1,.87-1,23.52,23.52,0,0,1,4.53-1.08c1,0,1.3.22,1.3,1.3v22.64c0,1.8,1.73,1.55,1.73,2.38s-.29,1.11-1.73,1.11Zm-2-11.8c0-2.24-1.69-3.46-3.78-3.46-2.48,0-4.43,2-4.43,6.59s2,6.58,4.43,6.58a3.74,3.74,0,0,0,3.78-3.38Z"/><path class="cls-6" d="M945.07,723.64c3,0,7,1.4,6.95,5,0,4.86-8.21,5.72-11.95,5.94a5,5,0,0,0,5,4.39,7.4,7.4,0,0,0,5-2.16c.43-.4.68-.76,1.33-.76a.76.76,0,0,1,.83.68v.15c0,1.8-4,4.68-8.32,4.68-5,0-9.14-3.38-9.18-8.53C934.85,727.45,938.34,723.64,945.07,723.64Zm-5.29,9c1.87-.18,7.56-.89,7.56-4.49a2.35,2.35,0,0,0-2.14-2.56,1.69,1.69,0,0,0-.45,0c-3.46,0-5,3.41-5,7Z"/><path class="cls-6" d="M955.91,741.2c-.94,0-1.33-.36-1.33-1,0-1.37,1.69-.25,1.69-2.63V730.3c0-4.14-2.41-2.59-2.41-4.14,0-1,1.08-1.26,2.09-1.76a8.35,8.35,0,0,1,2.48-.79c1.58,0,1.83,3.06,1.94,4.21h.07c.83-2,2.63-4.21,4.79-4.21a2.37,2.37,0,0,1,2.41,2.32,1.33,1.33,0,0,1,0,.2c0,1-.43,2-1.69,2-.54,0-1.44-.58-2.16-.58-1.47,0-2.84,2.49-2.84,5.19v4.82c0,2.38,1.69,1.26,1.69,2.63,0,.61-.4,1-1.33,1Z"/><path class="cls-6" d="M993,735.8c0,2.52.62,3,2.34,3.1,1.52.11,2.2.43,2.2,1.22s-1,1.08-1.73,1.08H984.67c-1.4,0-1.83-.36-1.83-1.08s1.15-1.08,2.34-1.19c2.16-.21,2.52-.68,2.52-3.09V721.51c0-2.34-.33-2.73-2.85-2.7h-1.19c-1,0-1.58-.21-1.58-1s.9-1,1.87-1.15c4.32-.57,6.09-2.73,7.6-2.73,1.33,0,1.47,1,1.47,2.05Z"/><path class="cls-6" d="M1014.16,714.28c5.9,0,8.74,3.24,8.74,5.76,0,3.24-2.88,5-5.25,6.15,3.27,1.51,6,3.74,6,7.6,0,4.89-4.61,8-10.69,8-4.25,0-9.65-1.95-9.65-7,0-3.34,3.1-5.65,6-6.73-2.63-1.33-4.93-3.27-4.93-6.4C1004.4,718.16,1007.46,714.28,1014.16,714.28Zm-2.63,15c-2,1.11-3.89,2.88-3.89,5.29,0,3.2,2.59,5,5.44,5,2.41,0,5.54-1.41,5.54-4.32a4.38,4.38,0,0,0-2.48-3.71Zm7.05-8.79c0-2.55-2.19-4.06-4.64-4.06-2.23,0-4.5,1.51-4.5,3.88,0,2.81,3.67,4,5.9,4.86,1.66-1.25,3.24-2.43,3.24-4.67Z"/><path class="cls-6" d="M1051.16,741.2c-1.51,0-1.65-.79-1.58-1.94h-.14c-1,1.51-3.28,2.3-5.69,2.3-4.11,0-6.34-2.52-6.34-5.33,0-4.89,6.63-6.76,11.81-6.76a3.38,3.38,0,0,0-3.07-3.66,3.13,3.13,0,0,0-.53,0c-2.84,0-3.1,2.08-5.4,2.08a1.42,1.42,0,0,1-1.57-1.25,1.21,1.21,0,0,1,0-.19c0-1.72,3.52-2.8,6.73-2.8,4.71,0,8.53,1.72,8.53,6.33v7.74c0,1.8,1.8,1.33,1.8,2.38,0,.79-.29,1.11-1.73,1.11Zm-1.94-9.79c-4.18,0-6.84,2.52-6.84,4.79a3.38,3.38,0,0,0,3.24,3.35c2.34,0,3.53-2.24,3.6-4Zm-6.8-12.71a3.74,3.74,0,1,1,3.74,3.75A3.78,3.78,0,0,1,1042.42,718.7Zm5.9,0a2.16,2.16,0,1,0-2.16,2.16,2.16,2.16,0,0,0,2.16-2.16Z"/><path class="cls-6" d="M1059.23,741.2c-.94,0-1.33-.36-1.33-1,0-1.37,1.69-.25,1.69-2.63V730.3c0-4.14-2.41-2.59-2.41-4.14,0-1,1.08-1.26,2.08-1.76a8.32,8.32,0,0,1,2.49-.79c1.58,0,1.83,3.06,1.94,4.21h.07c.83-2,2.63-4.21,4.79-4.21a2.37,2.37,0,0,1,2.41,2.32,1.33,1.33,0,0,1,0,.2c0,1-.43,2-1.69,2-.54,0-1.44-.58-2.16-.58-1.47,0-2.84,2.49-2.84,5.19v4.82c0,2.38,1.69,1.26,1.69,2.63,0,.61-.4,1-1.33,1Z"/><path class="cls-6" d="M1076.65,728.35c0-1.94,6-1.51,6-8,0-2.38-1.15-4.54-3.78-4.54-1.4,0-2.91.68-2.91,2.45,0,.39.14.65.14,1.15s-.65,1.51-2.27,1.51a1.92,1.92,0,0,1-2.11-1.71,1.77,1.77,0,0,1,0-.23c0-3.35,4-5.11,7.85-5.11,5.29,0,8.2,3.27,8.2,6.73,0,8.31-8.31,7.81-8.31,10,0,2.95-.22,3.53-1.37,3.53s-1.44-.72-1.44-2ZM1075.39,739a2.91,2.91,0,1,1,3.27,2.49l-.39,0A2.72,2.72,0,0,1,1075.39,739Z"/></svg>
