<svg id="Layer_1" data-name="Layer 1" xmlns="http://www.w3.org/2000/svg" xmlns:xlink="http://www.w3.org/1999/xlink" width="1071.61" height="267.92" viewBox="0 0 1071.61 267.92"><defs><style>.cls-1{fill:none;}.cls-2{fill:url(#linear-gradient);}.cls-3{fill:url(#linear-gradient-2);}.cls-4{fill:url(#linear-gradient-3);}.cls-5{fill:url(#linear-gradient-4);}.cls-6{fill:#29abe2;}.cls-7{fill:url(#linear-gradient-5);}.cls-8{fill:url(#linear-gradient-6);}.cls-9{fill:url(#linear-gradient-7);}.cls-10{fill:url(#linear-gradient-8);}.cls-11{fill:url(#linear-gradient-9);}.cls-12{fill:url(#linear-gradient-10);}.cls-13{fill:url(#linear-gradient-11);}.cls-14{fill:url(#linear-gradient-12);}.cls-15{fill:url(#linear-gradient-13);}.cls-16{fill:#ff85b5;}.cls-17{fill:#c1fff5;}.cls-18{fill:#f2f2f1;}.cls-19{fill:url(#linear-gradient-14);}.cls-20{fill:url(#linear-gradient-15);}.cls-21{fill:#ffa55d;}.cls-22{fill:#7f3900;}.cls-23{fill:url(#linear-gradient-16);}.cls-24{fill:url(#linear-gradient-17);}.cls-25{fill:url(#linear-gradient-18);}.cls-26{fill:url(#linear-gradient-19);}.cls-27{fill:url(#linear-gradient-20);}.cls-28{fill:url(#linear-gradient-21);}.cls-29{fill:url(#linear-gradient-22);}.cls-30{fill:#fff85b;}.cls-31{fill:#f4ff0f;}.cls-32{fill:#f13d24;}.cls-33{fill:#f15a24;}.cls-34{fill:#c6d0ff;}.cls-35{fill:#ff941a;}.cls-36{fill:url(#linear-gradient-23);}.cls-37{fill:url(#linear-gradient-24);}.cls-38{fill:url(#linear-gradient-25);}.cls-39{fill:url(#linear-gradient-26);}.cls-40{fill:url(#linear-gradient-27);}.cls-41{fill:url(#linear-gradient-28);}.cls-42{fill:url(#linear-gradient-29);}.cls-43{fill:url(#linear-gradient-30);}.cls-44{fill:url(#linear-gradient-31);}.cls-45{fill:url(#linear-gradient-32);}.cls-46{fill:url(#linear-gradient-33);}.cls-47{fill:url(#linear-gradient-34);}.cls-48{fill:#49f2f2;}.cls-49{clip-path:url(#clip-path);}.cls-50{clip-path:url(#clip-path-2);}.cls-51{clip-path:url(#clip-path-5);}.cls-52{fill:url(#linear-gradient-35);}.cls-53{clip-path:url(#clip-path-6);}.cls-54{clip-path:url(#clip-path-7);}.cls-55{clip-path:url(#clip-path-10);}.cls-56{fill:url(#linear-gradient-36);}.cls-57{clip-path:url(#clip-path-11);}.cls-58{clip-path:url(#clip-path-12);}.cls-59{clip-path:url(#clip-path-15);}.cls-60{fill:url(#linear-gradient-37);}.cls-61{clip-path:url(#clip-path-16);}.cls-62{clip-path:url(#clip-path-17);}.cls-63{clip-path:url(#clip-path-20);}.cls-64{fill:url(#linear-gradient-38);}.cls-65{fill:red;}.cls-66{fill:url(#linear-gradient-39);}.cls-67{fill:url(#linear-gradient-40);}.cls-68{fill:url(#linear-gradient-41);}.cls-69{fill:url(#linear-gradient-42);}.cls-70{fill:url(#linear-gradient-43);}.cls-71{fill:url(#linear-gradient-44);}.cls-72{fill:url(#linear-gradient-45);}.cls-73{fill:url(#linear-gradient-46);}.cls-74{fill:url(#linear-gradient-47);}.cls-75{fill:url(#linear-gradient-48);}.cls-76{fill:url(#linear-gradient-49);}.cls-77{fill:url(#linear-gradient-50);}.cls-78{fill:url(#linear-gradient-51);}.cls-79{fill:url(#linear-gradient-52);}.cls-80{fill:url(#linear-gradient-53);}.cls-81{fill:url(#linear-gradient-54);}.cls-82{fill:url(#linear-gradient-55);}.cls-83{fill:url(#linear-gradient-56);}.cls-84{fill:url(#linear-gradient-57);}.cls-85{fill:url(#linear-gradient-58);}.cls-86{fill:url(#linear-gradient-59);}.cls-87{fill:url(#linear-gradient-60);}.cls-88{fill:url(#linear-gradient-61);}.cls-89{fill:url(#linear-gradient-62);}.cls-90{fill:url(#linear-gradient-63);}.cls-91{fill:url(#linear-gradient-64);}.cls-92{fill:url(#linear-gradient-65);}.cls-93{fill:url(#linear-gradient-66);}.cls-94{fill:url(#linear-gradient-67);}.cls-95{fill:url(#linear-gradient-68);}.cls-96{fill:url(#linear-gradient-69);}.cls-97{fill:url(#linear-gradient-70);}.cls-98{fill:url(#linear-gradient-71);}.cls-99{fill:url(#linear-gradient-72);}.cls-100{clip-path:url(#clip-path-21);}.cls-101{clip-path:url(#clip-path-22);}.cls-102{clip-path:url(#clip-path-25);}.cls-103{fill:url(#linear-gradient-73);}.cls-104{clip-path:url(#clip-path-26);}.cls-105{clip-path:url(#clip-path-27);}.cls-106{clip-path:url(#clip-path-30);}.cls-107{fill:url(#linear-gradient-74);}.cls-108{clip-path:url(#clip-path-31);}.cls-109{clip-path:url(#clip-path-32);}.cls-110{clip-path:url(#clip-path-35);}.cls-111{fill:url(#linear-gradient-75);}.cls-112{clip-path:url(#clip-path-36);}.cls-113{clip-path:url(#clip-path-37);}.cls-114{clip-path:url(#clip-path-40);}.cls-115{fill:url(#linear-gradient-76);}.cls-116{fill:url(#linear-gradient-77);}.cls-117{fill:url(#linear-gradient-78);}.cls-118{fill:url(#linear-gradient-79);}.cls-119{fill:url(#linear-gradient-80);}.cls-120{fill:url(#linear-gradient-81);}.cls-121{fill:url(#linear-gradient-82);}.cls-122{fill:url(#linear-gradient-83);}.cls-123{fill:url(#linear-gradient-84);}.cls-124{fill:url(#linear-gradient-85);}.cls-125{fill:url(#linear-gradient-86);}.cls-126{fill:url(#linear-gradient-87);}.cls-127{fill:url(#linear-gradient-88);}.cls-128{fill:url(#linear-gradient-89);}.cls-129{fill:url(#linear-gradient-90);}.cls-130{fill:url(#linear-gradient-91);}.cls-131{fill:url(#linear-gradient-92);}.cls-132{fill:url(#linear-gradient-93);}.cls-133{fill:url(#linear-gradient-94);}.cls-134{fill:url(#linear-gradient-95);}.cls-135{fill:url(#linear-gradient-96);}.cls-136{fill:url(#linear-gradient-97);}.cls-137{fill:url(#linear-gradient-98);}.cls-138{fill:url(#linear-gradient-99);}.cls-139{fill:url(#linear-gradient-100);}.cls-140{fill:url(#linear-gradient-101);}.cls-141{fill:url(#linear-gradient-102);}.cls-142{fill:url(#linear-gradient-103);}.cls-143{fill:url(#linear-gradient-104);}.cls-144{fill:url(#linear-gradient-105);}.cls-145{fill:url(#linear-gradient-106);}.cls-146{fill:url(#linear-gradient-107);}.cls-147{fill:url(#linear-gradient-108);}.cls-148{fill:url(#linear-gradient-109);}.cls-149{fill:url(#linear-gradient-110);}.cls-150{clip-path:url(#clip-path-41);}.cls-151{clip-path:url(#clip-path-42);}.cls-152{clip-path:url(#clip-path-45);}.cls-153{fill:url(#linear-gradient-111);}.cls-154{clip-path:url(#clip-path-46);}.cls-155{clip-path:url(#clip-path-47);}.cls-156{clip-path:url(#clip-path-50);}.cls-157{fill:url(#linear-gradient-112);}.cls-158{fill:url(#linear-gradient-113);}.cls-159{fill:url(#linear-gradient-114);}.cls-160{fill:url(#linear-gradient-115);}.cls-161{fill:url(#linear-gradient-116);}.cls-162{fill:url(#linear-gradient-117);}.cls-163{fill:url(#linear-gradient-118);}.cls-164{fill:url(#linear-gradient-119);}.cls-165{fill:url(#linear-gradient-120);}.cls-166{fill:url(#linear-gradient-121);}.cls-167{fill:url(#linear-gradient-122);}.cls-168{fill:url(#linear-gradient-123);}.cls-169{fill:url(#linear-gradient-124);}.cls-170{fill:url(#linear-gradient-125);}.cls-171{fill:url(#linear-gradient-126);}.cls-172{fill:url(#linear-gradient-127);}.cls-173{fill:url(#linear-gradient-128);}.cls-174{fill:url(#linear-gradient-129);}.cls-175{fill:url(#linear-gradient-130);}.cls-176{fill:url(#linear-gradient-131);}.cls-177{fill:url(#linear-gradient-132);}.cls-178{fill:url(#linear-gradient-133);}.cls-179{fill:url(#linear-gradient-134);}.cls-180{fill:url(#linear-gradient-135);}.cls-181{fill:url(#linear-gradient-136);}.cls-182{fill:url(#linear-gradient-137);}.cls-183{fill:url(#linear-gradient-138);}.cls-184{fill:url(#linear-gradient-139);}.cls-185{fill:url(#linear-gradient-140);}.cls-186{fill:url(#linear-gradient-141);}.cls-187{fill:url(#linear-gradient-142);}.cls-188{fill:url(#linear-gradient-143);}.cls-189{fill:url(#linear-gradient-144);}.cls-190{fill:url(#linear-gradient-145);}.cls-191{fill:url(#linear-gradient-146);}.cls-192{clip-path:url(#clip-path-51);}.cls-193{clip-path:url(#clip-path-52);}.cls-194{clip-path:url(#clip-path-55);}.cls-195{fill:url(#linear-gradient-147);}.cls-196{clip-path:url(#clip-path-56);}.cls-197{clip-path:url(#clip-path-57);}.cls-198{clip-path:url(#clip-path-60);}.cls-199{fill:url(#linear-gradient-148);}.cls-200{clip-path:url(#clip-path-61);}.cls-201{clip-path:url(#clip-path-62);}.cls-202{clip-path:url(#clip-path-65);}.cls-203{fill:url(#linear-gradient-149);}.cls-204{clip-path:url(#clip-path-66);}.cls-205{clip-path:url(#clip-path-67);}.cls-206{clip-path:url(#clip-path-70);}.cls-207{fill:url(#linear-gradient-150);}.cls-208{fill:url(#linear-gradient-151);}.cls-209{fill:url(#linear-gradient-152);}.cls-210{clip-path:url(#clip-path-71);}.cls-211{clip-path:url(#clip-path-72);}.cls-212{clip-path:url(#clip-path-75);}.cls-213{fill:url(#linear-gradient-153);}.cls-214{clip-path:url(#clip-path-76);}.cls-215{clip-path:url(#clip-path-77);}.cls-216{clip-path:url(#clip-path-80);}.cls-217{fill:url(#linear-gradient-154);}.cls-218{fill:url(#linear-gradient-155);}.cls-219{fill:url(#linear-gradient-156);}.cls-220{clip-path:url(#clip-path-81);}.cls-221{clip-path:url(#clip-path-82);}.cls-222{clip-path:url(#clip-path-85);}.cls-223{fill:url(#linear-gradient-157);}.cls-224{clip-path:url(#clip-path-86);}.cls-225{clip-path:url(#clip-path-87);}.cls-226{clip-path:url(#clip-path-90);}.cls-227{fill:url(#linear-gradient-158);}.cls-228{clip-path:url(#clip-path-91);}.cls-229{clip-path:url(#clip-path-92);}.cls-230{clip-path:url(#clip-path-95);}.cls-231{fill:url(#linear-gradient-159);}.cls-232{clip-path:url(#clip-path-96);}.cls-233{clip-path:url(#clip-path-97);}.cls-234{clip-path:url(#clip-path-100);}.cls-235{fill:url(#linear-gradient-160);}</style><linearGradient id="linear-gradient" x1="-58.76" y1="-20.41" x2="-13.57" y2="-20.41" gradientTransform="translate(293.67 174.17) rotate(165.55) scale(1 0.87)" gradientUnits="userSpaceOnUse"><stop offset="0" stop-color="#f15a24"/><stop offset="0.21" stop-color="#ee5628"/><stop offset="0.42" stop-color="#e44a34"/><stop offset="0.63" stop-color="#d43647"/><stop offset="0.84" stop-color="#be1a62"/><stop offset="1" stop-color="#aa007b"/></linearGradient><linearGradient id="linear-gradient-2" x1="-277.62" y1="326.63" x2="-231.07" y2="326.63" gradientTransform="matrix(-1, -0.09, 0.12, -1.31, 39.1, 536.77)" xlink:href="#linear-gradient"/><linearGradient id="linear-gradient-3" x1="-374.79" y1="-2.52" x2="-357.54" y2="-2.52" gradientTransform="matrix(-0.99, -0.11, 0.11, -0.99, -2.54, 52.56)" gradientUnits="userSpaceOnUse"><stop offset="0" stop-color="#ffb580"/><stop offset="0.3" stop-color="#ffb47c"/><stop offset="0.57" stop-color="#ffb071"/><stop offset="0.82" stop-color="#ffab5f"/><stop offset="1" stop-color="#ffa54e"/></linearGradient><linearGradient id="linear-gradient-4" x1="-4182.76" y1="767.43" x2="-4168.94" y2="767.43" gradientTransform="matrix(0.51, -0.86, -0.64, -0.38, 3016.63, -3181.84)" xlink:href="#linear-gradient-3"/><linearGradient id="linear-gradient-5" x1="25.45" y1="381.75" x2="41.88" y2="353.29" gradientTransform="matrix(-0.99, 0.38, -0.65, -1.68, 609.55, 804.28)" gradientUnits="userSpaceOnUse"><stop offset="0" stop-color="#fff"/><stop offset="0.36" stop-color="#fefdfd"/><stop offset="0.55" stop-color="#faf6f5"/><stop offset="0.7" stop-color="#f4eae7"/><stop offset="0.83" stop-color="#ebdad4"/><stop offset="0.95" stop-color="#e0c4bb"/><stop offset="1" stop-color="#dab9ae"/></linearGradient><linearGradient id="linear-gradient-6" x1="-136.34" y1="236.3" x2="-123.13" y2="213.4" gradientTransform="translate(231.22 436.33) rotate(-179.43)" xlink:href="#linear-gradient-5"/><linearGradient id="linear-gradient-7" x1="-36.78" y1="349.62" x2="-21.86" y2="323.78" gradientTransform="translate(277.84 550.27) rotate(-178.28)" gradientUnits="userSpaceOnUse"><stop offset="0" stop-color="#fff"/><stop offset="0.18" stop-color="#f6eeeb"/><stop offset="0.52" stop-color="#e7d1ca"/><stop offset="0.81" stop-color="#ddbfb5"/><stop offset="1" stop-color="#dab9ae"/></linearGradient><linearGradient id="linear-gradient-8" x1="-223.04" y1="68.53" x2="-207.48" y2="41.6" gradientTransform="translate(125.64 270) rotate(180)" gradientUnits="userSpaceOnUse"><stop offset="0" stop-color="#fff"/><stop offset="0.26" stop-color="#f4eae7"/><stop offset="0.75" stop-color="#e1c7be"/><stop offset="1" stop-color="#dab9ae"/></linearGradient><linearGradient id="linear-gradient-9" x1="605.92" y1="1030.96" x2="622.75" y2="1030.96" gradientTransform="translate(869.73 -1275.33) rotate(41.53) scale(1 1.37)" xlink:href="#linear-gradient-3"/><linearGradient id="linear-gradient-10" x1="-445.82" y1="-52.7" x2="-428.58" y2="-52.7" xlink:href="#linear-gradient-3"/><linearGradient id="linear-gradient-11" x1="493.51" y1="1150.72" x2="506.8" y2="1150.72" gradientTransform="translate(669.82 -1360.31) rotate(29.89) scale(1 1.3)" xlink:href="#linear-gradient-3"/><linearGradient id="linear-gradient-12" x1="-233.87" y1="204.94" x2="-187.92" y2="204.94" gradientTransform="translate(125.64 270) rotate(180)" gradientUnits="userSpaceOnUse"><stop offset="0" stop-color="#ffb580"/><stop offset="0.38" stop-color="#ffb47d"/><stop offset="0.61" stop-color="#ffb175"/><stop offset="0.8" stop-color="#ffad66"/><stop offset="0.97" stop-color="#ffa652"/><stop offset="1" stop-color="#ffa54e"/></linearGradient><linearGradient id="linear-gradient-13" x1="-193.66" y1="209.92" x2="-182.17" y2="209.92" gradientTransform="translate(125.64 270) rotate(180)" gradientUnits="userSpaceOnUse"><stop offset="0" stop-color="#ffb580"/><stop offset="0.55" stop-color="#ffab62"/><stop offset="1" stop-color="#ffa54e"/></linearGradient><linearGradient id="linear-gradient-14" x1="-205.14" y1="201.94" x2="-195.57" y2="201.94" gradientTransform="translate(125.64 270) rotate(180)" gradientUnits="userSpaceOnUse"><stop offset="0" stop-color="#ff85b5"/><stop offset="0.27" stop-color="#ff7f9f"/><stop offset="0.84" stop-color="#ff6f68"/><stop offset="1" stop-color="#ff6a57"/></linearGradient><linearGradient id="linear-gradient-15" x1="-230.69" y1="201.94" x2="-221.12" y2="201.94" xlink:href="#linear-gradient-14"/><linearGradient id="linear-gradient-16" x1="203.44" y1="-91.29" x2="207.42" y2="-90.34" gradientTransform="matrix(-0.2, 0.98, -1.01, -0.2, 396.33, -89.96)" xlink:href="#linear-gradient-3"/><linearGradient id="linear-gradient-17" x1="207.23" y1="-90.33" x2="211.21" y2="-89.37" gradientTransform="matrix(-0.2, 0.98, -1.01, -0.2, 396.33, -89.96)" xlink:href="#linear-gradient-3"/><linearGradient id="linear-gradient-18" x1="210.82" y1="-90.28" x2="214.8" y2="-89.33" gradientTransform="matrix(-0.2, 0.98, -1.01, -0.2, 396.33, -89.96)" xlink:href="#linear-gradient-3"/><linearGradient id="linear-gradient-19" x1="214.41" y1="-90.26" x2="218.39" y2="-89.3" gradientTransform="matrix(-0.2, 0.98, -1.01, -0.2, 396.33, -89.96)" xlink:href="#linear-gradient-3"/><linearGradient id="linear-gradient-20" x1="586" y1="1497.71" x2="589.73" y2="1498.6" gradientTransform="matrix(0.47, 0.88, -0.91, 0.48, 1528.76, -1108.55)" xlink:href="#linear-gradient-3"/><linearGradient id="linear-gradient-21" x1="320.01" y1="11.89" x2="333.83" y2="11.89" gradientTransform="matrix(-0.09, 1, -0.6, -0.06, 449.24, -193.85)" xlink:href="#linear-gradient-3"/><linearGradient id="linear-gradient-22" x1="-306.07" y1="83.28" x2="-293.21" y2="83.28" gradientTransform="translate(124.99 270.83) rotate(180)" xlink:href="#linear-gradient-3"/><linearGradient id="linear-gradient-23" x1="-264.53" y1="83.6" x2="-251.67" y2="83.6" gradientTransform="translate(124.99 270.83) rotate(180)" xlink:href="#linear-gradient-3"/><linearGradient id="linear-gradient-24" x1="-402.55" y1="-57.52" x2="-385.31" y2="-57.52" xlink:href="#linear-gradient-3"/><linearGradient id="linear-gradient-25" x1="-3005.46" y1="1314.94" x2="-3001.48" y2="1315.89" gradientTransform="matrix(0.16, 0.99, 1.02, -0.16, -492.1, 3312.92)" xlink:href="#linear-gradient-3"/><linearGradient id="linear-gradient-26" x1="-3001.86" y1="1314.97" x2="-2997.89" y2="1315.92" gradientTransform="matrix(0.16, 0.99, 1.02, -0.16, -492.1, 3312.92)" xlink:href="#linear-gradient-3"/><linearGradient id="linear-gradient-27" x1="-2998.27" y1="1314.99" x2="-2994.29" y2="1315.95" gradientTransform="matrix(0.16, 0.99, 1.02, -0.16, -492.1, 3312.92)" xlink:href="#linear-gradient-3"/><linearGradient id="linear-gradient-28" x1="-2994.7" y1="1315.09" x2="-2990.72" y2="1316.04" gradientTransform="matrix(0.16, 0.99, 1.02, -0.16, -492.1, 3312.92)" xlink:href="#linear-gradient-3"/><linearGradient id="linear-gradient-29" x1="-2820.35" y1="620.6" x2="-2816.61" y2="621.5" gradientTransform="matrix(-0.5, 0.87, 0.89, 0.52, -1580.73, 2248.7)" xlink:href="#linear-gradient-3"/><linearGradient id="linear-gradient-30" x1="-3012.33" y1="1330.4" x2="-2998.51" y2="1330.4" gradientTransform="matrix(0.06, 1, 0.51, -0.03, -98.2, 3181.37)" xlink:href="#linear-gradient-3"/><linearGradient id="linear-gradient-31" x1="-450.73" y1="-40.97" x2="-434.65" y2="-40.97" xlink:href="#linear-gradient-3"/><linearGradient id="linear-gradient-32" x1="289.96" y1="-117.09" x2="303.77" y2="-117.09" gradientTransform="matrix(-0.44, 0.9, -0.68, -0.34, 397.42, -190.72)" xlink:href="#linear-gradient-3"/><linearGradient id="linear-gradient-33" x1="-315.91" y1="-74.54" x2="-299.83" y2="-74.54" gradientTransform="matrix(-0.99, -0.11, 0.11, -0.99, 82.83, 23.61)" xlink:href="#linear-gradient-3"/><linearGradient id="linear-gradient-34" x1="-324.92" y1="-9.06" x2="-308.84" y2="-9.06" xlink:href="#linear-gradient-3"/><clipPath id="clip-path"><polygon class="cls-1" points="317.71 75.94 319 74.26 319.47 74.61 318.17 76.3 317.71 75.94"/></clipPath><clipPath id="clip-path-2"><polygon class="cls-1" points="318.17 76.3 319.47 74.61 319 74.26 317.71 75.94 318.17 76.3"/></clipPath><clipPath id="clip-path-5"><path class="cls-1" d="M319.29,74.49c.1.11-.13.58-.52,1s-.79.7-.88.57.12-.59.51-1,.78-.69.89-.56"/></clipPath><linearGradient id="linear-gradient-35" x1="-1215.45" y1="1601.65" x2="-1214.46" y2="1601.65" gradientTransform="matrix(0.37, 0.46, -0.7, 0.79, 1894.8, -624.28)" gradientUnits="userSpaceOnUse"><stop offset="0" stop-color="#fff"/><stop offset="0.07" stop-color="#dfdfdf"/><stop offset="0.22" stop-color="#a5a5a5"/><stop offset="0.36" stop-color="#727272"/><stop offset="0.5" stop-color="#494949"/><stop offset="0.64" stop-color="#292929"/><stop offset="0.77" stop-color="#121212"/><stop offset="0.89" stop-color="#050505"/><stop offset="1"/></linearGradient><clipPath id="clip-path-6"><polygon class="cls-1" points="354.02 64.78 353.98 62.67 354.56 62.66 354.61 64.77 354.02 64.78"/></clipPath><clipPath id="clip-path-7"><polygon class="cls-1" points="354.61 64.77 354.56 62.66 353.98 62.67 354.02 64.78 354.61 64.77"/></clipPath><clipPath id="clip-path-10"><path class="cls-1" d="M354.34,62.66c.16,0,.27.54.24,1.12s-.19,1-.34,1-.26-.54-.23-1.13.18-1,.33-1"/></clipPath><linearGradient id="linear-gradient-36" x1="-1776.83" y1="2017.48" x2="-1775.84" y2="2017.48" gradientTransform="matrix(0.58, 0.13, -0.05, 1.05, 1486.65, -1823.44)" xlink:href="#linear-gradient-35"/><clipPath id="clip-path-11"><polygon class="cls-1" points="357.97 73.68 357.93 71.57 358.52 71.56 358.57 73.67 357.97 73.68"/></clipPath><clipPath id="clip-path-12"><polygon class="cls-1" points="358.57 73.67 358.52 71.56 357.93 71.57 357.97 73.68 358.57 73.67"/></clipPath><clipPath id="clip-path-15"><path class="cls-1" d="M358.3,71.56c.16,0,.27.54.24,1.13s-.19,1-.35,1-.26-.54-.23-1.12.18-1,.34-1"/></clipPath><linearGradient id="linear-gradient-37" x1="-1776.91" y1="2017.4" x2="-1775.92" y2="2017.4" gradientTransform="matrix(0.58, 0.13, -0.05, 1.05, 1490.65, -1814.44)" xlink:href="#linear-gradient-35"/><clipPath id="clip-path-16"><polygon class="cls-1" points="323.33 65.01 324.73 63.41 325.18 63.81 323.78 65.4 323.33 65.01"/></clipPath><clipPath id="clip-path-17"><polygon class="cls-1" points="323.78 65.4 325.18 63.81 324.73 63.41 323.33 65.01 323.78 65.4"/></clipPath><clipPath id="clip-path-20"><path class="cls-1" d="M325,63.66c.09.14-.18.58-.58,1s-.84.65-.93.5.18-.58.58-1,.84-.66.93-.51"/></clipPath><linearGradient id="linear-gradient-38" x1="-1628.06" y1="1903.89" x2="-1627.07" y2="1903.89" gradientTransform="matrix(0.34, 0.49, -0.75, 0.74, 2302.13, -556.43)" xlink:href="#linear-gradient-35"/><linearGradient id="linear-gradient-39" x1="-318.12" y1="-95.53" x2="-272.93" y2="-95.53" xlink:href="#linear-gradient"/><linearGradient id="linear-gradient-40" x1="-544.39" y1="345.48" x2="-497.84" y2="345.48" gradientTransform="matrix(-1, -0.09, 0.12, -1.31, 39.1, 536.77)" xlink:href="#linear-gradient"/><linearGradient id="linear-gradient-41" x1="-641.95" y1="28.63" x2="-624.71" y2="28.63" xlink:href="#linear-gradient-3"/><linearGradient id="linear-gradient-42" x1="-4044.71" y1="458.81" x2="-4030.9" y2="458.81" gradientTransform="matrix(0.51, -0.86, -0.64, -0.38, 3016.63, -3181.84)" xlink:href="#linear-gradient-3"/><linearGradient id="linear-gradient-43" x1="-210.99" y1="329.14" x2="-194.56" y2="300.67" xlink:href="#linear-gradient-5"/><linearGradient id="linear-gradient-44" x1="-403.07" y1="211.1" x2="-389.85" y2="188.2" gradientTransform="matrix(-1, -0.01, 0.01, -1, 232.66, 407.02)" xlink:href="#linear-gradient-5"/><linearGradient id="linear-gradient-45" x1="-301.56" y1="309.52" x2="-286.65" y2="283.68" gradientTransform="translate(282.18 500.78) rotate(-178.28)" xlink:href="#linear-gradient-7"/><linearGradient id="linear-gradient-46" x1="-490.96" y1="69.98" x2="-475.4" y2="43.05" xlink:href="#linear-gradient-8"/><linearGradient id="linear-gradient-47" x1="805.53" y1="900.51" x2="822.36" y2="900.51" gradientTransform="translate(869.73 -1275.33) rotate(41.53) scale(1 1.37)" xlink:href="#linear-gradient-3"/><linearGradient id="linear-gradient-48" x1="-712.99" y1="-21.55" x2="-695.75" y2="-21.55" xlink:href="#linear-gradient-3"/><linearGradient id="linear-gradient-49" x1="724.28" y1="1047.41" x2="737.58" y2="1047.41" gradientTransform="translate(669.82 -1360.31) rotate(29.89) scale(1 1.3)" xlink:href="#linear-gradient-3"/><linearGradient id="linear-gradient-50" x1="-501.32" y1="207.17" x2="-454.87" y2="207.17" xlink:href="#linear-gradient-12"/><linearGradient id="linear-gradient-51" x1="-461.58" y1="211.36" x2="-450.09" y2="211.36" xlink:href="#linear-gradient-13"/><linearGradient id="linear-gradient-52" x1="-473.06" y1="203.39" x2="-463.49" y2="203.39" xlink:href="#linear-gradient-14"/><linearGradient id="linear-gradient-53" x1="-498.61" y1="203.39" x2="-489.04" y2="203.39" xlink:href="#linear-gradient-14"/><linearGradient id="linear-gradient-54" x1="149.98" y1="-345.97" x2="153.97" y2="-345.02" gradientTransform="matrix(-0.2, 0.98, -1.01, -0.2, 396.33, -89.96)" xlink:href="#linear-gradient-3"/><linearGradient id="linear-gradient-55" x1="153.78" y1="-345.01" x2="157.76" y2="-344.05" gradientTransform="matrix(-0.2, 0.98, -1.01, -0.2, 396.33, -89.96)" xlink:href="#linear-gradient-3"/><linearGradient id="linear-gradient-56" x1="157.37" y1="-344.96" x2="161.34" y2="-344.01" gradientTransform="matrix(-0.2, 0.98, -1.01, -0.2, 396.33, -89.96)" xlink:href="#linear-gradient-3"/><linearGradient id="linear-gradient-57" x1="160.95" y1="-344.94" x2="164.94" y2="-343.98" gradientTransform="matrix(-0.2, 0.98, -1.01, -0.2, 396.33, -89.96)" xlink:href="#linear-gradient-3"/><linearGradient id="linear-gradient-58" x1="710.01" y1="1267.34" x2="713.74" y2="1268.23" gradientTransform="matrix(0.47, 0.88, -0.91, 0.48, 1528.76, -1108.55)" xlink:href="#linear-gradient-3"/><linearGradient id="linear-gradient-59" x1="292.02" y1="-430.44" x2="305.84" y2="-430.44" gradientTransform="matrix(-0.09, 1, -0.6, -0.06, 449.24, -193.85)" xlink:href="#linear-gradient-3"/><linearGradient id="linear-gradient-60" x1="-573.99" y1="84.72" x2="-561.13" y2="84.72" gradientTransform="translate(124.99 270.83) rotate(180)" xlink:href="#linear-gradient-3"/><linearGradient id="linear-gradient-61" x1="-532.45" y1="85.05" x2="-519.59" y2="85.05" gradientTransform="translate(124.99 270.83) rotate(180)" xlink:href="#linear-gradient-3"/><linearGradient id="linear-gradient-62" x1="-669.71" y1="-26.37" x2="-652.47" y2="-26.37" xlink:href="#linear-gradient-3"/><linearGradient id="linear-gradient-63" x1="-2965.49" y1="1571.34" x2="-2961.51" y2="1572.29" gradientTransform="matrix(0.16, 0.99, 1.02, -0.16, -492.1, 3312.92)" xlink:href="#linear-gradient-3"/><linearGradient id="linear-gradient-64" x1="-2961.89" y1="1571.36" x2="-2957.91" y2="1572.32" gradientTransform="matrix(0.16, 0.99, 1.02, -0.16, -492.1, 3312.92)" xlink:href="#linear-gradient-3"/><linearGradient id="linear-gradient-65" x1="-2958.3" y1="1571.39" x2="-2954.32" y2="1572.35" gradientTransform="matrix(0.16, 0.99, 1.02, -0.16, -492.1, 3312.92)" xlink:href="#linear-gradient-3"/><linearGradient id="linear-gradient-66" x1="-2954.73" y1="1571.49" x2="-2950.74" y2="1572.44" gradientTransform="matrix(0.16, 0.99, 1.02, -0.16, -492.1, 3312.92)" xlink:href="#linear-gradient-3"/><linearGradient id="linear-gradient-67" x1="-2956.29" y1="845.26" x2="-2952.55" y2="846.16" gradientTransform="matrix(-0.5, 0.87, 0.89, 0.52, -1580.73, 2248.7)" xlink:href="#linear-gradient-3"/><linearGradient id="linear-gradient-68" x1="-2998.06" y1="1854.05" x2="-2984.25" y2="1854.05" gradientTransform="matrix(0.06, 1, 0.51, -0.03, -98.2, 3181.37)" xlink:href="#linear-gradient-3"/><linearGradient id="linear-gradient-69" x1="-717.89" y1="-9.82" x2="-701.81" y2="-9.82" xlink:href="#linear-gradient-3"/><linearGradient id="linear-gradient-70" x1="169.06" y1="-432.86" x2="182.87" y2="-432.86" gradientTransform="matrix(-0.44, 0.9, -0.68, -0.34, 397.42, -190.72)" xlink:href="#linear-gradient-3"/><linearGradient id="linear-gradient-71" x1="-584.82" y1="-80.83" x2="-568.73" y2="-80.83" gradientTransform="translate(85.23 -13.65) rotate(-173.66)" xlink:href="#linear-gradient-3"/><linearGradient id="linear-gradient-72" x1="-592.09" y1="22.09" x2="-576.01" y2="22.09" xlink:href="#linear-gradient-3"/><clipPath id="clip-path-21"><polygon class="cls-1" points="585.63 74.49 586.92 72.81 587.39 73.17 586.09 74.85 585.63 74.49"/></clipPath><clipPath id="clip-path-22"><polygon class="cls-1" points="586.09 74.85 587.39 73.17 586.92 72.81 585.63 74.49 586.09 74.85"/></clipPath><clipPath id="clip-path-25"><path class="cls-1" d="M587.21,73c.1.12-.13.58-.52,1s-.79.69-.88.56.12-.58.51-1,.78-.69.89-.56"/></clipPath><linearGradient id="linear-gradient-73" x1="-872.55" y1="1400.16" x2="-871.56" y2="1400.16" xlink:href="#linear-gradient-35"/><clipPath id="clip-path-26"><polygon class="cls-1" points="621.94 63.34 621.9 61.22 622.48 61.21 622.53 63.33 621.94 63.34"/></clipPath><clipPath id="clip-path-27"><polygon class="cls-1" points="622.53 63.33 622.48 61.21 621.9 61.22 621.94 63.34 622.53 63.33"/></clipPath><clipPath id="clip-path-30"><path class="cls-1" d="M622.26,61.21c.16,0,.27.54.24,1.13s-.19,1-.34,1-.26-.54-.23-1.12.18-1,.33-1"/></clipPath><linearGradient id="linear-gradient-74" x1="-1319.89" y1="1959.53" x2="-1318.9" y2="1959.53" gradientTransform="matrix(0.58, 0.13, -0.05, 1.05, 1486.65, -1823.44)" xlink:href="#linear-gradient-35"/><clipPath id="clip-path-31"><polygon class="cls-1" points="625.89 72.24 625.85 70.12 626.44 70.11 626.49 72.23 625.89 72.24"/></clipPath><clipPath id="clip-path-32"><polygon class="cls-1" points="626.49 72.23 626.44 70.11 625.85 70.12 625.89 72.24 626.49 72.23"/></clipPath><clipPath id="clip-path-35"><path class="cls-1" d="M626.22,70.11c.16,0,.27.54.24,1.13s-.19,1-.35,1-.26-.55-.23-1.13.18-1,.34-1"/></clipPath><linearGradient id="linear-gradient-75" x1="-1319.97" y1="1959.44" x2="-1318.98" y2="1959.44" gradientTransform="matrix(0.58, 0.13, -0.05, 1.05, 1490.65, -1814.44)" xlink:href="#linear-gradient-35"/><clipPath id="clip-path-36"><polygon class="cls-1" points="628.58 81.86 628.99 79.77 629.57 79.89 629.17 81.97 628.58 81.86"/></clipPath><clipPath id="clip-path-37"><polygon class="cls-1" points="629.17 81.97 629.57 79.89 628.99 79.77 628.58 81.86 629.17 81.97"/></clipPath><clipPath id="clip-path-40"><path class="cls-1" d="M629.36,79.85c.14.07.13.59,0,1.15s-.4,1-.55.9-.14-.58,0-1.15.4-1,.55-.9"/></clipPath><linearGradient id="linear-gradient-76" x1="-1118.24" y1="1794.67" x2="-1117.25" y2="1794.67" gradientTransform="matrix(0.54, 0.25, -0.27, 1.02, 1717.75, -1470)" xlink:href="#linear-gradient-35"/><linearGradient id="linear-gradient-77" x1="199.95" y1="57.6" x2="245.14" y2="57.6" xlink:href="#linear-gradient"/><linearGradient id="linear-gradient-78" x1="-10.63" y1="309.74" x2="35.92" y2="309.74" gradientTransform="matrix(-1, -0.09, 0.12, -1.31, 39.1, 536.77)" xlink:href="#linear-gradient"/><linearGradient id="linear-gradient-79" x1="-107.33" y1="-31.07" x2="-90.09" y2="-31.07" xlink:href="#linear-gradient-3"/><linearGradient id="linear-gradient-80" x1="-4318.58" y1="1077.83" x2="-4304.76" y2="1077.83" gradientTransform="matrix(0.51, -0.86, -0.64, -0.38, 3016.63, -3181.84)" xlink:href="#linear-gradient-3"/><linearGradient id="linear-gradient-81" x1="261.02" y1="435.72" x2="277.44" y2="407.25" xlink:href="#linear-gradient-5"/><linearGradient id="linear-gradient-82" x1="130.12" y1="264.09" x2="143.33" y2="241.19" gradientTransform="translate(229.48 465.63) rotate(-179.43)" xlink:href="#linear-gradient-5"/><linearGradient id="linear-gradient-83" x1="227.6" y1="392.29" x2="242.52" y2="366.45" gradientTransform="translate(273.02 599.72) rotate(-178.28)" xlink:href="#linear-gradient-7"/><linearGradient id="linear-gradient-84" x1="44.88" y1="69.68" x2="60.44" y2="42.75" xlink:href="#linear-gradient-8"/><linearGradient id="linear-gradient-85" x1="404.59" y1="1159.99" x2="421.42" y2="1159.99" gradientTransform="translate(869.73 -1275.33) rotate(41.53) scale(1 1.37)" xlink:href="#linear-gradient-3"/><linearGradient id="linear-gradient-86" x1="-178.37" y1="-81.25" x2="-161.13" y2="-81.25" xlink:href="#linear-gradient-3"/><linearGradient id="linear-gradient-87" x1="261.44" y1="1252.29" x2="274.74" y2="1252.29" gradientTransform="translate(669.82 -1360.31) rotate(29.89) scale(1 1.3)" xlink:href="#linear-gradient-3"/><linearGradient id="linear-gradient-88" x1="34.05" y1="206.09" x2="80" y2="206.09" xlink:href="#linear-gradient-12"/><linearGradient id="linear-gradient-89" x1="74.26" y1="211.07" x2="85.75" y2="211.07" xlink:href="#linear-gradient-13"/><linearGradient id="linear-gradient-90" x1="62.78" y1="203.09" x2="72.35" y2="203.09" xlink:href="#linear-gradient-14"/><linearGradient id="linear-gradient-91" x1="37.23" y1="203.09" x2="46.8" y2="203.09" xlink:href="#linear-gradient-14"/><linearGradient id="linear-gradient-92" x1="254.34" y1="163.9" x2="258.33" y2="164.85" gradientTransform="matrix(-0.2, 0.98, -1.01, -0.2, 396.33, -89.96)" xlink:href="#linear-gradient-3"/><linearGradient id="linear-gradient-93" x1="258.14" y1="164.86" x2="262.11" y2="165.82" gradientTransform="matrix(-0.2, 0.98, -1.01, -0.2, 396.33, -89.96)" xlink:href="#linear-gradient-3"/><linearGradient id="linear-gradient-94" x1="261.73" y1="164.91" x2="265.7" y2="165.85" gradientTransform="matrix(-0.2, 0.98, -1.01, -0.2, 396.33, -89.96)" xlink:href="#linear-gradient-3"/><linearGradient id="linear-gradient-95" x1="265.31" y1="164.93" x2="269.3" y2="165.89" gradientTransform="matrix(-0.2, 0.98, -1.01, -0.2, 396.33, -89.96)" xlink:href="#linear-gradient-3"/><linearGradient id="linear-gradient-96" x1="459.68" y1="1726.89" x2="463.41" y2="1727.78" gradientTransform="matrix(0.47, 0.88, -0.91, 0.48, 1528.76, -1108.55)" xlink:href="#linear-gradient-3"/><linearGradient id="linear-gradient-97" x1="345.42" y1="454.61" x2="359.24" y2="454.61" gradientTransform="matrix(-0.09, 1, -0.6, -0.06, 449.24, -193.85)" xlink:href="#linear-gradient-3"/><linearGradient id="linear-gradient-98" x1="-38.15" y1="84.43" x2="-25.29" y2="84.43" gradientTransform="translate(124.99 270.83) rotate(180)" xlink:href="#linear-gradient-3"/><linearGradient id="linear-gradient-99" x1="3.39" y1="84.75" x2="16.25" y2="84.75" gradientTransform="translate(124.99 270.83) rotate(180)" xlink:href="#linear-gradient-3"/><linearGradient id="linear-gradient-100" x1="-135.1" y1="-86.08" x2="-117.86" y2="-86.08" xlink:href="#linear-gradient-3"/><linearGradient id="linear-gradient-101" x1="-3048" y1="1058.95" x2="-3044.02" y2="1059.9" gradientTransform="matrix(0.16, 0.99, 1.02, -0.16, -492.1, 3312.92)" xlink:href="#linear-gradient-3"/><linearGradient id="linear-gradient-102" x1="-3044.4" y1="1058.97" x2="-3040.42" y2="1059.93" gradientTransform="matrix(0.16, 0.99, 1.02, -0.16, -492.1, 3312.92)" xlink:href="#linear-gradient-3"/><linearGradient id="linear-gradient-103" x1="-3040.81" y1="1059" x2="-3036.83" y2="1059.96" gradientTransform="matrix(0.16, 0.99, 1.02, -0.16, -492.1, 3312.92)" xlink:href="#linear-gradient-3"/><linearGradient id="linear-gradient-104" x1="-3037.24" y1="1059.1" x2="-3033.25" y2="1060.05" gradientTransform="matrix(0.16, 0.99, 1.02, -0.16, -492.1, 3312.92)" xlink:href="#linear-gradient-3"/><linearGradient id="linear-gradient-105" x1="-2686.64" y1="394.68" x2="-2682.9" y2="395.58" gradientTransform="matrix(-0.5, 0.87, 0.89, 0.52, -1580.73, 2248.7)" xlink:href="#linear-gradient-3"/><linearGradient id="linear-gradient-106" x1="-3029.18" y1="807.05" x2="-3015.36" y2="807.05" gradientTransform="matrix(0.06, 1, 0.51, -0.03, -98.2, 3181.37)" xlink:href="#linear-gradient-3"/><linearGradient id="linear-gradient-107" x1="-183.27" y1="-69.53" x2="-167.19" y2="-69.53" xlink:href="#linear-gradient-3"/><linearGradient id="linear-gradient-108" x1="408.54" y1="200.18" x2="422.35" y2="200.18" gradientTransform="matrix(-0.44, 0.9, -0.68, -0.34, 397.42, -190.72)" xlink:href="#linear-gradient-3"/><linearGradient id="linear-gradient-109" x1="-47.09" y1="-65.64" x2="-31" y2="-65.64" gradientTransform="translate(80.07 60.84) rotate(-173.66)" xlink:href="#linear-gradient-3"/><linearGradient id="linear-gradient-110" x1="-57.47" y1="-37.62" x2="-41.39" y2="-37.62" xlink:href="#linear-gradient-3"/><clipPath id="clip-path-41"><polygon class="cls-1" points="54.8 63.55 56.1 61.87 56.56 62.23 55.27 63.91 54.8 63.55"/></clipPath><clipPath id="clip-path-42"><polygon class="cls-1" points="55.27 63.91 56.56 62.23 56.1 61.87 54.8 63.55 55.27 63.91"/></clipPath><clipPath id="clip-path-45"><path class="cls-1" d="M56.39,62.1c.1.12-.13.58-.53,1s-.78.69-.88.56.13-.58.52-1,.78-.69.89-.56"/></clipPath><linearGradient id="linear-gradient-111" x1="-1567.66" y1="1791.06" x2="-1566.67" y2="1791.06" xlink:href="#linear-gradient-35"/><clipPath id="clip-path-46"><polygon class="cls-1" points="86.1 63.63 86.06 61.52 86.64 61.51 86.69 63.62 86.1 63.63"/></clipPath><clipPath id="clip-path-47"><polygon class="cls-1" points="86.69 63.62 86.64 61.51 86.06 61.52 86.1 63.63 86.69 63.62"/></clipPath><clipPath id="clip-path-50"><path class="cls-1" d="M86.42,61.51c.16,0,.27.54.24,1.12s-.19,1-.35,1-.25-.54-.22-1.13.18-1,.33-1"/></clipPath><linearGradient id="linear-gradient-112" x1="-2233.97" y1="2072.98" x2="-2232.98" y2="2072.98" gradientTransform="matrix(0.58, 0.13, -0.05, 1.05, 1486.65, -1823.44)" xlink:href="#linear-gradient-35"/><linearGradient id="linear-gradient-113" x1="-576.63" y1="-174.13" x2="-531.44" y2="-174.13" xlink:href="#linear-gradient"/><linearGradient id="linear-gradient-114" x1="-811.36" y1="361.96" x2="-764.81" y2="361.96" gradientTransform="matrix(-1, -0.09, 0.12, -1.31, 39.1, 536.77)" xlink:href="#linear-gradient"/><linearGradient id="linear-gradient-115" x1="-909.39" y1="56.63" x2="-892.15" y2="56.63" xlink:href="#linear-gradient-3"/><linearGradient id="linear-gradient-116" x1="-3909.41" y1="148.12" x2="-3895.59" y2="148.12" gradientTransform="matrix(0.51, -0.86, -0.64, -0.38, 3016.63, -3181.84)" xlink:href="#linear-gradient-3"/><linearGradient id="linear-gradient-117" x1="-446.3" y1="274.91" x2="-429.87" y2="246.44" xlink:href="#linear-gradient-5"/><linearGradient id="linear-gradient-118" x1="-669.41" y1="182.77" x2="-656.19" y2="159.87" gradientTransform="matrix(-1, -0.01, 0.01, -1, 234.46, 377.73)" xlink:href="#linear-gradient-5"/><linearGradient id="linear-gradient-119" x1="-565.79" y1="266.32" x2="-550.87" y2="240.48" gradientTransform="translate(287.1 451.35) rotate(-178.28)" xlink:href="#linear-gradient-7"/><linearGradient id="linear-gradient-120" x1="-758.8" y1="68.28" x2="-743.25" y2="41.35" xlink:href="#linear-gradient-8"/><linearGradient id="linear-gradient-121" x1="1007.17" y1="771.81" x2="1024" y2="771.81" gradientTransform="translate(869.73 -1275.33) rotate(41.53) scale(1 1.37)" xlink:href="#linear-gradient-3"/><linearGradient id="linear-gradient-122" x1="-980.43" y1="6.45" x2="-963.19" y2="6.45" xlink:href="#linear-gradient-3"/><linearGradient id="linear-gradient-123" x1="956.56" y1="946.23" x2="969.85" y2="946.23" gradientTransform="translate(669.82 -1360.31) rotate(29.89) scale(1 1.3)" xlink:href="#linear-gradient-3"/><linearGradient id="linear-gradient-124" x1="-769.64" y1="204.69" x2="-723.69" y2="204.69" xlink:href="#linear-gradient-12"/><linearGradient id="linear-gradient-125" x1="-729.43" y1="209.66" x2="-717.93" y2="209.66" xlink:href="#linear-gradient-13"/><linearGradient id="linear-gradient-126" x1="-740.91" y1="201.69" x2="-731.34" y2="201.69" xlink:href="#linear-gradient-14"/><linearGradient id="linear-gradient-127" x1="-766.46" y1="201.69" x2="-756.89" y2="201.69" xlink:href="#linear-gradient-14"/><linearGradient id="linear-gradient-128" x1="99.63" y1="-601.2" x2="103.62" y2="-600.25" gradientTransform="matrix(-0.2, 0.98, -1.01, -0.2, 396.33, -89.96)" xlink:href="#linear-gradient-3"/><linearGradient id="linear-gradient-129" x1="103.43" y1="-600.24" x2="107.4" y2="-599.28" gradientTransform="matrix(-0.2, 0.98, -1.01, -0.2, 396.33, -89.96)" xlink:href="#linear-gradient-3"/><linearGradient id="linear-gradient-130" x1="107.02" y1="-600.19" x2="110.99" y2="-599.24" gradientTransform="matrix(-0.2, 0.98, -1.01, -0.2, 396.33, -89.96)" xlink:href="#linear-gradient-3"/><linearGradient id="linear-gradient-131" x1="110.6" y1="-600.17" x2="114.59" y2="-599.21" gradientTransform="matrix(-0.2, 0.98, -1.01, -0.2, 396.33, -89.96)" xlink:href="#linear-gradient-3"/><linearGradient id="linear-gradient-132" x1="836.78" y1="1038.48" x2="840.51" y2="1039.37" gradientTransform="matrix(0.47, 0.88, -0.91, 0.48, 1528.76, -1108.55)" xlink:href="#linear-gradient-3"/><linearGradient id="linear-gradient-133" x1="267.16" y1="-873.13" x2="280.98" y2="-873.13" gradientTransform="matrix(-0.09, 1, -0.6, -0.06, 449.24, -193.85)" xlink:href="#linear-gradient-3"/><linearGradient id="linear-gradient-134" x1="-841.84" y1="83.02" x2="-828.98" y2="83.02" gradientTransform="translate(124.99 270.83) rotate(180)" xlink:href="#linear-gradient-3"/><linearGradient id="linear-gradient-135" x1="-800.29" y1="83.35" x2="-787.44" y2="83.35" gradientTransform="translate(124.99 270.83) rotate(180)" xlink:href="#linear-gradient-3"/><linearGradient id="linear-gradient-136" x1="-937.16" y1="1.62" x2="-919.92" y2="1.62" xlink:href="#linear-gradient-3"/><linearGradient id="linear-gradient-137" x1="-2922.42" y1="1827.18" x2="-2918.44" y2="1828.13" gradientTransform="matrix(0.16, 0.99, 1.02, -0.16, -492.1, 3312.92)" xlink:href="#linear-gradient-3"/><linearGradient id="linear-gradient-138" x1="-2918.82" y1="1827.2" x2="-2914.85" y2="1828.16" gradientTransform="matrix(0.16, 0.99, 1.02, -0.16, -492.1, 3312.92)" xlink:href="#linear-gradient-3"/><linearGradient id="linear-gradient-139" x1="-2915.23" y1="1827.23" x2="-2911.25" y2="1828.19" gradientTransform="matrix(0.16, 0.99, 1.02, -0.16, -492.1, 3312.92)" xlink:href="#linear-gradient-3"/><linearGradient id="linear-gradient-140" x1="-2911.66" y1="1827.33" x2="-2907.68" y2="1828.28" gradientTransform="matrix(0.16, 0.99, 1.02, -0.16, -492.1, 3312.92)" xlink:href="#linear-gradient-3"/><linearGradient id="linear-gradient-141" x1="-3089.49" y1="1071.38" x2="-3085.75" y2="1072.28" gradientTransform="matrix(-0.5, 0.87, 0.89, 0.52, -1580.73, 2248.7)" xlink:href="#linear-gradient-3"/><linearGradient id="linear-gradient-142" x1="-2980.67" y1="2377.2" x2="-2966.85" y2="2377.2" gradientTransform="matrix(0.06, 1, 0.51, -0.03, -98.2, 3181.37)" xlink:href="#linear-gradient-3"/><linearGradient id="linear-gradient-143" x1="-985.34" y1="18.17" x2="-969.25" y2="18.17" xlink:href="#linear-gradient-3"/><linearGradient id="linear-gradient-144" x1="51" y1="-750.36" x2="64.82" y2="-750.36" gradientTransform="matrix(-0.44, 0.9, -0.68, -0.34, 397.42, -190.72)" xlink:href="#linear-gradient-3"/><linearGradient id="linear-gradient-145" x1="-853.55" y1="-90.27" x2="-837.47" y2="-90.27" gradientTransform="translate(88.07 -50.86) rotate(-173.66)" xlink:href="#linear-gradient-3"/><linearGradient id="linear-gradient-146" x1="-859.53" y1="50.08" x2="-843.45" y2="50.08" xlink:href="#linear-gradient-3"/><clipPath id="clip-path-51"><polygon class="cls-1" points="853.48 76.19 854.77 74.51 855.24 74.87 853.94 76.55 853.48 76.19"/></clipPath><clipPath id="clip-path-52"><polygon class="cls-1" points="853.94 76.55 855.24 74.87 854.77 74.51 853.48 76.19 853.94 76.55"/></clipPath><clipPath id="clip-path-55"><path class="cls-1" d="M855.06,74.74c.1.12-.13.58-.53,1s-.78.69-.88.56.13-.58.52-1,.78-.69.89-.56"/></clipPath><linearGradient id="linear-gradient-147" x1="-526.15" y1="1200.61" x2="-525.16" y2="1200.61" xlink:href="#linear-gradient-35"/><clipPath id="clip-path-56"><polygon class="cls-1" points="889.79 65.04 889.75 62.92 890.33 62.91 890.38 65.03 889.79 65.04"/></clipPath><clipPath id="clip-path-57"><polygon class="cls-1" points="890.38 65.03 890.33 62.91 889.75 62.92 889.79 65.04 890.38 65.03"/></clipPath><clipPath id="clip-path-60"><path class="cls-1" d="M890.11,62.91c.16,0,.27.54.24,1.13s-.19,1-.35,1-.25-.55-.22-1.13.17-1,.33-1"/></clipPath><linearGradient id="linear-gradient-148" x1="-862.82" y1="1904.56" x2="-861.83" y2="1904.56" gradientTransform="matrix(0.58, 0.13, -0.05, 1.05, 1486.65, -1823.44)" xlink:href="#linear-gradient-35"/><clipPath id="clip-path-61"><polygon class="cls-1" points="893.74 73.94 893.7 71.82 894.29 71.81 894.34 73.93 893.74 73.94"/></clipPath><clipPath id="clip-path-62"><polygon class="cls-1" points="894.34 73.93 894.29 71.81 893.7 71.82 893.74 73.94 894.34 73.93"/></clipPath><clipPath id="clip-path-65"><path class="cls-1" d="M894.07,71.81c.16,0,.27.54.24,1.13s-.19,1-.35,1-.26-.55-.23-1.13.18-1,.34-1"/></clipPath><linearGradient id="linear-gradient-149" x1="-862.91" y1="1904.47" x2="-861.92" y2="1904.47" gradientTransform="matrix(0.58, 0.13, -0.05, 1.05, 1490.65, -1814.44)" xlink:href="#linear-gradient-35"/><clipPath id="clip-path-66"><polygon class="cls-1" points="896.43 83.56 896.84 81.47 897.42 81.59 897.02 83.67 896.43 83.56"/></clipPath><clipPath id="clip-path-67"><polygon class="cls-1" points="897.02 83.67 897.42 81.59 896.84 81.47 896.43 83.56 897.02 83.67"/></clipPath><clipPath id="clip-path-70"><path class="cls-1" d="M897.2,81.55c.15.07.14.59,0,1.15s-.39,1-.54.9-.14-.58,0-1.15.4-1,.54-.9"/></clipPath><linearGradient id="linear-gradient-150" x1="-675.63" y1="1687.85" x2="-674.64" y2="1687.85" gradientTransform="matrix(0.54, 0.25, -0.27, 1.02, 1717.75, -1470)" xlink:href="#linear-gradient-35"/><linearGradient id="linear-gradient-151" x1="343.87" y1="53.57" x2="352.76" y2="53.57" gradientTransform="matrix(1, 0, 0, 1, 0, 0)" xlink:href="#linear-gradient-12"/><linearGradient id="linear-gradient-152" x1="324.82" y1="54.1" x2="333.7" y2="54.1" gradientTransform="matrix(1, 0, 0, 1, 0, 0)" xlink:href="#linear-gradient-12"/><clipPath id="clip-path-71"><polygon class="cls-1" points="592.65 65.28 593.62 63.39 594.14 63.66 593.17 65.55 592.65 65.28"/></clipPath><clipPath id="clip-path-72"><polygon class="cls-1" points="593.17 65.55 594.14 63.66 593.62 63.39 592.65 65.28 593.17 65.55"/></clipPath><clipPath id="clip-path-75"><path class="cls-1" d="M593.94,63.57c.12.09,0,.59-.33,1.06s-.65.83-.77.72,0-.6.33-1.07.64-.82.77-.71"/></clipPath><linearGradient id="linear-gradient-153" x1="-874.39" y1="1389.57" x2="-873.4" y2="1389.57" gradientTransform="matrix(0.45, 0.38, -0.54, 0.91, 1746.22, -851.85)" xlink:href="#linear-gradient-35"/><clipPath id="clip-path-76"><polygon class="cls-1" points="581.91 84.22 582.31 82.13 582.9 82.25 582.49 84.33 581.91 84.22"/></clipPath><clipPath id="clip-path-77"><polygon class="cls-1" points="582.49 84.33 582.9 82.25 582.31 82.13 581.91 84.22 582.49 84.33"/></clipPath><clipPath id="clip-path-80"><path class="cls-1" d="M582.68,82.21c.15.07.14.58,0,1.15s-.4,1-.55.9-.13-.59,0-1.15.4-1,.55-.9"/></clipPath><linearGradient id="linear-gradient-154" x1="-1194.21" y1="1815.6" x2="-1193.22" y2="1815.6" gradientTransform="matrix(0.54, 0.25, -0.27, 1.02, 1717.75, -1470)" xlink:href="#linear-gradient-35"/><linearGradient id="linear-gradient-155" x1="880" y1="73.59" x2="888.4" y2="73.59" gradientTransform="matrix(1, 0, 0, -1, 0, 132.97)" xlink:href="#linear-gradient-12"/><linearGradient id="linear-gradient-156" x1="860.83" y1="73.59" x2="869.23" y2="73.59" gradientTransform="matrix(1, 0, 0, -1, 0, 132.97)" xlink:href="#linear-gradient-12"/><clipPath id="clip-path-81"><polygon class="cls-1" points="858.72 64.63 859.92 62.88 860.41 63.22 859.21 64.96 858.72 64.63"/></clipPath><clipPath id="clip-path-82"><polygon class="cls-1" points="859.21 64.96 860.41 63.22 859.92 62.88 858.72 64.63 859.21 64.96"/></clipPath><clipPath id="clip-path-85"><path class="cls-1" d="M860.22,63.09c.11.13-.1.59-.45,1.06s-.76.75-.86.61.11-.59.46-1.06.75-.75.85-.61"/></clipPath><linearGradient id="linear-gradient-157" x1="-745.2" y1="1686.93" x2="-744.21" y2="1686.93" gradientTransform="matrix(0.4, 0.44, -0.65, 0.83, 2255.65, -1004.37)" xlink:href="#linear-gradient-35"/><clipPath id="clip-path-86"><polygon class="cls-1" points="850.52 84.95 851.72 83.2 852.21 83.54 851.01 85.28 850.52 84.95"/></clipPath><clipPath id="clip-path-87"><polygon class="cls-1" points="851.01 85.28 852.21 83.54 851.72 83.2 850.52 84.95 851.01 85.28"/></clipPath><clipPath id="clip-path-90"><path class="cls-1" d="M852,83.42c.11.12-.1.59-.45,1s-.76.75-.86.61.1-.59.46-1,.75-.75.85-.61"/></clipPath><linearGradient id="linear-gradient-158" x1="-734.76" y1="1705.85" x2="-733.77" y2="1705.85" gradientTransform="matrix(0.4, 0.44, -0.65, 0.83, 2255.65, -1004.37)" xlink:href="#linear-gradient-35"/><clipPath id="clip-path-91"><polygon class="cls-1" points="849.19 93.32 850.39 91.56 850.88 91.91 849.68 93.65 849.19 93.32"/></clipPath><clipPath id="clip-path-92"><polygon class="cls-1" points="849.68 93.65 850.88 91.91 850.39 91.56 849.19 93.32 849.68 93.65"/></clipPath><clipPath id="clip-path-95"><path class="cls-1" d="M850.69,91.78c.11.13-.1.59-.45,1.06s-.76.75-.86.61.1-.59.45-1.06.76-.75.86-.61"/></clipPath><linearGradient id="linear-gradient-159" x1="-727.72" y1="1712.17" x2="-726.73" y2="1712.17" gradientTransform="matrix(0.4, 0.44, -0.65, 0.83, 2255.65, -1004.37)" xlink:href="#linear-gradient-35"/><clipPath id="clip-path-96"><polygon class="cls-1" points="898.96 92.64 899.61 90.61 900.17 90.8 899.53 92.81 898.96 92.64"/></clipPath><clipPath id="clip-path-97"><polygon class="cls-1" points="899.53 92.81 900.17 90.8 899.61 90.61 898.96 92.64 899.53 92.81"/></clipPath><clipPath id="clip-path-100"><path class="cls-1" d="M900,90.73c.14.09.07.6-.13,1.14s-.51.94-.65.83-.07-.59.14-1.14.51-.93.64-.83"/></clipPath><linearGradient id="linear-gradient-160" x1="-662.49" y1="1675.92" x2="-661.5" y2="1675.92" gradientTransform="matrix(0.51, 0.31, -0.39, 0.98, 1885.08, -1346.58)" xlink:href="#linear-gradient-35"/></defs><title>pige_grædende_animation</title><path class="cls-2" d="M357.54,211.81,327,219.2a6.56,6.56,0,0,1-7.95-4.4l-14.93-54.44a6.11,6.11,0,0,1,4.69-7.47l30.51-7.39a6.57,6.57,0,0,1,7.95,4.41l14.93,54.44A6.1,6.1,0,0,1,357.54,211.81Z"/><path class="cls-3" d="M340.72,167.8l-28.23-2.25c-4.88-.39-8.48-4.29-8.05-8.71l5.64-58.28c.43-4.43,4.73-7.7,9.6-7.31l28.23,2.25c4.87.39,8.48,4.29,8,8.72l-5.64,58.28C349.89,164.92,345.59,168.19,340.72,167.8Z"/><ellipse class="cls-4" cx="360.45" cy="95.41" rx="8.62" ry="8.97"/><path class="cls-5" d="M432.93,141h0c-1.79,3.06-5.18,4.39-7.53,3l-66.27-40.42c-2.35-1.43-2.82-5.11-1-8.17h0c1.79-3.06,5.18-4.39,7.53-3l66.27,40.41C434.26,134.28,434.72,138,432.93,141Z"/><path class="cls-6" d="M343.17,222.15h26.7c0,11.31-12.06,20.62-26.7,20.62s-26.71-9.31-26.71-20.62v-.36Z"/><polygon class="cls-7" points="365.03 202.51 322.08 218.32 313.06 195.79 356 179.98 365.03 202.51"/><ellipse class="cls-8" cx="363.47" cy="212.32" rx="16.28" ry="11.95" transform="translate(-21.04 41.03) rotate(-6.28)"/><ellipse class="cls-9" cx="317.19" cy="214.56" rx="17.25" ry="13.94" transform="translate(-34.16 62.25) rotate(-10.64)"/><ellipse class="cls-10" cx="341.47" cy="213.95" rx="17.23" ry="14.95"/><path class="cls-11" d="M428.75,145.51h0a7,7,0,0,1,.52,9.26L366.09,232.6a5.67,5.67,0,0,1-8.49.56h0a7,7,0,0,1-.51-9.27l63.17-77.82A5.66,5.66,0,0,1,428.75,145.51Z"/><ellipse class="cls-12" cx="425.73" cy="152.96" rx="8.62" ry="8.97"/><path class="cls-13" d="M381.5,146.77h0a6.21,6.21,0,0,1,2.15,8.28l-43.24,78.4a5.69,5.69,0,0,1-7.94,2.23h0a6.2,6.2,0,0,1-2.15-8.28L373.56,149A5.68,5.68,0,0,1,381.5,146.77Z"/><path class="cls-14" d="M336.54,99.93h0a23,23,0,0,1-23-23V53.16a23,23,0,0,1,23-23h0a23,23,0,0,1,23,23V77A23,23,0,0,1,336.54,99.93Z"/><ellipse cx="329.26" cy="56.57" rx="4.22" ry="4.4"/><ellipse cx="348.41" cy="56.57" rx="4.22" ry="4.4"/><ellipse class="cls-15" cx="313.55" cy="60.08" rx="5.75" ry="5.97"/><ellipse class="cls-16" cx="313.55" cy="60.08" rx="3.83" ry="3.99"/><ellipse class="cls-17" cx="313.55" cy="66.06" rx="1.92" ry="1.99"/><ellipse class="cls-18" cx="331.18" cy="56.57" rx="1.63" ry="1.7"/><ellipse class="cls-18" cx="350.33" cy="56.57" rx="1.63" ry="1.7"/><ellipse class="cls-19" cx="326" cy="68.06" rx="4.79" ry="3.99"/><ellipse class="cls-20" cx="350.89" cy="68.06" rx="4.79" ry="3.99"/><path d="M326.53,52.07h0a1,1,0,0,0,.81-1.13v0l-.28-2.11A1,1,0,0,0,326,48h0a1,1,0,0,0-.81,1.13l.28,2.1A1,1,0,0,0,326.53,52.07Z"/><path d="M324.29,53.29h0a1,1,0,0,0,0-1.39l-1.63-1.83a.93.93,0,0,0-1.31-.1s0,0,0,0h0a1,1,0,0,0,0,1.4h0L323,53.26A1,1,0,0,0,324.29,53.29Z"/><path d="M322.84,56.6h0a1,1,0,0,0-.43-1.33h0l-2.17-1.09a1,1,0,0,0-1.28.46h0A1,1,0,0,0,319.4,56l2.16,1.1A1,1,0,0,0,322.84,56.6Z"/><path d="M352,53.33h0a.93.93,0,0,0,1.31-.06l0,0L355,51.35a1,1,0,0,0,0-1.4l0,0h0a1,1,0,0,0-1.36.08l-1.58,1.89A1.05,1.05,0,0,0,352,53.33Z"/><path d="M353.37,56.48h0a1,1,0,0,0,1.25.55l2.23-1a1,1,0,0,0,.56-1.28h0a1,1,0,0,0-1.26-.53l-2.21,1A1,1,0,0,0,353.37,56.48Z"/><path class="cls-21" d="M339.4,63.09l-.07,5h.07a5,5,0,1,0,0-10Z"/><polygon class="cls-22" points="295.6 66.36 288.99 66.15 282.39 65.92 285.51 72.19 288.64 78.47 292.12 72.42 295.6 66.36"/><ellipse class="cls-22" cx="326.5" cy="37.72" rx="16.37" ry="6.82" transform="translate(50.04 215.48) rotate(-39.33)"/><ellipse class="cls-22" cx="349.66" cy="37.72" rx="6.81" ry="16.42" transform="translate(90.01 274.93) rotate(-48.57)"/><ellipse class="cls-22" cx="313.73" cy="31.88" rx="4.81" ry="5.22" transform="translate(272.67 344.54) rotate(-88.32)"/><ellipse class="cls-22" cx="300.59" cy="36.4" rx="4.81" ry="5.22" transform="translate(255.38 335.79) rotate(-88.32)"/><ellipse class="cls-22" cx="292.57" cy="45.87" rx="4.81" ry="5.22" transform="translate(238.15 336.97) rotate(-88.32)"/><ellipse class="cls-22" cx="289.72" cy="57.83" rx="4.81" ry="5.22" transform="translate(223.43 345.73) rotate(-88.32)"/><ellipse class="cls-22" cx="360.04" cy="30.23" rx="4.45" ry="4.52" transform="translate(20.55 153.87) rotate(-24.81)"/><ellipse class="cls-22" cx="371.8" cy="32.9" rx="4.45" ry="4.52" transform="translate(20.51 159.05) rotate(-24.81)"/><ellipse class="cls-22" cx="379.91" cy="40.73" rx="4.45" ry="4.52" transform="translate(17.97 163.17) rotate(-24.81)"/><ellipse class="cls-22" cx="383.99" cy="51.5" rx="4.45" ry="4.52" transform="translate(13.83 165.88) rotate(-24.81)"/><polygon class="cls-22" points="390.51 57.12 384.08 57.95 377.63 58.78 381.62 64 385.63 69.22 388.07 63.17 390.51 57.12"/><path class="cls-23" d="M452.12,131.62h0a.91.91,0,0,0-.73-1.05h0l-9.45-1.77a1,1,0,0,0-1.1.71h0a.89.89,0,0,0,.7,1h0l9.46,1.77A1,1,0,0,0,452.12,131.62Z"/><path class="cls-24" d="M450.39,135.13h0a.9.9,0,0,0-.71-1h0l-9.45-1.77a1,1,0,0,0-1.1.71h0a.9.9,0,0,0,.72,1h0l9.46,1.77A1,1,0,0,0,450.39,135.13Z"/><path class="cls-25" d="M449.62,138.64h0a.87.87,0,0,0-.68-1h0l-9.45-1.77a1,1,0,0,0-1.1.7h0a.9.9,0,0,0,.7,1h0l9.45,1.77A.92.92,0,0,0,449.62,138.64Z"/><path class="cls-26" d="M448.87,142.15h0a.87.87,0,0,0-.68-1h0l-9.45-1.77a1,1,0,0,0-1.09.7h0a.87.87,0,0,0,.68,1h0l9.45,1.77A.92.92,0,0,0,448.87,142.15Z"/><path class="cls-27" d="M446.83,125.24h0a1,1,0,0,0-1.25-.37L437,129.25a.88.88,0,0,0-.41,1.18l0,0h0a1,1,0,0,0,1.25.36l8.57-4.38A.88.88,0,0,0,446.83,125.24Z"/><path class="cls-28" d="M447.74,135.31h0c.36-3.54-1.15-6.56-3.36-6.74l-62.13-4.95c-2.21-.17-4.31,2.57-4.65,6.09h0c-.36,3.53,1.15,6.55,3.36,6.73l62.14,4.95C445.3,141.58,447.42,138.83,447.74,135.31Z"/><path class="cls-29" d="M424.63,229.31h0a6.43,6.43,0,0,1-6.43-6.43V152.23a6.43,6.43,0,0,1,6.43-6.43h0a6.43,6.43,0,0,1,6.43,6.43v70.65A6.43,6.43,0,0,1,424.63,229.31Z"/><rect class="cls-30" x="421.17" y="224.9" width="8.77" height="14.46" rx="1.05"/><rect class="cls-31" x="421.17" y="227.67" width="8.77" height="3.57"/><path class="cls-32" d="M422.37,250.82l10.61.23v-.23c0-7.91-4.79-14.33-10.61-14.33s-10.56,6.47-10.56,14.33Z"/><path class="cls-33" d="M437.22,250.85l19.08.27v-.27c0-8.8-8.61-16-19.08-16s-19.09,7.24-19.09,16Z"/><rect class="cls-34" x="411.78" y="250.81" width="44.52" height="2.05"/><path class="cls-35" d="M435.09,223.28v.37c0,2.23-2.13,4-4.76,4h-9.54c-2.64,0-4.78-1.79-4.78-4v-.37c0-2.22,2.14-4,4.78-4h9.54C433,219.26,435.09,221,435.09,223.28Z"/><path class="cls-36" d="M387.64,227.67h-9.1a1.85,1.85,0,0,1-1.88-1.82V148.61a1.85,1.85,0,0,1,1.88-1.82h9.1a1.85,1.85,0,0,1,1.88,1.82v77.24A1.86,1.86,0,0,1,387.64,227.67Z"/><rect class="cls-30" x="379.63" y="225.89" width="8.77" height="14.46" rx="1.05"/><rect class="cls-31" x="379.63" y="228.66" width="8.77" height="3.57"/><path class="cls-32" d="M380.83,251.81l10.61.23v-.23c0-7.91-4.79-14.33-10.61-14.33s-10.56,6.47-10.56,14.33Z"/><path class="cls-33" d="M395.68,251.84l19.08.27v-.27c0-8.8-8.62-16-19.08-16s-19.09,7.24-19.09,16Z"/><rect class="cls-34" x="370.24" y="251.8" width="44.52" height="2.05"/><path class="cls-35" d="M393.55,224.26v.38c0,2.23-2.13,4-4.77,4h-9.53c-2.64,0-4.78-1.79-4.78-4v-.38c0-2.21,2.14-4,4.78-4h9.53C391.42,220.25,393.55,222,393.55,224.26Z"/><ellipse class="cls-37" cx="382.21" cy="152.96" rx="8.62" ry="8.97"/><path class="cls-38" d="M367.18,138.75h0a.89.89,0,0,1,.76-1h0l9.52-1.42a1,1,0,0,1,1.07.75h0a.88.88,0,0,1-.76,1l-9.48,1.42a.92.92,0,0,1-1.1-.72Z"/><path class="cls-39" d="M367.8,142.28h0a.89.89,0,0,1,.76-1l9.51-1.42a1,1,0,0,1,1.07.76h0a.89.89,0,0,1-.76,1L368.86,143A1,1,0,0,1,367.8,142.28Z"/><path class="cls-40" d="M368.41,145.87h0a.89.89,0,0,1,.76-1l9.52-1.41a.92.92,0,0,1,1.06.74h0a.88.88,0,0,1-.75,1h0l-9.51,1.41A1,1,0,0,1,368.41,145.87Z"/><path class="cls-41" d="M369,149.35h0a.89.89,0,0,1,.76-1L379.3,147a1,1,0,0,1,1.08.75h0a.89.89,0,0,1-.76,1l-9.52,1.41A1,1,0,0,1,369,149.35Z"/><path class="cls-42" d="M371.71,132.53h0a1,1,0,0,1,1.27-.32l8.39,4.7a.88.88,0,0,1,.36,1.2v0h0a1,1,0,0,1-1.26.32l-8.4-4.7a.89.89,0,0,1-.36-1.2Z"/><path class="cls-43" d="M370.42,143.56h0c-.23-3.53,1.13-6.48,3-6.56l53.1-2.15c1.88-.08,3.61,2.76,3.83,6.29h0c.21,3.54-1.14,6.5-3,6.58l-53.07,2.11C372.36,149.93,370.63,147.11,370.42,143.56Z"/><ellipse class="cls-44" cx="432.42" cy="141.95" rx="8.04" ry="8.37"/><path class="cls-45" d="M386.78,134.59h0c1.59-3.16.84-6.74-1.68-7.91L314.32,92.74c-2.51-1.19-5.86.41-7.45,3.58h0c-1.6,3.17-.84,6.74,1.67,7.92l70.78,33.89C381.83,139.37,385.18,137.76,386.78,134.59Z"/><ellipse class="cls-46" cx="380.39" cy="131.37" rx="8.04" ry="8.37" transform="translate(-14.57 54.15) rotate(-7.99)"/><ellipse class="cls-47" cx="310.76" cy="96.45" rx="8.04" ry="8.37"/><ellipse class="cls-48" cx="318.99" cy="76.14" rx="1.77" ry="1.3" transform="translate(149.57 356.94) rotate(-72.32)"/><polygon class="cls-48" points="320.29 76.38 319.04 76.05 317.8 75.72 318.88 74.23 319.98 72.75 320.13 74.56 320.29 76.38"/><g id="shiny-2"><g class="cls-49"><g class="cls-50"><g class="cls-49"><g class="cls-50"><g class="cls-51"><polygon class="cls-52" points="319.09 74.1 319.61 74.72 318.07 76.45 317.57 75.83 319.09 74.1"/></g></g></g></g></g></g><ellipse class="cls-48" cx="354.95" cy="63.78" rx="1.29" ry="1.77" transform="translate(0.91 132.44) rotate(-21.16)"/><polygon class="cls-48" points="356.31 63.52 355.13 64.04 353.95 64.56 353.87 62.72 353.8 60.87 355.06 62.19 356.31 63.52"/><g id="shiny-5"><g class="cls-53"><g class="cls-54"><g class="cls-53"><g class="cls-54"><g class="cls-55"><polygon class="cls-56" points="353.95 62.48 354.74 62.66 354.63 64.96 353.84 64.78 353.95 62.48"/></g></g></g></g></g></g><ellipse class="cls-48" cx="358.91" cy="72.65" rx="1.29" ry="1.77" transform="translate(-2.02 134.46) rotate(-21.16)"/><polygon class="cls-48" points="360.27 72.42 359.08 72.94 357.9 73.46 357.82 71.62 357.76 69.77 359.01 71.09 360.27 72.42"/><g id="shiny-6"><g class="cls-57"><g class="cls-58"><g class="cls-57"><g class="cls-58"><g class="cls-59"><polygon class="cls-60" points="357.9 71.38 358.7 71.56 358.59 73.86 357.8 73.68 357.9 71.38"/></g></g></g></g></g></g><ellipse class="cls-48" cx="324.6" cy="65.3" rx="1.77" ry="1.3" transform="translate(144.8 343.33) rotate(-68.48)"/><polygon class="cls-48" points="325.88 65.63 324.65 65.21 323.44 64.8 324.62 63.38 325.81 61.97 325.85 63.8 325.88 65.63"/><g id="shiny-7"><g class="cls-61"><g class="cls-62"><g class="cls-61"><g class="cls-62"><g class="cls-63"><polygon class="cls-64" points="324.84 63.27 325.3 63.93 323.66 65.55 323.2 64.89 324.84 63.27"/></g></g></g></g></g></g><path class="cls-65" d="M338.29,76.23l-1.14.47a2.12,2.12,0,0,1,0-.71c.2-.9.85-1.53,1.45-1.41a1.46,1.46,0,0,1,.74,1.88Z"/><path class="cls-65" d="M340,76.78l-1.09-.28c.21-.88.85-1.49,1.45-1.36a1.46,1.46,0,0,1,.74,1.88,2.31,2.31,0,0,1-.46,1Z"/><path d="M338.19,82.75l-3,.22v-.45c.31-4,1.91-7,3.55-6.93s2.71,3.46,2.4,7.39a7.64,7.64,0,0,1-.12,1.06Z"/><path class="cls-65" d="M338.17,83,341,84a3.3,3.3,0,0,0-.26-2.21,3,3,0,0,0-3.95-1.63,2.88,2.88,0,0,0-1.57,2.75Z"/><rect class="cls-1" x="269.38" y="1.46" width="265" height="265"/><path class="cls-66" d="M625.46,210.37,595,217.76a6.58,6.58,0,0,1-8-4.41l-14.93-54.44a6.11,6.11,0,0,1,4.69-7.47l30.51-7.39a6.58,6.58,0,0,1,8,4.41l14.93,54.44A6.11,6.11,0,0,1,625.46,210.37Z"/><path class="cls-67" d="M608.64,166.36l-28.23-2.25c-4.88-.39-8.48-4.29-8-8.72L578,97.11c.43-4.42,4.73-7.7,9.6-7.31l28.23,2.25c4.87.39,8.48,4.29,8,8.72l-5.64,58.28C617.81,163.47,613.51,166.74,608.64,166.36Z"/><ellipse class="cls-68" cx="628.37" cy="93.97" rx="8.62" ry="8.97"/><path class="cls-69" d="M700.85,139.56h0c-1.79,3.06-5.18,4.4-7.53,3l-66.27-40.41c-2.35-1.44-2.82-5.12-1-8.17h0c1.79-3.07,5.18-4.39,7.53-3l66.27,40.41C702.18,132.83,702.64,136.51,700.85,139.56Z"/><path class="cls-6" d="M611.09,220.7h26.7c0,11.32-12.06,20.62-26.7,20.62s-26.71-9.3-26.71-20.62v-.36Z"/><polygon class="cls-70" points="632.95 201.06 590 216.88 580.98 194.35 623.92 178.53 632.95 201.06"/><ellipse class="cls-71" cx="631.39" cy="210.87" rx="16.28" ry="11.95" transform="translate(-19.28 70.33) rotate(-6.28)"/><ellipse class="cls-72" cx="585.11" cy="213.11" rx="17.25" ry="13.94" transform="translate(-29.29 111.7) rotate(-10.64)"/><ellipse class="cls-73" cx="609.39" cy="212.5" rx="17.23" ry="14.95"/><path class="cls-74" d="M696.67,144.06h0a7,7,0,0,1,.52,9.26L634,231.15a5.67,5.67,0,0,1-8.49.56h0a7,7,0,0,1-.51-9.27l63.17-77.82A5.67,5.67,0,0,1,696.67,144.06Z"/><ellipse class="cls-75" cx="693.65" cy="151.51" rx="8.62" ry="8.97"/><path class="cls-76" d="M649.42,145.32h0a6.21,6.21,0,0,1,2.15,8.28L608.33,232a5.69,5.69,0,0,1-7.94,2.23h0a6.2,6.2,0,0,1-2.15-8.28l43.24-78.39A5.68,5.68,0,0,1,649.42,145.32Z"/><path class="cls-77" d="M603.74,98.09h0a23.23,23.23,0,0,1-23.23-23.23V50.8a23.23,23.23,0,0,1,23.23-23.23h0A23.23,23.23,0,0,1,627,50.8V74.86A23.23,23.23,0,0,1,603.74,98.09Z"/><ellipse class="cls-78" cx="581.47" cy="58.64" rx="5.75" ry="5.97"/><ellipse class="cls-16" cx="581.47" cy="58.64" rx="3.83" ry="3.99"/><ellipse class="cls-17" cx="581.47" cy="64.61" rx="1.92" ry="1.99"/><ellipse class="cls-79" cx="593.92" cy="66.61" rx="4.79" ry="3.99"/><ellipse class="cls-80" cx="618.81" cy="66.61" rx="4.79" ry="3.99"/><path d="M594.45,50.62h0a1,1,0,0,0,.81-1.13v0L595,47.36a1,1,0,0,0-1.08-.85h0a1,1,0,0,0-.81,1.13l.28,2.1A1,1,0,0,0,594.45,50.62Z"/><path d="M592.21,51.84h0a1,1,0,0,0,0-1.38l-1.63-1.83a.92.92,0,0,0-1.31-.1s0,0,0,0h0a1,1,0,0,0,0,1.4h0l1.63,1.84A1,1,0,0,0,592.21,51.84Z"/><path d="M590.76,55.15h0a1,1,0,0,0-.43-1.33h0l-2.17-1.09a1,1,0,0,0-1.28.47h0a1,1,0,0,0,.44,1.32l2.17,1.1A1,1,0,0,0,590.76,55.15Z"/><path d="M616.92,50.35h0a1,1,0,0,0,1.19-.67l.69-2.4a1,1,0,0,0-.64-1.23h0a1,1,0,0,0-1.2.66l-.68,2.4A1,1,0,0,0,616.92,50.35Z"/><path d="M620,51.88h0a.92.92,0,0,0,1.31-.06l0,0,1.59-1.88a1,1,0,0,0,0-1.4l0,0h0a1,1,0,0,0-1.36.09l-1.58,1.89A1,1,0,0,0,620,51.88Z"/><path d="M621.29,55h0a1,1,0,0,0,1.25.54l2.23-1a1,1,0,0,0,.56-1.28h0a1,1,0,0,0-1.26-.54l-2.21,1A1,1,0,0,0,621.29,55Z"/><path class="cls-21" d="M607.32,61.64l-.07,5h.07a5,5,0,0,0,0-10Z"/><polygon class="cls-22" points="563.52 64.92 556.91 64.7 550.31 64.47 553.43 70.74 556.56 77.02 560.04 70.97 563.52 64.92"/><ellipse class="cls-22" cx="594.42" cy="36.27" rx="16.37" ry="6.82" transform="translate(111.64 384.95) rotate(-39.33)"/><ellipse class="cls-22" cx="617.58" cy="36.27" rx="6.81" ry="16.42" transform="translate(181.73 475.31) rotate(-48.57)"/><ellipse class="cls-22" cx="581.65" cy="30.43" rx="4.81" ry="5.22" transform="translate(534.19 610.94) rotate(-88.32)"/><ellipse class="cls-22" cx="568.51" cy="34.96" rx="4.81" ry="5.22" transform="translate(516.9 602.19) rotate(-88.32)"/><ellipse class="cls-22" cx="560.49" cy="44.42" rx="4.81" ry="5.22" transform="translate(499.66 603.37) rotate(-88.32)"/><ellipse class="cls-22" cx="557.64" cy="56.38" rx="4.81" ry="5.22" transform="translate(484.94 612.13) rotate(-88.32)"/><ellipse class="cls-22" cx="627.96" cy="28.78" rx="4.45" ry="4.52" transform="translate(45.88 266.15) rotate(-24.81)"/><ellipse class="cls-22" cx="639.72" cy="31.45" rx="4.45" ry="4.52" transform="translate(45.85 271.34) rotate(-24.81)"/><ellipse class="cls-22" cx="647.83" cy="39.28" rx="4.45" ry="4.52" transform="translate(43.31 275.46) rotate(-24.81)"/><ellipse class="cls-22" cx="651.91" cy="50.06" rx="4.45" ry="4.52" transform="translate(39.16 278.17) rotate(-24.81)"/><polygon class="cls-22" points="658.43 55.67 652 56.5 645.55 57.33 649.54 62.55 653.55 67.78 655.99 61.72 658.43 55.67"/><path class="cls-81" d="M720,130.17h0a.91.91,0,0,0-.73-1h0l-9.45-1.77a1,1,0,0,0-1.1.71h0a.9.9,0,0,0,.7,1.05h0l9.46,1.77A1,1,0,0,0,720,130.17Z"/><path class="cls-82" d="M718.31,133.68h0a.9.9,0,0,0-.71-1.05h0l-9.45-1.77a1,1,0,0,0-1.1.71h0a.9.9,0,0,0,.72,1.05h0l9.46,1.77A1,1,0,0,0,718.31,133.68Z"/><path class="cls-83" d="M717.54,137.19h0a.87.87,0,0,0-.68-1h0l-9.45-1.77a1,1,0,0,0-1.1.7h0a.89.89,0,0,0,.7,1.05h0l9.45,1.77A.91.91,0,0,0,717.54,137.19Z"/><path class="cls-84" d="M716.79,140.7h0a.88.88,0,0,0-.68-1h0l-9.45-1.77a1,1,0,0,0-1.09.71h0a.88.88,0,0,0,.68,1h0l9.45,1.77A.92.92,0,0,0,716.79,140.7Z"/><path class="cls-85" d="M714.75,123.79h0a1,1,0,0,0-1.25-.37l-8.57,4.38a.88.88,0,0,0-.41,1.18l0,0h0a1,1,0,0,0,1.25.37l8.57-4.38A.9.9,0,0,0,714.75,123.79Z"/><path class="cls-86" d="M715.66,133.86h0c.36-3.53-1.15-6.56-3.36-6.74l-62.13-4.94c-2.21-.18-4.31,2.56-4.65,6.08h0c-.36,3.53,1.15,6.56,3.36,6.73L711,139.94C713.22,140.13,715.34,137.38,715.66,133.86Z"/><path class="cls-87" d="M692.55,227.86h0a6.43,6.43,0,0,1-6.43-6.43V150.78a6.43,6.43,0,0,1,6.43-6.43h0a6.43,6.43,0,0,1,6.43,6.43v70.65A6.43,6.43,0,0,1,692.55,227.86Z"/><rect class="cls-30" x="689.09" y="223.45" width="8.77" height="14.46" rx="1.05"/><rect class="cls-31" x="689.09" y="226.22" width="8.77" height="3.57"/><path class="cls-32" d="M690.29,249.37l10.61.23v-.23c0-7.91-4.79-14.33-10.61-14.33s-10.56,6.47-10.56,14.33Z"/><path class="cls-33" d="M705.14,249.4l19.08.27v-.27c0-8.8-8.61-16-19.08-16s-19.09,7.24-19.09,16Z"/><rect class="cls-34" x="679.7" y="249.36" width="44.52" height="2.05"/><path class="cls-35" d="M703,221.83v.37c0,2.23-2.13,4-4.76,4h-9.54c-2.64,0-4.78-1.79-4.78-4v-.37c0-2.22,2.14-4,4.78-4h9.54C700.88,217.81,703,219.59,703,221.83Z"/><path class="cls-88" d="M655.56,226.22h-9.1a1.85,1.85,0,0,1-1.88-1.82V147.16a1.85,1.85,0,0,1,1.88-1.82h9.1a1.86,1.86,0,0,1,1.88,1.82V224.4A1.86,1.86,0,0,1,655.56,226.22Z"/><rect class="cls-30" x="647.55" y="224.44" width="8.77" height="14.46" rx="1.05"/><rect class="cls-31" x="647.55" y="227.21" width="8.77" height="3.57"/><path class="cls-32" d="M648.75,250.36l10.61.23v-.23c0-7.91-4.79-14.33-10.61-14.33s-10.56,6.47-10.56,14.33Z"/><path class="cls-33" d="M663.6,250.39l19.08.27v-.27c0-8.8-8.62-16-19.08-16s-19.09,7.24-19.09,16Z"/><rect class="cls-34" x="638.16" y="250.35" width="44.52" height="2.05"/><path class="cls-35" d="M661.47,222.82v.37c0,2.23-2.13,4-4.77,4h-9.53c-2.64,0-4.78-1.79-4.78-4v-.37c0-2.22,2.14-4,4.78-4h9.53C659.34,218.8,661.47,220.58,661.47,222.82Z"/><ellipse class="cls-89" cx="650.13" cy="151.51" rx="8.62" ry="8.97"/><path class="cls-90" d="M635.1,137.3h0a.89.89,0,0,1,.76-1h0l9.52-1.41a1,1,0,0,1,1.07.74h0a.89.89,0,0,1-.76,1L636.21,138a.92.92,0,0,1-1.1-.71Z"/><path class="cls-91" d="M635.72,140.83h0a.89.89,0,0,1,.76-1l9.51-1.41a1,1,0,0,1,1.07.75h0a.89.89,0,0,1-.76,1l-9.52,1.41A1,1,0,0,1,635.72,140.83Z"/><path class="cls-92" d="M636.33,144.42h0a.89.89,0,0,1,.76-1l9.52-1.41a.92.92,0,0,1,1.06.74h0a.88.88,0,0,1-.75,1h0l-9.51,1.41A1,1,0,0,1,636.33,144.42Z"/><path class="cls-93" d="M637,147.9h0a.89.89,0,0,1,.76-1l9.51-1.41a1,1,0,0,1,1.08.75h0a.89.89,0,0,1-.76,1L638,148.65A1,1,0,0,1,637,147.9Z"/><path class="cls-94" d="M639.63,131.08h0a1,1,0,0,1,1.27-.32l8.39,4.7a.88.88,0,0,1,.36,1.2v0h0a1,1,0,0,1-1.26.31l-8.4-4.7a.89.89,0,0,1-.36-1.2Z"/><path class="cls-95" d="M638.34,142.12h0c-.23-3.53,1.13-6.49,3-6.57l53.1-2.15c1.88-.08,3.61,2.76,3.83,6.29h0c.21,3.54-1.14,6.5-3,6.58l-53.07,2.11C640.28,148.49,638.55,145.66,638.34,142.12Z"/><ellipse class="cls-96" cx="700.34" cy="140.5" rx="8.04" ry="8.37"/><path class="cls-97" d="M654.7,133.15h0c1.59-3.17.84-6.75-1.68-7.92L582.24,91.3c-2.51-1.2-5.86.4-7.45,3.58h0c-1.6,3.16-.84,6.73,1.67,7.91l70.78,33.9C649.75,137.92,653.1,136.31,654.7,133.15Z"/><ellipse class="cls-98" cx="648.31" cy="129.92" rx="8.04" ry="8.37" transform="translate(-11.77 91.38) rotate(-7.99)"/><ellipse class="cls-99" cx="578.68" cy="95.01" rx="8.04" ry="8.37"/><ellipse class="cls-48" cx="593.9" cy="64.81" rx="1.77" ry="1.3" transform="translate(393.81 627.73) rotate(-76.66)"/><polygon class="cls-48" points="595.21 64.96 593.95 64.72 592.68 64.49 593.65 62.92 594.63 61.36 594.91 63.16 595.21 64.96"/><ellipse class="cls-48" cx="586.91" cy="74.69" rx="1.77" ry="1.3" transform="translate(337.51 611.19) rotate(-72.32)"/><polygon class="cls-48" points="588.21 74.94 586.96 74.6 585.72 74.27 586.8 72.78 587.9 71.3 588.05 73.12 588.21 74.94"/><g id="shiny-2-2" data-name="shiny-2"><g class="cls-100"><g class="cls-101"><g class="cls-100"><g class="cls-101"><g class="cls-102"><polygon class="cls-103" points="587.01 72.65 587.53 73.28 585.99 75.01 585.49 74.38 587.01 72.65"/></g></g></g></g></g></g><ellipse class="cls-48" cx="583.06" cy="83.58" rx="1.77" ry="1.3" transform="translate(395.79 642.04) rotate(-79.62)"/><polygon class="cls-48" points="584.37 83.66 583.1 83.49 581.82 83.32 582.72 81.7 583.61 80.09 584 81.88 584.37 83.66"/><ellipse class="cls-48" cx="622.87" cy="62.33" rx="1.29" ry="1.77" transform="translate(19.5 229.06) rotate(-21.16)"/><polygon class="cls-48" points="624.23 62.07 623.04 62.59 621.87 63.11 621.79 61.27 621.72 59.42 622.98 60.74 624.23 62.07"/><g id="shiny-5-2" data-name="shiny-5"><g class="cls-104"><g class="cls-105"><g class="cls-104"><g class="cls-105"><g class="cls-106"><polygon class="cls-107" points="621.87 61.03 622.66 61.21 622.55 63.51 621.76 63.34 621.87 61.03"/></g></g></g></g></g></g><ellipse class="cls-48" cx="626.83" cy="71.2" rx="1.29" ry="1.77" transform="translate(16.56 231.08) rotate(-21.16)"/><polygon class="cls-48" points="628.19 70.97 627 71.5 625.83 72.01 625.75 70.17 625.68 68.32 626.93 69.64 628.19 70.97"/><g id="shiny-6-2" data-name="shiny-6"><g class="cls-108"><g class="cls-109"><g class="cls-108"><g class="cls-109"><g class="cls-110"><polygon class="cls-111" points="625.83 69.93 626.62 70.11 626.51 72.41 625.72 72.24 625.83 69.93"/></g></g></g></g></g></g><ellipse class="cls-48" cx="629.83" cy="81.47" rx="1.3" ry="1.77" transform="matrix(0.99, -0.15, 0.15, 0.99, -5.04, 97.54)"/><polygon class="cls-48" points="631.1 81.11 629.83 81.37 628.57 81.62 628.88 79.8 629.2 77.98 630.15 79.55 631.1 81.11"/><g id="shiny-7-2" data-name="shiny-7"><g class="cls-112"><g class="cls-113"><g class="cls-112"><g class="cls-113"><g class="cls-114"><polygon class="cls-115" points="629.01 79.59 629.74 79.93 629.15 82.16 628.42 81.82 629.01 79.59"/></g></g></g></g></g></g><path class="cls-65" d="M606.21,74.78l-1.14.47a2.12,2.12,0,0,1,0-.71c.2-.9.85-1.53,1.45-1.4a1.46,1.46,0,0,1,.74,1.88Z"/><path class="cls-65" d="M607.9,75.33l-1.09-.27c.21-.88.85-1.5,1.45-1.37a1.46,1.46,0,0,1,.74,1.88,2.31,2.31,0,0,1-.46,1Z"/><path d="M606.11,81.31l-3,.21v-.45c.31-4,1.91-7,3.55-6.92s2.71,3.46,2.4,7.38a7.48,7.48,0,0,1-.12,1.06Z"/><path class="cls-65" d="M606.09,81.54l2.86,1a3.32,3.32,0,0,0-.26-2.21,3,3,0,0,0-4-1.62,2.87,2.87,0,0,0-1.57,2.74Z"/><rect class="cls-1" x="537.3" y="1.99" width="265" height="265"/><path class="cls-116" d="M89.62,210.66l-30.51,7.39a6.57,6.57,0,0,1-8-4.41L36.23,159.21a6.11,6.11,0,0,1,4.69-7.47l30.51-7.39a6.57,6.57,0,0,1,7.95,4.41l14.93,54.43A6.11,6.11,0,0,1,89.62,210.66Z"/><path class="cls-117" d="M72.8,166.65,44.57,164.4c-4.88-.39-8.48-4.29-8-8.71l5.64-58.28c.43-4.43,4.73-7.7,9.6-7.31L80,92.35c4.87.39,8.48,4.29,8.05,8.72L82.4,159.35C82,163.77,77.67,167,72.8,166.65Z"/><ellipse class="cls-118" cx="92.53" cy="94.26" rx="8.62" ry="8.97"/><path class="cls-119" d="M165,139.86h0c-1.79,3.06-5.18,4.39-7.53,3L91.21,102.41c-2.35-1.43-2.82-5.11-1-8.17h0c1.79-3.06,5.18-4.39,7.53-3L164,131.69C166.34,133.13,166.8,136.81,165,139.86Z"/><path class="cls-6" d="M75.25,221H102c0,11.31-12.06,20.62-26.7,20.62S48.54,232.31,48.54,221v-.36Z"/><polygon class="cls-120" points="97.11 201.36 54.16 217.17 45.13 194.64 88.08 178.83 97.11 201.36"/><ellipse class="cls-121" cx="95.55" cy="211.17" rx="16.28" ry="11.95" transform="translate(-22.53 11.72) rotate(-6.28)"/><ellipse class="cls-122" cx="49.27" cy="213.41" rx="17.25" ry="13.94" transform="translate(-38.56 12.77) rotate(-10.64)"/><ellipse class="cls-123" cx="73.55" cy="212.8" rx="17.23" ry="14.95"/><path class="cls-124" d="M160.83,144.35h0a7,7,0,0,1,.52,9.27L98.17,231.45a5.67,5.67,0,0,1-8.49.56h0a7,7,0,0,1-.51-9.27l63.17-77.82A5.67,5.67,0,0,1,160.83,144.35Z"/><ellipse class="cls-125" cx="157.81" cy="151.81" rx="8.62" ry="8.97"/><path class="cls-126" d="M113.58,145.62h0a6.21,6.21,0,0,1,2.15,8.28L72.49,232.3a5.69,5.69,0,0,1-7.94,2.23h0a6.2,6.2,0,0,1-2.15-8.28l43.24-78.39A5.68,5.68,0,0,1,113.58,145.62Z"/><path class="cls-127" d="M68.62,98.78h0a23,23,0,0,1-23-23V52a23,23,0,0,1,23-23h0a23,23,0,0,1,23,23v23.8A23,23,0,0,1,68.62,98.78Z"/><ellipse cx="61.34" cy="55.42" rx="4.22" ry="4.4"/><ellipse cx="80.49" cy="55.42" rx="4.22" ry="4.4"/><ellipse class="cls-128" cx="45.63" cy="58.93" rx="5.75" ry="5.97"/><ellipse class="cls-16" cx="44.66" cy="58.12" rx="3.87" ry="4.03"/><ellipse class="cls-17" cx="44.66" cy="64.16" rx="1.94" ry="2.01"/><ellipse class="cls-18" cx="63.26" cy="55.42" rx="1.63" ry="1.7"/><ellipse class="cls-18" cx="82.41" cy="55.42" rx="1.63" ry="1.7"/><ellipse class="cls-129" cx="58.08" cy="66.91" rx="4.79" ry="3.99"/><ellipse class="cls-130" cx="82.97" cy="66.91" rx="4.79" ry="3.99"/><path d="M58.61,50.92h0a1,1,0,0,0,.81-1.14v0l-.28-2.1a1,1,0,0,0-1.08-.85h0a1,1,0,0,0-.81,1.12L57.53,50A1,1,0,0,0,58.61,50.92Z"/><path d="M56.37,52.14h0a1,1,0,0,0,0-1.39l-1.63-1.83a.93.93,0,0,0-1.31-.1s0,0,0,0h0a1,1,0,0,0,0,1.4h0l1.63,1.84A1,1,0,0,0,56.37,52.14Z"/><path d="M54.92,55.45h0a1,1,0,0,0-.43-1.33h0L52.32,53a1,1,0,0,0-1.28.46h0a1,1,0,0,0,.44,1.33l2.16,1.1A1,1,0,0,0,54.92,55.45Z"/><path d="M81.08,50.64h0A1,1,0,0,0,82.27,50L83,47.58a1,1,0,0,0-.64-1.24h0a1,1,0,0,0-1.2.66l-.68,2.41A1,1,0,0,0,81.08,50.64Z"/><path d="M84.11,52.18h0a.93.93,0,0,0,1.31-.06l0,0L87,50.2A1,1,0,0,0,87,48.8l0,0h0a1,1,0,0,0-1.36.08L84,50.75A1.05,1.05,0,0,0,84.11,52.18Z"/><path d="M85.45,55.33h0a1,1,0,0,0,1.25.55l2.23-1a1,1,0,0,0,.56-1.28h0a1,1,0,0,0-1.26-.53l-2.21,1A1,1,0,0,0,85.45,55.33Z"/><path class="cls-21" d="M71.48,61.94l-.07,5h.07a5,5,0,0,0,0-10Z"/><polygon class="cls-22" points="26.51 64.47 19.83 64.25 13.15 64.02 16.31 70.36 19.47 76.71 22.99 70.59 26.51 64.47"/><ellipse class="cls-22" cx="58.58" cy="36.57" rx="16.37" ry="6.82" transform="translate(-9.91 45.41) rotate(-39.33)"/><ellipse class="cls-22" cx="81.74" cy="36.57" rx="6.81" ry="16.42" transform="translate(0.23 73.66) rotate(-48.57)"/><ellipse class="cls-22" cx="45.81" cy="30.73" rx="4.81" ry="5.22" transform="translate(13.76 75.62) rotate(-88.32)"/><ellipse class="cls-22" cx="31.55" cy="34.18" rx="4.86" ry="5.28" transform="translate(-3.54 64.71) rotate(-88.32)"/><ellipse class="cls-22" cx="23.45" cy="43.75" rx="4.86" ry="5.28" transform="translate(-20.97 65.9) rotate(-88.32)"/><ellipse class="cls-22" cx="20.57" cy="55.84" rx="4.86" ry="5.28" transform="translate(-35.85 74.76) rotate(-88.32)"/><ellipse class="cls-22" cx="92.12" cy="29.08" rx="4.45" ry="4.52" transform="translate(-3.7 41.34) rotate(-24.81)"/><ellipse class="cls-22" cx="103.88" cy="31.75" rx="4.45" ry="4.52" transform="translate(-3.73 46.52) rotate(-24.81)"/><ellipse class="cls-22" cx="111.99" cy="39.58" rx="4.45" ry="4.52" transform="translate(-6.27 50.65) rotate(-24.81)"/><ellipse class="cls-22" cx="116.07" cy="50.35" rx="4.45" ry="4.52" transform="translate(-10.42 53.35) rotate(-24.81)"/><polygon class="cls-22" points="122.59 55.97 116.16 56.8 109.71 57.63 113.7 62.85 117.71 68.07 120.15 62.02 122.59 55.97"/><path class="cls-131" d="M184.2,130.47h0a.91.91,0,0,0-.73-1.05h0L174,127.65a1,1,0,0,0-1.1.71h0a.89.89,0,0,0,.7,1h0l9.46,1.77A1,1,0,0,0,184.2,130.47Z"/><path class="cls-132" d="M182.47,134h0a.9.9,0,0,0-.71-1h0l-9.45-1.77a1,1,0,0,0-1.1.71h0a.9.9,0,0,0,.72,1h0l9.46,1.77A1,1,0,0,0,182.47,134Z"/><path class="cls-133" d="M181.7,137.49h0a.87.87,0,0,0-.68-1h0l-9.45-1.77a1,1,0,0,0-1.1.7h0a.88.88,0,0,0,.7,1h0l9.45,1.77A.93.93,0,0,0,181.7,137.49Z"/><path class="cls-134" d="M181,141h0a.87.87,0,0,0-.68-1h0l-9.45-1.77a1,1,0,0,0-1.09.7h0a.87.87,0,0,0,.68,1h0l9.45,1.77A.92.92,0,0,0,181,141Z"/><path class="cls-135" d="M178.91,124.09h0a1,1,0,0,0-1.25-.37l-8.57,4.38a.88.88,0,0,0-.41,1.18l0,0h0a1,1,0,0,0,1.25.36l8.57-4.38A.88.88,0,0,0,178.91,124.09Z"/><path class="cls-136" d="M179.82,134.15h0c.36-3.53-1.15-6.55-3.36-6.73l-62.13-5c-2.21-.17-4.31,2.57-4.65,6.09h0c-.36,3.53,1.15,6.55,3.36,6.73l62.14,5C177.38,140.43,179.5,137.68,179.82,134.15Z"/><path class="cls-137" d="M156.71,228.16h0a6.43,6.43,0,0,1-6.43-6.43V151.08a6.43,6.43,0,0,1,6.43-6.43h0a6.43,6.43,0,0,1,6.43,6.43v70.65A6.43,6.43,0,0,1,156.71,228.16Z"/><rect class="cls-30" x="153.25" y="223.75" width="8.77" height="14.46" rx="1.05"/><rect class="cls-31" x="153.25" y="226.52" width="8.77" height="3.57"/><path class="cls-32" d="M154.45,249.67l10.61.23v-.23c0-7.91-4.79-14.33-10.61-14.33s-10.56,6.47-10.56,14.33Z"/><path class="cls-33" d="M169.3,249.7l19.08.27v-.27c0-8.8-8.61-16-19.08-16s-19.09,7.24-19.09,16Z"/><rect class="cls-34" x="143.86" y="249.66" width="44.52" height="2.05"/><path class="cls-35" d="M167.17,222.13v.37c0,2.23-2.13,4-4.76,4h-9.54c-2.64,0-4.78-1.79-4.78-4v-.37c0-2.22,2.14-4,4.78-4h9.54C165,218.11,167.17,219.89,167.17,222.13Z"/><path class="cls-138" d="M119.72,226.52h-9.1a1.85,1.85,0,0,1-1.88-1.82V147.46a1.85,1.85,0,0,1,1.88-1.82h9.1a1.85,1.85,0,0,1,1.88,1.82V224.7A1.86,1.86,0,0,1,119.72,226.52Z"/><rect class="cls-30" x="111.71" y="224.74" width="8.77" height="14.46" rx="1.05"/><rect class="cls-31" x="111.71" y="227.51" width="8.77" height="3.57"/><path class="cls-32" d="M112.91,250.66l10.61.23v-.23c0-7.91-4.79-14.33-10.61-14.33s-10.56,6.47-10.56,14.33Z"/><path class="cls-33" d="M127.76,250.69l19.08.27v-.27c0-8.8-8.62-16-19.08-16s-19.09,7.24-19.09,16Z"/><rect class="cls-34" x="102.32" y="250.65" width="44.52" height="2.05"/><path class="cls-35" d="M125.63,223.11v.38c0,2.23-2.13,4-4.77,4h-9.53c-2.64,0-4.78-1.79-4.78-4v-.38c0-2.21,2.14-4,4.78-4h9.53C123.5,219.1,125.63,220.88,125.63,223.11Z"/><ellipse class="cls-139" cx="114.29" cy="151.81" rx="8.62" ry="8.97"/><path class="cls-140" d="M99.26,137.6h0a.88.88,0,0,1,.76-1h0l9.52-1.42a1,1,0,0,1,1.07.75h0a.88.88,0,0,1-.76,1l-9.48,1.42a.93.93,0,0,1-1.1-.72Z"/><path class="cls-141" d="M99.88,141.13h0a.89.89,0,0,1,.76-1l9.51-1.42a1,1,0,0,1,1.07.76h0a.89.89,0,0,1-.76,1l-9.52,1.41A1,1,0,0,1,99.88,141.13Z"/><path class="cls-142" d="M100.49,144.72h0a.89.89,0,0,1,.76-1l9.52-1.42a.93.93,0,0,1,1.06.75h0a.88.88,0,0,1-.75,1h0l-9.51,1.41A1,1,0,0,1,100.49,144.72Z"/><path class="cls-143" d="M101.11,148.2h0a.89.89,0,0,1,.76-1l9.51-1.41a1,1,0,0,1,1.08.75h0a.89.89,0,0,1-.76,1L102.18,149A1,1,0,0,1,101.11,148.2Z"/><path class="cls-144" d="M103.79,131.38h0a1,1,0,0,1,1.27-.32l8.39,4.7a.88.88,0,0,1,.36,1.2v0h0a1,1,0,0,1-1.26.32l-8.4-4.7a.9.9,0,0,1-.36-1.21Z"/><path class="cls-145" d="M102.5,142.41h0c-.23-3.53,1.13-6.48,3-6.56l53.1-2.15c1.88-.08,3.61,2.76,3.83,6.29h0c.21,3.54-1.14,6.5-3,6.58l-53.07,2.1C104.44,148.78,102.71,146,102.5,142.41Z"/><ellipse class="cls-146" cx="164.5" cy="140.8" rx="8.04" ry="8.37"/><path class="cls-147" d="M118.86,133.44h0c1.59-3.16.84-6.74-1.68-7.91L46.4,91.59C43.89,90.4,40.54,92,39,95.17h0c-1.6,3.17-.84,6.74,1.67,7.92L111.4,137C113.91,138.22,117.26,136.61,118.86,133.44Z"/><ellipse class="cls-148" cx="112.47" cy="130.22" rx="8.04" ry="8.37" transform="translate(-17.01 16.9) rotate(-7.99)"/><ellipse class="cls-149" cx="42.84" cy="95.3" rx="8.04" ry="8.37"/><ellipse class="cls-48" cx="56.09" cy="63.75" rx="1.77" ry="1.3" transform="translate(-21.68 97.83) rotate(-72.32)"/><polygon class="cls-48" points="57.39 64 56.14 63.66 54.89 63.34 55.98 61.84 57.08 60.36 57.23 62.18 57.39 64"/><g id="shiny-2-3" data-name="shiny-2"><g class="cls-150"><g class="cls-151"><g class="cls-150"><g class="cls-151"><g class="cls-152"><polygon class="cls-153" points="56.19 61.71 56.7 62.34 55.17 64.07 54.67 63.44 56.19 61.71"/></g></g></g></g></g></g><ellipse class="cls-48" cx="87.03" cy="62.63" rx="1.29" ry="1.77" transform="translate(-16.74 35.64) rotate(-21.16)"/><polygon class="cls-48" points="88.39 62.37 87.2 62.89 86.03 63.4 85.95 61.56 85.88 59.72 87.14 61.04 88.39 62.37"/><g id="shiny-5-3" data-name="shiny-5"><g class="cls-154"><g class="cls-155"><g class="cls-154"><g class="cls-155"><g class="cls-156"><polygon class="cls-157" points="86.03 61.33 86.82 61.51 86.71 63.81 85.92 63.63 86.03 61.33"/></g></g></g></g></g></g><path class="cls-65" d="M70.37,75.08l-1.14.47a2.12,2.12,0,0,1,0-.71c.2-.9.85-1.53,1.45-1.41a1.46,1.46,0,0,1,.74,1.88Z"/><path class="cls-65" d="M72.06,75.63,71,75.35c.21-.88.85-1.49,1.45-1.36a1.46,1.46,0,0,1,.74,1.88,2.31,2.31,0,0,1-.46,1Z"/><path d="M70.27,81.6l-3,.22v-.45c.31-4,1.91-7.05,3.55-6.93s2.71,3.46,2.4,7.39a7.64,7.64,0,0,1-.12,1.06Z"/><path class="cls-65" d="M70.25,81.84l2.86,1a3.34,3.34,0,0,0-.26-2.22A3,3,0,0,0,68.9,79a2.88,2.88,0,0,0-1.57,2.75Z"/><rect class="cls-1" x="1.46" y="0.31" width="265" height="265"/><path class="cls-158" d="M893.31,212.07l-30.51,7.39a6.58,6.58,0,0,1-7.95-4.41l-14.93-54.44a6.11,6.11,0,0,1,4.69-7.47l30.51-7.39a6.58,6.58,0,0,1,8,4.41L898,204.6A6.11,6.11,0,0,1,893.31,212.07Z"/><path class="cls-159" d="M876.49,168.06l-28.23-2.25c-4.88-.39-8.48-4.29-8-8.72l5.64-58.28c.42-4.42,4.72-7.69,9.6-7.31l28.23,2.25c4.87.39,8.48,4.29,8.05,8.72l-5.64,58.28C885.66,165.17,881.36,168.45,876.49,168.06Z"/><ellipse class="cls-160" cx="896.21" cy="95.67" rx="8.62" ry="8.97"/><path class="cls-161" d="M968.7,141.27h0c-1.79,3-5.18,4.39-7.53,3L894.9,103.82c-2.35-1.44-2.82-5.12-1-8.17h0c1.79-3.07,5.18-4.39,7.53-3l66.27,40.42C970,134.53,970.49,138.21,968.7,141.27Z"/><path class="cls-6" d="M878.94,222.4h26.7c0,11.32-12.07,20.62-26.7,20.62s-26.71-9.3-26.71-20.62v-.35Z"/><polygon class="cls-162" points="900.8 202.76 857.85 218.58 848.82 196.05 891.77 180.23 900.8 202.76"/><ellipse class="cls-163" cx="899.24" cy="212.57" rx="16.28" ry="11.95" transform="translate(-17.86 99.64) rotate(-6.28)"/><ellipse class="cls-164" cx="852.96" cy="214.81" rx="17.25" ry="13.94" transform="translate(-25 161.18) rotate(-10.64)"/><ellipse class="cls-165" cx="877.23" cy="214.2" rx="17.23" ry="14.95"/><path class="cls-166" d="M964.52,145.76h0A7,7,0,0,1,965,155l-63.17,77.82a5.67,5.67,0,0,1-8.49.56h0a7,7,0,0,1-.52-9.26L956,146.32A5.67,5.67,0,0,1,964.52,145.76Z"/><ellipse class="cls-167" cx="961.5" cy="153.21" rx="8.62" ry="8.97"/><path class="cls-168" d="M917.27,147h0a6.21,6.21,0,0,1,2.15,8.28l-43.24,78.4a5.69,5.69,0,0,1-7.94,2.24h0a6.21,6.21,0,0,1-2.15-8.28l43.23-78.4A5.7,5.7,0,0,1,917.27,147Z"/><path class="cls-169" d="M872.3,100.19h0a23,23,0,0,1-23-23V53.41a23,23,0,0,1,23-23h0a23,23,0,0,1,23,23v23.8A23,23,0,0,1,872.3,100.19Z"/><ellipse cx="865.03" cy="56.83" rx="4.22" ry="4.4"/><ellipse cx="884.18" cy="56.83" rx="4.22" ry="4.4"/><ellipse class="cls-170" cx="849.32" cy="60.34" rx="5.75" ry="5.97"/><ellipse class="cls-16" cx="849.32" cy="60.34" rx="3.83" ry="3.99"/><ellipse class="cls-17" cx="849.32" cy="66.31" rx="1.92" ry="1.99"/><ellipse class="cls-18" cx="866.95" cy="56.83" rx="1.63" ry="1.7"/><ellipse class="cls-18" cx="886.1" cy="56.83" rx="1.63" ry="1.7"/><ellipse class="cls-171" cx="861.76" cy="68.31" rx="4.79" ry="3.99"/><ellipse class="cls-172" cx="886.66" cy="68.31" rx="4.79" ry="3.99"/><path d="M862.3,52.33h0a1,1,0,0,0,.81-1.14v0l-.28-2.11a1,1,0,0,0-1.09-.85h0a1,1,0,0,0-.81,1.13l.29,2.11A1,1,0,0,0,862.3,52.33Z"/><path d="M860.05,53.54h0a1,1,0,0,0,.05-1.38l-1.63-1.83a.92.92,0,0,0-1.31-.1.08.08,0,0,0,0,0h0a1,1,0,0,0,0,1.4h0l1.63,1.84A1,1,0,0,0,860.05,53.54Z"/><path d="M858.61,56.86h0a1,1,0,0,0-.43-1.34h0L856,54.43a1,1,0,0,0-1.28.47h0a1,1,0,0,0,.44,1.32l2.16,1.1A1,1,0,0,0,858.61,56.86Z"/><path d="M884.77,52.05h0a1,1,0,0,0,1.19-.67l.69-2.4a1,1,0,0,0-.64-1.23h0a1,1,0,0,0-1.2.66l-.68,2.4A1,1,0,0,0,884.77,52.05Z"/><path d="M887.8,53.58h0a.92.92,0,0,0,1.31-.06l0,0,1.59-1.88a1,1,0,0,0-.05-1.39l0,0h0a1,1,0,0,0-1.36.09l-1.58,1.89A1,1,0,0,0,887.8,53.58Z"/><path d="M889.14,56.74h0a1,1,0,0,0,1.25.54l2.22-1a1,1,0,0,0,.57-1.28h0a1,1,0,0,0-1.26-.54l-2.21,1A1,1,0,0,0,889.14,56.74Z"/><path class="cls-21" d="M875.17,63.34l-.07,5h.07a5,5,0,1,0,0-10Z"/><polygon class="cls-22" points="831.37 66.62 824.76 66.4 818.15 66.17 821.28 72.44 824.41 78.72 827.89 72.67 831.37 66.62"/><ellipse class="cls-22" cx="862.27" cy="37.97" rx="16.37" ry="6.82" transform="translate(171.23 555.1) rotate(-39.33)"/><ellipse class="cls-22" cx="885.43" cy="37.97" rx="6.81" ry="16.42" transform="translate(271.07 676.71) rotate(-48.57)"/><ellipse class="cls-22" cx="849.5" cy="32.13" rx="4.81" ry="5.22" transform="translate(792.48 880.32) rotate(-88.32)"/><ellipse class="cls-22" cx="836.35" cy="36.66" rx="4.81" ry="5.22" transform="translate(775.19 871.58) rotate(-88.32)"/><ellipse class="cls-22" cx="828.34" cy="46.12" rx="4.81" ry="5.22" transform="translate(757.96 872.75) rotate(-88.32)"/><ellipse class="cls-22" cx="825.49" cy="58.08" rx="4.81" ry="5.22" transform="translate(743.23 881.52) rotate(-88.32)"/><ellipse class="cls-22" cx="895.81" cy="30.48" rx="4.45" ry="4.52" transform="translate(69.89 378.7) rotate(-24.81)"/><ellipse class="cls-22" cx="907.57" cy="33.15" rx="4.45" ry="4.52" transform="translate(69.85 383.89) rotate(-24.81)"/><ellipse class="cls-22" cx="915.68" cy="40.98" rx="4.45" ry="4.52" transform="translate(67.32 388.01) rotate(-24.81)"/><ellipse class="cls-22" cx="919.76" cy="51.76" rx="4.45" ry="4.52" transform="translate(63.17 390.72) rotate(-24.81)"/><polygon class="cls-22" points="926.28 57.37 919.84 58.2 913.39 59.03 917.39 64.25 921.4 69.48 923.84 63.42 926.28 57.37"/><path class="cls-173" d="M987.88,131.87h0a.9.9,0,0,0-.72-1.05h0l-9.45-1.77a1,1,0,0,0-1.1.71h0a.9.9,0,0,0,.7,1.05h0l9.46,1.77A1,1,0,0,0,987.88,131.87Z"/><path class="cls-174" d="M986.15,135.38h0a.88.88,0,0,0-.7-1h0L976,132.56a1,1,0,0,0-1.1.71h0a.9.9,0,0,0,.72,1h0l9.46,1.77A1,1,0,0,0,986.15,135.38Z"/><path class="cls-175" d="M985.39,138.89h0a.88.88,0,0,0-.68-1h0l-9.46-1.77a1,1,0,0,0-1.09.71h0a.89.89,0,0,0,.7,1h0l9.44,1.77A.92.92,0,0,0,985.39,138.89Z"/><path class="cls-176" d="M984.64,142.4h0a.88.88,0,0,0-.68-1h0l-9.45-1.77a1,1,0,0,0-1.1.71h0a.89.89,0,0,0,.69,1h0l9.45,1.78A.94.94,0,0,0,984.64,142.4Z"/><path class="cls-177" d="M982.6,125.49h0a1,1,0,0,0-1.25-.37l-8.57,4.39a.87.87,0,0,0-.41,1.17l0,0h0a1,1,0,0,0,1.25.37l8.57-4.38A.9.9,0,0,0,982.6,125.49Z"/><path class="cls-178" d="M983.51,135.56h0c.36-3.53-1.15-6.56-3.36-6.74L918,123.88c-2.2-.18-4.3,2.56-4.64,6.08h0c-.36,3.53,1.15,6.56,3.36,6.74l62.13,4.94C981.07,141.83,983.19,139.08,983.51,135.56Z"/><path class="cls-179" d="M960.4,229.56h0a6.43,6.43,0,0,1-6.43-6.43V152.48a6.43,6.43,0,0,1,6.43-6.43h0a6.43,6.43,0,0,1,6.43,6.43v70.65A6.43,6.43,0,0,1,960.4,229.56Z"/><rect class="cls-30" x="956.94" y="225.15" width="8.77" height="14.46" rx="1.05"/><rect class="cls-31" x="956.94" y="227.92" width="8.77" height="3.57"/><path class="cls-32" d="M958.14,251.08l10.61.22v-.22c0-7.92-4.79-14.34-10.61-14.34s-10.56,6.47-10.56,14.34Z"/><path class="cls-33" d="M973,251.11l19.08.26v-.26c0-8.81-8.62-16.05-19.08-16.05s-19.09,7.24-19.09,16.05Z"/><rect class="cls-34" x="947.55" y="251.07" width="44.52" height="2.05"/><path class="cls-35" d="M970.86,223.53v.38c0,2.22-2.13,4-4.77,4h-9.53c-2.64,0-4.78-1.79-4.78-4v-.38c0-2.22,2.14-4,4.78-4h9.53C968.73,219.51,970.86,221.29,970.86,223.53Z"/><path class="cls-180" d="M923.41,227.92h-9.1a1.85,1.85,0,0,1-1.88-1.82V148.86a1.85,1.85,0,0,1,1.88-1.82h9.1a1.85,1.85,0,0,1,1.87,1.82V226.1A1.84,1.84,0,0,1,923.41,227.92Z"/><rect class="cls-30" x="915.39" y="226.14" width="8.77" height="14.46" rx="1.05"/><rect class="cls-31" x="915.39" y="228.91" width="8.77" height="3.57"/><path class="cls-32" d="M916.6,252.06l10.6.23v-.23c0-7.91-4.78-14.33-10.6-14.33S906,244.2,906,252.06Z"/><path class="cls-33" d="M931.45,252.09l19.08.27v-.27c0-8.8-8.62-16-19.08-16s-19.09,7.24-19.09,16Z"/><rect class="cls-34" x="906.01" y="252.05" width="44.52" height="2.05"/><path class="cls-35" d="M929.32,224.52v.37c0,2.23-2.14,4-4.77,4H915c-2.64,0-4.78-1.79-4.78-4v-.37c0-2.22,2.14-4,4.78-4h9.53C927.18,220.5,929.32,222.28,929.32,224.52Z"/><ellipse class="cls-181" cx="917.97" cy="153.21" rx="8.62" ry="8.97"/><path class="cls-182" d="M903,139h0a.89.89,0,0,1,.76-1h0l9.52-1.41a1,1,0,0,1,1.07.74h0a.9.9,0,0,1-.77,1l-9.47,1.41A.92.92,0,0,1,903,139Z"/><path class="cls-183" d="M903.56,142.53h0a.9.9,0,0,1,.77-1l9.51-1.41a1,1,0,0,1,1.07.75h0a.89.89,0,0,1-.76,1l-9.52,1.41A1,1,0,0,1,903.56,142.53Z"/><path class="cls-184" d="M904.18,146.12h0a.89.89,0,0,1,.76-1l9.51-1.41a.92.92,0,0,1,1.07.74h0a.88.88,0,0,1-.75,1h0l-9.51,1.41A1,1,0,0,1,904.18,146.12Z"/><path class="cls-185" d="M904.8,149.6h0a.89.89,0,0,1,.76-1l9.51-1.41a1,1,0,0,1,1.08.75h0a.91.91,0,0,1-.77,1l-9.51,1.42A1,1,0,0,1,904.8,149.6Z"/><path class="cls-186" d="M907.48,132.78h0a1,1,0,0,1,1.27-.32l8.38,4.7a.88.88,0,0,1,.37,1.2v0h0a1,1,0,0,1-1.27.31L907.83,134a.88.88,0,0,1-.36-1.21Z"/><path class="cls-187" d="M906.18,143.82h0c-.22-3.53,1.14-6.49,3-6.57l53.1-2.15c1.88-.08,3.61,2.76,3.82,6.29h0c.22,3.55-1.13,6.5-3,6.58L910,150.08C908.12,150.19,906.4,147.36,906.18,143.82Z"/><ellipse class="cls-188" cx="968.19" cy="142.21" rx="8.04" ry="8.37"/><path class="cls-189" d="M922.54,134.85h0c1.6-3.17.85-6.75-1.67-7.92L850.09,93c-2.51-1.2-5.86.4-7.45,3.58h0c-1.6,3.16-.85,6.73,1.67,7.91l70.78,33.9C917.6,139.62,921,138,922.54,134.85Z"/><ellipse class="cls-190" cx="916.16" cy="131.63" rx="8.04" ry="8.37" transform="translate(-9.4 128.62) rotate(-7.99)"/><ellipse class="cls-191" cx="846.53" cy="96.71" rx="8.04" ry="8.37"/><ellipse class="cls-48" cx="854.76" cy="76.39" rx="1.77" ry="1.3" transform="translate(522.39 867.58) rotate(-72.32)"/><polygon class="cls-48" points="856.06 76.64 854.81 76.3 853.57 75.97 854.65 74.48 855.75 73 855.9 74.82 856.06 76.64"/><g id="shiny-2-4" data-name="shiny-2"><g class="cls-192"><g class="cls-193"><g class="cls-192"><g class="cls-193"><g class="cls-194"><polygon class="cls-195" points="854.86 74.35 855.38 74.98 853.84 76.71 853.34 76.08 854.86 74.35"/></g></g></g></g></g></g><ellipse class="cls-48" cx="890.72" cy="64.03" rx="1.29" ry="1.77" transform="translate(36.95 325.86) rotate(-21.16)"/><polygon class="cls-48" points="892.08 63.77 890.89 64.29 889.72 64.81 889.64 62.97 889.57 61.12 890.82 62.44 892.08 63.77"/><g id="shiny-5-4" data-name="shiny-5"><g class="cls-196"><g class="cls-197"><g class="cls-196"><g class="cls-197"><g class="cls-198"><polygon class="cls-199" points="889.72 62.73 890.51 62.91 890.4 65.21 889.61 65.04 889.72 62.73"/></g></g></g></g></g></g><ellipse class="cls-48" cx="894.67" cy="72.9" rx="1.29" ry="1.77" transform="translate(34.01 327.89) rotate(-21.16)"/><polygon class="cls-48" points="896.04 72.67 894.85 73.2 893.67 73.71 893.59 71.87 893.52 70.02 894.78 71.35 896.04 72.67"/><g id="shiny-6-3" data-name="shiny-6"><g class="cls-200"><g class="cls-201"><g class="cls-200"><g class="cls-201"><g class="cls-202"><polygon class="cls-203" points="893.67 71.63 894.46 71.81 894.36 74.12 893.56 73.94 893.67 71.63"/></g></g></g></g></g></g><ellipse class="cls-48" cx="897.68" cy="83.17" rx="1.3" ry="1.77" transform="translate(-2.14 138.63) rotate(-8.82)"/><polygon class="cls-48" points="898.95 82.81 897.68 83.07 896.42 83.32 896.73 81.5 897.05 79.68 898 81.25 898.95 82.81"/><g id="shiny-7-3" data-name="shiny-7"><g class="cls-204"><g class="cls-205"><g class="cls-204"><g class="cls-205"><g class="cls-206"><polygon class="cls-207" points="896.86 81.3 897.59 81.63 897 83.86 896.26 83.52 896.86 81.3"/></g></g></g></g></g></g><path class="cls-65" d="M874.06,76.48l-1.14.47a2.12,2.12,0,0,1,0-.71c.2-.9.85-1.53,1.45-1.4s1,1,.74,1.88Z"/><path class="cls-65" d="M875.75,77l-1.09-.27c.21-.88.85-1.5,1.45-1.37a1.46,1.46,0,0,1,.74,1.88,2.31,2.31,0,0,1-.46,1Z"/><path d="M874,83l-3,.22v-.46c.31-4,1.91-7,3.54-6.92s2.71,3.46,2.41,7.39a7.5,7.5,0,0,1-.12,1.05Z"/><path class="cls-65" d="M873.94,83.24l2.86,1a3.32,3.32,0,0,0-.26-2.21,3,3,0,0,0-3.95-1.62A2.87,2.87,0,0,0,871,83.15Z"/><rect class="cls-1" x="805.15" y="1.71" width="265" height="265"/><path class="cls-208" d="M348.31,55.79l-4.44-.06a4.45,4.45,0,0,1,8.89.06Z"/><path class="cls-209" d="M329.26,56.32l-4.44-.06a4.44,4.44,0,0,1,8.88.06Z"/><path d="M349,51.8h0a1,1,0,0,0,1.19-.68l.69-2.39a1,1,0,0,0-.64-1.24h0a1,1,0,0,0-1.2.67l-.68,2.4A1,1,0,0,0,349,51.8Z"/><g id="shiny-2-5" data-name="shiny-2"><g class="cls-210"><g class="cls-211"><g class="cls-210"><g class="cls-211"><g class="cls-212"><polygon class="cls-213" points="593.67 63.22 594.29 63.74 593.1 65.72 592.49 65.2 593.67 63.22"/></g></g></g></g></g></g><g id="shiny-7-4" data-name="shiny-7"><g class="cls-214"><g class="cls-215"><g class="cls-214"><g class="cls-215"><g class="cls-216"><polygon class="cls-217" points="582.33 81.95 583.06 82.29 582.47 84.51 581.74 84.18 582.33 81.95"/></g></g></g></g></g></g><rect x="591.34" y="57.19" width="11.21" height="1.03" rx="0.51"/><rect x="611.94" y="57.02" width="11.21" height="1.03" rx="0.51"/><path class="cls-218" d="M884.2,57.28l-4.2.19a4.2,4.2,0,0,0,8.4-.19Z"/><path class="cls-219" d="M865,57.28l-4.2.19a4.2,4.2,0,0,0,8.4-.19Z"/><ellipse class="cls-48" cx="860.02" cy="64.76" rx="1.77" ry="1.3" transform="translate(581.46 880.99) rotate(-75.46)"/><polygon class="cls-48" points="861.32 64.94 860.06 64.67 858.8 64.41 859.81 62.86 860.82 61.31 861.07 63.13 861.32 64.94"/><g id="shiny-7-5" data-name="shiny-7"><g class="cls-220"><g class="cls-221"><g class="cls-220"><g class="cls-221"><g class="cls-222"><polygon class="cls-223" points="860.01 62.72 860.55 63.32 859.12 65.13 858.58 64.53 860.01 62.72"/></g></g></g></g></g></g><ellipse class="cls-48" cx="851.82" cy="85.09" rx="1.77" ry="1.3" transform="translate(555.64 888.28) rotate(-75.46)"/><polygon class="cls-48" points="853.12 85.26 851.86 84.99 850.6 84.73 851.61 83.18 852.62 81.64 852.87 83.45 853.12 85.26"/><g id="shiny-7-6" data-name="shiny-7"><g class="cls-224"><g class="cls-225"><g class="cls-224"><g class="cls-225"><g class="cls-226"><polygon class="cls-227" points="851.81 83.04 852.35 83.64 850.92 85.45 850.38 84.85 851.81 83.04"/></g></g></g></g></g></g><ellipse class="cls-48" cx="850.49" cy="93.45" rx="1.77" ry="1.3" transform="translate(546.55 893.25) rotate(-75.46)"/><polygon class="cls-48" points="851.79 93.63 850.53 93.36 849.27 93.1 850.27 91.55 851.29 90 851.54 91.81 851.79 93.63"/><g id="shiny-7-7" data-name="shiny-7"><g class="cls-228"><g class="cls-229"><g class="cls-228"><g class="cls-229"><g class="cls-230"><polygon class="cls-231" points="850.48 91.41 851.01 92.01 849.59 93.82 849.05 93.22 850.48 91.41"/></g></g></g></g></g></g><ellipse class="cls-48" cx="900.25" cy="92.39" rx="1.3" ry="1.77" transform="translate(-2.78 33.09) rotate(-2.1)"/><polygon class="cls-48" points="901.54 92.18 900.26 92.29 898.98 92.4 899.5 90.63 900.02 88.86 900.78 90.52 901.54 92.18"/><g id="shiny-7-8" data-name="shiny-7"><g class="cls-232"><g class="cls-233"><g class="cls-232"><g class="cls-233"><g class="cls-234"><polygon class="cls-235" points="899.65 90.44 900.34 90.86 899.49 93 898.8 92.58 899.65 90.44"/></g></g></g></g></g></g></svg>
