<svg id="Layer_1" data-name="Layer 1" xmlns="http://www.w3.org/2000/svg" xmlns:xlink="http://www.w3.org/1999/xlink" width="1920" height="1080" viewBox="0 0 1920 1080"><defs><style>.cls-1{fill:url(#New_Gradient_Swatch_2);}.cls-2{fill:url(#linear-gradient);}.cls-3{fill:url(#New_Gradient_Swatch_4);}.cls-4{fill:url(#New_Gradient_Swatch_4-2);}.cls-5{fill:url(#New_Gradient_Swatch_4-3);}.cls-6{fill:url(#New_Gradient_Swatch_4-4);}.cls-7{fill:url(#linear-gradient-2);}.cls-8{fill:#77675a;}.cls-9{fill:#fff;}.cls-10{fill:url(#radial-gradient);}.cls-11,.cls-12,.cls-13,.cls-14{fill:none;stroke:#fff;stroke-miterlimit:10;}.cls-11{stroke-width:10px;}.cls-12{stroke-width:7px;}.cls-13{stroke-width:6px;}.cls-14{stroke-width:5px;}.cls-15{fill:#090c3f;}</style><linearGradient id="New_Gradient_Swatch_2" x1="962.85" y1="1082" x2="962.85" y2="592.15" gradientUnits="userSpaceOnUse"><stop offset="0" stop-color="#4d4d4d"/><stop offset="0.06" stop-color="#575757"/><stop offset="0.23" stop-color="#6d6d6d"/><stop offset="0.39" stop-color="#7b7b7b"/><stop offset="0.53" stop-color="gray"/><stop offset="1" stop-color="#009245"/></linearGradient><linearGradient id="linear-gradient" x1="962.85" y1="592.15" x2="962.85" gradientUnits="userSpaceOnUse"><stop offset="0" stop-color="#a2cbbc"/><stop offset="0.12" stop-color="#99c4b9"/><stop offset="0.32" stop-color="#80b2af"/><stop offset="0.57" stop-color="#5795a0"/><stop offset="0.86" stop-color="#1e6c8a"/><stop offset="1" stop-color="#00567f"/></linearGradient><linearGradient id="New_Gradient_Swatch_4" x1="166.71" y1="612.83" x2="614.89" y2="612.83" gradientUnits="userSpaceOnUse"><stop offset="0" stop-color="#f68d05"/><stop offset="0.16" stop-color="#f0860c"/><stop offset="0.65" stop-color="#e2741c"/><stop offset="1" stop-color="#dd6d22"/></linearGradient><linearGradient id="New_Gradient_Swatch_4-2" x1="55.38" y1="440.81" x2="726" y2="440.81" xlink:href="#New_Gradient_Swatch_4"/><linearGradient id="New_Gradient_Swatch_4-3" x1="345.31" y1="348.78" x2="433.8" y2="348.78" xlink:href="#New_Gradient_Swatch_4"/><linearGradient id="New_Gradient_Swatch_4-4" x1="343.64" y1="242.25" x2="434.98" y2="242.25" xlink:href="#New_Gradient_Swatch_4"/><linearGradient id="linear-gradient-2" x1="349.47" y1="666.1" x2="440.82" y2="666.1" gradientUnits="userSpaceOnUse"><stop offset="0" stop-color="#6a2300"/><stop offset="0.18" stop-color="#6e2601"/><stop offset="0.37" stop-color="#7b2e05"/><stop offset="0.56" stop-color="#8f3b0b"/><stop offset="0.75" stop-color="#ac4d14"/><stop offset="0.94" stop-color="#d1651e"/><stop offset="1" stop-color="#dd6d22"/></linearGradient><radialGradient id="radial-gradient" cx="1766.5" cy="132.56" r="98.72" gradientUnits="userSpaceOnUse"><stop offset="0" stop-color="#fffa2a"/><stop offset="0" stop-color="#fffa2c"/><stop offset="0.09" stop-color="#fef649"/><stop offset="0.18" stop-color="#fdf260"/><stop offset="0.28" stop-color="#fcf070"/><stop offset="0.39" stop-color="#fcee7a"/><stop offset="0.54" stop-color="#fcee7d"/><stop offset="0.65" stop-color="#fcef79"/><stop offset="0.75" stop-color="#fcf16e"/><stop offset="0.84" stop-color="#fdf55c"/><stop offset="0.93" stop-color="#fdfa42"/><stop offset="1" stop-color="#feff2a"/></radialGradient></defs><title>game_background_final</title><rect class="cls-1" y="592.15" width="1925.7" height="489.85"/><rect class="cls-2" width="1925.7" height="592.15"/><rect class="cls-3" x="166.71" y="495.79" width="448.18" height="234.08"/><polygon class="cls-4" points="726 507.77 390.69 512.89 55.38 518.02 221.9 440.81 388.41 363.61 557.21 435.69 726 507.77"/><rect class="cls-5" x="345.31" y="287.4" width="88.49" height="122.75"/><polygon class="cls-6" points="434.98 288.33 389.31 288.2 343.64 288.07 366.61 242.13 389.57 196.18 412.27 242.25 434.98 288.33"/><rect class="cls-7" x="349.47" y="599.11" width="91.35" height="133.99" rx="16"/><rect class="cls-8" x="392.29" y="601.41" width="2.85" height="128.46"/><circle class="cls-9" cx="380.87" cy="669.92" r="5.71"/><circle class="cls-9" cx="406.56" cy="669.92" r="5.71"/><circle class="cls-9" cx="389.44" cy="327.37" r="31.4"/><rect x="386.58" y="327.37" width="25.69" height="2.85"/><rect x="375.16" y="315.95" width="25.69" height="2.85" transform="translate(70.63 705.39) rotate(-90)"/><rect class="cls-9" x="500.77" y="550.03" width="62.8" height="88.49" rx="6.5"/><circle class="cls-10" cx="1766.5" cy="132.56" r="98.72"/><polygon class="cls-11" points="51.89 747.85 148.6 747.56 187.61 995.4 14.23 995.64 51.89 747.85"/><polygon class="cls-9" points="168.13 843.16 33.16 841.83 34.47 834.44 166.98 835.71 168.13 843.16"/><path class="cls-12" d="M97.27,993l-82.64-1.12,0-.15c5.17-31.82,42.53-54.94,83.39-54.4s78,24.8,82.33,56.94Z"/><path class="cls-12" d="M101.26,748.85l46.68.26v0c1.52,11.14-19.65,20.76-46.95,20.56s-48-10.08-46.27-21.16Z"/><path class="cls-13" d="M92,859.06c-16.56.09-29.16-9.75-28.18-21.36.93-11,13.77-19.52,28.73-19.61s27.58,8.3,28.21,19.27C121.45,849,108.59,859,92,859.06Z"/><rect x="530.77" y="550.03" width="3.61" height="89.06"/><rect x="530.77" y="561.46" width="3.61" height="63.79" transform="translate(-60.78 1125.93) rotate(-90)"/><rect class="cls-9" x="209.51" y="550.03" width="62.8" height="88.49" rx="6.5"/><rect x="239.51" y="550.03" width="3.61" height="89.06"/><rect x="239.51" y="561.46" width="3.61" height="63.79" transform="translate(-352.04 834.67) rotate(-90)"/><rect class="cls-12" x="85.73" y="682.21" width="35.79" height="53.05" rx="3.86" transform="translate(-79.27 16.21) rotate(-6.48)"/><path class="cls-12" d="M78.75,684c1.42-2.6,4.51-1.25,4.74,2.06l1.73,24.52L87,735.13c.23,3.31-2.63,5.08-4.4,2.71l-7.07-9.45L65.05,714.44a4.67,4.67,0,0,1-.34-4.77l8.37-15.28Z"/><rect class="cls-14" x="64.43" y="710.69" width="36.14" height="1.25" transform="translate(-84.7 15.02) rotate(-6.89)"/><path class="cls-12" d="M116.26,679.36c1.42-2.59,4.51-1.25,4.74,2.07l1.74,24.51,1.73,24.51c.24,3.32-2.63,5.08-4.4,2.72L113,723.71l-10.44-13.94a4.69,4.69,0,0,1-.34-4.78l8.37-15.28Z"/><rect class="cls-9" x="77.97" y="689.5" width="31.51" height="1.7" transform="translate(-37.2 6.08) rotate(-3.1)"/><rect class="cls-9" x="79.67" y="686.09" width="31.51" height="1.7" transform="translate(-37.01 6.17) rotate(-3.1)"/><rect class="cls-9" x="74.56" y="694.61" width="31.51" height="1.7" transform="translate(-37.48 5.9) rotate(-3.1)"/><rect class="cls-9" x="72.86" y="698.02" width="31.51" height="1.7" transform="translate(-37.66 5.81) rotate(-3.1)"/><rect class="cls-9" x="70.3" y="702.27" width="31.51" height="1.7" transform="translate(-37.9 5.68) rotate(-3.1)"/><rect class="cls-9" x="67.75" y="705.68" width="31.51" height="1.7" transform="translate(-38.09 5.55) rotate(-3.1)"/><rect class="cls-9" x="65.05" y="696.99" width="31.86" height="1.7" transform="translate(-620.51 659.57) rotate(-80.26)"/><rect class="cls-9" x="60.79" y="696.99" width="31.86" height="1.7" transform="translate(-624.04 655.37) rotate(-80.26)"/><rect class="cls-9" x="72.71" y="696.99" width="31.86" height="1.7" transform="translate(-614.14 667.12) rotate(-80.26)"/><rect class="cls-9" x="78.19" y="696.68" width="31.23" height="1.7" transform="translate(-609.54 671.95) rotate(-80.26)"/><rect class="cls-9" x="83.3" y="695.83" width="31.23" height="1.7" transform="translate(-604.45 676.28) rotate(-80.26)"/><rect class="cls-9" x="88.04" y="695.29" width="31.86" height="1.7" transform="translate(-599.72 680.82) rotate(-80.26)"/><rect class="cls-9" x="109.51" y="689.67" width="13.15" height="1.7" transform="translate(94.24 -9.35) rotate(7.76)"/><rect class="cls-9" x="107.8" y="693.93" width="13.15" height="1.7" transform="translate(94.8 -9.08) rotate(7.76)"/><rect class="cls-9" x="106.95" y="697.34" width="13.15" height="1.7" transform="translate(95.25 -8.93) rotate(7.76)"/><rect class="cls-9" x="106.95" y="701.59" width="13.15" height="1.7" transform="translate(95.83 -8.89) rotate(7.76)"/><rect class="cls-9" x="105.24" y="705.12" width="14.95" height="1.7" transform="translate(96.3 -8.75) rotate(7.76)"/><rect class="cls-9" x="103.53" y="708.65" width="16.75" height="1.7" transform="translate(96.77 -8.61) rotate(7.76)"/><rect class="cls-9" x="104.38" y="712.91" width="16.75" height="1.7" transform="translate(97.35 -8.69) rotate(7.76)"/><rect class="cls-9" x="106.93" y="716.32" width="16.75" height="1.7" transform="translate(97.83 -9) rotate(7.76)"/><rect class="cls-9" x="72.87" y="729.09" width="16.75" height="1.7" transform="translate(99.24 -4.29) rotate(7.76)"/><rect class="cls-9" x="70.31" y="723.98" width="16.75" height="1.7" transform="translate(98.53 -3.99) rotate(7.76)"/><rect class="cls-9" x="69.46" y="718.02" width="16.75" height="1.7" transform="translate(97.72 -3.93) rotate(7.76)"/><rect class="cls-9" x="66.05" y="712.06" width="16.75" height="1.7" transform="translate(96.88 -3.52) rotate(7.76)"/><rect class="cls-9" x="66.05" y="706.95" width="16.75" height="1.7" transform="translate(96.19 -3.57) rotate(7.76)"/><rect class="cls-9" x="66.41" y="702.77" width="15.54" height="1.7" transform="translate(95.63 -3.57) rotate(7.76)"/><rect class="cls-9" x="68.12" y="698.51" width="15.54" height="1.7" transform="translate(95.07 -3.84) rotate(7.76)"/><rect class="cls-9" x="70.64" y="694.42" width="13.85" height="1.7" transform="translate(118.77 -3.1) rotate(9.74)"/><rect class="cls-9" x="108.64" y="721.43" width="16.75" height="1.7" transform="translate(98.54 -9.18) rotate(7.76)"/><rect class="cls-9" x="56.82" y="706.97" width="31.23" height="1.54" transform="translate(-638.65 730.05) rotate(-85.95)"/><rect class="cls-9" x="59.78" y="707.32" width="33.65" height="1.54" transform="translate(-635.13 734.54) rotate(-85.95)"/><rect class="cls-9" x="63.19" y="711.58" width="33.65" height="1.54" transform="translate(-636.21 741.9) rotate(-85.95)"/><rect class="cls-9" x="65.75" y="718.39" width="33.65" height="1.54" transform="translate(-640.63 750.78) rotate(-85.95)"/><rect class="cls-9" x="93" y="704.77" width="33.65" height="1.54" transform="translate(-601.7 765.3) rotate(-85.95)"/><rect class="cls-9" x="99.81" y="708.17" width="33.65" height="1.54" transform="translate(-598.77 775.27) rotate(-85.95)"/><rect class="cls-9" x="96.41" y="703.91" width="33.65" height="1.54" transform="translate(-597.69 767.91) rotate(-85.95)"/><rect class="cls-9" x="103.22" y="713.28" width="33.65" height="1.54" transform="translate(-600.7 783.41) rotate(-85.95)"/><rect class="cls-15" x="340.61" y="540.4" width="107.12" height="43.33" rx="8.71"/><path class="cls-9" d="M363.27,555.51a4.67,4.67,0,0,0-3.24-1.38,2.39,2.39,0,0,0-1.87.66,1.71,1.71,0,0,0-.49,1.21,1.34,1.34,0,0,0,.43,1.07,7.56,7.56,0,0,0,2.43,1.1l1.44.55a7.77,7.77,0,0,1,2.63,1.47,4.83,4.83,0,0,1,1.41,3.58,6.91,6.91,0,0,1-1.7,4.77,7.46,7.46,0,0,1-5.46,2,8.21,8.21,0,0,1-3.81-.8,12.28,12.28,0,0,1-2.83-2.11l2.31-3.18a11.33,11.33,0,0,0,1.79,1.47,4.49,4.49,0,0,0,2.42.7,3.1,3.1,0,0,0,2-.67,2,2,0,0,0,.69-1.56,1.69,1.69,0,0,0-.66-1.38,9.11,9.11,0,0,0-2.26-1.07l-1.59-.55a6.5,6.5,0,0,1-2.68-1.53,4.75,4.75,0,0,1-1.16-3.35,5.92,5.92,0,0,1,1.68-4.34,6.2,6.2,0,0,1,4.76-1.76,9.28,9.28,0,0,1,5.72,1.91Z"/><path class="cls-9" d="M373.67,558.83l6.58-8h5.43l-7.79,9.13,8.4,10.14h-5.72l-6.9-8.55v8.55h-4.45V550.8h4.45Z"/><path class="cls-9" d="M404.43,553.17a10.24,10.24,0,0,1,0,14.5A10.26,10.26,0,0,1,397,570.5a10.58,10.58,0,0,1-7.51-2.83,9.83,9.83,0,0,1-3-7.16,10.8,10.8,0,0,1,3-7.31,11.39,11.39,0,0,1,15,0Zm-11.7,3a5.92,5.92,0,0,0-1.7,4.36,5.75,5.75,0,0,0,1.76,4.33,5.64,5.64,0,0,0,4.13,1.59,5.86,5.86,0,0,0,4.28-1.64,5.79,5.79,0,0,0,1.67-4.31,6.1,6.1,0,0,0-1.67-4.33,6.23,6.23,0,0,0-4.25-1.65A5.93,5.93,0,0,0,392.73,556.12Z"/><path class="cls-9" d="M415.21,550.8v15.52h6v3.75H410.76V550.8Z"/><path class="cls-9" d="M434.59,554.56h-6.44v3.73h6.12V562h-6.12v4.28h6.44v3.75H423.7V550.8h10.89Z"/></svg>
