<svg id="Layer_1" data-name="Layer 1" xmlns="http://www.w3.org/2000/svg" width="440" height="320" viewBox="0 0 440 320"><defs><style>.cls-1{fill:#152230;}.cls-2{fill:#f2902c;}.cls-3{fill:#fff;}</style></defs><title>ps_logo</title><path class="cls-1" d="M75.61,158.11c-2.15.73-3.64,2.42-5.39,3.73-6.14,4.62-12.21,9.32-18.32,14-.48.37-.92,1.09-1.62.8-.86-.34-.52-1.24-.52-1.9,0-9.45-.09-18.9,0-28.35,0-2.22-.67-2.65-2.71-2.6-6,.13-12,.08-18,0a12.52,12.52,0,0,1-12.66-12.88c0-34.53.17-69-.08-103.57-.06-8.81,6.26-14.29,14.32-14.28q189.95.21,379.9.1c7.8,0,13.09,5.27,13.09,13.11q0,52.26,0,104.53c0,6.55-3.43,10.83-10.37,12.9-1.36,0-2.72.07-4.08.07H183.42q-43.48,0-87,0a6.85,6.85,0,0,0-4.84,1.54c-3.05,2.57-6.44,4.74-9.51,7.29C79.93,154.39,77.21,155.61,75.61,158.11Z"/><path class="cls-2" d="M75.61,158.11c1.6-2.5,4.32-3.72,6.5-5.54,3.07-2.55,6.46-4.72,9.51-7.29a6.85,6.85,0,0,1,4.84-1.54q43.49,0,87,0h225.8c1.36,0,2.72-.05,4.08-.07.76,1.45,2.45,1.29,3.62,2.06a12.32,12.32,0,0,1,6,11c0,34.6-.13,69.21.1,103.8a13.52,13.52,0,0,1-13.95,13.93q-92.75-.18-185.5-.06c-22.34,0-44.69.05-67,0a9.92,9.92,0,0,0-6.52,2.26q-15.7,12.17-31.48,24.25c-2.4,1.85-4.87,3.6-7.28,5.43-1.5,1.14-2.05.74-2-1.07q0-13.58-.07-27.15c0-3.62-.07-3.67-3.61-3.68-5.45,0-10.9-.17-16.34.05-7.61.3-13.65-5.79-13.62-13.74.13-33.4.06-66.8.06-100.2C75.67,159.71,75.63,158.91,75.61,158.11Z"/><path class="cls-3" d="M85.92,112.17H68.36V44.58h28q11.39,0,17.43,5.92t6,16.67q0,10.76-6,16.67T96.32,89.76H85.92Zm0-36.57h5.83q9.68,0,9.68-8.43t-9.68-8.42H85.92Z"/><path class="cls-3" d="M181.9,112.17H160l-16.76-26v26H125.7V44.58H153a26.93,26.93,0,0,1,9.86,1.66A18.57,18.57,0,0,1,174,57.4a23,23,0,0,1,1.39,8.07q0,7.71-3.72,12.5t-11,6.5ZM143.26,74.79h3.32q5.19,0,8-2.15a7.38,7.38,0,0,0,2.78-6.19,7.36,7.36,0,0,0-2.78-6.18q-2.79-2.15-8-2.15h-3.32Z"/><path class="cls-3" d="M204.83,44.58v67.59H187.26V44.58Z"/><path class="cls-3" d="M229,44.58l16.31,41.15,16.4-41.15h19.1l-28.51,67.59h-14L209.92,44.58Z"/><path class="cls-3" d="M319.06,100.91H294l-4,11.74H271.19l25.73-67.59H316.1l25.72,67.59H323.09ZM314.4,87.55l-7.89-22.5-7.89,22.5Z"/><path class="cls-3" d="M367.82,59.94v52.71H350.25V59.94H335.82V45.06h46.43V59.94Z"/><path class="cls-3" d="M164.67,191.94A21.74,21.74,0,0,0,159,188.5a15.29,15.29,0,0,0-5.54-1.12,9,9,0,0,0-5.54,1.61,5,5,0,0,0-2.15,4.2,4.14,4.14,0,0,0,1.08,2.95,9.09,9.09,0,0,0,2.81,2,23.89,23.89,0,0,0,3.93,1.48c1.46.42,2.91.86,4.34,1.34q8.58,2.86,12.56,7.64t4,12.47a24.32,24.32,0,0,1-1.75,9.39,19.54,19.54,0,0,1-5.09,7.19,23.47,23.47,0,0,1-8.23,4.65,34.25,34.25,0,0,1-11,1.65,40.61,40.61,0,0,1-23.68-7.59l7.51-14.13a30.26,30.26,0,0,0,7.77,5.19,18.74,18.74,0,0,0,7.6,1.7q4.29,0,6.39-2a6,6,0,0,0,2.1-4.47,6.19,6.19,0,0,0-.53-2.64,5.76,5.76,0,0,0-1.79-2.05,14.42,14.42,0,0,0-3.26-1.75c-1.35-.53-3-1.13-4.88-1.78q-3.39-1.08-6.65-2.37a20.86,20.86,0,0,1-5.82-3.44,16.14,16.14,0,0,1-4.11-5.41A19.18,19.18,0,0,1,127.4,195a23.9,23.9,0,0,1,1.65-9.07,20,20,0,0,1,4.65-7,20.82,20.82,0,0,1,7.33-4.52,27.76,27.76,0,0,1,9.7-1.61,42.73,42.73,0,0,1,10.46,1.39,45.76,45.76,0,0,1,10.45,4.07Z"/><path class="cls-3" d="M181,242.09v-67.4h17.52l32.36,41.21V174.69h17.43v67.4H230.91l-32.36-41.21v41.21Z"/><path class="cls-3" d="M299.55,230.38h-25l-4,11.71H251.82l25.66-67.4H296.6l25.66,67.4H303.58Zm-4.64-13.32L287,194.62l-7.87,22.44Z"/><path class="cls-3" d="M343.08,202.49l21.37-27.8h21.63L359.35,206.6l29.23,35.49h-22.7l-22.8-29.23v29.23H325.56v-67.4h17.52Z"/></svg>
