<svg id="Layer_1" data-name="Layer 1" xmlns="http://www.w3.org/2000/svg" width="280" height="100" viewBox="0 0 280 100"><defs><style>.cls-1{fill:#ebebed;}.cls-2{fill:none;stroke-linecap:round;stroke-miterlimit:10;}.cls-2,.cls-3{stroke:#324852;stroke-width:7px;}.cls-3{fill:#324852;stroke-linejoin:round;}</style></defs><title>replayknap</title><circle class="cls-1" cx="43.03" cy="50.42" r="37.14"/><path class="cls-2" d="M43,32A18.4,18.4,0,1,1,27.78,60.71"/><polygon class="cls-3" points="31.13 36.46 35.74 31.63 40.36 26.8 42.23 33.22 44.11 39.63 37.62 38.05 31.13 36.46"/><path class="cls-1" d="M103,56.4a9,9,0,0,0,5.85,2.6,3.34,3.34,0,0,0,2.56-.88,2.24,2.24,0,0,0,.65-1.61,2,2,0,0,0-.72-1.52A9,9,0,0,0,108,53.65l-1.72-.54a8.33,8.33,0,0,1-3.67-2.06,6.43,6.43,0,0,1-1.45-4.52,8.33,8.33,0,0,1,2.33-6.15A9,9,0,0,1,110.06,38,17.89,17.89,0,0,1,117.93,40l-2.64,5.17a6.68,6.68,0,0,0-4.35-1.72,3.18,3.18,0,0,0-2.18.76,1.85,1.85,0,0,0-.65,1.38,1.66,1.66,0,0,0,.34,1.14,4.18,4.18,0,0,0,2.22,1.15l2,.61a9.74,9.74,0,0,1,4.62,2.53A6,6,0,0,1,119,55.6,8.65,8.65,0,0,1,116.56,62c-2.18,2.18-4.82,2.6-7.53,2.6a13.57,13.57,0,0,1-5-.84,17.23,17.23,0,0,1-3.87-2Z"/><path class="cls-1" d="M129.75,55.6v8.45h-6.62V38.54h10.56a8.76,8.76,0,0,1,6.46,2.3A7.89,7.89,0,0,1,142.52,47a8.32,8.32,0,0,1-2.25,6.35,8.5,8.5,0,0,1-6.35,2.22Zm0-5.36H132a4.3,4.3,0,0,0,2.79-.8,2.93,2.93,0,0,0,.84-2.33,3.14,3.14,0,0,0-.76-2.3A3.9,3.9,0,0,0,132,43.9h-2.26Z"/><path class="cls-1" d="M152.65,38.54V64.05H146V38.54Z"/><path class="cls-1" d="M164.62,38.54V58.43h7.95v5.62H158V38.54Z"/><path class="cls-1" d="M191.5,38.54V64.05h-6.61V38.54Z"/><path class="cls-1" d="M209.09,49.59h13.16c0,5-1,8.65-4.1,11.48a12.45,12.45,0,0,1-9,3.21,13.18,13.18,0,0,1-9.79-3.79,12.85,12.85,0,0,1-3.67-9.21,13.27,13.27,0,0,1,3.82-9.56,14.83,14.83,0,0,1,16.79-2,12.47,12.47,0,0,1,4.55,5.24l-6.31,2.6A6.18,6.18,0,0,0,212.72,45a5.32,5.32,0,0,0-3.55-1.26,6.16,6.16,0,0,0-4.36,1.75,8.64,8.64,0,0,0-2.22,5.85,8,8,0,0,0,2,5.51,6,6,0,0,0,4.66,2A5.46,5.46,0,0,0,213,57.59a4.57,4.57,0,0,0,1.57-2.83h-5.43Z"/><path class="cls-1" d="M240.94,44.16h-7.87v4.25h7.45V54h-7.45v4.4h7.87v5.62H226.45V38.54h14.49Z"/><path class="cls-1" d="M245.15,64.05V38.54h6.61L264,54.14V38.54h6.62V64.05H264l-12.2-15.6v15.6Z"/></svg>
