<svg id="Layer_1" data-name="Layer 1" xmlns="http://www.w3.org/2000/svg" width="750" height="220" viewBox="0 0 750 220"><defs><style>.cls-1{fill:#f2902c;}.cls-2{fill:#fff;}</style></defs><title>videreknap</title><path class="cls-1" d="M581,76.82h-2V82.3h1.35a3.78,3.78,0,0,0,2.45-.72,2.5,2.5,0,0,0,.82-2,2.88,2.88,0,0,0-.63-1.93A2.54,2.54,0,0,0,581,76.82Z"/><path class="cls-1" d="M183.51,78.74h-.44a16.09,16.09,0,0,1-.53,3.61L181,88.51h4.67l-1.5-6.16A33.73,33.73,0,0,1,183.51,78.74Z"/><path class="cls-1" d="M542.68,77.63a5.55,5.55,0,0,0-4.18,1.64,7.2,7.2,0,0,0-1.83,4.82,6.79,6.79,0,0,0,1.83,4.76,6.16,6.16,0,0,0,8.37,0,6.71,6.71,0,0,0,1.83-4.76,6.52,6.52,0,0,0-1.83-4.82A5.82,5.82,0,0,0,542.68,77.63Z"/><path class="cls-1" d="M218.31,77.83h-1.25V90.3h.86a7,7,0,0,0,5-1.5,6,6,0,0,0,1.88-4.62,6.69,6.69,0,0,0-1.88-4.81A6.56,6.56,0,0,0,218.31,77.83Z"/><path class="cls-1" d="M306.49,78.74h-.43a16.68,16.68,0,0,1-.53,3.61l-1.59,6.16h4.67l-1.49-6.16A33.84,33.84,0,0,1,306.49,78.74Z"/><path class="cls-1" d="M719.86,11.22H32.37a12,12,0,0,0-12,12V142.83a12,12,0,0,0,12,12h438.8L488.9,176,520.55,213l-7.06-58.14H719.86a12,12,0,0,0,12-12V23.22A12,12,0,0,0,719.86,11.22Zm-592.38,88.9H116.26V89h-7.12v11.17H97.92V68h11.22V78.89h7.12V68h11.22Zm16.89,0L131.9,68h12.18l4.48,15.11a22.49,22.49,0,0,1,.72,4.29h.29a19.23,19.23,0,0,1,.68-4.29L154.63,68h12.18l-12.42,32.11Zm44.34,0-1.06-4h-8.86l-.87,4H165.6L176.72,68h12.9l11.46,32.11Zm43.56-4.53a15.76,15.76,0,0,1-11.51,4.53H205.5V68h12.38c2.69,0,9.53.24,14.2,4.86,2.07,2.07,4.33,5.68,4.33,11.6C236.41,87.79,235.79,92.08,232.27,95.59Zm41.3,4.53-5.88-10.31a32.75,32.75,0,0,1-1.54-3.08h-.24a15.89,15.89,0,0,1,.24,3v10.35H255V68h11.16V78a27.52,27.52,0,0,1-.24,4h.24a21.66,21.66,0,0,1,1.69-3.61L273.38,68H286L276,83.75l11.08,16.37Zm38.12,0-1.06-4h-8.86l-.86,4H288.58L299.7,68h12.9l11.46,32.11Zm48.91,0H349.43l-8-12.66a42.29,42.29,0,0,1-2.22-4.19h-.33a40.51,40.51,0,0,1,.72,5.92v10.93H328.49V68h11.12l7.46,12.13a34.82,34.82,0,0,1,3,5.68h.34a37.81,37.81,0,0,1-1-7.61V68H360.6Zm36.86-9.73a10.19,10.19,0,0,1-2.88,7.18,11,11,0,0,1-8,3.27,14.14,14.14,0,0,1-8.28-2.6l-1.3-.91,4.23-9.92.24.82a5,5,0,0,0,1.06,2,2,2,0,0,0,1.5.58,1.68,1.68,0,0,0,1.34-.58,3.78,3.78,0,0,0,.68-2.36V68h11.45ZM427,100.12H405.07V68h21.66v8.81h-10v3h9.1v8.43h-9.1v3.08H427Zm8.9-4.58a16,16,0,0,1-4.14-11.41c0-5.87,2.26-9.58,4.43-11.79,2.6-2.7,7-5,13.48-5a19.25,19.25,0,0,1,9.44,2.26,14.91,14.91,0,0,1,6.16,5.92l-10.88,4A5,5,0,0,0,450,77.06a6,6,0,0,0-4.09,1.49,8.88,8.88,0,0,0-.24,11.79,5.32,5.32,0,0,0,3.8,1.45c1.73,0,4-.63,4.77-2.75h-5.3v-7.6H467v.72c0,4-.33,9.29-4.18,13.43-3.18,3.42-8.33,5.25-13.63,5.25C442.42,100.84,438.33,98.14,435.92,95.54Zm83.37-13.38c0,4-.33,9.29-4.18,13.43-3.18,3.42-8.33,5.25-13.63,5.25-6.74,0-10.83-2.7-13.24-5.3a16,16,0,0,1-4.14-11.41c0-5.87,2.27-9.58,4.43-11.79,2.6-2.7,7-5,13.48-5a19.25,19.25,0,0,1,9.44,2.26,14.91,14.91,0,0,1,6.16,5.92l-10.88,4a5,5,0,0,0-4.43-2.45,6,6,0,0,0-4.09,1.49A8.88,8.88,0,0,0,498,90.34a5.32,5.32,0,0,0,3.8,1.45c1.73,0,4-.63,4.77-2.75h-5.3v-7.6h18ZM560.5,84A16.4,16.4,0,0,1,556,95.69c-2.75,2.84-7.22,5.15-13.34,5.15a19,19,0,0,1-9.58-2.31l-4.57,4.52-5-4.57,4.53-4.33a15.57,15.57,0,0,1-3.23-10,16.4,16.4,0,0,1,4.48-11.69c2.6-2.75,6.74-5.15,13.33-5.15a20,20,0,0,1,9.78,2.4L557,65.17l4.81,4.57-4.52,4.38A15.51,15.51,0,0,1,560.5,84Zm23.72,16.08-4.62-9.39a5.33,5.33,0,0,1-.43-1l-.19.09v10.31H567.62V68h14.49c3.37,0,6.88.38,9.82,3.32a10.65,10.65,0,0,1,3,7.89A8.68,8.68,0,0,1,593.18,85a7.59,7.59,0,0,1-4.43,2.55v.29a4.54,4.54,0,0,1,1.69,1.5l7.22,10.83Zm40.78,0H603V68h21.67v8.81h-10v3h9.1v8.43h-9.1v3.08H625Zm22.67-1.25a7.32,7.32,0,0,1-9.68,0,5,5,0,0,1,0-7.08,7.32,7.32,0,0,1,9.68,0,5,5,0,0,1,0,7.08ZM653.06,85c-2.7,2.8-7,3.08-9.73,3.08a19.32,19.32,0,0,1-4.19-.38V80.38a5.69,5.69,0,0,0,2.32.43,3.76,3.76,0,0,0,2.64-.91,3.39,3.39,0,0,0,1-2.55,2.31,2.31,0,0,0-.63-1.78A1.88,1.88,0,0,0,643,75a2.15,2.15,0,0,0-1.63.67,3.67,3.67,0,0,0-.63,2.26H629.9a12.46,12.46,0,0,1,3.42-7.12c2-2,5.15-3.56,9.82-3.56s7.8,1.68,9.53,3.36a9.82,9.82,0,0,1,2.94,7.18A10.17,10.17,0,0,1,653.06,85Z"/><polygon class="cls-2" points="116.27 78.89 109.14 78.89 109.14 68.01 97.92 68.01 97.92 100.12 109.14 100.12 109.14 88.95 116.27 88.95 116.27 100.12 127.48 100.12 127.48 68.01 116.27 68.01 116.27 78.89"/><path class="cls-2" d="M154.63,68l-4.38,15.11a19.23,19.23,0,0,0-.68,4.29h-.29a22.49,22.49,0,0,0-.72-4.29L144.08,68H131.9l12.47,32.11h10L166.81,68Z"/><path class="cls-2" d="M176.72,68,165.6,100.12h12.32l.87-4h8.86l1.06,4h12.37L189.62,68ZM181,88.51l1.58-6.16a16.09,16.09,0,0,0,.53-3.61h.44a33.73,33.73,0,0,0,.62,3.61l1.5,6.16Z"/><path class="cls-2" d="M217.88,68H205.5v32.11h15.26a15.76,15.76,0,0,0,11.51-4.53c3.52-3.51,4.14-7.8,4.14-11.12,0-5.92-2.26-9.53-4.33-11.6C227.41,68.25,220.57,68,217.88,68Zm5,20.79a7,7,0,0,1-5,1.5h-.86V77.83h1.25a6.56,6.56,0,0,1,4.57,1.54,6.69,6.69,0,0,1,1.88,4.81A6,6,0,0,1,222.88,88.8Z"/><path class="cls-2" d="M286,68H273.38l-5.54,10.4A21.66,21.66,0,0,0,266.15,82h-.24a27.52,27.52,0,0,0,.24-4V68H255v32.11h11.16V89.77a15.89,15.89,0,0,0-.24-3h.24a32.75,32.75,0,0,0,1.54,3.08l5.88,10.31h13.48L276,83.75Z"/><path class="cls-2" d="M299.7,68l-11.12,32.11h12.33l.86-4h8.86l1.06,4h12.37L312.6,68Zm4.24,20.5,1.59-6.16a16.68,16.68,0,0,0,.53-3.61h.43a33.84,33.84,0,0,0,.63,3.61l1.49,6.16Z"/><path class="cls-2" d="M349.43,78.21a37.81,37.81,0,0,0,1,7.61h-.34a34.82,34.82,0,0,0-3-5.68L339.61,68H328.49v32.11h11.12V89.19a40.51,40.51,0,0,0-.72-5.92h.33a42.29,42.29,0,0,0,2.22,4.19l8,12.66H360.6V68H349.43Z"/><path class="cls-2" d="M386,87.84a3.78,3.78,0,0,1-.68,2.36,1.68,1.68,0,0,1-1.34.58,2,2,0,0,1-1.5-.58,5,5,0,0,1-1.06-2l-.24-.82L377,97.33l1.3.91a14.14,14.14,0,0,0,8.28,2.6,11,11,0,0,0,8-3.27,10.19,10.19,0,0,0,2.88-7.18V68H386Z"/><polygon class="cls-2" points="416.72 88.23 425.82 88.23 425.82 79.8 416.72 79.8 416.72 76.82 426.73 76.82 426.73 68.01 405.07 68.01 405.07 100.12 427.02 100.12 427.02 91.31 416.72 91.31 416.72 88.23"/><path class="cls-2" d="M467,82.16v-.72H448.92V89h5.3c-.77,2.12-3,2.75-4.77,2.75a5.32,5.32,0,0,1-3.8-1.45,8.88,8.88,0,0,1,.24-11.79A6,6,0,0,1,450,77.06a5,5,0,0,1,4.43,2.45l10.88-4a14.91,14.91,0,0,0-6.16-5.92,19.25,19.25,0,0,0-9.44-2.26c-6.45,0-10.88,2.35-13.48,5-2.17,2.21-4.43,5.92-4.43,11.79a16,16,0,0,0,4.14,11.41c2.41,2.6,6.5,5.3,13.24,5.3,5.3,0,10.45-1.83,13.63-5.25C466.64,91.45,467,86.11,467,82.16Z"/><path class="cls-2" d="M501.24,89h5.3c-.77,2.12-3,2.75-4.77,2.75a5.32,5.32,0,0,1-3.8-1.45,8.88,8.88,0,0,1,.24-11.79,6,6,0,0,1,4.09-1.49,5,5,0,0,1,4.43,2.45l10.88-4a14.91,14.91,0,0,0-6.16-5.92A19.25,19.25,0,0,0,502,67.29c-6.45,0-10.88,2.35-13.48,5-2.16,2.21-4.43,5.92-4.43,11.79a16,16,0,0,0,4.14,11.41c2.41,2.6,6.5,5.3,13.24,5.3,5.3,0,10.45-1.83,13.63-5.25,3.85-4.14,4.18-9.48,4.18-13.43v-.72h-18Z"/><path class="cls-2" d="M557,65.17l-4.57,4.52a20,20,0,0,0-9.78-2.4c-6.59,0-10.73,2.4-13.33,5.15a16.4,16.4,0,0,0-4.48,11.69,15.57,15.57,0,0,0,3.23,10l-4.53,4.33,5,4.57,4.57-4.52a19,19,0,0,0,9.58,2.31c6.12,0,10.59-2.31,13.34-5.15A16.4,16.4,0,0,0,560.5,84a15.51,15.51,0,0,0-3.18-9.92l4.52-4.38ZM546.87,88.85a6.16,6.16,0,0,1-8.37,0,6.79,6.79,0,0,1-1.83-4.76,7.2,7.2,0,0,1,1.83-4.82,5.55,5.55,0,0,1,4.18-1.64,5.82,5.82,0,0,1,4.19,1.64,6.52,6.52,0,0,1,1.83,4.82A6.71,6.71,0,0,1,546.87,88.85Z"/><path class="cls-2" d="M588.75,87.79V87.5A7.59,7.59,0,0,0,593.18,85,8.68,8.68,0,0,0,595,79.22a10.65,10.65,0,0,0-3-7.89C589,68.39,585.48,68,582.11,68H567.62v32.11H579V89.81l.19-.09a5.33,5.33,0,0,0,.43,1l4.62,9.39h13.44l-7.22-10.83A4.54,4.54,0,0,0,588.75,87.79Zm-6-6.21a3.78,3.78,0,0,1-2.45.72H579V76.82h2a2.54,2.54,0,0,1,2,.86,2.88,2.88,0,0,1,.63,1.93A2.5,2.5,0,0,1,582.78,81.58Z"/><polygon class="cls-2" points="614.69 88.23 623.79 88.23 623.79 79.8 614.69 79.8 614.69 76.82 624.71 76.82 624.71 68.01 603.04 68.01 603.04 100.12 625 100.12 625 91.31 614.69 91.31 614.69 88.23"/><path class="cls-2" d="M642.8,90A7,7,0,0,0,638,91.79a5,5,0,0,0,0,7.08,7.32,7.32,0,0,0,9.68,0,5,5,0,0,0,0-7.08A7.08,7.08,0,0,0,642.8,90Z"/><path class="cls-2" d="M643.14,67.29c-4.67,0-7.8,1.54-9.82,3.56A12.46,12.46,0,0,0,629.9,78h10.88a3.67,3.67,0,0,1,.63-2.26A2.15,2.15,0,0,1,643,75a1.88,1.88,0,0,1,1.4.53,2.31,2.31,0,0,1,.63,1.78,3.39,3.39,0,0,1-1,2.55,3.76,3.76,0,0,1-2.64.91,5.69,5.69,0,0,1-2.32-.43v7.27a19.32,19.32,0,0,0,4.19.38c2.75,0,7-.28,9.73-3.08a10.17,10.17,0,0,0,2.55-7.12,9.82,9.82,0,0,0-2.94-7.18C650.94,69,647.91,67.29,643.14,67.29Z"/></svg>
