<?xml version="1.0" encoding="utf-8"?>
<!-- Generator: Adobe Illustrator 23.0.1, SVG Export Plug-In . SVG Version: 6.00 Build 0)  -->
<svg version="1.1" id="Layer_1" xmlns="http://www.w3.org/2000/svg" xmlns:xlink="http://www.w3.org/1999/xlink" x="0px" y="0px"
	 viewBox="0 0 1920 1080" style="enable-background:new 0 0 1920 1080;" xml:space="preserve">
<style type="text/css">
	.st0{fill:url(#SVGID_1_);}
	.st1{fill:url(#SVGID_2_);}
	.st2{fill:url(#SVGID_3_);}
	.st3{fill:url(#SVGID_4_);}
	.st4{fill:url(#SVGID_5_);}
	.st5{fill:url(#SVGID_6_);}
	.st6{fill:url(#SVGID_7_);}
	.st7{fill:#77675A;}
	.st8{fill:#FFFFFF;}
	.st9{fill:#FFE20A;}
	.st10{fill:none;stroke:#FFFFFF;stroke-width:10;stroke-miterlimit:10;}
	.st11{fill:none;stroke:#FFFFFF;stroke-width:7;stroke-miterlimit:10;}
	.st12{fill:none;stroke:#FFFFFF;stroke-width:6;stroke-miterlimit:10;}
	.st13{fill:none;stroke:#FFFFFF;stroke-width:5;stroke-miterlimit:10;}
	.st14{fill:#090C3F;}
</style>
<title>game_background_final</title>
<linearGradient id="SVGID_1_" gradientUnits="userSpaceOnUse" x1="962.85" y1="-2" x2="962.85" y2="487.85" gradientTransform="matrix(1 0 0 -1 0 1080)">
	<stop  offset="0" style="stop-color:#4D4D4D"/>
	<stop  offset="6.000000e-02" style="stop-color:#575757"/>
	<stop  offset="0.53" style="stop-color:#9F9FA0"/>
	<stop  offset="1" style="stop-color:#17C2A2"/>
</linearGradient>
<rect y="592.2" class="st0" width="1925.7" height="489.8"/>
<linearGradient id="SVGID_2_" gradientUnits="userSpaceOnUse" x1="962.85" y1="487.85" x2="962.85" y2="1080" gradientTransform="matrix(1 0 0 -1 0 1080)">
	<stop  offset="0.1605" style="stop-color:#88C3DE"/>
	<stop  offset="0.3254" style="stop-color:#86BFDA"/>
	<stop  offset="0.4864" style="stop-color:#7FB4CE"/>
	<stop  offset="0.6458" style="stop-color:#75A0BB"/>
	<stop  offset="0.8043" style="stop-color:#66859F"/>
	<stop  offset="0.9608" style="stop-color:#52637C"/>
	<stop  offset="1" style="stop-color:#4D5972"/>
</linearGradient>
<rect class="st1" width="1925.7" height="592.2"/>
<linearGradient id="SVGID_3_" gradientUnits="userSpaceOnUse" x1="166.71" y1="467.17" x2="614.89" y2="467.17" gradientTransform="matrix(1 0 0 -1 0 1080)">
	<stop  offset="0" style="stop-color:#F2902C"/>
	<stop  offset="0.16" style="stop-color:#F0860C"/>
	<stop  offset="0.65" style="stop-color:#E2741C"/>
	<stop  offset="1" style="stop-color:#DD6D22"/>
</linearGradient>
<rect x="166.7" y="495.8" class="st2" width="448.2" height="234.1"/>
<linearGradient id="SVGID_4_" gradientUnits="userSpaceOnUse" x1="55.38" y1="639.185" x2="726" y2="639.185" gradientTransform="matrix(1 0 0 -1 0 1080)">
	<stop  offset="0" style="stop-color:#F68D05"/>
	<stop  offset="0.16" style="stop-color:#F0860C"/>
	<stop  offset="0.65" style="stop-color:#E2741C"/>
	<stop  offset="1" style="stop-color:#DD6D22"/>
</linearGradient>
<polygon class="st3" points="726,507.8 390.7,512.9 55.4,518 221.9,440.8 388.4,363.6 557.2,435.7 "/>
<linearGradient id="SVGID_5_" gradientUnits="userSpaceOnUse" x1="345.31" y1="731.225" x2="433.8" y2="731.225" gradientTransform="matrix(1 0 0 -1 0 1080)">
	<stop  offset="0" style="stop-color:#F68D05"/>
	<stop  offset="0.16" style="stop-color:#F0860C"/>
	<stop  offset="0.65" style="stop-color:#E2741C"/>
	<stop  offset="1" style="stop-color:#DD6D22"/>
</linearGradient>
<rect x="345.3" y="287.4" class="st4" width="88.5" height="122.8"/>
<linearGradient id="SVGID_6_" gradientUnits="userSpaceOnUse" x1="343.64" y1="837.745" x2="434.98" y2="837.745" gradientTransform="matrix(1 0 0 -1 0 1080)">
	<stop  offset="0" style="stop-color:#F68D05"/>
	<stop  offset="0.16" style="stop-color:#F0860C"/>
	<stop  offset="0.65" style="stop-color:#E2741C"/>
	<stop  offset="1" style="stop-color:#DD6D22"/>
</linearGradient>
<polygon class="st5" points="435,288.3 389.3,288.2 343.6,288.1 366.6,242.1 389.6,196.2 412.3,242.2 "/>
<linearGradient id="SVGID_7_" gradientUnits="userSpaceOnUse" x1="349.47" y1="417.125" x2="440.82" y2="417.125" gradientTransform="matrix(1 0 0 -1 0 1080)">
	<stop  offset="0" style="stop-color:#6A2300"/>
	<stop  offset="0.18" style="stop-color:#6E2601"/>
	<stop  offset="0.37" style="stop-color:#7B2E05"/>
	<stop  offset="0.56" style="stop-color:#8F3B0B"/>
	<stop  offset="0.75" style="stop-color:#AC4D14"/>
	<stop  offset="0.94" style="stop-color:#D1651E"/>
	<stop  offset="1" style="stop-color:#DD6D22"/>
</linearGradient>
<path class="st6" d="M365.5,595.9h59.4c8.8,0,16,7.2,16,16v118h-91.4v-118C349.5,603,356.6,595.9,365.5,595.9z"/>
<rect x="393.7" y="595.9" class="st7" width="2.9" height="134"/>
<circle class="st8" cx="380.9" cy="669.9" r="5.7"/>
<circle class="st8" cx="406.6" cy="669.9" r="5.7"/>
<circle class="st8" cx="389.4" cy="327.4" r="31.4"/>
<rect x="386.6" y="327.4" width="25.7" height="2.9"/>
<rect x="386.6" y="304.5" width="2.9" height="25.7"/>
<path class="st8" d="M507.3,550h49.8c3.6,0,6.5,2.9,6.5,6.5V632c0,3.6-2.9,6.5-6.5,6.5h-49.8c-3.6,0-6.5-2.9-6.5-6.5v-75.5
	C500.8,552.9,503.7,550,507.3,550z"/>
<g>
	<circle class="st9" cx="1766.5" cy="132.6" r="98.7"/>
</g>
<polygon class="st10" points="51.9,747.8 148.6,747.6 187.6,995.4 14.2,995.6 "/>
<polygon class="st8" points="168.1,843.2 33.2,841.8 34.5,834.4 167,835.7 "/>
<path class="st11" d="M97.3,993l-82.6-1.1v-0.2c5.2-31.8,42.5-54.9,83.4-54.4s78,24.8,82.3,56.9L97.3,993z"/>
<path class="st11" d="M101.3,748.8l46.7,0.3l0,0c1.5,11.1-19.6,20.8-46.9,20.6s-48-10.1-46.3-21.2L101.3,748.8z"/>
<path class="st12" d="M92,859.1c-16.6,0.1-29.2-9.8-28.2-21.4c0.9-11,13.8-19.5,28.7-19.6s27.6,8.3,28.2,19.3
	C121.4,849,108.6,859,92,859.1z"/>
<rect x="530.8" y="550" width="3.6" height="89.1"/>
<rect x="500.7" y="591.6" width="63.8" height="3.6"/>
<path class="st8" d="M216,550h49.8c3.6,0,6.5,2.9,6.5,6.5V632c0,3.6-2.9,6.5-6.5,6.5H216c-3.6,0-6.5-2.9-6.5-6.5v-75.5
	C209.5,552.9,212.4,550,216,550z"/>
<rect x="239.5" y="550" width="3.6" height="89.1"/>
<rect x="209.4" y="591.5" width="63.8" height="3.6"/>
<path class="st11" d="M86.7,684l27.9-3.2c2.1-0.2,4,1.3,4.3,3.4l5.1,45c0.2,2.1-1.3,4-3.4,4.3l-27.9,3.2c-2.1,0.2-4-1.3-4.3-3.4
	l-5.1-45C83.1,686.1,84.6,684.2,86.7,684z"/>
<path class="st11" d="M78.8,684c1.4-2.6,4.5-1.2,4.7,2.1l1.7,24.5l1.8,24.5c0.2,3.3-2.6,5.1-4.4,2.7l-7.1-9.5l-10.5-14
	c-1-1.4-1.1-3.2-0.3-4.8l8.4-15.3L78.8,684z"/>
<rect x="64.5" y="710.7" transform="matrix(0.9928 -0.12 0.12 0.9928 -84.7342 15.0381)" class="st13" width="36.1" height="1.2"/>
<path class="st11" d="M116.3,679.4c1.4-2.6,4.5-1.2,4.7,2.1l1.7,24.5l1.7,24.5c0.2,3.3-2.6,5.1-4.4,2.7l-7.1-9.5l-10.4-13.9
	c-1-1.4-1.1-3.2-0.3-4.8l8.4-15.3L116.3,679.4z"/>
<rect x="78" y="689.5" transform="matrix(0.9985 -5.407881e-02 5.407881e-02 0.9985 -37.1962 6.0785)" class="st8" width="31.5" height="1.7"/>
<rect x="79.7" y="686.1" transform="matrix(0.9985 -5.407881e-02 5.407881e-02 0.9985 -37.0095 6.1657)" class="st8" width="31.5" height="1.7"/>
<rect x="74.6" y="694.6" transform="matrix(0.9985 -5.407881e-02 5.407881e-02 0.9985 -37.4774 5.9017)" class="st8" width="31.5" height="1.7"/>
<rect x="72.9" y="698" transform="matrix(0.9985 -5.407881e-02 5.407881e-02 0.9985 -37.6641 5.8151)" class="st8" width="31.5" height="1.7"/>
<rect x="70.3" y="702.3" transform="matrix(0.9985 -5.407881e-02 5.407881e-02 0.9985 -37.8978 5.6825)" class="st8" width="31.5" height="1.7"/>
<rect x="67.7" y="705.7" transform="matrix(0.9985 -5.407881e-02 5.407881e-02 0.9985 -38.0861 5.5495)" class="st8" width="31.5" height="1.7"/>
<rect x="65" y="697" transform="matrix(0.1692 -0.9856 0.9856 0.1692 -620.4849 659.5652)" class="st8" width="31.9" height="1.7"/>
<rect x="60.8" y="697" transform="matrix(0.1692 -0.9856 0.9856 0.1692 -624.0151 655.3747)" class="st8" width="31.9" height="1.7"/>
<rect x="72.7" y="697" transform="matrix(0.1692 -0.9856 0.9856 0.1692 -614.1163 667.121)" class="st8" width="31.9" height="1.7"/>
<rect x="78.2" y="696.7" transform="matrix(0.1692 -0.9856 0.9856 0.1692 -609.5139 671.9548)" class="st8" width="31.2" height="1.7"/>
<rect x="83.3" y="695.8" transform="matrix(0.1692 -0.9856 0.9856 0.1692 -604.4249 676.2914)" class="st8" width="31.2" height="1.7"/>
<rect x="88" y="695.3" transform="matrix(0.1692 -0.9856 0.9856 0.1692 -599.701 680.8283)" class="st8" width="31.9" height="1.7"/>
<rect x="115.2" y="683.9" transform="matrix(0.135 -0.9908 0.9908 0.135 -583.8381 712.2466)" class="st8" width="1.7" height="13.2"/>
<rect x="113.5" y="688.2" transform="matrix(0.135 -0.9908 0.9908 0.135 -589.5379 714.2377)" class="st8" width="1.7" height="13.2"/>
<rect x="112.6" y="691.6" transform="matrix(0.135 -0.9908 0.9908 0.135 -593.6582 716.3458)" class="st8" width="1.7" height="13.2"/>
<rect x="112.6" y="695.9" transform="matrix(0.135 -0.9908 0.9908 0.135 -597.865 720.0291)" class="st8" width="1.7" height="13.2"/>
<rect x="111.8" y="698.5" transform="matrix(0.135 -0.9908 0.9908 0.135 -602.0609 722.2791)" class="st8" width="1.7" height="14.9"/>
<rect x="111" y="701.1" transform="matrix(0.135 -0.9908 0.9908 0.135 -606.2569 724.5292)" class="st8" width="1.7" height="16.8"/>
<rect x="111.8" y="705.4" transform="matrix(0.135 -0.9908 0.9908 0.135 -609.741 729.0496)" class="st8" width="1.7" height="16.8"/>
<rect x="114.4" y="708.8" transform="matrix(0.135 -0.9908 0.9908 0.135 -610.9204 734.5247)" class="st8" width="1.7" height="16.8"/>
<rect x="80.3" y="721.6" transform="matrix(0.135 -0.9908 0.9908 0.135 -653.0308 711.815)" class="st8" width="1.7" height="16.8"/>
<rect x="77.8" y="716.5" transform="matrix(0.135 -0.9908 0.9908 0.135 -650.1801 704.8627)" class="st8" width="1.7" height="16.8"/>
<rect x="76.9" y="710.5" transform="matrix(0.135 -0.9908 0.9908 0.135 -645.0076 698.8676)" class="st8" width="1.7" height="16.8"/>
<rect x="73.5" y="704.5" transform="matrix(0.135 -0.9908 0.9908 0.135 -642.0593 690.3332)" class="st8" width="1.7" height="16.8"/>
<rect x="73.5" y="699.4" transform="matrix(0.135 -0.9908 0.9908 0.135 -636.9929 685.9104)" class="st8" width="1.7" height="16.8"/>
<rect x="73.3" y="695.9" transform="matrix(0.135 -0.9908 0.9908 0.135 -633.0626 682.0631)" class="st8" width="1.7" height="15.5"/>
<rect x="75" y="691.6" transform="matrix(0.135 -0.9908 0.9908 0.135 -627.3627 680.0721)" class="st8" width="1.7" height="15.5"/>
<rect x="76.7" y="688.3" transform="matrix(0.1692 -0.9856 0.9856 0.1692 -620.7825 654.1207)" class="st8" width="1.7" height="13.8"/>
<rect x="116.1" y="713.9" transform="matrix(0.135 -0.9908 0.9908 0.135 -614.5048 740.647)" class="st8" width="1.7" height="16.8"/>
<rect x="56.8" y="707" transform="matrix(7.062704e-02 -0.9975 0.9975 7.062704e-02 -638.6917 730.0505)" class="st8" width="31.2" height="1.5"/>
<rect x="59.8" y="707.4" transform="matrix(7.062704e-02 -0.9975 0.9975 7.062704e-02 -635.1763 734.5338)" class="st8" width="33.7" height="1.5"/>
<rect x="63.2" y="711.6" transform="matrix(7.062704e-02 -0.9975 0.9975 7.062704e-02 -636.2557 741.8941)" class="st8" width="33.6" height="1.5"/>
<rect x="65.7" y="718.4" transform="matrix(7.062704e-02 -0.9975 0.9975 7.062704e-02 -640.6726 750.7681)" class="st8" width="33.7" height="1.5"/>
<rect x="93" y="704.8" transform="matrix(7.062704e-02 -0.9975 0.9975 7.062704e-02 -601.7401 765.3069)" class="st8" width="33.7" height="1.5"/>
<rect x="99.8" y="708.2" transform="matrix(7.062704e-02 -0.9975 0.9975 7.062704e-02 -598.8267 775.2682)" class="st8" width="33.6" height="1.5"/>
<rect x="96.4" y="704" transform="matrix(7.062704e-02 -0.9975 0.9975 7.062704e-02 -597.7366 767.8994)" class="st8" width="33.6" height="1.5"/>
<rect x="103.2" y="713.3" transform="matrix(7.062704e-02 -0.9975 0.9975 7.062704e-02 -600.7459 783.407)" class="st8" width="33.6" height="1.5"/>
<path class="st14" d="M349.3,540.4H439c4.8,0,8.7,3.9,8.7,8.7V575c0,4.8-3.9,8.7-8.7,8.7h-89.7c-4.8,0-8.7-3.9-8.7-8.7v-25.9
	C340.6,544.3,344.5,540.4,349.3,540.4z"/>
<path class="st8" d="M363.3,555.5c-0.9-0.9-2-1.4-3.2-1.4c-0.7-0.1-1.4,0.2-1.9,0.7c-0.3,0.3-0.5,0.8-0.5,1.2c0,0.4,0.1,0.8,0.4,1.1
	c0.7,0.5,1.6,0.9,2.4,1.1l1.4,0.5c1,0.3,1.9,0.8,2.6,1.5c0.9,0.9,1.5,2.2,1.4,3.6c0.1,1.7-0.6,3.5-1.7,4.8c-1.5,1.4-3.4,2.1-5.5,2
	c-1.3,0-2.6-0.2-3.8-0.8c-1-0.6-2-1.3-2.8-2.1l2.3-3.2c0.5,0.5,1.1,1,1.8,1.5c0.7,0.5,1.6,0.7,2.4,0.7c0.7,0,1.4-0.2,2-0.7
	c0.5-0.4,0.7-1,0.7-1.6c0-0.5-0.2-1.1-0.7-1.4c-0.7-0.5-1.5-0.8-2.3-1.1l-1.6-0.5c-1-0.3-1.9-0.8-2.7-1.5c-0.8-0.9-1.2-2.1-1.2-3.3
	c-0.1-1.6,0.6-3.2,1.7-4.3c1.3-1.2,3-1.9,4.8-1.8c2.1,0,4.1,0.7,5.7,1.9L363.3,555.5z"/>
<path class="st8" d="M373.7,558.8l6.6-8h5.4l-7.8,9.1l8.4,10.1h-5.7l-6.9-8.5v8.5h-4.5v-19.3h4.5L373.7,558.8z"/>
<path class="st8" d="M404.4,553.2c4,4,4,10.5,0,14.5c0,0,0,0,0,0c-2,1.9-4.7,2.9-7.4,2.8c-2.8,0.1-5.5-0.9-7.5-2.8
	c-1.9-1.9-3-4.5-3-7.2c0-2.7,1.1-5.3,3-7.3C393.8,549.4,400.2,549.4,404.4,553.2L404.4,553.2z M392.7,556.2
	c-1.1,1.2-1.8,2.7-1.7,4.4c-0.1,1.6,0.6,3.2,1.8,4.3c1.1,1.1,2.6,1.6,4.1,1.6c1.6,0.1,3.1-0.5,4.3-1.6c1.1-1.1,1.7-2.7,1.7-4.3
	c0-1.6-0.6-3.2-1.7-4.3c-1.2-1.1-2.7-1.7-4.2-1.7C395.4,554.5,393.9,555.1,392.7,556.2L392.7,556.2z"/>
<path class="st8" d="M415.2,550.8v15.5h6v3.8h-10.4v-19.3H415.2z"/>
<path class="st8" d="M434.6,554.6h-6.4v3.7h6.1v3.7h-6.1v4.3h6.4v3.8h-10.9v-19.2h10.9L434.6,554.6z"/>
</svg>
