<svg id="Layer_1" data-name="Layer 1" xmlns="http://www.w3.org/2000/svg" xmlns:xlink="http://www.w3.org/1999/xlink" width="297.13" height="551" viewBox="0 0 297.13 551"><defs><style>.cls-1{fill:url(#linear-gradient);}.cls-2{fill:url(#linear-gradient-2);}.cls-3{fill:url(#linear-gradient-3);}.cls-4{fill:url(#linear-gradient-4);}.cls-5{fill:url(#linear-gradient-5);}.cls-6{fill:url(#linear-gradient-6);}.cls-7{fill:#e0d500;}</style><linearGradient id="linear-gradient" y1="498.57" x2="297.13" y2="498.57" gradientUnits="userSpaceOnUse"><stop offset="0"/><stop offset="0.13" stop-color="#3c3c3c"/><stop offset="0.26" stop-color="#6c6c6c"/><stop offset="0.37" stop-color="#8f8e8e"/><stop offset="0.46" stop-color="#a4a3a3"/><stop offset="0.52" stop-color="#acabab"/><stop offset="0.64" stop-color="#838383"/><stop offset="0.92" stop-color="#1e1d1d"/><stop offset="1"/></linearGradient><linearGradient id="linear-gradient-2" y1="289.2" x2="297.13" y2="289.2" xlink:href="#linear-gradient"/><linearGradient id="linear-gradient-3" y1="78.44" x2="297.13" y2="78.44" gradientUnits="userSpaceOnUse"><stop offset="0" stop-color="#666"/><stop offset="0.52" stop-color="#acabab"/><stop offset="0.69" stop-color="#848383"/><stop offset="1" stop-color="#333"/></linearGradient><linearGradient id="linear-gradient-4" x1="136.39" y1="103.19" x2="160.73" y2="61.03" xlink:href="#linear-gradient"/><linearGradient id="linear-gradient-5" x1="121.27" y1="92.9" x2="175.85" y2="-1.64" xlink:href="#linear-gradient"/><linearGradient id="linear-gradient-6" x1="136.39" y1="30.97" x2="160.73" y2="-11.19" xlink:href="#linear-gradient"/></defs><title>batteri-opdateret</title><ellipse class="cls-1" cx="148.56" cy="498.57" rx="148.56" ry="52.43"/><rect class="cls-2" y="67.54" width="297.13" height="443.34" rx="12"/><ellipse class="cls-3" cx="148.56" cy="78.44" rx="148.56" ry="52.43"/><ellipse class="cls-4" cx="148.56" cy="82.11" rx="45.56" ry="9.89"/><rect class="cls-5" x="103" y="3.83" width="91.12" height="83.6" rx="12"/><ellipse class="cls-6" cx="148.56" cy="9.89" rx="45.56" ry="9.89"/><polygon class="cls-7" points="223.72 136.95 222.92 137.9 222.92 137.9 221.32 131 221.53 131.97 103 310 286 267 70.98 534 223 303 22 362 223.72 136.95"/></svg>
