<svg id="Layer_1" data-name="Layer 1" xmlns="http://www.w3.org/2000/svg" xmlns:xlink="http://www.w3.org/1999/xlink" width="509.6" height="488.52" viewBox="0 0 509.6 488.52"><defs><style>.cls-1{fill:#88c3de;}.cls-2{fill:#a5a7ad;}.cls-3{fill:url(#linear-gradient);}.cls-4{fill:url(#linear-gradient-2);}.cls-5{fill:#e56e4e;}.cls-6{fill:url(#linear-gradient-3);}.cls-7{fill:url(#linear-gradient-4);}.cls-8{fill:url(#linear-gradient-5);}.cls-9{fill:url(#linear-gradient-6);}.cls-10{fill:url(#linear-gradient-7);}.cls-11{fill:url(#linear-gradient-8);}.cls-12{fill:url(#linear-gradient-9);}.cls-13{fill:url(#linear-gradient-10);}.cls-14{fill:url(#linear-gradient-11);}</style><linearGradient id="linear-gradient" x1="175.87" y1="253.67" x2="349.39" y2="253.67" gradientUnits="userSpaceOnUse"><stop offset="0" stop-color="#ffb580"/><stop offset="0.3" stop-color="#ffb47c"/><stop offset="0.57" stop-color="#ffb071"/><stop offset="0.82" stop-color="#ffab5f"/><stop offset="1" stop-color="#ffa54e"/></linearGradient><linearGradient id="linear-gradient-2" x1="176.72" y1="422.34" x2="353.07" y2="422.34" xlink:href="#linear-gradient"/><linearGradient id="linear-gradient-3" x1="324.38" y1="1158.5" x2="379.85" y2="1158.5" gradientTransform="translate(-210.79 -647.46) scale(1 0.74)" xlink:href="#linear-gradient"/><linearGradient id="linear-gradient-4" x1="139.8" y1="98.59" x2="206.5" y2="118.86" xlink:href="#linear-gradient"/><linearGradient id="linear-gradient-5" x1="206.57" y1="257.36" x2="206.57" y2="143.57" xlink:href="#linear-gradient"/><linearGradient id="linear-gradient-6" x1="524.52" y1="-584.77" x2="485.04" y2="-539.48" gradientTransform="translate(-525.66 1261.99) scale(1.28 1.64)" xlink:href="#linear-gradient"/><linearGradient id="linear-gradient-7" x1="3989.87" y1="-336.43" x2="4045.34" y2="-336.43" gradientTransform="matrix(1, 0, 0, -0.74, -3628.79, -33.74)" xlink:href="#linear-gradient"/><linearGradient id="linear-gradient-8" x1="314.74" y1="98.59" x2="381.44" y2="118.86" xlink:href="#linear-gradient"/><linearGradient id="linear-gradient-9" x1="1373.83" y1="771.46" x2="1334.35" y2="816.75" gradientTransform="matrix(0, 1.28, -1.64, 0, 1703.81, -1391.42)" xlink:href="#linear-gradient"/><linearGradient id="linear-gradient-10" x1="229.33" y1="72.45" x2="291.91" y2="72.45" xlink:href="#linear-gradient"/><linearGradient id="linear-gradient-11" x1="323.2" y1="258.78" x2="323.2" y2="144.99" xlink:href="#linear-gradient"/></defs><title>billede_træ copy 2</title><circle class="cls-1" cx="263.46" cy="244.55" r="219.04"/><circle class="cls-2" cx="262.45" cy="243.54" r="195.82"/><rect class="cls-3" x="175.87" y="85.84" width="173.52" height="335.67" rx="11.84"/><path class="cls-4" d="M264.89,403.85h88.18c0,20.29-39.81,37-88.18,37-47.75,0-87.27-16.27-88.17-36.29Z"/><circle class="cls-5" cx="265.6" cy="378.96" r="4.98"/><rect class="cls-6" x="113.59" y="91.34" width="55.47" height="244.15" rx="12" transform="translate(68.16 -31.87) rotate(16.9)"/><circle class="cls-7" cx="173.15" cy="108.72" r="34.85"/><circle class="cls-8" cx="206.57" cy="200.46" r="56.89"/><circle class="cls-5" cx="205.86" cy="202.6" r="14.93"/><ellipse class="cls-9" cx="120.53" cy="340.58" rx="26.4" ry="58.29" transform="translate(-154.14 105.9) rotate(-30)"/><rect class="cls-10" x="361.07" y="94.19" width="55.47" height="244.15" rx="12" transform="translate(823.7 310.14) rotate(163.1)"/><circle class="cls-11" cx="348.09" cy="108.72" r="34.85"/><ellipse class="cls-12" cx="402.16" cy="342" rx="58.29" ry="26.4" transform="translate(-114.11 452.3) rotate(-52.44)"/><rect class="cls-13" x="229.33" y="48.27" width="62.58" height="48.36" rx="4.24"/><circle class="cls-14" cx="323.2" cy="201.88" r="56.89"/><circle class="cls-5" cx="323.91" cy="202.6" r="14.93"/></svg>
