<svg id="Layer_1" data-name="Layer 1" xmlns="http://www.w3.org/2000/svg" xmlns:xlink="http://www.w3.org/1999/xlink" width="594.39" height="569.79" viewBox="0 0 594.39 569.79"><defs><style>.cls-1{fill:#e2f5fd;}.cls-2{fill:#a5a7ad;}.cls-3{fill:#f7f8fc;}.cls-4{fill:url(#linear-gradient);}.cls-5{fill:url(#linear-gradient-2);}.cls-6{fill:#29abe2;}.cls-7{fill:url(#linear-gradient-3);}.cls-8{fill:url(#linear-gradient-4);}.cls-9{fill:url(#linear-gradient-5);}.cls-10{fill:url(#linear-gradient-6);}.cls-11{fill:url(#linear-gradient-7);}.cls-12{fill:url(#linear-gradient-8);}.cls-13{fill:url(#linear-gradient-9);}.cls-14{fill:url(#linear-gradient-10);}.cls-15{fill:url(#linear-gradient-11);}.cls-16{fill:url(#linear-gradient-12);}</style><linearGradient id="linear-gradient" x1="240.18" y1="135.56" x2="340.8" y2="135.56" gradientUnits="userSpaceOnUse"><stop offset="0" stop-color="#f15a24"/><stop offset="0.21" stop-color="#ee5628"/><stop offset="0.42" stop-color="#e44a34"/><stop offset="0.63" stop-color="#d43647"/><stop offset="0.84" stop-color="#be1a62"/><stop offset="1" stop-color="#aa007b"/></linearGradient><linearGradient id="linear-gradient-2" x1="290.49" y1="141.12" x2="290.49" y2="212.14" gradientUnits="userSpaceOnUse"><stop offset="0" stop-color="#fff"/><stop offset="0.26" stop-color="#f4eae7"/><stop offset="0.75" stop-color="#e1c7be"/><stop offset="1" stop-color="#dab9ae"/></linearGradient><linearGradient id="linear-gradient-3" x1="304.93" y1="381.86" x2="335.89" y2="381.86" gradientTransform="translate(0.64 0.82)" gradientUnits="userSpaceOnUse"><stop offset="0" stop-color="#ffb580"/><stop offset="0.3" stop-color="#ffb47c"/><stop offset="0.57" stop-color="#ffb071"/><stop offset="0.82" stop-color="#ffab5f"/><stop offset="1" stop-color="#ffa54e"/></linearGradient><linearGradient id="linear-gradient-4" x1="247.28" y1="381.86" x2="278.24" y2="381.86" xlink:href="#linear-gradient-3"/><linearGradient id="linear-gradient-5" x1="266.47" y1="577.44" x2="307.95" y2="577.44" gradientTransform="translate(-86.28 -87.16) rotate(-6.11)" xlink:href="#linear-gradient-3"/><linearGradient id="linear-gradient-6" x1="335.73" y1="584.85" x2="377.21" y2="584.85" gradientTransform="translate(-86.28 -87.16) rotate(-6.11)" xlink:href="#linear-gradient-3"/><linearGradient id="linear-gradient-7" x1="32.73" y1="459.32" x2="32.93" y2="479.79" gradientTransform="matrix(1.02, -0.03, -0.03, 0.95, 39.14, 33.02)" gradientUnits="userSpaceOnUse"><stop offset="0" stop-color="#fff"/><stop offset="0" stop-color="#f4eae7"/><stop offset="0" stop-color="#e1c7be"/><stop offset="0" stop-color="#dab9ae"/></linearGradient><linearGradient id="linear-gradient-8" x1="387.04" y1="49.08" x2="387.04" y2="125.04" gradientTransform="matrix(0.99, 0.03, 0.03, 0.9, -31.5, 103.29)" gradientUnits="userSpaceOnUse"><stop offset="0" stop-color="#fff"/><stop offset="0.11" stop-color="#f4eae7"/><stop offset="0.33" stop-color="#e1c7be"/><stop offset="0.44" stop-color="#dab9ae"/></linearGradient><linearGradient id="linear-gradient-9" x1="295.26" y1="161.73" x2="378.1" y2="161.73" gradientTransform="translate(459.08 -191.16) rotate(83.47)" xlink:href="#linear-gradient-2"/><linearGradient id="linear-gradient-10" x1="312.38" y1="244.55" x2="394.94" y2="244.55" gradientTransform="translate(459.38 -235.34) rotate(79.95)" xlink:href="#linear-gradient-2"/><linearGradient id="linear-gradient-11" x1="272.52" y1="58.81" x2="272.52" y2="134.76" gradientTransform="matrix(0.91, -0.67, 0.65, 0.65, -70.78, 306.71)" xlink:href="#linear-gradient-8"/><linearGradient id="linear-gradient-12" x1="394.36" y1="466.62" x2="472.53" y2="466.62" gradientTransform="matrix(0.99, -0.11, 0.11, 0.99, -248.32, -256.95)" xlink:href="#linear-gradient-2"/></defs><title>billede_pige</title><circle class="cls-1" cx="289.08" cy="286.34" r="278.54"/><circle class="cls-2" cx="289.08" cy="284.32" r="244.23"/><circle class="cls-3" cx="289.08" cy="258.08" r="8.07"/><rect class="cls-4" x="240.18" y="40.33" width="100.61" height="190.47" rx="5.51"/><rect class="cls-5" x="240.18" y="152.56" width="100.61" height="71.02"/><path class="cls-6" d="M290.1,223.58h54.17c0,30.4-24.45,55.41-54.17,55.41s-54.18-25-54.18-55.41c0-.32,0-.64,0-1Z"/><rect class="cls-7" x="305.58" y="239.22" width="30.96" height="286.94" rx="15.48"/><rect class="cls-8" x="247.92" y="239.22" width="30.96" height="286.94" rx="15.48"/><ellipse class="cls-9" cx="260.76" cy="456.42" rx="20.74" ry="21.31"/><ellipse class="cls-10" cx="330.42" cy="456.42" rx="20.74" ry="21.31"/><polygon class="cls-11" points="53.31 469.68 58.87 467.84 64.42 466 64.54 475.66 64.65 485.32 58.98 477.5 53.31 469.68"/><polygon class="cls-12" points="336.81 158.84 355.13 164.43 373.46 170.02 354.76 198.51 336.06 227 336.43 192.92 336.81 158.84"/><ellipse class="cls-13" cx="336.68" cy="161.73" rx="35.52" ry="41.49" transform="translate(137.73 477.84) rotate(-83.47)"/><ellipse class="cls-14" cx="280.31" cy="155.57" rx="33.14" ry="41.51" transform="translate(107.08 425.33) rotate(-86.32)"/><polygon class="cls-15" points="199.03 172.3 219.25 163.56 239.47 154.81 242.34 189.21 245.21 223.6 222.12 197.95 199.03 172.3"/><ellipse class="cls-16" cx="231.76" cy="161.53" rx="39.18" ry="28.42" transform="matrix(0.97, -0.26, 0.26, 0.97, -33.73, 64.98)"/></svg>
