<svg id="Layer_1" data-name="Layer 1" xmlns="http://www.w3.org/2000/svg" xmlns:xlink="http://www.w3.org/1999/xlink" width="509.6" height="488.52" viewBox="0 0 509.6 488.52"><defs><style>.cls-1{fill:#e2f5fd;}.cls-2{fill:#a5a7ad;}.cls-3{fill:#f7f8fc;}.cls-4{fill:#8caa3f;}.cls-5{fill:#8cc63f;}.cls-6{fill:#754c24;}.cls-7{fill:#a67c52;}.cls-8{fill:#e99400;}.cls-9{fill:#ffde00;}.cls-10{fill:#e9ad00;}.cls-11{fill:#fff;}.cls-12{fill:#ffe56b;}.cls-13{fill:#ffd86b;}.cls-14{fill:url(#linear-gradient);}.cls-15{fill:url(#linear-gradient-2);}.cls-16{fill:url(#linear-gradient-3);}.cls-17{fill:url(#linear-gradient-4);}.cls-18{fill:url(#linear-gradient-5);}</style><linearGradient id="linear-gradient" x1="310.53" y1="1246.52" x2="314.23" y2="1245.64" gradientTransform="matrix(0.98, -0.21, -0.22, -1.01, 165.67, 1378.86)" gradientUnits="userSpaceOnUse"><stop offset="0" stop-color="#ffb580"/><stop offset="0.3" stop-color="#ffb47c"/><stop offset="0.57" stop-color="#ffb071"/><stop offset="0.82" stop-color="#ffab5f"/><stop offset="1" stop-color="#ffa54e"/></linearGradient><linearGradient id="linear-gradient-2" x1="307.67" y1="1247.13" x2="311.36" y2="1246.24" xlink:href="#linear-gradient"/><linearGradient id="linear-gradient-3" x1="304.18" y1="1244.96" x2="307.87" y2="1244.07" xlink:href="#linear-gradient"/><linearGradient id="linear-gradient-4" x1="341.45" y1="1260.37" x2="345.12" y2="1259.49" gradientTransform="matrix(0.97, -0.26, -0.26, -1, 200.62, 1399.9)" xlink:href="#linear-gradient"/><linearGradient id="linear-gradient-5" x1="-348.55" y1="295.31" x2="-344.61" y2="294.36" gradientTransform="matrix(0.82, 0.57, 0.59, -0.85, 313.62, 505.17)" xlink:href="#linear-gradient"/></defs><title>billede_træ</title><circle class="cls-1" cx="247.24" cy="245.76" r="240.25"/><circle class="cls-2" cx="247.24" cy="244.02" r="210.65"/><circle class="cls-3" cx="247.24" cy="221.39" r="6.96"/><ellipse class="cls-4" cx="267.13" cy="158.76" rx="101.65" ry="97.98"/><circle class="cls-5" cx="251.98" cy="162.43" r="101.65"/><ellipse class="cls-4" cx="176.26" cy="240.91" rx="58.97" ry="57.59"/><ellipse class="cls-4" cx="321.97" cy="234.94" rx="76.18" ry="64.94"/><ellipse class="cls-5" cx="165.71" cy="240.91" rx="59.43" ry="57.59"/><path class="cls-6" d="M247.12,319.46l-2.34,1.67a1,1,0,0,1-1.45-.23l-60-83.66a1.38,1.38,0,0,1,.29-1.93l0,0,2.05-1.47a1.37,1.37,0,0,1,1.92.3l0,0,59.81,83.37a1.38,1.38,0,0,1-.3,1.93Z"/><ellipse class="cls-5" cx="313.48" cy="226.68" rx="67.69" ry="62.18"/><rect class="cls-7" x="235.23" y="162.2" width="21.11" height="264.8"/><rect class="cls-6" x="251.75" y="162.2" width="7.8" height="264.8"/><rect class="cls-7" x="225.91" y="213.47" width="106.3" height="8.92" transform="translate(-61.89 313.46) rotate(-53.64)"/><rect class="cls-7" x="225.91" y="213.47" width="106.3" height="8.92" transform="translate(-61.89 313.46) rotate(-53.64)"/><path class="cls-6" d="M254.45,264.57l-2.32-1.71a1,1,0,0,1-.22-1.45l61-82.91a1.37,1.37,0,0,1,1.92-.31h0l2,1.51a1.37,1.37,0,0,1,.3,1.92v0l-60.84,82.6a1.38,1.38,0,0,1-1.92.33Z"/><rect class="cls-7" x="206.67" y="227.24" width="8.92" height="106.3" transform="translate(-123.86 175.6) rotate(-35.65)"/><path class="cls-8" d="M185.89,187.14a.56.56,0,0,0,1.11,0v-6.8h-1.11Z"/><path class="cls-9" d="M187.93,180.34h.28l0,0Z"/><path class="cls-9" d="M183.19,163.17h0a4.06,4.06,0,0,1,4.06,4.06l0,4c.18-.82,1.66-1.47,2.91-1.47h1c1.53,0,2.78.84,2.78,1.86V158.05a7,7,0,0,0-7-7h0a7.32,7.32,0,0,0-7.3,7.3v.34l.08-.05,0,1.52,0,1.73-.08-.07v4.92A3.58,3.58,0,0,1,183.19,163.17Zm.3-7.11a.77.77,0,0,1,.69.82.89.89,0,0,1-.22.58.54.54,0,0,1-.49.25.29.29,0,0,1-.22,0,.33.33,0,0,1-.1-.06.37.37,0,0,1-.12-.13.85.85,0,0,1-.24-.61A.76.76,0,0,1,183.49,156.06Zm-2.11,0a.77.77,0,0,1,.69.82.9.9,0,0,1-.25.62.55.55,0,0,1-.39.2c0,.07-.16.07-.28,0a.29.29,0,0,1-.14-.13.22.22,0,0,1-.1-.13.89.89,0,0,1-.22-.58A.77.77,0,0,1,181.38,156.06Z"/><path d="M180.9,157.46v0c0-.13.21-.2.46-.2s.49.07.49.2a.11.11,0,0,1,0,.08.85.85,0,0,0,.24-.62.7.7,0,0,0-.57-.81.69.69,0,0,0-.8.57.49.49,0,0,0,0,.24A.88.88,0,0,0,180.9,157.46Z"/><path d="M183,157.49a.14.14,0,0,1,0-.07c0-.13.21-.2.46-.2s.49.07.49.2v0a.88.88,0,0,0,.21-.58.7.7,0,0,0-.57-.81.71.71,0,0,0-.81.57,1,1,0,0,0,0,.24A.87.87,0,0,0,183,157.49Z"/><polygon class="cls-8" points="179.67 160.16 178.72 160.1 177.41 159.99 179.62 161.82 179.7 161.89 179.67 160.16"/><polygon class="cls-10" points="179.67 160.16 179.7 158.64 179.62 158.69 177.41 159.99 178.72 160.1 179.67 160.16"/><path class="cls-11" d="M181.35,157.22c-.24,0-.45.07-.45.2a0,0,0,0,0,0,0,.22.22,0,0,0,.1.13.11.11,0,0,1,0-.11c0-.06.16-.07.28,0s.19.16.16.24h0a.56.56,0,0,0,.4-.2.19.19,0,0,0,0-.08C181.85,157.29,181.61,157.22,181.35,157.22Z"/><path class="cls-11" d="M183.48,157.22c-.25,0-.46.07-.46.2a.14.14,0,0,0,0,.07.37.37,0,0,0,.12.13c-.06-.06-.09-.12-.07-.17a.26.26,0,0,1,.29,0c.12.06.19.17.16.25s0,0-.06,0a.55.55,0,0,0,.49-.24v0C184,157.29,183.73,157.22,183.48,157.22Z"/><path d="M181.27,157.47c-.12-.06-.25-.05-.28,0a.11.11,0,0,0,0,.11.37.37,0,0,0,.15.13c.11.05.24.05.27,0h0C181.46,157.63,181.39,157.53,181.27,157.47Z"/><path d="M183.54,157.66c0-.06,0-.17-.16-.24a.22.22,0,0,0-.29,0c0,.07,0,.11.07.17l.09.06a.31.31,0,0,0,.23,0Z"/><path class="cls-12" d="M187.35,178.58l-.08-7.18a.88.88,0,0,1,0-.16l0-4a4.06,4.06,0,0,0-4.06-4.06h0a3.58,3.58,0,0,0-3.57,3.57V177.8a3,3,0,0,0,2.53,2.54h5.78l.24,0C187.45,180.06,187.35,179.27,187.35,178.58Z"/><path class="cls-9" d="M197.14,177.29c-.13-.32-2.06.49-3.21,1.13v.5a1.55,1.55,0,0,1-.55,1l1-.39C195.58,179.07,197.27,177.6,197.14,177.29Z"/><path class="cls-13" d="M193.93,178.92v-7.3c0-1-1.25-1.86-2.78-1.86h-1c-1.25,0-2.73.66-2.91,1.47a.88.88,0,0,0,0,.16l.08,7.18c0,.69.1,1.48.82,1.74l0,0a1.87,1.87,0,0,0,.57.08l3.78-.12a1.21,1.21,0,0,0,.82-.36A1.51,1.51,0,0,0,193.93,178.92Z"/><path class="cls-14" d="M195.36,49.93h0A.9.9,0,0,0,194.7,51l1.93,9.22a.88.88,0,0,0,1,.7h0a.91.91,0,0,0,.67-1.08l-1.94-9.23A.87.87,0,0,0,195.36,49.93Z"/><path class="cls-15" d="M192.43,49.93h0a.91.91,0,0,0-.67,1.08l1.94,9.22a.88.88,0,0,0,1,.7h0a.91.91,0,0,0,.67-1.08l-1.94-9.23A.87.87,0,0,0,192.43,49.93Z"/><path class="cls-16" d="M189.5,52.86h0a.91.91,0,0,0-.67,1.08l1.94,9.23a.88.88,0,0,0,1,.69h0a.9.9,0,0,0,.66-1.08l-1.93-9.23A.87.87,0,0,0,189.5,52.86Z"/><path class="cls-17" d="M198.55,49.21h0a.92.92,0,0,0-.63,1.11l2.32,9.13a.89.89,0,0,0,1.07.65h0a.92.92,0,0,0,.62-1.12l-2.32-9.12A.86.86,0,0,0,198.55,49.21Z"/><path class="cls-18" d="M205.29,52.94h0a.85.85,0,0,0-1.21.23l-5.17,7.76a1,1,0,0,0,.22,1.27h0a.87.87,0,0,0,1.22-.23l5.16-7.76A.93.93,0,0,0,205.29,52.94Z"/></svg>
