<svg id="Layer_1" data-name="Layer 1" xmlns="http://www.w3.org/2000/svg" xmlns:xlink="http://www.w3.org/1999/xlink" width="1920" height="1080" viewBox="0 0 1920 1080"><defs><style>.cls-1{filter:url(#AI_GaussianBlur_7);}.cls-2{fill:url(#New_Gradient_Swatch_2);}.cls-3{fill:url(#linear-gradient);}.cls-4{fill:url(#New_Gradient_Swatch_4);}.cls-5{fill:url(#New_Gradient_Swatch_4-2);}.cls-6{fill:url(#New_Gradient_Swatch_4-3);}.cls-7{fill:url(#New_Gradient_Swatch_4-4);}.cls-8{fill:url(#linear-gradient-2);}.cls-9{fill:#77675a;}.cls-10{fill:#fff;}.cls-11{fill:url(#radial-gradient);}.cls-12,.cls-13,.cls-14,.cls-15{fill:none;stroke:#fff;stroke-miterlimit:10;}.cls-12{stroke-width:10px;}.cls-13{stroke-width:7px;}.cls-14{stroke-width:6px;}.cls-15{stroke-width:5px;}.cls-16{fill:#090c3f;}</style><filter id="AI_GaussianBlur_7" name="AI_GaussianBlur_7"><feGaussianBlur stdDeviation="7"/></filter><linearGradient id="New_Gradient_Swatch_2" x1="959.85" y1="1081" x2="959.85" y2="591.15" gradientUnits="userSpaceOnUse"><stop offset="0" stop-color="#4d4d4d"/><stop offset="0.06" stop-color="#575757"/><stop offset="0.23" stop-color="#6d6d6d"/><stop offset="0.39" stop-color="#7b7b7b"/><stop offset="0.53" stop-color="gray"/><stop offset="1" stop-color="#009245"/></linearGradient><linearGradient id="linear-gradient" x1="959.85" y1="590.15" x2="959.85" y2="-2" gradientUnits="userSpaceOnUse"><stop offset="0" stop-color="#a2cbbc"/><stop offset="0.14" stop-color="#92bfb6"/><stop offset="0.43" stop-color="#66a0a6"/><stop offset="0.82" stop-color="#226e8c"/><stop offset="1" stop-color="#00567f"/></linearGradient><linearGradient id="New_Gradient_Swatch_4" x1="163.71" y1="610.83" x2="611.89" y2="610.83" gradientUnits="userSpaceOnUse"><stop offset="0" stop-color="#f68d05"/><stop offset="0.16" stop-color="#f0860c"/><stop offset="0.65" stop-color="#e2741c"/><stop offset="1" stop-color="#dd6d22"/></linearGradient><linearGradient id="New_Gradient_Swatch_4-2" x1="52.38" y1="438.81" x2="723" y2="438.81" xlink:href="#New_Gradient_Swatch_4"/><linearGradient id="New_Gradient_Swatch_4-3" x1="342.31" y1="346.78" x2="430.8" y2="346.78" xlink:href="#New_Gradient_Swatch_4"/><linearGradient id="New_Gradient_Swatch_4-4" x1="340.64" y1="240.25" x2="431.98" y2="240.25" xlink:href="#New_Gradient_Swatch_4"/><linearGradient id="linear-gradient-2" x1="346.47" y1="664.1" x2="437.82" y2="664.1" gradientUnits="userSpaceOnUse"><stop offset="0" stop-color="#6a2300"/><stop offset="0.18" stop-color="#6e2601"/><stop offset="0.37" stop-color="#7b2e05"/><stop offset="0.56" stop-color="#8f3b0b"/><stop offset="0.75" stop-color="#ac4d14"/><stop offset="0.94" stop-color="#d1651e"/><stop offset="1" stop-color="#dd6d22"/></linearGradient><radialGradient id="radial-gradient" cx="1763.5" cy="130.56" r="98.72" gradientUnits="userSpaceOnUse"><stop offset="0" stop-color="#fffa2a"/><stop offset="0" stop-color="#fffa2c"/><stop offset="0.09" stop-color="#fef649"/><stop offset="0.18" stop-color="#fdf260"/><stop offset="0.28" stop-color="#fcf070"/><stop offset="0.39" stop-color="#fcee7a"/><stop offset="0.54" stop-color="#fcee7d"/><stop offset="0.65" stop-color="#fcef79"/><stop offset="0.75" stop-color="#fcf16e"/><stop offset="0.84" stop-color="#fdf55c"/><stop offset="0.93" stop-color="#fdfa42"/><stop offset="1" stop-color="#feff2a"/></radialGradient></defs><title>blurskærm</title><g class="cls-1"><rect class="cls-2" x="-3" y="591.15" width="1925.7" height="489.85"/></g><g class="cls-1"><rect class="cls-3" x="-3" y="-2" width="1925.7" height="592.15"/></g><g class="cls-1"><rect class="cls-4" x="163.71" y="493.79" width="448.18" height="234.08"/></g><g class="cls-1"><polygon class="cls-5" points="723 505.77 387.69 510.89 52.38 516.02 218.9 438.81 385.41 361.61 554.21 433.69 723 505.77"/></g><g class="cls-1"><rect class="cls-6" x="342.31" y="285.4" width="88.49" height="122.75"/></g><g class="cls-1"><polygon class="cls-7" points="431.98 286.33 386.31 286.2 340.64 286.07 363.61 240.13 386.57 194.18 409.27 240.25 431.98 286.33"/></g><g class="cls-1"><rect class="cls-8" x="346.47" y="597.11" width="91.35" height="133.99" rx="16"/></g><g class="cls-1"><rect class="cls-9" x="389.29" y="599.41" width="2.85" height="128.46"/></g><g class="cls-1"><circle class="cls-10" cx="377.87" cy="667.92" r="5.71"/></g><g class="cls-1"><circle class="cls-10" cx="403.56" cy="667.92" r="5.71"/></g><g class="cls-1"><circle class="cls-10" cx="386.44" cy="325.37" r="31.4"/></g><g class="cls-1"><rect x="383.58" y="325.37" width="25.69" height="2.85"/></g><g class="cls-1"><rect x="383.58" y="302.53" width="2.85" height="25.69"/></g><g class="cls-1"><rect class="cls-10" x="497.77" y="548.03" width="62.8" height="88.49" rx="6.5"/></g><g class="cls-1"><circle class="cls-11" cx="1763.5" cy="130.56" r="98.72"/></g><g class="cls-1"><polygon class="cls-12" points="668.45 698.48 805.11 698.08 860.24 1048.3 615.23 1048.64 668.45 698.48"/><polygon class="cls-10" points="832.71 833.17 641.98 831.29 643.83 820.85 831.08 822.65 832.71 833.17"/><path class="cls-13" d="M732.57,1044.89l-116.77-1.58,0-.21c7.31-45,60.1-77.64,117.84-76.87,57.92.78,110.23,35,116.34,80.46Z"/><path class="cls-13" d="M738.21,699.9l66,.36v.07c2.15,15.74-27.76,29.32-66.33,29s-67.9-14.24-65.39-29.9Z"/><path class="cls-14" d="M725.17,855.63c-23.41.14-41.2-13.76-39.82-30.18,1.31-15.51,19.46-27.59,40.6-27.71s39,11.74,39.85,27.24C766.74,841.38,748.57,855.49,725.17,855.63Z"/></g><g class="cls-1"><rect x="527.77" y="548.03" width="3.61" height="89.06"/></g><g class="cls-1"><rect x="497.68" y="589.55" width="63.79" height="3.61"/></g><g class="cls-1"><rect class="cls-10" x="206.51" y="548.03" width="62.8" height="88.49" rx="6.5"/></g><g class="cls-1"><rect x="236.51" y="548.03" width="3.61" height="89.06"/></g><g class="cls-1"><rect x="206.42" y="589.55" width="63.79" height="3.61"/></g><g class="cls-1"><rect class="cls-13" x="716.27" y="605.73" width="50.57" height="74.96" rx="3.86" transform="translate(-67.81 87.74) rotate(-6.48)"/><path class="cls-13" d="M706.41,608.31c2-3.66,6.36-1.76,6.69,2.92l2.45,34.64L718,680.51c.33,4.68-3.71,7.18-6.21,3.83l-10-13.35L687,651.28a6.63,6.63,0,0,1-.48-6.75l11.83-21.59Z"/><rect class="cls-15" x="686.17" y="645.98" width="51.07" height="1.76" transform="translate(-72.43 90) rotate(-6.89)"/><path class="cls-13" d="M759.41,601.7c2-3.66,6.37-1.76,6.7,2.92l2.45,34.64L771,673.9c.33,4.68-3.71,7.18-6.21,3.84l-10-13.36-14.75-19.71a6.61,6.61,0,0,1-.48-6.75l11.83-21.59Z"/><rect class="cls-10" x="705.29" y="616.03" width="44.53" height="2.41" transform="translate(-32.31 40.25) rotate(-3.1)"/><rect class="cls-10" x="707.7" y="611.21" width="44.53" height="2.41" transform="translate(-32.05 40.37) rotate(-3.1)"/><rect class="cls-10" x="700.48" y="623.25" width="44.53" height="2.41" transform="translate(-32.71 40) rotate(-3.1)"/><rect class="cls-10" x="698.07" y="628.06" width="44.53" height="2.41" transform="translate(-32.98 39.87) rotate(-3.1)"/><rect class="cls-10" x="694.46" y="634.08" width="44.53" height="2.41" transform="translate(-33.31 39.69) rotate(-3.1)"/><rect class="cls-10" x="690.85" y="638.9" width="44.53" height="2.41" transform="translate(-33.57 39.5) rotate(-3.1)"/><rect class="cls-10" x="687.04" y="626.62" width="45.03" height="2.41" transform="translate(-29.28 1220.9) rotate(-80.26)"/><rect class="cls-10" x="681.02" y="626.62" width="45.03" height="2.41" transform="translate(-34.28 1214.97) rotate(-80.26)"/><rect class="cls-10" x="697.87" y="626.62" width="45.03" height="2.41" transform="translate(-20.28 1231.58) rotate(-80.26)"/><rect class="cls-10" x="705.61" y="626.17" width="44.13" height="2.41" transform="translate(-13.78 1238.4) rotate(-80.26)"/><rect class="cls-10" x="712.84" y="624.97" width="44.13" height="2.41" transform="translate(-6.6 1244.52) rotate(-80.26)"/><rect class="cls-10" x="719.53" y="624.21" width="45.03" height="2.41" transform="translate(0.09 1250.93) rotate(-80.26)"/><rect class="cls-10" x="757.95" y="608.18" width="2.41" height="18.58" transform="translate(44.89 1286.36) rotate(-82.24)"/><rect class="cls-10" x="755.54" y="614.2" width="2.41" height="18.58" transform="translate(36.84 1289.18) rotate(-82.24)"/><rect class="cls-10" x="754.34" y="619.02" width="2.41" height="18.58" transform="translate(31.03 1292.15) rotate(-82.24)"/><rect class="cls-10" x="754.34" y="625.03" width="2.41" height="18.58" transform="translate(25.07 1297.36) rotate(-82.24)"/><rect class="cls-10" x="753.2" y="628.75" width="2.41" height="21.13" transform="translate(19.14 1300.54) rotate(-82.24)"/><rect class="cls-10" x="752.05" y="632.46" width="2.41" height="23.68" transform="matrix(0.13, -0.99, 0.99, 0.13, 13.2, 1303.72)"/><rect class="cls-10" x="753.25" y="638.48" width="2.41" height="23.68" transform="matrix(0.13, -0.99, 0.99, 0.13, 8.28, 1310.12)"/><rect class="cls-10" x="756.86" y="643.29" width="2.41" height="23.68" transform="translate(6.64 1317.86) rotate(-82.24)"/><rect class="cls-10" x="708.72" y="661.34" width="2.41" height="23.68" transform="translate(-52.9 1285.77) rotate(-82.24)"/><rect class="cls-10" x="705.11" y="654.12" width="2.41" height="23.68" transform="translate(-48.87 1275.95) rotate(-82.24)"/><rect class="cls-10" x="703.91" y="645.7" width="2.41" height="23.68" transform="translate(-41.56 1267.47) rotate(-82.24)"/><rect class="cls-10" x="699.09" y="637.27" width="2.41" height="23.68" transform="translate(-37.38 1255.41) rotate(-82.24)"/><rect class="cls-10" x="699.09" y="630.05" width="2.41" height="23.68" transform="translate(-30.22 1249.16) rotate(-82.24)"/><rect class="cls-10" x="698.74" y="625.01" width="2.41" height="21.95" transform="translate(-24.68 1243.71) rotate(-82.24)"/><rect class="cls-10" x="701.15" y="618.99" width="2.41" height="21.95" transform="translate(-16.63 1240.89) rotate(-82.24)"/><rect class="cls-10" x="703.52" y="614.4" width="2.41" height="19.57" transform="translate(-29.7 1213.13) rotate(-80.26)"/><rect class="cls-10" x="759.27" y="650.51" width="2.41" height="23.68" transform="translate(1.56 1326.49) rotate(-82.24)"/><rect class="cls-10" x="675.41" y="640.71" width="44.13" height="2.18" transform="translate(8.06 1292.25) rotate(-85.95)"/><rect class="cls-10" x="679.6" y="641.21" width="47.55" height="2.18" transform="translate(13.04 1298.6) rotate(-85.95)"/><rect class="cls-10" x="684.41" y="647.23" width="47.55" height="2.18" transform="translate(11.51 1309) rotate(-85.95)"/><rect class="cls-10" x="688.03" y="656.86" width="47.55" height="2.18" transform="translate(5.26 1321.55) rotate(-85.95)"/><rect class="cls-10" x="726.54" y="637.6" width="47.55" height="2.18" transform="translate(60.27 1342.07) rotate(-85.95)"/><rect class="cls-10" x="736.17" y="642.42" width="47.55" height="2.18" transform="translate(64.42 1356.15) rotate(-85.95)"/><rect class="cls-10" x="731.35" y="636.4" width="47.55" height="2.18" transform="translate(65.94 1345.75) rotate(-85.95)"/><rect class="cls-10" x="740.98" y="649.64" width="47.55" height="2.18" transform="translate(61.69 1367.66) rotate(-85.95)"/></g><g class="cls-1"><rect class="cls-16" x="337.61" y="538.4" width="107.12" height="43.33" rx="8.71"/></g><path class="cls-10" d="M360.27,553.51a4.67,4.67,0,0,0-3.24-1.38,2.39,2.39,0,0,0-1.87.66,1.71,1.71,0,0,0-.49,1.21,1.34,1.34,0,0,0,.43,1.07,7.56,7.56,0,0,0,2.43,1.1l1.44.55a7.77,7.77,0,0,1,2.63,1.47,4.83,4.83,0,0,1,1.41,3.58,6.91,6.91,0,0,1-1.7,4.77,7.46,7.46,0,0,1-5.46,2,8.21,8.21,0,0,1-3.81-.8,12.28,12.28,0,0,1-2.83-2.11l2.31-3.18a11.33,11.33,0,0,0,1.79,1.47,4.49,4.49,0,0,0,2.42.7,3.1,3.1,0,0,0,2-.67,2,2,0,0,0,.69-1.56,1.69,1.69,0,0,0-.66-1.38,9.11,9.11,0,0,0-2.26-1.07l-1.59-.55a6.5,6.5,0,0,1-2.68-1.53,4.75,4.75,0,0,1-1.16-3.35,5.92,5.92,0,0,1,1.68-4.34,6.2,6.2,0,0,1,4.76-1.76,9.28,9.28,0,0,1,5.72,1.91Z"/><path class="cls-10" d="M370.67,556.83l6.58-8h5.43l-7.79,9.13,8.4,10.14h-5.72l-6.9-8.55v8.55h-4.45V548.8h4.45Z"/><path class="cls-10" d="M401.43,551.17a10.24,10.24,0,0,1,0,14.5A10.26,10.26,0,0,1,394,568.5a10.58,10.58,0,0,1-7.51-2.83,9.83,9.83,0,0,1-3-7.16,10.8,10.8,0,0,1,3-7.31,11.39,11.39,0,0,1,15,0Zm-11.7,3a5.92,5.92,0,0,0-1.7,4.36,5.75,5.75,0,0,0,1.76,4.33,5.64,5.64,0,0,0,4.13,1.59,5.86,5.86,0,0,0,4.28-1.64,5.79,5.79,0,0,0,1.67-4.31,6.1,6.1,0,0,0-1.67-4.33,6.23,6.23,0,0,0-4.25-1.65A5.93,5.93,0,0,0,389.73,554.12Z"/><path class="cls-10" d="M412.21,548.8v15.52h6v3.75H407.76V548.8Z"/><path class="cls-10" d="M431.59,552.56h-6.44v3.73h6.12V560h-6.12v4.28h6.44v3.75H420.7V548.8h10.89Z"/></svg>
