<svg id="Layer_1" data-name="Layer 1" xmlns="http://www.w3.org/2000/svg" width="250" height="260" viewBox="0 0 250 260"><defs><style>.cls-1{fill:#e99400;}.cls-2{fill:#ffde00;}.cls-3{fill:#e9ad00;}.cls-4{fill:#fff;}.cls-5{fill:#ffe56b;}.cls-6{fill:#ffd86b;}</style></defs><title>fugl</title><path class="cls-1" d="M108.77,192.38a2.27,2.27,0,0,0,4.53,0V164.49h-4.53Z"/><path class="cls-2" d="M117.13,164.49h1.14l-.16-.05Z"/><path class="cls-2" d="M97.71,94.16h0a16.67,16.67,0,0,1,16.63,16.63l.15,16.43c.75-3.33,6.82-6,11.92-6h3.88c6.27,0,11.42,3.41,11.42,7.59V73.22A28.8,28.8,0,0,0,113,44.51h0A30,30,0,0,0,83.08,74.43v1.38l.33-.2-.12,6.22.13,7.1-.34-.28v20.14A14.67,14.67,0,0,1,97.71,94.16Zm1.21-29.11a3.11,3.11,0,0,1,2.82,3.34,3.61,3.61,0,0,1-.88,2.41,2.21,2.21,0,0,1-2,1,1.22,1.22,0,0,1-.93-.1,1.84,1.84,0,0,1-.38-.27,1.38,1.38,0,0,1-.49-.51,3.6,3.6,0,0,1-1-2.53A3.11,3.11,0,0,1,98.92,65.05Zm-8.64,0a3.11,3.11,0,0,1,2.82,3.34,3.57,3.57,0,0,1-1,2.56,2.3,2.3,0,0,1-1.62.83c-.15.26-.65.29-1.13.06a1.41,1.41,0,0,1-.58-.51,1.19,1.19,0,0,1-.42-.53,3.67,3.67,0,0,1-.87-2.41A3.12,3.12,0,0,1,90.28,65.05Z"/><path d="M88.33,70.8a.57.57,0,0,1,0-.18c0-.54.84-.83,1.88-.83s2,.29,2,.83a.64.64,0,0,1-.12.33,3.57,3.57,0,0,0,1-2.56,2.86,2.86,0,1,0-5.64,0A3.67,3.67,0,0,0,88.33,70.8Z"/><path d="M97.09,70.92a.69.69,0,0,1-.09-.3c0-.54.85-.83,1.88-.83s2,.29,2,.83a.39.39,0,0,1,0,.18,3.61,3.61,0,0,0,.88-2.41,2.86,2.86,0,1,0-5.64,0A3.6,3.6,0,0,0,97.09,70.92Z"/><polygon class="cls-1" points="83.29 81.83 79.39 81.62 74.02 81.14 83.08 88.65 83.42 88.94 83.29 81.83"/><polygon class="cls-3" points="83.29 81.83 83.41 75.61 83.08 75.81 74.02 81.14 79.39 81.62 83.29 81.83"/><path class="cls-4" d="M90.18,69.79c-1,0-1.88.29-1.88.83a.57.57,0,0,0,0,.18,1.19,1.19,0,0,0,.42.53.45.45,0,0,1-.07-.45c.14-.28.65-.32,1.15-.07s.79.67.66,1l0,0A2.3,2.3,0,0,0,92.08,71a.64.64,0,0,0,.12-.33C92.2,70.08,91.22,69.79,90.18,69.79Z"/><path class="cls-4" d="M98.88,69.79c-1,0-1.88.29-1.88.83a.69.69,0,0,0,.09.3,1.38,1.38,0,0,0,.49.51c-.24-.23-.37-.49-.27-.69s.66-.32,1.16-.07.79.67.65,1a.35.35,0,0,1-.23.18,2.21,2.21,0,0,0,2-1,.39.39,0,0,0,0-.18C100.9,70.08,99.92,69.79,98.88,69.79Z"/><path d="M89.83,70.81c-.5-.25-1-.21-1.15.07a.45.45,0,0,0,.07.45,1.41,1.41,0,0,0,.58.51c.48.23,1,.2,1.13-.06l0,0C90.62,71.48,90.33,71.05,89.83,70.81Z"/><path d="M99.12,71.62c.14-.28-.15-.71-.65-1s-1-.21-1.16.07,0,.46.27.69a1.84,1.84,0,0,0,.38.27,1.22,1.22,0,0,0,.93.1A.35.35,0,0,0,99.12,71.62Z"/><path class="cls-5" d="M114.76,157.29l-.35-29.39a3.08,3.08,0,0,1,.08-.68l-.15-16.43A16.67,16.67,0,0,0,97.71,94.16h0a14.67,14.67,0,0,0-14.63,14.63v45.3c0,4.61,5.76,10.4,10.37,10.4h22c.58,0,1.14,0,1.67,0l1-.05C115.14,163.34,114.76,160.14,114.76,157.29Z"/><path class="cls-2" d="M154.84,152c-.53-1.28-8.45,2-13.13,4.65v2.05a6.43,6.43,0,0,1-2.25,4.2c1.25-.43,2.65-1,4.11-1.57C148.45,159.3,155.37,153.27,154.84,152Z"/><path class="cls-6" d="M141.71,158.68V128.77c0-4.18-5.15-7.59-11.42-7.59h-3.88c-5.1,0-11.17,2.71-11.92,6a3.08,3.08,0,0,0-.08.68l.35,29.39c0,2.85.38,6.05,3.35,7.15l.16.05a7.3,7.3,0,0,0,2.34.35l15.46-.51a5.14,5.14,0,0,0,3.39-1.45A6.43,6.43,0,0,0,141.71,158.68Z"/></svg>
