<svg id="Layer_1" data-name="Layer 1" xmlns="http://www.w3.org/2000/svg" xmlns:xlink="http://www.w3.org/1999/xlink" width="425.17" height="453.1" viewBox="0 0 425.17 453.1"><defs><style>.cls-1{fill:#fff;}.cls-2{fill:url(#linear-gradient);}.cls-3{fill:url(#linear-gradient-2);}.cls-4{fill:url(#linear-gradient-3);}.cls-5{fill:url(#linear-gradient-4);}</style><linearGradient id="linear-gradient" x1="448.18" y1="-213.51" x2="468.27" y2="-248.3" gradientTransform="matrix(0.95, -0.32, 0.32, 0.95, -74.97, 756.42)" gradientUnits="userSpaceOnUse"><stop offset="0" stop-color="#2a2627"/><stop offset="0.07" stop-color="#403c3d"/><stop offset="0.22" stop-color="#797677"/><stop offset="0.43" stop-color="#d3d2d2"/><stop offset="0.52" stop-color="#fff"/><stop offset="0.53" stop-color="#f4f4f4"/><stop offset="0.61" stop-color="#b4b4b4"/><stop offset="0.69" stop-color="#7d7d7d"/><stop offset="0.76" stop-color="#505050"/><stop offset="0.83" stop-color="#2d2d2d"/><stop offset="0.89" stop-color="#141414"/><stop offset="0.95" stop-color="#050505"/><stop offset="1"/></linearGradient><linearGradient id="linear-gradient-2" x1="437.8" y1="-230.9" x2="478.65" y2="-230.9" gradientTransform="matrix(0.95, -0.32, 0.32, 0.95, -74.97, 756.42)" gradientUnits="userSpaceOnUse"><stop offset="0" stop-color="#2a2627"/><stop offset="0.2" stop-color="#2c2829"/><stop offset="0.27" stop-color="#332f30"/><stop offset="0.32" stop-color="#3e3a3b"/><stop offset="0.37" stop-color="#4f4b4c"/><stop offset="0.4" stop-color="#646162"/><stop offset="0.43" stop-color="#7f7d7d"/><stop offset="0.46" stop-color="#9f9d9d"/><stop offset="0.49" stop-color="#c4c3c3"/><stop offset="0.51" stop-color="#ececec"/><stop offset="0.52" stop-color="#fff"/><stop offset="0.53" stop-color="#f4f4f4"/><stop offset="0.61" stop-color="#b4b4b4"/><stop offset="0.69" stop-color="#7d7d7d"/><stop offset="0.76" stop-color="#505050"/><stop offset="0.83" stop-color="#2d2d2d"/><stop offset="0.89" stop-color="#141414"/><stop offset="0.95" stop-color="#050505"/><stop offset="1"/></linearGradient><linearGradient id="linear-gradient-3" x1="450.12" y1="-216.89" x2="466.31" y2="-244.93" gradientTransform="matrix(0.95, -0.32, 0.32, 0.95, -74.97, 756.42)" gradientUnits="userSpaceOnUse"><stop offset="0" stop-color="#2a2627"/><stop offset="0.05" stop-color="#302c2d"/><stop offset="0.13" stop-color="#423f3f"/><stop offset="0.21" stop-color="#5f5c5d"/><stop offset="0.31" stop-color="#888686"/><stop offset="0.41" stop-color="#bcbbbb"/><stop offset="0.52" stop-color="#fbfbfb"/><stop offset="0.52" stop-color="#fff"/><stop offset="0.53" stop-color="#f4f4f4"/><stop offset="0.61" stop-color="#b4b4b4"/><stop offset="0.69" stop-color="#7d7d7d"/><stop offset="0.76" stop-color="#505050"/><stop offset="0.83" stop-color="#2d2d2d"/><stop offset="0.89" stop-color="#141414"/><stop offset="0.95" stop-color="#050505"/><stop offset="1"/></linearGradient><linearGradient id="linear-gradient-4" x1="368.22" y1="-254.39" x2="548.23" y2="-566.18" gradientTransform="translate(-229.69 631.73)" gradientUnits="userSpaceOnUse"><stop offset="0.02" stop-color="#00012e"/><stop offset="0.07" stop-color="#010635"/><stop offset="0.14" stop-color="#051347"/><stop offset="0.23" stop-color="#0b2966"/><stop offset="0.32" stop-color="#134790"/><stop offset="0.42" stop-color="#1d6dc6"/><stop offset="0.51" stop-color="#2894fd"/><stop offset="0.67" stop-color="#195db0"/><stop offset="0.83" stop-color="#0c2c6a"/><stop offset="0.94" stop-color="#030d3f"/><stop offset="1" stop-color="#00012e"/></linearGradient></defs><title>mobil_2</title><rect class="cls-1" x="118.22" y="32.71" width="226.06" height="393.6" rx="7.67" transform="translate(-61.1 85.7) rotate(-18.59)"/><path d="M268.47,9.7a7.34,7.34,0,0,1,9.29,4.62l120.6,358.52a7.34,7.34,0,0,1-4.62,9.29h0L194,449.31a7.33,7.33,0,0,1-9.29-4.61h0L64.13,86.18a7.34,7.34,0,0,1,4.62-9.29L268.47,9.7m-.21-.63L68.53,76.25a8,8,0,0,0-5,10.14L184.1,444.91a8,8,0,0,0,10.13,5L394,382.76a8,8,0,0,0,5-10.13L278.39,14.11A8,8,0,0,0,268.26,9.07Z"/><circle class="cls-2" cx="285.73" cy="391.47" r="20.09"/><path class="cls-3" d="M279.43,372.74a19.76,19.76,0,1,1-12.42,25h0a19.78,19.78,0,0,1,12.42-25m-.22-.63A20.43,20.43,0,1,0,305.09,385a20.42,20.42,0,0,0-25.88-12.85Z"/><path class="cls-4" d="M290.89,406.81a16.19,16.19,0,1,1,10.17-20.51h0A16.22,16.22,0,0,1,290.89,406.81Z"/><path d="M280.67,376.44a15.86,15.86,0,1,1-10,20.09h0a15.88,15.88,0,0,1,10-20.08m-.21-.63a16.52,16.52,0,1,0,20.92,10.4h0a16.51,16.51,0,0,0-20.92-10.39Z"/><rect class="cls-5" x="124.19" y="73.83" width="208.69" height="295.24" transform="translate(-58.68 84.42) rotate(-18.59)"/></svg>
