<svg id="Layer_1" data-name="Layer 1" xmlns="http://www.w3.org/2000/svg" xmlns:xlink="http://www.w3.org/1999/xlink" width="19" height="27" viewBox="0 0 19 27"><defs><style>.cls-1{fill:#fff;}.cls-2{fill:url(#linear-gradient);}.cls-3{fill:url(#linear-gradient-2);}.cls-4{fill:url(#linear-gradient-3);}.cls-5{fill:url(#linear-gradient-4);}</style><linearGradient id="linear-gradient" x1="225.45" y1="-461.89" x2="226.46" y2="-463.64" gradientTransform="matrix(0.95, -0.32, 0.32, 0.95, -54.33, 532.34)" gradientUnits="userSpaceOnUse"><stop offset="0" stop-color="#2a2627"/><stop offset="0.07" stop-color="#403c3d"/><stop offset="0.22" stop-color="#797677"/><stop offset="0.43" stop-color="#d3d2d2"/><stop offset="0.52" stop-color="#fff"/><stop offset="0.53" stop-color="#f4f4f4"/><stop offset="0.61" stop-color="#b4b4b4"/><stop offset="0.69" stop-color="#7d7d7d"/><stop offset="0.76" stop-color="#505050"/><stop offset="0.83" stop-color="#2d2d2d"/><stop offset="0.89" stop-color="#141414"/><stop offset="0.95" stop-color="#050505"/><stop offset="1"/></linearGradient><linearGradient id="linear-gradient-2" x1="224.93" y1="-462.76" x2="226.98" y2="-462.76" gradientTransform="matrix(0.95, -0.32, 0.32, 0.95, -54.33, 532.34)" gradientUnits="userSpaceOnUse"><stop offset="0" stop-color="#2a2627"/><stop offset="0.2" stop-color="#2c2829"/><stop offset="0.27" stop-color="#332f30"/><stop offset="0.32" stop-color="#3e3a3b"/><stop offset="0.37" stop-color="#4f4b4c"/><stop offset="0.4" stop-color="#646162"/><stop offset="0.43" stop-color="#7f7d7d"/><stop offset="0.46" stop-color="#9f9d9d"/><stop offset="0.49" stop-color="#c4c3c3"/><stop offset="0.51" stop-color="#ececec"/><stop offset="0.52" stop-color="#fff"/><stop offset="0.53" stop-color="#f4f4f4"/><stop offset="0.61" stop-color="#b4b4b4"/><stop offset="0.69" stop-color="#7d7d7d"/><stop offset="0.76" stop-color="#505050"/><stop offset="0.83" stop-color="#2d2d2d"/><stop offset="0.89" stop-color="#141414"/><stop offset="0.95" stop-color="#050505"/><stop offset="1"/></linearGradient><linearGradient id="linear-gradient-3" x1="225.55" y1="-462.06" x2="226.36" y2="-463.47" gradientTransform="matrix(0.95, -0.32, 0.32, 0.95, -54.33, 532.34)" gradientUnits="userSpaceOnUse"><stop offset="0" stop-color="#2a2627"/><stop offset="0.05" stop-color="#302c2d"/><stop offset="0.13" stop-color="#423f3f"/><stop offset="0.21" stop-color="#5f5c5d"/><stop offset="0.31" stop-color="#888686"/><stop offset="0.41" stop-color="#bcbbbb"/><stop offset="0.52" stop-color="#fbfbfb"/><stop offset="0.52" stop-color="#fff"/><stop offset="0.53" stop-color="#f4f4f4"/><stop offset="0.61" stop-color="#b4b4b4"/><stop offset="0.69" stop-color="#7d7d7d"/><stop offset="0.76" stop-color="#505050"/><stop offset="0.83" stop-color="#2d2d2d"/><stop offset="0.89" stop-color="#141414"/><stop offset="0.95" stop-color="#050505"/><stop offset="1"/></linearGradient><linearGradient id="linear-gradient-4" x1="221.44" y1="-463.94" x2="230.47" y2="-479.59" gradientTransform="translate(-216.53 484.92)" gradientUnits="userSpaceOnUse"><stop offset="0.02" stop-color="#00012e"/><stop offset="0.07" stop-color="#010635"/><stop offset="0.14" stop-color="#051347"/><stop offset="0.23" stop-color="#0b2966"/><stop offset="0.32" stop-color="#134790"/><stop offset="0.42" stop-color="#1d6dc6"/><stop offset="0.51" stop-color="#2894fd"/><stop offset="0.67" stop-color="#195db0"/><stop offset="0.83" stop-color="#0c2c6a"/><stop offset="0.94" stop-color="#030d3f"/><stop offset="1" stop-color="#00012e"/></linearGradient></defs><title>mobil_1</title><rect class="cls-1" x="3.89" y="3.68" width="11.35" height="19.75" rx="0.38" transform="translate(-3.82 3.76) rotate(-18.59)"/><path d="M11.43,2.53a.36.36,0,0,1,.47.23l6,18a.38.38,0,0,1-.23.47h0l-10,3.37a.37.37,0,0,1-.46-.23h0l-6.06-18a.36.36,0,0,1,.24-.46l10-3.37m0,0L1.4,5.87a.39.39,0,0,0-.26.5l6.06,18a.39.39,0,0,0,.5.25l10-3.37a.4.4,0,0,0,.25-.51l-6.05-18A.41.41,0,0,0,11.42,2.49Z"/><circle class="cls-2" cx="12.3" cy="21.69" r="1.01"/><path class="cls-3" d="M12,20.75a1,1,0,0,1,1.26.62,1,1,0,0,1-.63,1.26A1,1,0,0,1,11.36,22h0A1,1,0,0,1,12,20.75m0,0a1,1,0,1,0,1.3.65,1,1,0,0,0-1.3-.65Z"/><path class="cls-4" d="M12.55,22.46a.81.81,0,0,1-1-.51.81.81,0,0,1,1.54-.52h0A.82.82,0,0,1,12.55,22.46Z"/><path d="M12,20.93a.8.8,0,0,1,1,.5.8.8,0,0,1-1.51.51h0a.8.8,0,0,1,.5-1m0,0a.83.83,0,1,0,1.05.52h0A.82.82,0,0,0,12,20.9Z"/><rect class="cls-5" x="4.19" y="5.74" width="10.47" height="14.82" transform="translate(-3.7 3.69) rotate(-18.59)"/></svg>
