<svg id="Layer_1" data-name="Layer 1" xmlns="http://www.w3.org/2000/svg" xmlns:xlink="http://www.w3.org/1999/xlink" width="1685" height="421" viewBox="0 0 1685 421"><defs><style>.cls-1{fill:url(#linear-gradient);}.cls-2{fill:url(#linear-gradient-2);}.cls-3{fill:url(#linear-gradient-3);}.cls-4{fill:url(#linear-gradient-4);}.cls-5{fill:#ff85b5;}.cls-6{fill:#c1fff5;}.cls-7{fill:#f2f2f1;}.cls-8{fill:url(#linear-gradient-5);}.cls-9{fill:url(#linear-gradient-6);}.cls-10{fill:#ffa55d;}.cls-11{fill:red;}.cls-12{fill:url(#linear-gradient-7);}.cls-13{fill:url(#linear-gradient-8);}.cls-14{fill:url(#linear-gradient-9);}.cls-15{fill:url(#linear-gradient-10);}.cls-16{fill:url(#linear-gradient-11);}.cls-17{fill:#fff85b;}.cls-18{fill:#f4ff0f;}.cls-19{fill:#f13d24;}.cls-20{fill:#f15a24;}.cls-21{fill:#c6d0ff;}.cls-22{fill:#ff941a;}.cls-23{fill:#7f3900;}.cls-24{fill:url(#linear-gradient-12);}.cls-25{fill:url(#linear-gradient-13);}.cls-26{fill:url(#linear-gradient-14);}.cls-27{fill:url(#linear-gradient-15);}.cls-28{fill:url(#linear-gradient-16);}.cls-29{fill:url(#linear-gradient-17);}.cls-30{fill:url(#linear-gradient-18);}.cls-31{fill:url(#linear-gradient-19);}.cls-32{fill:url(#linear-gradient-20);}.cls-33{fill:url(#linear-gradient-21);}.cls-34{fill:url(#linear-gradient-22);}.cls-35{fill:url(#linear-gradient-23);}.cls-36{fill:url(#linear-gradient-24);}.cls-37{fill:url(#linear-gradient-25);}.cls-38{fill:url(#linear-gradient-26);}.cls-39{fill:url(#linear-gradient-27);}.cls-40{fill:none;}.cls-41{fill:url(#linear-gradient-28);}.cls-42{fill:url(#linear-gradient-29);}.cls-43{fill:url(#linear-gradient-30);}.cls-44{fill:url(#linear-gradient-31);}.cls-45{fill:url(#linear-gradient-32);}.cls-46{fill:url(#linear-gradient-33);}.cls-47{fill:url(#linear-gradient-34);}.cls-48{fill:url(#linear-gradient-35);}.cls-49{fill:url(#linear-gradient-36);}.cls-50{fill:url(#linear-gradient-37);}.cls-51{fill:url(#linear-gradient-38);}.cls-52{fill:url(#linear-gradient-39);}.cls-53{fill:url(#linear-gradient-40);}.cls-54{fill:url(#linear-gradient-41);}.cls-55{fill:url(#linear-gradient-42);}.cls-56{fill:url(#linear-gradient-43);}.cls-57{fill:url(#linear-gradient-44);}.cls-58{fill:url(#linear-gradient-45);}.cls-59{fill:url(#linear-gradient-46);}.cls-60{fill:url(#linear-gradient-47);}.cls-61{fill:url(#linear-gradient-48);}.cls-62{fill:url(#linear-gradient-49);}.cls-63{fill:url(#linear-gradient-50);}.cls-64{fill:url(#linear-gradient-51);}.cls-65{fill:url(#linear-gradient-52);}.cls-66{fill:url(#linear-gradient-53);}.cls-67{fill:url(#linear-gradient-54);}.cls-68{fill:url(#linear-gradient-55);}.cls-69{fill:url(#linear-gradient-56);}.cls-70{fill:url(#linear-gradient-57);}.cls-71{fill:url(#linear-gradient-58);}.cls-72{fill:url(#linear-gradient-59);}.cls-73{fill:url(#linear-gradient-60);}.cls-74{fill:url(#linear-gradient-61);}.cls-75{fill:url(#linear-gradient-62);}.cls-76{fill:url(#linear-gradient-63);}.cls-77{fill:url(#linear-gradient-64);}.cls-78{fill:url(#linear-gradient-65);}.cls-79{fill:url(#linear-gradient-66);}.cls-80{fill:url(#linear-gradient-67);}.cls-81{fill:url(#linear-gradient-68);}.cls-82{fill:url(#linear-gradient-69);}.cls-83{fill:url(#linear-gradient-70);}.cls-84{fill:url(#linear-gradient-71);}.cls-85{fill:url(#linear-gradient-72);}.cls-86{fill:url(#linear-gradient-73);}.cls-87{fill:url(#linear-gradient-74);}.cls-88{fill:url(#linear-gradient-75);}.cls-89{fill:url(#linear-gradient-76);}.cls-90{fill:url(#linear-gradient-77);}.cls-91{fill:url(#linear-gradient-78);}.cls-92{fill:url(#linear-gradient-79);}.cls-93{fill:url(#linear-gradient-80);}.cls-94{fill:url(#linear-gradient-81);}.cls-95{fill:url(#linear-gradient-82);}.cls-96{fill:url(#linear-gradient-83);}.cls-97{fill:url(#linear-gradient-84);}.cls-98{fill:url(#linear-gradient-85);}.cls-99{fill:url(#linear-gradient-86);}.cls-100{fill:url(#linear-gradient-87);}.cls-101{fill:url(#linear-gradient-88);}.cls-102{fill:url(#linear-gradient-89);}.cls-103{fill:url(#linear-gradient-90);}.cls-104{fill:url(#linear-gradient-91);}.cls-105{fill:url(#linear-gradient-92);}.cls-106{fill:url(#linear-gradient-93);}.cls-107{fill:url(#linear-gradient-94);}.cls-108{fill:url(#linear-gradient-95);}.cls-109{fill:url(#linear-gradient-96);}.cls-110{fill:url(#linear-gradient-97);}.cls-111{fill:url(#linear-gradient-98);}.cls-112{fill:url(#linear-gradient-99);}.cls-113{fill:url(#linear-gradient-100);}.cls-114{fill:url(#linear-gradient-101);}.cls-115{fill:url(#linear-gradient-102);}.cls-116{fill:url(#linear-gradient-103);}.cls-117{fill:url(#linear-gradient-104);}.cls-118{fill:url(#linear-gradient-105);}.cls-119{fill:url(#linear-gradient-106);}.cls-120{fill:url(#linear-gradient-107);}.cls-121{fill:url(#linear-gradient-108);}.cls-122{fill:url(#linear-gradient-109);}.cls-123{fill:url(#linear-gradient-110);}</style><linearGradient id="linear-gradient" x1="613.9" y1="274.72" x2="627.19" y2="274.72" gradientTransform="translate(0.64 0.82)" gradientUnits="userSpaceOnUse"><stop offset="0" stop-color="#ffb580"/><stop offset="0.3" stop-color="#ffb47c"/><stop offset="0.57" stop-color="#ffb071"/><stop offset="0.82" stop-color="#ffab5f"/><stop offset="1" stop-color="#ffa54e"/></linearGradient><linearGradient id="linear-gradient-2" x1="611.11" y1="141.15" x2="654.31" y2="141.15" gradientUnits="userSpaceOnUse"><stop offset="0" stop-color="#f15a24"/><stop offset="0.21" stop-color="#ee5628"/><stop offset="0.42" stop-color="#e44a34"/><stop offset="0.63" stop-color="#d43647"/><stop offset="0.84" stop-color="#be1a62"/><stop offset="1" stop-color="#aa007b"/></linearGradient><linearGradient id="linear-gradient-3" x1="606.72" y1="73.94" x2="654.21" y2="73.94" gradientUnits="userSpaceOnUse"><stop offset="0" stop-color="#ffb580"/><stop offset="0.38" stop-color="#ffb47d"/><stop offset="0.61" stop-color="#ffb175"/><stop offset="0.8" stop-color="#ffad66"/><stop offset="0.97" stop-color="#ffa652"/><stop offset="1" stop-color="#ffa54e"/></linearGradient><linearGradient id="linear-gradient-4" x1="648.28" y1="68.83" x2="660.15" y2="68.83" gradientUnits="userSpaceOnUse"><stop offset="0" stop-color="#ffb580"/><stop offset="0.55" stop-color="#ffab62"/><stop offset="1" stop-color="#ffa54e"/></linearGradient><linearGradient id="linear-gradient-5" x1="636.4" y1="77" x2="646.3" y2="77" gradientUnits="userSpaceOnUse"><stop offset="0" stop-color="#ff85b5"/><stop offset="0.27" stop-color="#ff7f9f"/><stop offset="0.84" stop-color="#ff6f68"/><stop offset="1" stop-color="#ff6a57"/></linearGradient><linearGradient id="linear-gradient-6" x1="610" y1="77" x2="619.89" y2="77" xlink:href="#linear-gradient-5"/><linearGradient id="linear-gradient-7" x1="640.48" y1="274.72" x2="653.77" y2="274.72" xlink:href="#linear-gradient"/><linearGradient id="linear-gradient-8" x1="624.44" y1="163.23" x2="641.19" y2="192.23" gradientUnits="userSpaceOnUse"><stop offset="0" stop-color="#fff"/><stop offset="0.36" stop-color="#fefdfd"/><stop offset="0.55" stop-color="#faf6f5"/><stop offset="0.7" stop-color="#f4eae7"/><stop offset="0.83" stop-color="#ebdad4"/><stop offset="0.95" stop-color="#e0c4bb"/><stop offset="1" stop-color="#dab9ae"/></linearGradient><linearGradient id="linear-gradient-9" x1="734.39" y1="204.36" x2="747.98" y2="227.9" gradientTransform="translate(818.36 -549.85) rotate(89.42)" xlink:href="#linear-gradient-8"/><linearGradient id="linear-gradient-10" x1="860.61" y1="204.73" x2="875.94" y2="231.28" gradientTransform="translate(853.66 -680.28) rotate(88.69)" gradientUnits="userSpaceOnUse"><stop offset="0" stop-color="#fff"/><stop offset="0.18" stop-color="#f6eeeb"/><stop offset="0.52" stop-color="#e7d1ca"/><stop offset="0.81" stop-color="#ddbfb5"/><stop offset="1" stop-color="#dab9ae"/></linearGradient><linearGradient id="linear-gradient-11" x1="625.11" y1="182.33" x2="641.1" y2="210.02" gradientUnits="userSpaceOnUse"><stop offset="0" stop-color="#fff"/><stop offset="0.26" stop-color="#f4eae7"/><stop offset="0.75" stop-color="#e1c7be"/><stop offset="1" stop-color="#dab9ae"/></linearGradient><linearGradient id="linear-gradient-12" x1="243.63" y1="27.11" x2="247.72" y2="26.13" gradientTransform="matrix(0.94, -0.33, 0.34, 0.97, 442.1, 281.59)" xlink:href="#linear-gradient"/><linearGradient id="linear-gradient-13" x1="247.35" y1="27.07" x2="251.44" y2="26.09" gradientTransform="matrix(0.94, -0.33, 0.34, 0.97, 442.1, 281.59)" xlink:href="#linear-gradient"/><linearGradient id="linear-gradient-14" x1="251.08" y1="27.04" x2="255.17" y2="26.05" gradientTransform="matrix(0.94, -0.33, 0.34, 0.97, 442.1, 281.59)" xlink:href="#linear-gradient"/><linearGradient id="linear-gradient-15" x1="254.8" y1="27" x2="258.89" y2="26.02" gradientTransform="matrix(0.94, -0.33, 0.34, 0.97, 442.1, 281.59)" xlink:href="#linear-gradient"/><linearGradient id="linear-gradient-16" x1="1157.93" y1="182.62" x2="1161.8" y2="181.69" gradientTransform="matrix(0.94, 0.34, -0.35, 0.97, -348.78, -346.22)" xlink:href="#linear-gradient"/><linearGradient id="linear-gradient-17" x1="365.05" y1="72.02" x2="379.13" y2="72.02" gradientTransform="translate(295.73 185.9) rotate(-13.49)" xlink:href="#linear-gradient"/><linearGradient id="linear-gradient-18" x1="827.74" y1="226" x2="831.82" y2="225.03" gradientTransform="matrix(-0.94, -0.33, -0.34, 0.97, 1442.28, 281.59)" xlink:href="#linear-gradient"/><linearGradient id="linear-gradient-19" x1="831.45" y1="225.97" x2="835.52" y2="224.99" gradientTransform="matrix(-0.94, -0.33, -0.34, 0.97, 1442.28, 281.59)" xlink:href="#linear-gradient"/><linearGradient id="linear-gradient-20" x1="835.16" y1="225.93" x2="839.23" y2="224.95" gradientTransform="matrix(-0.94, -0.33, -0.34, 0.97, 1442.28, 281.59)" xlink:href="#linear-gradient"/><linearGradient id="linear-gradient-21" x1="838.86" y1="225.89" x2="842.93" y2="224.92" gradientTransform="matrix(-0.94, -0.33, -0.34, 0.97, 1442.28, 281.59)" xlink:href="#linear-gradient"/><linearGradient id="linear-gradient-22" x1="1740.92" y1="-20.01" x2="1744.79" y2="-20.93" gradientTransform="matrix(-0.94, 0.34, 0.35, 0.97, 2233.17, -346.22)" xlink:href="#linear-gradient"/><linearGradient id="linear-gradient-23" x1="967.35" y1="216.48" x2="981.43" y2="216.48" gradientTransform="matrix(-0.97, -0.23, -0.23, 0.97, 1588.65, 185.9)" xlink:href="#linear-gradient"/><linearGradient id="linear-gradient-24" x1="513.15" y1="77.89" x2="530.97" y2="77.89" gradientTransform="translate(132.54 88.25) rotate(-6.11)" xlink:href="#linear-gradient"/><linearGradient id="linear-gradient-25" x1="484.98" y1="247.45" x2="502.79" y2="247.45" gradientTransform="translate(132.54 88.25) rotate(-6.11)" xlink:href="#linear-gradient"/><linearGradient id="linear-gradient-26" x1="456.61" y1="75.9" x2="473.24" y2="75.9" gradientTransform="translate(132.54 88.25) rotate(-6.11)" xlink:href="#linear-gradient"/><linearGradient id="linear-gradient-27" x1="455.24" y1="244.27" x2="473.05" y2="244.27" gradientTransform="translate(132.54 88.25) rotate(-6.11)" xlink:href="#linear-gradient"/><linearGradient id="linear-gradient-28" x1="192.9" y1="274.72" x2="206.19" y2="274.72" xlink:href="#linear-gradient"/><linearGradient id="linear-gradient-29" x1="190.11" y1="141.15" x2="233.31" y2="141.15" xlink:href="#linear-gradient-2"/><linearGradient id="linear-gradient-30" x1="185.72" y1="73.94" x2="233.21" y2="73.94" xlink:href="#linear-gradient-3"/><linearGradient id="linear-gradient-31" x1="227.28" y1="68.83" x2="239.15" y2="68.83" xlink:href="#linear-gradient-4"/><linearGradient id="linear-gradient-32" x1="215.4" y1="77" x2="225.3" y2="77" xlink:href="#linear-gradient-5"/><linearGradient id="linear-gradient-33" x1="189" y1="77" x2="198.89" y2="77" xlink:href="#linear-gradient-5"/><linearGradient id="linear-gradient-34" x1="219.48" y1="274.72" x2="232.77" y2="274.72" xlink:href="#linear-gradient"/><linearGradient id="linear-gradient-35" x1="203.44" y1="163.23" x2="220.19" y2="192.23" xlink:href="#linear-gradient-8"/><linearGradient id="linear-gradient-36" x1="315.36" y1="245.02" x2="328.95" y2="268.55" gradientTransform="translate(442.27 -131.25) rotate(89.42)" xlink:href="#linear-gradient-8"/><linearGradient id="linear-gradient-37" x1="444.74" y1="270.25" x2="460.07" y2="296.79" gradientTransform="translate(507.66 -266.01) rotate(88.69)" xlink:href="#linear-gradient-10"/><linearGradient id="linear-gradient-38" x1="204.11" y1="182.33" x2="220.1" y2="210.02" xlink:href="#linear-gradient-11"/><linearGradient id="linear-gradient-39" x1="-153.72" y1="-108.33" x2="-149.65" y2="-109.3" gradientTransform="matrix(0.94, -0.33, 0.34, 0.97, 442.1, 281.59)" xlink:href="#linear-gradient"/><linearGradient id="linear-gradient-40" x1="-150.01" y1="-108.36" x2="-145.94" y2="-109.34" gradientTransform="matrix(0.94, -0.33, 0.34, 0.97, 442.1, 281.59)" xlink:href="#linear-gradient"/><linearGradient id="linear-gradient-41" x1="-146.31" y1="-108.4" x2="-142.24" y2="-109.38" gradientTransform="matrix(0.94, -0.33, 0.34, 0.97, 442.1, 281.59)" xlink:href="#linear-gradient"/><linearGradient id="linear-gradient-42" x1="-142.6" y1="-108.44" x2="-138.53" y2="-109.41" gradientTransform="matrix(0.94, -0.33, 0.34, 0.97, 442.1, 281.59)" xlink:href="#linear-gradient"/><linearGradient id="linear-gradient-43" x1="761.67" y1="320.35" x2="765.53" y2="319.42" gradientTransform="matrix(0.94, 0.34, -0.35, 0.97, -348.78, -346.22)" xlink:href="#linear-gradient"/><linearGradient id="linear-gradient-44" x1="-44.34" y1="-26.17" x2="-30.26" y2="-26.17" gradientTransform="translate(295.73 185.9) rotate(-13.49)" xlink:href="#linear-gradient"/><linearGradient id="linear-gradient-45" x1="1224.9" y1="361.29" x2="1228.97" y2="360.31" gradientTransform="matrix(-0.94, -0.33, -0.34, 0.97, 1442.28, 281.59)" xlink:href="#linear-gradient"/><linearGradient id="linear-gradient-46" x1="1228.61" y1="361.25" x2="1232.68" y2="360.28" gradientTransform="matrix(-0.94, -0.33, -0.34, 0.97, 1442.28, 281.59)" xlink:href="#linear-gradient"/><linearGradient id="linear-gradient-47" x1="1232.31" y1="361.22" x2="1236.39" y2="360.24" gradientTransform="matrix(-0.94, -0.33, -0.34, 0.97, 1442.28, 281.59)" xlink:href="#linear-gradient"/><linearGradient id="linear-gradient-48" x1="1236.02" y1="361.18" x2="1240.09" y2="360.2" gradientTransform="matrix(-0.94, -0.33, -0.34, 0.97, 1442.28, 281.59)" xlink:href="#linear-gradient"/><linearGradient id="linear-gradient-49" x1="2137.18" y1="-157.73" x2="2141.05" y2="-158.66" gradientTransform="matrix(-0.94, 0.34, 0.35, 0.97, 2233.17, -346.22)" xlink:href="#linear-gradient"/><linearGradient id="linear-gradient-50" x1="1376.74" y1="314.67" x2="1390.82" y2="314.67" gradientTransform="matrix(-0.97, -0.23, -0.23, 0.97, 1588.65, 185.9)" xlink:href="#linear-gradient"/><linearGradient id="linear-gradient-51" x1="94.55" y1="33.08" x2="112.36" y2="33.08" gradientTransform="translate(132.54 88.25) rotate(-6.11)" xlink:href="#linear-gradient"/><linearGradient id="linear-gradient-52" x1="66.37" y1="202.64" x2="84.18" y2="202.64" gradientTransform="translate(132.54 88.25) rotate(-6.11)" xlink:href="#linear-gradient"/><linearGradient id="linear-gradient-53" x1="38.01" y1="31.09" x2="54.63" y2="31.09" gradientTransform="translate(132.54 88.25) rotate(-6.11)" xlink:href="#linear-gradient"/><linearGradient id="linear-gradient-54" x1="36.63" y1="199.45" x2="54.44" y2="199.45" gradientTransform="translate(132.54 88.25) rotate(-6.11)" xlink:href="#linear-gradient"/><linearGradient id="linear-gradient-55" x1="1035.9" y1="274.72" x2="1049.19" y2="274.72" xlink:href="#linear-gradient"/><linearGradient id="linear-gradient-56" x1="1033.11" y1="141.15" x2="1076.31" y2="141.15" xlink:href="#linear-gradient-2"/><linearGradient id="linear-gradient-57" x1="1028.72" y1="73.94" x2="1076.21" y2="73.94" xlink:href="#linear-gradient-3"/><linearGradient id="linear-gradient-58" x1="1070.28" y1="68.83" x2="1082.15" y2="68.83" xlink:href="#linear-gradient-4"/><linearGradient id="linear-gradient-59" x1="1058.4" y1="77" x2="1068.3" y2="77" xlink:href="#linear-gradient-5"/><linearGradient id="linear-gradient-60" x1="1032" y1="77" x2="1041.89" y2="77" xlink:href="#linear-gradient-5"/><linearGradient id="linear-gradient-61" x1="1062.48" y1="274.72" x2="1075.77" y2="274.72" xlink:href="#linear-gradient"/><linearGradient id="linear-gradient-62" x1="1046.44" y1="163.23" x2="1063.19" y2="192.23" xlink:href="#linear-gradient-8"/><linearGradient id="linear-gradient-63" x1="1154.42" y1="163.61" x2="1168.01" y2="187.15" gradientTransform="translate(1195.35 -969.44) rotate(89.42)" xlink:href="#linear-gradient-8"/><linearGradient id="linear-gradient-64" x1="1277.47" y1="139.05" x2="1292.8" y2="165.6" gradientTransform="translate(1200.47 -1095.52) rotate(88.69)" xlink:href="#linear-gradient-10"/><linearGradient id="linear-gradient-65" x1="1047.11" y1="182.33" x2="1063.1" y2="210.02" xlink:href="#linear-gradient-11"/><linearGradient id="linear-gradient-66" x1="641.54" y1="162.57" x2="645.61" y2="161.6" gradientTransform="matrix(0.94, -0.33, 0.34, 0.97, 442.1, 281.59)" xlink:href="#linear-gradient"/><linearGradient id="linear-gradient-67" x1="645.25" y1="162.54" x2="649.32" y2="161.56" gradientTransform="matrix(0.94, -0.33, 0.34, 0.97, 442.1, 281.59)" xlink:href="#linear-gradient"/><linearGradient id="linear-gradient-68" x1="648.95" y1="162.5" x2="653.02" y2="161.52" gradientTransform="matrix(0.94, -0.33, 0.34, 0.97, 442.1, 281.59)" xlink:href="#linear-gradient"/><linearGradient id="linear-gradient-69" x1="652.66" y1="162.46" x2="656.73" y2="161.49" gradientTransform="matrix(0.94, -0.33, 0.34, 0.97, 442.1, 281.59)" xlink:href="#linear-gradient"/><linearGradient id="linear-gradient-70" x1="1555.13" y1="44.57" x2="1559" y2="43.64" gradientTransform="matrix(0.94, 0.34, -0.35, 0.97, -348.78, -346.22)" xlink:href="#linear-gradient"/><linearGradient id="linear-gradient-71" x1="775.41" y1="170.44" x2="789.49" y2="170.44" gradientTransform="translate(295.73 185.9) rotate(-13.49)" xlink:href="#linear-gradient"/><linearGradient id="linear-gradient-72" x1="429.64" y1="90.39" x2="433.71" y2="89.42" gradientTransform="matrix(-0.94, -0.33, -0.34, 0.97, 1442.28, 281.59)" xlink:href="#linear-gradient"/><linearGradient id="linear-gradient-73" x1="433.35" y1="90.36" x2="437.42" y2="89.38" gradientTransform="matrix(-0.94, -0.33, -0.34, 0.97, 1442.28, 281.59)" xlink:href="#linear-gradient"/><linearGradient id="linear-gradient-74" x1="437.06" y1="90.32" x2="441.13" y2="89.34" gradientTransform="matrix(-0.94, -0.33, -0.34, 0.97, 1442.28, 281.59)" xlink:href="#linear-gradient"/><linearGradient id="linear-gradient-75" x1="440.76" y1="90.28" x2="444.83" y2="89.31" gradientTransform="matrix(-0.94, -0.33, -0.34, 0.97, 1442.28, 281.59)" xlink:href="#linear-gradient"/><linearGradient id="linear-gradient-76" x1="1343.72" y1="118.05" x2="1347.58" y2="117.12" gradientTransform="matrix(-0.94, 0.34, 0.35, 0.97, 2233.17, -346.22)" xlink:href="#linear-gradient"/><linearGradient id="linear-gradient-77" x1="556.99" y1="118.06" x2="571.07" y2="118.06" gradientTransform="matrix(-0.97, -0.23, -0.23, 0.97, 1588.65, 185.9)" xlink:href="#linear-gradient"/><linearGradient id="linear-gradient-78" x1="932.76" y1="122.81" x2="950.57" y2="122.81" gradientTransform="translate(132.54 88.25) rotate(-6.11)" xlink:href="#linear-gradient"/><linearGradient id="linear-gradient-79" x1="904.58" y1="292.37" x2="922.39" y2="292.37" gradientTransform="translate(132.54 88.25) rotate(-6.11)" xlink:href="#linear-gradient"/><linearGradient id="linear-gradient-80" x1="876.22" y1="120.82" x2="892.84" y2="120.82" gradientTransform="translate(132.54 88.25) rotate(-6.11)" xlink:href="#linear-gradient"/><linearGradient id="linear-gradient-81" x1="874.84" y1="289.18" x2="892.66" y2="289.18" gradientTransform="translate(132.54 88.25) rotate(-6.11)" xlink:href="#linear-gradient"/><linearGradient id="linear-gradient-82" x1="1458.9" y1="274.72" x2="1472.19" y2="274.72" xlink:href="#linear-gradient"/><linearGradient id="linear-gradient-83" x1="1456.11" y1="141.15" x2="1499.31" y2="141.15" xlink:href="#linear-gradient-2"/><linearGradient id="linear-gradient-84" x1="1451.72" y1="73.94" x2="1499.21" y2="73.94" xlink:href="#linear-gradient-3"/><linearGradient id="linear-gradient-85" x1="1493.28" y1="68.83" x2="1505.15" y2="68.83" xlink:href="#linear-gradient-4"/><linearGradient id="linear-gradient-86" x1="1481.4" y1="77" x2="1491.3" y2="77" xlink:href="#linear-gradient-5"/><linearGradient id="linear-gradient-87" x1="1455" y1="77" x2="1464.89" y2="77" xlink:href="#linear-gradient-5"/><linearGradient id="linear-gradient-88" x1="1485.48" y1="274.72" x2="1498.77" y2="274.72" xlink:href="#linear-gradient"/><linearGradient id="linear-gradient-89" x1="1469.44" y1="163.23" x2="1486.19" y2="192.23" xlink:href="#linear-gradient-8"/><linearGradient id="linear-gradient-90" x1="1575.45" y1="122.76" x2="1589.03" y2="146.3" gradientTransform="translate(1573.23 -1390.03) rotate(89.42)" xlink:href="#linear-gradient-8"/><linearGradient id="linear-gradient-91" x1="1695.32" y1="73.22" x2="1710.65" y2="99.77" gradientTransform="matrix(0.02, 1, -1, 0.02, 1548.11, -1511.76)" xlink:href="#linear-gradient-10"/><linearGradient id="linear-gradient-92" x1="1470.11" y1="182.33" x2="1486.1" y2="210.02" xlink:href="#linear-gradient-11"/><linearGradient id="linear-gradient-93" x1="1040.58" y1="298.5" x2="1044.65" y2="297.53" gradientTransform="matrix(0.94, -0.33, 0.34, 0.97, 442.1, 281.59)" xlink:href="#linear-gradient"/><linearGradient id="linear-gradient-94" x1="1044.29" y1="298.47" x2="1048.36" y2="297.49" gradientTransform="matrix(0.94, -0.33, 0.34, 0.97, 442.1, 281.59)" xlink:href="#linear-gradient"/><linearGradient id="linear-gradient-95" x1="1048" y1="298.43" x2="1052.07" y2="297.45" gradientTransform="matrix(0.94, -0.33, 0.34, 0.97, 442.1, 281.59)" xlink:href="#linear-gradient"/><linearGradient id="linear-gradient-96" x1="1051.7" y1="298.39" x2="1055.77" y2="297.42" gradientTransform="matrix(0.94, -0.33, 0.34, 0.97, 442.1, 281.59)" xlink:href="#linear-gradient"/><linearGradient id="linear-gradient-97" x1="1953.28" y1="-93.82" x2="1957.15" y2="-94.74" gradientTransform="matrix(0.94, 0.34, -0.35, 0.97, -348.78, -346.22)" xlink:href="#linear-gradient"/><linearGradient id="linear-gradient-98" x1="1186.75" y1="269.1" x2="1200.83" y2="269.1" gradientTransform="translate(295.73 185.9) rotate(-13.49)" xlink:href="#linear-gradient"/><linearGradient id="linear-gradient-99" x1="30.6" y1="-45.54" x2="34.67" y2="-46.52" gradientTransform="matrix(-0.94, -0.33, -0.34, 0.97, 1442.28, 281.59)" xlink:href="#linear-gradient"/><linearGradient id="linear-gradient-100" x1="34.31" y1="-45.58" x2="38.38" y2="-46.55" gradientTransform="matrix(-0.94, -0.33, -0.34, 0.97, 1442.28, 281.59)" xlink:href="#linear-gradient"/><linearGradient id="linear-gradient-101" x1="38.01" y1="-45.61" x2="42.08" y2="-46.59" gradientTransform="matrix(-0.94, -0.33, -0.34, 0.97, 1442.28, 281.59)" xlink:href="#linear-gradient"/><linearGradient id="linear-gradient-102" x1="41.72" y1="-45.65" x2="45.79" y2="-46.63" gradientTransform="matrix(-0.94, -0.33, -0.34, 0.97, 1442.28, 281.59)" xlink:href="#linear-gradient"/><linearGradient id="linear-gradient-103" x1="945.57" y1="256.43" x2="949.44" y2="255.5" gradientTransform="matrix(-0.94, 0.34, 0.35, 0.97, 2233.17, -346.22)" xlink:href="#linear-gradient"/><linearGradient id="linear-gradient-104" x1="145.66" y1="19.4" x2="159.74" y2="19.4" gradientTransform="matrix(-0.97, -0.23, -0.23, 0.97, 1588.65, 185.9)" xlink:href="#linear-gradient"/><linearGradient id="linear-gradient-105" x1="1353.35" y1="167.83" x2="1371.17" y2="167.83" gradientTransform="translate(132.54 88.25) rotate(-6.11)" xlink:href="#linear-gradient"/><linearGradient id="linear-gradient-106" x1="1325.18" y1="337.39" x2="1342.99" y2="337.39" gradientTransform="translate(132.54 88.25) rotate(-6.11)" xlink:href="#linear-gradient"/><linearGradient id="linear-gradient-107" x1="1296.81" y1="165.84" x2="1313.44" y2="165.84" gradientTransform="translate(132.54 88.25) rotate(-6.11)" xlink:href="#linear-gradient"/><linearGradient id="linear-gradient-108" x1="1295.44" y1="334.21" x2="1313.25" y2="334.21" gradientTransform="translate(132.54 88.25) rotate(-6.11)" xlink:href="#linear-gradient"/><linearGradient id="linear-gradient-109" x1="-204.34" y1="93.1" x2="-195.61" y2="93.1" gradientTransform="translate(438 155.08) rotate(180)" xlink:href="#linear-gradient-3"/><linearGradient id="linear-gradient-110" x1="-184.83" y1="92.51" x2="-175.7" y2="92.51" gradientTransform="translate(438 155.08) rotate(180)" xlink:href="#linear-gradient-3"/></defs><title>pige_blinker</title><rect class="cls-1" x="614.54" y="188.03" width="13.29" height="175.03" rx="1.9"/><rect class="cls-2" x="611.11" y="93.1" width="43.2" height="96.09" rx="6.19"/><rect class="cls-3" x="606.72" y="38.17" width="47.49" height="71.53" rx="23.23"/><ellipse cx="637.97" cy="65.23" rx="4.37" ry="4.51"/><ellipse cx="618.19" cy="65.23" rx="4.37" ry="4.51"/><ellipse class="cls-4" cx="654.21" cy="68.83" rx="5.94" ry="6.13"/><ellipse class="cls-5" cx="654.21" cy="68.83" rx="3.96" ry="4.09"/><ellipse class="cls-6" cx="654.21" cy="74.96" rx="1.98" ry="2.04"/><ellipse class="cls-7" cx="636" cy="65.23" rx="1.69" ry="1.74"/><ellipse class="cls-7" cx="616.21" cy="65.23" rx="1.69" ry="1.74"/><ellipse class="cls-8" cx="641.35" cy="77" rx="4.95" ry="4.09"/><ellipse class="cls-9" cx="615.63" cy="77" rx="4.95" ry="4.09"/><path d="M640.8,60.61h0a1,1,0,0,1-.84-1.15l.29-2.16a1,1,0,0,1,1.12-.87h0a1,1,0,0,1,.84,1.15l-.29,2.17A1,1,0,0,1,640.8,60.61Z"/><path d="M643.13,61.86h0a1.06,1.06,0,0,1-.06-1.45l1.69-1.88a1,1,0,0,1,1.39-.06h0a1.06,1.06,0,0,1,.06,1.45l-1.69,1.88A1,1,0,0,1,643.13,61.86Z"/><path d="M644.61,65.26h0a1,1,0,0,1,.46-1.37l2.23-1.12a1,1,0,0,1,1.33.48h0a1,1,0,0,1-.46,1.36l-2.24,1.12A1,1,0,0,1,644.61,65.26Z"/><path d="M617.57,60.33h0a1,1,0,0,1-1.23-.69l-.71-2.46a1,1,0,0,1,.67-1.27h0a1,1,0,0,1,1.23.69l.71,2.46A1,1,0,0,1,617.57,60.33Z"/><path d="M614.45,61.9h0a1,1,0,0,1-1.4-.1l-1.64-1.92a1.07,1.07,0,0,1,.1-1.45h0a1,1,0,0,1,1.39.1l1.64,1.93A1,1,0,0,1,614.45,61.9Z"/><path d="M613.06,65.14h0a1,1,0,0,1-1.3.55l-2.29-1a1,1,0,0,1-.53-1.34h0a1,1,0,0,1,1.29-.54l2.3,1A1,1,0,0,1,613.06,65.14Z"/><path class="cls-10" d="M627.5,71.91l.07,5.11h-.07a5.11,5.11,0,0,1,0-10.22Z"/><ellipse class="cls-11" cx="626.49" cy="86.55" rx="1.99" ry="2.06"/><ellipse class="cls-11" cx="629.48" cy="86.55" rx="1.99" ry="2.06"/><path class="cls-11" d="M629.55,87.2l2.86-.9c.65,2.21-.11,4.44-1.68,4.93s-3.39-.93-4-3.14v0Z"/><rect class="cls-12" x="641.12" y="188.03" width="13.29" height="175.03" rx="1.9"/><rect class="cls-13" x="611.22" y="170.87" width="43.2" height="13.73"/><ellipse class="cls-14" cx="609.76" cy="193.49" rx="12.26" ry="16.83" transform="matrix(0.11, -0.99, 0.99, 0.11, 352.34, 779.14)"/><ellipse class="cls-15" cx="655.56" cy="192.76" rx="14.29" ry="17.83" transform="translate(349.09 803.49) rotate(-79.74)"/><ellipse class="cls-16" cx="632.52" cy="195.17" rx="17.81" ry="15.33"/><rect class="cls-17" x="612.82" y="361.42" width="14.83" height="9.07" rx="1.06" transform="translate(986.19 -254.28) rotate(90)"/><rect class="cls-18" x="618.41" y="358.68" width="3.66" height="9.07" transform="translate(983.45 -257.02) rotate(90)"/><path class="cls-19" d="M623.52,385.12l-10.95.23a1.69,1.69,0,0,1,0-.23c0-8.06,5-14.69,11-14.69s11,6.63,11,14.69Z"/><path class="cls-20" d="M608.18,385.16l-19.72.26v-.26c0-9,8.9-16.46,19.72-16.46s19.72,7.43,19.72,16.46Z"/><rect class="cls-21" x="588.46" y="385.12" width="46.02" height="2.1"/><path class="cls-22" d="M610.37,356.88v.38c0,2.28,2.21,4.12,4.94,4.12h9.85c2.73,0,4.94-1.84,4.94-4.12v-.38c0-2.28-2.21-4.12-4.94-4.12h-9.85C612.58,352.76,610.37,354.6,610.37,356.88Z"/><rect class="cls-17" x="641.81" y="361.42" width="14.83" height="9.07" rx="1.06" transform="translate(1015.18 -283.27) rotate(90)"/><rect class="cls-18" x="647.4" y="358.68" width="3.66" height="9.07" transform="translate(1012.44 -286.02) rotate(90)"/><path class="cls-19" d="M645.94,385.12l11,.23v-.23c0-8.06-4.95-14.69-11-14.69s-11,6.63-11,14.69Z"/><path class="cls-20" d="M661.28,385.16l19.72.26v-.26c0-9-8.9-16.46-19.72-16.46s-19.72,7.43-19.72,16.46Z"/><rect class="cls-21" x="634.98" y="385.12" width="46.02" height="2.1" transform="translate(1315.99 772.33) rotate(-180)"/><path class="cls-22" d="M659.09,356.88v.38c0,2.28-2.21,4.12-4.93,4.12H644.3c-2.72,0-4.93-1.84-4.93-4.12v-.38c0-2.28,2.21-4.12,4.93-4.12h9.86C656.88,352.76,659.09,354.6,659.09,356.88Z"/><polygon class="cls-23" points="672.77 75.28 679.6 75.04 686.42 74.81 683.2 81.25 679.97 87.68 676.37 81.48 672.77 75.28"/><ellipse class="cls-23" cx="640.82" cy="45.9" rx="7.02" ry="16.87" transform="translate(201.76 514.93) rotate(-50.99)"/><ellipse class="cls-23" cx="616.89" cy="45.9" rx="16.91" ry="7.01" transform="translate(121.94 416.96) rotate(-41.11)"/><ellipse class="cls-23" cx="654.04" cy="39.9" rx="5.4" ry="4.93" transform="matrix(1, -0.03, 0.03, 1, -0.83, 17.5)"/><ellipse class="cls-23" cx="667.62" cy="44.55" rx="5.4" ry="4.93" transform="translate(-0.95 17.86) rotate(-1.53)"/><ellipse class="cls-23" cx="675.9" cy="54.25" rx="5.4" ry="4.93" transform="translate(-1.21 18.09) rotate(-1.53)"/><ellipse class="cls-23" cx="678.84" cy="66.52" rx="5.4" ry="4.93" transform="translate(-1.54 18.17) rotate(-1.53)"/><ellipse class="cls-23" cx="606.16" cy="38.21" rx="4.65" ry="4.59" transform="translate(178.23 469.22) rotate(-48.81)"/><ellipse class="cls-23" cx="594.01" cy="40.95" rx="4.65" ry="4.59" transform="translate(172.02 461.01) rotate(-48.81)"/><ellipse class="cls-23" cx="585.63" cy="48.99" rx="4.65" ry="4.59" transform="translate(163.11 457.44) rotate(-48.81)"/><ellipse class="cls-23" cx="581.4" cy="60.04" rx="4.65" ry="4.59" transform="translate(153.35 458.04) rotate(-48.81)"/><polygon class="cls-23" points="574.66 65.78 581.32 66.64 587.98 67.49 583.85 72.85 579.72 78.21 577.19 71.99 574.66 65.78"/><path class="cls-24" d="M684.89,231.61h0a.93.93,0,0,1-1.19-.58l-3.19-9.39a1,1,0,0,1,.56-1.22h0a.93.93,0,0,1,1.19.58l3.19,9.39A1,1,0,0,1,684.89,231.61Z"/><path class="cls-25" d="M688.39,230.34h0a.92.92,0,0,1-1.19-.59L684,220.37a1,1,0,0,1,.56-1.23h0a.94.94,0,0,1,1.19.59l3.19,9.39A1,1,0,0,1,688.39,230.34Z"/><path class="cls-26" d="M691.89,229.07h0a.93.93,0,0,1-1.19-.59l-3.19-9.38a1,1,0,0,1,.56-1.23h0a.93.93,0,0,1,1.19.59l3.19,9.39A1,1,0,0,1,691.89,229.07Z"/><path class="cls-27" d="M695.39,227.8h0a.94.94,0,0,1-1.19-.59L691,217.82a1,1,0,0,1,.56-1.22h0a.93.93,0,0,1,1.19.59l3.19,9.39A1,1,0,0,1,695.39,227.8Z"/><path class="cls-28" d="M677.49,228.07h0a1,1,0,0,1-.56-1.22l3.24-9.33a.91.91,0,0,1,1.18-.57h0a1,1,0,0,1,.56,1.22l-3.24,9.32A.93.93,0,0,1,677.49,228.07Z"/><path class="cls-29" d="M687.92,227.55h0a6.66,6.66,0,0,1-8-5.07L655.88,119a6.9,6.9,0,0,1,4.91-8.27h0a6.67,6.67,0,0,1,8,5.07l24,103.46A6.88,6.88,0,0,1,687.92,227.55Z"/><path class="cls-30" d="M580.36,231.51h0a.92.92,0,0,0,1.18-.58l3.18-9.35a1,1,0,0,0-.56-1.21h0A.92.92,0,0,0,583,221l-3.18,9.35A1,1,0,0,0,580.36,231.51Z"/><path class="cls-31" d="M576.88,230.25h0a.92.92,0,0,0,1.18-.59l3.18-9.34a1,1,0,0,0-.57-1.22h0a.91.91,0,0,0-1.17.59L576.31,229A1,1,0,0,0,576.88,230.25Z"/><path class="cls-32" d="M573.39,229h0a.92.92,0,0,0,1.18-.58l3.18-9.35a1,1,0,0,0-.56-1.21h0a.92.92,0,0,0-1.18.58l-3.18,9.35A1,1,0,0,0,573.39,229Z"/><path class="cls-33" d="M569.91,227.72h0a.92.92,0,0,0,1.18-.59l3.18-9.34a1,1,0,0,0-.56-1.22h0a.92.92,0,0,0-1.18.59l-3.18,9.34A1,1,0,0,0,569.91,227.72Z"/><path class="cls-34" d="M587.51,228.07h0a1,1,0,0,0,.56-1.22l-3.24-9.33a.91.91,0,0,0-1.18-.57h0a1,1,0,0,0-.56,1.22l3.24,9.32A.92.92,0,0,0,587.51,228.07Z"/><path class="cls-35" d="M577.08,227.55h0a6.66,6.66,0,0,0,8-5.07l24-103.46a6.9,6.9,0,0,0-4.91-8.27h0a6.67,6.67,0,0,0-8,5.07l-24,103.46A6.88,6.88,0,0,0,577.08,227.55Z"/><ellipse class="cls-36" cx="659.93" cy="110.13" rx="8.9" ry="9.19"/><ellipse class="cls-37" cx="649.96" cy="281.73" rx="8.9" ry="9.19"/><ellipse class="cls-38" cx="602.91" cy="114.24" rx="8.31" ry="8.58"/><ellipse class="cls-39" cx="620.05" cy="281.73" rx="8.9" ry="9.19"/><rect class="cls-40" x="422.5" y="0.4" width="420" height="420"/><rect class="cls-41" x="193.54" y="188.03" width="13.29" height="175.03" rx="1.9"/><rect class="cls-42" x="190.11" y="93.1" width="43.2" height="96.09" rx="6.19"/><rect class="cls-43" x="185.72" y="38.17" width="47.49" height="71.53" rx="23.23"/><ellipse cx="216.97" cy="65.23" rx="4.37" ry="4.51"/><ellipse cx="197.19" cy="65.23" rx="4.37" ry="4.51"/><ellipse class="cls-44" cx="233.21" cy="68.83" rx="5.94" ry="6.13"/><ellipse class="cls-5" cx="233.21" cy="68.83" rx="3.96" ry="4.09"/><ellipse class="cls-6" cx="233.21" cy="74.96" rx="1.98" ry="2.04"/><ellipse class="cls-7" cx="215" cy="65.23" rx="1.69" ry="1.74"/><ellipse class="cls-7" cx="195.21" cy="65.23" rx="1.69" ry="1.74"/><ellipse class="cls-45" cx="220.35" cy="77" rx="4.95" ry="4.09"/><ellipse class="cls-46" cx="194.63" cy="77" rx="4.95" ry="4.09"/><path d="M219.8,60.61h0a1,1,0,0,1-.84-1.15l.29-2.16a1,1,0,0,1,1.12-.87h0a1,1,0,0,1,.84,1.15l-.29,2.17A1,1,0,0,1,219.8,60.61Z"/><path d="M222.13,61.86h0a1.06,1.06,0,0,1-.06-1.45l1.69-1.88a1,1,0,0,1,1.39-.06h0a1.06,1.06,0,0,1,.06,1.45l-1.69,1.88A1,1,0,0,1,222.13,61.86Z"/><path d="M223.61,65.26h0a1,1,0,0,1,.46-1.37l2.23-1.12a1,1,0,0,1,1.33.48h0a1,1,0,0,1-.46,1.36l-2.24,1.12A1,1,0,0,1,223.61,65.26Z"/><path d="M196.57,60.33h0a1,1,0,0,1-1.23-.69l-.71-2.46a1,1,0,0,1,.67-1.27h0a1,1,0,0,1,1.23.69l.71,2.46A1,1,0,0,1,196.57,60.33Z"/><path d="M193.45,61.9h0a1,1,0,0,1-1.4-.1l-1.64-1.92a1.07,1.07,0,0,1,.1-1.45h0a1,1,0,0,1,1.39.1l1.64,1.93A1,1,0,0,1,193.45,61.9Z"/><path d="M192.06,65.14h0a1,1,0,0,1-1.3.55l-2.29-1a1,1,0,0,1-.53-1.34h0a1,1,0,0,1,1.29-.54l2.3,1A1,1,0,0,1,192.06,65.14Z"/><path class="cls-10" d="M206.5,71.91l.07,5.11h-.07a5.11,5.11,0,0,1,0-10.22Z"/><ellipse class="cls-11" cx="205.49" cy="86.55" rx="1.99" ry="2.06"/><ellipse class="cls-11" cx="208.48" cy="86.55" rx="1.99" ry="2.06"/><path class="cls-11" d="M208.55,87.2l2.86-.9c.65,2.21-.11,4.44-1.68,4.93s-3.39-.93-4-3.14v0Z"/><rect class="cls-47" x="220.12" y="188.03" width="13.29" height="175.03" rx="1.9"/><rect class="cls-48" x="190.22" y="170.87" width="43.2" height="13.73"/><ellipse class="cls-49" cx="188.76" cy="193.49" rx="12.26" ry="16.83" transform="translate(-23.76 360.54) rotate(-83.88)"/><ellipse class="cls-50" cx="234.56" cy="192.76" rx="14.29" ry="17.83" transform="translate(3.09 389.22) rotate(-79.74)"/><ellipse class="cls-51" cx="211.52" cy="195.17" rx="17.81" ry="15.33"/><rect class="cls-17" x="191.82" y="361.42" width="14.83" height="9.07" rx="1.06" transform="translate(565.19 166.72) rotate(90)"/><rect class="cls-18" x="197.41" y="358.68" width="3.66" height="9.07" transform="translate(562.45 163.98) rotate(90)"/><path class="cls-19" d="M202.52,385.12l-11,.23a1.69,1.69,0,0,1,0-.23c0-8.06,4.95-14.69,11-14.69s11,6.63,11,14.69Z"/><path class="cls-20" d="M187.18,385.16l-19.72.26v-.26c0-9,8.9-16.46,19.72-16.46s19.72,7.43,19.72,16.46Z"/><rect class="cls-21" x="167.46" y="385.12" width="46.02" height="2.1"/><path class="cls-22" d="M189.37,356.88v.38c0,2.28,2.21,4.12,4.94,4.12h9.85c2.73,0,4.94-1.84,4.94-4.12v-.38c0-2.28-2.21-4.12-4.94-4.12h-9.85C191.58,352.76,189.37,354.6,189.37,356.88Z"/><rect class="cls-17" x="220.81" y="361.42" width="14.83" height="9.07" rx="1.06" transform="translate(594.18 137.73) rotate(90)"/><rect class="cls-18" x="226.4" y="358.68" width="3.66" height="9.07" transform="translate(591.44 134.98) rotate(90)"/><path class="cls-19" d="M224.94,385.12l11,.23v-.23c0-8.06-5-14.69-11-14.69s-11,6.63-11,14.69Z"/><path class="cls-20" d="M240.28,385.16l19.72.26v-.26c0-9-8.9-16.46-19.72-16.46s-19.72,7.43-19.72,16.46Z"/><rect class="cls-21" x="213.98" y="385.12" width="46.02" height="2.1" transform="translate(473.99 772.33) rotate(-180)"/><path class="cls-22" d="M238.09,356.88v.38c0,2.28-2.21,4.12-4.93,4.12H223.3c-2.72,0-4.93-1.84-4.93-4.12v-.38c0-2.28,2.21-4.12,4.93-4.12h9.86C235.88,352.76,238.09,354.6,238.09,356.88Z"/><polygon class="cls-23" points="251.77 75.28 258.6 75.04 265.42 74.81 262.2 81.25 258.97 87.68 255.37 81.48 251.77 75.28"/><ellipse class="cls-23" cx="219.82" cy="45.9" rx="7.02" ry="16.87" transform="translate(45.78 187.81) rotate(-50.99)"/><ellipse class="cls-23" cx="195.89" cy="45.9" rx="16.91" ry="7.01" transform="translate(18.12 140.13) rotate(-41.11)"/><ellipse class="cls-23" cx="233.04" cy="39.9" rx="5.4" ry="4.93" transform="matrix(1, -0.03, 0.03, 1, -0.98, 6.24)"/><ellipse class="cls-23" cx="246.62" cy="44.55" rx="5.4" ry="4.93" transform="translate(-1.1 6.61) rotate(-1.53)"/><ellipse class="cls-23" cx="254.9" cy="54.25" rx="5.4" ry="4.93" transform="translate(-1.36 6.83) rotate(-1.53)"/><ellipse class="cls-23" cx="257.84" cy="66.52" rx="5.4" ry="4.93" transform="translate(-1.69 6.92) rotate(-1.53)"/><ellipse class="cls-23" cx="185.16" cy="38.21" rx="4.65" ry="4.59" transform="translate(34.47 152.39) rotate(-48.81)"/><ellipse class="cls-23" cx="173.01" cy="40.95" rx="4.65" ry="4.59" transform="translate(28.26 144.18) rotate(-48.81)"/><ellipse class="cls-23" cx="164.63" cy="48.99" rx="4.65" ry="4.59" transform="translate(19.35 140.62) rotate(-48.81)"/><ellipse class="cls-23" cx="160.4" cy="60.04" rx="4.65" ry="4.59" transform="translate(9.59 141.21) rotate(-48.81)"/><polygon class="cls-23" points="153.66 65.78 160.32 66.64 166.98 67.49 162.85 72.85 158.72 78.21 156.19 71.99 153.66 65.78"/><path class="cls-52" d="M263.64,231.51h0a.92.92,0,0,1-1.18-.58l-3.18-9.35a1,1,0,0,1,.56-1.21h0A.92.92,0,0,1,261,221l3.18,9.35A1,1,0,0,1,263.64,231.51Z"/><path class="cls-53" d="M267.12,230.25h0a.92.92,0,0,1-1.18-.59l-3.18-9.34a1,1,0,0,1,.57-1.22h0a.91.91,0,0,1,1.17.59l3.19,9.34A1,1,0,0,1,267.12,230.25Z"/><path class="cls-54" d="M270.6,229h0a.91.91,0,0,1-1.17-.58l-3.18-9.35a1,1,0,0,1,.56-1.21h0a.92.92,0,0,1,1.18.58l3.18,9.35A1,1,0,0,1,270.6,229Z"/><path class="cls-55" d="M274.09,227.72h0a.92.92,0,0,1-1.18-.59l-3.18-9.34a1,1,0,0,1,.56-1.22h0a.92.92,0,0,1,1.18.59l3.18,9.34A1,1,0,0,1,274.09,227.72Z"/><path class="cls-56" d="M256.49,228.07h0a1,1,0,0,1-.56-1.22l3.24-9.33a.91.91,0,0,1,1.18-.57h0a1,1,0,0,1,.56,1.22l-3.24,9.32A.93.93,0,0,1,256.49,228.07Z"/><path class="cls-57" d="M266.92,227.55h0a6.66,6.66,0,0,1-8-5.07L234.88,119a6.9,6.9,0,0,1,4.91-8.27h0a6.67,6.67,0,0,1,8,5.07l24,103.46A6.88,6.88,0,0,1,266.92,227.55Z"/><path class="cls-58" d="M159.36,231.51h0a.92.92,0,0,0,1.18-.58l3.18-9.35a1,1,0,0,0-.56-1.21h0A.92.92,0,0,0,162,221l-3.18,9.35A1,1,0,0,0,159.36,231.51Z"/><path class="cls-59" d="M155.88,230.25h0a.92.92,0,0,0,1.18-.59l3.18-9.34a1,1,0,0,0-.57-1.22h0a.91.91,0,0,0-1.17.59L155.31,229A1,1,0,0,0,155.88,230.25Z"/><path class="cls-60" d="M152.39,229h0a.92.92,0,0,0,1.18-.58l3.18-9.35a1,1,0,0,0-.56-1.21h0a.92.92,0,0,0-1.18.58l-3.18,9.35A1,1,0,0,0,152.39,229Z"/><path class="cls-61" d="M148.91,227.72h0a.92.92,0,0,0,1.18-.59l3.18-9.34a1,1,0,0,0-.56-1.22h0a.92.92,0,0,0-1.18.59l-3.18,9.34A1,1,0,0,0,148.91,227.72Z"/><path class="cls-62" d="M166.51,228.07h0a1,1,0,0,0,.56-1.22l-3.24-9.33a.91.91,0,0,0-1.18-.57h0a1,1,0,0,0-.56,1.22l3.24,9.32A.92.92,0,0,0,166.51,228.07Z"/><path class="cls-63" d="M156.08,227.55h0a6.66,6.66,0,0,0,8-5.07l24-103.46a6.9,6.9,0,0,0-4.91-8.27h0a6.67,6.67,0,0,0-8,5.07l-24,103.46A6.88,6.88,0,0,0,156.08,227.55Z"/><ellipse class="cls-64" cx="238.93" cy="110.13" rx="8.9" ry="9.19"/><ellipse class="cls-65" cx="228.96" cy="281.73" rx="8.9" ry="9.19"/><ellipse class="cls-66" cx="181.91" cy="114.24" rx="8.31" ry="8.58"/><ellipse class="cls-67" cx="199.05" cy="281.73" rx="8.9" ry="9.19"/><rect class="cls-40" x="1.5" y="0.4" width="420" height="420"/><rect class="cls-68" x="1036.54" y="188.03" width="13.29" height="175.03" rx="1.9"/><rect class="cls-69" x="1033.11" y="93.1" width="43.2" height="96.09" rx="6.19"/><rect class="cls-70" x="1028.72" y="38.17" width="47.49" height="71.53" rx="23.23"/><ellipse class="cls-71" cx="1076.21" cy="68.83" rx="5.94" ry="6.13"/><ellipse class="cls-5" cx="1076.21" cy="68.83" rx="3.96" ry="4.09"/><ellipse class="cls-6" cx="1076.21" cy="74.96" rx="1.98" ry="2.04"/><ellipse class="cls-72" cx="1063.35" cy="77" rx="4.95" ry="4.09"/><ellipse class="cls-73" cx="1037.63" cy="77" rx="4.95" ry="4.09"/><path d="M1059.8,63.61h0a1,1,0,0,1-.84-1.15l.29-2.16a1,1,0,0,1,1.12-.87h0a1,1,0,0,1,.84,1.15l-.29,2.17A1,1,0,0,1,1059.8,63.61Z"/><path d="M1062.13,63.86h0a1.06,1.06,0,0,1-.06-1.45l1.69-1.88a1,1,0,0,1,1.39-.06h0a1.06,1.06,0,0,1,.06,1.45l-1.69,1.88A1,1,0,0,1,1062.13,63.86Z"/><path d="M1064.61,65.26h0a1,1,0,0,1,.46-1.37l2.23-1.12a1,1,0,0,1,1.33.48h0a1,1,0,0,1-.46,1.36l-2.24,1.12A1,1,0,0,1,1064.61,65.26Z"/><path d="M1040.57,64.33h0a1,1,0,0,1-1.23-.69l-.71-2.46a1,1,0,0,1,.67-1.27h0a1,1,0,0,1,1.23.69l.71,2.46A1,1,0,0,1,1040.57,64.33Z"/><path d="M1037.45,64.9h0a1,1,0,0,1-1.4-.1l-1.64-1.92a1.07,1.07,0,0,1,.1-1.45h0a1,1,0,0,1,1.39.1l1.64,1.93A1,1,0,0,1,1037.45,64.9Z"/><path d="M1035.06,66.14h0a1,1,0,0,1-1.3.55l-2.29-1a1,1,0,0,1-.53-1.34h0a1,1,0,0,1,1.29-.54l2.3,1A1,1,0,0,1,1035.06,66.14Z"/><path class="cls-10" d="M1049.5,71.91l.07,5.11h-.07a5.11,5.11,0,0,1,0-10.22Z"/><ellipse class="cls-11" cx="1048.49" cy="86.55" rx="1.99" ry="2.06"/><ellipse class="cls-11" cx="1051.48" cy="86.55" rx="1.99" ry="2.06"/><path class="cls-11" d="M1051.55,87.2l2.86-.9c.65,2.21-.11,4.44-1.68,4.93s-3.39-.93-4-3.14v0Z"/><rect class="cls-74" x="1063.12" y="188.03" width="13.29" height="175.03" rx="1.9"/><rect class="cls-75" x="1033.22" y="170.87" width="43.2" height="13.73"/><ellipse class="cls-76" cx="1031.76" cy="193.49" rx="12.26" ry="16.83" transform="translate(729.33 1198.73) rotate(-83.88)"/><ellipse class="cls-77" cx="1077.56" cy="192.76" rx="14.29" ry="17.83" transform="translate(695.9 1218.73) rotate(-79.74)"/><ellipse class="cls-78" cx="1054.52" cy="195.17" rx="17.81" ry="15.33"/><rect class="cls-17" x="1034.82" y="361.42" width="14.83" height="9.07" rx="1.06" transform="translate(1408.19 -676.28) rotate(90)"/><rect class="cls-18" x="1040.41" y="358.68" width="3.66" height="9.07" transform="translate(1405.45 -679.02) rotate(90)"/><path class="cls-19" d="M1045.52,385.12l-11,.23a1.69,1.69,0,0,1,0-.23c0-8.06,5-14.69,11-14.69s11,6.63,11,14.69Z"/><path class="cls-20" d="M1030.18,385.16l-19.72.26v-.26c0-9,8.9-16.46,19.72-16.46s19.72,7.43,19.72,16.46Z"/><rect class="cls-21" x="1010.46" y="385.12" width="46.02" height="2.1"/><path class="cls-22" d="M1032.37,356.88v.38c0,2.28,2.21,4.12,4.94,4.12h9.85c2.73,0,4.94-1.84,4.94-4.12v-.38c0-2.28-2.21-4.12-4.94-4.12h-9.85C1034.58,352.76,1032.37,354.6,1032.37,356.88Z"/><rect class="cls-17" x="1063.81" y="361.42" width="14.83" height="9.07" rx="1.06" transform="translate(1437.18 -705.27) rotate(90)"/><rect class="cls-18" x="1069.4" y="358.68" width="3.66" height="9.07" transform="translate(1434.44 -708.02) rotate(90)"/><path class="cls-19" d="M1067.94,385.12l11,.23v-.23c0-8.06-5-14.69-11-14.69s-11,6.63-11,14.69Z"/><path class="cls-20" d="M1083.28,385.16l19.72.26v-.26c0-9-8.9-16.46-19.72-16.46s-19.72,7.43-19.72,16.46Z"/><rect class="cls-21" x="1056.98" y="385.12" width="46.02" height="2.1" transform="translate(2159.99 772.33) rotate(-180)"/><path class="cls-22" d="M1081.09,356.88v.38c0,2.28-2.21,4.12-4.93,4.12h-9.86c-2.72,0-4.93-1.84-4.93-4.12v-.38c0-2.28,2.21-4.12,4.93-4.12h9.86C1078.88,352.76,1081.09,354.6,1081.09,356.88Z"/><polygon class="cls-23" points="1094.77 75.28 1101.6 75.04 1108.42 74.81 1105.2 81.25 1101.97 87.68 1098.37 81.48 1094.77 75.28"/><ellipse class="cls-23" cx="1062.82" cy="45.9" rx="7.02" ry="16.87" transform="translate(358.11 842.82) rotate(-50.99)"/><ellipse class="cls-23" cx="1038.89" cy="45.9" rx="16.91" ry="7.01" transform="translate(226.01 694.46) rotate(-41.11)"/><ellipse class="cls-23" cx="1076.04" cy="39.9" rx="5.4" ry="4.93" transform="translate(-0.68 28.78) rotate(-1.53)"/><ellipse class="cls-23" cx="1089.62" cy="44.55" rx="5.4" ry="4.93" transform="translate(-0.8 29.14) rotate(-1.53)"/><ellipse class="cls-23" cx="1097.9" cy="54.25" rx="5.4" ry="4.93" transform="translate(-1.06 29.37) rotate(-1.53)"/><ellipse class="cls-23" cx="1100.84" cy="66.52" rx="5.4" ry="4.93" transform="translate(-1.38 29.45) rotate(-1.53)"/><ellipse class="cls-23" cx="1028.16" cy="38.21" rx="4.65" ry="4.59" transform="translate(322.33 786.8) rotate(-48.81)"/><ellipse class="cls-23" cx="1016.01" cy="40.95" rx="4.65" ry="4.59" transform="translate(316.12 778.59) rotate(-48.81)"/><ellipse class="cls-23" cx="1007.63" cy="48.99" rx="4.65" ry="4.59" transform="translate(307.21 775.02) rotate(-48.81)"/><ellipse class="cls-23" cx="1003.4" cy="60.04" rx="4.65" ry="4.59" transform="translate(297.45 775.62) rotate(-48.81)"/><polygon class="cls-23" points="996.66 65.78 1003.32 66.64 1009.98 67.49 1005.85 72.85 1001.72 78.21 999.19 71.99 996.66 65.78"/><path class="cls-79" d="M1106.64,231.51h0a.92.92,0,0,1-1.18-.58l-3.18-9.35a1,1,0,0,1,.56-1.21h0a.92.92,0,0,1,1.18.58l3.18,9.35A1,1,0,0,1,1106.64,231.51Z"/><path class="cls-80" d="M1110.12,230.25h0a.92.92,0,0,1-1.18-.59l-3.18-9.34a1,1,0,0,1,.57-1.22h0a.91.91,0,0,1,1.17.59l3.19,9.34A1,1,0,0,1,1110.12,230.25Z"/><path class="cls-81" d="M1113.6,229h0a.91.91,0,0,1-1.17-.58l-3.18-9.35a1,1,0,0,1,.56-1.21h0a.92.92,0,0,1,1.18.58l3.18,9.35A1,1,0,0,1,1113.6,229Z"/><path class="cls-82" d="M1117.09,227.72h0a.92.92,0,0,1-1.18-.59l-3.18-9.34a1,1,0,0,1,.56-1.22h0a.92.92,0,0,1,1.18.59l3.18,9.34A1,1,0,0,1,1117.09,227.72Z"/><path class="cls-83" d="M1099.49,228.07h0a1,1,0,0,1-.56-1.22l3.24-9.33a.91.91,0,0,1,1.18-.57h0a1,1,0,0,1,.56,1.22l-3.24,9.32A.93.93,0,0,1,1099.49,228.07Z"/><path class="cls-84" d="M1109.92,227.55h0a6.66,6.66,0,0,1-8-5.07l-24-103.46a6.9,6.9,0,0,1,4.91-8.27h0a6.67,6.67,0,0,1,8,5.07l24,103.46A6.88,6.88,0,0,1,1109.92,227.55Z"/><path class="cls-85" d="M1002.36,231.51h0a.92.92,0,0,0,1.18-.58l3.18-9.35a1,1,0,0,0-.56-1.21h0a.92.92,0,0,0-1.18.58l-3.18,9.35A1,1,0,0,0,1002.36,231.51Z"/><path class="cls-86" d="M998.88,230.25h0a.92.92,0,0,0,1.18-.59l3.18-9.34a1,1,0,0,0-.57-1.22h0a.91.91,0,0,0-1.17.59L998.31,229A1,1,0,0,0,998.88,230.25Z"/><path class="cls-87" d="M995.39,229h0a.92.92,0,0,0,1.18-.58l3.18-9.35a1,1,0,0,0-.56-1.21h0a.92.92,0,0,0-1.18.58l-3.18,9.35A1,1,0,0,0,995.39,229Z"/><path class="cls-88" d="M991.91,227.72h0a.92.92,0,0,0,1.18-.59l3.18-9.34a1,1,0,0,0-.56-1.22h0a.92.92,0,0,0-1.18.59l-3.18,9.34A1,1,0,0,0,991.91,227.72Z"/><path class="cls-89" d="M1009.51,228.07h0a1,1,0,0,0,.56-1.22l-3.24-9.33a.91.91,0,0,0-1.18-.57h0a1,1,0,0,0-.56,1.22l3.24,9.32A.92.92,0,0,0,1009.51,228.07Z"/><path class="cls-90" d="M999.08,227.55h0a6.66,6.66,0,0,0,8-5.07l24-103.46a6.9,6.9,0,0,0-4.91-8.27h0a6.67,6.67,0,0,0-8,5.07l-24,103.46A6.88,6.88,0,0,0,999.08,227.55Z"/><ellipse class="cls-91" cx="1081.93" cy="110.13" rx="8.9" ry="9.19"/><ellipse class="cls-92" cx="1071.96" cy="281.73" rx="8.9" ry="9.19"/><ellipse class="cls-93" cx="1024.91" cy="114.24" rx="8.31" ry="8.58"/><ellipse class="cls-94" cx="1042.05" cy="281.73" rx="8.9" ry="9.19"/><rect class="cls-40" x="844.5" y="0.4" width="420" height="420"/><rect class="cls-95" x="1459.54" y="188.03" width="13.29" height="175.03" rx="1.9"/><rect class="cls-96" x="1456.11" y="93.1" width="43.2" height="96.09" rx="6.19"/><rect class="cls-97" x="1451.72" y="38.17" width="47.49" height="71.53" rx="23.23"/><ellipse cx="1482.97" cy="65.23" rx="4.37" ry="4.51"/><ellipse cx="1463.19" cy="65.23" rx="4.37" ry="4.51"/><ellipse class="cls-98" cx="1499.21" cy="68.83" rx="5.94" ry="6.13"/><ellipse class="cls-5" cx="1499.21" cy="68.83" rx="3.96" ry="4.09"/><ellipse class="cls-6" cx="1499.21" cy="74.96" rx="1.98" ry="2.04"/><ellipse class="cls-7" cx="1481" cy="65.23" rx="1.69" ry="1.74"/><ellipse class="cls-7" cx="1461.21" cy="65.23" rx="1.69" ry="1.74"/><ellipse class="cls-99" cx="1486.35" cy="77" rx="4.95" ry="4.09"/><ellipse class="cls-100" cx="1460.63" cy="77" rx="4.95" ry="4.09"/><path d="M1485.8,60.61h0a1,1,0,0,1-.84-1.15l.29-2.16a1,1,0,0,1,1.12-.87h0a1,1,0,0,1,.84,1.15l-.29,2.17A1,1,0,0,1,1485.8,60.61Z"/><path d="M1488.13,61.86h0a1.06,1.06,0,0,1-.06-1.45l1.69-1.88a1,1,0,0,1,1.39-.06h0a1.06,1.06,0,0,1,.06,1.45l-1.69,1.88A1,1,0,0,1,1488.13,61.86Z"/><path d="M1489.61,65.26h0a1,1,0,0,1,.46-1.37l2.23-1.12a1,1,0,0,1,1.33.48h0a1,1,0,0,1-.46,1.36l-2.24,1.12A1,1,0,0,1,1489.61,65.26Z"/><path d="M1462.57,60.33h0a1,1,0,0,1-1.23-.69l-.71-2.46a1,1,0,0,1,.67-1.27h0a1,1,0,0,1,1.23.69l.71,2.46A1,1,0,0,1,1462.57,60.33Z"/><path d="M1459.45,61.9h0a1,1,0,0,1-1.4-.1l-1.64-1.92a1.07,1.07,0,0,1,.1-1.45h0a1,1,0,0,1,1.39.1l1.64,1.93A1,1,0,0,1,1459.45,61.9Z"/><path d="M1458.06,65.14h0a1,1,0,0,1-1.3.55l-2.29-1a1,1,0,0,1-.53-1.34h0a1,1,0,0,1,1.29-.54l2.3,1A1,1,0,0,1,1458.06,65.14Z"/><path class="cls-10" d="M1472.5,71.91l.07,5.11h-.07a5.11,5.11,0,0,1,0-10.22Z"/><ellipse class="cls-11" cx="1471.49" cy="86.55" rx="1.99" ry="2.06"/><ellipse class="cls-11" cx="1474.48" cy="86.55" rx="1.99" ry="2.06"/><path class="cls-11" d="M1474.55,87.2l2.86-.9c.65,2.21-.11,4.44-1.68,4.93s-3.39-.93-4-3.14v0Z"/><rect class="cls-101" x="1486.12" y="188.03" width="13.29" height="175.03" rx="1.9"/><rect class="cls-102" x="1456.22" y="170.87" width="43.2" height="13.73"/><ellipse class="cls-103" cx="1454.76" cy="193.49" rx="12.26" ry="16.83" transform="translate(1107.21 1619.32) rotate(-83.88)"/><ellipse class="cls-104" cx="1500.56" cy="192.76" rx="14.29" ry="17.83" transform="translate(1043.54 1634.97) rotate(-79.74)"/><ellipse class="cls-105" cx="1477.52" cy="195.17" rx="17.81" ry="15.33"/><rect class="cls-17" x="1457.82" y="361.42" width="14.83" height="9.07" rx="1.06" transform="translate(1831.19 -1099.28) rotate(90)"/><rect class="cls-18" x="1463.41" y="358.68" width="3.66" height="9.07" transform="translate(1828.45 -1102.02) rotate(90)"/><path class="cls-19" d="M1468.52,385.12l-11,.23a1.69,1.69,0,0,1,0-.23c0-8.06,5-14.69,11-14.69s11,6.63,11,14.69Z"/><path class="cls-20" d="M1453.18,385.16l-19.72.26v-.26c0-9,8.9-16.46,19.72-16.46s19.72,7.43,19.72,16.46Z"/><rect class="cls-21" x="1433.46" y="385.12" width="46.02" height="2.1"/><path class="cls-22" d="M1455.37,356.88v.38c0,2.28,2.21,4.12,4.94,4.12h9.85c2.73,0,4.94-1.84,4.94-4.12v-.38c0-2.28-2.21-4.12-4.94-4.12h-9.85C1457.58,352.76,1455.37,354.6,1455.37,356.88Z"/><rect class="cls-17" x="1486.81" y="361.42" width="14.83" height="9.07" rx="1.06" transform="translate(1860.18 -1128.27) rotate(90)"/><rect class="cls-18" x="1492.4" y="358.68" width="3.66" height="9.07" transform="translate(1857.44 -1131.02) rotate(90)"/><path class="cls-19" d="M1490.94,385.12l11,.23v-.23c0-8.06-5-14.69-11-14.69s-11,6.63-11,14.69Z"/><path class="cls-20" d="M1506.28,385.16l19.72.26v-.26c0-9-8.9-16.46-19.72-16.46s-19.72,7.43-19.72,16.46Z"/><rect class="cls-21" x="1479.98" y="385.12" width="46.02" height="2.1" transform="translate(3005.99 772.33) rotate(-180)"/><path class="cls-22" d="M1504.09,356.88v.38c0,2.28-2.21,4.12-4.93,4.12h-9.86c-2.72,0-4.93-1.84-4.93-4.12v-.38c0-2.28,2.21-4.12,4.93-4.12h9.86C1501.88,352.76,1504.09,354.6,1504.09,356.88Z"/><polygon class="cls-23" points="1517.77 75.28 1524.6 75.04 1531.42 74.81 1528.2 81.25 1524.97 87.68 1521.37 81.48 1517.77 75.28"/><ellipse class="cls-23" cx="1485.82" cy="45.9" rx="7.02" ry="16.87" transform="translate(514.84 1171.49) rotate(-50.99)"/><ellipse class="cls-23" cx="1461.89" cy="45.9" rx="16.91" ry="7.01" transform="translate(330.32 972.61) rotate(-41.11)"/><ellipse class="cls-23" cx="1499.04" cy="39.9" rx="5.4" ry="4.93" transform="translate(-0.53 40.09) rotate(-1.53)"/><ellipse class="cls-23" cx="1512.62" cy="44.55" rx="5.4" ry="4.93" transform="translate(-0.65 40.45) rotate(-1.53)"/><ellipse class="cls-23" cx="1520.9" cy="54.25" rx="5.4" ry="4.93" transform="translate(-0.91 40.68) rotate(-1.53)"/><ellipse class="cls-23" cx="1523.84" cy="66.52" rx="5.4" ry="4.93" transform="translate(-1.23 40.76) rotate(-1.53)"/><ellipse class="cls-23" cx="1451.16" cy="38.21" rx="4.65" ry="4.59" transform="translate(466.77 1105.13) rotate(-48.81)"/><ellipse class="cls-23" cx="1439.01" cy="40.95" rx="4.65" ry="4.59" transform="translate(460.56 1096.92) rotate(-48.81)"/><ellipse class="cls-23" cx="1430.63" cy="48.99" rx="4.65" ry="4.59" transform="translate(451.65 1093.35) rotate(-48.81)"/><ellipse class="cls-23" cx="1426.4" cy="60.04" rx="4.65" ry="4.59" transform="translate(441.89 1093.95) rotate(-48.81)"/><polygon class="cls-23" points="1419.66 65.78 1426.32 66.64 1432.98 67.49 1428.85 72.85 1424.72 78.21 1422.19 71.99 1419.66 65.78"/><path class="cls-106" d="M1529.64,231.51h0a.92.92,0,0,1-1.18-.58l-3.18-9.35a1,1,0,0,1,.56-1.21h0a.92.92,0,0,1,1.18.58l3.18,9.35A1,1,0,0,1,1529.64,231.51Z"/><path class="cls-107" d="M1533.12,230.25h0a.92.92,0,0,1-1.18-.59l-3.18-9.34a1,1,0,0,1,.57-1.22h0a.91.91,0,0,1,1.17.59l3.19,9.34A1,1,0,0,1,1533.12,230.25Z"/><path class="cls-108" d="M1536.6,229h0a.91.91,0,0,1-1.17-.58l-3.18-9.35a1,1,0,0,1,.56-1.21h0a.92.92,0,0,1,1.18.58l3.18,9.35A1,1,0,0,1,1536.6,229Z"/><path class="cls-109" d="M1540.09,227.72h0a.92.92,0,0,1-1.18-.59l-3.18-9.34a1,1,0,0,1,.56-1.22h0a.92.92,0,0,1,1.18.59l3.18,9.34A1,1,0,0,1,1540.09,227.72Z"/><path class="cls-110" d="M1522.49,228.07h0a1,1,0,0,1-.56-1.22l3.24-9.33a.91.91,0,0,1,1.18-.57h0a1,1,0,0,1,.56,1.22l-3.24,9.32A.93.93,0,0,1,1522.49,228.07Z"/><path class="cls-111" d="M1532.92,227.55h0a6.66,6.66,0,0,1-8-5.07l-24-103.46a6.9,6.9,0,0,1,4.91-8.27h0a6.67,6.67,0,0,1,8,5.07l24,103.46A6.88,6.88,0,0,1,1532.92,227.55Z"/><path class="cls-112" d="M1425.36,231.51h0a.92.92,0,0,0,1.18-.58l3.18-9.35a1,1,0,0,0-.56-1.21h0a.92.92,0,0,0-1.18.58l-3.18,9.35A1,1,0,0,0,1425.36,231.51Z"/><path class="cls-113" d="M1421.88,230.25h0a.92.92,0,0,0,1.18-.59l3.18-9.34a1,1,0,0,0-.57-1.22h0a.91.91,0,0,0-1.17.59l-3.19,9.34A1,1,0,0,0,1421.88,230.25Z"/><path class="cls-114" d="M1418.39,229h0a.92.92,0,0,0,1.18-.58l3.18-9.35a1,1,0,0,0-.56-1.21h0a.92.92,0,0,0-1.18.58l-3.18,9.35A1,1,0,0,0,1418.39,229Z"/><path class="cls-115" d="M1414.91,227.72h0a.92.92,0,0,0,1.18-.59l3.18-9.34a1,1,0,0,0-.56-1.22h0a.92.92,0,0,0-1.18.59l-3.18,9.34A1,1,0,0,0,1414.91,227.72Z"/><path class="cls-116" d="M1432.51,228.07h0a1,1,0,0,0,.56-1.22l-3.24-9.33a.91.91,0,0,0-1.18-.57h0a1,1,0,0,0-.56,1.22l3.24,9.32A.92.92,0,0,0,1432.51,228.07Z"/><path class="cls-117" d="M1422.08,227.55h0a6.66,6.66,0,0,0,8-5.07l24-103.46a6.9,6.9,0,0,0-4.91-8.27h0a6.67,6.67,0,0,0-8,5.07l-24,103.46A6.88,6.88,0,0,0,1422.08,227.55Z"/><ellipse class="cls-118" cx="1504.93" cy="110.13" rx="8.9" ry="9.19"/><ellipse class="cls-119" cx="1494.96" cy="281.73" rx="8.9" ry="9.19"/><ellipse class="cls-120" cx="1447.91" cy="114.24" rx="8.31" ry="8.58"/><ellipse class="cls-121" cx="1465.05" cy="281.73" rx="8.9" ry="9.19"/><rect class="cls-40" x="1267.5" y="0.4" width="420" height="420"/><path class="cls-122" d="M638,64.24l-4.36,0a4.37,4.37,0,1,1,8.73,0Z"/><path class="cls-123" d="M618.27,65l-4.57,0a4.57,4.57,0,1,1,9.13,0Z"/><rect x="1035.79" y="66.46" width="10" height="1" rx="0.5"/><rect x="1054.79" y="66.46" width="10" height="1" rx="0.5"/></svg>
