<svg id="Layer_1" data-name="Layer 1" xmlns="http://www.w3.org/2000/svg" xmlns:xlink="http://www.w3.org/1999/xlink" width="600" height="600" viewBox="0 0 600 600"><defs><style>.cls-1{fill:#e2f5fd;}.cls-2{fill:#a5a7ad;}.cls-3{fill:url(#linear-gradient);}.cls-4{fill:url(#linear-gradient-2);}.cls-5{fill:#e56e4e;}.cls-6{fill:url(#linear-gradient-3);}.cls-7{fill:url(#linear-gradient-4);}.cls-8{fill:url(#linear-gradient-5);}.cls-9{fill:url(#linear-gradient-6);}.cls-10{fill:url(#linear-gradient-7);}.cls-11{fill:url(#linear-gradient-8);}.cls-12{fill:url(#linear-gradient-9);}.cls-13{fill:url(#linear-gradient-10);}.cls-14{fill:url(#linear-gradient-11);}</style><linearGradient id="linear-gradient" x1="221.06" y1="309.42" x2="394.59" y2="309.42" gradientUnits="userSpaceOnUse"><stop offset="0" stop-color="#ffb580"/><stop offset="0.3" stop-color="#ffb47c"/><stop offset="0.57" stop-color="#ffb071"/><stop offset="0.82" stop-color="#ffab5f"/><stop offset="1" stop-color="#ffa54e"/></linearGradient><linearGradient id="linear-gradient-2" x1="221.92" y1="478.09" x2="398.27" y2="478.09" xlink:href="#linear-gradient"/><linearGradient id="linear-gradient-3" x1="381.23" y1="1587.2" x2="436.7" y2="1587.2" gradientTransform="translate(-222.44 -910.28) scale(1 0.74)" xlink:href="#linear-gradient"/><linearGradient id="linear-gradient-4" x1="184.99" y1="154.33" x2="251.69" y2="174.6" xlink:href="#linear-gradient"/><linearGradient id="linear-gradient-5" x1="251.77" y1="313.1" x2="251.77" y2="199.31" xlink:href="#linear-gradient"/><linearGradient id="linear-gradient-6" x1="949.71" y1="-791.58" x2="910.23" y2="-746.29" gradientTransform="translate(-1024.75 1656.73) scale(1.28 1.64)" xlink:href="#linear-gradient"/><linearGradient id="linear-gradient-7" x1="6031.12" y1="-719.22" x2="6086.59" y2="-719.22" gradientTransform="matrix(1, 0, 0, -0.74, -5624.85, -262.44)" xlink:href="#linear-gradient"/><linearGradient id="linear-gradient-8" x1="359.94" y1="154.33" x2="426.64" y2="174.6" xlink:href="#linear-gradient"/><linearGradient id="linear-gradient-9" x1="1759.6" y1="1271.74" x2="1720.12" y2="1317.02" gradientTransform="matrix(0, 1.28, -1.64, 0, 2569.05, -1829.52)" xlink:href="#linear-gradient"/><linearGradient id="linear-gradient-10" x1="274.53" y1="128.19" x2="337.11" y2="128.19" xlink:href="#linear-gradient"/><linearGradient id="linear-gradient-11" x1="368.4" y1="314.52" x2="368.4" y2="200.73" xlink:href="#linear-gradient"/></defs><title>privatfoto1</title><circle class="cls-1" cx="308.66" cy="300.3" r="219.04"/><circle class="cls-2" cx="307.65" cy="299.29" r="195.82"/><rect class="cls-3" x="221.06" y="141.58" width="173.52" height="335.67" rx="11.84"/><path class="cls-4" d="M310.08,459.6h88.19c0,20.28-39.81,37-88.19,37-47.74,0-87.26-16.26-88.16-36.28Z"/><circle class="cls-5" cx="310.8" cy="434.71" r="4.98"/><rect class="cls-6" x="158.79" y="147.09" width="55.47" height="244.15" rx="12" transform="translate(86.32 -42.6) rotate(16.9)"/><circle class="cls-7" cx="218.34" cy="164.46" r="34.85"/><circle class="cls-8" cx="251.77" cy="256.2" r="56.89"/><circle class="cls-5" cx="251.06" cy="258.34" r="14.93"/><ellipse class="cls-9" cx="165.73" cy="396.32" rx="26.4" ry="58.29" transform="translate(-175.96 135.96) rotate(-30)"/><rect class="cls-10" x="406.27" y="149.93" width="55.47" height="244.15" rx="12" transform="translate(928.35 406.07) rotate(163.1)"/><circle class="cls-11" cx="393.29" cy="164.46" r="34.85"/><ellipse class="cls-12" cx="447.35" cy="397.74" rx="58.29" ry="26.4" transform="translate(-140.65 509.89) rotate(-52.44)"/><rect class="cls-13" x="274.53" y="104.02" width="62.58" height="48.36" rx="4.24"/><circle class="cls-14" cx="368.4" cy="257.63" r="56.89"/><circle class="cls-5" cx="369.11" cy="258.34" r="14.93"/></svg>
