<svg id="Layer_1" data-name="Layer 1" xmlns="http://www.w3.org/2000/svg" xmlns:xlink="http://www.w3.org/1999/xlink" width="600" height="600" viewBox="0 0 600 600"><defs><style>.cls-1{fill:#e2f5fd;}.cls-2{fill:#9f9fa0;}.cls-3{fill:url(#linear-gradient);}.cls-4{fill:url(#linear-gradient-2);}.cls-5{fill:url(#linear-gradient-3);}.cls-6{fill:url(#linear-gradient-4);}.cls-7{fill:url(#linear-gradient-5);}.cls-8{fill:url(#linear-gradient-6);}.cls-9{fill:url(#linear-gradient-7);}.cls-10{fill:url(#linear-gradient-8);}.cls-11{fill:url(#linear-gradient-9);}.cls-12{fill:url(#linear-gradient-10);}</style><linearGradient id="linear-gradient" x1="219.41" y1="264.2" x2="406.6" y2="264.2" gradientUnits="userSpaceOnUse"><stop offset="0" stop-color="#ffb580"/><stop offset="0.3" stop-color="#ffb47c"/><stop offset="0.57" stop-color="#ffb071"/><stop offset="0.82" stop-color="#ffab5f"/><stop offset="1" stop-color="#ffa54e"/></linearGradient><linearGradient id="linear-gradient-2" x1="215.34" y1="422.56" x2="296.73" y2="422.56" xlink:href="#linear-gradient"/><linearGradient id="linear-gradient-3" x1="188.89" y1="345.24" x2="329.28" y2="345.24" xlink:href="#linear-gradient"/><linearGradient id="linear-gradient-4" x1="1689.37" y1="-2269.22" x2="1713.87" y2="-2219.03" gradientTransform="matrix(0.43, -0.5, 0.9, 0.24, 1570.19, 1855.96)" gradientUnits="userSpaceOnUse"><stop offset="0" stop-color="#ffb580"/><stop offset="0.27" stop-color="#ffb47c"/><stop offset="0.5" stop-color="#ffb071"/><stop offset="0.73" stop-color="#ffab5f"/><stop offset="0.89" stop-color="#ffa54e"/></linearGradient><linearGradient id="linear-gradient-5" x1="934.54" y1="-428.55" x2="999.6" y2="-408.27" gradientTransform="matrix(1.15, 0.39, 0.41, -1.24, -686.17, -418.79)" gradientUnits="userSpaceOnUse"><stop offset="0" stop-color="#ffb580"/><stop offset="0.3" stop-color="#ffb47c"/><stop offset="0.56" stop-color="#ffb071"/><stop offset="0.82" stop-color="#ffab5f"/><stop offset="0.99" stop-color="#ffa54e"/></linearGradient><linearGradient id="linear-gradient-6" x1="6389.01" y1="424.59" x2="6470.4" y2="424.59" gradientTransform="matrix(1, 0, 0, -1, -6066.18, 849.19)" xlink:href="#linear-gradient"/><linearGradient id="linear-gradient-7" x1="4394.86" y1="3280.76" x2="4419.36" y2="3330.95" gradientTransform="matrix(-0.43, -0.5, -0.9, 0.24, 5223.03, 1855.96)" xlink:href="#linear-gradient-4"/><linearGradient id="linear-gradient-8" x1="5747.05" y1="1070.14" x2="5812.12" y2="1090.43" gradientTransform="matrix(-1.15, 0.39, -0.41, -1.24, 7479.4, -418.79)" xlink:href="#linear-gradient-5"/><linearGradient id="linear-gradient-9" x1="302.83" y1="345.24" x2="435.09" y2="345.24" xlink:href="#linear-gradient"/><linearGradient id="linear-gradient-10" x1="219.22" y1="617.09" x2="406.2" y2="617.09" gradientTransform="matrix(1, 0, 0, -1, 0, 744.17)" xlink:href="#linear-gradient"/></defs><title>privatfoto3</title><circle class="cls-1" cx="312.59" cy="299.87" r="218.61"/><circle class="cls-2" cx="312.96" cy="299.79" r="191.68"/><rect class="cls-3" x="219.41" y="130.26" width="187.19" height="267.88" rx="15.16"/><rect class="cls-4" x="215.34" y="371.69" width="81.39" height="101.74" rx="12"/><ellipse class="cls-5" cx="259.09" cy="345.24" rx="70.2" ry="61.04"/><polygon class="cls-6" points="296.8 452.76 296.63 470.35 296.45 487.94 268.9 478.88 241.34 469.81 269.07 461.28 296.8 452.76"/><path class="cls-7" d="M257.32,468.89l-41-14.11c-.05.12-.1.25-.14.38-2.54,7.59,13.93,20,36.47,27.57s43.19,7.48,45.72-.11Z"/><rect class="cls-8" x="322.83" y="373.73" width="81.39" height="101.74" rx="12" transform="translate(727.04 849.19) rotate(-180)"/><polygon class="cls-9" points="322.76 454.79 322.93 472.38 323.1 489.98 350.66 480.91 378.22 471.85 350.49 463.32 322.76 454.79"/><path class="cls-10" d="M362.24,470.92l40.95-14.11a3,3,0,0,1,.15.38c2.54,7.6-13.93,20-36.47,27.57s-43.19,7.48-45.72-.11Z"/><ellipse class="cls-11" cx="368.96" cy="345.24" rx="66.13" ry="61.04"/><path class="cls-12" d="M312.7,145.58h93.5c0-20.29-42.21-37-93.5-37-50.63,0-92.53,16.26-93.48,36.28Z"/></svg>
