<svg id="Layer_1" data-name="Layer 1" xmlns="http://www.w3.org/2000/svg" xmlns:xlink="http://www.w3.org/1999/xlink" width="600" height="600" viewBox="0 0 600 600"><defs><style>.cls-1{fill:#a5a7ad;}.cls-2{fill:#e2f5fd;}.cls-3{clip-path:url(#clip-path);}.cls-4{fill:#f7f8fc;}.cls-5{fill:url(#linear-gradient);}.cls-6{fill:url(#linear-gradient-2);}.cls-7{fill:#29abe2;}.cls-8{fill:url(#linear-gradient-3);}.cls-9{fill:url(#linear-gradient-4);}.cls-10{fill:url(#linear-gradient-5);}.cls-11{fill:url(#linear-gradient-6);}.cls-12{fill:url(#linear-gradient-7);}.cls-13{fill:url(#linear-gradient-8);}.cls-14{fill:url(#linear-gradient-9);}.cls-15{fill:url(#linear-gradient-10);}.cls-16{fill:url(#linear-gradient-11);}</style><clipPath id="clip-path"><circle class="cls-1" cx="291.89" cy="299.42" r="244.23"/></clipPath><linearGradient id="linear-gradient" x1="242.99" y1="150.66" x2="343.6" y2="150.66" gradientUnits="userSpaceOnUse"><stop offset="0" stop-color="#f15a24"/><stop offset="0.21" stop-color="#ee5628"/><stop offset="0.42" stop-color="#e44a34"/><stop offset="0.63" stop-color="#d43647"/><stop offset="0.84" stop-color="#be1a62"/><stop offset="1" stop-color="#aa007b"/></linearGradient><linearGradient id="linear-gradient-2" x1="293.3" y1="156.23" x2="293.3" y2="227.25" gradientUnits="userSpaceOnUse"><stop offset="0" stop-color="#fff"/><stop offset="0.26" stop-color="#f4eae7"/><stop offset="0.75" stop-color="#e1c7be"/><stop offset="1" stop-color="#dab9ae"/></linearGradient><linearGradient id="linear-gradient-3" x1="307.74" y1="396.96" x2="338.7" y2="396.96" gradientTransform="translate(0.64 0.82)" gradientUnits="userSpaceOnUse"><stop offset="0" stop-color="#ffb580"/><stop offset="0.3" stop-color="#ffb47c"/><stop offset="0.57" stop-color="#ffb071"/><stop offset="0.82" stop-color="#ffab5f"/><stop offset="1" stop-color="#ffa54e"/></linearGradient><linearGradient id="linear-gradient-4" x1="250.09" y1="396.96" x2="281.04" y2="396.96" xlink:href="#linear-gradient-3"/><linearGradient id="linear-gradient-5" x1="287.36" y1="481.75" x2="328.84" y2="481.75" gradientTransform="translate(-94.06 25.31) rotate(-6.11)" xlink:href="#linear-gradient-3"/><linearGradient id="linear-gradient-6" x1="356.62" y1="489.16" x2="398.1" y2="489.16" gradientTransform="translate(-94.06 25.31) rotate(-6.11)" xlink:href="#linear-gradient-3"/><linearGradient id="linear-gradient-7" x1="382.71" y1="87.6" x2="382.71" y2="163.55" gradientTransform="matrix(0.99, 0.03, 0.03, 0.9, -25.59, 83.92)" gradientUnits="userSpaceOnUse"><stop offset="0" stop-color="#fff"/><stop offset="0.11" stop-color="#f4eae7"/><stop offset="0.33" stop-color="#e1c7be"/><stop offset="0.44" stop-color="#dab9ae"/></linearGradient><linearGradient id="linear-gradient-8" x1="298.06" y1="176.83" x2="380.91" y2="176.83" gradientTransform="translate(476.58 -180.56) rotate(83.47)" xlink:href="#linear-gradient-2"/><linearGradient id="linear-gradient-9" x1="334.31" y1="144.14" x2="416.87" y2="144.14" gradientTransform="translate(359.5 -224.31) rotate(79.95)" xlink:href="#linear-gradient-2"/><linearGradient id="linear-gradient-10" x1="731.05" y1="-603.9" x2="731.05" y2="-527.95" gradientTransform="matrix(0.91, -0.67, 0.65, 0.65, -56, 1060.25)" xlink:href="#linear-gradient-7"/><linearGradient id="linear-gradient-11" x1="506.91" y1="115.34" x2="585.08" y2="115.34" gradientTransform="matrix(0.99, -0.11, 0.11, 0.99, -320.53, 119.3)" xlink:href="#linear-gradient-2"/></defs><title>privatfoto2</title><circle class="cls-2" cx="291.89" cy="301.44" r="278.54"/><circle class="cls-1" cx="291.89" cy="299.42" r="244.23"/><g class="cls-3"><circle class="cls-4" cx="291.89" cy="273.18" r="8.07"/><rect class="cls-5" x="242.99" y="55.43" width="100.61" height="190.47" rx="5.51"/><rect class="cls-6" x="242.99" y="167.66" width="100.61" height="71.02"/><path class="cls-7" d="M292.9,238.69h54.18c0,30.39-24.46,55.41-54.18,55.41s-54.17-25-54.17-55.41c0-.32,0-.65,0-1Z"/><rect class="cls-8" x="308.38" y="254.32" width="30.96" height="286.94" rx="15.48"/><rect class="cls-9" x="250.73" y="254.32" width="30.96" height="286.94" rx="15.48"/><ellipse class="cls-10" cx="263.57" cy="471.53" rx="20.74" ry="21.31"/><ellipse class="cls-11" cx="333.22" cy="471.53" rx="20.74" ry="21.31"/><polygon class="cls-12" points="339.61 173.95 357.94 179.53 376.27 185.12 357.56 213.61 338.86 242.1 339.24 208.02 339.61 173.95"/><ellipse class="cls-13" cx="339.48" cy="176.83" rx="35.52" ry="41.49" transform="translate(125.21 494.01) rotate(-83.47)"/><ellipse class="cls-14" cx="283.12" cy="170.68" rx="33.14" ry="41.51" transform="translate(94.63 442.26) rotate(-86.32)"/><polygon class="cls-15" points="201.83 187.4 222.06 178.66 242.28 169.92 245.15 204.31 248.01 238.7 224.92 213.05 201.83 187.4"/><ellipse class="cls-16" cx="234.56" cy="176.64" rx="39.18" ry="28.42" transform="translate(-37.51 66.21) rotate(-14.89)"/></g></svg>
