<svg id="Layer_1" data-name="Layer 1" xmlns="http://www.w3.org/2000/svg" xmlns:xlink="http://www.w3.org/1999/xlink" width="1020" height="1340" viewBox="0 0 1020 1340"><defs><style>.cls-1{filter:url(#AI_Alpha_4);}.cls-2{fill:#cfb53b;}</style><filter id="AI_Alpha_4" width="100" height="100" name="AI_Alpha_4"><feTurbulence result="turb" baseFrequency="0.1" numOctaves="4" type="fractalNoise"/><feComposite operator="in" in="SourceGraphic" in2="turb"/></filter></defs><title>ros1</title><g class="cls-1"><polygon class="cls-2" points="786.51 1062.4 506.97 916.46 228.26 1064 280.68 753.04 54.23 533.57 366.17 487.33 504.92 204.15 645.29 486.53 957.49 530.98 732.31 751.74 786.51 1062.4"/></g><g class="cls-1"><polygon class="cls-2" points="786.51 1062.4 506.97 916.46 228.26 1064 280.68 753.04 54.23 533.57 366.17 487.33 504.92 204.15 645.29 486.53 957.49 530.98 732.31 751.74 786.51 1062.4"/></g><path d="M362.42,607l-5.5-2.09c-4.95-1.87-7.48-2.53-9.24-4.18a5.15,5.15,0,0,1-1.65-4.07A6.56,6.56,0,0,1,347.9,592c2-2.2,4.84-2.53,7.15-2.53,2.09,0,6.82.33,12.32,5.28L375,582.43a35.46,35.46,0,0,0-21.78-7.26c-6.82,0-13,1.43-18.15,6.71-4.4,4.51-6.38,10-6.38,16.5,0,3.52.55,8.69,4.4,12.76,2.86,3.08,6.82,4.62,10.23,5.83l6.05,2.09c2.09.77,6.6,2.42,8.58,4.07a6.47,6.47,0,0,1,2.53,5.28,7.59,7.59,0,0,1-2.64,5.94,11.71,11.71,0,0,1-7.7,2.53,17,17,0,0,1-9.24-2.64,44.92,44.92,0,0,1-6.82-5.61l-8.8,12.1a46.67,46.67,0,0,0,10.78,8,31.09,31.09,0,0,0,14.52,3.08c4.84,0,14.3-.66,20.79-7.48,3.85-4,6.49-10.56,6.49-18.15a18.3,18.3,0,0,0-5.39-13.64C369.57,609.82,365.61,608.17,362.42,607Z"/><path d="M416.87,570a14.25,14.25,0,0,0,9.79-3.52,10.36,10.36,0,0,0,0-14.52,15.37,15.37,0,0,0-19.58,0,10.36,10.36,0,0,0,0,14.52A14.25,14.25,0,0,0,416.87,570Zm-3.74-13.75a6,6,0,0,1,7.48,0,4,4,0,0,1,0,5.94,6,6,0,0,1-7.48,0,4,4,0,0,1,0-5.94Z"/><path d="M409.5,576.82l-29.59,73.37h17.6l5.61-13.86h27.72l5.5,13.86h17.6L425,576.82Zm-1.43,46.53,9.13-24.64,9,24.64Z"/><path d="M485.4,576.82H462.19v73.37H486c6.16,0,18.81-.77,28.93-11,6-6.05,10-14.41,10-26s-4.07-20-10.56-26.29C505.31,578.25,495.08,576.82,485.4,576.82Zm15,54.12c-5.5,4.62-13.2,4.95-16.72,4.95h-4.51V591.12h4.51c5.17,0,12.32.77,17.82,6.27,2.86,2.86,6.05,7.92,6.05,15.84C507.51,621.37,504.32,627.64,500.36,630.94Z"/><path d="M558.22,576.82l-29.59,73.37h17.6l5.61-13.86h27.72l5.5,13.86h17.6l-28.93-73.37Zm-1.43,46.53,9.13-24.64,9,24.64Z"/><polygon points="665.47 624.12 625.65 576.82 610.91 576.82 610.91 650.19 627.85 650.19 627.85 602.67 667.67 650.19 682.41 650.19 682.41 576.82 665.47 576.82 665.47 624.12"/><path d="M705.73,631.93a10,10,0,1,0,10,10A9.91,9.91,0,0,0,705.73,631.93Z"/><rect x="697.59" y="576.82" width="16.28" height="49.72"/></svg>
