<svg id="Layer_1" data-name="Layer 1" xmlns="http://www.w3.org/2000/svg" xmlns:xlink="http://www.w3.org/1999/xlink" width="1208" height="1657" viewBox="0 0 1208 1657"><defs><style>.cls-1{filter:url(#AI_Alpha_4);}.cls-2{fill:#cfb53b;}</style><filter id="AI_Alpha_4" width="100" height="100" name="AI_Alpha_4"><feTurbulence result="turb" baseFrequency="0.1" numOctaves="4" type="fractalNoise"/><feComposite operator="in" in="SourceGraphic" in2="turb"/></filter></defs><title>ros3</title><g class="cls-1"><polygon class="cls-2" points="857.01 1155.4 577.47 1009.46 298.76 1157 351.18 846.04 124.73 626.57 436.67 580.33 575.42 297.15 715.79 579.53 1027.99 623.98 802.81 844.74 857.01 1155.4"/></g><g class="cls-1"><polygon class="cls-2" points="857.01 1155.4 577.47 1009.46 298.76 1157 351.18 846.04 124.73 626.57 436.67 580.33 575.42 297.15 715.79 579.53 1027.99 623.98 802.81 844.74 857.01 1155.4"/></g><path d="M463.34,716.79h17.71a17.12,17.12,0,0,1-5.28,8.69c-1.65,1.43-5.5,4-12.76,4-5.61,0-10.56-1.32-14.85-5.72-3.08-3.08-6.16-8.47-6.16-16.83,0-6.82,2.2-13.09,6.27-17.38,3.52-3.74,8.47-5.94,15.18-5.94a18.4,18.4,0,0,1,11.22,3.52,22.21,22.21,0,0,1,6.49,7.92l15.29-8.25a40.56,40.56,0,0,0-11.88-13.09c-6.82-4.51-14.52-5.5-20.57-5.5-8.69,0-19.8,1.32-28.82,10.67-6.16,6.27-10.56,15.84-10.56,27.83,0,14.63,6.49,23.54,10.78,27.94,8.58,8.8,18,10.23,26.84,10.23s18-1.54,26.18-10,11.33-22,11.33-30.91v-.77H463.34Z"/><path d="M577.41,678.84c-7.37-7.15-16.94-10.67-28.38-10.67-14.63,0-23.76,5.83-28.71,10.78A41,41,0,0,0,509,706.78a37.47,37.47,0,0,0,11.44,27.28c5.5,5.28,14.85,10.78,28.6,10.78,12.32,0,21.56-4.18,28.38-10.78a39,39,0,0,0,0-55.22ZM565.09,723c-3.52,3.52-8.8,6.27-16.28,6.27a21.58,21.58,0,0,1-15.73-6.05,21.89,21.89,0,0,1-6.71-16.5c0-8.14,3.3-13.53,6.49-16.61a22.52,22.52,0,0,1,16.06-6.27,23.53,23.53,0,0,1,16.17,6.27,23.13,23.13,0,0,1,6.38,16.5C571.47,715,568,720.2,565.09,723Z"/><path d="M654.19,732.19c6-6.05,10-14.41,10-26s-4.07-20-10.56-26.29c-9-8.69-19.25-10.12-28.93-10.12H601.5v73.37h23.76C631.42,743.19,644.07,742.42,654.19,732.19Zm-35.75-3.3V684.12H623c5.17,0,12.32.77,17.82,6.27,2.86,2.86,6.05,7.92,6.05,15.84,0,8.14-3.19,14.41-7.15,17.71-5.5,4.62-13.2,4.95-16.72,4.95Z"/><polygon points="669.7 669.82 669.7 684.12 685.65 684.12 685.65 743.19 702.59 743.19 702.59 684.12 718.54 684.12 718.54 669.82 669.7 669.82"/><path d="M463.34,848.79h17.71a17.12,17.12,0,0,1-5.28,8.69c-1.65,1.43-5.5,4-12.76,4-5.61,0-10.56-1.32-14.85-5.72-3.08-3.08-6.16-8.47-6.16-16.83,0-6.82,2.2-13.09,6.27-17.38,3.52-3.74,8.47-5.94,15.18-5.94a18.4,18.4,0,0,1,11.22,3.52,22.21,22.21,0,0,1,6.49,7.92l15.29-8.25a40.56,40.56,0,0,0-11.88-13.09c-6.82-4.51-14.52-5.5-20.57-5.5-8.69,0-19.8,1.32-28.82,10.67-6.16,6.27-10.56,15.84-10.56,27.83,0,14.63,6.49,23.54,10.78,27.94,8.58,8.8,18,10.23,26.84,10.23s18-1.54,26.18-10,11.33-22,11.33-30.91v-.77H463.34Z"/><path d="M531.87,801.82l-29.59,73.37h17.6l5.61-13.86h27.72l5.5,13.86h17.6l-28.93-73.37Zm-1.43,46.53,9.13-24.64,9,24.64Z"/><path d="M549,791.48A10.36,10.36,0,0,0,549,777a15.37,15.37,0,0,0-19.58,0,10.36,10.36,0,0,0,0,14.52,15.37,15.37,0,0,0,19.58,0Zm-14.85-7.26a4.29,4.29,0,0,1,1.32-3,6,6,0,0,1,7.48,0,4,4,0,0,1,0,5.94,6,6,0,0,1-7.48,0A4.29,4.29,0,0,1,534.18,784.22Z"/><polygon points="584.56 875.19 626.03 875.19 626.03 860.89 601.5 860.89 601.5 844.61 624.82 844.61 624.82 830.31 601.5 830.31 601.5 816.12 626.03 816.12 626.03 801.82 584.56 801.82 584.56 875.19"/><polygon points="632.63 816.12 648.58 816.12 648.58 875.19 665.52 875.19 665.52 816.12 681.47 816.12 681.47 801.82 632.63 801.82 632.63 816.12"/><rect x="689.5" y="801.82" width="16.28" height="49.72"/><path d="M697.64,856.93a10,10,0,1,0,10,10A9.91,9.91,0,0,0,697.64,856.93Z"/></svg>
