<svg id="Layer_1" data-name="Layer 1" xmlns="http://www.w3.org/2000/svg" xmlns:xlink="http://www.w3.org/1999/xlink" width="800" height="100" viewBox="0 0 800 100"><defs><style>.cls-1{fill:none;}.cls-10,.cls-11,.cls-12,.cls-13,.cls-14,.cls-15,.cls-16,.cls-17,.cls-18,.cls-19,.cls-2,.cls-20,.cls-21,.cls-22,.cls-23,.cls-24,.cls-25,.cls-26,.cls-27,.cls-28,.cls-29,.cls-3,.cls-30,.cls-31,.cls-32,.cls-4,.cls-5,.cls-6,.cls-7,.cls-8,.cls-9{opacity:0.75;isolation:isolate;}.cls-2{fill:url(#linear-gradient);}.cls-3{fill:url(#linear-gradient-2);}.cls-4{fill:url(#linear-gradient-3);}.cls-5{fill:url(#linear-gradient-4);}.cls-6{fill:url(#linear-gradient-5);}.cls-7{fill:url(#linear-gradient-6);}.cls-8{fill:url(#linear-gradient-7);}.cls-9{fill:url(#linear-gradient-8);}.cls-10{fill:url(#linear-gradient-9);}.cls-11{fill:url(#linear-gradient-10);}.cls-12{fill:url(#linear-gradient-11);}.cls-13{fill:url(#linear-gradient-12);}.cls-14{fill:url(#linear-gradient-13);}.cls-15{fill:url(#linear-gradient-14);}.cls-16{fill:url(#linear-gradient-15);}.cls-17{fill:url(#linear-gradient-16);}.cls-18{fill:url(#linear-gradient-17);}.cls-19{fill:url(#linear-gradient-18);}.cls-20{fill:url(#linear-gradient-19);}.cls-21{fill:url(#linear-gradient-20);}.cls-22{fill:url(#linear-gradient-21);}.cls-23{fill:url(#linear-gradient-22);}.cls-24{fill:url(#linear-gradient-23);}.cls-25{fill:url(#linear-gradient-24);}.cls-26{fill:url(#linear-gradient-25);}.cls-27{fill:url(#linear-gradient-26);}.cls-28{fill:url(#linear-gradient-27);}.cls-29{fill:url(#linear-gradient-28);}.cls-30{fill:url(#linear-gradient-29);}.cls-31{fill:url(#linear-gradient-30);}.cls-32{fill:url(#linear-gradient-31);}</style><linearGradient id="linear-gradient" x1="204.79" y1="-1583.7" x2="226.67" y2="-1583.7" gradientTransform="matrix(1, 0, 0, -1, 0, -1487.86)" gradientUnits="userSpaceOnUse"><stop offset="0" stop-color="#fff"/><stop offset="0.52" stop-color="#4d4d4d"/><stop offset="1"/></linearGradient><linearGradient id="linear-gradient-2" x1="239.74" y1="-1593.2" x2="258.74" y2="-1593.2" xlink:href="#linear-gradient"/><linearGradient id="linear-gradient-3" x1="270.46" y1="-1594.2" x2="287.66" y2="-1594.2" xlink:href="#linear-gradient"/><linearGradient id="linear-gradient-4" x1="301.82" y1="-1606.05" x2="329.62" y2="-1606.05" gradientTransform="matrix(1, 0, 0, -1, 0, -1487.86)" gradientUnits="userSpaceOnUse"><stop offset="0" stop-color="#fff"/><stop offset="0.52" stop-color="#4d4d4d"/><stop offset="1"/></linearGradient><linearGradient id="linear-gradient-5" x1="304.79" y1="-1575.8" x2="326.67" y2="-1575.8" xlink:href="#linear-gradient"/><linearGradient id="linear-gradient-6" x1="339.74" y1="-1585.3" x2="358.74" y2="-1585.3" xlink:href="#linear-gradient"/><linearGradient id="linear-gradient-7" x1="370.46" y1="-1586.3" x2="387.66" y2="-1586.3" xlink:href="#linear-gradient"/><linearGradient id="linear-gradient-8" x1="401.82" y1="-1592.7" x2="429.62" y2="-1592.7" xlink:href="#linear-gradient-4"/><linearGradient id="linear-gradient-9" x1="404.79" y1="-1562.45" x2="426.67" y2="-1562.45" xlink:href="#linear-gradient"/><linearGradient id="linear-gradient-10" x1="437.16" y1="-1597.7" x2="461.32" y2="-1597.7" xlink:href="#linear-gradient-4"/><linearGradient id="linear-gradient-11" x1="439.74" y1="-1571.95" x2="458.74" y2="-1571.95" xlink:href="#linear-gradient"/><linearGradient id="linear-gradient-12" x1="468.13" y1="-1597.8" x2="490.01" y2="-1597.8" xlink:href="#linear-gradient-4"/><linearGradient id="linear-gradient-13" x1="470.46" y1="-1572.95" x2="487.66" y2="-1572.95" xlink:href="#linear-gradient"/><linearGradient id="linear-gradient-14" x1="501.82" y1="-1579.7" x2="529.62" y2="-1579.7" xlink:href="#linear-gradient-4"/><linearGradient id="linear-gradient-15" x1="504.79" y1="-1549.45" x2="526.67" y2="-1549.45" xlink:href="#linear-gradient"/><linearGradient id="linear-gradient-16" x1="537.16" y1="-1584.7" x2="561.32" y2="-1584.7" xlink:href="#linear-gradient-4"/><linearGradient id="linear-gradient-17" x1="539.74" y1="-1558.95" x2="558.74" y2="-1558.95" xlink:href="#linear-gradient"/><linearGradient id="linear-gradient-18" x1="568.13" y1="-1584.8" x2="590.01" y2="-1584.8" xlink:href="#linear-gradient-4"/><linearGradient id="linear-gradient-19" x1="570.46" y1="-1559.95" x2="587.66" y2="-1559.95" xlink:href="#linear-gradient"/><linearGradient id="linear-gradient-20" x1="601.82" y1="-1564.2" x2="629.62" y2="-1564.2" xlink:href="#linear-gradient-4"/><linearGradient id="linear-gradient-21" x1="604.79" y1="-1533.95" x2="626.67" y2="-1533.95" xlink:href="#linear-gradient"/><linearGradient id="linear-gradient-22" x1="637.16" y1="-1569.2" x2="661.32" y2="-1569.2" xlink:href="#linear-gradient-4"/><linearGradient id="linear-gradient-23" x1="639.74" y1="-1543.45" x2="658.74" y2="-1543.45" xlink:href="#linear-gradient"/><linearGradient id="linear-gradient-24" x1="668.13" y1="-1569.3" x2="690.01" y2="-1569.3" xlink:href="#linear-gradient-4"/><linearGradient id="linear-gradient-25" x1="670.46" y1="-1544.45" x2="687.66" y2="-1544.45" xlink:href="#linear-gradient"/><linearGradient id="linear-gradient-26" x1="701.82" y1="-1560.8" x2="729.62" y2="-1560.8" xlink:href="#linear-gradient-4"/><linearGradient id="linear-gradient-27" x1="704.79" y1="-1530.55" x2="726.67" y2="-1530.55" xlink:href="#linear-gradient"/><linearGradient id="linear-gradient-28" x1="737.16" y1="-1565.8" x2="761.32" y2="-1565.8" xlink:href="#linear-gradient-4"/><linearGradient id="linear-gradient-29" x1="739.74" y1="-1540.05" x2="758.74" y2="-1540.05" xlink:href="#linear-gradient"/><linearGradient id="linear-gradient-30" x1="768.13" y1="-1565.9" x2="790.01" y2="-1565.9" xlink:href="#linear-gradient-4"/><linearGradient id="linear-gradient-31" x1="770.46" y1="-1541.05" x2="787.66" y2="-1541.05" xlink:href="#linear-gradient"/></defs><title>silhuet_sprite</title><rect class="cls-1" x="-3.68" width="100" height="100"/><rect class="cls-1" x="96.32" width="100" height="100"/><circle class="cls-2" cx="215.76" cy="95.83" r="10.9"/><circle class="cls-3" cx="249.26" cy="105.33" r="9.5"/><circle class="cls-4" cx="279.06" cy="106.33" r="8.6"/><rect class="cls-1" x="195.91" width="100" height="100"/><rect class="cls-1" x="296.32" width="100" height="100"/><rect class="cls-1" x="396.32" width="100" height="100"/><rect class="cls-1" x="496.32" width="100" height="100"/><rect class="cls-1" x="596.32" width="100" height="100"/><rect class="cls-1" x="696.32" width="100" height="100"/><rect class="cls-1" x="796.32" width="100" height="100"/><path class="cls-5" d="M315.76,141.93h0a13.87,13.87,0,0,1-13.9-13.9v-19.7a13.87,13.87,0,0,1,13.9-13.9h0a13.87,13.87,0,0,1,13.9,13.9V128A14,14,0,0,1,315.76,141.93Z"/><circle class="cls-6" cx="315.76" cy="87.93" r="10.9"/><circle class="cls-7" cx="349.26" cy="97.43" r="9.5"/><circle class="cls-8" cx="379.06" cy="98.43" r="8.6"/><path class="cls-9" d="M415.76,128.58h0a13.87,13.87,0,0,1-13.9-13.9V95a13.87,13.87,0,0,1,13.9-13.9h0A13.87,13.87,0,0,1,429.66,95v19.7A14,14,0,0,1,415.76,128.58Z"/><circle class="cls-10" cx="415.76" cy="74.58" r="10.9"/><path class="cls-11" d="M449.26,130.48h0a12.08,12.08,0,0,1-12.1-12.1v-17.1a12.08,12.08,0,0,1,12.1-12.1h0a12.08,12.08,0,0,1,12.1,12.1v17.1A12.08,12.08,0,0,1,449.26,130.48Z"/><circle class="cls-12" cx="449.26" cy="84.08" r="9.5"/><path class="cls-13" d="M479.06,128.58h0a10.93,10.93,0,0,1-10.9-10.9v-15.5a10.93,10.93,0,0,1,10.9-10.9h0a10.93,10.93,0,0,1,10.9,10.9v15.5A10.8,10.8,0,0,1,479.06,128.58Z"/><circle class="cls-14" cx="479.06" cy="85.08" r="8.6"/><path class="cls-15" d="M515.76,115.58h0a13.87,13.87,0,0,1-13.9-13.9V82a13.87,13.87,0,0,1,13.9-13.9h0A13.87,13.87,0,0,1,529.66,82v19.7A14,14,0,0,1,515.76,115.58Z"/><circle class="cls-16" cx="515.76" cy="61.58" r="10.9"/><path class="cls-17" d="M549.26,117.48h0a12.08,12.08,0,0,1-12.1-12.1V88.28a12.08,12.08,0,0,1,12.1-12.1h0a12.08,12.08,0,0,1,12.1,12.1v17.1A12.08,12.08,0,0,1,549.26,117.48Z"/><circle class="cls-18" cx="549.26" cy="71.08" r="9.5"/><path class="cls-19" d="M579.06,115.58h0a10.93,10.93,0,0,1-10.9-10.9V89.18a10.93,10.93,0,0,1,10.9-10.9h0A10.93,10.93,0,0,1,590,89.18v15.5A10.8,10.8,0,0,1,579.06,115.58Z"/><circle class="cls-20" cx="579.06" cy="72.08" r="8.6"/><path class="cls-21" d="M615.76,100.08h0a13.87,13.87,0,0,1-13.9-13.9V66.48a13.87,13.87,0,0,1,13.9-13.9h0a13.87,13.87,0,0,1,13.9,13.9v19.7A14,14,0,0,1,615.76,100.08Z"/><circle class="cls-22" cx="615.76" cy="46.08" r="10.9"/><path class="cls-23" d="M649.26,102h0a12.08,12.08,0,0,1-12.1-12.1V72.78a12.08,12.08,0,0,1,12.1-12.1h0a12.08,12.08,0,0,1,12.1,12.1v17.1A12.08,12.08,0,0,1,649.26,102Z"/><circle class="cls-24" cx="649.26" cy="55.58" r="9.5"/><path class="cls-25" d="M679.06,100.08h0a10.93,10.93,0,0,1-10.9-10.9V73.68a10.93,10.93,0,0,1,10.9-10.9h0A10.93,10.93,0,0,1,690,73.68v15.5A10.8,10.8,0,0,1,679.06,100.08Z"/><circle class="cls-26" cx="679.06" cy="56.58" r="8.6"/><path class="cls-27" d="M715.76,96.68h0a13.87,13.87,0,0,1-13.9-13.9V63.08a13.87,13.87,0,0,1,13.9-13.9h0a13.87,13.87,0,0,1,13.9,13.9v19.7A14,14,0,0,1,715.76,96.68Z"/><circle class="cls-28" cx="715.76" cy="42.68" r="10.9"/><path class="cls-29" d="M749.26,98.58h0a12.08,12.08,0,0,1-12.1-12.1V69.38a12.08,12.08,0,0,1,12.1-12.1h0a12.08,12.08,0,0,1,12.1,12.1v17.1A12.08,12.08,0,0,1,749.26,98.58Z"/><circle class="cls-30" cx="749.26" cy="52.18" r="9.5"/><path class="cls-31" d="M779.06,96.68h0a10.93,10.93,0,0,1-10.9-10.9V70.28a10.93,10.93,0,0,1,10.9-10.9h0A10.93,10.93,0,0,1,790,70.28v15.5A10.8,10.8,0,0,1,779.06,96.68Z"/><circle class="cls-32" cx="779.06" cy="53.18" r="8.6"/></svg>
