<?xml version="1.0" encoding="utf-8"?>
<!-- Generator: Adobe Illustrator 23.0.1, SVG Export Plug-In . SVG Version: 6.00 Build 0)  -->
<svg version="1.1" id="Layer_1" xmlns="http://www.w3.org/2000/svg" xmlns:xlink="http://www.w3.org/1999/xlink" x="0px" y="0px"
	 viewBox="0 0 903 1080" style="enable-background:new 0 0 903 1080;" xml:space="preserve">
<style type="text/css">
	.st0{fill:#0F826D;}
	.st1{fill:#1BE0BC;}
	.st2{fill:#693C02;}
	.st3{fill:#C26F04;}
	.st4{fill:#A67C52;}
</style>
<title>Artboard 1</title>
<g>
	<ellipse class="st0" cx="475.5" cy="407.5" rx="221.5" ry="213.5"/>
</g>
<g>
	<circle class="st1" cx="442.5" cy="415.5" r="221.5"/>
</g>
<g>
	<ellipse class="st0" cx="277.5" cy="586.5" rx="128.5" ry="125.5"/>
</g>
<g>
	<ellipse class="st0" cx="595" cy="573.5" rx="166" ry="141.5"/>
</g>
<g>
	<ellipse class="st1" cx="254.5" cy="586.5" rx="129.5" ry="125.5"/>
</g>
<g>
	<path class="st2" d="M431.9,757.7l-5.1,3.7c-1,0.7-2.4,0.5-3.2-0.5L292.9,578.5c-1-1.3-0.7-3.2,0.6-4.2c0,0,0,0,0.1,0l4.5-3.2
		c1.3-1,3.2-0.7,4.2,0.6c0,0,0,0,0,0.1l130.3,181.7C433.6,754.8,433.3,756.6,431.9,757.7C431.9,757.6,431.9,757.6,431.9,757.7z"/>
</g>
<g>
	<ellipse class="st1" cx="576.5" cy="555.5" rx="147.5" ry="135.5"/>
</g>
<g>
	<rect x="406" y="415" class="st3" width="46" height="577"/>
</g>
<g>
	<rect x="442" y="415" class="st2" width="17" height="577"/>
</g>
<rect x="385.7" y="526.7" transform="matrix(0.5929 -0.8053 0.8053 0.5929 -227.8236 622.2684)" class="st4" width="231.6" height="19.4"/>
<g>

		<rect x="385.7" y="526.7" transform="matrix(0.5929 -0.8053 0.8053 0.5929 -227.8236 622.2684)" class="st3" width="231.6" height="19.4"/>
</g>
<g>
	<path class="st2" d="M447.9,638.1l-5-3.7c-1-0.7-1.2-2.2-0.5-3.2l133-180.7c1-1.3,2.8-1.6,4.2-0.7c0,0,0,0,0,0l4.4,3.3
		c1.3,1,1.6,2.8,0.7,4.2c0,0,0,0,0,0l-132.6,180C451.1,638.7,449.2,639,447.9,638.1C447.9,638.1,447.9,638.1,447.9,638.1z"/>
</g>
<g>

		<rect x="343.8" y="556.7" transform="matrix(0.8126 -0.5828 0.5828 0.8126 -325.7381 332.0578)" class="st3" width="19.4" height="231.6"/>
</g>
</svg>
