<?xml version="1.0" encoding="utf-8"?>
<!-- Generator: Adobe Illustrator 23.0.1, SVG Export Plug-In . SVG Version: 6.00 Build 0)  -->
<svg version="1.1" id="Layer_1" xmlns="http://www.w3.org/2000/svg" xmlns:xlink="http://www.w3.org/1999/xlink" x="0px" y="0px"
	 viewBox="0 0 1250 150" style="enable-background:new 0 0 1250 150;" xml:space="preserve">
<style type="text/css">
	.st0{fill:none;stroke:#000000;stroke-miterlimit:10;}
	.st1{fill:#1F1100;}
	.st2{fill:#006837;}
	.st3{fill:#8CC63F;}
	.st4{fill:none;}
	.st5{display:none;}
	.st6{display:inline;fill:none;stroke:#000000;stroke-width:0.25;stroke-miterlimit:10;}
</style>
<title>wind</title>
<path class="st0" d="M6.9,45.6c0,0,57.8,97.7,147.8,88s88.1-46,90.1-58.7c3.3-20.7-32.4-52.1-54.1-52.1s-61.3,13.1-64.9,32.6
	s34,22.8,39.7,22.8s24.1,4.8,49.8,0c9.7-1.8,9.8-26.1-14.7-32.6s-29.4,6.5-29.4,6.5"/>
<polygon class="st1" points="150,114.7 144,116.9 144.6,119.1 150.6,116.9 "/>
<polygon class="st2" points="159.8,117.5 155.8,110.9 151.8,104.4 161.3,102 170.7,99.7 165.3,108.6 "/>
<path class="st2" d="M156.3,110.6l3.9,6.7c-4.4,3.2-9.6,2.8-11.7-0.7c-2.2-3.5-0.5-9.2,3.8-12.5L156.3,110.6z"/>
<polygon class="st3" points="149.4,116.2 148.9,115.4 165.1,103.1 165.6,104 "/>
<polygon class="st3" points="158.3,103.4 159.2,103.4 159.3,109.3 158.4,109.3 "/>
<polygon class="st3" points="154.6,106.2 155.5,106.2 155.6,112.1 154.7,112.1 "/>
<polygon class="st3" points="150.5,108.3 151.4,108.3 151.5,114.2 150.6,114.3 "/>
<polygon class="st3" points="163.2,111.4 163.6,110.4 158.6,108.2 158.3,109.1 "/>
<polygon class="st3" points="159.5,114.2 159.9,113.2 154.9,111 154.6,111.9 "/>
<polygon class="st3" points="155.8,117 156.1,116 151.2,113.8 150.9,114.7 "/>
<polygon class="st1" points="230.2,28.4 226.3,26.1 225.7,27.5 229.5,29.8 "/>
<polygon class="st2" points="233.6,35.1 234.7,29.8 235.7,24.4 241.2,28.5 246.8,32.6 240.2,33.9 "/>
<path class="st2" d="M235.1,29.9l-1.1,5.3c-3.5-0.8-5.9-3.9-5.3-6.8c0.5-2.9,3.9-4.7,7.4-3.9L235.1,29.9z"/>
<polygon class="st3" points="229.2,28.8 229.3,28.1 242.6,31.1 242.4,31.8 "/>
<polygon class="st3" points="239.2,27.6 239.7,28.1 237,30.9 236.6,30.4 "/>
<polygon class="st3" points="236.2,26.9 236.6,27.4 234,30.2 233.6,29.7 "/>
<polygon class="st3" points="233.3,25.6 233.7,26.1 231.1,29 230.7,28.5 "/>
<polygon class="st3" points="238,34.1 238.6,33.8 237.2,30 236.6,30.3 "/>
<polygon class="st3" points="235,33.4 235.6,33.1 234.2,29.3 233.6,29.6 "/>
<polygon class="st3" points="231.9,32.7 232.5,32.4 231.2,28.6 230.6,28.9 "/>
<polygon class="st1" points="233.1,123.7 237.4,124 237.5,122.5 233.2,122.1 "/>
<polygon class="st2" points="227.4,119.2 228.5,124.5 229.5,129.9 223,128.7 216.4,127.6 221.9,123.4 "/>
<path class="st2" d="M228.1,124.6l-1-5.3c3.5-0.8,6.8,0.8,7.4,3.7c0.6,2.9-1.8,6-5.3,6.9L228.1,124.6z"/>
<polygon class="st3" points="233.8,122.9 233.9,123.6 220.8,126.9 220.6,126.3 "/>
<polygon class="st3" points="225.2,128.7 224.6,128.4 225.9,124.6 226.5,124.8 "/>
<polygon class="st3" points="228.2,127.9 227.6,127.7 228.9,123.8 229.5,124.1 "/>
<polygon class="st3" points="231.3,127.7 230.7,127.4 232,123.6 232.6,123.9 "/>
<polygon class="st3" points="223.8,122.2 223.4,122.7 226,125.5 226.5,125 "/>
<polygon class="st3" points="226.9,121.4 226.4,121.9 229.1,124.8 229.5,124.2 "/>
<polygon class="st3" points="229.9,120.6 229.4,121.2 232.1,124 232.5,123.5 "/>
<polygon class="st1" points="147.2,60.2 143.3,57.8 142.7,59.2 146.5,61.6 "/>
<polygon class="st2" points="150.7,66.9 151.7,61.5 152.7,56.2 158.2,60.3 163.8,64.4 157.2,65.6 "/>
<path class="st2" d="M152.1,61.6L151,67c-3.5-0.9-5.8-3.9-5.3-6.8c0.5-2.9,3.9-4.7,7.4-3.9L152.1,61.6z"/>
<polygon class="st3" points="146.2,60.5 146.3,59.8 159.6,62.9 159.4,63.6 "/>
<polygon class="st3" points="156.2,59.3 156.7,59.8 154.1,62.7 153.6,62.2 "/>
<polygon class="st3" points="153.2,58.6 153.6,59.1 151,62 150.6,61.5 "/>
<polygon class="st3" points="150.3,57.4 150.7,57.9 148.1,60.7 147.7,60.2 "/>
<polygon class="st3" points="155,65.8 155.6,65.6 154.2,61.8 153.6,62 "/>
<polygon class="st3" points="152,65.1 152.6,64.9 151.2,61.1 150.6,61.3 "/>
<polygon class="st3" points="148.9,64.4 149.5,64.2 148.2,60.4 147.6,60.6 "/>
<rect x="4" y="14.8" class="st4" width="246.1" height="120.7"/>
<polygon class="st1" points="348.7,127.6 342,123.6 340.4,126 347.1,130 "/>
<polygon class="st2" points="353.8,139.1 356.8,130 359.9,120.9 369.5,127.9 379.1,134.9 366.4,137 "/>
<path class="st2" d="M357.6,130.1l-3.2,9.1c-6.3-1.5-10.2-6.7-8.5-11.6c1.6-4.9,8.3-7.9,14.8-6.6L357.6,130.1z"/>
<polygon class="st3" points="346.8,128.2 347.2,127.1 371.4,132.3 371,133.5 "/>
<polygon class="st3" points="365.9,126.2 366.6,127.1 361.1,132 360.3,131.1 "/>
<polygon class="st3" points="360.3,125 361.1,125.8 355.5,130.7 354.8,129.9 "/>
<polygon class="st3" points="355.1,122.8 355.8,123.7 350.3,128.6 349.6,127.7 "/>
<polygon class="st3" points="362.2,137.3 363.4,136.9 361.6,130.4 360.4,130.8 "/>
<polygon class="st3" points="356.6,136.1 357.8,135.7 356.1,129.2 354.9,129.6 "/>
<polygon class="st3" points="351.1,134.9 352.3,134.5 350.5,128 349.4,128.4 "/>
<polygon class="st1" points="432.4,20 426.9,20 427,21.9 432.6,21.9 "/>
<polygon class="st2" points="440.5,25 438,18.6 435.6,12.2 444.1,13 452.7,13.8 446.6,19.4 "/>
<path class="st2" d="M438.5,18.4l2.3,6.4c-4.2,1.3-8.7-0.4-10.1-3.9c-1.3-3.5,1-7.5,5.3-8.9L438.5,18.4z"/>
<polygon class="st3" points="431.6,21 431.3,20.2 447.3,15 447.6,15.8 "/>
<polygon class="st3" points="441.4,13.3 442.2,13.5 441.3,18.3 440.5,18 "/>
<polygon class="st3" points="437.7,14.5 438.5,14.7 437.7,19.5 436.9,19.2 "/>
<polygon class="st3" points="433.8,15 434.6,15.2 433.8,20 433,19.8 "/>
<polygon class="st3" points="444.4,21 444.8,20.4 440.9,17.2 440.4,17.8 "/>
<polygon class="st3" points="440.7,22.2 441.2,21.6 437.2,18.4 436.8,19 "/>
<polygon class="st3" points="437.1,23.4 437.5,22.8 433.6,19.6 433.1,20.2 "/>
<polygon class="st1" points="471.1,107 474.4,102.7 472.8,101.5 469.5,105.8 "/>
<polygon class="st2" points="462.6,109.7 468.9,112.3 475.2,114.9 469.5,120.9 463.9,126.9 463.2,118.3 "/>
<path class="st2" d="M468.8,112.8l-6.3-2.6c1.5-4.1,5.5-6.4,8.9-5c3.4,1.4,5.1,6,3.7,10.3L468.8,112.8z"/>
<polygon class="st3" points="470.8,105.7 471.6,106 466.2,121.9 465.4,121.6 "/>
<polygon class="st3" points="471,118.6 470.3,119 467.2,115 467.8,114.6 "/>
<polygon class="st3" points="472.2,114.9 471.6,115.4 468.4,111.4 469.1,111 "/>
<polygon class="st3" points="474.1,111.6 473.5,112 470.3,108 471,107.6 "/>
<polygon class="st3" points="463.3,115.5 463.5,116.3 468.3,115.5 468,114.7 "/>
<polygon class="st3" points="464.5,111.8 464.7,112.6 469.5,111.8 469.3,111 "/>
<polygon class="st3" points="465.7,108.2 466,109 470.7,108.2 470.5,107.4 "/>
<polygon class="st1" points="395,56.1 390.4,53.2 389.6,54.9 394.2,57.9 "/>
<polygon class="st2" points="399.2,64.6 400.5,57.8 401.7,51.1 408.4,56.3 415.1,61.4 407.2,63 "/>
<path class="st2" d="M400.9,58l-1.3,6.7c-4.2-1.1-7.1-4.9-6.4-8.6c0.7-3.6,4.7-5.9,9-4.9L400.9,58z"/>
<polygon class="st3" points="393.8,56.6 394,55.7 410,59.6 409.9,60.4 "/>
<polygon class="st3" points="406,55 406.5,55.7 403.3,59.3 402.8,58.7 "/>
<polygon class="st3" points="402.3,54.2 402.8,54.8 399.7,58.4 399.1,57.8 "/>
<polygon class="st3" points="398.8,52.6 399.3,53.2 396.2,56.8 395.6,56.2 "/>
<polygon class="st3" points="404.5,63.2 405.2,62.9 403.6,58.1 402.8,58.5 "/>
<polygon class="st3" points="400.8,62.4 401.5,62 399.9,57.3 399.2,57.6 "/>
<polygon class="st3" points="397.2,61.5 397.9,61.2 396.2,56.4 395.5,56.7 "/>
<path class="st0" d="M260.4,65.9c31.2-2.1,64.8-4.2,77.5-6.1c18.7-3.3,36.6-7.5,47.7-18.2c8.3-4,13.2-11.4,11.9-24.3
	c-6.1-10.4-19.1-5.8-29.8-6.1c-10.5,4.3-33.2-1.8-17.9,24.3c7.3,3,13.7,4.1,17.9,0c14.9-4.5,18.9-8.4,17.9-12.2
	c-8.7-3.4-16.7-3.6-23.8,0"/>
<path class="st0" d="M269.4,90.2h112c0.7,0,1.4,0.1,2.1,0.3c4.1,1.1,21.6,5,52.7-0.3C472,84.1,478,71.9,478,71.9
	s23.8-18.2,11.9-30.4s-13.2-9.4-26.8-12.2c-9.1-3.4-19.9,5.4-26.8,12.2c-4.8,5.9-4.6,12,0,18.2l8.9,6.1c6,3.6,18,4.6,23.8,0
	c5.3,0.8,12.2-3.2,11.9-12.2c-0.1-2.6-9.8-10.6-11.9-12.2c-3.9-2.8-9.1-0.6-14.9,0c-1.3,0.6-2.4,1.4-3.4,2.3
	c-3.7,3.7-2.5,10.2,1.9,12.9l0.8,0.5c3.9,2.2,8.9,0.8,11.1-3.1c0.2-0.4,0.4-0.8,0.6-1.3c0.5-1.7,0.9-3.5,0.9-5.3"/>
<path class="st0" d="M281.3,108.4h135.8c10,1.9,18.2,4.6,20.1,10.3c1.7,9.4,0.6,16.8-5,20.5c-6.7,2.5-13.4,3.2-20.1,0
	c-4.1-2.6-7.3-5.5-5-10.3c2.9-5.6,6-10,10.1-10.3c6.7,2.3,10.1,5.7,10.1,10.3"/>
<polygon class="st1" points="848.4,125.1 841.7,121.3 840.2,123.5 846.8,127.3 "/>
<polygon class="st2" points="853.4,136 856.5,127.3 859.5,118.6 869,125.3 878.5,132 865.9,134 "/>
<path class="st2" d="M857.2,127.5l-3.2,8.6c-6.3-1.4-10.1-6.4-8.5-11.1c1.6-4.7,8.2-7.6,14.6-6.2L857.2,127.5z"/>
<polygon class="st3" points="846.5,125.7 846.9,124.5 870.9,129.6 870.5,130.7 "/>
<polygon class="st3" points="865.4,123.7 866.1,124.5 860.7,129.2 859.9,128.4 "/>
<polygon class="st3" points="859.9,122.6 860.6,123.4 855.2,128.1 854.4,127.2 "/>
<polygon class="st3" points="854.7,120.5 855.5,121.3 850,126 849.3,125.2 "/>
<polygon class="st3" points="861.8,134.3 862.9,133.9 861.2,127.7 860,128.1 "/>
<polygon class="st3" points="856.3,133.2 857.4,132.7 855.7,126.6 854.5,127 "/>
<polygon class="st3" points="850.8,132 851.9,131.6 850.2,125.4 849,125.8 "/>
<polygon class="st1" points="931.2,22.7 925.7,22.7 925.9,24.5 931.4,24.5 "/>
<polygon class="st2" points="939.2,27.4 936.8,21.3 934.4,15.2 942.9,16 951.3,16.8 945.3,22.1 "/>
<path class="st2" d="M937.3,21.1l2.3,6.2c-4.2,1.3-8.6-0.4-9.9-3.7c-1.3-3.3,1-7.2,5.2-8.5L937.3,21.1z"/>
<polygon class="st3" points="930.5,23.6 930.2,22.9 946,17.9 946.3,18.7 "/>
<polygon class="st3" points="940.1,16.3 940.9,16.5 940.1,21 939.3,20.8 "/>
<polygon class="st3" points="936.5,17.4 937.3,17.6 936.5,22.2 935.7,21.9 "/>
<polygon class="st3" points="932.6,17.9 933.4,18.1 932.6,22.7 931.8,22.4 "/>
<polygon class="st3" points="943.1,23.7 943.5,23 939.6,20 939.2,20.6 "/>
<polygon class="st3" points="939.5,24.8 939.9,24.2 936,21.1 935.6,21.8 "/>
<polygon class="st3" points="935.9,25.9 936.3,25.3 932.4,22.3 932,22.9 "/>
<polygon class="st1" points="894.2,57 889.7,54.3 888.8,55.9 893.4,58.7 "/>
<polygon class="st2" points="898.4,65.1 899.6,58.7 900.8,52.3 907.5,57.2 914.2,62.1 906.3,63.6 "/>
<path class="st2" d="M900.1,58.8l-1.3,6.4c-4.2-1-7-4.7-6.3-8.1c0.7-3.5,4.7-5.6,8.9-4.6L900.1,58.8z"/>
<polygon class="st3" points="893.1,57.5 893.2,56.7 909.1,60.3 908.9,61.2 "/>
<polygon class="st3" points="905.1,56 905.6,56.6 902.5,60.1 902,59.5 "/>
<polygon class="st3" points="901.4,55.2 902,55.8 898.9,59.2 898.3,58.6 "/>
<polygon class="st3" points="898,53.7 898.5,54.3 895.4,57.7 894.8,57.1 "/>
<polygon class="st3" points="903.6,63.8 904.3,63.5 902.7,59 902,59.3 "/>
<polygon class="st3" points="900,63 900.7,62.7 899.1,58.1 898.4,58.4 "/>
<polygon class="st3" points="896.4,62.1 897.1,61.8 895.5,57.3 894.7,57.6 "/>
<path class="st0" d="M761.1,66.4c30.8-2,64.1-4,76.7-5.8c18.5-3.2,36.2-7.2,47.2-17.3c8.2-3.8,13-10.8,11.7-23.1
	c-6.1-9.9-18.9-5.5-29.5-5.8c-10.3,4.1-32.8-1.7-17.7,23.1c7.2,2.8,13.6,3.9,17.7,0c14.8-4.3,18.7-8,17.7-11.6
	c-8.6-3.3-16.5-3.4-23.6,0"/>
<path class="st0" d="M769.9,89.5h110.9c0.7,0,1.4,0.1,2.1,0.2c4,1.1,21.4,4.8,52.1-0.2c35.4-5.8,41.3-17.3,41.3-17.3
	s23.6-17.4,11.7-28.9c-11.9-11.6-13-8.9-26.5-11.6c-9-3.2-19.7,5.2-26.5,11.6c-4.8,5.6-4.5,11.4,0,17.3l8.8,5.8
	c6,3.4,17.8,4.4,23.6,0c5.2,0.7,12.1-3.1,11.7-11.6c-0.1-2.6-9.7-10.1-11.7-11.6c-3.8-2.6-9-0.6-14.8,0c-1.2,0.6-2.4,1.3-3.4,2.2
	c-3.6,3.5-2.5,9.7,1.9,12.3l0.8,0.5c4,2.2,8.9,0.7,11.1-3.3c0.2-0.3,0.3-0.6,0.4-0.9c0.5-1.6,0.9-3.3,0.9-5"/>
<path class="st0" d="M781.7,106.8h134.5c9.8,1.8,18,4.4,19.9,9.8c1.6,9,0.6,16-5,19.5c-6.7,2.4-13.3,3.1-19.9,0
	c-4.1-2.5-7.2-5.2-5-9.8c2.8-5.4,5.9-9.6,10-9.8c6.6,2.1,9.9,5.4,10,9.8"/>
<g>
	<path class="st0" d="M507,111.3c0,0,57.9-97.7,147.9-87.8S743,69.6,745,82.3c3.3,20.7-32.5,52.1-54.2,52.1
		c-21.6,0-61.3-13.1-64.9-32.6C622.4,82.2,660,79,665.6,79c5.7,0,24.1-4.8,49.8,0.1c9.7,1.8,9.8,26.1-14.8,32.6s-29.4-6.5-29.4-6.5"
		/>
	<polygon class="st1" points="584.4,77.1 577.9,76.3 577.4,78.6 583.9,79.4 	"/>
	<polygon class="st2" points="592.1,84.1 591.5,76.2 590.9,68.2 600.6,70.4 610.3,72.5 601.2,78.3 	"/>
	<path class="st2" d="M592.1,76.1l0.5,8c-5.4,1-10.1-1.7-10.4-6s3.9-8.8,9.3-9.9L592.1,76.1z"/>
	<polygon class="st3" points="583.1,78.2 583.1,77.2 603.6,73.1 603.6,74.1 	"/>
	<polygon class="st3" points="597.2,70.3 598.1,70.7 595.4,76.2 594.6,75.8 	"/>
	<polygon class="st3" points="592.6,71.2 593.4,71.6 590.7,77.2 589.9,76.8 	"/>
	<polygon class="st3" points="587.8,71.3 588.7,71.7 586,77.3 585.1,76.9 	"/>
	<polygon class="st3" points="598,80 598.8,79.2 595.3,74.9 594.6,75.6 	"/>
	<polygon class="st3" points="593.3,80.9 594.1,80.2 590.6,75.8 589.9,76.6 	"/>
	<polygon class="st3" points="588.7,81.8 589.4,81.1 585.9,76.7 585.2,77.5 	"/>
	<polygon class="st1" points="739.8,35.9 741.8,40 743.2,39.2 741.1,35.1 	"/>
	<polygon class="st2" points="740.5,28.1 736.6,32.3 732.8,36.5 730.3,29.8 727.7,23.2 734.1,25.7 	"/>
	<path class="st2" d="M736.4,32l3.9-4.1c2.5,2.6,2.9,6.6,0.9,8.9c-2.1,2.3-5.9,2-8.5-0.6L736.4,32z"/>
	<polygon class="st3" points="740.8,36.1 740.3,36.6 730.5,26.8 731,26.3 	"/>
	<polygon class="st3" points="731.5,31.8 731.4,31.1 735.2,30 735.3,30.7 	"/>
	<polygon class="st3" points="733.7,34 733.6,33.4 737.4,32.2 737.6,32.9 	"/>
	<polygon class="st3" points="735.6,36.7 735.4,36 739.3,34.9 739.4,35.6 	"/>
	<polygon class="st3" points="736.1,26.7 735.5,26.6 734.6,30.7 735.2,30.8 	"/>
	<polygon class="st3" points="738.4,28.9 737.7,28.9 736.8,32.9 737.5,33 	"/>
	<polygon class="st3" points="740.6,31.2 739.9,31.1 739,35.2 739.7,35.3 	"/>
	<polygon class="st1" points="685.4,88.2 684.6,83.9 683,84.2 683.8,88.5 	"/>
	<polygon class="st2" points="682.4,95 687.5,92.5 692.6,90 693.2,96.8 693.8,103.6 688.1,99.3 	"/>
	<path class="st2" d="M687.7,92.9l-5.1,2.4c-1.8-3.2-1-6.9,1.8-8.3c2.7-1.4,6.5,0.1,8.4,3.3L687.7,92.9z"/>
	<polygon class="st3" points="684.4,87.7 685.1,87.4 692,99.4 691.3,99.8 	"/>
	<polygon class="st3" points="692.5,94.7 692.4,95.3 688.2,95.1 688.3,94.4 	"/>
	<polygon class="st3" points="690.9,91.9 690.8,92.6 686.7,92.3 686.8,91.7 	"/>
	<polygon class="st3" points="689.9,88.9 689.8,89.5 685.6,89.3 685.7,88.6 	"/>
	<polygon class="st3" points="686.4,97.7 687,98 689.1,94.6 688.5,94.3 	"/>
	<polygon class="st3" points="684.8,95 685.4,95.3 687.5,91.9 686.9,91.6 	"/>
	<polygon class="st3" points="683.2,92.2 683.9,92.5 686,89.1 685.3,88.8 	"/>
	<polygon class="st1" points="677.8,49.5 673.9,47.1 673.2,48.6 677.1,51 	"/>
	<polygon class="st2" points="681.4,56.5 682.4,50.9 683.5,45.4 689.1,49.7 694.8,53.9 688.1,55.2 	"/>
	<path class="st2" d="M682.8,51.1l-1.1,5.5c-3.5-0.9-6-4.1-5.4-7.1c0.5-3,4-4.9,7.6-4L682.8,51.1z"/>
	<polygon class="st3" points="676.8,49.9 677,49.2 690.5,52.4 690.3,53.1 	"/>
	<polygon class="st3" points="687,48.6 687.5,49.2 684.8,52.2 684.4,51.6 	"/>
	<polygon class="st3" points="684,47.9 684.4,48.4 681.8,51.4 681.3,50.9 	"/>
	<polygon class="st3" points="681,46.6 681.4,47.1 678.8,50.1 678.3,49.6 	"/>
	<polygon class="st3" points="685.8,55.4 686.4,55.1 685,51.2 684.4,51.5 	"/>
	<polygon class="st3" points="682.7,54.7 683.3,54.4 681.9,50.5 681.3,50.7 	"/>
	<polygon class="st3" points="679.6,54 680.2,53.7 678.9,49.7 678.2,50 	"/>
</g>
<g class="st5">
	<rect class="st6" width="250" height="150"/>
	<rect x="250" class="st6" width="250" height="150"/>
	<rect x="500" class="st6" width="250" height="150"/>
	<rect x="750" class="st6" width="250" height="150"/>
</g>
</svg>
