<svg id="Layer_1" data-name="Layer 1" xmlns="http://www.w3.org/2000/svg" xmlns:xlink="http://www.w3.org/1999/xlink" width="511.85" height="490.67" viewBox="0 0 511.85 490.67"><defs><style>.cls-1{fill:#e2f5fd;}.cls-2{fill:#a5a7ad;}.cls-3{fill:#f7f8fc;}.cls-4{fill:url(#linear-gradient);}.cls-5{fill:url(#linear-gradient-2);}.cls-6{fill:url(#linear-gradient-3);}.cls-7{fill:url(#linear-gradient-4);}.cls-8{fill:url(#linear-gradient-5);}.cls-9{fill:url(#linear-gradient-6);}.cls-10{fill:url(#linear-gradient-7);}.cls-11{fill:url(#linear-gradient-8);}</style><linearGradient id="linear-gradient" x1="-2364.03" y1="1640.81" x2="-2129.94" y2="1640.81" gradientTransform="translate(1363.51 -2197.86) scale(0.45 1.53)" gradientUnits="userSpaceOnUse"><stop offset="0" stop-color="#ffb580"/><stop offset="0.3" stop-color="#ffb47c"/><stop offset="0.57" stop-color="#ffb071"/><stop offset="0.82" stop-color="#ffab5f"/><stop offset="1" stop-color="#ffa54e"/></linearGradient><linearGradient id="linear-gradient-2" x1="157.65" y1="241.36" x2="362.44" y2="241.36" gradientTransform="matrix(1, 0, 0, 1, 0, 0)" xlink:href="#linear-gradient"/><linearGradient id="linear-gradient-3" x1="880.01" y1="-1834.05" x2="905.15" y2="-1834.05" gradientTransform="matrix(0.85, -0.53, 0.41, 0.66, 142.46, 1870.52)" xlink:href="#linear-gradient"/><linearGradient id="linear-gradient-4" x1="3389.21" y1="-2588.19" x2="3414.34" y2="-2588.19" gradientTransform="matrix(1, 0, 0, 0.85, -3231.27, 2486.63)" xlink:href="#linear-gradient"/><linearGradient id="linear-gradient-5" x1="923.62" y1="-1223.58" x2="948.76" y2="-1223.58" gradientTransform="matrix(0.85, -0.53, 0.54, 0.88, 52.09, 1724.82)" xlink:href="#linear-gradient"/><linearGradient id="linear-gradient-6" x1="961.89" y1="-1437.16" x2="987.03" y2="-1437.16" gradientTransform="matrix(0.85, -0.53, 0.49, 0.78, 89.61, 1785.31)" xlink:href="#linear-gradient"/><linearGradient id="linear-gradient-7" x1="1000.17" y1="-1742.82" x2="1025.3" y2="-1742.82" gradientTransform="matrix(0.85, -0.53, 0.42, 0.68, 131.4, 1852.69)" xlink:href="#linear-gradient"/><linearGradient id="linear-gradient-8" x1="216.32" y1="284.64" x2="278.14" y2="284.64" gradientTransform="matrix(1, 0, 0, 1, 0, 0)" xlink:href="#linear-gradient"/></defs><title>billede_hånd</title><circle class="cls-1" cx="253.69" cy="247.53" r="239.86"/><circle class="cls-2" cx="253.69" cy="245.8" r="210.31"/><circle class="cls-3" cx="253.69" cy="223.2" r="6.95"/><rect class="cls-4" x="300.76" y="281.82" width="105.24" height="76.33" transform="translate(270.05 -149.4) rotate(37.77)"/><circle class="cls-5" cx="260.04" cy="241.36" r="102.4"/><path class="cls-6" d="M185.9,247.1h0c5.87-3.64,8.38-10.32,5.57-14.85L140.4,149.88c-2.8-4.53-9.91-5.26-15.78-1.62h0c-5.87,3.64-8.37,10.33-5.56,14.86l51.06,82.37C172.93,250,180,250.75,185.9,247.1Z"/><rect class="cls-7" x="157.96" y="222.01" width="25.13" height="128.15" rx="3.42" transform="translate(-124.32 440.97) rotate(-86.92)"/><path class="cls-8" d="M223.58,225.12h0a12.82,12.82,0,0,0,3.85-17.64L159.16,97.38A12.8,12.8,0,0,0,141.66,93h0a12.81,12.81,0,0,0-3.85,17.63l68.27,110.11A12.8,12.8,0,0,0,223.58,225.12Z"/><path class="cls-9" d="M255,203.13h0c5.87-3.64,7.92-11.06,4.56-16.48L198.42,88.06c-3.36-5.42-10.92-6.88-16.79-3.23h0c-5.87,3.64-7.92,11-4.56,16.48l61.12,98.58C241.55,205.32,249.11,206.77,255,203.13Z"/><path class="cls-10" d="M286.38,181.14h0c5.87-3.64,8.28-10.48,5.36-15.19L238.59,80.22c-2.93-4.71-10.12-5.59-16-2h0c-5.87,3.64-8.28,10.48-5.36,15.19l53.15,85.73C273.31,183.91,280.51,184.79,286.38,181.14Z"/><circle class="cls-11" cx="247.23" cy="284.64" r="30.91"/></svg>