<svg id="Layer_1" data-name="Layer 1" xmlns="http://www.w3.org/2000/svg" xmlns:xlink="http://www.w3.org/1999/xlink" width="509.6" height="488.52" viewBox="0 0 509.6 488.52"><defs><style>.cls-1{fill:#88c3de;}.cls-2{fill:#9f9fa0;}.cls-3{fill:url(#linear-gradient);}.cls-4{fill:url(#linear-gradient-2);}.cls-5{fill:url(#linear-gradient-3);}.cls-6{fill:url(#linear-gradient-4);}.cls-7{fill:url(#linear-gradient-5);}.cls-8{fill:url(#linear-gradient-6);}.cls-9{fill:url(#linear-gradient-7);}.cls-10{fill:url(#linear-gradient-8);}.cls-11{fill:url(#linear-gradient-9);}</style><linearGradient id="linear-gradient" x1="174.21" y1="204.04" x2="361.4" y2="204.04" gradientUnits="userSpaceOnUse"><stop offset="0" stop-color="#ffb580"/><stop offset="0.3" stop-color="#ffb47c"/><stop offset="0.57" stop-color="#ffb071"/><stop offset="0.82" stop-color="#ffab5f"/><stop offset="1" stop-color="#ffa54e"/></linearGradient><linearGradient id="linear-gradient-2" x1="170.14" y1="366.82" x2="251.53" y2="366.82" xlink:href="#linear-gradient"/><linearGradient id="linear-gradient-3" x1="143.69" y1="289.5" x2="284.09" y2="289.5" xlink:href="#linear-gradient"/><linearGradient id="linear-gradient-4" x1="1046.7" y1="-2006.7" x2="1071.2" y2="-1956.52" gradientTransform="matrix(0.43, -0.5, 0.9, 0.24, 1562.5, 1418.39)" gradientUnits="userSpaceOnUse"><stop offset="0" stop-color="#ffb580"/><stop offset="0.27" stop-color="#ffb47c"/><stop offset="0.5" stop-color="#ffb071"/><stop offset="0.73" stop-color="#ffab5f"/><stop offset="0.89" stop-color="#ffa54e"/></linearGradient><linearGradient id="linear-gradient-5" x1="857.23" y1="-771.6" x2="922.29" y2="-751.32" gradientTransform="matrix(1.15, 0.39, 0.41, -1.24, -500.41, -869)" gradientUnits="userSpaceOnUse"><stop offset="0" stop-color="#ffb580"/><stop offset="0.3" stop-color="#ffb47c"/><stop offset="0.56" stop-color="#ffb071"/><stop offset="0.82" stop-color="#ffab5f"/><stop offset="0.99" stop-color="#ffa54e"/></linearGradient><linearGradient id="linear-gradient-6" x1="5523.81" y1="368.85" x2="5605.2" y2="368.85" gradientTransform="matrix(1, 0, 0, -1, -5246.18, 737.7)" xlink:href="#linear-gradient"/><linearGradient id="linear-gradient-7" x1="3392.4" y1="2806.32" x2="3416.9" y2="2856.51" gradientTransform="matrix(-0.43, -0.5, -0.9, 0.24, 4320.32, 1418.39)" xlink:href="#linear-gradient-4"/><linearGradient id="linear-gradient-8" x1="5030.61" y1="527.84" x2="5095.67" y2="548.12" gradientTransform="matrix(-1.15, 0.39, -0.41, -1.24, 6383.24, -869)" xlink:href="#linear-gradient-5"/><linearGradient id="linear-gradient-9" x1="257.63" y1="289.5" x2="389.89" y2="289.5" xlink:href="#linear-gradient"/></defs><title>billede_træ copy</title><circle class="cls-1" cx="267.39" cy="244.12" r="218.61"/><circle class="cls-2" cx="267.76" cy="244.05" r="191.68"/><rect class="cls-3" x="174.21" y="65.68" width="187.19" height="276.72" rx="15.16"/><rect class="cls-4" x="170.14" y="315.95" width="81.39" height="101.74" rx="12"/><ellipse class="cls-5" cx="213.89" cy="289.5" rx="70.2" ry="61.04"/><polygon class="cls-6" points="251.6 397.01 251.43 414.61 251.26 432.2 223.7 423.13 196.14 414.07 223.87 405.54 251.6 397.01"/><path class="cls-7" d="M212.12,413.15l-41-14.11c0,.12-.1.25-.14.38-2.54,7.59,13.93,20,36.47,27.57s43.19,7.48,45.72-.12Z"/><rect class="cls-8" x="277.63" y="317.98" width="81.39" height="101.74" rx="12" transform="translate(636.65 737.7) rotate(-180)"/><polygon class="cls-9" points="277.56 399.05 277.73 416.64 277.9 434.24 305.46 425.17 333.02 416.1 305.29 407.58 277.56 399.05"/><path class="cls-10" d="M317,415.18l41-14.11c.05.13.1.25.14.38,2.54,7.59-13.93,20-36.47,27.57s-43.19,7.48-45.72-.11Z"/><ellipse class="cls-11" cx="323.76" cy="289.5" rx="66.13" ry="61.04"/></svg>