<svg id="Layer_1" data-name="Layer 1" xmlns="http://www.w3.org/2000/svg" width="716.96" height="179.24" viewBox="0 0 716.96 179.24"><defs><style>.cls-1{fill:#d08200;}.cls-2{fill:#d0c100;}.cls-3{fill:none;}</style></defs><title>blitz</title><polygon class="cls-1" points="114.18 83.16 103.32 92.56 113.78 102.41 99.45 101.37 99.89 115.73 90.48 104.87 80.64 115.33 81.67 101 67.32 101.44 78.17 92.04 67.72 82.19 82.04 83.22 81.61 68.87 91.01 79.73 100.85 69.27 99.82 83.59 114.18 83.16"/><polygon class="cls-2" points="110.72 84.49 101.45 92.51 110.38 100.92 98.15 100.04 98.52 112.3 90.49 103.03 82.08 111.96 82.96 99.72 70.7 100.09 79.98 92.07 71.05 83.66 83.28 84.54 82.91 72.28 90.94 81.55 99.34 72.62 98.46 84.86 110.72 84.49"/><rect class="cls-3" x="4" y="3.64" width="176" height="176"/><polygon class="cls-1" points="302.12 75.27 285.29 89.84 301.5 105.1 279.29 103.5 279.97 125.75 265.39 108.92 250.14 125.13 251.73 102.93 229.48 103.6 246.31 89.03 230.1 73.77 252.31 75.37 251.63 53.12 266.2 69.95 281.46 53.74 279.87 75.94 302.12 75.27"/><polygon class="cls-2" points="296.76 77.32 282.39 89.77 296.23 102.8 277.27 101.43 277.85 120.44 265.4 106.06 252.37 119.91 253.74 100.94 234.73 101.52 249.11 89.07 235.26 76.04 254.23 77.41 253.65 58.41 266.1 72.78 279.13 58.94 277.76 77.9 296.76 77.32"/><rect class="cls-3" x="180" y="3.64" width="176" height="176"/><rect class="cls-3" x="356" y="3.64" width="176" height="176"/><rect class="cls-3" x="532" y="3.64" width="176" height="176"/><polygon class="cls-1" points="503.12 70.05 474.6 94.74 502.07 120.6 464.44 117.89 465.58 155.6 440.89 127.08 415.04 154.55 417.74 116.92 380.04 118.06 408.56 93.37 381.09 67.51 418.72 70.22 417.57 32.51 442.27 61.03 468.12 33.56 465.42 71.19 503.12 70.05"/><polygon class="cls-2" points="494.05 73.53 469.69 94.62 493.15 116.7 461.02 114.39 461.99 146.59 440.91 122.23 418.83 145.69 421.14 113.56 388.94 114.53 413.29 93.44 389.84 71.36 421.97 73.67 420.99 41.48 442.08 65.83 464.16 42.37 461.85 74.5 494.05 73.53"/><polygon class="cls-1" points="697.61 62.84 660.52 94.95 696.24 128.57 647.31 125.05 648.79 174.08 616.69 137 583.07 172.71 586.59 123.79 537.55 125.27 574.64 93.16 538.92 59.54 587.85 63.06 586.37 14.03 618.47 51.12 652.1 15.4 648.57 64.32 697.61 62.84"/><polygon class="cls-2" points="685.8 67.37 654.14 94.78 684.64 123.5 642.86 120.49 644.12 162.36 616.7 130.69 587.99 161.19 591 119.41 549.13 120.68 580.8 93.26 550.3 64.55 592.08 67.55 590.81 25.68 618.23 57.35 646.94 26.85 643.93 68.63 685.8 67.37"/></svg>