<svg id="Layer_1" data-name="Layer 1" xmlns="http://www.w3.org/2000/svg" width="354.58" height="268.12" viewBox="0 0 354.58 268.12"><defs><style>.cls-1{fill:#2d43ad;}.cls-2{fill:#fff;}</style></defs><title>facebook</title><path class="cls-1" d="M241,9.12H120.22A57.53,57.53,0,0,0,62.87,66.47V197.11a57.52,57.52,0,0,0,57.35,57.35H241a57.53,57.53,0,0,0,57.37-57.35V66.47A57.53,57.53,0,0,0,241,9.12Z"/><path class="cls-2" d="M179.53,242.21v-90.3H164.8V137.4h14.73v-5c0-14.73,3.25-28.16,12.13-36.6,7.14-6.93,16.67-9.75,25.55-9.75a44.08,44.08,0,0,1,16.24,3l-2.6,14.72a28.41,28.41,0,0,0-12.12-2.38c-16.25,0-20.36,14.29-20.36,30.32v5.63h25.34v14.51H198.37v90.3Z"/></svg>