<svg id="Layer_1" data-name="Layer 1" xmlns="http://www.w3.org/2000/svg" width="250" height="260" viewBox="0 0 250 260"><defs><style>.cls-1{fill:#fbf327;}.cls-2{fill:#fff;}</style></defs><title>fugl copy</title><path class="cls-1" d="M146.64,51.51H85.09A29.31,29.31,0,0,0,55.87,80.73v66.56a29.31,29.31,0,0,0,29.22,29.22h61.55a29.31,29.31,0,0,0,29.23-29.22V80.73A29.31,29.31,0,0,0,146.64,51.51ZM79,106.2"/><path class="cls-2" d="M157.88,136.54C152,134,148.77,127.71,146,121.89c-.9-1.91-1.72-4.39-.28-5.93a5.28,5.28,0,0,1,2.3-1.22l5.1-1.73c2.52-.84,5.59-2.53,5.16-5.15-.31-1.92-2.52-3-4.45-2.9s-3.73,1-5.57,1.62a4.69,4.69,0,0,1-2.45.29,3.77,3.77,0,0,1-2.64-3,12.36,12.36,0,0,1,0-4.16A41.45,41.45,0,0,0,142,83.45a24.29,24.29,0,0,0-9.29-13.18c-6.72-4.49-15.65-4.47-23.33-2a40.72,40.72,0,0,0-9.32,4.45c-3.26,2.1-6.34,4.83-7.67,8.47a23.08,23.08,0,0,0-1,7.55l-.27,16.89L90.1,107a17,17,0,0,0-10-1.23l-.19,0a1.49,1.49,0,0,1-1,.36h-.1a2.36,2.36,0,0,0-.59.4,2.68,2.68,0,0,0,.12,3.48,7.73,7.73,0,0,0,3.23,2l7.5,3a2.45,2.45,0,0,1,1.32.93,2.28,2.28,0,0,1,.09,1.44c-1,5.75-4.69,10.76-9.17,14.49s-9.78,6.36-15,8.94c1.35,2.42,4.54,2.91,7.25,3.49A14.51,14.51,0,0,1,80,147.18a7,7,0,0,1,2.62,6.29A15.73,15.73,0,0,1,95.15,151c8.33,1.94,14.88,10.6,23.37,9.54,5.45-.67,9.57-5.26,14.76-7.08,4.78-1.69,10.06-.88,15,.21a3.4,3.4,0,0,0,2.7-.15c.8-.56.95-1.66,1.19-2.61.83-3.21,3.53-5.67,6.55-7a33.12,33.12,0,0,1,9.66-2.21C166.27,138.31,161.54,138.11,157.88,136.54Z"/><path d="M158.64,135.25c-4.37-2.16-7.07-5.85-9.31-10.07a16.64,16.64,0,0,1-1.36-2.7c-.45-1.54-.79-4.85.48-6.3,1.1-1.24,5-1.56,6.57-2.29,4-1.86,7.31-7.11,1.92-9.8-2.71-1.35-5,0-7.66.55-7,1.42-4.11-9.06-4.36-13.12-.49-7.82-3.24-15.75-9.35-21-11.44-9.74-31.32-5.5-41.1,4.79-5.83,6.14-4.54,15-4.66,22.81,0,1.41.75,5.9,0,6.8s-2.68-.54-4.24-.76c-2.16-.3-5.49-.54-7.51.69a3.84,3.84,0,0,0-1.61,4.79c1.18,3.22,5.67,4.19,8.47,5.32,4.63,1.87,3.91,4.58,1.8,8.32a26,26,0,0,1-5.27,6.5c-4.64,4.21-10.35,7-15.91,9.76a1.5,1.5,0,0,0-.54,2c4.16,5.39,16.48,3,16.12,11.83a1.51,1.51,0,0,0,2.26,1.29c9.86-6.2,17,.82,25.56,5.12,5.71,2.87,10.93,2.78,16.48-.38,4.17-2.37,7.74-5.14,12.74-5.47,4-.27,8.12,1.83,11.9,1.3,2.53-.35,2.75-2,3.54-4,2.4-6.25,8.85-7.38,14.76-8.14a1.53,1.53,0,0,0,1.06-2.56c-2.8-3.54-7.19-4-11.18-5.53-1.81-.68-2.59,2.21-.8,2.9,3.44,1.31,7.45,1.7,9.86,4.75l1.06-2.56c-7.82,1-13.49,2.64-17.42,9.68-.68,1.21,0,1.3-1.38,2s-2.89-.07-4.25-.3a35.85,35.85,0,0,0-5.47-.57,21.69,21.69,0,0,0-11.41,3.14c-4.44,2.57-8.59,5.94-14.07,4.65-4.05-.95-7.49-3.66-11-5.75-7-4.14-14.28-5.4-21.47-.87l2.25,1.3a9,9,0,0,0-3.93-8c-3.6-2.6-9.91-1.86-12.6-5.34l-.54,2.05c9.8-4.86,21.76-11.12,24.54-22.78.93-3.94-.16-5-3.62-6.37-2.07-.84-9.81-3.38-8.66-5.38,1.28-2.25,8.76.2,10.36.83a1.42,1.42,0,0,0,1.45-.38c1.4-1.75,1.5-2,1.56-4.3.1-4.38.13-8.76.21-13.13.08-4.9.13-9.41,3.66-13.18,3-3.24,7.5-5.6,11.59-7.15,7.56-2.86,16.82-3.49,23.8,1.23,7.66,5.18,10.18,14.85,10,23.61-.07,3.86-2.19,11.77,3.46,13.14,2.76.67,4.87-1.95,7.39-1.71,8.88.87.43,4.75-.93,5.24a47.49,47.49,0,0,0-5.49,1.91c-4.35,2.3-2.75,6.63-1,10.23,2.7,5.66,6,11,11.74,13.85C158.85,138.69,160.37,136.1,158.64,135.25Z"/></svg>