<svg id="Layer_1" data-name="Layer 1" xmlns="http://www.w3.org/2000/svg" xmlns:xlink="http://www.w3.org/1999/xlink" width="19" height="26" viewBox="0 0 19 26"><defs><style>.cls-1{fill:#fff;}.cls-2{fill:url(#linear-gradient);}.cls-3{fill:url(#linear-gradient-2);}.cls-4{fill:url(#linear-gradient-3);}.cls-5{fill:url(#linear-gradient-4);}</style><linearGradient id="linear-gradient" x1="222.62" y1="-445.46" x2="223.62" y2="-447.2" gradientTransform="matrix(0.95, -0.32, 0.32, 0.95, -57.04, 515.76)" gradientUnits="userSpaceOnUse"><stop offset="0" stop-color="#2a2627"/><stop offset="0.07" stop-color="#403c3d"/><stop offset="0.22" stop-color="#797677"/><stop offset="0.43" stop-color="#d3d2d2"/><stop offset="0.52" stop-color="#fff"/><stop offset="0.53" stop-color="#f4f4f4"/><stop offset="0.61" stop-color="#b4b4b4"/><stop offset="0.69" stop-color="#7d7d7d"/><stop offset="0.76" stop-color="#505050"/><stop offset="0.83" stop-color="#2d2d2d"/><stop offset="0.89" stop-color="#141414"/><stop offset="0.95" stop-color="#050505"/><stop offset="1"/></linearGradient><linearGradient id="linear-gradient-2" x1="222.09" y1="-446.33" x2="224.15" y2="-446.33" gradientTransform="matrix(0.95, -0.32, 0.32, 0.95, -57.04, 515.76)" gradientUnits="userSpaceOnUse"><stop offset="0" stop-color="#2a2627"/><stop offset="0.2" stop-color="#2c2829"/><stop offset="0.27" stop-color="#332f30"/><stop offset="0.32" stop-color="#3e3a3b"/><stop offset="0.37" stop-color="#4f4b4c"/><stop offset="0.4" stop-color="#646162"/><stop offset="0.43" stop-color="#7f7d7d"/><stop offset="0.46" stop-color="#9f9d9d"/><stop offset="0.49" stop-color="#c4c3c3"/><stop offset="0.51" stop-color="#ececec"/><stop offset="0.52" stop-color="#fff"/><stop offset="0.53" stop-color="#f4f4f4"/><stop offset="0.61" stop-color="#b4b4b4"/><stop offset="0.69" stop-color="#7d7d7d"/><stop offset="0.76" stop-color="#505050"/><stop offset="0.83" stop-color="#2d2d2d"/><stop offset="0.89" stop-color="#141414"/><stop offset="0.95" stop-color="#050505"/><stop offset="1"/></linearGradient><linearGradient id="linear-gradient-3" x1="222.71" y1="-445.63" x2="223.53" y2="-447.03" gradientTransform="matrix(0.95, -0.32, 0.32, 0.95, -57.04, 515.76)" gradientUnits="userSpaceOnUse"><stop offset="0" stop-color="#2a2627"/><stop offset="0.05" stop-color="#302c2d"/><stop offset="0.13" stop-color="#423f3f"/><stop offset="0.21" stop-color="#5f5c5d"/><stop offset="0.31" stop-color="#888686"/><stop offset="0.41" stop-color="#bcbbbb"/><stop offset="0.52" stop-color="#fbfbfb"/><stop offset="0.52" stop-color="#fff"/><stop offset="0.53" stop-color="#f4f4f4"/><stop offset="0.61" stop-color="#b4b4b4"/><stop offset="0.69" stop-color="#7d7d7d"/><stop offset="0.76" stop-color="#505050"/><stop offset="0.83" stop-color="#2d2d2d"/><stop offset="0.89" stop-color="#141414"/><stop offset="0.95" stop-color="#050505"/><stop offset="1"/></linearGradient><linearGradient id="linear-gradient-4" x1="218.6" y1="-447.51" x2="227.64" y2="-463.16" gradientTransform="translate(-213.86 468.39)" gradientUnits="userSpaceOnUse"><stop offset="0.02" stop-color="#00012e"/><stop offset="0.07" stop-color="#010635"/><stop offset="0.14" stop-color="#051347"/><stop offset="0.23" stop-color="#0b2966"/><stop offset="0.32" stop-color="#134790"/><stop offset="0.42" stop-color="#1d6dc6"/><stop offset="0.51" stop-color="#2894fd"/><stop offset="0.67" stop-color="#195db0"/><stop offset="0.83" stop-color="#0c2c6a"/><stop offset="0.94" stop-color="#030d3f"/><stop offset="1" stop-color="#00012e"/></linearGradient></defs><title>mobil_3</title><rect class="cls-1" x="3.73" y="3.58" width="11.35" height="19.75" rx="0.38" transform="translate(-3.8 3.7) rotate(-18.59)"/><path d="M11.27,2.43a.37.37,0,0,1,.47.23l6,18a.38.38,0,0,1-.23.47h0l-10,3.37a.36.36,0,0,1-.46-.23h0L1,6.27a.37.37,0,0,1,.24-.47l10-3.37m0,0-10,3.37A.4.4,0,0,0,1,6.28L7,24.27a.41.41,0,0,0,.51.25l10-3.37a.4.4,0,0,0,.25-.51l-6.05-18A.39.39,0,0,0,11.26,2.4Z"/><circle class="cls-2" cx="12.14" cy="21.59" r="1.01"/><path class="cls-3" d="M11.82,20.65a1,1,0,0,1,1.26.62,1,1,0,0,1-.63,1.26,1,1,0,0,1-1.25-.63h0a1,1,0,0,1,.62-1.25m0,0a1,1,0,0,0-.65,1.29,1,1,0,1,0,.65-1.29Z"/><path class="cls-4" d="M12.39,22.36a.82.82,0,0,1-1-.51.81.81,0,0,1,.52-1,.79.79,0,0,1,1,.51h0A.82.82,0,0,1,12.39,22.36Z"/><path d="M11.88,20.83a.8.8,0,0,1,1,.5.8.8,0,1,1-1.51.51h0a.8.8,0,0,1,.5-1m0,0a.83.83,0,0,0-.52,1.05.83.83,0,0,0,1.57-.53h0a.83.83,0,0,0-1.05-.52Z"/><rect class="cls-5" x="4.03" y="5.65" width="10.47" height="14.82" transform="translate(-3.68 3.64) rotate(-18.59)"/></svg>