<svg id="Layer_1" data-name="Layer 1" xmlns="http://www.w3.org/2000/svg" xmlns:xlink="http://www.w3.org/1999/xlink" width="556.17" height="560.1" viewBox="0 0 556.17 560.1"><defs><style>.cls-1{fill:#e2f5fd;}.cls-2{fill:#a5a7ad;}.cls-3{fill:#fff;}.cls-4{fill:url(#linear-gradient);}.cls-5{fill:url(#linear-gradient-2);}.cls-6{fill:url(#linear-gradient-3);}.cls-7{fill:url(#linear-gradient-4);}</style><linearGradient id="linear-gradient" x1="723.24" y1="-379.32" x2="738.9" y2="-406.44" gradientTransform="matrix(0.95, -0.32, 0.32, 0.95, -259.77, 1003.38)" gradientUnits="userSpaceOnUse"><stop offset="0" stop-color="#2a2627"/><stop offset="0.07" stop-color="#403c3d"/><stop offset="0.22" stop-color="#797677"/><stop offset="0.43" stop-color="#d3d2d2"/><stop offset="0.52" stop-color="#fff"/><stop offset="0.53" stop-color="#f4f4f4"/><stop offset="0.61" stop-color="#b4b4b4"/><stop offset="0.69" stop-color="#7d7d7d"/><stop offset="0.76" stop-color="#505050"/><stop offset="0.83" stop-color="#2d2d2d"/><stop offset="0.89" stop-color="#141414"/><stop offset="0.95" stop-color="#050505"/><stop offset="1"/></linearGradient><linearGradient id="linear-gradient-2" x1="715.15" y1="-392.88" x2="746.99" y2="-392.88" gradientTransform="matrix(0.95, -0.32, 0.32, 0.95, -259.77, 1003.38)" gradientUnits="userSpaceOnUse"><stop offset="0" stop-color="#2a2627"/><stop offset="0.2" stop-color="#2c2829"/><stop offset="0.27" stop-color="#332f30"/><stop offset="0.32" stop-color="#3e3a3b"/><stop offset="0.37" stop-color="#4f4b4c"/><stop offset="0.4" stop-color="#646162"/><stop offset="0.43" stop-color="#7f7d7d"/><stop offset="0.46" stop-color="#9f9d9d"/><stop offset="0.49" stop-color="#c4c3c3"/><stop offset="0.51" stop-color="#ececec"/><stop offset="0.52" stop-color="#fff"/><stop offset="0.53" stop-color="#f4f4f4"/><stop offset="0.61" stop-color="#b4b4b4"/><stop offset="0.69" stop-color="#7d7d7d"/><stop offset="0.76" stop-color="#505050"/><stop offset="0.83" stop-color="#2d2d2d"/><stop offset="0.89" stop-color="#141414"/><stop offset="0.95" stop-color="#050505"/><stop offset="1"/></linearGradient><linearGradient id="linear-gradient-3" x1="724.75" y1="-381.95" x2="737.38" y2="-403.82" gradientTransform="matrix(0.95, -0.32, 0.32, 0.95, -259.77, 1003.38)" gradientUnits="userSpaceOnUse"><stop offset="0" stop-color="#2a2627"/><stop offset="0.05" stop-color="#302c2d"/><stop offset="0.13" stop-color="#423f3f"/><stop offset="0.21" stop-color="#5f5c5d"/><stop offset="0.31" stop-color="#888686"/><stop offset="0.41" stop-color="#bcbbbb"/><stop offset="0.52" stop-color="#fbfbfb"/><stop offset="0.52" stop-color="#fff"/><stop offset="0.53" stop-color="#f4f4f4"/><stop offset="0.61" stop-color="#b4b4b4"/><stop offset="0.69" stop-color="#7d7d7d"/><stop offset="0.76" stop-color="#505050"/><stop offset="0.83" stop-color="#2d2d2d"/><stop offset="0.89" stop-color="#141414"/><stop offset="0.95" stop-color="#050505"/><stop offset="1"/></linearGradient><linearGradient id="linear-gradient-4" x1="660.9" y1="-411.19" x2="801.24" y2="-654.26" gradientTransform="translate(-467.77 798.1)" gradientUnits="userSpaceOnUse"><stop offset="0.02" stop-color="#00012e"/><stop offset="0.07" stop-color="#010635"/><stop offset="0.14" stop-color="#051347"/><stop offset="0.23" stop-color="#0b2966"/><stop offset="0.32" stop-color="#134790"/><stop offset="0.42" stop-color="#1d6dc6"/><stop offset="0.51" stop-color="#2894fd"/><stop offset="0.67" stop-color="#195db0"/><stop offset="0.83" stop-color="#0c2c6a"/><stop offset="0.94" stop-color="#030d3f"/><stop offset="1" stop-color="#00012e"/></linearGradient></defs><title>mobil_2 copy</title><circle class="cls-1" cx="265.19" cy="280.31" r="239.86"/><circle class="cls-2" cx="265.71" cy="279.91" r="210.31"/><rect class="cls-3" x="177.3" y="118.24" width="176.23" height="306.84" rx="5.98" transform="translate(-72.76 98.8) rotate(-18.59)"/><path d="M294.44,100.3a5.72,5.72,0,0,1,7.24,3.6l94,279.5a5.71,5.71,0,0,1-3.59,7.24h0L236.4,443a5.72,5.72,0,0,1-7.25-3.59h0l-94-279.5a5.71,5.71,0,0,1,3.59-7.24L294.44,100.3m-.17-.49-155.7,52.37a6.25,6.25,0,0,0-3.93,7.9l94,279.5a6.25,6.25,0,0,0,7.9,3.93l155.7-52.38a6.23,6.23,0,0,0,3.93-7.9l-94-279.5A6.24,6.24,0,0,0,294.27,99.81Z"/><circle class="cls-4" cx="307.89" cy="397.92" r="15.66"/><path class="cls-5" d="M303,383.32a15.41,15.41,0,1,1-9.68,19.52h0A15.42,15.42,0,0,1,303,383.32m-.17-.49a15.92,15.92,0,1,0,20.17,10,15.92,15.92,0,0,0-20.17-10Z"/><path class="cls-6" d="M311.91,409.88a12.62,12.62,0,1,1,7.93-16h0A12.64,12.64,0,0,1,311.91,409.88Z"/><path d="M304,386.2a12.36,12.36,0,1,1-7.77,15.67h0A12.37,12.37,0,0,1,304,386.2m-.17-.49a12.88,12.88,0,1,0,16.31,8.11h0a12.86,12.86,0,0,0-16.3-8.11Z"/><rect class="cls-7" x="181.96" y="150.29" width="162.69" height="230.17" transform="translate(-70.87 97.8) rotate(-18.59)"/></svg>