<?xml version="1.0" encoding="utf-8"?>
<!-- Generator: Adobe Illustrator 23.0.1, SVG Export Plug-In . SVG Version: 6.00 Build 0)  -->
<svg version="1.1" id="Layer_1" xmlns="http://www.w3.org/2000/svg" xmlns:xlink="http://www.w3.org/1999/xlink" x="0px" y="0px"
	 viewBox="0 0 340 591.3" style="enable-background:new 0 0 340 591.3;" xml:space="preserve">
<style type="text/css">
	.st0{fill:#FFFFFF;}
	.st1{fill:url(#SVGID_1_);}
	.st2{fill:url(#SVGID_2_);}
	.st3{fill:url(#SVGID_3_);}
	.st4{fill:url(#SVGID_4_);}
</style>
<title>mobil</title>
<g>
	<path class="st0" d="M12,0.5h316c6.4,0,11.5,5.1,11.5,11.5v567.3c0,6.4-5.1,11.5-11.5,11.5H12c-6.4,0-11.5-5.1-11.5-11.5V12
		C0.5,5.6,5.6,0.5,12,0.5z"/>
	<path d="M328,1c6.1,0,11,4.9,11,11v567.3c0,6.1-4.9,11-11,11l0,0H12c-6.1,0-11-4.9-11-11l0,0V12C1,5.9,5.9,1,12,1H328 M328,0H12
		C5.4,0,0,5.4,0,12v567.3c0,6.6,5.4,12,12,12h316c6.6,0,12-5.4,12-12V12C340,5.4,334.6,0,328,0z"/>
	<circle cx="170" cy="19.8" r="6.5"/>
	<path d="M138,34.3h64c2.2,0,4,1.8,4,4l0,0c0,2.2-1.8,4-4,4h-64c-2.2,0-4-1.8-4-4l0,0C134,36,135.8,34.3,138,34.3z"/>
	<linearGradient id="SVGID_1_" gradientUnits="userSpaceOnUse" x1="154.9375" y1="577.9691" x2="185.0625" y2="525.791">
		<stop  offset="0" style="stop-color:#2A2627"/>
		<stop  offset="6.995230e-02" style="stop-color:#403C3D"/>
		<stop  offset="0.2163" style="stop-color:#797677"/>
		<stop  offset="0.425" style="stop-color:#D3D2D2"/>
		<stop  offset="0.5214" style="stop-color:#FFFFFF"/>
		<stop  offset="0.5336" style="stop-color:#F4F4F4"/>
		<stop  offset="0.61" style="stop-color:#B4B4B4"/>
		<stop  offset="0.6856" style="stop-color:#7D7D7D"/>
		<stop  offset="0.7582" style="stop-color:#505050"/>
		<stop  offset="0.8276" style="stop-color:#2D2D2D"/>
		<stop  offset="0.8927" style="stop-color:#141414"/>
		<stop  offset="0.9519" style="stop-color:#050505"/>
		<stop  offset="1" style="stop-color:#000000"/>
	</linearGradient>
	<circle class="st1" cx="170" cy="551.9" r="30.1"/>
	<linearGradient id="SVGID_2_" gradientUnits="userSpaceOnUse" x1="139.37" y1="551.88" x2="200.63" y2="551.88">
		<stop  offset="0" style="stop-color:#2A2627"/>
		<stop  offset="0.2007" style="stop-color:#2C2829"/>
		<stop  offset="0.273" style="stop-color:#332F30"/>
		<stop  offset="0.3246" style="stop-color:#3E3A3B"/>
		<stop  offset="0.3662" style="stop-color:#4F4B4C"/>
		<stop  offset="0.4019" style="stop-color:#646162"/>
		<stop  offset="0.4335" style="stop-color:#7F7D7D"/>
		<stop  offset="0.4622" style="stop-color:#9F9D9D"/>
		<stop  offset="0.4884" style="stop-color:#C4C3C3"/>
		<stop  offset="0.5118" style="stop-color:#ECECEC"/>
		<stop  offset="0.5214" style="stop-color:#FFFFFF"/>
		<stop  offset="0.5336" style="stop-color:#F4F4F4"/>
		<stop  offset="0.61" style="stop-color:#B4B4B4"/>
		<stop  offset="0.6856" style="stop-color:#7D7D7D"/>
		<stop  offset="0.7582" style="stop-color:#505050"/>
		<stop  offset="0.8276" style="stop-color:#2D2D2D"/>
		<stop  offset="0.8927" style="stop-color:#141414"/>
		<stop  offset="0.9519" style="stop-color:#050505"/>
		<stop  offset="1" style="stop-color:#000000"/>
	</linearGradient>
	<path class="st2" d="M170,522.3c16.4,0,29.6,13.3,29.6,29.6s-13.3,29.6-29.6,29.6c-16.4,0-29.6-13.3-29.6-29.6c0,0,0,0,0,0
		C140.4,535.5,153.6,522.3,170,522.3 M170,521.3c-16.9,0-30.6,13.7-30.6,30.6s13.7,30.6,30.6,30.6s30.6-13.7,30.6-30.6
		C200.6,535,186.9,521.3,170,521.3C170,521.3,170,521.3,170,521.3z"/>
	<linearGradient id="SVGID_3_" gradientUnits="userSpaceOnUse" x1="157.8448" y1="572.8988" x2="182.1288" y2="530.8376">
		<stop  offset="0" style="stop-color:#2A2627"/>
		<stop  offset="5.242651e-02" style="stop-color:#302C2D"/>
		<stop  offset="0.1256" style="stop-color:#423F3F"/>
		<stop  offset="0.211" style="stop-color:#5F5C5D"/>
		<stop  offset="0.3056" style="stop-color:#888686"/>
		<stop  offset="0.4079" style="stop-color:#BCBBBB"/>
		<stop  offset="0.515" style="stop-color:#FBFBFB"/>
		<stop  offset="0.5214" style="stop-color:#FFFFFF"/>
		<stop  offset="0.5336" style="stop-color:#F4F4F4"/>
		<stop  offset="0.61" style="stop-color:#B4B4B4"/>
		<stop  offset="0.6856" style="stop-color:#7D7D7D"/>
		<stop  offset="0.7582" style="stop-color:#505050"/>
		<stop  offset="0.8276" style="stop-color:#2D2D2D"/>
		<stop  offset="0.8927" style="stop-color:#141414"/>
		<stop  offset="0.9519" style="stop-color:#050505"/>
		<stop  offset="1" style="stop-color:#000000"/>
	</linearGradient>
	<path class="st3" d="M170,576.2c-13.4,0-24.3-10.9-24.3-24.3s10.9-24.3,24.3-24.3s24.3,10.9,24.3,24.3c0,0,0,0,0,0
		C194.3,565.3,183.4,576.1,170,576.2z"/>
	<path d="M170,528.1c13.1,0,23.8,10.6,23.8,23.8c0,13.1-10.6,23.8-23.8,23.8s-23.8-10.6-23.8-23.8c0,0,0,0,0,0
		C146.2,538.8,156.9,528.1,170,528.1 M170,527.1c-13.7,0-24.8,11.1-24.8,24.8s11.1,24.8,24.8,24.8c13.7,0,24.8-11.1,24.8-24.8
		c0,0,0,0,0,0C194.8,538.2,183.7,527.1,170,527.1C170,527.1,170,527.1,170,527.1z"/>
	<circle cx="118.6" cy="38.3" r="7"/>
	<linearGradient id="SVGID_4_" gradientUnits="userSpaceOnUse" x1="35.0218" y1="516.6641" x2="304.9782" y2="49.0859">
		<stop  offset="2.498997e-02" style="stop-color:#00012E"/>
		<stop  offset="7.433635e-02" style="stop-color:#010635"/>
		<stop  offset="0.1444" style="stop-color:#051347"/>
		<stop  offset="0.2269" style="stop-color:#0B2966"/>
		<stop  offset="0.3188" style="stop-color:#134790"/>
		<stop  offset="0.4172" style="stop-color:#1D6DC6"/>
		<stop  offset="0.5056" style="stop-color:#2894FD"/>
		<stop  offset="0.667" style="stop-color:#195DB0"/>
		<stop  offset="0.8272" style="stop-color:#0C2C6A"/>
		<stop  offset="0.9418" style="stop-color:#030D3F"/>
		<stop  offset="1" style="stop-color:#00012E"/>
	</linearGradient>
	<rect x="13.5" y="61.5" class="st4" width="313" height="442.8"/>
</g>
</svg>
