<svg xmlns="http://www.w3.org/2000/svg" xmlns:xlink="http://www.w3.org/1999/xlink" width="216.43" height="267.92" viewBox="0 0 216.43 267.92"><defs><style>.cls-1{fill:none;}.cls-2{isolation:isolate;}.cls-3{fill:url(#linear-gradient);}.cls-4{fill:url(#linear-gradient-2);}.cls-5{fill:url(#linear-gradient-3);}.cls-6{fill:#29abe2;}.cls-7{fill:url(#linear-gradient-4);}.cls-8{fill:url(#linear-gradient-5);}.cls-9{fill:url(#linear-gradient-6);}.cls-10{fill:url(#linear-gradient-7);}.cls-11{fill:url(#linear-gradient-8);}.cls-12{fill:url(#linear-gradient-9);}.cls-13{fill:url(#linear-gradient-10);}.cls-14{fill:url(#linear-gradient-11);}.cls-15{fill:url(#linear-gradient-12);}.cls-16{fill:url(#linear-gradient-13);}.cls-17{fill:#ff85b5;}.cls-18{fill:#c1fff5;}.cls-19{fill:#f2f2f1;}.cls-20{fill:url(#linear-gradient-14);}.cls-21{fill:url(#linear-gradient-15);}.cls-22{fill:#ffa55d;}.cls-23{fill:#7f3900;}.cls-24{fill:url(#linear-gradient-16);}.cls-25{fill:url(#linear-gradient-17);}.cls-26{fill:url(#linear-gradient-18);}.cls-27{fill:url(#linear-gradient-19);}.cls-28{fill:url(#linear-gradient-20);}.cls-29{fill:url(#linear-gradient-21);}.cls-30{fill:url(#linear-gradient-22);}.cls-31{fill:#fff85b;}.cls-32{fill:#f4ff0f;}.cls-33{fill:#f13d24;}.cls-34{fill:#f15a24;}.cls-35{fill:#c6d0ff;}.cls-36{fill:#ff941a;}.cls-37{fill:url(#linear-gradient-23);}.cls-38{fill:url(#linear-gradient-24);}.cls-39{fill:url(#linear-gradient-25);}.cls-40{fill:url(#linear-gradient-26);}.cls-41{fill:url(#linear-gradient-27);}.cls-42{fill:url(#linear-gradient-28);}.cls-43{fill:url(#linear-gradient-29);}.cls-44{fill:url(#linear-gradient-30);}.cls-45{fill:url(#linear-gradient-31);}.cls-46{fill:url(#linear-gradient-32);}.cls-47{fill:url(#linear-gradient-33);}.cls-48{fill:url(#linear-gradient-34);}.cls-49{fill:#49f2f2;}.cls-50{clip-path:url(#clip-path);}.cls-51{clip-path:url(#clip-path-2);}.cls-52{mix-blend-mode:screen;}.cls-53{clip-path:url(#clip-path-5);}.cls-54{fill:url(#linear-gradient-35);}.cls-55{clip-path:url(#clip-path-6);}.cls-56{clip-path:url(#clip-path-7);}.cls-57{clip-path:url(#clip-path-10);}.cls-58{fill:url(#linear-gradient-36);}.cls-59{clip-path:url(#clip-path-11);}.cls-60{clip-path:url(#clip-path-12);}.cls-61{clip-path:url(#clip-path-15);}.cls-62{fill:url(#linear-gradient-37);}.cls-63{clip-path:url(#clip-path-16);}.cls-64{clip-path:url(#clip-path-17);}.cls-65{clip-path:url(#clip-path-20);}.cls-66{fill:url(#linear-gradient-38);}.cls-67{clip-path:url(#clip-path-21);}.cls-68{clip-path:url(#clip-path-22);}.cls-69{clip-path:url(#clip-path-25);}.cls-70{fill:url(#linear-gradient-39);}.cls-71{clip-path:url(#clip-path-26);}.cls-72{clip-path:url(#clip-path-27);}.cls-73{clip-path:url(#clip-path-30);}.cls-74{fill:url(#linear-gradient-40);}.cls-75{clip-path:url(#clip-path-31);}.cls-76{clip-path:url(#clip-path-32);}.cls-77{clip-path:url(#clip-path-35);}.cls-78{fill:url(#linear-gradient-41);}.cls-79{clip-path:url(#clip-path-36);}.cls-80{clip-path:url(#clip-path-37);}.cls-81{clip-path:url(#clip-path-40);}.cls-82{fill:url(#linear-gradient-42);}.cls-83{fill:red;}</style><linearGradient id="linear-gradient" x1="195.69" y1="128.84" x2="237.95" y2="128.84" gradientTransform="matrix(1, 0, 0, -1.32, -154.73, 299.87)" gradientUnits="userSpaceOnUse"><stop offset="0" stop-color="#f15a24"/><stop offset="0.21" stop-color="#ee5628"/><stop offset="0.42" stop-color="#e44a34"/><stop offset="0.63" stop-color="#d43647"/><stop offset="0.84" stop-color="#be1a62"/><stop offset="1" stop-color="#aa007b"/></linearGradient><linearGradient id="linear-gradient-2" x1="112.68" y1="309.72" x2="130.11" y2="309.72" gradientTransform="matrix(-0.99, -0.11, -0.11, 0.99, 245.74, -200.05)" gradientUnits="userSpaceOnUse"><stop offset="0" stop-color="#ffb580"/><stop offset="0.3" stop-color="#ffb47c"/><stop offset="0.57" stop-color="#ffb071"/><stop offset="0.82" stop-color="#ffab5f"/><stop offset="1" stop-color="#ffa54e"/></linearGradient><linearGradient id="linear-gradient-3" x1="-3711.87" y1="-674.55" x2="-3697.9" y2="-674.55" gradientTransform="matrix(0.51, -0.86, 0.64, 0.38, 2454.04, -2809.29)" xlink:href="#linear-gradient-2"/><linearGradient id="linear-gradient-4" x1="178.47" y1="119.21" x2="220.73" y2="119.21" gradientTransform="matrix(1, 0, 0, -0.87, -132.77, 287.49)" xlink:href="#linear-gradient"/><linearGradient id="linear-gradient-5" x1="174.71" y1="140.44" x2="191.13" y2="168.89" gradientTransform="matrix(1.06, 0, 0, -1.8, -121.64, 478.68)" gradientUnits="userSpaceOnUse"><stop offset="0" stop-color="#fff"/><stop offset="0.36" stop-color="#fefdfd"/><stop offset="0.55" stop-color="#faf6f5"/><stop offset="0.7" stop-color="#f4eae7"/><stop offset="0.83" stop-color="#ebdad4"/><stop offset="0.95" stop-color="#e0c4bb"/><stop offset="1" stop-color="#dab9ae"/></linearGradient><linearGradient id="linear-gradient-6" x1="210.04" y1="3.99" x2="223.4" y2="27.14" gradientTransform="matrix(-1, -0.01, -0.01, 1, 312.04, 200.42)" xlink:href="#linear-gradient-5"/><linearGradient id="linear-gradient-7" x1="271.05" y1="-123.63" x2="286.14" y2="-97.49" gradientTransform="matrix(-1, -0.03, -0.03, 1, 323.56, 334.18)" gradientUnits="userSpaceOnUse"><stop offset="0" stop-color="#fff"/><stop offset="0.18" stop-color="#f6eeeb"/><stop offset="0.52" stop-color="#e7d1ca"/><stop offset="0.81" stop-color="#ddbfb5"/><stop offset="1" stop-color="#dab9ae"/></linearGradient><linearGradient id="linear-gradient-8" x1="191.63" y1="202.21" x2="207.36" y2="229.44" gradientTransform="matrix(-1, 0, 0, 1, 271.8, 0)" gradientUnits="userSpaceOnUse"><stop offset="0" stop-color="#fff"/><stop offset="0.26" stop-color="#f4eae7"/><stop offset="0.75" stop-color="#e1c7be"/><stop offset="1" stop-color="#dab9ae"/></linearGradient><linearGradient id="linear-gradient-9" x1="-17.51" y1="101.02" x2="-4.51" y2="101.02" gradientTransform="matrix(1, 0, 0, -1.37, 133.55, 327.72)" xlink:href="#linear-gradient-2"/><linearGradient id="linear-gradient-10" x1="40.86" y1="360.55" x2="58.29" y2="360.55" xlink:href="#linear-gradient-2"/><linearGradient id="linear-gradient-11" x1="-59.39" y1="92.19" x2="-46.39" y2="92.19" gradientTransform="matrix(1, 0, 0, -1.3, 138.11, 314.02)" xlink:href="#linear-gradient-2"/><linearGradient id="linear-gradient-12" x1="180.68" y1="64.31" x2="227.14" y2="64.31" gradientTransform="matrix(1, 0, 0, -1, -136.02, 128.61)" gradientUnits="userSpaceOnUse"><stop offset="0" stop-color="#ffb580"/><stop offset="0.38" stop-color="#ffb47d"/><stop offset="0.61" stop-color="#ffb175"/><stop offset="0.8" stop-color="#ffad66"/><stop offset="0.97" stop-color="#ffa652"/><stop offset="1" stop-color="#ffa54e"/></linearGradient><linearGradient id="linear-gradient-13" x1="221.33" y1="59.27" x2="232.95" y2="59.27" gradientTransform="matrix(-1, 0, 0, 1, 271.8, 0)" gradientUnits="userSpaceOnUse"><stop offset="0" stop-color="#ffb580"/><stop offset="0.55" stop-color="#ffab62"/><stop offset="1" stop-color="#ffa54e"/></linearGradient><linearGradient id="linear-gradient-14" x1="209.72" y1="67.33" x2="219.4" y2="67.33" gradientTransform="matrix(-1, 0, 0, 1, 271.8, 0)" gradientUnits="userSpaceOnUse"><stop offset="0" stop-color="#ff85b5"/><stop offset="0.27" stop-color="#ff7f9f"/><stop offset="0.84" stop-color="#ff6f68"/><stop offset="1" stop-color="#ff6a57"/></linearGradient><linearGradient id="linear-gradient-15" x1="183.89" y1="67.33" x2="193.57" y2="67.33" xlink:href="#linear-gradient-14"/><linearGradient id="linear-gradient-16" x1="-309.8" y1="572.41" x2="-305.77" y2="571.45" gradientTransform="matrix(-0.2, 0.98, 1.01, 0.2, -460.32, 316.42)" xlink:href="#linear-gradient-2"/><linearGradient id="linear-gradient-17" x1="-305.97" y1="571.42" x2="-301.95" y2="570.45" gradientTransform="matrix(-0.2, 0.98, 1.01, 0.2, -460.32, 316.42)" xlink:href="#linear-gradient-2"/><linearGradient id="linear-gradient-18" x1="-302.34" y1="571.37" x2="-298.32" y2="570.41" gradientTransform="matrix(-0.2, 0.98, 1.01, 0.2, -460.32, 316.42)" xlink:href="#linear-gradient-2"/><linearGradient id="linear-gradient-19" x1="-298.72" y1="571.33" x2="-294.69" y2="570.36" gradientTransform="matrix(-0.2, 0.98, 1.01, 0.2, -460.32, 316.42)" xlink:href="#linear-gradient-2"/><linearGradient id="linear-gradient-20" x1="-89.51" y1="-548.72" x2="-85.74" y2="-549.62" gradientTransform="matrix(0.47, 0.88, 0.91, -0.48, 716.64, -59.06)" xlink:href="#linear-gradient-2"/><linearGradient id="linear-gradient-21" x1="-232.29" y1="259.67" x2="-218.32" y2="259.67" gradientTransform="matrix(-0.09, 1, 0.6, 0.06, -32.1, 341.97)" xlink:href="#linear-gradient-2"/><linearGradient id="linear-gradient-22" x1="107.69" y1="187.32" x2="120.69" y2="187.32" gradientTransform="matrix(1, 0, 0, -1, 42.78, 375.45)" xlink:href="#linear-gradient-2"/><linearGradient id="linear-gradient-23" x1="149.69" y1="188.32" x2="162.69" y2="188.32" gradientTransform="matrix(1, 0, 0, -1, -41.22, 377.45)" xlink:href="#linear-gradient-2"/><linearGradient id="linear-gradient-24" x1="84.61" y1="365.23" x2="102.04" y2="365.23" xlink:href="#linear-gradient-2"/><linearGradient id="linear-gradient-25" x1="-3640.51" y1="-157.13" x2="-3636.49" y2="-158.09" gradientTransform="matrix(0.16, 0.99, -1.02, 0.16, 522.99, 3755.97)" xlink:href="#linear-gradient-2"/><linearGradient id="linear-gradient-26" x1="-3636.88" y1="-157.17" x2="-3632.86" y2="-158.14" gradientTransform="matrix(0.16, 0.99, -1.02, 0.16, 522.99, 3755.97)" xlink:href="#linear-gradient-2"/><linearGradient id="linear-gradient-27" x1="-3633.25" y1="-157.21" x2="-3629.23" y2="-158.18" gradientTransform="matrix(0.16, 0.99, -1.02, 0.16, 522.99, 3755.97)" xlink:href="#linear-gradient-2"/><linearGradient id="linear-gradient-28" x1="-3629.63" y1="-157.26" x2="-3625.6" y2="-158.22" gradientTransform="matrix(0.16, 0.99, -1.02, 0.16, 522.99, 3755.97)" xlink:href="#linear-gradient-2"/><linearGradient id="linear-gradient-29" x1="-3148.46" y1="921.45" x2="-3144.68" y2="920.54" gradientTransform="matrix(-0.5, 0.87, -0.89, -0.52, -638.96, 3336.32)" xlink:href="#linear-gradient-2"/><linearGradient id="linear-gradient-30" x1="-3621.95" y1="206.74" x2="-3607.98" y2="206.74" gradientTransform="matrix(0.06, 1, -0.51, 0.03, 447.35, 3745.24)" xlink:href="#linear-gradient-2"/><linearGradient id="linear-gradient-31" x1="35.9" y1="348.76" x2="52.16" y2="348.76" xlink:href="#linear-gradient-2"/><linearGradient id="linear-gradient-32" x1="-78.46" y1="264.53" x2="-64.49" y2="264.53" gradientTransform="matrix(-0.44, 0.9, 0.68, 0.34, -133.14, 90.61)" xlink:href="#linear-gradient-2"/><linearGradient id="linear-gradient-33" x1="80.3" y1="330.66" x2="96.56" y2="330.66" gradientTransform="matrix(-0.99, -0.11, -0.11, 0.99, 235.36, -188.03)" xlink:href="#linear-gradient-2"/><linearGradient id="linear-gradient-34" x1="163.09" y1="316.11" x2="179.35" y2="316.11" xlink:href="#linear-gradient-2"/><clipPath id="clip-path"><polygon class="cls-1" points="55.91 65.41 57.09 63.62 57.58 63.95 56.41 65.74 55.91 65.41"/></clipPath><clipPath id="clip-path-2"><polygon class="cls-1" points="56.41 65.74 57.58 63.95 57.09 63.62 55.91 65.41 56.41 65.74"/></clipPath><clipPath id="clip-path-5"><path class="cls-1" d="M57.39,63.83c.12.11-.08.59-.44,1.07s-.74.75-.85.63.09-.59.44-1.07.74-.75.85-.63"/></clipPath><linearGradient id="linear-gradient-35" x1="-2340.43" y1="-518.08" x2="-2339.43" y2="-518.08" gradientTransform="matrix(0.41, 0.43, 0.64, -0.84, 1340.63, 640.2)" gradientUnits="userSpaceOnUse"><stop offset="0" stop-color="#fff"/><stop offset="0.07" stop-color="#dfdfdf"/><stop offset="0.22" stop-color="#a5a5a5"/><stop offset="0.36" stop-color="#727272"/><stop offset="0.5" stop-color="#494949"/><stop offset="0.64" stop-color="#292929"/><stop offset="0.77" stop-color="#121212"/><stop offset="0.89" stop-color="#050505"/><stop offset="1"/></linearGradient><clipPath id="clip-path-6"><polygon class="cls-1" points="48.86 75.3 50.17 73.6 50.64 73.96 49.33 75.66 48.86 75.3"/></clipPath><clipPath id="clip-path-7"><polygon class="cls-1" points="49.33 75.66 50.64 73.96 50.17 73.6 48.86 75.3 49.33 75.66"/></clipPath><clipPath id="clip-path-10"><path class="cls-1" d="M50.46,73.83c.1.12-.13.59-.53,1s-.79.7-.89.57.13-.59.52-1,.79-.7.9-.57"/></clipPath><linearGradient id="linear-gradient-36" x1="-2340.43" y1="-518.08" x2="-2339.43" y2="-518.08" gradientTransform="matrix(0.37, 0.46, 0.7, -0.79, 1286.34, 745.75)" xlink:href="#linear-gradient-35"/><clipPath id="clip-path-11"><polygon class="cls-1" points="44.95 84.46 46.03 82.6 46.54 82.91 45.46 84.76 44.95 84.46"/></clipPath><clipPath id="clip-path-12"><polygon class="cls-1" points="45.46 84.76 46.54 82.91 46.03 82.6 44.95 84.46 45.46 84.76"/></clipPath><clipPath id="clip-path-15"><path class="cls-1" d="M46.35,82.8c.12.11-.06.6-.39,1.09s-.7.79-.82.68.06-.6.39-1.09.7-.8.82-.68"/></clipPath><linearGradient id="linear-gradient-37" x1="-2340.43" y1="-518.08" x2="-2339.43" y2="-518.08" gradientTransform="matrix(0.43, 0.41, 0.59, -0.87, 1357.64, 592.11)" xlink:href="#linear-gradient-35"/><clipPath id="clip-path-16"><polygon class="cls-1" points="42.95 94.46 44.03 92.6 44.54 92.91 43.46 94.76 42.95 94.46"/></clipPath><clipPath id="clip-path-17"><polygon class="cls-1" points="43.46 94.76 44.54 92.91 44.03 92.6 42.95 94.46 43.46 94.76"/></clipPath><clipPath id="clip-path-20"><path class="cls-1" d="M44.35,92.8c.12.11-.06.6-.39,1.09s-.7.79-.82.68.06-.6.39-1.09.7-.8.82-.68"/></clipPath><linearGradient id="linear-gradient-38" x1="-2340.43" y1="-518.08" x2="-2339.43" y2="-518.08" gradientTransform="matrix(0.43, 0.41, 0.59, -0.87, 1355.64, 602.11)" xlink:href="#linear-gradient-35"/><clipPath id="clip-path-21"><polygon class="cls-1" points="85.57 64.02 85.53 61.88 86.12 61.87 86.17 64.01 85.57 64.02"/></clipPath><clipPath id="clip-path-22"><polygon class="cls-1" points="86.17 64.01 86.12 61.87 85.53 61.88 85.57 64.02 86.17 64.01"/></clipPath><clipPath id="clip-path-25"><path class="cls-1" d="M85.9,61.87c.16,0,.27.55.24,1.14s-.19,1-.35,1-.26-.55-.23-1.14.18-1,.34-1"/></clipPath><linearGradient id="linear-gradient-39" x1="-2340.43" y1="-518.08" x2="-2339.43" y2="-518.08" gradientTransform="matrix(0.58, 0.13, 0.05, -1.05, 1470.59, -186.19)" xlink:href="#linear-gradient-35"/><clipPath id="clip-path-26"><polygon class="cls-1" points="89.57 73.02 89.53 70.88 90.12 70.87 90.17 73.01 89.57 73.02"/></clipPath><clipPath id="clip-path-27"><polygon class="cls-1" points="90.17 73.01 90.12 70.87 89.53 70.88 89.57 73.02 90.17 73.01"/></clipPath><clipPath id="clip-path-30"><path class="cls-1" d="M89.9,70.87c.16,0,.27.55.24,1.14s-.19,1-.35,1-.26-.55-.23-1.14.18-1,.34-1"/></clipPath><linearGradient id="linear-gradient-40" x1="-2340.43" y1="-518.08" x2="-2339.43" y2="-518.08" gradientTransform="matrix(0.58, 0.13, 0.05, -1.05, 1474.59, -177.19)" xlink:href="#linear-gradient-35"/><clipPath id="clip-path-31"><polygon class="cls-1" points="92.29 82.75 92.7 80.64 93.29 80.76 92.88 82.86 92.29 82.75"/></clipPath><clipPath id="clip-path-32"><polygon class="cls-1" points="92.88 82.86 93.29 80.76 92.7 80.64 92.29 82.75 92.88 82.86"/></clipPath><clipPath id="clip-path-35"><path class="cls-1" d="M93.07,80.72c.15.07.14.59,0,1.16s-.4,1-.55.91-.14-.59,0-1.16.4-1,.55-.91"/></clipPath><linearGradient id="linear-gradient-41" x1="-2340.43" y1="-518.08" x2="-2339.43" y2="-518.08" gradientTransform="matrix(0.54, 0.25, 0.27, -1.02, 1498.92, 130.43)" xlink:href="#linear-gradient-35"/><clipPath id="clip-path-36"><polygon class="cls-1" points="94.09 92.51 94.86 90.51 95.42 90.73 94.64 92.73 94.09 92.51"/></clipPath><clipPath id="clip-path-37"><polygon class="cls-1" points="94.64 92.73 95.42 90.73 94.86 90.51 94.09 92.51 94.64 92.73"/></clipPath><clipPath id="clip-path-40"><path class="cls-1" d="M95.21,90.65c.13.09,0,.6-.21,1.14s-.56.89-.7.8,0-.6.21-1.14.56-.9.7-.8"/></clipPath><linearGradient id="linear-gradient-42" x1="-2340.43" y1="-518.08" x2="-2339.43" y2="-518.08" gradientTransform="matrix(0.49, 0.34, 0.45, -0.96, 1471.04, 383.89)" xlink:href="#linear-gradient-35"/></defs><title>pige_grædende</title><g class="cls-2"><g id="Layer_1" data-name="Layer 1"><rect class="cls-3" x="40.96" y="91.76" width="42.26" height="75.41" rx="8.13" transform="translate(112.6 263.88) rotate(-174.98)"/><ellipse class="cls-4" cx="92.07" cy="94.99" rx="8.71" ry="9.07"/><path class="cls-5" d="M165.35,141.09h0c-1.81,3.09-5.23,4.44-7.61,3l-67-40.86c-2.38-1.45-2.85-5.17-1-8.26h0c1.81-3.1,5.24-4.44,7.61-3l67,40.86C166.7,134.28,167.16,138,165.35,141.09Z"/><path class="cls-6" d="M67.6,228.12h27c0,11.44-12.2,20.85-27,20.85s-27-9.41-27-20.85c0-.12,0-.24,0-.36Z"/><rect class="cls-7" x="45.7" y="148.67" width="42.26" height="69.12" rx="6.19" transform="translate(177.36 343.91) rotate(165.51)"/><rect class="cls-8" x="49.06" y="187.66" width="44.59" height="24.4" transform="translate(209.61 360.86) rotate(158.99)"/><ellipse class="cls-9" cx="95.14" cy="213.18" rx="16.46" ry="12.08" transform="translate(-22.76 11.69) rotate(-6.28)"/><ellipse class="cls-10" cx="48.35" cy="215.45" rx="17.44" ry="14.09" transform="translate(-38.96 12.63) rotate(-10.64)"/><ellipse class="cls-11" cx="72.88" cy="214.83" rx="17.42" ry="15.11"/><rect class="cls-12" x="116.04" y="131.02" width="13" height="115.94" rx="6.5" transform="translate(156.12 -33.73) rotate(41.53)"/><ellipse class="cls-13" cx="158.07" cy="153.17" rx="8.71" ry="9.07"/><rect class="cls-14" x="78.72" y="139.05" width="13" height="109.91" rx="6.5" transform="translate(108.42 -16.62) rotate(30)"/><rect class="cls-15" x="44.66" y="29.05" width="46.45" height="70.52" rx="23.23" transform="translate(135.78 128.61) rotate(-180)"/><ellipse cx="60.54" cy="55.72" rx="4.27" ry="4.45"/><ellipse cx="79.9" cy="55.72" rx="4.27" ry="4.45"/><ellipse class="cls-16" cx="44.66" cy="59.27" rx="5.81" ry="6.04"/><ellipse class="cls-17" cx="44.66" cy="59.27" rx="3.87" ry="4.03"/><ellipse class="cls-18" cx="44.66" cy="65.31" rx="1.94" ry="2.01"/><ellipse class="cls-19" cx="62.48" cy="55.72" rx="1.65" ry="1.72"/><ellipse class="cls-19" cx="81.84" cy="55.72" rx="1.65" ry="1.72"/><ellipse class="cls-20" cx="57.24" cy="67.33" rx="4.84" ry="4.03"/><ellipse class="cls-21" cx="82.41" cy="67.33" rx="4.84" ry="4.03"/><path d="M57.78,51.17h0A1,1,0,0,0,58.6,50l-.28-2.13a1,1,0,0,0-1.1-.86h0a1,1,0,0,0-.82,1.14l.29,2.13A1,1,0,0,0,57.78,51.17Z"/><path d="M55.51,52.4h0A1,1,0,0,0,55.56,51l-1.65-1.85a.94.94,0,0,0-1.37-.06h0a1,1,0,0,0,0,1.42l1.65,1.86A1,1,0,0,0,55.51,52.4Z"/><path d="M54.05,55.75h0a1,1,0,0,0-.44-1.35l-2.19-1.1a1,1,0,0,0-1.29.47h0a1,1,0,0,0,.44,1.34l2.19,1.11A1,1,0,0,0,54.05,55.75Z"/><path d="M80.5,50.89h0a1,1,0,0,0,1.2-.68l.7-2.42a1,1,0,0,0-.65-1.25h0a1,1,0,0,0-1.21.67l-.69,2.43A1,1,0,0,0,80.5,50.89Z"/><path d="M83.56,52.44h0a.94.94,0,0,0,1.36-.1l1.6-1.9A1,1,0,0,0,86.44,49h0a1,1,0,0,0-1.37.09L83.47,51A1.05,1.05,0,0,0,83.56,52.44Z"/><path d="M84.92,55.63h0a1,1,0,0,0,1.26.55l2.25-1A1,1,0,0,0,89,53.88h0a1,1,0,0,0-1.27-.54l-2.24,1A1,1,0,0,0,84.92,55.63Z"/><path class="cls-22" d="M70.79,62.31l-.07,5h.07a5,5,0,0,0,0-10.07Z"/><polygon class="cls-23" points="26.51 65.62 19.83 65.4 13.15 65.17 16.31 71.51 19.47 77.86 22.99 71.74 26.51 65.62"/><ellipse class="cls-23" cx="57.76" cy="36.66" rx="16.55" ry="6.9" transform="translate(-10.16 44.91) rotate(-39.33)"/><ellipse class="cls-23" cx="81.17" cy="36.66" rx="6.88" ry="16.6" transform="translate(-0.03 73.26) rotate(-48.57)"/><ellipse class="cls-23" cx="44.83" cy="30.75" rx="4.86" ry="5.28" transform="translate(12.79 74.66) rotate(-88.32)"/><ellipse class="cls-23" cx="31.55" cy="35.34" rx="4.86" ry="5.28" transform="translate(-4.7 65.83) rotate(-88.32)"/><ellipse class="cls-23" cx="23.44" cy="44.9" rx="4.86" ry="5.28" transform="translate(-22.12 67.01) rotate(-88.32)"/><ellipse class="cls-23" cx="20.58" cy="56.99" rx="4.86" ry="5.28" transform="translate(-37 75.89) rotate(-88.32)"/><ellipse class="cls-23" cx="91.66" cy="29.09" rx="4.5" ry="4.57" transform="translate(-3.75 41.14) rotate(-24.81)"/><ellipse class="cls-23" cx="103.55" cy="31.79" rx="4.5" ry="4.57" transform="translate(-3.78 46.38) rotate(-24.81)"/><ellipse class="cls-23" cx="111.75" cy="39.71" rx="4.5" ry="4.57" transform="translate(-6.35 50.55) rotate(-24.81)"/><ellipse class="cls-23" cx="115.88" cy="50.6" rx="4.5" ry="4.57" transform="translate(-10.54 53.29) rotate(-24.81)"/><polygon class="cls-23" points="122.47 56.27 115.96 57.11 109.44 57.95 113.48 63.23 117.53 68.51 120 62.39 122.47 56.27"/><path class="cls-24" d="M184.75,131.59h0a.91.91,0,0,0-.73-1.06l-9.56-1.79a1,1,0,0,0-1.11.72h0a.9.9,0,0,0,.73,1.06l9.56,1.79A1,1,0,0,0,184.75,131.59Z"/><path class="cls-25" d="M183,135.14h0a.9.9,0,0,0-.73-1.06l-9.56-1.79a1,1,0,0,0-1.11.72h0a.91.91,0,0,0,.73,1.06l9.56,1.79A1,1,0,0,0,183,135.14Z"/><path class="cls-26" d="M182.23,138.69h0a.89.89,0,0,0-.73-1.06l-9.56-1.79a1,1,0,0,0-1.11.71h0a.9.9,0,0,0,.74,1.06l9.55,1.79A.94.94,0,0,0,182.23,138.69Z"/><path class="cls-27" d="M181.47,142.24h0a.89.89,0,0,0-.73-1.06l-9.55-1.79a1,1,0,0,0-1.11.71h0a.89.89,0,0,0,.73,1.06l9.56,1.79A.94.94,0,0,0,181.47,142.24Z"/><path class="cls-28" d="M179.41,125.14h0a1,1,0,0,0-1.27-.37l-8.66,4.43a.89.89,0,0,0-.4,1.22h0a1,1,0,0,0,1.27.37l8.66-4.43A.91.91,0,0,0,179.41,125.14Z"/><path class="cls-29" d="M180.33,135.32h0c.36-3.57-1.17-6.63-3.4-6.81l-62.82-5c-2.23-.18-4.35,2.59-4.7,6.15h0c-.36,3.57,1.17,6.63,3.4,6.81l62.82,5C177.86,141.66,180,138.88,180.33,135.32Z"/><rect class="cls-30" x="150.47" y="145.92" width="13" height="84.43" rx="6.5" transform="translate(313.93 376.28) rotate(-180)"/><rect class="cls-31" x="150.59" y="228.78" width="14.62" height="8.87" rx="1.06" transform="translate(391.11 75.31) rotate(90)"/><rect class="cls-32" x="156.09" y="226.07" width="3.61" height="8.87" transform="translate(388.4 72.61) rotate(90)"/><path class="cls-33" d="M154.68,252.11l10.72.23v-.23c0-8-4.84-14.49-10.72-14.49S144,244.16,144,252.11Z"/><path class="cls-34" d="M169.69,252.14l19.29.27v-.27c0-8.9-8.71-16.22-19.29-16.22s-19.3,7.32-19.3,16.22Z"/><rect class="cls-35" x="143.96" y="252.11" width="45.01" height="2.07" transform="translate(332.94 506.28) rotate(-180)"/><path class="cls-36" d="M167.54,224.26v.38c0,2.25-2.16,4.06-4.82,4.06h-9.64c-2.67,0-4.83-1.81-4.83-4.06v-.38c0-2.24,2.16-4.06,4.83-4.06h9.64C165.38,220.2,167.54,222,167.54,224.26Z"/><rect class="cls-37" x="108.47" y="146.92" width="13" height="84.43" rx="1.9" transform="translate(229.93 378.28) rotate(-180)"/><rect class="cls-31" x="108.59" y="229.78" width="14.62" height="8.87" rx="1.06" transform="translate(350.11 118.31) rotate(90)"/><rect class="cls-32" x="114.09" y="227.07" width="3.61" height="8.87" transform="translate(347.4 115.61) rotate(90)"/><path class="cls-33" d="M112.68,253.11l10.72.23v-.23c0-8-4.84-14.49-10.72-14.49S102,245.16,102,253.11Z"/><path class="cls-34" d="M127.69,253.14l19.29.27v-.27c0-8.9-8.71-16.22-19.29-16.22s-19.3,7.32-19.3,16.22Z"/><rect class="cls-35" x="101.96" y="253.11" width="45.01" height="2.07" transform="translate(248.94 508.28) rotate(-180)"/><path class="cls-36" d="M125.54,225.26v.38c0,2.25-2.16,4.06-4.82,4.06h-9.64c-2.67,0-4.83-1.81-4.83-4.06v-.38c0-2.24,2.16-4.06,4.83-4.06h9.64C123.38,221.2,125.54,223,125.54,225.26Z"/><ellipse class="cls-38" cx="114.07" cy="153.17" rx="8.71" ry="9.07"/><path class="cls-39" d="M98.88,138.8h0a.89.89,0,0,1,.77-1l9.62-1.43a1,1,0,0,1,1.08.75h0a.9.9,0,0,1-.77,1L100,139.55A.94.94,0,0,1,98.88,138.8Z"/><path class="cls-40" d="M99.5,142.37h0a.9.9,0,0,1,.77-1l9.62-1.43a1,1,0,0,1,1.08.76h0a.9.9,0,0,1-.77,1l-9.62,1.43A1,1,0,0,1,99.5,142.37Z"/><path class="cls-41" d="M100.12,146h0a.9.9,0,0,1,.77-1l9.62-1.43a.94.94,0,0,1,1.08.75h0a.89.89,0,0,1-.77,1l-9.62,1.43A1,1,0,0,1,100.12,146Z"/><path class="cls-42" d="M100.75,149.52h0a.9.9,0,0,1,.77-1l9.61-1.43a1,1,0,0,1,1.09.76h0a.9.9,0,0,1-.77,1l-9.62,1.43A1,1,0,0,1,100.75,149.52Z"/><path class="cls-43" d="M103.46,132.51h0a1,1,0,0,1,1.28-.32l8.48,4.75a.9.9,0,0,1,.36,1.24h0a1,1,0,0,1-1.28.32l-8.49-4.75A.9.9,0,0,1,103.46,132.51Z"/><path class="cls-44" d="M102.15,143.67h0c-.23-3.57,1.15-6.56,3-6.64l53.68-2.17c1.9-.08,3.65,2.79,3.87,6.36h0c.22,3.58-1.15,6.57-3.05,6.65L106,150C104.11,150.11,102.37,147.25,102.15,143.67Z"/><ellipse class="cls-45" cx="164.84" cy="142.04" rx="8.13" ry="8.46"/><path class="cls-46" d="M118.69,134.6h0c1.61-3.2.85-6.82-1.69-8L45.44,92.29c-2.54-1.21-5.93.41-7.54,3.62h0c-1.61,3.2-.85,6.81,1.69,8l71.56,34.27C113.69,139.43,117.08,137.8,118.69,134.6Z"/><ellipse class="cls-47" cx="112.24" cy="131.34" rx="8.13" ry="8.46" transform="translate(-17.17 16.88) rotate(-7.99)"/><ellipse class="cls-48" cx="41.84" cy="96.04" rx="8.13" ry="8.46"/><ellipse class="cls-49" cx="57.23" cy="65.52" rx="1.79" ry="1.31" transform="translate(-19.73 106.08) rotate(-76.66)"/><polygon class="cls-49" points="58.55 65.66 57.27 65.42 55.99 65.19 56.97 63.6 57.96 62.02 58.25 63.84 58.55 65.66"/><g id="shiny"><g class="cls-50"><g class="cls-51"><g class="cls-50"><g class="cls-52"><g class="cls-51"><g class="cls-53"><polygon class="cls-54" points="57.17 63.45 57.73 64.05 56.32 65.91 55.76 65.31 57.17 63.45"/></g></g></g></g></g></g></g><ellipse class="cls-49" cx="50.16" cy="75.5" rx="1.79" ry="1.31" transform="translate(-37.01 100.36) rotate(-72.32)"/><polygon class="cls-49" points="51.47 75.75 50.21 75.41 48.95 75.08 50.05 73.57 51.16 72.07 51.31 73.91 51.47 75.75"/><g id="shiny-2" data-name="shiny"><g class="cls-55"><g class="cls-56"><g class="cls-55"><g class="cls-52"><g class="cls-56"><g class="cls-57"><polygon class="cls-58" points="50.26 73.44 50.78 74.07 49.23 75.82 48.72 75.19 50.26 73.44"/></g></g></g></g></g></g></g><ellipse class="cls-49" cx="46.27" cy="84.49" rx="1.79" ry="1.31" transform="translate(-45.18 114.78) rotate(-79.62)"/><polygon class="cls-49" points="47.59 84.57 46.3 84.4 45.01 84.23 45.92 82.59 46.82 80.96 47.21 82.77 47.59 84.57"/><g id="shiny-3" data-name="shiny"><g class="cls-59"><g class="cls-60"><g class="cls-59"><g class="cls-52"><g class="cls-60"><g class="cls-61"><polygon class="cls-62" points="46.11 82.43 46.7 83 45.39 84.93 44.8 84.36 46.11 82.43"/></g></g></g></g></g></g></g><ellipse class="cls-49" cx="44.27" cy="94.49" rx="1.79" ry="1.31" transform="translate(-56.65 121.02) rotate(-79.62)"/><polygon class="cls-49" points="45.59 94.57 44.3 94.4 43.01 94.23 43.92 92.59 44.82 90.96 45.21 92.77 45.59 94.57"/><g id="shiny-4" data-name="shiny"><g class="cls-63"><g class="cls-64"><g class="cls-63"><g class="cls-52"><g class="cls-64"><g class="cls-65"><polygon class="cls-66" points="44.11 92.43 44.7 93 43.39 94.93 42.8 94.36 44.11 92.43"/></g></g></g></g></g></g></g><ellipse class="cls-49" cx="86.72" cy="63.37" rx="1.31" ry="1.79" transform="translate(-16.95 35.29) rotate(-21.01)"/><polygon class="cls-49" points="87.89 62.74 86.69 63.27 85.5 63.79 85.42 61.93 85.35 60.06 86.62 61.4 87.89 62.74"/><g id="shiny-5" data-name="shiny"><g class="cls-67"><g class="cls-68"><g class="cls-67"><g class="cls-52"><g class="cls-68"><g class="cls-69"><polygon class="cls-70" points="85.5 61.69 86.3 61.87 86.19 64.2 85.39 64.02 85.5 61.69"/></g></g></g></g></g></g></g><ellipse class="cls-49" cx="90.72" cy="72.37" rx="1.31" ry="1.79" transform="translate(-19.91 37.33) rotate(-21.01)"/><polygon class="cls-49" points="91.89 71.74 90.69 72.27 89.5 72.79 89.42 70.93 89.35 69.06 90.62 70.4 91.89 71.74"/><g id="shiny-6" data-name="shiny"><g class="cls-71"><g class="cls-72"><g class="cls-71"><g class="cls-52"><g class="cls-72"><g class="cls-73"><polygon class="cls-74" points="89.5 70.69 90.3 70.87 90.19 73.2 89.39 73.02 89.5 70.69"/></g></g></g></g></g></g></g><ellipse class="cls-49" cx="93.55" cy="82.35" rx="1.31" ry="1.79" transform="translate(-11.52 15.32) rotate(-8.82)"/><polygon class="cls-49" points="94.83 81.99 93.55 82.25 92.28 82.51 92.59 80.67 92.91 78.83 93.87 80.41 94.83 81.99"/><g id="shiny-7" data-name="shiny"><g class="cls-75"><g class="cls-76"><g class="cls-75"><g class="cls-52"><g class="cls-76"><g class="cls-77"><polygon class="cls-78" points="92.72 80.46 93.46 80.8 92.86 83.05 92.12 82.71 92.72 80.46"/></g></g></g></g></g></g></g><ellipse class="cls-49" cx="95.4" cy="92.34" rx="1.79" ry="1.31" transform="translate(1.11 185.81) rotate(-88.82)"/><polygon class="cls-49" points="96.72 92.2 95.42 92.24 94.12 92.27 94.75 90.52 95.38 88.76 96.05 90.48 96.72 92.2"/><g id="shiny-8" data-name="shiny"><g class="cls-79"><g class="cls-80"><g class="cls-79"><g class="cls-52"><g class="cls-80"><g class="cls-81"><polygon class="cls-82" points="94.91 90.33 95.58 90.79 94.6 92.91 93.92 92.44 94.91 90.33"/></g></g></g></g></g></g></g><path class="cls-83" d="M69.67,75.59l-1.15.48a2.21,2.21,0,0,1,0-.72c.2-.91.86-1.55,1.46-1.42s1,1,.75,1.9Z"/><path class="cls-83" d="M71.38,76.15l-1.1-.28c.21-.89.86-1.51,1.46-1.38s1,1,.75,1.9a2.36,2.36,0,0,1-.46,1Z"/><path d="M69.57,82.19l-3,.22,0-.46c.31-4,1.93-7.12,3.58-7s2.74,3.5,2.43,7.47c0,.36-.07.71-.12,1.07Z"/><path class="cls-83" d="M69.55,82.43l2.89,1a3.42,3.42,0,0,0-.26-2.24,3.08,3.08,0,0,0-4-1.64,2.9,2.9,0,0,0-1.58,2.78Z"/></g></g></svg>