<svg id="Layer_1" data-name="Layer 1" xmlns="http://www.w3.org/2000/svg" xmlns:xlink="http://www.w3.org/1999/xlink" width="478.65" height="238.67" viewBox="0 0 478.65 238.67"><defs><style>.cls-1{fill:#9aa8e8;}.cls-2{opacity:0.5;}.cls-3{fill:#76878c;}.cls-4{fill:url(#linear-gradient);}</style><linearGradient id="linear-gradient" x1="228.58" y1="121.25" x2="285.78" y2="121.25" gradientUnits="userSpaceOnUse"><stop offset="0" stop-color="#fff"/><stop offset="0.43" stop-color="#fff"/><stop offset="0.5" stop-color="#fff"/></linearGradient></defs><title>sky</title><rect class="cls-1" x="77.5" y="111.65" width="245.34" height="98.77" rx="12"/><circle class="cls-1" cx="106.18" cy="111.65" r="52.57"/><circle class="cls-1" cx="173.09" cy="90.94" r="52.57"/><circle class="cls-1" cx="338.77" cy="133.96" r="52.57"/><path class="cls-1" d="M338.77,210.43l-52.57.35v-.35a52.57,52.57,0,1,1,105.14,0Z"/><path class="cls-1" d="M61.57,209.63,9,210.06v-.43c0-35.39,23.73-64.52,52.57-64.52s52.57,29.13,52.57,64.52Z"/><circle class="cls-1" cx="275.05" cy="75.01" r="66.91"/><g class="cls-2"><rect class="cls-3" x="274.85" y="165.02" width="153.34" height="63.06" rx="12"/><ellipse class="cls-3" cx="292.77" cy="165.02" rx="32.86" ry="33.56"/><ellipse class="cls-3" cx="334.59" cy="151.8" rx="32.86" ry="33.56"/><ellipse class="cls-3" cx="438.14" cy="179.26" rx="32.86" ry="33.56"/><path class="cls-3" d="M438.14,228.08l-32.85.22a1.62,1.62,0,0,1,0-.22c0-18.41,14.84-33.57,32.86-33.57S471,209.67,471,228.08Z"/><path class="cls-3" d="M264.89,227.57l-32.85.27a2.44,2.44,0,0,1,0-.27c0-22.6,14.84-41.19,32.86-41.19s32.86,18.59,32.86,41.19Z"/><ellipse class="cls-3" cx="398.31" cy="141.63" rx="41.82" ry="42.72"/></g><circle class="cls-4" cx="257.18" cy="121.25" r="28.6"/><path d="M261.7,135.75a15.07,15.07,0,0,1-7.36,1.65c-6.77,0-12.51-5-12.51-12.89,0-8.51,5.91-15.86,15.08-15.86,7.18,0,12,5,12,11.94,0,6.19-3.47,9.83-7.36,9.83-1.65,0-3.18-1.12-3.05-3.64h-.17c-1.44,2.44-3.35,3.64-5.82,3.64s-4.46-1.94-4.46-5.21a9.75,9.75,0,0,1,9.79-9.79,11,11,0,0,1,4.42.87l-1.41,7.48c-.62,3.14-.12,4.58,1.24,4.62,2.11.05,4.46-2.76,4.46-7.55,0-6-3.59-10.29-10-10.29-6.74,0-12.4,5.33-12.4,13.71,0,6.9,4.51,11.16,10.62,11.16A12.93,12.93,0,0,0,261,134Zm-2.28-17.85a7.21,7.21,0,0,0-2.06-.29c-3.64,0-6.57,3.43-6.57,7.44,0,1.82.91,3.14,2.73,3.14,2.39,0,4.58-3.06,5-5.62Z"/></svg>