<svg id="Layer_1" data-name="Layer 1" xmlns="http://www.w3.org/2000/svg" xmlns:xlink="http://www.w3.org/1999/xlink" width="355" height="282" viewBox="0 0 355 282"><defs><style>.cls-1{fill:url(#linear-gradient);}.cls-2{fill:url(#linear-gradient-2);}.cls-3{fill:url(#linear-gradient-3);}.cls-4{fill:url(#linear-gradient-4);}.cls-5{fill:url(#linear-gradient-5);}.cls-6{fill:#fbf327;}.cls-7{fill:#fff;}.cls-8{fill:url(#linear-gradient-6);}.cls-9{fill:url(#linear-gradient-7);}.cls-10{fill:url(#linear-gradient-8);}.cls-11{fill:url(#linear-gradient-9);}.cls-12{fill:url(#linear-gradient-10);}</style><linearGradient id="linear-gradient" x1="-60.19" y1="-374.82" x2="-59.18" y2="-375.06" gradientTransform="matrix(0.98, -0.21, -0.22, -1.01, -6.68, -193.55)" gradientUnits="userSpaceOnUse"><stop offset="0" stop-color="#ffb580"/><stop offset="0.3" stop-color="#ffb47c"/><stop offset="0.57" stop-color="#ffb071"/><stop offset="0.82" stop-color="#ffab5f"/><stop offset="1" stop-color="#ffa54e"/></linearGradient><linearGradient id="linear-gradient-2" x1="-60.97" y1="-374.66" x2="-59.96" y2="-374.9" xlink:href="#linear-gradient"/><linearGradient id="linear-gradient-3" x1="-61.92" y1="-375.25" x2="-60.91" y2="-375.49" xlink:href="#linear-gradient"/><linearGradient id="linear-gradient-4" x1="-69.24" y1="-344.49" x2="-68.24" y2="-344.73" gradientTransform="matrix(0.97, -0.26, -0.26, -1, -6.03, -164.38)" xlink:href="#linear-gradient"/><linearGradient id="linear-gradient-5" x1="27.67" y1="-1321.62" x2="28.74" y2="-1321.87" gradientTransform="matrix(0.82, 0.57, 0.59, -0.85, 773.35, -939.54)" xlink:href="#linear-gradient"/><linearGradient id="linear-gradient-6" x1="132.86" y1="-426.55" x2="133.87" y2="-426.79" xlink:href="#linear-gradient"/><linearGradient id="linear-gradient-7" x1="132.09" y1="-426.38" x2="133.09" y2="-426.62" xlink:href="#linear-gradient"/><linearGradient id="linear-gradient-8" x1="131.14" y1="-426.97" x2="132.14" y2="-427.21" xlink:href="#linear-gradient"/><linearGradient id="linear-gradient-9" x1="121.3" y1="-404.33" x2="122.3" y2="-404.57" gradientTransform="matrix(0.97, -0.26, -0.26, -1, -6.03, -164.38)" xlink:href="#linear-gradient"/><linearGradient id="linear-gradient-10" x1="198.3" y1="-1220" x2="199.37" y2="-1220.26" gradientTransform="matrix(0.82, 0.57, 0.59, -0.85, 773.35, -939.54)" xlink:href="#linear-gradient"/></defs><title>snapchat</title><path class="cls-1" d="M17.24,195.85h0a.25.25,0,0,0-.18.3l.53,2.51a.23.23,0,0,0,.28.19h0a.25.25,0,0,0,.18-.3L17.52,196A.23.23,0,0,0,17.24,195.85Z"/><path class="cls-2" d="M16.44,195.85h0a.25.25,0,0,0-.18.3l.53,2.51a.24.24,0,0,0,.28.19h0a.25.25,0,0,0,.18-.3L16.73,196A.25.25,0,0,0,16.44,195.85Z"/><path class="cls-3" d="M15.65,196.65h0a.25.25,0,0,0-.18.3l.52,2.5a.24.24,0,0,0,.28.19h0a.26.26,0,0,0,.19-.29l-.53-2.51A.24.24,0,0,0,15.65,196.65Z"/><path class="cls-4" d="M18.11,195.66h0a.25.25,0,0,0-.17.3l.63,2.48a.23.23,0,0,0,.29.18h0a.25.25,0,0,0,.17-.3l-.63-2.49A.24.24,0,0,0,18.11,195.66Z"/><path class="cls-5" d="M19.94,196.67h0a.23.23,0,0,0-.33.07l-1.4,2.11a.24.24,0,0,0,.06.34h0a.23.23,0,0,0,.33-.06L20,197A.25.25,0,0,0,19.94,196.67Z"/><path class="cls-6" d="M240.32,11H112.53A60.84,60.84,0,0,0,51.87,71.66V209.85a60.84,60.84,0,0,0,60.66,60.66H240.32A60.85,60.85,0,0,0,301,209.85V71.66A60.85,60.85,0,0,0,240.32,11Z"/><path class="cls-7" d="M263.65,187.53c-12.21-5.27-18.91-18.33-24.66-30.42-1.87-4-3.57-9.11-.58-12.31a10.87,10.87,0,0,1,4.77-2.53l10.59-3.59c5.23-1.74,11.6-5.25,10.71-10.69-.64-4-5.23-6.23-9.24-6s-7.74,2.07-11.56,3.36a9.72,9.72,0,0,1-5.09.6,7.84,7.84,0,0,1-5.48-6.23,25.52,25.52,0,0,1,0-8.63,86,86,0,0,0-2.43-33.76A50.43,50.43,0,0,0,211.4,50c-14-9.32-32.49-9.28-48.44-4.15A84.7,84.7,0,0,0,143.61,55c-6.77,4.36-13.16,10-15.92,17.59a47.79,47.79,0,0,0-2.08,15.67l-.56,35.07-2.12,2.84a35.25,35.25,0,0,0-20.76-2.55h-.39a3.17,3.17,0,0,1-2.08.75h-.2a4.67,4.67,0,0,0-1.23.83,5.55,5.55,0,0,0,.25,7.22,16,16,0,0,0,6.71,4.15l15.57,6.23a5.16,5.16,0,0,1,2.74,1.93,4.71,4.71,0,0,1,.18,3c-2.07,11.94-9.73,22.34-19,30.08S84.38,191,73.54,196.39c2.81,5,9.43,6.05,15.06,7.25a30.14,30.14,0,0,1,13.37,6,14.55,14.55,0,0,1,5.44,13.06,32.63,32.63,0,0,1,26-5.13c17.29,4,30.89,22,48.52,19.8,11.31-1.39,19.86-10.92,30.64-14.69,9.92-3.51,20.88-1.83,31.14.43a7,7,0,0,0,5.61-.31c1.66-1.16,2-3.45,2.47-5.42,1.72-6.66,7.33-11.77,13.59-14.53a68.84,68.84,0,0,1,20.06-4.59C281.07,191.2,271.25,190.79,263.65,187.53Z"/><path d="M265.23,184.85c-9.07-4.48-14.68-12.14-19.33-20.91a34.14,34.14,0,0,1-2.82-5.6c-.94-3.2-1.64-10.07,1-13.08,2.29-2.57,10.38-3.24,13.64-4.75,8.31-3.87,15.18-14.77,4-20.35-5.63-2.8-10.38,0-15.9,1.14-14.54,3-8.54-18.81-9.06-27.24-1-16.23-6.72-32.69-19.41-43.59-23.75-20.22-65-11.42-85.32,9.94-12.11,12.75-9.43,31.14-9.68,47.36,0,2.92,1.56,12.24,0,14.11s-5.56-1.12-8.8-1.57c-4.48-.63-11.4-1.13-15.59,1.43a8,8,0,0,0-3.34,9.94c2.45,6.69,11.77,8.7,17.58,11,9.61,3.88,8.12,9.51,3.74,17.27A54,54,0,0,1,105,173.49c-9.64,8.75-21.49,14.54-33,20.27a3.11,3.11,0,0,0-1.13,4.15c8.64,11.19,34.22,6.23,33.47,24.56a3.13,3.13,0,0,0,3.18,3.09,3.19,3.19,0,0,0,1.51-.41c20.47-12.87,35.3,1.7,53.07,10.63,11.85,6,22.69,5.77,34.21-.79,8.66-4.92,16.07-10.67,26.45-11.36,8.3-.56,16.86,3.8,24.71,2.7,5.25-.73,5.71-4.15,7.35-8.3,5-13,18.37-15.32,30.64-16.9a3.18,3.18,0,0,0,3-3.32,3.23,3.23,0,0,0-.83-2c-5.81-7.35-14.93-8.3-23.21-11.48-3.76-1.41-5.38,4.59-1.66,6,7.14,2.72,15.46,3.53,20.47,9.86l2.2-5.31c-16.24,2.08-28,5.48-36.17,20.1-1.41,2.51,0,2.69-2.86,4.15s-6-.15-8.83-.63a74.42,74.42,0,0,0-11.35-1.18,45,45,0,0,0-23.69,6.52c-9.22,5.34-17.83,12.33-29.21,9.65-8.41-2-15.55-7.59-22.84-11.93-14.53-8.6-29.64-11.21-44.57-1.81l4.67,2.7a18.69,18.69,0,0,0-8.16-16.61c-7.47-5.4-20.57-3.86-26.16-11.09L75.12,199c20.35-10.09,45.18-23.09,50.95-47.29,1.93-8.18-.33-10.38-7.52-13.23-4.29-1.74-20.36-7-18-11.17,2.66-4.67,18.19.42,21.51,1.73a3,3,0,0,0,3-.79c2.91-3.64,3.12-4.15,3.24-8.93.21-9.09.27-18.19.44-27.26.16-10.17.27-19.53,7.6-27.36,6.22-6.73,15.57-11.63,24.06-14.85,15.69-5.93,34.92-7.24,49.41,2.56,15.9,10.75,21.13,30.83,20.76,49-.15,8-4.55,24.44,7.18,27.28,5.73,1.4,10.11-4,15.35-3.55,18.43,1.81.89,9.87-1.94,10.88a99.67,99.67,0,0,0-11.39,4c-9,4.77-5.71,13.76-2.08,21.24C243.33,173,250.18,184.1,262.09,190,265.66,192,268.82,186.62,265.23,184.85Z"/><path class="cls-8" d="M217.24,206.85h0a.25.25,0,0,0-.18.3l.53,2.51a.23.23,0,0,0,.28.19h0a.25.25,0,0,0,.18-.3l-.53-2.51A.23.23,0,0,0,217.24,206.85Z"/><path class="cls-9" d="M216.44,206.85h0a.25.25,0,0,0-.18.3l.53,2.51a.24.24,0,0,0,.28.19h0a.25.25,0,0,0,.18-.3l-.52-2.51A.25.25,0,0,0,216.44,206.85Z"/><path class="cls-10" d="M215.65,207.65h0a.25.25,0,0,0-.18.3l.52,2.5a.24.24,0,0,0,.28.19h0a.26.26,0,0,0,.19-.29l-.53-2.51A.24.24,0,0,0,215.65,207.65Z"/><path class="cls-11" d="M218.11,206.66h0a.25.25,0,0,0-.17.3l.63,2.48a.23.23,0,0,0,.29.18h0a.25.25,0,0,0,.17-.3l-.63-2.49A.24.24,0,0,0,218.11,206.66Z"/><path class="cls-12" d="M219.94,207.67h0a.23.23,0,0,0-.33.07l-1.4,2.11a.24.24,0,0,0,.06.34h0a.23.23,0,0,0,.33-.06L220,208A.25.25,0,0,0,219.94,207.67Z"/></svg>