<svg id="Layer_1" data-name="Layer 1" xmlns="http://www.w3.org/2000/svg" width="903" height="1080" viewBox="0 0 903 1080"><defs><style>.cls-1{fill:#8caa3f;}.cls-2{fill:#8cc63f;}.cls-3{fill:#754c24;}.cls-4{fill:#a67c52;}</style></defs><title>Artboard 1</title><ellipse class="cls-1" cx="475.5" cy="407.5" rx="221.5" ry="213.5"/><circle class="cls-2" cx="442.5" cy="415.5" r="221.5"/><ellipse class="cls-1" cx="277.5" cy="586.5" rx="128.5" ry="125.5"/><ellipse class="cls-1" cx="595" cy="573.5" rx="166" ry="141.5"/><ellipse class="cls-2" cx="254.5" cy="586.5" rx="129.5" ry="125.5"/><path class="cls-3" d="M431.9,757.66l-5.09,3.66a2.28,2.28,0,0,1-3.16-.52L292.87,578.5a3,3,0,0,1,.7-4.23l4.47-3.21a3,3,0,0,1,4.23.7L432.6,753.43A3,3,0,0,1,431.9,757.66Z"/><ellipse class="cls-2" cx="576.5" cy="555.5" rx="147.5" ry="135.5"/><rect class="cls-4" x="406" y="415" width="46" height="577"/><rect class="cls-3" x="442" y="415" width="17" height="577"/><rect class="cls-4" x="385.68" y="526.78" width="231.64" height="19.44" transform="translate(-227.87 622.24) rotate(-53.64)"/><rect class="cls-4" x="385.68" y="526.78" width="231.64" height="19.44" transform="translate(-227.87 622.24) rotate(-53.64)"/><path class="cls-3" d="M447.87,638.06l-5.05-3.72a2.27,2.27,0,0,1-.48-3.16l133-180.67a3,3,0,0,1,4.23-.64l4.44,3.27a3,3,0,0,1,.64,4.23l-132.57,180A3,3,0,0,1,447.87,638.06Z"/><rect class="cls-4" x="343.78" y="556.68" width="19.44" height="231.64" transform="translate(-325.73 332.11) rotate(-35.65)"/></svg>