<svg id="Layer_1" data-name="Layer 1" xmlns="http://www.w3.org/2000/svg" width="934.98" height="120.34" viewBox="0 0 934.98 120.34"><defs><style>.cls-1{fill:#fff;stroke:#000;stroke-miterlimit:10;}.cls-2{fill:#1f1100;}.cls-3{fill:#006837;}.cls-4{fill:#8cc63f;}.cls-5{fill:none;}</style></defs><title>wind</title><path class="cls-1" d="M6.66,33.14S59.76,123,142.57,114s81-42.27,82.87-53.92c3-19-29.83-47.94-49.72-47.94s-56.36,12-59.67,30,31.25,21,36.46,21,22.11,4.42,45.8,0c8.93-1.66,9-24-13.53-30s-27.05,6-27.05,6"/><path class="cls-1" d="M472.82,93.53s53.24-89.8,136-80.69,80.95,42.4,82.79,54.05c3,19-29.9,47.89-49.79,47.86s-56.34-12.06-59.63-30,31.28-20.93,36.5-20.92,22.11-4.39,45.8.06c8.93,1.68,9,24-13.57,29.94s-27.05-6-27.05-6"/><polygon class="cls-2" points="138.21 96.72 132.66 98.67 133.23 100.69 138.78 98.74 138.21 96.72"/><polygon class="cls-3" points="147.24 99.23 143.56 93.2 139.89 87.17 148.58 85.03 157.28 82.9 152.26 91.06 147.24 99.23"/><path class="cls-3" d="M144,92.87,147.61,99c-4,2.91-8.8,2.62-10.8-.64s-.44-8.49,3.53-11.49Z"/><polygon class="cls-4" points="137.65 98.1 137.17 97.32 152.08 86.03 152.56 86.81 137.65 98.1"/><polygon class="cls-4" points="145.86 86.29 146.71 86.28 146.78 91.72 145.93 91.73 145.86 86.29"/><polygon class="cls-4" points="142.45 88.87 143.3 88.86 143.37 94.3 142.52 94.31 142.45 88.87"/><polygon class="cls-4" points="138.65 90.82 139.5 90.81 139.58 96.25 138.73 96.27 138.65 90.82"/><polygon class="cls-4" points="150.37 93.63 150.69 92.75 146.15 90.69 145.82 91.56 150.37 93.63"/><polygon class="cls-4" points="146.96 96.21 147.28 95.33 142.74 93.27 142.42 94.14 146.96 96.21"/><polygon class="cls-4" points="143.55 98.79 143.87 97.91 139.33 95.85 139.01 96.72 143.55 98.79"/><polygon class="cls-2" points="211.91 17.34 208.39 15.22 207.77 16.49 211.29 18.62 211.91 17.34"/><polygon class="cls-3" points="215.11 23.51 216.05 18.61 216.99 13.7 222.09 17.47 227.2 21.23 221.15 22.37 215.11 23.51"/><path class="cls-3" d="M216.42,18.71l-1,4.88c-3.19-.78-5.38-3.59-4.88-6.25s3.59-4.29,6.82-3.54Z"/><polygon class="cls-4" points="211.03 17.69 211.15 17.06 223.31 19.87 223.19 20.51 211.03 17.69"/><polygon class="cls-4" points="220.23 16.57 220.64 17.03 218.24 19.67 217.83 19.21 220.23 16.57"/><polygon class="cls-4" points="217.45 15.93 217.86 16.39 215.46 19.03 215.05 18.57 217.45 15.93"/><polygon class="cls-4" points="214.76 14.77 215.18 15.23 212.78 17.87 212.37 17.41 214.76 14.77"/><polygon class="cls-4" points="219.1 22.55 219.65 22.31 218.4 18.83 217.85 19.07 219.1 22.55"/><polygon class="cls-4" points="216.32 21.91 216.87 21.67 215.62 18.18 215.07 18.43 216.32 21.91"/><polygon class="cls-4" points="213.54 21.27 214.09 21.03 212.84 17.54 212.29 17.78 213.54 21.27"/><polygon class="cls-2" points="214.59 104.97 218.59 105.27 218.68 103.82 214.68 103.51 214.59 104.97"/><polygon class="cls-3" points="209.37 100.84 210.36 105.73 211.35 110.62 205.29 109.56 199.24 108.51 204.3 104.67 209.37 100.84"/><path class="cls-3" d="M210,105.81l-.91-4.91c3.2-.76,6.24.77,6.78,3.42s-1.64,5.56-4.86,6.38Z"/><polygon class="cls-4" points="215.26 104.24 215.39 104.87 203.28 107.94 203.15 107.31 215.26 104.24"/><polygon class="cls-4" points="207.32 109.52 206.78 109.29 207.96 105.78 208.51 106.01 207.32 109.52"/><polygon class="cls-4" points="210.09 108.82 209.54 108.59 210.73 105.08 211.28 105.31 210.09 108.82"/><polygon class="cls-4" points="212.97 108.63 212.42 108.4 213.6 104.89 214.15 105.11 212.97 108.63"/><polygon class="cls-4" points="206.1 103.56 205.69 104.03 208.13 106.62 208.54 106.15 206.1 103.56"/><polygon class="cls-4" points="208.87 102.86 208.46 103.33 210.9 105.92 211.31 105.45 208.87 102.86"/><polygon class="cls-4" points="211.63 102.15 211.23 102.62 213.67 105.21 214.08 104.74 211.63 102.15"/><polygon class="cls-2" points="135.62 46.54 132.1 44.41 131.47 45.69 134.99 47.82 135.62 46.54"/><polygon class="cls-3" points="138.82 52.71 139.75 47.8 140.69 42.9 145.8 46.66 150.91 50.43 144.86 51.57 138.82 52.71"/><path class="cls-3" d="M140.13,47.9l-1,4.89c-3.18-.79-5.37-3.59-4.87-6.25s3.59-4.29,6.82-3.54Z"/><polygon class="cls-4" points="134.74 46.89 134.86 46.25 147.02 49.07 146.9 49.71 134.74 46.89"/><polygon class="cls-4" points="143.94 45.77 144.35 46.23 141.95 48.87 141.54 48.41 143.94 45.77"/><polygon class="cls-4" points="141.16 45.12 141.57 45.58 139.17 48.22 138.76 47.76 141.16 45.12"/><polygon class="cls-4" points="138.47 43.96 138.88 44.43 136.49 47.07 136.07 46.6 138.47 43.96"/><polygon class="cls-4" points="142.81 51.75 143.35 51.51 142.11 48.02 141.56 48.27 142.81 51.75"/><polygon class="cls-4" points="140.03 51.11 140.57 50.87 139.33 47.38 138.78 47.62 140.03 51.11"/><polygon class="cls-4" points="137.25 50.46 137.79 50.22 136.55 46.74 136 46.98 137.25 50.46"/><rect class="cls-5" x="4.02" y="4.87" width="226.24" height="110.95"/><rect class="cls-5" x="-0.5" y="2.65" width="230.77" height="115.38"/><polygon class="cls-2" points="335.81 100.27 330.71 97.26 329.51 99.06 334.61 102.07 335.81 100.27"/><polygon class="cls-3" points="339.7 108.98 342.01 102.07 344.33 95.15 351.61 100.48 358.89 105.81 349.3 107.4 339.7 108.98"/><path class="cls-3" d="M342.58,102.21l-2.45,6.89c-4.82-1.12-7.72-5.08-6.48-8.83s6.32-6,11.22-5Z"/><polygon class="cls-4" points="334.38 100.76 334.67 99.86 353.09 103.88 352.79 104.78 334.38 100.76"/><polygon class="cls-4" points="348.87 99.21 349.43 99.86 345.24 103.58 344.68 102.92 348.87 99.21"/><polygon class="cls-4" points="344.66 98.29 345.22 98.94 341.03 102.66 340.47 102.01 344.66 98.29"/><polygon class="cls-4" points="340.69 96.65 341.25 97.3 337.06 101.02 336.5 100.36 340.69 96.65"/><polygon class="cls-4" points="346.08 107.65 346.96 107.31 345.63 102.39 344.75 102.73 346.08 107.65"/><polygon class="cls-4" points="341.87 106.73 342.75 106.39 341.43 101.47 340.54 101.81 341.87 106.73"/><polygon class="cls-4" points="337.66 105.81 338.55 105.48 337.21 100.56 336.33 100.89 337.66 105.81"/><polygon class="cls-2" points="399.39 18.56 395.18 18.55 395.32 20.02 399.54 20.03 399.39 18.56"/><polygon class="cls-3" points="405.52 22.33 403.68 17.48 401.83 12.63 408.31 13.25 414.8 13.88 410.16 18.1 405.52 22.33"/><path class="cls-3" d="M404.05,17.37l1.77,4.88c-3.2,1-6.63-.32-7.64-2.95s.79-5.71,4-6.77Z"/><polygon class="cls-4" points="398.82 19.34 398.57 18.72 410.68 14.74 410.93 15.37 398.82 19.34"/><polygon class="cls-4" points="406.2 13.45 406.81 13.64 406.16 17.26 405.55 17.07 406.2 13.45"/><polygon class="cls-4" points="403.44 14.36 404.05 14.55 403.39 18.17 402.79 17.98 403.44 14.36"/><polygon class="cls-4" points="400.47 14.76 401.08 14.95 400.43 18.57 399.82 18.38 400.47 14.76"/><polygon class="cls-4" points="408.48 19.36 408.82 18.85 405.84 16.43 405.5 16.93 408.48 19.36"/><polygon class="cls-4" points="405.71 20.27 406.05 19.76 403.07 17.34 402.73 17.84 405.71 20.27"/><polygon class="cls-4" points="402.94 21.18 403.28 20.67 400.31 18.25 399.96 18.75 402.94 21.18"/><polygon class="cls-2" points="428.81 84.62 431.31 81.39 430.1 80.48 427.6 83.72 428.81 84.62"/><polygon class="cls-3" points="422.3 86.72 427.11 88.67 431.91 90.61 427.6 95.17 423.29 99.74 422.8 93.23 422.3 86.72"/><path class="cls-3" d="M427,89l-4.77-2c1.12-3.15,4.16-4.87,6.77-3.82s3.91,4.57,2.82,7.79Z"/><polygon class="cls-4" points="428.55 83.64 429.18 83.89 425.07 95.97 424.44 95.72 428.55 83.64"/><polygon class="cls-4" points="428.7 93.42 428.19 93.75 425.81 90.74 426.31 90.4 428.7 93.42"/><polygon class="cls-4" points="429.64 90.65 429.13 90.99 426.75 87.98 427.25 87.64 429.64 90.65"/><polygon class="cls-4" points="431.08 88.09 430.58 88.43 428.19 85.42 428.69 85.08 431.08 88.09"/><polygon class="cls-4" points="422.83 91.06 423.01 91.67 426.63 91.07 426.45 90.46 422.83 91.06"/><polygon class="cls-4" points="423.77 88.3 423.95 88.91 427.57 88.31 427.39 87.69 423.77 88.3"/><polygon class="cls-4" points="424.71 85.54 424.89 86.15 428.51 85.55 428.33 84.93 424.71 85.54"/><polygon class="cls-2" points="371.01 45.99 367.49 43.77 366.86 45.1 370.38 47.32 371.01 45.99"/><polygon class="cls-3" points="374.2 52.4 375.14 47.3 376.08 42.2 381.19 46.12 386.29 50.03 380.25 51.22 374.2 52.4"/><path class="cls-3" d="M375.51,47.41l-1,5.08c-3.19-.82-5.37-3.74-4.87-6.5s3.58-4.47,6.82-3.69Z"/><polygon class="cls-4" points="370.12 46.35 370.24 45.69 382.41 48.62 382.29 49.28 370.12 46.35"/><polygon class="cls-4" points="379.32 45.18 379.73 45.66 377.33 48.41 376.92 47.93 379.32 45.18"/><polygon class="cls-4" points="376.54 44.51 376.95 44.99 374.56 47.74 374.14 47.26 376.54 44.51"/><polygon class="cls-4" points="373.86 43.31 374.27 43.79 371.87 46.53 371.46 46.05 373.86 43.31"/><polygon class="cls-4" points="378.19 51.41 378.74 51.16 377.49 47.53 376.95 47.78 378.19 51.41"/><polygon class="cls-4" points="375.42 50.74 375.96 50.49 374.71 46.86 374.17 47.11 375.42 50.74"/><polygon class="cls-4" points="372.63 50.07 373.18 49.82 371.93 46.19 371.39 46.44 372.63 50.07"/><rect class="cls-5" x="234.88" y="2.65" width="226.24" height="115.38"/><rect class="cls-5" x="234.88" y="0.34" width="230.77" height="120"/><path class="cls-1" d="M268.82,53.42c23.67-1.59,49.22-3.22,58.82-4.61,14.22-2.54,27.77-5.72,36.2-13.85,6.34-3,10-8.63,9.05-18.46-4.66-7.87-14.49-4.37-22.62-4.62-7.94,3.27-25.19-1.33-13.58,18.46,5.52,2.26,10.44,3.15,13.58,0,11.35-3.41,14.32-6.41,13.57-9.23-6.61-2.61-12.67-2.73-18.1,0"/><path class="cls-1" d="M275.61,71.88h85.06a5.81,5.81,0,0,1,1.6.21c3.08.84,16.42,3.81,40-.21C429.45,67.27,434,58,434,58s18.1-13.85,9-23.08-10-7.12-20.36-9.23c-6.9-2.58-15.08,4.12-20.36,9.23-3.66,4.49-3.46,9.11,0,13.85l6.78,4.61c4.59,2.75,13.66,3.5,18.1,0,4,.59,9.28-2.44,9.05-9.23-.07-2-7.41-8.07-9.05-9.23-2.94-2.09-6.89-.47-11.31,0a9.82,9.82,0,0,0-2.59,1.78c-2.81,2.79-1.89,7.77,1.48,9.81l.63.36a6.17,6.17,0,0,0,8.83-3.33,15.17,15.17,0,0,0,.7-4"/><path class="cls-1" d="M284.66,85.73H387.81c7.56,1.45,13.85,3.49,15.28,7.79,1.26,7.17.47,12.74-3.82,15.59-5.11,1.93-10.21,2.46-15.28,0-3.1-2-5.51-4.18-3.82-7.79,2.17-4.29,4.55-7.63,7.64-7.8q7.65,2.57,7.64,7.8"/><polygon class="cls-2" points="801.96 98.73 796.86 95.84 795.66 97.57 800.76 100.47 801.96 98.73"/><polygon class="cls-3" points="805.85 107.11 808.17 100.46 810.48 93.81 817.76 98.94 825.05 104.07 815.45 105.59 805.85 107.11"/><path class="cls-3" d="M808.73,100.6l-2.44,6.63c-4.82-1.08-7.73-4.89-6.49-8.5S806.12,92.92,811,94Z"/><polygon class="cls-4" points="800.53 99.21 800.83 98.34 819.25 102.2 818.95 103.07 800.53 99.21"/><polygon class="cls-4" points="815.02 97.71 815.58 98.34 811.39 101.92 810.83 101.29 815.02 97.71"/><polygon class="cls-4" points="810.81 96.83 811.37 97.46 807.19 101.03 806.62 100.41 810.81 96.83"/><polygon class="cls-4" points="806.84 95.25 807.4 95.88 803.22 99.45 802.65 98.83 806.84 95.25"/><polygon class="cls-4" points="812.23 105.83 813.12 105.5 811.79 100.77 810.9 101.1 812.23 105.83"/><polygon class="cls-4" points="808.02 104.95 808.91 104.62 807.58 99.89 806.69 100.22 808.02 104.95"/><polygon class="cls-4" points="803.81 104.06 804.7 103.74 803.37 99.01 802.48 99.33 803.81 104.06"/><polygon class="cls-2" points="865.55 20.17 861.33 20.16 861.48 21.57 865.7 21.58 865.55 20.17"/><polygon class="cls-3" points="871.67 23.8 869.83 19.13 867.98 14.47 874.47 15.06 880.96 15.66 876.32 19.73 871.67 23.8"/><path class="cls-3" d="M870.21,19,872,23.72c-3.2,1-6.62-.31-7.63-2.84s.78-5.49,4-6.51Z"/><polygon class="cls-4" points="864.97 20.92 864.73 20.32 876.84 16.49 877.08 17.09 864.97 20.92"/><polygon class="cls-4" points="872.36 15.25 872.97 15.44 872.32 18.92 871.71 18.73 872.36 15.25"/><polygon class="cls-4" points="869.59 16.13 870.2 16.31 869.55 19.79 868.94 19.61 869.59 16.13"/><polygon class="cls-4" points="866.63 16.51 867.24 16.7 866.59 20.18 865.98 20 866.63 16.51"/><polygon class="cls-4" points="874.63 20.93 874.97 20.45 872 18.12 871.65 18.6 874.63 20.93"/><polygon class="cls-4" points="871.86 21.81 872.21 21.32 869.23 18.99 868.88 19.48 871.86 21.81"/><polygon class="cls-4" points="869.09 22.68 869.44 22.2 866.46 19.86 866.12 20.35 869.09 22.68"/><polygon class="cls-2" points="837.16 46.54 833.64 44.41 833.01 45.69 836.53 47.82 837.16 46.54"/><polygon class="cls-3" points="840.36 52.71 841.29 47.8 842.23 42.9 847.34 46.66 852.45 50.43 846.4 51.57 840.36 52.71"/><path class="cls-3" d="M841.67,47.9l-1,4.89c-3.19-.79-5.37-3.59-4.87-6.25s3.58-4.29,6.82-3.54Z"/><polygon class="cls-4" points="836.28 46.89 836.4 46.25 848.56 49.07 848.44 49.71 836.28 46.89"/><polygon class="cls-4" points="845.47 45.77 845.89 46.23 843.49 48.87 843.08 48.41 845.47 45.77"/><polygon class="cls-4" points="842.69 45.12 843.11 45.58 840.71 48.22 840.3 47.76 842.69 45.12"/><polygon class="cls-4" points="840.01 43.96 840.42 44.43 838.02 47.07 837.61 46.6 840.01 43.96"/><polygon class="cls-4" points="844.35 51.75 844.89 51.51 843.65 48.02 843.1 48.27 844.35 51.75"/><polygon class="cls-4" points="841.57 51.11 842.11 50.87 840.87 47.38 840.32 47.62 841.57 51.11"/><polygon class="cls-4" points="838.79 50.46 839.33 50.22 838.09 46.74 837.54 46.98 838.79 50.46"/><rect class="cls-5" x="701.04" y="4.87" width="226.24" height="110.95"/><rect class="cls-5" x="701.04" y="2.65" width="230.77" height="115.38"/><path class="cls-1" d="M735,53.69c23.67-1.54,49.21-3.1,58.82-4.44,14.22-2.44,27.76-5.5,36.2-13.31,6.33-2.93,10-8.3,9-17.76-4.66-7.56-14.5-4.19-22.63-4.43-7.93,3.14-25.18-1.28-13.57,17.75,5.52,2.16,10.44,3,13.57,0,11.35-3.29,14.32-6.17,13.58-8.88-6.62-2.51-12.68-2.63-18.1,0"/><path class="cls-1" d="M741.76,71.44h85.06a6.69,6.69,0,0,1,1.61.19c3.07.81,16.41,3.67,40-.19,27.15-4.44,31.67-13.31,31.67-13.31s18.1-13.32,9-22.19-10-6.85-20.36-8.88c-6.9-2.48-15.08,4-20.36,8.88-3.65,4.31-3.46,8.75,0,13.31l6.79,4.44c4.58,2.64,13.65,3.36,18.1,0,4,.56,9.28-2.35,9-8.88-.07-2-7.42-7.76-9-8.87-2.94-2-6.9-.46-11.32,0a9.63,9.63,0,0,0-2.59,1.71c-2.8,2.68-1.89,7.47,1.49,9.43l.62.35a6.27,6.27,0,0,0,8.83-3.2,13.39,13.39,0,0,0,.7-3.86"/><path class="cls-1" d="M750.81,84.75H854c7.55,1.39,13.84,3.36,15.28,7.5,1.25,6.88.46,12.24-3.82,15-5.11,1.86-10.21,2.37-15.28,0-3.11-1.89-5.52-4-3.82-7.49,2.17-4.12,4.55-7.34,7.64-7.49q7.63,2.46,7.64,7.49"/><polygon class="cls-2" points="543.99 62.1 538.02 61.39 537.61 63.52 543.58 64.23 543.99 62.1"/><polygon class="cls-3" points="551.08 68.53 550.52 61.25 549.95 53.96 558.88 55.92 567.81 57.89 559.45 63.21 551.08 68.53"/><path class="cls-3" d="M551.1,61.15l.43,7.32c-4.95.91-9.25-1.56-9.57-5.51s3.54-8.1,8.55-9.09Z"/><polygon class="cls-4" points="542.84 63.13 542.77 62.18 561.61 58.45 561.69 59.39 542.84 63.13"/><polygon class="cls-4" points="555.81 55.86 556.59 56.23 554.14 61.33 553.35 60.96 555.81 55.86"/><polygon class="cls-4" points="551.5 56.71 552.28 57.08 549.83 62.19 549.04 61.81 551.5 56.71"/><polygon class="cls-4" points="547.13 56.8 547.92 57.17 545.46 62.28 544.68 61.91 547.13 56.8"/><polygon class="cls-4" points="556.53 64.74 557.23 64.07 554.04 60.08 553.34 60.75 556.53 64.74"/><polygon class="cls-4" points="552.22 65.59 552.92 64.92 549.73 60.94 549.03 61.61 552.22 65.59"/><polygon class="cls-4" points="547.91 66.44 548.61 65.78 545.42 61.79 544.72 62.46 547.91 66.44"/><polygon class="cls-2" points="686.85 24.26 688.73 28.03 689.97 27.24 688.09 23.46 686.85 24.26"/><polygon class="cls-3" points="687.46 17.09 683.95 20.92 680.45 24.75 678.09 18.67 675.73 12.6 681.59 14.84 687.46 17.09"/><path class="cls-3" d="M683.69,20.63l3.56-3.77c2.33,2.41,2.69,6.06.8,8.14s-5.46,1.87-7.85-.53Z"/><polygon class="cls-4" points="687.8 24.42 687.35 24.92 678.35 15.89 678.8 15.39 687.8 24.42"/><polygon class="cls-4" points="679.21 20.47 679.11 19.84 682.64 18.8 682.74 19.43 679.21 20.47"/><polygon class="cls-4" points="681.27 22.53 681.17 21.9 684.69 20.86 684.8 21.49 681.27 22.53"/><polygon class="cls-4" points="682.96 25 682.86 24.37 686.38 23.32 686.49 23.95 682.96 25"/><polygon class="cls-4" points="683.47 15.79 682.87 15.7 682.04 19.45 682.64 19.54 683.47 15.79"/><polygon class="cls-4" points="685.53 17.85 684.92 17.77 684.09 21.52 684.7 21.6 685.53 17.85"/><polygon class="cls-4" points="687.58 19.91 686.98 19.83 686.15 23.58 686.75 23.66 687.58 19.91"/><polygon class="cls-2" points="636.88 72.34 636.12 68.32 634.64 68.63 635.4 72.64 636.88 72.34"/><polygon class="cls-3" points="634.13 78.6 638.78 76.3 643.43 73.99 643.98 80.24 644.53 86.49 639.33 82.55 634.13 78.6"/><path class="cls-3" d="M639,76.64l-4.69,2.23c-1.62-2.93-.89-6.34,1.63-7.6s6,.1,7.7,3Z"/><polygon class="cls-4" points="635.97 71.88 636.58 71.58 642.89 82.66 642.29 82.96 635.97 71.88"/><polygon class="cls-4" points="643.39 78.25 643.31 78.85 639.47 78.64 639.55 78.04 643.39 78.25"/><polygon class="cls-4" points="641.95 75.72 641.86 76.32 638.02 76.11 638.11 75.5 641.95 75.72"/><polygon class="cls-4" points="640.99 72.94 640.91 73.54 637.07 73.33 637.15 72.72 640.99 72.94"/><polygon class="cls-4" points="637.74 81.08 638.32 81.35 640.26 78.24 639.68 77.97 637.74 81.08"/><polygon class="cls-4" points="636.29 78.55 636.87 78.82 638.82 75.71 638.24 75.44 636.29 78.55"/><polygon class="cls-4" points="634.85 76.01 635.43 76.28 637.38 73.17 636.79 72.9 634.85 76.01"/><polygon class="cls-2" points="629.88 36.76 626.29 34.55 625.65 35.87 629.24 38.09 629.88 36.76"/><polygon class="cls-3" points="633.14 43.17 634.1 38.07 635.06 32.97 640.26 36.89 645.47 40.8 639.31 41.99 633.14 43.17"/><path class="cls-3" d="M634.48,38.18l-1.05,5.08c-3.25-.82-5.48-3.74-5-6.5s3.66-4.47,7-3.69Z"/><polygon class="cls-4" points="628.98 37.12 629.11 36.46 641.51 39.39 641.39 40.05 628.98 37.12"/><polygon class="cls-4" points="638.36 35.95 638.78 36.43 636.34 39.18 635.92 38.7 638.36 35.95"/><polygon class="cls-4" points="635.53 35.28 635.95 35.76 633.5 38.51 633.08 38.03 635.53 35.28"/><polygon class="cls-4" points="632.79 34.08 633.21 34.56 630.76 37.3 630.34 36.82 632.79 34.08"/><polygon class="cls-4" points="637.22 42.18 637.77 41.93 636.5 38.3 635.94 38.55 637.22 42.18"/><polygon class="cls-4" points="634.38 41.51 634.93 41.26 633.66 37.63 633.11 37.88 634.38 41.51"/><polygon class="cls-4" points="631.54 40.84 632.1 40.59 630.83 36.96 630.27 37.21 631.54 40.84"/><rect class="cls-5" x="467.96" y="4.96" width="230.77" height="115.38"/></svg>