<svg id="Layer_1" data-name="Layer 1" xmlns="http://www.w3.org/2000/svg" xmlns:xlink="http://www.w3.org/1999/xlink" width="1920" height="1080" viewBox="0 0 1920 1080"><defs><style>.cls-1{fill:url(#linear-gradient);}.cls-2{fill:url(#linear-gradient-2);}.cls-3{fill:url(#radial-gradient);}.cls-4{opacity:0.5;}.cls-5{fill:#788bb1;}.cls-6{fill:#324852;}.cls-7{fill:#fff;}.cls-8{opacity:0.4;}.cls-9{fill:#4d5972;}.cls-10{fill:#88c3de;}</style><linearGradient id="linear-gradient" x1="967.1" y1="-2.3" x2="967.1" y2="489.5" gradientTransform="matrix(1, 0, 0, -1, 0, 1080)" gradientUnits="userSpaceOnUse"><stop offset="0" stop-color="#4d4d4d"/><stop offset="0.06" stop-color="#575757"/><stop offset="0.23" stop-color="#6d6d6d"/><stop offset="0.39" stop-color="#7b7b7b"/><stop offset="0.53" stop-color="gray"/><stop offset="1" stop-color="#009245"/></linearGradient><linearGradient id="linear-gradient-2" x1="963.9" y1="490.8" x2="963.9" y2="1083" gradientTransform="matrix(1, 0, 0, -1, 0, 1080)" gradientUnits="userSpaceOnUse"><stop offset="0" stop-color="#a2cbbc"/><stop offset="1" stop-color="#00567f"/></linearGradient><radialGradient id="radial-gradient" cx="1772.5" cy="950.4" r="98.7" gradientTransform="matrix(1, 0, 0, -1, 0, 1080)" gradientUnits="userSpaceOnUse"><stop offset="0" stop-color="#fffa2a"/><stop offset="0" stop-color="#fffa2c"/><stop offset="0.09" stop-color="#fef649"/><stop offset="0.18" stop-color="#fdf260"/><stop offset="0.28" stop-color="#fcf070"/><stop offset="0.39" stop-color="#fcee7a"/><stop offset="0.54" stop-color="#fcee7d"/><stop offset="0.65" stop-color="#fcef79"/><stop offset="0.75" stop-color="#fcf16e"/><stop offset="0.84" stop-color="#fdf55c"/><stop offset="0.93" stop-color="#fdfa42"/><stop offset="1" stop-color="#feff2a"/></radialGradient></defs><title>Final_start</title><rect class="cls-1" x="0.3" y="590.5" width="1933.6" height="491.8"/><rect class="cls-2" x="-3.9" y="-3" width="1935.6" height="592.2"/><circle class="cls-3" cx="1772.5" cy="129.6" r="98.7"/><g class="cls-4"><path class="cls-5" d="M663.2,131.6h417.1c30.6,0,55.4,23.7,55.4,52.9v298c0,29.2-24.8,52.9-55.4,52.9H663.2c-30.6,0-55.4-23.7-55.4-52.9v-298C607.8,155.3,632.6,131.6,663.2,131.6Z"/><path d="M1080.3,136.2c27.9,0,50.5,21.6,50.6,48.3v298c0,26.7-22.7,48.2-50.6,48.3H663.2c-27.9,0-50.5-21.6-50.6-48.3v-298c0-26.7,22.7-48.2,50.6-48.3h417.1m0-9.2H663.2c-33.2.1-60.1,25.8-60.2,57.5v298c.1,31.7,27,57.4,60.2,57.5h417.1c33.2-.1,60.1-25.8,60.2-57.5v-298C1140.4,152.8,1113.5,127.1,1080.3,127Z"/></g><path class="cls-6" d="M516.5,254.6c0-7.4-8.5-4.6-8.5-11.8,0-3.5,2.1-5.4,10.3-4.8l51.5,3.7c28.5,2,49.5,16.9,49.5,46.3s-21,44.3-49.5,46.3L518.3,338c-8.2.6-10.3-1.4-10.3-4.8,0-7.2,8.5-4.4,8.5-11.8Zm36.3,59.2c0,7.9,1.6,9.9,6.8,9.6,18-1,29.2-17.8,29.2-35.5s-11.2-34.5-29.2-35.5c-5.2-.3-6.8,1.7-6.8,9.6Z"/><path class="cls-6" d="M631.2,260c0-6.2-6-3.8-6-9.8,0-2.9,1.5-4.5,7.2-4.1l49.6,3.5c5.2.4,7.4,2,7.4,6.7v4.8c0,4.3-2.3,6.1-4.4,6-7.3-.3-1-8-19.2-8.9-7.7-.4-9.1.3-9.1,7.8v13.1l12.3.2c7.6.1,6.2-4.2,10.2-4.2,2.6.1,3.9,1.9,3.9,9.5s-1.3,9.6-3.9,9.6c-4.1,0-2.5-4.3-10.2-4.3H656.7v16.5c0,10.4,1.9,11.4,11.1,10.9,17.5-.9,12.8-10.5,19.4-10.7,2.9-.1,4.6,2,4.6,5.3,0,1.9-.9,9.2-2,11.4-.9,1.8-2.8,2.3-6.8,2.5l-50.8,3.6c-5.7.4-7.2-1.2-7.2-4.1,0-6,6-3.6,6-9.8Z"/><path class="cls-6" d="M699.2,263.2c0-5.5-4.7-3.3-4.7-8.6,0-2.6,1.2-4,5.6-3.7l18.3,1.3c4.1.3,5.1,1.8,5.1,4.2,0,5-4.2,2.5-4.2,7.7v44.7c0,5.6.9,5.9,6.7,5.6,9.5-.5,7.8-11.1,13.4-11.3,1.8-.1,3.5,1.5,3.5,4s-1.8,9.8-2.7,12.2-1.7,2.8-4.8,3l-35.3,2.5c-4.5.3-5.6-1.1-5.6-3.7,0-5.3,4.7-3.1,4.7-8.6Z"/><path class="cls-6" d="M746.8,265.5c0-5-3.8-3-3.8-7.8,0-2.3,1-3.6,4.7-3.4l28.3,2c8.2.6,13.2,7.1,13.2,14.5a15.21,15.21,0,0,1-8,13.9v.2c6.2,1.9,10.6,7,10.6,16.2,0,10.3-5.5,17.7-15.2,18.4l-29,2.1c-3.7.3-4.7-1.1-4.7-3.4,0-4.8,3.8-2.8,3.8-7.8Zm16.7,18.6c4.6-1.4,10.2-7,10.2-13.7,0-5.1-2.6-7.2-6.1-7.4s-4.1,1.5-4.1,5.6v15.5Zm0,22.1c0,4.2.3,6.3,3.9,6.1,5.5-.3,9.1-5,9.1-11.9a13.77,13.77,0,0,0-4.5-10.6,42.25,42.25,0,0,1-8.5,2.7Z"/><path class="cls-6" d="M803.3,299.3c-1.2,5.1-1.9,7.9-1.9,9.7,0,3.3,2.9,1.9,2.9,5.3,0,2.2-1,3.4-3.3,3.6l-6.4.5c-1.9.1-2.8-.8-2.8-3.1,0-2.9,2.8-3.7,3.2-5.5,1-4.9,9-36.5,11.5-43.9,1.8-5.4,2.8-7,7-6.8,4.7.3,5,.8,6.8,6.2.8,2.5,10.6,39.8,11.1,42.6s2.3,1.7,2.3,4.9c0,2.1-1.1,2.9-2.9,3.1l-10.3.7c-2.3.2-3.6-.8-3.6-2.7,0-2.4,2-2.8,2-4.1s-.5-3-1.9-10.7Zm11.6-8.2-4.7-18.3L805,291.2Z"/><path class="cls-6" d="M835.9,269.7c0-4-2.5-2.4-2.5-6.3,0-1.9.6-3,3.1-2.8l18.9,1.3c5.3.4,10.2,3.6,10.2,13,0,6.3-2.7,10.8-5.9,13.3,2.5,4.5,4.1,10.3,5.3,16,1.1,5.5,2.7,3.9,2.7,6.5,0,1.4-.7,2.4-2.8,2.5l-9.4.7c-2.1.1-2.9-.4-2.9-2.5,0-2.4,1.7-2.5,1.7-4.2,0-3.5-2.9-12.1-4.5-15.1l-2.7.6v12.8c0,3.9,2.4,2,2.4,5.8,0,1.8-.6,2.9-2.9,3.1l-10.1.7c-2.4.2-3.1-.9-3.1-2.8,0-3.9,2.5-2.3,2.5-6.3ZM847,286c.3,0,.6.1.9.1,3.7,0,7.1-3.8,7.1-10.1,0-4.4-1.8-8.3-4.7-8.4-2.2-.1-3.4,1.4-3.4,5.6Z"/><path class="cls-6" d="M889,264.4a2.17,2.17,0,0,1,2.1,1.2,42.43,42.43,0,0,1,.9,7.1c0,2.2-.7,3.5-1.8,3.5-2.1-.1-1.6-5.9-5-6.1-1,0-1.3.5-1.3,2.8V304c0,3.5,1.9,1.9,1.9,5.2,0,1.6-.5,2.6-2.3,2.8l-8.2.6c-2,.1-2.5-.8-2.5-2.5,0-3.5,2-2,2-5.6V272.4c0-2.3-.3-2.9-1.4-3-3.6-.2-3.1,6-5.5,6-1.2,0-2-1.5-2-3.9A38.79,38.79,0,0,1,867,264c.4-.9,1.6-1,2.4-.9Z"/><path class="cls-6" d="M782.2,474.7c-5.2-.3-10.5-5.6-10.5-11.4,0-2.2.8-4.1,2-4.1,2.9.1,2.3,9.1,8,9.4,2.8.1,4.2-2.8,4.2-5.6,0-8.5-13.4-2.8-13.4-19.6,0-9,4.1-15.8,10.3-16.2,3.5-.2,5.2.8,7.8,2.6,1.8,1.4,1.9,2.6,1.9,8.3,0,2.1-.4,3.8-1.7,3.9-2.6.1-1.4-10.1-6.8-9.8-2.6.1-3.8,2.4-3.8,5.1,0,9.1,14,3.4,14,20.2C794.2,469.6,787.7,475,782.2,474.7Z"/><path class="cls-6" d="M817.3,425.9c.8-.1,2,0,2.4.9a48.79,48.79,0,0,1,1.1,7.5c0,2.3-.8,3.8-2,3.9-2.3.1-1.8-6.1-5.4-6-1,0-1.4.7-1.4,3v32.1c0,3.6,2,2.1,2,5.6,0,1.7-.5,2.7-2.5,2.6l-8.2-.5c-1.9-.1-2.3-1.1-2.3-2.8,0-3.4,1.9-1.7,1.9-5.3V435.5c0-2.2-.3-2.8-1.3-2.8-3.3.2-2.9,6.1-5,6.1-1.1,0-1.8-1.3-1.8-3.5a33.94,33.94,0,0,1,1-7.1c.3-.9,1.4-1.1,2.1-1.2Z"/><path class="cls-6" d="M823.6,433.9c0-3.7-2.1-2-2.1-5.5,0-1.7.5-2.8,2.6-2.9l17.8-1.2c5.7-.4,11.1,2.4,11.1,12.4a17.71,17.71,0,0,1-6.6,14.3c2.8,4.8,4.5,10.9,5.9,17.1,1.3,6,3.1,4.5,3.1,7.4,0,1.6-.8,2.5-3.2,2.3l-10.3-.6c-2.1-.1-3-.8-3-2.8,0-2.4,1.7-2.3,1.7-4,0-3.5-2.9-12.4-4.5-15.3l-2.6.5v12.5c0,3.8,2.3,2.2,2.3,5.9,0,1.8-.6,2.8-2.7,2.7l-9.1-.5c-2.1-.1-2.6-1.2-2.6-2.9,0-3.6,2.1-1.8,2.1-5.6Zm10,14.9c.3,0,.6.1.9.1,3.6,0,7.1-4,7.1-10.4,0-4.5-1.8-8.2-4.7-8.1-2.2.1-3.3,1.7-3.3,5.9Z"/><path class="cls-6" d="M863.2,461.3c-1,4.7-1.7,7.2-1.7,8.9,0,3,2.5,2,2.5,5.2,0,2-.8,3.1-2.9,3l-5.4-.3c-1.5-.1-2.3-1-2.3-3.1,0-2.6,2.3-3,2.5-4.6.8-4.3,7.6-33.5,9.8-40.7,1.6-5.3,2.6-7,6.5-7.3,4.6-.3,4.8.1,6.7,5.4.8,2.5,11.4,41.1,12,44.1s2.6,2.1,2.6,5.5c0,2.3-1.2,3-3.3,2.9l-11.1-.7c-2.3-.1-3.6-1.3-3.6-3.2,0-2.4,2-2.6,2-3.9s-.5-3.1-1.9-10.8Zm10.7-7.6L869.5,436l-4.7,17.7Z"/><path class="cls-6" d="M923,418.9c1.5-.1,4.4-.3,5.3.9,1.4,1.7,1.8,8,1.8,10.5,0,2.2-.7,4-2.5,4.1-4.4.1-1.7-7.8-12.2-7.3-4.6.2-5,1.3-5,5.8v12.6l6.3-.1c4.9-.1,4-3.6,6.6-3.6,1.8,0,2.7,1.4,2.7,7.8s-.9,8-2.7,8c-2.7,0-1.7-3.5-6.6-3.6h-6.3v17c0,4.5,3.2,2.7,3.2,7.1,0,2.1-.8,3.3-3.8,3.1l-12.7-.8c-2.9-.2-3.6-1.4-3.6-3.5,0-4.2,3-2.1,3-6.5V430.6c0-4.4-3-2.3-3-6.5,0-2,.7-3.3,3.6-3.5Z"/><path class="cls-6" d="M936.2,428.8c0-4.8-3.5-2.5-3.5-7,0-2.2.8-3.6,4.2-3.8l29.5-1.9c9.9-.6,16.5,6.1,16.5,14.5,0,8-4.6,13.1-10.1,16.1v.2c7.9,2,13.6,7.9,13.6,18.7,0,12-7.2,19.8-19.1,19l-30.2-1.9c-3.4-.2-4.2-1.6-4.2-3.8,0-4.6,3.5-2.3,3.5-7.1Zm16.5,17.6c4.9-1.5,11.2-7.7,11.2-14.9,0-5.5-2.9-7.4-6.8-7.2s-4.3,2-4.3,6.2v15.9Zm0,22.7c0,4.3.3,6.5,4.1,6.7,6.2.3,10.3-4.4,10.3-11.9a14.5,14.5,0,0,0-5.2-11.5,38.15,38.15,0,0,1-9.3,2.7v14Z"/><path class="cls-6" d="M1002.7,464.2c-1.8,6.1-2.9,9.5-2.9,11.7,0,4,4.3,2.7,4.3,6.9,0,2.7-1.4,4-5,3.8L990,486c-2.6-.2-3.8-1.4-3.8-4.1,0-3.4,3.8-3.9,4.3-6,1.5-5.6,13-44,16.8-53.4,2.8-7,4.5-9.4,11.4-9.8,8-.5,8.5,0,11.7,7,1.5,3.3,20.3,54.8,21.3,58.8s4.7,2.8,4.7,7.4c0,3-2.2,4-6,3.8l-19.7-1.2c-4.1-.2-6.3-1.8-6.3-4.3,0-3.2,3.6-3.4,3.6-5.1s-.9-4.1-3.3-14.3Zm18.6-9.9-7.7-23.4-8.1,23.4Z"/><path class="cls-6" d="M1061.4,423.2c0-5.9-5.4-3-5.4-8.7,0-2.7,1.3-4.5,6.5-4.8l46.1-3c15.2-1,30,3.2,30,19.8,0,11.2-8.4,19.3-17.9,23.8,7.5,7.9,12.3,18,16,28.3,3.6,10,8.7,7.6,8.7,12.4,0,2.6-2.1,4.1-8.9,3.7l-27.7-1.6c-5.6-.3-7.9-1.4-7.8-4.8,0-3.9,4.4-3.6,4.4-6.5,0-5.8-7.7-20.2-11.7-25l-6.7.9v20.1c0,6.2,5.9,3.7,5.9,9.7,0,2.9-1.4,4.5-7.1,4.2l-23.2-1.4c-5.2-.3-6.5-2-6.5-4.8,0-5.7,5.4-2.8,5.4-8.7Zm25.5,23.7c.8,0,1.6.1,2.3.1,9.5-.1,18.7-6.5,18.7-17,0-7.3-4.9-13.3-12.3-12.9-5.6.3-8.6,3-8.6,9.6v20.2Z"/><path class="cls-6" d="M1228,398.9c3.4-.2,8.4-.3,9.8,1.6,1.7,2,4.5,12.7,4.5,15.2,0,4.8-3.5,7.9-8.5,8-9.6.3-7.5-12.3-22.2-11.6-4.2.2-5.6,1.5-5.6,6.1v64.2c0,7.3,8.2,4.4,8.2,11.5,0,3.4-2,5.3-9.9,4.9l-32-1.9c-7.1-.4-8.9-2.4-8.9-5.6,0-6.6,7.3-3.2,7.3-10.1V419.9c0-4.4-1.3-5.5-5-5.3-12.6.6-10.9,12-18.7,12.3-3.9.1-6.6-2.4-6.6-6.5,0-2.2,2.2-11.9,3.5-13.8s5.1-2.3,7.9-2.5Z"/><circle class="cls-6" cx="842" cy="371" r="38"/><path class="cls-6" d="M827.7,376.8a7.47,7.47,0,0,1-2.5,2.5,6.76,6.76,0,0,1-3.7.9,5.51,5.51,0,0,1-4.3-1.7,6.46,6.46,0,0,1-1.8-4.7,8.08,8.08,0,0,1,2.3-5.7,6.81,6.81,0,0,1,4.9-2,5.4,5.4,0,0,1,4,1.5,7,7,0,0,1,1.7,4.6,7.52,7.52,0,0,1-.2,1.5h-9.5a4.51,4.51,0,0,0,1,2.7,3.12,3.12,0,0,0,2.2.9,4,4,0,0,0,2.1-.6,5,5,0,0,0,1.4-1.5Zm-2.4-5.4a3.77,3.77,0,0,0-.8-1.8,2.26,2.26,0,0,0-1.9-.7,3.54,3.54,0,0,0-2.2.8,4.39,4.39,0,0,0-1.2,1.8h6.1Z"/><path class="cls-6" d="M836.3,359.8l-2.5,20h-3.1l2.5-20Z"/><path class="cls-6" d="M843.3,359.8l-2.5,20h-3.1l2.5-20Z"/><path class="cls-6" d="M857.2,376.8a7.47,7.47,0,0,1-2.5,2.5,6.76,6.76,0,0,1-3.7.9,5.51,5.51,0,0,1-4.3-1.7,6.46,6.46,0,0,1-1.8-4.7,8.08,8.08,0,0,1,2.3-5.7,6.81,6.81,0,0,1,4.9-2,5.4,5.4,0,0,1,4,1.5,7,7,0,0,1,1.7,4.6,7.52,7.52,0,0,1-.2,1.5h-9.5a4.51,4.51,0,0,0,1,2.7,3.12,3.12,0,0,0,2.2.9,4,4,0,0,0,2.1-.6,5,5,0,0,0,1.4-1.5Zm-2.4-5.4a3.77,3.77,0,0,0-.8-1.8,2.26,2.26,0,0,0-1.9-.7,3.54,3.54,0,0,0-2.2.8,4.39,4.39,0,0,0-1.2,1.8h6.1Z"/><path class="cls-6" d="M861.9,366.5H865l-.2,1.2a3.58,3.58,0,0,1,1.4-1.1,4.45,4.45,0,0,1,2-.4,4.62,4.62,0,0,1,2.3.6l-1.5,2.8a3.35,3.35,0,0,0-1.6-.5,3,3,0,0,0-2,.8,4.78,4.78,0,0,0-1.1,3l-.9,6.9h-3.1Z"/><path class="cls-6" d="M866,223c0,13.2-6.2,20.1-21.7,20.1-20.1,0-27.1-3.9-27.1-23.2V177.3c0-27.9,49.1-8.5,49.1-82,0-22.4-9.7-34.8-23.2-34.8-13.2,0-18.6,8.5-18.6,20.1,0,24-8.9,36.8-36,36.8-24,0-35.2-12-35.2-29.4,0-28.2,36-58.4,97.1-58.4,68.1,0,110.3,34.8,110.3,82.4,0,36.4-23.6,54.2-47.2,66.2-24,12-47.6,18.2-47.6,31.7Z"/><path class="cls-7" d="M827.7,374.8a7.47,7.47,0,0,1-2.5,2.5,6.76,6.76,0,0,1-3.7.9,5.51,5.51,0,0,1-4.3-1.7,6.46,6.46,0,0,1-1.8-4.7,8.08,8.08,0,0,1,2.3-5.7,6.81,6.81,0,0,1,4.9-2,5.4,5.4,0,0,1,4,1.5,7,7,0,0,1,1.7,4.6,7.52,7.52,0,0,1-.2,1.5h-9.5a4.51,4.51,0,0,0,1,2.7,3.12,3.12,0,0,0,2.2.9,4,4,0,0,0,2.1-.6,5,5,0,0,0,1.4-1.5Zm-2.4-5.4a3.77,3.77,0,0,0-.8-1.8,2.26,2.26,0,0,0-1.9-.7,3.54,3.54,0,0,0-2.2.8,4.39,4.39,0,0,0-1.2,1.8h6.1Z"/><path class="cls-7" d="M836.3,357.8l-2.5,20h-3.1l2.5-20Z"/><path class="cls-7" d="M843.3,357.8l-2.5,20h-3.1l2.5-20Z"/><path class="cls-7" d="M857.2,374.8a7.47,7.47,0,0,1-2.5,2.5,6.76,6.76,0,0,1-3.7.9,5.51,5.51,0,0,1-4.3-1.7,6.46,6.46,0,0,1-1.8-4.7,8.08,8.08,0,0,1,2.3-5.7,6.81,6.81,0,0,1,4.9-2,5.4,5.4,0,0,1,4,1.5,7,7,0,0,1,1.7,4.6,7.52,7.52,0,0,1-.2,1.5h-9.5a4.51,4.51,0,0,0,1,2.7,3.12,3.12,0,0,0,2.2.9,4,4,0,0,0,2.1-.6,5,5,0,0,0,1.4-1.5Zm-2.4-5.4a3.77,3.77,0,0,0-.8-1.8,2.26,2.26,0,0,0-1.9-.7,3.54,3.54,0,0,0-2.2.8,4.39,4.39,0,0,0-1.2,1.8h6.1Z"/><path class="cls-7" d="M861.9,364.5H865l-.2,1.2a3.58,3.58,0,0,1,1.4-1.1,4.45,4.45,0,0,1,2-.4,4.62,4.62,0,0,1,2.3.6l-1.5,2.8a3.35,3.35,0,0,0-1.6-.5,3,3,0,0,0-2,.8,4.78,4.78,0,0,0-1.1,3l-.9,6.9h-3.1Z"/><g class="cls-8"><path class="cls-9" d="M167.5,608.1H607.6A86.89,86.89,0,0,1,694.5,695V959.8a86.89,86.89,0,0,1-86.88,86.9H167.5a86.89,86.89,0,0,1-86.9-86.88V695A87,87,0,0,1,167.5,608.1Z"/><path class="cls-10" d="M176.3,623h422a86.89,86.89,0,0,1,86.9,86.88V943.7a86.89,86.89,0,0,1-86.88,86.9h-422a86.89,86.89,0,0,1-86.9-86.88V709.9A87,87,0,0,1,176.3,623Z"/></g><path d="M119.71,663c0-1.43-1.52-.73-1.52-1.89,0-.51.27-.81,1.25-.81H125c9.12,0,12.87,4,12.87,9.86s-3.91,9.9-10.93,9.9h-7.5c-1,0-1.25-.29-1.25-.81,0-1.16,1.52-.46,1.52-1.89Zm4,12.74c0,2.27.27,2.49,2.21,2.49,4.92,0,7.64-3.35,7.64-8,0-4.86-2.72-8-7.64-8-1.94,0-2.21.22-2.21,2.48Z"/><path d="M147,666.92c2.26,0,5.23,1.05,5.21,3.75,0,3.65-6.16,4.29-9,4.46a3.77,3.77,0,0,0,3.77,3.29,5.49,5.49,0,0,0,3.78-1.62c.33-.3.52-.57,1-.57a.57.57,0,0,1,.62.52v.1c0,1.35-3,3.51-6.23,3.51-3.73,0-6.86-2.53-6.89-6.39C139.28,669.78,141.9,666.92,147,666.92Zm-4,6.75c1.4-.14,5.67-.68,5.67-3.38a1.77,1.77,0,0,0-1.61-1.92,1.7,1.7,0,0,0-.39,0C144.11,668.38,142.93,671,143,673.67Z"/><path d="M160.85,667.19c.62,0,1,.22,1,.86s-.41.87-1,.87h-2.21v7.83c0,1.26.43,1.62,1.81,1.62s1.56.18,1.56.78a.83.83,0,0,1-.94.94h-3.83c-1.73,0-2.11-.29-2.11-1.75v-9.42H154c-.78,0-1-.19-1-.87s.51-.78,1.51-.86c3.08-.3,2.19-4.7,3.43-4.7.56,0,.7.27.7,1.08v3.62Z"/><path d="M179.08,666.92c2.26,0,5.23,1.05,5.21,3.75,0,3.65-6.16,4.29-9,4.46a3.78,3.78,0,0,0,3.78,3.29,5.49,5.49,0,0,0,3.78-1.62c.33-.3.52-.57,1-.57a.57.57,0,0,1,.62.52v.1c0,1.35-3,3.51-6.23,3.51-3.73,0-6.86-2.53-6.89-6.39C171.41,669.78,174,666.92,179.08,666.92Zm-4,6.75c1.4-.14,5.67-.68,5.67-3.38a1.77,1.77,0,0,0-1.61-1.91h-.34c-2.56,0-3.75,2.62-3.69,5.29Z"/><path d="M187.21,680.09c-.71,0-1-.27-1-.73,0-1,1.27-.19,1.27-2v-5.45c0-3.1-1.81-1.94-1.81-3.1,0-.79.81-1,1.56-1.33a6.41,6.41,0,0,1,1.86-.59c1.19,0,1.38,2.29,1.46,3.16h.06c.62-1.49,2-3.16,3.59-3.16a1.78,1.78,0,0,1,1.8,1.76v.13c0,.73-.32,1.51-1.26,1.51-.41,0-1.08-.43-1.62-.43-1.11,0-2.14,1.86-2.14,3.89v3.61c0,1.78,1.27,1,1.27,2,0,.46-.29.73-1,.73Z"/><path d="M210.48,677.39c0,1.78,1.27,1,1.27,2,0,.46-.3.73-1,.73H206.7c-.7,0-1-.27-1-.73,0-1,1.27-.19,1.27-2v-8.47h-.92c-.62,0-1-.19-1-.87s.4-.86,1-.86H207c0-3.13.24-7.88,4.58-7.88,1,0,2.38.51,2.38,1.67a1.32,1.32,0,0,1-1.23,1.41h-.07c-.75,0-1-.76-1.51-.76-.29,0-.73.27-.73,2.78v2.78h1.81c.62,0,1,.22,1,.86s-.41.87-1,.87h-1.75Z"/><path d="M215.55,680.09c-.7,0-1-.27-1-.73,0-1,1.26-.19,1.26-2v-5.45c0-3.1-1.8-1.94-1.8-3.1,0-.79.81-1,1.56-1.33a6.41,6.41,0,0,1,1.86-.59c1.19,0,1.38,2.29,1.46,3.16H219c.62-1.49,2-3.16,3.59-3.16a1.78,1.78,0,0,1,1.8,1.76v.13c0,.73-.32,1.51-1.26,1.51-.41,0-1.08-.43-1.62-.43-1.11,0-2.14,1.86-2.14,3.89v3.61c0,1.78,1.27,1,1.27,2,0,.46-.29.73-1,.73Z"/><path d="M226,680.09c-.7,0-1-.24-1-.7,0-1,1.27-.19,1.27-2v-7c0-1.32-1.45-1-1.45-1.84,0-.4.37-.56.7-.64a18.66,18.66,0,0,1,3.29-1c.84,0,1,.57,1,2.05v8.45c0,1.78,1.27,1,1.27,2,0,.46-.3.7-1,.7Zm3.86-16.3c0,1.19-.86,1.89-2.24,1.89A1.9,1.9,0,0,1,225.5,664a1.69,1.69,0,0,1,0-.23c0-1.16.89-1.89,2.24-1.89a1.9,1.9,0,0,1,2.12,1.66,1.69,1.69,0,0,1,0,.23Z"/><path d="M233.08,680.09c-.7,0-1-.27-1-.73,0-1,1.27-.19,1.27-2V663c0-1.32-1.46-1-1.46-1.83,0-.41.4-.49.7-.65a11.49,11.49,0,0,1,3.29-1c.84,0,1,.57,1,1.79v11.82c1-.51,4.4-3.11,4.4-4.08,0-.62-1.35-.35-1.35-1.21,0-.46.27-.65.7-.65h3.83c.65,0,1,.22,1,.65,0,.75-.76.62-1.78,1.59s-2.54,2.51-2.81,2.89a25.63,25.63,0,0,1,4.42,5.78c.44.72,1.41.59,1.41,1.35,0,.48-.35.64-.84.64h-4.61a.76.76,0,0,1-.86-.66.28.28,0,0,1,0-.09c0-.6.76-.54.76-.87,0-.48-1.73-3-2.76-4.26l-1.53,1.08v2.1c0,1.78,1.26,1,1.26,2,0,.46-.29.73-1,.73Z"/><path d="M259.78,667.19a.56.56,0,0,1,.59.53v.09c0,.78-.51.54-.92,2.08a34,34,0,0,1-4.21,10c-.27.46-.59.48-1.64.48a2.25,2.25,0,0,1-2.14-1.24,29.58,29.58,0,0,1-3.83-9.88c-.16-.67-1.08-.65-1.08-1.51,0-.38.27-.54.92-.54H252c.59,0,.81.27.81.59,0,.87-1.35.65-1.35,1.57,0,2.08,1.94,6.5,3.08,8.42,1.45-2.32,2.8-6,2.8-8,0-1.24-1.35-1-1.35-2,0-.4.33-.59.87-.59Z"/><path d="M271.06,680.09c-1.13,0-1.24-.59-1.18-1.46h-.11c-.76,1.14-2.46,1.73-4.27,1.73-3.07,0-4.75-1.89-4.75-4,0-3.67,5-5.08,8.86-5.08a2.54,2.54,0,0,0-2.32-2.75h-.38c-2.14,0-2.32,1.57-4.05,1.57a1.06,1.06,0,0,1-1.18-.94.66.66,0,0,1,0-.14c0-1.3,2.65-2.11,5.05-2.11,3.53,0,6.4,1.3,6.4,4.75v5.8c0,1.35,1.34,1,1.34,1.79,0,.59-.21.83-1.29.83Zm-1.45-7.34c-3.14,0-5.13,1.89-5.13,3.59a2.52,2.52,0,0,0,2.43,2.51,2.92,2.92,0,0,0,2.7-3Z"/><path d="M277.11,680.09c-.7,0-1-.27-1-.73,0-1,1.27-.19,1.27-2v-5.45c0-3.1-1.81-1.94-1.81-3.1,0-.79.81-1,1.57-1.33a6.41,6.41,0,0,1,1.86-.59c1.19,0,1.38,2.29,1.46,3.16h.05c.63-1.49,2-3.16,3.59-3.16a1.78,1.78,0,0,1,1.81,1.75v.14c0,.73-.32,1.51-1.27,1.51-.4,0-1.08-.43-1.62-.43-1.1,0-2.13,1.86-2.13,3.89v3.61c0,1.78,1.27,1,1.27,2,0,.46-.3.73-1,.73Z"/><path d="M293.69,667.19c.62,0,1,.22,1,.86s-.41.87-1,.87h-2.21v7.83c0,1.26.43,1.62,1.8,1.62s1.57.18,1.57.78a.82.82,0,0,1-.68.94h-4.1c-1.72,0-2.1-.29-2.1-1.75v-9.42h-1.11c-.78,0-1-.19-1-.87s.52-.78,1.52-.86c3.07-.3,2.18-4.7,3.42-4.7.57,0,.71.27.71,1.08v3.62Z"/><path d="M303.27,666.92c2.27,0,5.24,1.05,5.21,3.75,0,3.65-6.15,4.29-9,4.46a3.78,3.78,0,0,0,3.78,3.29A5.6,5.6,0,0,0,307,676.8c.32-.3.51-.57,1-.57a.57.57,0,0,1,.62.52v.1c0,1.35-3,3.51-6.24,3.51-3.72,0-6.85-2.53-6.88-6.39C295.61,669.78,298.23,666.92,303.27,666.92Zm-4,6.75c1.4-.14,5.67-.68,5.67-3.38a1.77,1.77,0,0,0-1.61-1.92,1.7,1.7,0,0,0-.39,0c-2.5,0-3.69,2.62-3.63,5.29Z"/><path d="M311.4,680.09c-.7,0-1-.27-1-.73,0-1,1.27-.19,1.27-2v-5.45c0-3.1-1.81-1.94-1.81-3.1,0-.79.81-1,1.57-1.33a6.41,6.41,0,0,1,1.86-.59c1.19,0,1.38,2.29,1.46,3.16h.05c.62-1.49,2-3.16,3.59-3.16a1.78,1.78,0,0,1,1.81,1.75v.14c0,.73-.32,1.51-1.27,1.51-.4,0-1.08-.43-1.62-.43-1.1,0-2.13,1.86-2.13,3.89v3.61c0,1.78,1.27,1,1.27,2,0,.46-.3.73-1,.73Z"/><path d="M321.82,684.22c-.24,0-.56-.24-.56-.48,0-.46,1.81-1.33,2-3.65a3.41,3.41,0,0,1-.78.11,1.77,1.77,0,0,1-1.84-1.7v-.11a2,2,0,0,1,2.17-1.81h0c1.56,0,2.35,1.27,2.35,2.73C325.15,682,322.53,684.22,321.82,684.22Z"/><path d="M343.8,680.36c-4.05,0-7.31-2.72-7.31-6.72s3.26-6.72,7.31-6.72,7.32,2.73,7.32,6.72S347.85,680.36,343.8,680.36Zm0-1.62c2,0,3.59-1.72,3.59-5.1s-1.56-5.1-3.59-5.1-3.59,1.73-3.59,5.1S341.78,678.74,343.8,678.74Z"/><path d="M364.08,669a6,6,0,0,1,1.67,4.16,5.47,5.47,0,0,1-2.62,4.94c1.57.46,3,1.59,3,3.1,0,2.54-2.49,4.21-7.21,4.21-4.13,0-6.18-.91-6.18-2.37s1.65-2.16,2.73-2.16c.51,0,.89.16.89.48s-.27.52-.27.87.43,1.19,2.94,1.19c2.72,0,3.7-1,3.7-2.06a2.79,2.79,0,0,0-1.92-2.29,5.54,5.54,0,0,1-1.81.3c-3.83,0-6.58-2.27-6.58-5.94,0-4.27,2.83-6.48,7-6.48,1.83,0,3.67.27,5.5.27,1.49,0,1.68.38,1.68.86,0,.65-.35.87-1.43.92Zm-5-.43c-1.64,0-2.94,1.57-2.94,4.53s1.3,4.54,2.94,4.54S362,676,362,673.07s-1.27-4.53-2.92-4.53Z"/><path d="M383.87,666.92c2.27,0,5.23,1.05,5.21,3.75,0,3.65-6.16,4.29-9,4.46a3.77,3.77,0,0,0,3.78,3.29,5.55,5.55,0,0,0,3.77-1.62c.33-.3.52-.57,1-.57a.57.57,0,0,1,.62.52v.1c0,1.35-3,3.51-6.23,3.51-3.73,0-6.86-2.53-6.88-6.39C376.2,669.78,378.82,666.92,383.87,666.92Zm-4,6.75c1.4-.14,5.67-.68,5.67-3.38a1.77,1.77,0,0,0-1.61-1.91h-.34c-2.59,0-3.74,2.62-3.69,5.29Z"/><path d="M391.59,680.09c-.7,0-1-.27-1-.73,0-1,1.27-.19,1.27-2V663c0-1.45-1.46-.81-1.46-2,0-.54,2.89-1.52,4-1.52.62,0,1,.33,1,1.79v16.08c0,1.78,1.27,1,1.27,2,0,.46-.3.73-1,.73Z"/><path d="M405.47,666.92c2.27,0,5.23,1.05,5.21,3.75,0,3.65-6.16,4.29-9,4.46a3.77,3.77,0,0,0,3.77,3.29,5.49,5.49,0,0,0,3.78-1.62c.33-.3.52-.57,1-.57a.57.57,0,0,1,.62.52v.1c0,1.35-3,3.51-6.23,3.51-3.73,0-6.86-2.53-6.89-6.39C397.8,669.78,400.42,666.92,405.47,666.92Zm-4,6.75c1.4-.14,5.67-.68,5.67-3.38a1.77,1.77,0,0,0-1.61-1.91h-.34c-2.56,0-3.74,2.62-3.69,5.29Z"/><path d="M424.61,667.19a.56.56,0,0,1,.59.53v.09c0,.78-.51.54-.91,2.08a33.67,33.67,0,0,1-4.22,10c-.27.46-.59.48-1.64.48a2.25,2.25,0,0,1-2.13-1.24,29.3,29.3,0,0,1-3.84-9.88c-.16-.67-1.08-.65-1.08-1.51,0-.38.27-.54.92-.54h4.48c.6,0,.81.27.81.59,0,.87-1.35.65-1.35,1.57,0,2.08,1.95,6.5,3.08,8.42,1.46-2.32,2.81-6,2.81-8,0-1.24-1.35-1-1.35-2,0-.4.32-.59.86-.59Z"/><path d="M433.28,666.92c2.27,0,5.23,1.05,5.21,3.75,0,3.65-6.16,4.29-9,4.46a3.77,3.77,0,0,0,3.77,3.29A5.49,5.49,0,0,0,437,676.8c.33-.3.52-.57,1-.57a.57.57,0,0,1,.62.52v.1c0,1.35-3,3.51-6.23,3.51-3.73,0-6.86-2.53-6.89-6.39C425.61,669.78,428.23,666.92,433.28,666.92Zm-4,6.75c1.4-.14,5.67-.68,5.67-3.38a1.77,1.77,0,0,0-1.61-1.92,1.7,1.7,0,0,0-.39,0c-2.51,0-3.69,2.62-3.64,5.29Z"/><path d="M441.41,680.09c-.71,0-1-.27-1-.73,0-1,1.27-.19,1.27-2v-5.45c0-3.1-1.81-1.94-1.81-3.1,0-.79.81-1,1.56-1.33a6.47,6.47,0,0,1,1.87-.59c1.18,0,1.37,2.29,1.45,3.16h.06c.62-1.49,2-3.16,3.59-3.16a1.79,1.79,0,0,1,1.81,1.77v.12c0,.73-.33,1.51-1.27,1.51-.41,0-1.08-.43-1.62-.43-1.11,0-2.13,1.86-2.13,3.89v3.61c0,1.78,1.26,1,1.26,2,0,.46-.29.73-1,.73Z"/><path d="M461,672.43c0-1.95-.16-3.51-2.56-3.51a2.84,2.84,0,0,0-2.81,2.87v5.6c0,1.78,1.27,1,1.27,2,0,.46-.3.73-1,.73h-4.1c-.7,0-1-.27-1-.73,0-1,1.27-.19,1.27-2v-6.58c0-2.11-1.43-1.08-1.43-2.32,0-1,3-1.57,3.51-1.57.81,0,.92.54,1,2.16a5.7,5.7,0,0,1,4.46-2.16c3.34,0,4.88,1.67,4.88,5.29v5.18c0,1.78,1.27,1,1.27,2,0,.46-.3.73-1,.73h-4.05c-.7,0-1-.27-1-.73,0-1,1.27-.19,1.27-2Z"/><path d="M474.32,666.92c2.26,0,5.23,1.05,5.21,3.75,0,3.65-6.16,4.29-9,4.46a3.77,3.77,0,0,0,3.77,3.29,5.49,5.49,0,0,0,3.78-1.62c.33-.3.52-.57,1-.57a.57.57,0,0,1,.62.52v.1c0,1.35-3,3.51-6.23,3.51-3.73,0-6.86-2.53-6.89-6.39C466.65,669.78,469.27,666.92,474.32,666.92Zm-4,6.75c1.4-.14,5.67-.68,5.67-3.38a1.77,1.77,0,0,0-1.61-1.91H474c-2.56,0-3.74,2.62-3.69,5.29Z"/><path d="M496.86,667.19c.62,0,1,.22,1,.86s-.41.87-1,.87h-2.21v7.83c0,1.26.43,1.62,1.81,1.62s1.56.18,1.56.78a.83.83,0,0,1-.94.94h-3.83c-1.73,0-2.11-.29-2.11-1.75v-9.42H490c-.78,0-1-.19-1-.87s.51-.78,1.51-.86c3.08-.3,2.19-4.7,3.43-4.7.56,0,.7.27.7,1.08v3.62Z"/><path d="M509.06,680.09c-1.13,0-1.24-.59-1.18-1.46h-.11c-.76,1.14-2.46,1.73-4.27,1.73-3.07,0-4.75-1.89-4.75-4,0-3.67,5-5.08,8.86-5.08a2.54,2.54,0,0,0-2.32-2.75h-.38c-2.13,0-2.32,1.57-4.05,1.57a1.06,1.06,0,0,1-1.18-.94.66.66,0,0,1,0-.14c0-1.3,2.65-2.11,5.05-2.11,3.54,0,6.4,1.3,6.4,4.75v5.8c0,1.35,1.35,1,1.35,1.79,0,.59-.22.83-1.3.83Zm-1.45-7.34c-3.13,0-5.13,1.89-5.13,3.59a2.52,2.52,0,0,0,2.43,2.51,2.92,2.92,0,0,0,2.7-3Z"/><path d="M525.26,669a6,6,0,0,1,1.68,4.16,5.5,5.5,0,0,1-2.62,4.94c1.57.46,3,1.59,3,3.1,0,2.54-2.49,4.21-7.21,4.21-4.13,0-6.18-.91-6.18-2.37s1.64-2.16,2.72-2.16c.52,0,.89.16.89.48s-.27.52-.27.87.44,1.19,3,1.19c2.72,0,3.69-1,3.69-2.06a2.77,2.77,0,0,0-2-2.36,5.54,5.54,0,0,1-1.81.3c-3.83,0-6.59-2.27-6.59-5.94,0-4.27,2.84-6.48,7-6.48,1.84,0,3.68.27,5.51.27,1.49,0,1.67.38,1.67.86,0,.65-.35.87-1.43.92Zm-5-.43c-1.65,0-2.94,1.57-2.94,4.53s1.29,4.54,2.94,4.54,2.94-1.57,2.94-4.54-1.28-4.56-2.93-4.56Z"/><path d="M536.42,666.92c2.26,0,5.23,1.05,5.21,3.75,0,3.65-6.16,4.29-9,4.46a3.78,3.78,0,0,0,3.78,3.29,5.49,5.49,0,0,0,3.78-1.62c.33-.3.52-.57,1-.57a.57.57,0,0,1,.62.52v.1c0,1.35-3,3.51-6.23,3.51-3.73,0-6.86-2.53-6.89-6.39C528.75,669.78,531.37,666.92,536.42,666.92Zm-4,6.75c1.4-.14,5.67-.68,5.67-3.38a1.77,1.77,0,0,0-1.61-1.92,1.7,1.7,0,0,0-.39,0c-2.51,0-3.7,2.62-3.64,5.29Z"/><path d="M544.55,680.09c-.71,0-1-.27-1-.73,0-1,1.26-.19,1.26-2v-5.45c0-3.1-1.8-1.94-1.8-3.1,0-.79.81-1,1.56-1.33a6.41,6.41,0,0,1,1.86-.59c1.19,0,1.38,2.29,1.46,3.16H548c.62-1.49,2-3.16,3.59-3.16a1.78,1.78,0,0,1,1.8,1.76v.13c0,.73-.32,1.51-1.26,1.51-.41,0-1.08-.43-1.62-.43-1.11,0-2.14,1.86-2.14,3.89v3.61c0,1.78,1.27,1,1.27,2,0,.46-.29.73-1,.73Z"/><path d="M563.55,663c0-1.32-1.4-1-1.4-1.83,0-.41.32-.57.65-.65a18.66,18.66,0,0,1,3.29-1c.84,0,1,.57,1,1.79v7.26a5.61,5.61,0,0,1,4-1.65c3.72,0,5.77,2.73,5.77,6.32,0,4.34-3.13,7.12-7.5,7.12-3.56,0-5.78-1.67-5.78-5.29Zm3.51,11.26c0,3.43,1.24,4.45,2.73,4.45,2,0,3.32-1.51,3.32-4.8s-1.3-5.29-3-5.29c-1.24,0-3,.86-3,3.61Z"/><path d="M579.29,680.09c-.7,0-1-.24-1-.7,0-1,1.27-.19,1.27-2v-7c0-1.32-1.45-1-1.45-1.84,0-.4.37-.56.7-.64a18.66,18.66,0,0,1,3.29-1c.84,0,1,.57,1,2.05v8.45c0,1.78,1.27,1,1.27,2,0,.46-.3.7-1,.7Zm3.86-16.3c0,1.19-.86,1.89-2.24,1.89a1.9,1.9,0,0,1-2.12-1.66,1.69,1.69,0,0,1,0-.23c0-1.16.89-1.89,2.24-1.89a1.9,1.9,0,0,1,2.12,1.66,1.69,1.69,0,0,1,0,.23Z"/><path d="M586.53,680.09c-.7,0-1-.27-1-.73,0-1,1.27-.19,1.27-2V663c0-1.45-1.46-.81-1.46-2,0-.54,2.89-1.52,4-1.52.62,0,1,.33,1,1.79v16.08c0,1.78,1.27,1,1.27,2,0,.46-.3.73-1,.73Z"/><path d="M593.82,680.09c-.7,0-1-.27-1-.73,0-1,1.27-.19,1.27-2V663c0-1.45-1.46-.81-1.46-2,0-.54,2.89-1.52,4-1.52.62,0,1,.33,1,1.79v16.08c0,1.78,1.27,1,1.27,2,0,.46-.3.73-1,.73Z"/><path d="M607.69,666.92c2.27,0,5.24,1.05,5.21,3.75,0,3.65-6.15,4.29-9,4.46a3.78,3.78,0,0,0,3.78,3.29,5.55,5.55,0,0,0,3.78-1.62c.32-.3.51-.57,1-.57a.57.57,0,0,1,.62.52v.1c0,1.35-3,3.51-6.24,3.51-3.72,0-6.85-2.53-6.88-6.39C600,669.78,602.65,666.92,607.69,666.92Zm-4,6.75c1.4-.14,5.67-.68,5.67-3.38a1.77,1.77,0,0,0-1.61-1.91h-.34c-2.55,0-3.74,2.62-3.68,5.29Z"/><path d="M625.7,680.09c-1.24,0-1.19-.59-1.27-1.59a5,5,0,0,1-4.34,1.86c-4.11,0-5.78-3-5.78-6.42,0-3.83,2.65-7,6.61-7a5.35,5.35,0,0,1,3.27,1.08v-5c0-1.32-1.51-1-1.51-1.94a.9.9,0,0,1,.65-.76,17.91,17.91,0,0,1,3.4-.81c.75,0,1,.17,1,1v17c0,1.35,1.3,1.16,1.3,1.79s-.22.83-1.3.83Zm-1.51-8.85a2.58,2.58,0,0,0-2.56-2.6h-.27c-1.87,0-3.32,1.51-3.32,4.94s1.45,4.94,3.32,4.94a2.81,2.81,0,0,0,2.83-2.54Z"/><path d="M637.66,666.92c2.27,0,5.24,1.05,5.21,3.75,0,3.65-6.15,4.29-9,4.46a3.78,3.78,0,0,0,3.78,3.29,5.55,5.55,0,0,0,3.78-1.62c.32-.3.51-.57,1-.57a.57.57,0,0,1,.62.52v.1c0,1.35-3,3.51-6.24,3.51-3.72,0-6.85-2.53-6.88-6.39C630,669.78,632.62,666.92,637.66,666.92Zm-4,6.75c1.4-.14,5.66-.68,5.66-3.38a1.75,1.75,0,0,0-1.59-1.91h-.35c-2.55,0-3.74,2.62-3.68,5.29Z"/><path d="M645.79,680.09c-.7,0-1-.27-1-.73,0-1,1.27-.19,1.27-2v-5.45c0-3.1-1.81-1.94-1.81-3.1,0-.79.81-1,1.57-1.33a6.41,6.41,0,0,1,1.86-.59c1.19,0,1.38,2.29,1.46,3.16h.05c.62-1.49,2-3.16,3.59-3.16a1.78,1.78,0,0,1,1.81,1.75v.14c0,.73-.32,1.51-1.27,1.51-.4,0-1.08-.43-1.62-.43-1.1,0-2.13,1.86-2.13,3.89v3.61c0,1.78,1.27,1,1.27,2,0,.46-.3.73-1,.73Z"/><path d="M128.51,712.49c-1.14,0-1.25-.59-1.19-1.46h-.11c-.76,1.14-2.46,1.73-4.27,1.73-3.07,0-4.75-1.89-4.75-4,0-3.67,5-5.08,8.86-5.08a2.54,2.54,0,0,0-2.32-2.75h-.38c-2.13,0-2.32,1.56-4,1.56a1.06,1.06,0,0,1-1.18-.92.86.86,0,0,1,0-.16c0-1.29,2.65-2.1,5-2.1,3.54,0,6.4,1.3,6.4,4.75v5.8c0,1.35,1.35,1,1.35,1.79,0,.59-.22.83-1.3.83Zm-1.46-7.34c-3.13,0-5.13,1.89-5.13,3.59a2.52,2.52,0,0,0,2.43,2.51,2.92,2.92,0,0,0,2.7-3Z"/><path d="M138.39,709.79c0,1.78,1.27,1,1.27,2,0,.46-.3.73-1,.73h-4c-.7,0-1-.27-1-.73,0-1,1.27-.19,1.27-2v-8.47H134c-.62,0-1-.19-1-.87s.4-.86,1-.86H135c0-3.13.24-7.88,4.59-7.88,1,0,2.37.51,2.37,1.67a1.32,1.32,0,0,1-1.23,1.41h-.07c-.75,0-1-.76-1.51-.76-.29,0-.73.27-.73,2.78v2.78h1.81c.62,0,1,.22,1,.86s-.41.87-1,.87h-1.75Z"/><path d="M160.9,712.49c-1.13,0-1.24-.59-1.18-1.46h-.11c-.76,1.14-2.46,1.73-4.27,1.73-3.07,0-4.75-1.89-4.75-4,0-3.67,5-5.08,8.86-5.08a2.54,2.54,0,0,0-2.32-2.75h-.38c-2.13,0-2.32,1.56-4.05,1.56a1.06,1.06,0,0,1-1.18-.92.86.86,0,0,1,0-.16c0-1.29,2.65-2.1,5.05-2.1,3.53,0,6.4,1.3,6.4,4.75v5.8c0,1.35,1.35,1,1.35,1.79,0,.59-.22.83-1.3.83Zm-1.45-7.34c-3.13,0-5.13,1.89-5.13,3.59a2.52,2.52,0,0,0,2.43,2.51,2.92,2.92,0,0,0,2.7-3Z"/><path d="M166.55,712.49c-.7,0-1-.27-1-.73,0-1,1.27-.19,1.27-2V695.43c0-1.45-1.46-.81-1.46-2,0-.54,2.89-1.52,4-1.52.62,0,1,.33,1,1.79v16.08c0,1.78,1.27,1,1.27,2,0,.46-.3.73-1,.73Z"/><path d="M180,699.59c.62,0,1,.22,1,.86s-.41.87-1,.87h-2.21v7.83c0,1.26.43,1.61,1.81,1.61s1.56.19,1.56.79a.82.82,0,0,1-.68.94H176.4c-1.72,0-2.1-.29-2.1-1.75v-9.42h-1.11c-.78,0-1-.19-1-.87s.51-.78,1.51-.86c3.07-.3,2.18-4.7,3.42-4.7.57,0,.71.27.71,1.08v3.62Z"/><path d="M201.94,712.49c-1.24,0-1.19-.59-1.27-1.59a5,5,0,0,1-4.34,1.86c-4.1,0-5.78-3-5.78-6.42,0-3.84,2.65-7,6.62-7a5.32,5.32,0,0,1,3.26,1.08v-5c0-1.32-1.51-1-1.51-1.94a.9.9,0,0,1,.65-.76,17.91,17.91,0,0,1,3.4-.81c.75,0,1,.17,1,1v17c0,1.35,1.3,1.16,1.3,1.79s-.22.83-1.3.83Zm-1.51-8.85a2.57,2.57,0,0,0-2.54-2.6h-.29c-1.87,0-3.32,1.51-3.32,4.94s1.45,4.94,3.32,4.94a2.81,2.81,0,0,0,2.83-2.54Z"/><path d="M213.9,699.32c2.27,0,5.24,1,5.21,3.75,0,3.65-6.15,4.29-9,4.46a3.78,3.78,0,0,0,3.78,3.29,5.6,5.6,0,0,0,3.78-1.62c.32-.3.51-.57,1-.57a.57.57,0,0,1,.62.52v.1c0,1.35-3,3.51-6.24,3.51-3.72,0-6.85-2.54-6.88-6.39C206.24,702.18,208.86,699.32,213.9,699.32Zm-4,6.75c1.4-.14,5.66-.68,5.66-3.38a1.75,1.75,0,0,0-1.59-1.91h-.35c-2.55,0-3.74,2.59-3.68,5.29Z"/><path d="M227.81,699.59c.62,0,1,.22,1,.86s-.4.87-1,.87H225.6v7.83c0,1.26.43,1.61,1.8,1.61s1.57.19,1.57.79a.82.82,0,0,1-.68.94h-4.1c-1.73,0-2.1-.29-2.1-1.75v-9.42H221c-.78,0-1-.19-1-.87s.52-.78,1.52-.86c3.07-.3,2.18-4.7,3.42-4.7.57,0,.71.27.71,1.08v3.62Z"/><path d="M232.32,716.62c-.24,0-.57-.24-.57-.48,0-.46,1.81-1.33,2-3.65a3.49,3.49,0,0,1-.78.11,1.77,1.77,0,0,1-1.84-1.7v-.11A2,2,0,0,1,233.3,709h0c1.57,0,2.35,1.27,2.35,2.73C235.64,714.35,233,716.62,232.32,716.62Z"/><path d="M258.37,712.49c-1.24,0-1.19-.59-1.27-1.59a5.06,5.06,0,0,1-4.34,1.86c-4.11,0-5.78-3-5.78-6.42,0-3.84,2.65-7,6.61-7a5.35,5.35,0,0,1,3.27,1.08v-5c0-1.32-1.51-1-1.51-1.94a.9.9,0,0,1,.65-.76,17.91,17.91,0,0,1,3.4-.81c.75,0,1,.17,1,1v17c0,1.35,1.29,1.16,1.29,1.79s-.21.83-1.29.83Zm-1.51-8.85a2.57,2.57,0,0,0-2.54-2.6H254c-1.87,0-3.32,1.51-3.32,4.94s1.45,4.94,3.32,4.94a2.81,2.81,0,0,0,2.83-2.54Z"/><path d="M270.33,699.32c2.27,0,5.24,1,5.21,3.75,0,3.65-6.15,4.29-9,4.46a3.78,3.78,0,0,0,3.78,3.29,5.6,5.6,0,0,0,3.78-1.62c.32-.3.51-.57,1-.57a.57.57,0,0,1,.62.52v.1c0,1.35-3,3.51-6.24,3.51-3.72,0-6.85-2.54-6.88-6.39C262.67,702.18,265.29,699.32,270.33,699.32Zm-4,6.75c1.4-.14,5.66-.68,5.66-3.38a1.75,1.75,0,0,0-1.59-1.91h-.35c-2.55,0-3.74,2.59-3.68,5.29Z"/><path d="M278.46,712.49c-.7,0-1-.27-1-.73,0-1,1.27-.19,1.27-2v-5.45c0-3.1-1.81-1.94-1.81-3.1,0-.79.81-1,1.57-1.33a6.41,6.41,0,0,1,1.86-.59c1.19,0,1.38,2.29,1.46,3.16h.05c.62-1.49,2-3.16,3.59-3.16a1.78,1.78,0,0,1,1.81,1.75v.14c0,.73-.32,1.51-1.27,1.51-.4,0-1.08-.43-1.62-.43-1.1,0-2.13,1.86-2.13,3.89v3.61c0,1.78,1.27,1,1.27,2,0,.46-.3.73-1,.73Z"/><path d="M302.41,699.32c2.89,0,4.48,1.13,4.48,2,0,1.7-.14,1.84-.59,1.84-1.19,0-1.16-2.19-3.89-2.19-1.76,0-2.16,1.08-2.16,1.78,0,2.54,7.26.86,7.26,5.4,0,2.86-2.37,4.64-5.91,4.64-3.05,0-5.21-2-5.21-2.89,0-.62.38-1.37,1.08-1.37,1.35,0,1.32,2.64,4,2.64,1.4,0,2.48-.81,2.48-1.91,0-2.92-7.15-.79-7.15-5.59C296.85,700.62,299.79,699.32,302.41,699.32Z"/><path d="M309.48,712.49c-.7,0-1-.27-1-.73,0-1,1.26-.19,1.26-2V695.43c0-1.32-1.45-1-1.45-1.83,0-.41.4-.49.7-.65a11.49,11.49,0,0,1,3.29-1c.84,0,1,.57,1,1.79v11.82c1-.51,4.4-3.11,4.4-4.08,0-.62-1.35-.35-1.35-1.21,0-.46.27-.65.71-.65h3.83c.65,0,1,.22,1,.65,0,.75-.75.62-1.78,1.59a38.66,38.66,0,0,0-2.8,2.89,25.63,25.63,0,0,1,4.42,5.78c.43.72,1.41.59,1.41,1.34,0,.49-.36.65-.84.65h-4.62a.76.76,0,0,1-.85-.67.22.22,0,0,1,0-.08c0-.6.76-.54.76-.87a23.07,23.07,0,0,0-2.76-4.26l-1.54,1.08v2.1c0,1.78,1.27,1,1.27,2,0,.46-.3.73-1,.73Z"/><path d="M331.35,699.32c2.27,0,5.24,1,5.21,3.75,0,3.65-6.15,4.29-9,4.46a3.78,3.78,0,0,0,3.78,3.29,5.6,5.6,0,0,0,3.78-1.62c.32-.3.51-.57,1-.57a.57.57,0,0,1,.62.52v.1c0,1.35-3,3.51-6.24,3.51-3.72,0-6.85-2.54-6.88-6.39C323.69,702.18,326.3,699.32,331.35,699.32Zm-4,6.75c1.41-.14,5.67-.68,5.67-3.38a1.75,1.75,0,0,0-1.59-1.91h-.35c-2.56,0-3.75,2.59-3.7,5.29Z"/><path d="M339.48,712.49c-.7,0-1-.27-1-.73,0-1,1.27-.19,1.27-2v-5.45c0-3.1-1.81-1.94-1.81-3.1,0-.79.81-1,1.57-1.33a6.41,6.41,0,0,1,1.86-.59c1.19,0,1.38,2.29,1.46,3.16h.05c.62-1.49,2-3.16,3.59-3.16a1.78,1.78,0,0,1,1.81,1.75v.14c0,.73-.32,1.51-1.27,1.51-.4,0-1.08-.43-1.62-.43-1.1,0-2.13,1.86-2.13,3.89v3.61c0,1.78,1.27,1,1.27,2,0,.46-.3.73-1,.73Z"/><path d="M358.57,712.49c-.7,0-1-.24-1-.7,0-1,1.27-.19,1.27-2v-7c0-1.32-1.46-1-1.46-1.84,0-.4.38-.56.7-.64a19,19,0,0,1,3.3-1c.83,0,1,.57,1,2v8.45c0,1.78,1.27.94,1.27,2,0,.46-.3.7-1,.7Zm3.86-16.3c0,1.19-.86,1.89-2.24,1.89a1.9,1.9,0,0,1-2.12-1.66,1.69,1.69,0,0,1,0-.23c0-1.16.89-1.89,2.24-1.89a1.9,1.9,0,0,1,2.12,1.66A1.69,1.69,0,0,1,362.43,696.19Z"/><path d="M379.36,699.32c2.89,0,4.48,1.13,4.48,2,0,1.7-.14,1.84-.6,1.84-1.18,0-1.16-2.19-3.88-2.19-1.76,0-2.16,1.08-2.16,1.78,0,2.54,7.26.86,7.26,5.4,0,2.86-2.38,4.64-5.91,4.64-3.05,0-5.21-2-5.21-2.89,0-.62.38-1.37,1.08-1.37,1.35,0,1.32,2.64,4.05,2.64,1.4,0,2.48-.81,2.48-1.91,0-2.92-7.15-.79-7.15-5.59C373.8,700.62,376.74,699.32,379.36,699.32Z"/><path d="M386.43,712.49c-.7,0-1-.27-1-.73,0-1,1.27-.19,1.27-2V695.43c0-1.32-1.45-1-1.45-1.83,0-.41.4-.49.7-.65a11.49,11.49,0,0,1,3.29-1c.84,0,1,.57,1,1.79v11.82c1-.51,4.4-3.11,4.4-4.08,0-.62-1.35-.35-1.35-1.21,0-.46.27-.65.7-.65h3.84c.64,0,1,.22,1,.65,0,.75-.75.62-1.78,1.59a39.29,39.29,0,0,0-2.81,2.89,25.67,25.67,0,0,1,4.43,5.78c.43.72,1.4.59,1.4,1.34,0,.49-.35.65-.83.65h-4.62a.76.76,0,0,1-.85-.67.22.22,0,0,1,0-.08c0-.6.75-.54.75-.87a22.88,22.88,0,0,0-2.75-4.26l-1.54,1.08v2.1c0,1.78,1.27,1,1.27,2,0,.46-.3.73-1,.73Z"/><path d="M407.92,712.76c-4.05,0-7.31-2.72-7.31-6.72s3.26-6.72,7.31-6.72,7.32,2.73,7.32,6.72S412,712.76,407.92,712.76Zm0-1.62c2,0,3.59-1.72,3.59-5.1s-1.56-5.1-3.59-5.1-3.59,1.73-3.59,5.1S405.9,711.14,407.92,711.14Z"/><path d="M417.64,712.49c-.7,0-1-.27-1-.73,0-1,1.26-.19,1.26-2V695.43c0-1.45-1.45-.81-1.45-2,0-.54,2.89-1.52,4-1.52.62,0,1,.33,1,1.79v16.08c0,1.78,1.27,1,1.27,2,0,.46-.29.73-1,.73Z"/><path d="M431.52,699.32c2.27,0,5.24,1,5.21,3.75,0,3.65-6.15,4.29-9,4.46a3.78,3.78,0,0,0,3.78,3.29,5.6,5.6,0,0,0,3.78-1.62c.32-.3.51-.57,1-.57a.57.57,0,0,1,.62.52v.1c0,1.35-3,3.51-6.24,3.51-3.72,0-6.86-2.54-6.88-6.39C423.85,702.18,426.47,699.32,431.52,699.32Zm-4,6.75c1.41-.14,5.67-.68,5.67-3.38a1.75,1.75,0,0,0-1.59-1.91h-.35c-2.56,0-3.75,2.59-3.7,5.29Z"/><path d="M449.8,701.37a6,6,0,0,1,1.67,4.16,5.47,5.47,0,0,1-2.62,4.94c1.57.46,3,1.59,3,3.1,0,2.54-2.48,4.21-7.21,4.21-4.13,0-6.18-.91-6.18-2.37s1.65-2.16,2.73-2.16c.51,0,.89.16.89.48s-.27.52-.27.87.43,1.19,2.94,1.19c2.73,0,3.7-1,3.7-2.06a2.79,2.79,0,0,0-1.92-2.29,5.54,5.54,0,0,1-1.81.3c-3.83,0-6.58-2.27-6.58-5.94,0-4.27,2.83-6.48,7-6.48,1.83,0,3.67.27,5.51.27,1.48,0,1.67.38,1.67.86,0,.65-.35.87-1.43.92Zm-5-.43c-1.64,0-2.94,1.56-2.94,4.53s1.3,4.54,2.94,4.54,2.95-1.57,2.95-4.54S446.45,700.94,444.8,700.94Z"/><path d="M463.57,712.49c-1.13,0-1.24-.59-1.19-1.46h-.11c-.75,1.14-2.45,1.73-4.26,1.73-3.08,0-4.75-1.89-4.75-4,0-3.67,5-5.08,8.85-5.08a2.54,2.54,0,0,0-2.32-2.75h-.38c-2.13,0-2.32,1.56-4.05,1.56a1.05,1.05,0,0,1-1.17-.93.76.76,0,0,1,0-.15c0-1.29,2.64-2.1,5-2.1,3.54,0,6.4,1.3,6.4,4.75v5.8c0,1.35,1.35,1,1.35,1.79,0,.59-.22.83-1.3.83Zm-1.46-7.34c-3.13,0-5.13,1.89-5.13,3.59a2.53,2.53,0,0,0,2.43,2.51,2.91,2.91,0,0,0,2.7-3Zm-5.1-9.53a2.81,2.81,0,0,1,5.61-.34,1.93,1.93,0,0,1,0,.34A2.81,2.81,0,0,1,457,696,1.93,1.93,0,0,1,457,695.62Zm4.43,0a1.62,1.62,0,1,0-1.62,1.62h0a1.64,1.64,0,0,0,1.62-1.62Z"/><path d="M469.62,712.49c-.7,0-1-.27-1-.73,0-1,1.27-.19,1.27-2v-5.45c0-3.1-1.81-1.94-1.81-3.1,0-.79.81-1,1.57-1.33a6.41,6.41,0,0,1,1.86-.59c1.19,0,1.38,2.29,1.46,3.16h0c.62-1.49,2-3.16,3.59-3.16a1.78,1.78,0,0,1,1.81,1.75v.14c0,.73-.33,1.51-1.27,1.51-.4,0-1.08-.43-1.62-.43-1.11,0-2.13,1.86-2.13,3.89v3.61c0,1.78,1.27,1,1.27,2,0,.46-.3.73-1,.73Z"/><path d="M490.3,712.49c-1.24,0-1.19-.59-1.27-1.59a5.05,5.05,0,0,1-4.35,1.86c-4.1,0-5.77-3-5.77-6.42,0-3.84,2.64-7,6.61-7a5.35,5.35,0,0,1,3.27,1.08v-5c0-1.32-1.52-1-1.52-1.94a.91.91,0,0,1,.65-.76,17.91,17.91,0,0,1,3.4-.81c.76,0,1,.17,1,1v17c0,1.35,1.29,1.16,1.29,1.79s-.21.83-1.29.83Zm-1.51-8.85a2.56,2.56,0,0,0-2.54-2.6,1.51,1.51,0,0,0-.3,0c-1.86,0-3.32,1.51-3.32,4.94s1.46,4.94,3.32,4.94a2.81,2.81,0,0,0,2.84-2.54Z"/><path d="M502.26,699.32c2.27,0,5.24,1,5.21,3.75,0,3.65-6.16,4.29-9,4.46a3.77,3.77,0,0,0,3.78,3.29A5.6,5.6,0,0,0,506,709.2c.32-.3.51-.57,1-.57a.58.58,0,0,1,.63.5v.12c0,1.35-3,3.51-6.24,3.51-3.72,0-6.86-2.54-6.88-6.39C494.59,702.18,497.21,699.32,502.26,699.32Zm-4,6.75c1.41-.14,5.67-.68,5.67-3.38a1.75,1.75,0,0,0-1.59-1.91H502c-2.56,0-3.75,2.59-3.7,5.29Z"/><path d="M519.13,704.83c0-2-.16-3.51-2.56-3.51a2.84,2.84,0,0,0-2.81,2.87v5.6c0,1.78,1.27,1,1.27,2,0,.46-.3.73-1,.73h-4c-.7,0-1-.27-1-.73,0-1,1.27-.19,1.27-2v-6.58c0-2.11-1.43-1.08-1.43-2.32,0-1,3-1.57,3.51-1.57.81,0,.92.54,1,2.16a5.7,5.7,0,0,1,4.46-2.16c3.34,0,4.88,1.67,4.88,5.29v5.18c0,1.78,1.27,1,1.27,2,0,.46-.3.73-1,.73h-4c-.7,0-1-.27-1-.73,0-1,1.26-.19,1.26-2Z"/><path d="M526.32,710.87a2.18,2.18,0,1,1,2.45,1.87l-.29,0a2,2,0,0,1-2.16-1.83Z"/><path d="M119.71,727.83c0-1.43-1.52-.73-1.52-1.89,0-.51.27-.81,1.25-.81h9.44c4.32,0,6.16,1.79,6.16,4.21,0,2.76-1.95,4.32-4.75,5h0c3.29.08,6,1.92,6,4.75,0,4.08-3.37,5.72-7.37,5.72h-9.44c-1,0-1.25-.29-1.25-.81,0-1.16,1.52-.46,1.52-1.89Zm4,6.54c2.57-.57,7-1.52,7-5,0-1.45-1.19-2.37-4.16-2.37-2.54,0-2.86.27-2.86,2Zm0,6.66c0,1.57.24,2,2.54,2,3.61,0,5.69-1.24,5.69-3.73a4.35,4.35,0,0,0-3.86-4.16l-4.37.87Z"/><path d="M138.52,744.89c-.7,0-1-.24-1-.7,0-1,1.26-.19,1.26-2v-7c0-1.32-1.45-1-1.45-1.84,0-.4.37-.56.7-.64a18.91,18.91,0,0,1,3.29-1c.84,0,1,.57,1,2v8.45c0,1.78,1.27,1,1.27,2,0,.46-.29.7-1,.7Zm3.86-16.3c0,1.19-.86,1.89-2.24,1.89a1.9,1.9,0,0,1-2.12-1.66,1.69,1.69,0,0,1,0-.23c0-1.16.89-1.89,2.24-1.89a1.9,1.9,0,0,1,2.12,1.66A1.69,1.69,0,0,1,142.38,728.59Z"/><path d="M145.76,744.89c-.7,0-1-.27-1-.73,0-1,1.27-.19,1.27-2V727.83c0-1.45-1.46-.81-1.46-2,0-.54,2.89-1.52,4-1.52.62,0,1,.33,1,1.79v16.08c0,1.78,1.27,1,1.27,2,0,.46-.3.73-1,.73Z"/><path d="M153.05,744.89c-.7,0-1-.27-1-.73,0-1,1.27-.19,1.27-2V727.83c0-1.45-1.46-.81-1.46-2,0-.54,2.89-1.52,4-1.52.62,0,1,.33,1,1.79v16.08c0,1.78,1.27,1,1.27,2,0,.46-.3.73-1,.73Z"/><path d="M166.93,731.72c2.26,0,5.23,1,5.21,3.75,0,3.65-6.16,4.29-9,4.46a3.78,3.78,0,0,0,3.78,3.29,5.6,5.6,0,0,0,3.78-1.62c.33-.3.51-.57,1-.57a.57.57,0,0,1,.62.52v.1c0,1.35-3,3.51-6.23,3.51-3.73,0-6.86-2.54-6.89-6.39C159.26,734.58,161.88,731.72,166.93,731.72Zm-4,6.75c1.4-.14,5.67-.68,5.67-3.38a1.77,1.77,0,0,0-1.61-1.91h-.34c-2.56,0-3.75,2.59-3.65,5.29Z"/><path d="M184.93,744.89c-1.24,0-1.18-.59-1.26-1.59a5.05,5.05,0,0,1-4.35,1.86c-4.1,0-5.78-3-5.78-6.42,0-3.83,2.65-7,6.62-7a5.32,5.32,0,0,1,3.26,1.08v-5c0-1.32-1.51-1-1.51-1.94a.9.9,0,0,1,.65-.76,17.91,17.91,0,0,1,3.4-.81c.76,0,1,.17,1,1v17c0,1.35,1.3,1.16,1.3,1.79s-.22.83-1.3.83ZM183.42,736a2.58,2.58,0,0,0-2.56-2.6h-.27c-1.86,0-3.32,1.51-3.32,4.94s1.46,4.94,3.32,4.94a2.8,2.8,0,0,0,2.83-2.54Z"/><path d="M196.9,731.72c2.26,0,5.23,1,5.2,3.75,0,3.65-6.15,4.29-9,4.46a3.78,3.78,0,0,0,3.78,3.29,5.6,5.6,0,0,0,3.78-1.62c.33-.3.51-.57,1-.57a.57.57,0,0,1,.62.52v.1c0,1.35-3,3.51-6.23,3.51-3.73,0-6.86-2.54-6.89-6.39C189.23,734.58,191.85,731.72,196.9,731.72Zm-4,6.75c1.4-.14,5.67-.68,5.67-3.38a1.77,1.77,0,0,0-1.61-1.91h-.34c-2.56,0-3.75,2.59-3.69,5.29Z"/><path d="M205,744.89c-.7,0-1-.27-1-.73,0-1,1.26-.19,1.26-2v-5.45c0-3.1-1.8-1.94-1.8-3.1,0-.79.81-1,1.56-1.33a6.41,6.41,0,0,1,1.86-.59c1.19,0,1.38,2.29,1.46,3.16h.06c.62-1.49,2-3.16,3.59-3.16a1.78,1.78,0,0,1,1.8,1.76v.13c0,.73-.32,1.51-1.26,1.51-.41,0-1.08-.43-1.62-.43-1.11,0-2.14,1.86-2.14,3.89v3.61c0,1.78,1.27,1,1.27,2,0,.46-.3.73-1,.73Z"/><path d="M224.57,737.23c0-2-.16-3.51-2.56-3.51a2.83,2.83,0,0,0-2.81,2.85v5.62c0,1.78,1.27.95,1.27,2,0,.46-.3.73-1,.73h-4.05c-.7,0-1-.27-1-.73,0-1,1.27-.19,1.27-2v-6.58c0-2.11-1.43-1.08-1.43-2.32,0-1,3-1.57,3.51-1.57.81,0,.92.54,1,2.16a5.68,5.68,0,0,1,4.45-2.16c3.35,0,4.89,1.67,4.89,5.29v5.18c0,1.78,1.27.95,1.27,2,0,.46-.3.73-1,.73h-4c-.7,0-1-.27-1-.73,0-1,1.27-.19,1.27-2Z"/><path d="M237.94,731.72c2.26,0,5.23,1,5.2,3.75,0,3.65-6.15,4.29-9,4.46a3.78,3.78,0,0,0,3.78,3.29,5.6,5.6,0,0,0,3.78-1.62c.32-.3.51-.57,1-.57a.57.57,0,0,1,.62.52v.1c0,1.35-3,3.51-6.24,3.51-3.72,0-6.85-2.54-6.88-6.39C230.27,734.58,232.89,731.72,237.94,731.72Zm-4,6.75c1.4-.14,5.67-.68,5.67-3.38a1.77,1.77,0,0,0-1.61-1.91h-.34c-2.56,0-3.75,2.59-3.66,5.29Z"/><path d="M264.58,744.89c-1.24,0-1.18-.59-1.27-1.59a5,5,0,0,1-4.34,1.86c-4.1,0-5.78-3-5.78-6.42,0-3.83,2.65-7,6.62-7a5.32,5.32,0,0,1,3.26,1.08v-5c0-1.32-1.51-1-1.51-1.94a.9.9,0,0,1,.65-.76,17.91,17.91,0,0,1,3.4-.81c.75,0,1,.17,1,1v17c0,1.35,1.3,1.16,1.3,1.79s-.22.83-1.3.83ZM263.07,736a2.58,2.58,0,0,0-2.56-2.6h-.27c-1.87,0-3.32,1.51-3.32,4.94s1.45,4.94,3.32,4.94a2.81,2.81,0,0,0,2.83-2.54Z"/><path d="M276.54,731.72c2.27,0,5.24,1,5.21,3.75,0,3.65-6.15,4.29-9,4.46a3.78,3.78,0,0,0,3.78,3.29,5.6,5.6,0,0,0,3.78-1.62c.32-.3.51-.57,1-.57a.57.57,0,0,1,.62.52v.1c0,1.35-3,3.51-6.24,3.51-3.72,0-6.85-2.54-6.88-6.39C268.88,734.58,271.5,731.72,276.54,731.72Zm-4,6.75c1.4-.14,5.67-.68,5.67-3.38a1.77,1.77,0,0,0-1.61-1.91h-.34c-2.55,0-3.74,2.59-3.68,5.29Z"/><path d="M284.27,744.89c-.7,0-1-.27-1-.73,0-1,1.27-.19,1.27-2V727.83c0-1.45-1.46-.81-1.46-2,0-.54,2.89-1.52,4-1.52.62,0,1,.33,1,1.79v16.08c0,1.78,1.27,1,1.27,2,0,.46-.3.73-1,.73Z"/><path d="M298.14,731.72c2.27,0,5.24,1,5.21,3.75,0,3.65-6.15,4.29-9,4.46a3.78,3.78,0,0,0,3.78,3.29A5.61,5.61,0,0,0,302,741.6c.32-.3.51-.57,1-.57a.57.57,0,0,1,.62.52v.1c0,1.35-3,3.51-6.24,3.51-3.72,0-6.85-2.54-6.88-6.39C290.48,734.58,293.1,731.72,298.14,731.72Zm-4,6.75c1.4-.14,5.66-.68,5.66-3.38a1.75,1.75,0,0,0-1.59-1.91h-.35c-2.55,0-3.74,2.59-3.68,5.29Z"/><path d="M310.78,731.72c2.89,0,4.48,1.13,4.48,2,0,1.7-.13,1.84-.59,1.84-1.19,0-1.16-2.19-3.89-2.19-1.75,0-2.16,1.08-2.16,1.78,0,2.54,7.26.87,7.26,5.4,0,2.86-2.37,4.64-5.91,4.64-3.05,0-5.21-2-5.21-2.89,0-.62.38-1.37,1.08-1.37,1.35,0,1.32,2.64,4.05,2.64,1.4,0,2.48-.81,2.48-1.91,0-2.92-7.15-.79-7.15-5.59C305.22,733,308.16,731.72,310.78,731.72Z"/><path d="M331.57,731.72c2.89,0,4.48,1.13,4.48,2,0,1.7-.13,1.84-.59,1.84-1.19,0-1.16-2.19-3.89-2.19-1.75,0-2.16,1.08-2.16,1.78,0,2.54,7.26.87,7.26,5.4,0,2.86-2.37,4.64-5.91,4.64-3.05,0-5.21-2-5.21-2.89,0-.62.38-1.37,1.08-1.37,1.35,0,1.32,2.64,4.05,2.64,1.4,0,2.48-.81,2.48-1.91,0-2.92-7.15-.79-7.15-5.59C326,733,329,731.72,331.57,731.72Z"/><path d="M345,732c.62,0,1,.22,1,.86s-.4.87-1,.87h-2.21v7.83c0,1.26.43,1.62,1.8,1.62s1.57.18,1.57.78a.84.84,0,0,1-1,.94h-3.83c-1.73,0-2.1-.29-2.1-1.75v-9.42h-1.11c-.78,0-1-.19-1-.87s.52-.78,1.52-.86c3.07-.3,2.18-4.7,3.42-4.7.57,0,.71.27.71,1.08V732Z"/><path d="M348.39,744.89c-.7,0-1-.27-1-.73,0-1,1.27-.19,1.27-2v-5.45c0-3.1-1.81-1.94-1.81-3.1,0-.79.81-1,1.57-1.33a6.41,6.41,0,0,1,1.86-.59c1.19,0,1.38,2.29,1.46,3.16h.05c.62-1.49,2-3.16,3.59-3.16a1.78,1.78,0,0,1,1.81,1.75v.14c0,.73-.32,1.51-1.27,1.51-.4,0-1.08-.43-1.62-.43-1.1,0-2.13,1.86-2.13,3.89v3.61c0,1.78,1.27,1,1.27,2,0,.46-.3.73-1,.73Z"/><path d="M368,744.89c-1.13,0-1.24-.59-1.19-1.46h-.1c-.76,1.14-2.46,1.73-4.27,1.73-3.08,0-4.75-1.89-4.75-4,0-3.67,5-5.08,8.85-5.08a2.53,2.53,0,0,0-2.29-2.75h-.41c-2.13,0-2.32,1.57-4,1.57a1.06,1.06,0,0,1-1.18-.94.66.66,0,0,1,0-.14c0-1.3,2.64-2.11,5-2.11,3.53,0,6.39,1.3,6.39,4.75v5.8c0,1.35,1.35,1,1.35,1.79,0,.59-.21.83-1.29.83Zm-1.46-7.34c-3.13,0-5.12,1.89-5.12,3.59a2.51,2.51,0,0,0,2.42,2.51,2.91,2.91,0,0,0,2.7-3Z"/><path d="M373.47,744.89c-.7,0-1-.27-1-.73,0-1,1.26-.19,1.26-2V727.83c0-1.32-1.45-1-1.45-1.83,0-.41.4-.49.7-.65a11.49,11.49,0,0,1,3.29-1c.84,0,1,.57,1,1.79V738c1-.51,4.4-3.11,4.4-4.08,0-.62-1.35-.35-1.35-1.21,0-.46.27-.65.71-.65h3.83c.65,0,1,.22,1,.65,0,.75-.75.62-1.78,1.59a38.66,38.66,0,0,0-2.8,2.89,25.63,25.63,0,0,1,4.42,5.78c.43.72,1.41.59,1.41,1.35,0,.48-.36.64-.84.64h-4.62a.76.76,0,0,1-.85-.67.22.22,0,0,1,0-.08c0-.6.76-.54.76-.87a23.07,23.07,0,0,0-2.76-4.26l-1.54,1.08v2.1c0,1.78,1.27.95,1.27,2,0,.46-.29.73-1,.73Z"/><path d="M393.67,731.72c2.89,0,4.48,1.13,4.48,2,0,1.7-.13,1.84-.59,1.84-1.19,0-1.16-2.19-3.89-2.19-1.76,0-2.16,1.08-2.16,1.78,0,2.54,7.26.87,7.26,5.4,0,2.86-2.37,4.64-5.91,4.64-3.05,0-5.21-2-5.21-2.89,0-.62.38-1.37,1.08-1.37,1.35,0,1.32,2.64,4,2.64,1.4,0,2.48-.81,2.48-1.91,0-2.92-7.15-.79-7.15-5.59C388.11,733,391.05,731.72,393.67,731.72Z"/><path d="M413.78,742.19c0,1.78,1.27.95,1.27,2,0,.46-.29.73-1,.73H410c-.7,0-1-.27-1-.73,0-1,1.26-.19,1.26-2v-8.47h-.91c-.62,0-1-.19-1-.87s.41-.86,1-.86h.94c0-3.13.24-7.88,4.59-7.88,1,0,2.38.51,2.38,1.67a1.34,1.34,0,0,1-1.25,1.41H416c-.76,0-1-.76-1.51-.76-.3,0-.73.27-.73,2.78V732h1.81c.62,0,1,.22,1,.86s-.4.87-1,.87h-1.76Z"/><path d="M418.86,744.89c-.7,0-1-.27-1-.73,0-1,1.27-.19,1.27-2v-5.45c0-3.1-1.81-1.94-1.81-3.1,0-.79.81-1,1.57-1.33a6.41,6.41,0,0,1,1.86-.59c1.19,0,1.38,2.29,1.46,3.16h.05c.62-1.49,2-3.16,3.59-3.16a1.78,1.78,0,0,1,1.81,1.75v.14c0,.73-.32,1.51-1.27,1.51-.4,0-1.08-.43-1.62-.43-1.1,0-2.13,1.86-2.13,3.89v3.61c0,1.78,1.27,1,1.27,2,0,.46-.3.73-1,.73Z"/><path d="M438.46,744.89c-1.13,0-1.24-.59-1.19-1.46h-.11c-.75,1.14-2.45,1.73-4.26,1.73-3.08,0-4.75-1.89-4.75-4,0-3.67,5-5.08,8.85-5.08a2.54,2.54,0,0,0-2.32-2.75h-.38c-2.13,0-2.32,1.57-4.05,1.57a1.07,1.07,0,0,1-1.17-.95.62.62,0,0,1,0-.13c0-1.3,2.64-2.11,5-2.11,3.54,0,6.4,1.3,6.4,4.75v5.8c0,1.35,1.35,1,1.35,1.79,0,.59-.21.83-1.29.83ZM437,737.55c-3.13,0-5.13,1.89-5.13,3.59a2.53,2.53,0,0,0,2.43,2.51,2.91,2.91,0,0,0,2.7-3Z"/><path d="M469.59,744.89c-.7,0-1-.27-1-.73,0-1,1.27-.19,1.27-2v-6c0-1.62-.78-2.43-2.11-2.43A2.65,2.65,0,0,0,465,736v6.15c0,1.78,1.26,1,1.26,2,0,.46-.29.73-1,.73h-4.05c-.71,0-1-.27-1-.73,0-1,1.27-.19,1.27-2v-6c0-1.62-.79-2.43-2.11-2.43a2.67,2.67,0,0,0-2.81,2.32v6.15c0,1.78,1.27.95,1.27,2,0,.46-.29.73-1,.73h-4.05c-.7,0-1-.27-1-.73,0-1,1.26-.19,1.26-2v-6.58c0-2.11-1.43-1.08-1.43-2.32,0-1,3-1.57,3.51-1.57.81,0,.92.54,1,2.16h.06a5.11,5.11,0,0,1,4.32-2.16,3.84,3.84,0,0,1,3.72,2.16,5.48,5.48,0,0,1,4.7-2.16c2.16,0,4.51,1.16,4.51,4.29v6.18c0,1.78,1.27.95,1.27,2,0,.46-.3.73-1,.73Z"/><path d="M482.71,745.16c-4,0-7.31-2.72-7.31-6.72s3.26-6.72,7.31-6.72,7.32,2.73,7.32,6.72S486.76,745.16,482.71,745.16Zm0-1.62c2,0,3.59-1.72,3.59-5.1s-1.56-5.1-3.59-5.1-3.59,1.73-3.59,5.1S480.69,743.54,482.71,743.54Z"/><path d="M492.41,727.83c0-1.32-1.41-1-1.41-1.83,0-.41.33-.57.65-.65a18.91,18.91,0,0,1,3.29-1c.84,0,1,.57,1,1.79v7.26a5.61,5.61,0,0,1,4-1.65c3.73,0,5.78,2.73,5.78,6.32,0,4.34-3.13,7.12-7.51,7.12-3.56,0-5.77-1.67-5.77-5.29Zm3.51,11.26c0,3.43,1.24,4.45,2.72,4.45,2,0,3.32-1.51,3.32-4.8s-1.29-5.29-3-5.29c-1.24,0-3,.86-3,3.61Z"/><path d="M508.15,744.89c-.7,0-1-.24-1-.7,0-1,1.27-.19,1.27-2v-7c0-1.32-1.46-1-1.46-1.84,0-.4.38-.56.7-.64a19,19,0,0,1,3.3-1c.83,0,1,.57,1,2v8.45c0,1.78,1.27,1,1.27,2,0,.46-.3.7-1,.7Zm3.86-16.3c0,1.19-.87,1.89-2.24,1.89a1.9,1.9,0,0,1-2.12-1.66,1.69,1.69,0,0,1,0-.23c0-1.16.89-1.89,2.24-1.89a1.9,1.9,0,0,1,2.11,1.67,1.62,1.62,0,0,1,0,.22Z"/><path d="M515.38,744.89c-.7,0-1-.27-1-.73,0-1,1.27-.19,1.27-2V727.83c0-1.45-1.45-.81-1.45-2,0-.54,2.88-1.52,4-1.52.62,0,1,.33,1,1.79v16.08c0,1.78,1.27,1,1.27,2,0,.46-.3.73-1,.73Z"/><path d="M529.26,731.72c2.27,0,5.24,1,5.21,3.75,0,3.65-6.16,4.29-9,4.46a3.77,3.77,0,0,0,3.78,3.29A5.6,5.6,0,0,0,533,741.6c.32-.3.51-.57,1-.57a.56.56,0,0,1,.62.49v.13c0,1.35-3,3.51-6.23,3.51-3.73,0-6.86-2.54-6.88-6.39C521.59,734.58,524.21,731.72,529.26,731.72Zm-4,6.75c1.4-.14,5.67-.68,5.67-3.38a1.75,1.75,0,0,0-1.59-1.91H529c-2.57,0-3.75,2.59-3.7,5.29Z"/><path d="M537.39,744.89c-.7,0-1-.27-1-.73,0-1,1.27-.19,1.27-2v-5.45c0-3.1-1.81-1.94-1.81-3.1,0-.79.81-1,1.57-1.33a6.41,6.41,0,0,1,1.86-.59c1.19,0,1.37,2.29,1.45,3.16h.06c.62-1.49,2-3.16,3.59-3.16a1.78,1.78,0,0,1,1.81,1.75v.14c0,.73-.33,1.51-1.27,1.51-.41,0-1.08-.43-1.62-.43-1.11,0-2.13,1.86-2.13,3.89v3.61c0,1.78,1.27,1,1.27,2,0,.46-.3.73-1,.73Z"/><path d="M556.93,737.23c0-2-.16-3.51-2.56-3.51a2.84,2.84,0,0,0-2.81,2.87v5.6c0,1.78,1.27.95,1.27,2,0,.46-.3.73-1,.73h-4.05c-.7,0-1-.27-1-.73,0-1,1.27-.19,1.27-2v-6.58c0-2.11-1.43-1.08-1.43-2.32,0-1,3-1.57,3.51-1.57.81,0,.92.54,1,2.16a5.7,5.7,0,0,1,4.46-2.16c3.34,0,4.88,1.67,4.88,5.29v5.18c0,1.78,1.27.95,1.27,2,0,.46-.3.73-1,.73h-4c-.7,0-1-.27-1-.73,0-1,1.27-.19,1.27-2Z"/><path d="M570.3,731.72c2.27,0,5.24,1,5.21,3.75,0,3.65-6.16,4.29-9,4.46a3.77,3.77,0,0,0,3.78,3.29,5.55,5.55,0,0,0,3.77-1.62c.33-.3.52-.57,1-.57a.56.56,0,0,1,.62.49v.13c0,1.35-3,3.51-6.23,3.51-3.73,0-6.86-2.54-6.88-6.39C562.63,734.58,565.25,731.72,570.3,731.72Zm-4,6.75c1.4-.14,5.67-.68,5.67-3.38a1.75,1.75,0,0,0-1.59-1.91H570c-2.57,0-3.75,2.59-3.7,5.29Z"/><path d="M592.84,732c.62,0,1,.22,1,.86s-.41.87-1,.87h-2.21v7.83c0,1.26.43,1.62,1.81,1.62s1.56.18,1.56.78a.83.83,0,0,1-.94.94h-3.83c-1.73,0-2.11-.29-2.11-1.75v-9.42H586c-.78,0-1-.19-1-.87s.51-.78,1.51-.86c3.08-.3,2.19-4.7,3.43-4.7.57,0,.7.27.7,1.08V732Z"/><path d="M595.9,744.89c-.71,0-1-.24-1-.7,0-1,1.27-.19,1.27-2v-7c0-1.32-1.46-1-1.46-1.84,0-.4.38-.56.7-.64a18.91,18.91,0,0,1,3.29-1c.84,0,1,.57,1,2v8.45c0,1.78,1.27,1,1.27,2,0,.46-.29.7-1,.7Zm3.86-16.3c0,1.19-.87,1.89-2.24,1.89a1.89,1.89,0,0,1-2.12-1.64,1.1,1.1,0,0,1,0-.25c0-1.16.89-1.89,2.24-1.89a1.91,1.91,0,0,1,2.13,1.67A1.62,1.62,0,0,1,599.76,728.59Z"/><path d="M603.13,744.89c-.7,0-1-.27-1-.73,0-1,1.27-.19,1.27-2V727.83c0-1.45-1.46-.81-1.46-2,0-.54,2.89-1.52,4-1.52.62,0,1,.33,1,1.79v16.08c0,1.78,1.27,1,1.27,2,0,.46-.3.73-1,.73Z"/><path d="M125.21,764.12c2.54,0,5,1.3,5,2.81,0,.75-.63,1.29-1.7,1.29-1.57,0-1.27-2.64-3.41-2.64-1.83,0-3.18,2.16-3.18,5.48,0,2.83,1.73,4.56,3.75,4.56,2.57,0,3.32-2.08,4.21-2.08a.65.65,0,0,1,.68.62v0c0,1.16-2.43,3.37-5.67,3.37a6.37,6.37,0,0,1-6.69-6c0-.17,0-.33,0-.5a6.77,6.77,0,0,1,6.62-6.91Z"/><path d="M132.8,777.29c-.7,0-1-.27-1-.73,0-1,1.27-.19,1.27-2V760.23c0-1.45-1.46-.81-1.46-2,0-.54,2.89-1.52,4-1.52.62,0,1,.33,1,1.78v16.09c0,1.78,1.27.95,1.27,2,0,.46-.3.73-1,.73Z"/><path d="M146.3,777.56c-4.05,0-7.32-2.72-7.32-6.72s3.27-6.72,7.32-6.72,7.31,2.73,7.31,6.72S150.35,777.56,146.3,777.56Zm0-1.62c2,0,3.59-1.73,3.59-5.1s-1.57-5.1-3.59-5.1-3.59,1.73-3.59,5.1S144.27,775.94,146.3,775.94Z"/><path d="M166.47,777.29c-1.35,0-1.46-.46-1.62-1.7a6.26,6.26,0,0,1-4.48,2c-3.14,0-4.43-2-4.43-4.45V767.6c0-1.91-1.24-1.07-1.24-2.1,0-.86,3.24-1.35,3.64-1.35.65,0,1.11.32,1.11,2v6.39c0,2.46.59,3,2.16,3a2.76,2.76,0,0,0,3-2.48v-5.51c0-1.91-1.24-1.07-1.24-2.1,0-.86,3.24-1.35,3.64-1.35.65,0,1.11.32,1.11,2v8.55c0,1.49,1.38,1.16,1.38,1.89,0,.41-.19.73-1,.73Z"/><path d="M181.69,777.29c-1.24,0-1.18-.59-1.26-1.59a5.05,5.05,0,0,1-4.35,1.86c-4.1,0-5.78-3-5.78-6.42,0-3.84,2.65-7,6.62-7a5.32,5.32,0,0,1,3.26,1.08v-5c0-1.32-1.51-1-1.51-1.94a.9.9,0,0,1,.65-.76,17.91,17.91,0,0,1,3.4-.81c.76,0,1,.17,1,1v17c0,1.35,1.3,1.16,1.3,1.79s-.22.83-1.3.83Zm-1.51-8.85a2.57,2.57,0,0,0-2.54-2.6h-.29c-1.86,0-3.32,1.51-3.32,4.94s1.46,4.94,3.32,4.94a2.8,2.8,0,0,0,2.83-2.54Z"/><path d="M187.23,759.29v-.65c0-1,.33-1.54,1.11-1.54s1.11.57,1.11,1.54v.65l-.49,5.5c-.05.54-.24.84-.59.84s-.54-.3-.59-.84Z"/><path d="M199.65,764.12c2.27,0,5.24,1,5.21,3.75,0,3.65-6.16,4.29-9,4.46a3.77,3.77,0,0,0,3.78,3.29,5.6,5.6,0,0,0,3.78-1.62c.32-.3.51-.57,1-.57a.56.56,0,0,1,.62.49v.13c0,1.35-3,3.51-6.23,3.51-3.73,0-6.86-2.54-6.88-6.39C192,767,194.6,764.12,199.65,764.12Zm-4,6.75c1.4-.14,5.67-.68,5.67-3.38a1.75,1.75,0,0,0-1.59-1.91h-.35c-2.57,0-3.75,2.59-3.7,5.29Z"/><path d="M216.52,769.63c0-2-.16-3.51-2.56-3.51a2.84,2.84,0,0,0-2.81,2.87v5.6c0,1.78,1.27.95,1.27,2,0,.46-.3.73-1,.73h-4c-.7,0-1-.27-1-.73,0-1,1.27-.19,1.27-2V768c0-2.11-1.43-1.08-1.43-2.32,0-1,3-1.57,3.51-1.57.81,0,.92.54,1,2.16a5.7,5.7,0,0,1,4.46-2.16c3.34,0,4.88,1.67,4.88,5.29v5.18c0,1.78,1.27.95,1.27,2,0,.46-.3.73-1,.73h-4c-.7,0-1-.27-1-.73,0-1,1.27-.19,1.27-2Z"/><path d="M223.71,775.67a2.18,2.18,0,1,1,2.45,1.87l-.29,0a2,2,0,0,1-2.16-1.83Z"/><path d="M119.71,825c0-1.43-1.52-.73-1.52-1.89,0-.51.27-.81,1.25-.81H125c9.12,0,12.87,4,12.87,9.86s-3.91,9.9-10.93,9.9h-7.5c-1,0-1.25-.29-1.25-.81,0-1.16,1.52-.46,1.52-1.89Zm4,12.74c0,2.27.27,2.49,2.21,2.49,4.92,0,7.64-3.35,7.64-8,0-4.86-2.72-8-7.64-8-1.94,0-2.21.22-2.21,2.48Z"/><path d="M147,828.92c2.26,0,5.23,1.05,5.21,3.75,0,3.65-6.16,4.29-9,4.46a3.77,3.77,0,0,0,3.77,3.29,5.49,5.49,0,0,0,3.78-1.62c.33-.3.52-.57,1-.57a.57.57,0,0,1,.62.52v.1c0,1.35-3,3.51-6.23,3.51-3.73,0-6.86-2.53-6.89-6.39C139.28,831.78,141.9,828.92,147,828.92Zm-4,6.75c1.4-.14,5.67-.68,5.67-3.38a1.77,1.77,0,0,0-1.61-1.92,1.7,1.7,0,0,0-.39,0C144.11,830.38,142.93,833,143,835.67Z"/><path d="M160.85,829.19c.62,0,1,.22,1,.86s-.41.87-1,.87h-2.21v7.83c0,1.26.43,1.62,1.81,1.62s1.56.18,1.56.78a.83.83,0,0,1-.94.94h-3.83c-1.73,0-2.11-.29-2.11-1.75v-9.42H154c-.78,0-1-.19-1-.87s.51-.78,1.51-.86c3.08-.3,2.19-4.7,3.43-4.7.56,0,.7.27.7,1.08v3.62Z"/><path d="M179.08,828.92c2.26,0,5.23,1.05,5.21,3.75,0,3.65-6.16,4.29-9,4.46a3.78,3.78,0,0,0,3.78,3.29,5.49,5.49,0,0,0,3.78-1.62c.33-.3.52-.57,1-.57a.57.57,0,0,1,.62.52v.1c0,1.35-3,3.51-6.23,3.51-3.73,0-6.86-2.53-6.89-6.39C171.41,831.78,174,828.92,179.08,828.92Zm-4,6.75c1.4-.14,5.67-.68,5.67-3.38a1.77,1.77,0,0,0-1.61-1.91h-.34c-2.56,0-3.75,2.62-3.69,5.29Z"/><path d="M187.21,842.09c-.71,0-1-.27-1-.73,0-1,1.27-.19,1.27-2v-5.45c0-3.1-1.81-1.94-1.81-3.1,0-.79.81-1,1.56-1.33a6.41,6.41,0,0,1,1.86-.59c1.19,0,1.38,2.29,1.46,3.16h.06c.62-1.49,2-3.16,3.59-3.16a1.78,1.78,0,0,1,1.8,1.76v.13c0,.73-.32,1.51-1.26,1.51-.41,0-1.08-.43-1.62-.43-1.11,0-2.14,1.86-2.14,3.89v3.61c0,1.78,1.27,1,1.27,2,0,.46-.29.73-1,.73Z"/><path d="M216.52,842.09c-1.24,0-1.18-.59-1.26-1.59a5.05,5.05,0,0,1-4.35,1.86c-4.1,0-5.78-3-5.78-6.42,0-3.83,2.65-7,6.62-7A5.36,5.36,0,0,1,215,830v-5c0-1.32-1.51-1-1.51-1.94a.9.9,0,0,1,.65-.76,17.91,17.91,0,0,1,3.4-.81c.76,0,1,.17,1,1v17c0,1.35,1.3,1.16,1.3,1.79s-.22.83-1.3.83ZM215,833.24a2.58,2.58,0,0,0-2.56-2.6h-.27c-1.86,0-3.32,1.51-3.32,4.94s1.46,4.94,3.32,4.94A2.8,2.8,0,0,0,215,838Z"/><path d="M222,842.09c-.7,0-1-.24-1-.7,0-1,1.27-.19,1.27-2v-7c0-1.32-1.45-1-1.45-1.84,0-.4.37-.56.7-.64a18.66,18.66,0,0,1,3.29-1c.84,0,1,.57,1,2.05v8.45c0,1.78,1.27,1,1.27,2,0,.46-.3.7-1,.7Zm3.86-16.3c0,1.19-.86,1.89-2.24,1.89A1.9,1.9,0,0,1,221.5,826a1.69,1.69,0,0,1,0-.23c0-1.16.89-1.89,2.24-1.89a1.9,1.9,0,0,1,2.07,1.71,1.09,1.09,0,0,1,0,.18Z"/><path d="M238.34,834.43c0-1.95-.16-3.51-2.56-3.51a2.83,2.83,0,0,0-2.81,2.85v5.62c0,1.78,1.27,1,1.27,2,0,.46-.3.73-1,.73h-4.05c-.7,0-1-.27-1-.73,0-1,1.27-.19,1.27-2v-6.58c0-2.11-1.43-1.08-1.43-2.32,0-1,3-1.57,3.51-1.57.81,0,.92.54,1,2.16a5.68,5.68,0,0,1,4.45-2.16c3.35,0,4.89,1.67,4.89,5.29v5.18c0,1.78,1.27,1,1.27,2,0,.46-.3.73-1,.73H238.1c-.7,0-1-.27-1-.73,0-1,1.27-.19,1.27-2Z"/><path d="M260,842.36c-4.05,0-7.32-2.72-7.32-6.72s3.27-6.72,7.32-6.72,7.31,2.73,7.31,6.72S264,842.36,260,842.36Zm0-1.62c2,0,3.59-1.72,3.59-5.1s-1.57-5.1-3.59-5.1-3.59,1.73-3.59,5.1S257.94,840.74,260,840.74Z"/><path d="M273.63,844.47c0,1.75,1.54.92,1.54,2,0,.48-.57.7-1.27.7h-4c-.7,0-1-.27-1-.73,0-1,1.27-.19,1.27-2V832.81c0-2.11-1.59-1.08-1.59-2.32,0-1,3.13-1.57,3.67-1.57.92,0,1,.54,1.19,2.05a4.78,4.78,0,0,1,4.37-2.05c3.72,0,6,3.13,6,6.64,0,3.78-2.59,6.8-6.48,6.8-1.08,0-2.94-.21-2.94-1.24a.66.66,0,0,1,.62-.7h.06c.21,0,1,.11,1.67.11,2.51,0,3.35-2.84,3.35-4.89s-.79-5-3.35-5c-2.11,0-3.05,1.94-3.05,4Z"/><path d="M296.71,831a6,6,0,0,1,1.68,4.16,5.5,5.5,0,0,1-2.62,4.94c1.56.46,3,1.59,3,3.1,0,2.54-2.48,4.21-7.2,4.21-4.13,0-6.18-.91-6.18-2.37s1.64-2.16,2.72-2.16c.51,0,.89.16.89.48s-.27.52-.27.87.43,1.19,2.94,1.19c2.73,0,3.7-1,3.7-2.06a2.78,2.78,0,0,0-1.91-2.29,5.54,5.54,0,0,1-1.81.3c-3.84,0-6.59-2.27-6.59-5.94,0-4.27,2.84-6.48,7-6.48,1.84,0,3.67.27,5.51.27,1.48,0,1.67.38,1.67.86,0,.65-.35.87-1.43.92Zm-5-.43c-1.65,0-2.94,1.57-2.94,4.53s1.29,4.54,2.94,4.54,2.94-1.57,2.94-4.54-1.29-4.56-2.93-4.56Z"/><path d="M310.48,842.09c-1.13,0-1.24-.59-1.19-1.46h-.1c-.76,1.14-2.46,1.73-4.27,1.73-3.08,0-4.75-1.89-4.75-4,0-3.67,5-5.08,8.85-5.08a2.54,2.54,0,0,0-2.29-2.75h-.4c-2.14,0-2.33,1.57-4.05,1.57a1.06,1.06,0,0,1-1.18-.94.66.66,0,0,1,0-.14c0-1.3,2.64-2.11,5.05-2.11,3.53,0,6.39,1.3,6.39,4.75v5.8c0,1.35,1.35,1,1.35,1.79,0,.59-.21.83-1.29.83ZM309,834.75c-3.13,0-5.12,1.89-5.12,3.59a2.52,2.52,0,0,0,2.43,2.51,2.91,2.91,0,0,0,2.69-3Z"/><path d="M327.55,829.19a.56.56,0,0,1,.59.53v.09c0,.78-.51.54-.92,2.08a34,34,0,0,1-4.21,10c-.27.46-.59.48-1.65.48a2.25,2.25,0,0,1-2.13-1.24,29.49,29.49,0,0,1-3.83-9.88c-.16-.67-1.08-.65-1.08-1.51,0-.38.27-.54.92-.54h4.48c.59,0,.81.27.81.59,0,.87-1.35.65-1.35,1.57,0,2.08,1.94,6.5,3.07,8.42,1.46-2.32,2.81-6,2.81-8,0-1.24-1.35-1-1.35-2,0-.4.33-.59.87-.59Z"/><path d="M336.21,828.92c2.27,0,5.24,1.05,5.21,3.75,0,3.65-6.15,4.29-9,4.46a3.78,3.78,0,0,0,3.78,3.29,5.53,5.53,0,0,0,3.8-1.62c.32-.3.51-.57,1-.57a.57.57,0,0,1,.62.52v.1c0,1.35-3,3.51-6.24,3.51-3.72,0-6.85-2.53-6.88-6.39C328.55,831.78,331.17,828.92,336.21,828.92Zm-4,6.75c1.4-.14,5.66-.68,5.66-3.38a1.75,1.75,0,0,0-1.59-1.91h-.35c-2.55,0-3.74,2.62-3.68,5.29Z"/><path d="M361.78,842.09c-1.13,0-1.24-.59-1.19-1.46h-.1c-.76,1.14-2.46,1.73-4.27,1.73-3.08,0-4.75-1.89-4.75-4,0-3.67,5-5.08,8.85-5.08a2.53,2.53,0,0,0-2.29-2.75h-.41c-2.13,0-2.32,1.57-4,1.57a1.06,1.06,0,0,1-1.18-.94.66.66,0,0,1,0-.14c0-1.3,2.64-2.11,5.05-2.11,3.53,0,6.39,1.3,6.39,4.75v5.8c0,1.35,1.35,1,1.35,1.79,0,.59-.21.83-1.29.83Zm-1.46-7.34c-3.13,0-5.12,1.89-5.12,3.59a2.51,2.51,0,0,0,2.42,2.51,2.91,2.91,0,0,0,2.7-3Z"/><path d="M373.61,829.19c.62,0,1,.22,1,.86s-.4.87-1,.87H371.4v7.83c0,1.26.43,1.62,1.8,1.62s1.57.18,1.57.78a.84.84,0,0,1-.95.94H370c-1.73,0-2.1-.29-2.1-1.75v-9.42h-1.11c-.78,0-1-.19-1-.87s.52-.78,1.52-.86c3.07-.3,2.18-4.7,3.42-4.7.57,0,.71.27.71,1.08v3.62Z"/><path d="M390.16,828.92c2.89,0,4.48,1.13,4.48,2,0,1.7-.14,1.84-.59,1.84-1.19,0-1.16-2.19-3.89-2.19-1.76,0-2.16,1.08-2.16,1.78,0,2.54,7.26.87,7.26,5.4,0,2.86-2.37,4.64-5.91,4.64-3.05,0-5.21-2-5.21-2.89,0-.62.38-1.37,1.08-1.37,1.35,0,1.32,2.64,4,2.64,1.4,0,2.48-.81,2.48-1.91,0-2.92-7.15-.79-7.15-5.59C384.6,830.22,387.54,828.92,390.16,828.92Z"/><path d="M400.31,843.79a1.16,1.16,0,0,1-1.19.68c-.59,0-.81-.35-.81-.62a1.41,1.41,0,0,1,.11-.54l1.11-2a6.33,6.33,0,0,1-3.24-5.64c0-4,3.27-6.72,7.31-6.72a8.25,8.25,0,0,1,2.46.38l.86-1.59c.27-.54.52-.84,1.17-.84s.86.38.86.73a.83.83,0,0,1-.14.46l-1.08,2a6.33,6.33,0,0,1,3.19,5.59c0,4-3.27,6.72-7.32,6.72a7.3,7.3,0,0,1-2.32-.35Zm4.86-12.85a3.3,3.3,0,0,0-1.57-.4c-2,0-3.59,1.73-3.59,5.1a6.52,6.52,0,0,0,.76,3.35Zm-3,9.45a2.86,2.86,0,0,0,1.43.35c2,0,3.59-1.72,3.59-5.1a6.92,6.92,0,0,0-.7-3.29Z"/><path d="M413.73,842.09c-.7,0-1-.27-1-.73,0-1,1.27-.19,1.27-2v-5.45c0-3.1-1.81-1.94-1.81-3.1,0-.79.81-1,1.57-1.33a6.41,6.41,0,0,1,1.86-.59c1.19,0,1.38,2.29,1.46,3.16h.05c.62-1.49,2-3.16,3.59-3.16a1.78,1.78,0,0,1,1.81,1.75v.14c0,.73-.32,1.51-1.27,1.51-.4,0-1.08-.43-1.62-.43-1.1,0-2.13,1.86-2.13,3.89v3.61c0,1.78,1.27,1,1.27,2,0,.46-.3.73-1,.73Z"/><path d="M434.68,831a6,6,0,0,1,1.67,4.16,5.47,5.47,0,0,1-2.62,4.94c1.57.46,3,1.59,3,3.1,0,2.54-2.48,4.21-7.21,4.21-4.13,0-6.18-.91-6.18-2.37s1.65-2.16,2.73-2.16c.51,0,.89.16.89.48s-.27.52-.27.87.43,1.19,2.94,1.19c2.73,0,3.7-1,3.7-2.06a2.78,2.78,0,0,0-1.92-2.29,5.54,5.54,0,0,1-1.81.3c-3.83,0-6.58-2.27-6.58-5.94,0-4.27,2.83-6.48,7-6.48,1.84,0,3.67.27,5.51.27,1.48,0,1.67.38,1.67.86,0,.65-.35.87-1.43.92Zm-5-.43c-1.65,0-2.95,1.57-2.95,4.53s1.3,4.54,2.95,4.54,2.94-1.57,2.94-4.54-1.29-4.56-2.93-4.56Z"/><path d="M445.83,828.92c2.27,0,5.24,1.05,5.21,3.75,0,3.65-6.15,4.29-9,4.46a3.78,3.78,0,0,0,3.78,3.29,5.6,5.6,0,0,0,3.78-1.62c.32-.3.51-.57,1-.57a.57.57,0,0,1,.62.52v.1c0,1.35-3,3.51-6.24,3.51-3.72,0-6.85-2.53-6.88-6.39C438.17,831.78,440.78,828.92,445.83,828.92Zm-4,6.75c1.41-.14,5.67-.68,5.67-3.38a1.75,1.75,0,0,0-1.59-1.91h-.35c-2.56,0-3.75,2.62-3.7,5.29Z"/><path d="M466.43,839.39c0,1.78,1.27,1,1.27,2,0,.46-.29.73-1,.73h-4.05c-.7,0-1-.27-1-.73,0-1,1.26-.19,1.26-2v-8.47H462c-.62,0-1-.19-1-.87s.41-.86,1-.86h1c0-3.13.24-7.88,4.59-7.88,1,0,2.38.51,2.38,1.67a1.34,1.34,0,0,1-1.25,1.41h-.05c-.76,0-1-.76-1.51-.76-.3,0-.73.27-.73,2.78v2.78h1.81c.62,0,1,.22,1,.86s-.4.87-1,.87h-1.76Z"/><path d="M477.31,842.36c-4.05,0-7.31-2.72-7.31-6.72s3.26-6.72,7.31-6.72,7.32,2.73,7.32,6.72S481.36,842.36,477.31,842.36Zm0-1.62c2,0,3.59-1.72,3.59-5.1s-1.56-5.1-3.59-5.1-3.59,1.73-3.59,5.1S475.29,840.74,477.31,840.74Z"/><path d="M487.44,842.09c-.7,0-1-.27-1-.73,0-1,1.27-.19,1.27-2v-5.45c0-3.1-1.81-1.94-1.81-3.1,0-.79.81-1,1.57-1.33a6.41,6.41,0,0,1,1.86-.59c1.19,0,1.38,2.29,1.46,3.16h0c.62-1.49,2-3.16,3.59-3.16a1.78,1.78,0,0,1,1.81,1.75v.14c0,.73-.32,1.51-1.27,1.51-.4,0-1.08-.43-1.62-.43-1.11,0-2.13,1.86-2.13,3.89v3.61c0,1.78,1.27,1,1.27,2,0,.46-.3.73-1,.73Z"/><path d="M497.86,846.22c-.24,0-.57-.24-.57-.48,0-.46,1.81-1.33,2-3.65a3.5,3.5,0,0,1-.79.11,1.77,1.77,0,0,1-1.83-1.71v-.1a2,2,0,0,1,2.17-1.81h0c1.57,0,2.35,1.27,2.35,2.73C501.18,844,498.56,846.22,497.86,846.22Z"/><path d="M522.83,842.09c-1.13,0-1.24-.59-1.18-1.46h-.11c-.76,1.14-2.46,1.73-4.27,1.73-3.07,0-4.75-1.89-4.75-4,0-3.67,5-5.08,8.86-5.08a2.54,2.54,0,0,0-2.32-2.75h-.38c-2.14,0-2.32,1.57-4,1.57a1.06,1.06,0,0,1-1.18-.94.66.66,0,0,1,0-.14c0-1.3,2.65-2.11,5-2.11,3.53,0,6.4,1.3,6.4,4.75v5.8c0,1.35,1.34,1,1.34,1.79,0,.59-.21.83-1.29.83Zm-1.45-7.34c-3.14,0-5.13,1.89-5.13,3.59a2.52,2.52,0,0,0,2.43,2.51,2.92,2.92,0,0,0,2.7-3Z"/><path d="M534.66,829.19c.62,0,1,.22,1,.86s-.41.87-1,.87h-2.21v7.83c0,1.26.43,1.62,1.8,1.62s1.57.18,1.57.78a.82.82,0,0,1-.68.94H531c-1.72,0-2.1-.29-2.1-1.75v-9.42h-1.11c-.78,0-1-.19-1-.87s.51-.78,1.51-.86c3.07-.3,2.18-4.7,3.42-4.7.57,0,.71.27.71,1.08v3.62Z"/><path d="M556.58,842.09c-1.24,0-1.19-.59-1.27-1.59a5,5,0,0,1-4.34,1.86c-4.11,0-5.78-3-5.78-6.42,0-3.83,2.65-7,6.61-7a5.35,5.35,0,0,1,3.27,1.08v-5c0-1.32-1.51-1-1.51-1.94a.9.9,0,0,1,.65-.76,17.91,17.91,0,0,1,3.4-.81c.75,0,1,.17,1,1v17c0,1.35,1.3,1.16,1.3,1.79s-.22.83-1.3.83Zm-1.51-8.85a2.58,2.58,0,0,0-2.56-2.6h-.27c-1.87,0-3.32,1.51-3.32,4.94s1.45,4.94,3.32,4.94a2.81,2.81,0,0,0,2.83-2.54Z"/><path d="M568.54,828.92c2.27,0,5.24,1.05,5.21,3.75,0,3.65-6.15,4.29-9,4.46a3.78,3.78,0,0,0,3.78,3.29,5.55,5.55,0,0,0,3.78-1.62c.32-.3.51-.57,1-.57a.57.57,0,0,1,.62.52v.1c0,1.35-3,3.51-6.24,3.51-3.72,0-6.85-2.53-6.88-6.39C560.88,831.78,563.5,828.92,568.54,828.92Zm-4,6.75c1.4-.14,5.66-.68,5.66-3.38a1.75,1.75,0,0,0-1.59-1.91h-.35c-2.55,0-3.74,2.62-3.68,5.29Z"/><path d="M576.67,842.09c-.7,0-1-.27-1-.73,0-1,1.27-.19,1.27-2v-5.45c0-3.1-1.81-1.94-1.81-3.1,0-.79.81-1,1.57-1.33a6.41,6.41,0,0,1,1.86-.59c1.19,0,1.38,2.29,1.46,3.16h.05c.62-1.49,2-3.16,3.59-3.16a1.78,1.78,0,0,1,1.81,1.75v.14c0,.73-.32,1.51-1.27,1.51-.4,0-1.08-.43-1.62-.43-1.1,0-2.13,1.86-2.13,3.89v3.61c0,1.78,1.27,1,1.27,2,0,.46-.3.73-1,.73Z"/><path d="M595.55,842.09c-.71,0-1-.27-1-.73,0-1,1.26-.19,1.26-2V825c0-1.32-1.45-1-1.45-1.83,0-.41.4-.49.7-.65a11.49,11.49,0,0,1,3.29-1c.84,0,1,.57,1,1.79v11.82c1-.51,4.4-3.11,4.4-4.08,0-.62-1.35-.35-1.35-1.21,0-.46.27-.65.71-.65h3.83c.65,0,1,.22,1,.65,0,.75-.76.62-1.79,1.59a38.66,38.66,0,0,0-2.8,2.89,25.63,25.63,0,0,1,4.42,5.78c.43.72,1.41.59,1.41,1.35,0,.48-.35.64-.84.64h-4.62a.76.76,0,0,1-.85-.67.22.22,0,0,1,0-.08c0-.6.76-.54.76-.87,0-.48-1.73-3-2.76-4.26l-1.54,1.08v2.1c0,1.78,1.27,1,1.27,2,0,.46-.29.73-1,.73Z"/><path d="M621.27,842.09c-1.35,0-1.45-.46-1.62-1.7a6.26,6.26,0,0,1-4.48,2c-3.13,0-4.42-2-4.42-4.45v-5.53c0-1.92-1.25-1.08-1.25-2.11,0-.86,3.24-1.35,3.65-1.35.65,0,1.11.32,1.11,2v6.4c0,2.45.59,3,2.15,3a2.76,2.76,0,0,0,3-2.49v-5.5c0-1.92-1.24-1.08-1.24-2.11,0-.86,3.24-1.35,3.64-1.35.65,0,1.11.32,1.11,2v8.55c0,1.49,1.37,1.16,1.37,1.89,0,.41-.19.73-1,.73Z"/><path d="M635.37,834.43c0-1.95-.16-3.51-2.57-3.51a2.83,2.83,0,0,0-2.8,2.86v5.61c0,1.78,1.26,1,1.26,2,0,.46-.29.73-1,.73h-4c-.7,0-1-.27-1-.73,0-1,1.27-.19,1.27-2v-6.58c0-2.11-1.43-1.08-1.43-2.32,0-1,3-1.57,3.51-1.57.81,0,.91.54,1,2.16a5.66,5.66,0,0,1,4.45-2.16c3.35,0,4.89,1.67,4.89,5.29v5.18c0,1.78,1.27,1,1.27,2,0,.46-.3.73-1,.73h-4c-.7,0-1-.27-1-.73,0-1,1.27-.19,1.27-2Z"/><path d="M129.58,874.49c-1.24,0-1.18-.59-1.26-1.59a5.05,5.05,0,0,1-4.35,1.86c-4.1,0-5.78-3-5.78-6.42,0-3.84,2.65-7,6.62-7a5.32,5.32,0,0,1,3.26,1.08v-5c0-1.32-1.51-1-1.51-1.94a.9.9,0,0,1,.65-.76,17.91,17.91,0,0,1,3.4-.81c.76,0,1,.17,1,1v17c0,1.35,1.3,1.16,1.3,1.79s-.22.83-1.3.83Zm-1.51-8.85a2.57,2.57,0,0,0-2.54-2.6h-.29c-1.86,0-3.32,1.51-3.32,4.94s1.46,4.94,3.32,4.94a2.8,2.8,0,0,0,2.83-2.54Z"/><path d="M141.55,861.32c2.26,0,5.23,1,5.21,3.75,0,3.65-6.16,4.29-9,4.46a3.78,3.78,0,0,0,3.78,3.29,5.6,5.6,0,0,0,3.78-1.62c.33-.3.52-.57,1-.57a.57.57,0,0,1,.62.52v.1c0,1.35-3,3.51-6.23,3.51-3.73,0-6.86-2.54-6.89-6.39C133.88,864.18,136.5,861.32,141.55,861.32Zm-4,6.75c1.4-.14,5.67-.68,5.67-3.38a1.77,1.77,0,0,0-1.61-1.91h-.34c-2.56,0-3.75,2.59-3.69,5.29Z"/><path d="M149.27,874.49c-.7,0-1-.27-1-.73,0-1,1.27-.19,1.27-2V857.43c0-1.45-1.46-.81-1.46-2,0-.54,2.89-1.52,4-1.52.62,0,1,.33,1,1.79v16.08c0,1.78,1.27,1,1.27,2,0,.46-.3.73-1,.73Z"/><path d="M163.15,861.32c2.26,0,5.23,1,5.21,3.75,0,3.65-6.16,4.29-9,4.46a3.78,3.78,0,0,0,3.78,3.29A5.59,5.59,0,0,0,167,871.2c.33-.3.52-.57,1-.57a.57.57,0,0,1,.62.52v.1c0,1.35-3,3.51-6.23,3.51-3.73,0-6.86-2.54-6.89-6.39C155.48,864.18,158.1,861.32,163.15,861.32Zm-4,6.75c1.4-.14,5.67-.68,5.67-3.38a1.77,1.77,0,0,0-1.61-1.91h-.34c-2.56,0-3.75,2.59-3.69,5.29Z"/><path d="M175.78,861.32c2.89,0,4.48,1.13,4.48,2,0,1.7-.13,1.84-.59,1.84-1.19,0-1.16-2.19-3.89-2.19-1.75,0-2.16,1.08-2.16,1.78,0,2.54,7.26.86,7.26,5.4,0,2.86-2.37,4.64-5.91,4.64-3.05,0-5.21-2-5.21-2.89,0-.62.38-1.37,1.08-1.37,1.35,0,1.33,2.64,4,2.64,1.41,0,2.49-.81,2.49-1.91,0-2.92-7.16-.79-7.16-5.59C170.22,862.62,173.16,861.32,175.78,861.32Z"/><path d="M191.63,857.43c0-1.32-1.4-1-1.4-1.83,0-.41.32-.57.65-.65a18.66,18.66,0,0,1,3.29-1c.84,0,1,.57,1,1.79V863a5.61,5.61,0,0,1,4-1.65c3.72,0,5.77,2.73,5.77,6.32,0,4.34-3.13,7.12-7.5,7.12-3.56,0-5.78-1.67-5.78-5.29Zm3.51,11.26c0,3.43,1.24,4.45,2.73,4.45,2,0,3.32-1.51,3.32-4.8s-1.3-5.29-3-5.29c-1.25,0-3,.86-3,3.61Z"/><path d="M207.37,874.49c-.7,0-1-.24-1-.7,0-1,1.27-.19,1.27-2v-7c0-1.32-1.45-1-1.45-1.84,0-.4.37-.56.7-.64a18.66,18.66,0,0,1,3.29-1c.84,0,1,.57,1,2v8.45c0,1.78,1.27.94,1.27,2,0,.46-.3.7-1,.7Zm3.86-16.3c0,1.19-.86,1.89-2.24,1.89a1.9,1.9,0,0,1-2.12-1.66,1.69,1.69,0,0,1,0-.23c0-1.16.89-1.89,2.24-1.89a1.9,1.9,0,0,1,2.12,1.66A1.69,1.69,0,0,1,211.23,858.19Z"/><path d="M214.61,874.49c-.7,0-1-.27-1-.73,0-1,1.27-.19,1.27-2V857.43c0-1.45-1.46-.81-1.46-2,0-.54,2.89-1.52,4-1.52.62,0,1,.33,1,1.79v16.08c0,1.78,1.27,1,1.27,2,0,.46-.3.73-1,.73Z"/><path d="M221.9,874.49c-.7,0-1-.27-1-.73,0-1,1.27-.19,1.27-2V857.43c0-1.45-1.46-.81-1.46-2,0-.54,2.89-1.52,4-1.52.62,0,1,.33,1,1.79v16.08c0,1.78,1.27,1,1.27,2,0,.46-.3.73-1,.73Z"/><path d="M235.77,861.32c2.27,0,5.24,1,5.21,3.75,0,3.65-6.15,4.29-9,4.46a3.78,3.78,0,0,0,3.78,3.29,5.6,5.6,0,0,0,3.78-1.62c.32-.3.51-.57,1-.57a.57.57,0,0,1,.62.52v.1c0,1.35-3,3.51-6.24,3.51-3.72,0-6.85-2.54-6.88-6.39C228.11,864.18,230.73,861.32,235.77,861.32Zm-4,6.75c1.4-.14,5.67-.68,5.67-3.38a1.77,1.77,0,0,0-1.61-1.91h-.34c-2.55,0-3.74,2.59-3.68,5.29Z"/><path d="M253.78,874.49c-1.24,0-1.19-.59-1.27-1.59a5,5,0,0,1-4.34,1.86c-4.11,0-5.78-3-5.78-6.42,0-3.84,2.65-7,6.61-7a5.35,5.35,0,0,1,3.27,1.08v-5c0-1.32-1.51-1-1.51-1.94a.9.9,0,0,1,.65-.76,17.91,17.91,0,0,1,3.4-.81c.75,0,1,.17,1,1v17c0,1.35,1.3,1.16,1.3,1.79s-.22.83-1.3.83Zm-1.51-8.85a2.57,2.57,0,0,0-2.54-2.6h-.29c-1.87,0-3.32,1.51-3.32,4.94s1.45,4.94,3.32,4.94a2.81,2.81,0,0,0,2.83-2.54Z"/><path d="M265.74,861.32c2.27,0,5.24,1,5.21,3.75,0,3.65-6.15,4.29-9,4.46a3.78,3.78,0,0,0,3.78,3.29,5.6,5.6,0,0,0,3.78-1.62c.32-.3.51-.57,1-.57a.57.57,0,0,1,.62.52v.1c0,1.35-3,3.51-6.24,3.51-3.72,0-6.85-2.54-6.88-6.39C258.08,864.18,260.7,861.32,265.74,861.32Zm-4,6.75c1.4-.14,5.66-.68,5.66-3.38a1.75,1.75,0,0,0-1.59-1.91h-.35c-2.55,0-3.74,2.59-3.68,5.29Z"/><path d="M273.87,874.49c-.7,0-1-.27-1-.73,0-1,1.27-.19,1.27-2v-5.45c0-3.1-1.81-1.94-1.81-3.1,0-.79.81-1,1.57-1.33a6.41,6.41,0,0,1,1.86-.59c1.19,0,1.38,2.29,1.46,3.16h0c.62-1.49,2-3.16,3.59-3.16a1.78,1.78,0,0,1,1.81,1.75v.14c0,.73-.32,1.51-1.27,1.51-.4,0-1.08-.43-1.62-.43-1.1,0-2.13,1.86-2.13,3.89v3.61c0,1.78,1.27,1,1.27,2,0,.46-.3.73-1,.73Z"/><path d="M302.11,874.49c-1.13,0-1.24-.59-1.19-1.46h-.1c-.76,1.14-2.46,1.73-4.27,1.73-3.08,0-4.75-1.89-4.75-4,0-3.67,5-5.08,8.85-5.08a2.54,2.54,0,0,0-2.29-2.75H298c-2.14,0-2.33,1.56-4,1.56a1.06,1.06,0,0,1-1.18-.92.86.86,0,0,1,0-.16c0-1.29,2.64-2.1,5-2.1,3.53,0,6.39,1.3,6.39,4.75v5.8c0,1.35,1.35,1,1.35,1.79,0,.59-.21.83-1.29.83Zm-1.46-7.34c-3.13,0-5.12,1.89-5.12,3.59a2.52,2.52,0,0,0,2.43,2.51,2.91,2.91,0,0,0,2.69-3Z"/><path d="M312,871.79c0,1.78,1.27,1,1.27,2,0,.46-.29.73-1,.73h-4c-.71,0-1-.27-1-.73,0-1,1.27-.19,1.27-2v-8.47h-.92c-.62,0-1-.19-1-.87s.41-.86,1-.86h.94c0-3.13.25-7.88,4.59-7.88,1,0,2.38.51,2.38,1.67a1.34,1.34,0,0,1-1.25,1.41h0c-.75,0-1-.76-1.51-.76-.3,0-.73.27-.73,2.78v2.78h1.81c.62,0,1,.22,1,.86s-.4.87-1,.87H312Z"/><path d="M325.31,874.49c-.71,0-1-.27-1-.73,0-1,1.27-.19,1.27-2V857.43c0-1.45-1.46-.81-1.46-2,0-.54,2.89-1.52,4-1.52.62,0,1,.33,1,1.79v16.08c0,1.78,1.26,1,1.26,2,0,.46-.29.73-1,.73Z"/><path d="M338.8,874.76c-4,0-7.31-2.72-7.31-6.72s3.27-6.72,7.31-6.72,7.32,2.73,7.32,6.72S342.85,874.76,338.8,874.76Zm0-1.62c2,0,3.59-1.72,3.59-5.1s-1.56-5.1-3.59-5.1-3.59,1.73-3.59,5.1S336.78,873.14,338.8,873.14Z"/><path d="M359.94,861.59a.56.56,0,0,1,.6.51v.11c0,.78-.52.54-.92,2.08a34,34,0,0,1-4.21,10c-.27.46-.6.48-1.65.48a2.25,2.25,0,0,1-2.13-1.24,29.49,29.49,0,0,1-3.83-9.88c-.17-.67-1.08-.65-1.08-1.51,0-.38.27-.54.91-.54h4.49c.59,0,.81.27.81.59,0,.87-1.35.65-1.35,1.57,0,2.08,1.94,6.5,3.07,8.42,1.46-2.32,2.81-6,2.81-8,0-1.24-1.35-1-1.35-2,0-.4.32-.59.86-.59Z"/><path d="M362,874.49c-.71,0-1-.27-1-.73,0-1,1.27-.19,1.27-2V857.43c0-1.45-1.46-.81-1.46-2,0-.54,2.89-1.52,4-1.52.62,0,1,.33,1,1.79v16.08c0,1.78,1.27,1,1.27,2,0,.46-.29.73-1,.73Z"/><path d="M369.37,874.49c-.7,0-1-.24-1-.7,0-1,1.27-.19,1.27-2v-7c0-1.32-1.46-1-1.46-1.84,0-.4.38-.56.7-.64a19,19,0,0,1,3.3-1c.83,0,1,.57,1,2v8.45c0,1.78,1.27.94,1.27,2,0,.46-.3.7-1,.7Zm3.86-16.3c0,1.19-.86,1.89-2.24,1.89a1.9,1.9,0,0,1-2.12-1.66,1.69,1.69,0,0,1,0-.23c0-1.16.89-1.89,2.24-1.89a1.9,1.9,0,0,1,2.12,1.66,1.69,1.69,0,0,1,0,.23Z"/><path d="M387.16,863.37a6,6,0,0,1,1.67,4.16,5.47,5.47,0,0,1-2.62,4.94c1.57.46,3,1.59,3,3.1,0,2.54-2.48,4.21-7.21,4.21-4.13,0-6.18-.91-6.18-2.37s1.65-2.16,2.73-2.16c.51,0,.89.16.89.48s-.27.52-.27.87.43,1.19,2.94,1.19c2.73,0,3.7-1,3.7-2.06a2.79,2.79,0,0,0-1.92-2.29,5.54,5.54,0,0,1-1.81.3c-3.83,0-6.58-2.27-6.58-5.94,0-4.27,2.83-6.48,7-6.48,1.83,0,3.67.27,5.51.27,1.48,0,1.67.38,1.67.86,0,.65-.35.87-1.43.92Zm-5-.43c-1.65,0-3,1.56-3,4.53s1.3,4.54,3,4.54,2.94-1.57,2.94-4.54-1.29-4.53-2.93-4.53Z"/><path d="M400.2,874.49c-.7,0-1-.27-1-.73,0-1,1.27-.19,1.27-2V857.43c0-1.32-1.46-1-1.46-1.83,0-.41.41-.49.71-.65a11.49,11.49,0,0,1,3.29-1c.84,0,1,.57,1,1.79v11.82c1-.51,4.4-3.11,4.4-4.08,0-.62-1.35-.35-1.35-1.21,0-.46.27-.65.7-.65h3.84c.64,0,1,.22,1,.65,0,.75-.75.62-1.78,1.59a39.29,39.29,0,0,0-2.81,2.89,25.67,25.67,0,0,1,4.43,5.78c.43.72,1.4.59,1.4,1.34,0,.49-.35.65-.83.65h-4.62a.76.76,0,0,1-.85-.67.22.22,0,0,1,0-.08c0-.6.75-.54.75-.87a22.88,22.88,0,0,0-2.75-4.26L404,869.69v2.1c0,1.78,1.27,1,1.27,2,0,.46-.3.73-1,.73Z"/><path d="M424.69,874.49c-1.13,0-1.24-.59-1.19-1.46h-.11c-.75,1.14-2.45,1.73-4.26,1.73-3.08,0-4.75-1.89-4.75-4,0-3.67,5-5.08,8.85-5.08a2.54,2.54,0,0,0-2.32-2.75h-.38c-2.13,0-2.32,1.56-4,1.56a1.05,1.05,0,0,1-1.17-.93.76.76,0,0,1,0-.15c0-1.29,2.64-2.1,5-2.1,3.54,0,6.4,1.3,6.4,4.75v5.8c0,1.35,1.35,1,1.35,1.79,0,.59-.22.83-1.3.83Zm-1.46-7.34c-3.13,0-5.13,1.89-5.13,3.59a2.53,2.53,0,0,0,2.43,2.51,2.91,2.91,0,0,0,2.7-3Z"/><path d="M430.74,874.49c-.7,0-1-.27-1-.73,0-1,1.27-.19,1.27-2v-5.45c0-3.1-1.81-1.94-1.81-3.1,0-.79.81-1,1.57-1.33a6.41,6.41,0,0,1,1.86-.59c1.19,0,1.38,2.29,1.46,3.16h.05c.62-1.49,2-3.16,3.59-3.16a1.78,1.78,0,0,1,1.81,1.75v.14c0,.73-.33,1.51-1.27,1.51-.4,0-1.08-.43-1.62-.43-1.11,0-2.13,1.86-2.13,3.89v3.61c0,1.78,1.27,1,1.27,2,0,.46-.3.73-1,.73Z"/><path d="M450.34,874.49c-1.14,0-1.24-.59-1.19-1.46H449c-.75,1.14-2.45,1.73-4.26,1.73-3.08,0-4.75-1.89-4.75-4,0-3.67,5-5.08,8.85-5.08a2.54,2.54,0,0,0-2.32-2.75h-.38c-2.13,0-2.32,1.56-4.05,1.56a1.06,1.06,0,0,1-1.18-.92.86.86,0,0,1,0-.16c0-1.29,2.65-2.1,5.05-2.1,3.54,0,6.4,1.3,6.4,4.75v5.8c0,1.35,1.35,1,1.35,1.79,0,.59-.22.83-1.3.83Zm-1.46-7.34c-3.13,0-5.13,1.89-5.13,3.59a2.53,2.53,0,0,0,2.43,2.51,2.91,2.91,0,0,0,2.7-3Z"/><path d="M455.82,874.49c-.7,0-1-.27-1-.73,0-1,1.27-.19,1.27-2V857.43c0-1.32-1.46-1-1.46-1.83,0-.41.41-.49.71-.65a11.49,11.49,0,0,1,3.29-1c.84,0,1,.57,1,1.79v11.82c1-.51,4.4-3.11,4.4-4.08,0-.62-1.35-.35-1.35-1.21,0-.46.27-.65.7-.65h3.84c.64,0,1,.22,1,.65,0,.75-.75.62-1.78,1.59a39.29,39.29,0,0,0-2.81,2.89,25.67,25.67,0,0,1,4.43,5.78c.43.72,1.4.59,1.4,1.34,0,.49-.35.65-.83.65H464a.76.76,0,0,1-.85-.67.22.22,0,0,1,0-.08c0-.6.75-.54.75-.87a22.88,22.88,0,0,0-2.75-4.26l-1.54,1.08v2.1c0,1.78,1.27,1,1.27,2,0,.46-.3.73-1,.73Z"/><path d="M477.29,861.59c.62,0,1,.22,1,.86s-.4.87-1,.87h-2.22v7.83c0,1.26.43,1.61,1.81,1.61s1.57.19,1.57.79a.84.84,0,0,1-.95.94h-3.83c-1.73,0-2.11-.29-2.11-1.75v-9.42h-1.1c-.79,0-1-.19-1-.87s.51-.78,1.51-.86c3.08-.3,2.19-4.7,3.43-4.7.57,0,.7.27.7,1.08v3.62Z"/><path d="M486.87,861.32c2.27,0,5.24,1,5.21,3.75,0,3.65-6.16,4.29-9,4.46a3.77,3.77,0,0,0,3.78,3.29,5.6,5.6,0,0,0,3.78-1.62c.32-.3.51-.57,1-.57a.56.56,0,0,1,.62.49v.13c0,1.35-3,3.51-6.23,3.51-3.73,0-6.86-2.54-6.88-6.39C479.2,864.18,481.82,861.32,486.87,861.32Zm-4,6.75c1.41-.14,5.67-.68,5.67-3.38a1.75,1.75,0,0,0-1.59-1.91h-.35c-2.6,0-3.75,2.59-3.7,5.29Z"/><path d="M495,874.49c-.7,0-1-.27-1-.73,0-1,1.27-.19,1.27-2v-5.45c0-3.1-1.81-1.94-1.81-3.1,0-.79.81-1,1.57-1.33a6.41,6.41,0,0,1,1.86-.59c1.19,0,1.37,2.29,1.46,3.16h0c.62-1.49,2-3.16,3.59-3.16a1.78,1.78,0,0,1,1.81,1.75v.14c0,.73-.33,1.51-1.27,1.51-.41,0-1.08-.43-1.62-.43-1.11,0-2.13,1.86-2.13,3.89v3.61c0,1.78,1.27,1,1.27,2,0,.46-.3.73-1,.73Z"/><path d="M513.6,869.34c-.43,0-.78-.19-.78-1.3s.35-1.29.78-1.29h6c.44,0,.79.18.79,1.29s-.35,1.3-.79,1.3Z"/><path d="M541.6,874.49c-1.25,0-1.19-.59-1.27-1.59a5.05,5.05,0,0,1-4.35,1.86c-4.1,0-5.77-3-5.77-6.42,0-3.84,2.64-7,6.61-7a5.32,5.32,0,0,1,3.26,1.08v-5c0-1.32-1.51-1-1.51-1.94a.9.9,0,0,1,.65-.76,17.91,17.91,0,0,1,3.4-.81c.76,0,1,.17,1,1v17c0,1.35,1.3,1.16,1.3,1.79s-.22.83-1.3.83Zm-1.52-8.85a2.56,2.56,0,0,0-2.52-2.6,1.61,1.61,0,0,0-.31,0c-1.86,0-3.32,1.51-3.32,4.94s1.46,4.94,3.32,4.94a2.8,2.8,0,0,0,2.83-2.54Z"/><path d="M553.56,861.32c2.27,0,5.23,1,5.21,3.75,0,3.65-6.16,4.29-9,4.46a3.77,3.77,0,0,0,3.77,3.29,5.6,5.6,0,0,0,3.78-1.62c.33-.3.52-.57,1-.57a.57.57,0,0,1,.62.52v.1c0,1.35-3,3.51-6.23,3.51-3.73,0-6.86-2.54-6.88-6.39C545.89,864.18,548.51,861.32,553.56,861.32Zm-4,6.75c1.4-.14,5.67-.68,5.67-3.38a1.77,1.77,0,0,0-1.61-1.92,1.7,1.7,0,0,0-.39,0c-2.51,0-3.69,2.59-3.64,5.29Z"/><path d="M567.46,861.59c.62,0,1,.22,1,.86s-.41.87-1,.87h-2.21v7.83c0,1.26.43,1.61,1.81,1.61s1.56.19,1.56.79a.83.83,0,0,1-.94.94h-3.83c-1.73,0-2.11-.29-2.11-1.75v-9.42h-1.11c-.78,0-1-.19-1-.87s.51-.78,1.51-.86c3.08-.3,2.19-4.7,3.43-4.7.56,0,.7.27.7,1.08v3.62Z"/><path d="M576.64,861.59c.62,0,1,.22,1,.86s-.41.87-1,.87h-2.21v7.83c0,1.26.43,1.61,1.81,1.61s1.56.19,1.56.79a.83.83,0,0,1-.94.94H573c-1.73,0-2.11-.29-2.11-1.75v-9.42h-1.11c-.78,0-1-.19-1-.87s.51-.78,1.51-.86c3.08-.3,2.19-4.7,3.43-4.7.56,0,.7.27.7,1.08v3.62Z"/><path d="M586.23,861.32c2.27,0,5.23,1,5.21,3.75,0,3.65-6.16,4.29-9,4.46a3.77,3.77,0,0,0,3.77,3.29A5.62,5.62,0,0,0,590,871.2c.33-.3.52-.57,1-.57a.57.57,0,0,1,.62.52v.1c0,1.35-3,3.51-6.23,3.51-3.73,0-6.86-2.54-6.89-6.39C578.56,864.18,581.18,861.32,586.23,861.32Zm-4,6.75c1.4-.14,5.67-.68,5.67-3.38a1.77,1.77,0,0,0-1.61-1.91H586c-2.56,0-3.74,2.59-3.69,5.29Z"/><path d="M613.15,863.37a6,6,0,0,1,1.67,4.16,5.47,5.47,0,0,1-2.62,4.94c1.57.46,3,1.59,3,3.1,0,2.54-2.49,4.21-7.21,4.21-4.13,0-6.18-.91-6.18-2.37s1.64-2.16,2.72-2.16c.52,0,.9.16.9.48s-.27.52-.27.87.43,1.19,2.94,1.19c2.72,0,3.7-1,3.7-2.06a2.79,2.79,0,0,0-1.92-2.29,5.54,5.54,0,0,1-1.81.3c-3.83,0-6.59-2.27-6.59-5.94,0-4.27,2.84-6.48,7-6.48,1.83,0,3.67.27,5.5.27,1.49,0,1.68.38,1.68.86,0,.65-.36.87-1.43.92Zm-5-.43c-1.65,0-2.94,1.56-2.94,4.53s1.29,4.54,2.94,4.54,2.94-1.57,2.94-4.54S609.8,862.94,608.15,862.94Z"/><path d="M620.63,876.19a1.16,1.16,0,0,1-1.19.68c-.6,0-.81-.35-.81-.62a1.41,1.41,0,0,1,.11-.54l1.1-2A6.37,6.37,0,0,1,616.6,868c0-4,3.27-6.72,7.32-6.72a8.25,8.25,0,0,1,2.46.38l.86-1.59c.27-.54.51-.84,1.16-.84s.86.38.86.73a.84.84,0,0,1-.13.46l-1.08,2a6.33,6.33,0,0,1,3.18,5.59c0,4-3.26,6.72-7.31,6.72a7.3,7.3,0,0,1-2.32-.35Zm4.85-12.85a3.26,3.26,0,0,0-1.56-.4c-2,0-3.59,1.73-3.59,5.1a6.62,6.62,0,0,0,.75,3.35Zm-3,9.45a2.86,2.86,0,0,0,1.43.35c2,0,3.59-1.72,3.59-5.1a6.92,6.92,0,0,0-.7-3.29Z"/><path d="M634.05,874.49c-.71,0-1-.27-1-.73,0-1,1.27-.19,1.27-2v-5.45c0-3.1-1.81-1.94-1.81-3.1,0-.79.81-1,1.56-1.33a6.47,6.47,0,0,1,1.87-.59c1.18,0,1.37,2.29,1.45,3.16h.06c.62-1.49,2-3.16,3.59-3.16a1.79,1.79,0,0,1,1.81,1.77v.12c0,.73-.33,1.51-1.27,1.51-.41,0-1.08-.43-1.62-.43-1.11,0-2.14,1.86-2.14,3.89v3.61c0,1.78,1.27,1,1.27,2,0,.46-.29.73-1,.73Z"/><path d="M129.58,906.89c-1.24,0-1.18-.59-1.26-1.59a5.05,5.05,0,0,1-4.35,1.86c-4.1,0-5.78-3-5.78-6.42,0-3.83,2.65-7,6.62-7a5.32,5.32,0,0,1,3.26,1.08v-5c0-1.32-1.51-1-1.51-1.94a.9.9,0,0,1,.65-.76,17.91,17.91,0,0,1,3.4-.81c.76,0,1,.17,1,1v17c0,1.35,1.3,1.16,1.3,1.79s-.22.83-1.3.83ZM128.07,898a2.58,2.58,0,0,0-2.56-2.6h-.27c-1.86,0-3.32,1.51-3.32,4.94s1.46,4.94,3.32,4.94a2.8,2.8,0,0,0,2.83-2.54Z"/><path d="M145.41,906.89c-1.35,0-1.46-.46-1.62-1.7a6.26,6.26,0,0,1-4.48,2c-3.13,0-4.43-2-4.43-4.45V897.2c0-1.91-1.24-1.07-1.24-2.1,0-.86,3.24-1.35,3.64-1.35.65,0,1.11.32,1.11,2v6.4c0,2.45.59,3,2.16,3a2.76,2.76,0,0,0,3-2.49v-5.51c0-1.91-1.24-1.07-1.24-2.1,0-.86,3.24-1.35,3.64-1.35.65,0,1.11.32,1.11,2v8.55c0,1.49,1.38,1.16,1.38,1.89,0,.41-.19.73-1,.73Z"/><path d="M170.41,894a.56.56,0,0,1,.59.53v.09c0,.78-.51.54-.92,2.08a34,34,0,0,1-4.21,10c-.27.46-.59.48-1.64.48a2.25,2.25,0,0,1-2.14-1.24,29.58,29.58,0,0,1-3.83-9.88c-.16-.67-1.08-.65-1.08-1.51,0-.38.27-.54.92-.54h4.48c.59,0,.81.27.81.59,0,.87-1.35.65-1.35,1.57,0,2.08,1.94,6.5,3.08,8.42,1.45-2.32,2.8-6.05,2.8-8,0-1.24-1.35-1-1.35-2,0-.4.33-.59.87-.59Z"/><path d="M179.08,893.72c2.26,0,5.23,1,5.21,3.75,0,3.65-6.16,4.29-9,4.46a3.78,3.78,0,0,0,3.78,3.29,5.6,5.6,0,0,0,3.78-1.62c.33-.3.52-.57,1-.57a.57.57,0,0,1,.62.52v.1c0,1.35-3,3.51-6.23,3.51-3.73,0-6.86-2.54-6.89-6.39C171.41,896.58,174,893.72,179.08,893.72Zm-4,6.75c1.4-.14,5.67-.68,5.67-3.38a1.77,1.77,0,0,0-1.61-1.91h-.34c-2.56,0-3.75,2.59-3.69,5.29Z"/><path d="M197.08,906.89c-1.24,0-1.18-.59-1.26-1.59a5.05,5.05,0,0,1-4.35,1.86c-4.1,0-5.78-3-5.78-6.42,0-3.83,2.65-7,6.62-7a5.32,5.32,0,0,1,3.26,1.08v-5c0-1.32-1.51-1-1.51-1.94a.9.9,0,0,1,.65-.76,17.91,17.91,0,0,1,3.4-.81c.76,0,1,.17,1,1v17c0,1.35,1.3,1.16,1.3,1.79s-.22.83-1.3.83ZM195.57,898a2.58,2.58,0,0,0-2.56-2.6h-.27c-1.86,0-3.32,1.51-3.32,4.94s1.46,4.94,3.32,4.94a2.8,2.8,0,0,0,2.83-2.54Z"/><path d="M220.3,906.89c-1.13,0-1.24-.59-1.18-1.46H219c-.76,1.14-2.46,1.73-4.27,1.73-3.07,0-4.75-1.89-4.75-4,0-3.67,5-5.08,8.86-5.08a2.54,2.54,0,0,0-2.32-2.75h-.38c-2.14,0-2.32,1.57-4,1.57a1.06,1.06,0,0,1-1.18-.94.66.66,0,0,1,0-.14c0-1.3,2.65-2.11,5-2.11,3.53,0,6.4,1.3,6.4,4.75v5.8c0,1.35,1.35,1,1.35,1.79,0,.59-.22.83-1.3.83Zm-1.45-7.34c-3.14,0-5.13,1.89-5.13,3.59a2.52,2.52,0,0,0,2.43,2.51,2.92,2.92,0,0,0,2.7-3Z"/><path d="M232.13,894c.62,0,1,.22,1,.86s-.41.87-1,.87h-2.21v7.83c0,1.26.43,1.62,1.81,1.62s1.56.18,1.56.78a.82.82,0,0,1-.68.94h-4.1c-1.72,0-2.1-.29-2.1-1.75v-9.42H225.3c-.78,0-1-.19-1-.87s.51-.78,1.51-.86c3.07-.3,2.18-4.7,3.42-4.7.57,0,.71.27.71,1.08V894Z"/><path d="M243.61,906.89c-.71,0-1-.27-1-.73,0-1,1.27-.19,1.27-2V889.83c0-1.32-1.46-1-1.46-1.83,0-.41.4-.49.7-.65a11.49,11.49,0,0,1,3.29-1c.84,0,1,.57,1,1.79V900c1-.51,4.4-3.11,4.4-4.08,0-.62-1.35-.35-1.35-1.21,0-.46.27-.65.7-.65H255c.65,0,1,.22,1,.65,0,.75-.76.62-1.79,1.59a38.66,38.66,0,0,0-2.8,2.89,25.63,25.63,0,0,1,4.42,5.78c.44.72,1.41.59,1.41,1.35,0,.48-.35.64-.84.64h-4.61a.76.76,0,0,1-.86-.66.28.28,0,0,1,0-.09c0-.6.76-.54.76-.87a23.07,23.07,0,0,0-2.76-4.26l-1.53,1.08v2.1c0,1.78,1.26.95,1.26,2,0,.46-.29.73-1,.73Z"/><path d="M258.89,906.89c-.7,0-1-.27-1-.73,0-1,1.27-.19,1.27-2V889.83c0-1.45-1.46-.81-1.46-2,0-.54,2.89-1.52,4-1.52.62,0,1,.33,1,1.79v16.08c0,1.78,1.27,1,1.27,2,0,.46-.3.73-1,.73Z"/><path d="M266.23,906.89c-.7,0-1-.24-1-.7,0-1,1.27-.19,1.27-2v-7c0-1.32-1.46-1-1.46-1.84,0-.4.38-.56.71-.64a18.66,18.66,0,0,1,3.29-1c.84,0,1,.57,1,2v8.45c0,1.78,1.27,1,1.27,2,0,.46-.3.7-1,.7Zm3.86-16.3c0,1.19-.86,1.89-2.24,1.89a1.9,1.9,0,0,1-2.12-1.66,1.69,1.69,0,0,1,0-.23c0-1.16.89-1.89,2.24-1.89a1.9,1.9,0,0,1,2.12,1.66A1.69,1.69,0,0,1,270.09,890.59Z"/><path d="M273.31,906.89c-.71,0-1-.27-1-.73,0-1,1.27-.19,1.27-2V889.83c0-1.32-1.46-1-1.46-1.83,0-.41.4-.49.7-.65a11.49,11.49,0,0,1,3.29-1c.84,0,1,.57,1,1.79V900c1-.51,4.4-3.11,4.4-4.08,0-.62-1.35-.35-1.35-1.21,0-.46.27-.65.71-.65h3.83c.65,0,1,.22,1,.65,0,.75-.76.62-1.79,1.59a38.66,38.66,0,0,0-2.8,2.89,25.63,25.63,0,0,1,4.42,5.78c.44.72,1.41.59,1.41,1.35,0,.48-.35.64-.84.64h-4.62a.76.76,0,0,1-.85-.67.22.22,0,0,1,0-.08c0-.6.76-.54.76-.87a23.07,23.07,0,0,0-2.76-4.26l-1.54,1.08v2.1c0,1.78,1.27.95,1.27,2,0,.46-.29.73-1,.73Z"/><path d="M288.43,906.89c-.71,0-1-.27-1-.73,0-1,1.27-.19,1.27-2V889.83c0-1.32-1.46-1-1.46-1.83,0-.41.4-.49.7-.65a11.49,11.49,0,0,1,3.29-1c.84,0,1,.57,1,1.79V900c1-.51,4.4-3.11,4.4-4.08,0-.62-1.35-.35-1.35-1.21,0-.46.27-.65.71-.65h3.83c.65,0,1,.22,1,.65,0,.75-.76.62-1.79,1.59a38.66,38.66,0,0,0-2.8,2.89,25.63,25.63,0,0,1,4.42,5.78c.44.72,1.41.59,1.41,1.35,0,.48-.35.64-.84.64H296.6a.76.76,0,0,1-.85-.67.22.22,0,0,1,0-.08c0-.6.76-.54.76-.87a23.07,23.07,0,0,0-2.76-4.26l-1.54,1.08v2.1c0,1.78,1.27.95,1.27,2,0,.46-.29.73-1,.73Z"/><path d="M310.29,893.72c2.27,0,5.24,1,5.21,3.75,0,3.65-6.15,4.29-9,4.46a3.78,3.78,0,0,0,3.78,3.29,5.6,5.6,0,0,0,3.78-1.62c.32-.3.51-.57,1-.57a.57.57,0,0,1,.62.52v.1c0,1.35-3,3.51-6.24,3.51-3.72,0-6.85-2.54-6.88-6.39C302.63,896.58,305.25,893.72,310.29,893.72Zm-4,6.75c1.4-.14,5.66-.68,5.66-3.38a1.75,1.75,0,0,0-1.59-1.91H310c-2.55,0-3.74,2.59-3.68,5.29Z"/><path d="M336.94,906.89c-1.24,0-1.19-.59-1.27-1.59a5.07,5.07,0,0,1-4.34,1.86c-4.11,0-5.78-3-5.78-6.42,0-3.83,2.65-7,6.61-7a5.35,5.35,0,0,1,3.27,1.08v-5c0-1.32-1.51-1-1.51-1.94a.9.9,0,0,1,.65-.76,17.91,17.91,0,0,1,3.4-.81c.75,0,1,.17,1,1v17c0,1.35,1.29,1.16,1.29,1.79s-.21.83-1.29.83ZM335.43,898a2.58,2.58,0,0,0-2.56-2.6h-.27c-1.87,0-3.32,1.51-3.32,4.94s1.45,4.94,3.32,4.94a2.81,2.81,0,0,0,2.83-2.54Z"/><path d="M348.9,893.72c2.27,0,5.24,1,5.21,3.75,0,3.65-6.15,4.29-9,4.46a3.78,3.78,0,0,0,3.78,3.29,5.6,5.6,0,0,0,3.78-1.62c.32-.3.51-.57,1-.57a.57.57,0,0,1,.62.52v.1c0,1.35-3,3.51-6.24,3.51-3.72,0-6.85-2.54-6.88-6.39C341.24,896.58,343.86,893.72,348.9,893.72Zm-4,6.75c1.4-.14,5.66-.68,5.66-3.38a1.75,1.75,0,0,0-1.59-1.91h-.35c-2.55,0-3.74,2.59-3.68,5.29Z"/><path d="M365.24,889.83c0-1.32-1.4-1-1.4-1.83,0-.41.32-.57.64-.65a19,19,0,0,1,3.3-1c.83,0,1,.57,1,1.79v7.26a5.61,5.61,0,0,1,4-1.65c3.73,0,5.78,2.73,5.78,6.32,0,4.34-3.13,7.12-7.5,7.12-3.57,0-5.78-1.67-5.78-5.29Zm3.51,11.26c0,3.43,1.24,4.45,2.73,4.45,2,0,3.32-1.51,3.32-4.8s-1.3-5.29-3-5.29c-1.24,0-3,.86-3,3.61Z"/><path d="M381,906.89c-.7,0-1-.24-1-.7,0-1,1.27-.19,1.27-2v-7c0-1.32-1.46-1-1.46-1.84,0-.4.38-.56.7-.64a19,19,0,0,1,3.3-1c.83,0,1,.57,1,2v8.45c0,1.78,1.27,1,1.27,2,0,.46-.3.7-1,.7Zm3.86-16.3c0,1.19-.86,1.89-2.24,1.89a1.9,1.9,0,0,1-2.12-1.66,1.69,1.69,0,0,1,0-.23c0-1.16.89-1.89,2.24-1.89a1.91,1.91,0,0,1,2.1,1.68,1.48,1.48,0,0,1,0,.21Z"/><path d="M388.22,906.89c-.71,0-1-.27-1-.73,0-1,1.27-.19,1.27-2V889.83c0-1.45-1.46-.81-1.46-2,0-.54,2.89-1.52,4-1.52.62,0,1,.33,1,1.79v16.08c0,1.78,1.26,1,1.26,2,0,.46-.29.73-1,.73Z"/><path d="M395.51,906.89c-.71,0-1-.27-1-.73,0-1,1.27-.19,1.27-2V889.83c0-1.45-1.46-.81-1.46-2,0-.54,2.89-1.52,4-1.52.62,0,1,.33,1,1.79v16.08c0,1.78,1.27,1,1.27,2,0,.46-.29.73-1,.73Z"/><path d="M409.38,893.72c2.27,0,5.24,1,5.21,3.75,0,3.65-6.15,4.29-9,4.46a3.78,3.78,0,0,0,3.78,3.29,5.6,5.6,0,0,0,3.78-1.62c.32-.3.51-.57,1-.57a.57.57,0,0,1,.62.52v.1c0,1.35-3,3.51-6.24,3.51-3.72,0-6.85-2.54-6.88-6.39C401.72,896.58,404.33,893.72,409.38,893.72Zm-4,6.75c1.41-.14,5.67-.68,5.67-3.38a1.75,1.75,0,0,0-1.59-1.91h-.35c-2.56,0-3.75,2.59-3.7,5.29Z"/><path d="M427.39,906.89c-1.24,0-1.19-.59-1.27-1.59a5.05,5.05,0,0,1-4.35,1.86c-4.1,0-5.77-3-5.77-6.42,0-3.83,2.64-7,6.61-7a5.35,5.35,0,0,1,3.27,1.08v-5c0-1.32-1.51-1-1.51-1.94a.89.89,0,0,1,.64-.76,18.19,18.19,0,0,1,3.41-.81c.75,0,1,.17,1,1v17c0,1.35,1.29,1.16,1.29,1.79s-.21.83-1.29.83ZM425.88,898a2.58,2.58,0,0,0-2.56-2.6H423c-1.86,0-3.32,1.51-3.32,4.94s1.46,4.94,3.32,4.94a2.81,2.81,0,0,0,2.84-2.54Z"/><path d="M439.35,893.72c2.27,0,5.24,1,5.21,3.75,0,3.65-6.15,4.29-9,4.46a3.78,3.78,0,0,0,3.78,3.29,5.6,5.6,0,0,0,3.78-1.62c.32-.3.51-.57,1-.57a.57.57,0,0,1,.62.52v.1c0,1.35-3,3.51-6.24,3.51-3.72,0-6.85-2.54-6.88-6.39C431.69,896.58,434.3,893.72,439.35,893.72Zm-4,6.75c1.41-.14,5.67-.68,5.67-3.38a1.75,1.75,0,0,0-1.59-1.91h-.35c-2.56,0-3.75,2.59-3.7,5.29Z"/><path d="M447.48,906.89c-.7,0-1-.27-1-.73,0-1,1.27-.19,1.27-2v-5.45c0-3.1-1.81-1.94-1.81-3.1,0-.79.81-1,1.57-1.33a6.41,6.41,0,0,1,1.86-.59c1.19,0,1.38,2.29,1.46,3.16h.05c.62-1.49,2-3.16,3.59-3.16a1.78,1.78,0,0,1,1.81,1.75v.14c0,.73-.32,1.51-1.27,1.51-.4,0-1.08-.43-1.62-.43-1.11,0-2.13,1.86-2.13,3.89v3.61c0,1.78,1.27,1,1.27,2,0,.46-.3.73-1,.73Z"/><path d="M477.93,894a.56.56,0,0,1,.6.51v.11c0,.78-.52.54-.92,2.08a34,34,0,0,1-4.21,10c-.27.46-.6.48-1.65.48a2.25,2.25,0,0,1-2.13-1.24,29.49,29.49,0,0,1-3.83-9.88c-.17-.67-1.08-.65-1.08-1.51,0-.38.27-.54.91-.54h4.48c.6,0,.81.27.81.59,0,.87-1.35.65-1.35,1.57,0,2.08,1.95,6.5,3.08,8.42,1.46-2.32,2.81-6.05,2.81-8,0-1.24-1.35-1-1.35-2,0-.4.32-.59.86-.59Z"/><path d="M485.84,898.88c.46,0,.92.1,1.49.13,0-2.16-.78-3.67-2.56-3.67-2.14,0-2.16,1.73-3.81,1.73-.65,0-1.3-.52-1.3-1,0-.7,1.19-2.32,5.21-2.32,1.73,0,4.19.81,4.83,1.57a7.63,7.63,0,0,1,4.54-1.57c2.4,0,5.53,1,5.53,3.94,0,2.65-2.7,3.78-6.26,3.78a15.21,15.21,0,0,1-2.78-.16c.08,2.67,1.67,3.94,3.54,3.94a5.62,5.62,0,0,0,3.91-1.62c.32-.3.51-.57,1-.57a.68.68,0,0,1,.7.62c0,1.35-3,3.51-5.91,3.51s-4.51-1.08-5.26-2a6.4,6.4,0,0,1-5,2c-2.81,0-4.75-1.29-4.75-4S481.9,898.88,485.84,898.88Zm1.49,1.75a5.56,5.56,0,0,0-.81-.08c-2,0-3.89,1.16-3.89,2.89a2,2,0,0,0,1.89,2.1c2.3,0,2.81-2.18,2.81-3.24Zm4.86-.86c1.48,0,4.07-.71,4.07-2.43a2,2,0,0,0-1.83-2.16h-.3c-1.94,0-3.35,1.94-3.35,4.53a11.09,11.09,0,0,0,1.41.06Z"/><path d="M502,906.89c-.7,0-1-.27-1-.73,0-1,1.27-.19,1.27-2V889.83c0-1.32-1.46-1-1.46-1.83,0-.41.41-.49.71-.65a11.49,11.49,0,0,1,3.29-1c.84,0,1,.57,1,1.79V900c1-.51,4.4-3.11,4.4-4.08,0-.62-1.35-.35-1.35-1.21,0-.46.27-.65.7-.65h3.84c.64,0,1,.22,1,.65,0,.75-.75.62-1.78,1.59a39.29,39.29,0,0,0-2.81,2.89,25.67,25.67,0,0,1,4.43,5.78c.43.72,1.4.59,1.4,1.35,0,.48-.35.64-.83.64h-4.62a.76.76,0,0,1-.85-.67.22.22,0,0,1,0-.08c0-.6.75-.54.75-.87a22.88,22.88,0,0,0-2.75-4.26l-1.54,1.08v2.1c0,1.78,1.27.95,1.27,2,0,.46-.3.73-1,.73Z"/><path d="M518.79,911c-.25,0-.57-.24-.57-.48,0-.46,1.81-1.33,2-3.65a3.49,3.49,0,0,1-.78.11,1.77,1.77,0,0,1-1.84-1.7v-.11a2,2,0,0,1,2.17-1.81h0c1.56,0,2.35,1.27,2.35,2.73C522.11,908.75,519.49,911,518.79,911Z"/><path d="M539.47,893.72c2.88,0,4.48,1.13,4.48,2,0,1.7-.14,1.84-.6,1.84-1.18,0-1.16-2.19-3.88-2.19-1.76,0-2.16,1.08-2.16,1.78,0,2.54,7.26.87,7.26,5.4,0,2.86-2.38,4.64-5.91,4.64-3,0-5.21-2-5.21-2.89,0-.62.37-1.37,1.08-1.37,1.35,0,1.32,2.64,4.05,2.64,1.4,0,2.48-.81,2.48-1.91,0-2.92-7.15-.79-7.15-5.59C533.91,895,536.85,893.72,539.47,893.72Z"/><path d="M552.91,907.16c-4,0-7.31-2.72-7.31-6.72s3.26-6.72,7.31-6.72,7.32,2.73,7.32,6.72S557,907.16,552.91,907.16Zm0-1.62c2,0,3.59-1.72,3.59-5.1s-1.56-5.1-3.59-5.1-3.59,1.73-3.59,5.1S550.89,905.54,552.91,905.54Z"/><path d="M579.48,906.89c-.71,0-1-.27-1-.73,0-1,1.27-.19,1.27-2v-6c0-1.62-.79-2.43-2.11-2.43a2.67,2.67,0,0,0-2.81,2.32v6.15c0,1.78,1.27.95,1.27,2,0,.46-.29.73-1,.73h-4.05c-.7,0-1-.27-1-.73,0-1,1.26-.19,1.26-2v-6c0-1.62-.78-2.43-2.1-2.43a2.67,2.67,0,0,0-2.81,2.32v6.15c0,1.78,1.27,1,1.27,2,0,.46-.3.73-1,.73h-4c-.7,0-1-.27-1-.73,0-1,1.27-.19,1.27-2v-6.58c0-2.11-1.43-1.08-1.43-2.32,0-1,3-1.57,3.51-1.57.81,0,.92.54,1,2.16h0a5.09,5.09,0,0,1,4.32-2.16,3.86,3.86,0,0,1,3.72,2.16,5.48,5.48,0,0,1,4.7-2.16c2.16,0,4.51,1.16,4.51,4.29v6.18c0,1.78,1.26,1,1.26,2,0,.46-.29.73-1,.73Z"/><path d="M605.32,906.89c-1.25,0-1.19-.59-1.27-1.59a5.05,5.05,0,0,1-4.35,1.86c-4.1,0-5.77-3-5.77-6.42,0-3.83,2.64-7,6.61-7a5.35,5.35,0,0,1,3.27,1.08v-5c0-1.32-1.52-1-1.52-1.94a.9.9,0,0,1,.65-.76,17.91,17.91,0,0,1,3.4-.81c.76,0,1,.17,1,1v17c0,1.35,1.3,1.16,1.3,1.79s-.22.83-1.3.83ZM603.81,898a2.58,2.58,0,0,0-2.56-2.6H601c-1.86,0-3.32,1.51-3.32,4.94s1.46,4.94,3.32,4.94a2.81,2.81,0,0,0,2.84-2.54Z"/><path d="M621.14,906.89c-1.35,0-1.46-.46-1.62-1.7a6.26,6.26,0,0,1-4.48,2c-3.13,0-4.43-2-4.43-4.45V897.2c0-1.91-1.24-1.07-1.24-2.1,0-.86,3.24-1.35,3.64-1.35.65,0,1.11.32,1.11,2v6.4c0,2.45.59,3,2.16,3a2.76,2.76,0,0,0,3-2.49v-5.51c0-1.91-1.24-1.07-1.24-2.1,0-.86,3.24-1.35,3.65-1.35.64,0,1.1.32,1.1,2v8.55c0,1.49,1.38,1.16,1.38,1.89,0,.41-.19.73-1,.73Z"/><path d="M136.14,939.29c-.7,0-1-.27-1-.73,0-1,1.26-.19,1.26-2v-6c0-1.62-.78-2.43-2.1-2.43a2.67,2.67,0,0,0-2.81,2.32v6.15c0,1.78,1.27.95,1.27,2,0,.46-.3.73-1,.73h-4c-.7,0-1-.27-1-.73,0-1,1.27-.19,1.27-2v-6c0-1.62-.78-2.43-2.1-2.43a2.67,2.67,0,0,0-2.81,2.32v6.15c0,1.78,1.27,1,1.27,2,0,.46-.3.73-1,.73h-4c-.7,0-1-.27-1-.73,0-1,1.27-.19,1.27-2V930c0-2.11-1.43-1.08-1.43-2.32,0-1,3-1.57,3.51-1.57.81,0,.92.54,1,2.16h0a5.11,5.11,0,0,1,4.32-2.16,3.86,3.86,0,0,1,3.73,2.16,5.48,5.48,0,0,1,4.7-2.16c2.16,0,4.5,1.16,4.5,4.29v6.18c0,1.78,1.27.95,1.27,2,0,.46-.29.73-1,.73Z"/><path d="M149.65,926.12c2.26,0,5.23,1,5.21,3.75,0,3.65-6.16,4.29-9,4.46a3.77,3.77,0,0,0,3.77,3.29,5.6,5.6,0,0,0,3.78-1.62c.33-.3.52-.57,1-.57a.57.57,0,0,1,.62.52v.1c0,1.35-3,3.51-6.23,3.51-3.73,0-6.86-2.54-6.89-6.39C142,929,144.6,926.12,149.65,926.12Zm-4,6.75c1.4-.14,5.67-.68,5.67-3.38a1.77,1.77,0,0,0-1.61-1.91h-.34c-2.56,0-3.75,2.59-3.69,5.29Z"/><path d="M166.52,931.63c0-2-.16-3.51-2.56-3.51a2.84,2.84,0,0,0-2.81,2.87v5.6c0,1.78,1.27.95,1.27,2,0,.46-.3.73-1,.73h-4c-.7,0-1-.27-1-.73,0-1,1.27-.19,1.27-2V930c0-2.11-1.43-1.08-1.43-2.32,0-1,3-1.57,3.51-1.57.81,0,.92.54,1,2.16a5.68,5.68,0,0,1,4.45-2.16c3.35,0,4.89,1.67,4.89,5.29v5.18c0,1.78,1.27.95,1.27,2,0,.46-.3.73-1,.73h-4c-.7,0-1-.27-1-.73,0-1,1.27-.19,1.27-2Z"/><path d="M179.89,926.12c2.26,0,5.23,1,5.21,3.75,0,3.65-6.16,4.29-9,4.46a3.78,3.78,0,0,0,3.78,3.29,5.6,5.6,0,0,0,3.78-1.62c.33-.3.52-.57,1-.57a.57.57,0,0,1,.62.52v.1c0,1.35-3,3.51-6.23,3.51-3.73,0-6.86-2.54-6.89-6.39C172.22,929,174.84,926.12,179.89,926.12Zm-4,6.75c1.4-.14,5.67-.68,5.67-3.38a1.77,1.77,0,0,0-1.61-1.92,1.7,1.7,0,0,0-.39,0c-2.51,0-3.7,2.59-3.64,5.29Z"/><path d="M188,939.29c-.71,0-1-.27-1-.73,0-1,1.27-.19,1.27-2v-5.45c0-3.1-1.81-1.94-1.81-3.1,0-.79.81-1,1.56-1.33a6.41,6.41,0,0,1,1.86-.59c1.19,0,1.38,2.29,1.46,3.16h.06c.62-1.49,2-3.16,3.59-3.16a1.78,1.78,0,0,1,1.8,1.76V928c0,.73-.32,1.51-1.26,1.51-.41,0-1.08-.43-1.62-.43-1.11,0-2.14,1.86-2.14,3.89v3.61c0,1.78,1.27,1,1.27,2,0,.46-.29.73-1,.73Z"/><path d="M211.48,936.59c0,1.43,1.51.73,1.51,1.89,0,.52-.27.81-1.24.81h-4.54c-1,0-1.24-.29-1.24-.81,0-1.16,1.51-.46,1.51-1.89V922.23c0-1.43-1.51-.73-1.51-1.89,0-.51.27-.81,1.24-.81h4.54c1,0,1.24.3,1.24.81,0,1.16-1.51.46-1.51,1.89Z"/><path d="M215.82,922.23c0-1.43-1.51-.73-1.51-1.89,0-.51.27-.81,1.25-.81h4.53c1,0,1.24.3,1.24.81,0,1.16-1.51.46-1.51,1.89v7.67c2.16-1.78,7.4-6.86,7.4-8s-1.35-.7-1.35-1.51c0-.54.37-.81,1.08-.81h4.56c.65,0,1,.22,1,.81,0,1-1.22.81-2.13,1.87-1.6,1.86-3.59,3.69-4.94,5.23a39.56,39.56,0,0,1,6.45,9c.94,1.87,1.73,1.16,1.73,2.08,0,.57-.44.81-1.08.81h-5c-.81,0-1.14-.27-1.14-.81,0-.81,1.19-.7,1.19-1.29,0-1-3.81-6.32-5-7.08l-2.75,2.27v4.21c0,1.43,1.51.73,1.51,1.89,0,.52-.27.81-1.24.81h-4.53c-1,0-1.25-.29-1.25-.81,0-1.16,1.51-.46,1.51-1.89Z"/><path d="M235.8,922.23c0-1.43-1.51-.73-1.51-1.89,0-.51.27-.81,1.24-.81h4.54c1,0,1.24.3,1.24.81,0,1.16-1.51.46-1.51,1.89v7.67c2.16-1.78,7.4-6.86,7.4-8s-1.35-.7-1.35-1.51c0-.54.37-.81,1.08-.81h4.56c.65,0,1,.22,1,.81,0,1-1.22.81-2.13,1.87-1.6,1.86-3.59,3.69-4.94,5.23a39.56,39.56,0,0,1,6.45,9c.94,1.87,1.73,1.16,1.73,2.08,0,.57-.44.81-1.08.81h-5c-.81,0-1.14-.27-1.14-.81,0-.81,1.19-.7,1.19-1.29,0-1-3.81-6.32-5-7.08l-2.75,2.27v4.21c0,1.43,1.51.73,1.51,1.89,0,.52-.27.81-1.24.81h-4.54c-1,0-1.24-.29-1.24-.81,0-1.16,1.51-.46,1.51-1.89Z"/><path d="M255.51,939.29c-1,0-1.24-.29-1.24-.81,0-1.16,1.51-.46,1.51-1.89V922.23c0-1.43-1.51-.73-1.51-1.89,0-.51.27-.81,1.24-.81H267.9c1.27,0,1.6.38,1.6,2.84,0,.56-.14.78-.46.78-.6,0-.7-.54-1.87-1.21-.91-.54-2.15-.57-4.23-.57-2.89,0-3.16.13-3.16,1.89v4.43h4.7c1.56,0,1.62-.92,2.34-.92s.73.59.73,1.73c0,1.51,0,2-.7,2s-.57-1-2.4-1h-4.67v4.83c0,2.92.21,3.11,1.73,3.11,3.88,0,6.2-.27,6.85-1.25.43-.64.81-1,1.27-1a.81.81,0,0,1,.78.86c0,2.46-.54,3.21-2,3.21Z"/><path d="M281,922.23c0-1.32-1.4-1-1.4-1.83,0-.41.32-.57.65-.65a18.66,18.66,0,0,1,3.29-1c.84,0,1,.57,1,1.78v7.27a5.61,5.61,0,0,1,4-1.65c3.72,0,5.77,2.73,5.77,6.32,0,4.34-3.13,7.12-7.5,7.12-3.57,0-5.78-1.67-5.78-5.29Zm3.51,11.26c0,3.43,1.24,4.45,2.73,4.45,2,0,3.32-1.51,3.32-4.8s-1.3-5.29-3-5.29c-1.24,0-3,.86-3,3.61Z"/><path d="M299.6,941a1.14,1.14,0,0,1-1.18.68c-.6,0-.81-.35-.81-.62a1.24,1.24,0,0,1,.1-.54l1.11-2a6.35,6.35,0,0,1-3.24-5.64c0-4,3.27-6.72,7.32-6.72a7.56,7.56,0,0,1,2.45.38l.87-1.59c.27-.54.51-.84,1.16-.84s.86.38.86.73a.84.84,0,0,1-.13.46l-1.08,2a6.33,6.33,0,0,1,3.18,5.59c0,4-3.26,6.72-7.31,6.72a7.3,7.3,0,0,1-2.32-.35Zm4.86-12.85a3.26,3.26,0,0,0-1.56-.4c-2,0-3.59,1.73-3.59,5.1a6.62,6.62,0,0,0,.75,3.35Zm-3,9.45a2.86,2.86,0,0,0,1.43.35c2,0,3.59-1.73,3.59-5.1a6.93,6.93,0,0,0-.71-3.29Z"/><path d="M313,939.29c-.7,0-1-.27-1-.73,0-1,1.27-.19,1.27-2v-5.45c0-3.1-1.81-1.94-1.81-3.1,0-.79.81-1,1.57-1.33a6.41,6.41,0,0,1,1.86-.59c1.19,0,1.38,2.29,1.46,3.16h0c.62-1.49,2-3.16,3.59-3.16a1.78,1.78,0,0,1,1.81,1.75V928c0,.73-.32,1.51-1.27,1.51-.4,0-1.08-.43-1.62-.43-1.1,0-2.13,1.86-2.13,3.89v3.61c0,1.78,1.27,1,1.27,2,0,.46-.3.73-1,.73Z"/><path d="M342.34,939.29c-1.24,0-1.19-.59-1.27-1.59a5.07,5.07,0,0,1-4.34,1.86c-4.11,0-5.78-3-5.78-6.42,0-3.84,2.65-7,6.61-7a5.35,5.35,0,0,1,3.27,1.08v-5c0-1.32-1.51-1-1.51-1.94a.9.9,0,0,1,.65-.76,17.91,17.91,0,0,1,3.4-.81c.75,0,1,.17,1,1v17c0,1.35,1.29,1.16,1.29,1.79s-.21.83-1.29.83Zm-1.51-8.85a2.57,2.57,0,0,0-2.54-2.6H338c-1.87,0-3.32,1.51-3.32,4.94s1.45,4.94,3.32,4.94a2.81,2.81,0,0,0,2.83-2.54Z"/><path d="M354.3,926.12c2.27,0,5.24,1,5.21,3.75,0,3.65-6.15,4.29-9,4.46a3.78,3.78,0,0,0,3.78,3.29,5.6,5.6,0,0,0,3.78-1.62c.32-.3.51-.57,1-.57a.57.57,0,0,1,.62.52v.1c0,1.35-3,3.51-6.24,3.51-3.72,0-6.85-2.54-6.88-6.39C346.64,929,349.26,926.12,354.3,926.12Zm-4,6.75c1.4-.14,5.66-.68,5.66-3.38a1.75,1.75,0,0,0-1.59-1.91H354c-2.55,0-3.74,2.59-3.68,5.29Z"/><path d="M362,939.29c-.7,0-1-.27-1-.73,0-1,1.27-.19,1.27-2V922.23c0-1.45-1.46-.81-1.46-2,0-.54,2.89-1.52,4-1.52.63,0,1,.33,1,1.78v16.09c0,1.78,1.26.95,1.26,2,0,.46-.29.73-1,.73Z"/><path d="M375.9,926.12c2.27,0,5.24,1,5.21,3.75,0,3.65-6.15,4.29-9,4.46a3.78,3.78,0,0,0,3.78,3.29,5.6,5.6,0,0,0,3.78-1.62c.32-.3.51-.57,1-.57a.57.57,0,0,1,.62.52v.1c0,1.35-3,3.51-6.24,3.51-3.72,0-6.85-2.54-6.88-6.39C368.24,929,370.85,926.12,375.9,926.12Zm-4,6.75c1.4-.14,5.66-.68,5.66-3.38a1.75,1.75,0,0,0-1.59-1.91h-.35c-2.55,0-3.74,2.59-3.68,5.29Z"/><path d="M388.54,926.12c2.89,0,4.48,1.13,4.48,2,0,1.7-.13,1.84-.59,1.84-1.19,0-1.16-2.19-3.89-2.19-1.76,0-2.16,1.08-2.16,1.78,0,2.54,7.26.86,7.26,5.4,0,2.86-2.37,4.64-5.91,4.64-3.05,0-5.21-2-5.21-2.89,0-.62.38-1.37,1.08-1.37,1.35,0,1.32,2.64,4,2.64,1.4,0,2.48-.81,2.48-1.91,0-2.92-7.15-.79-7.15-5.59C383,927.42,385.92,926.12,388.54,926.12Z"/><path d="M421.26,939.29c-.7,0-1-.27-1-.73,0-1,1.27-.19,1.27-2v-6c0-1.62-.78-2.43-2.11-2.43a2.65,2.65,0,0,0-2.8,2.32v6.15c0,1.78,1.27.95,1.27,2,0,.46-.3.73-1,.73h-4.05c-.7,0-1-.27-1-.73,0-1,1.27-.19,1.27-2v-6c0-1.62-.78-2.43-2.11-2.43a2.65,2.65,0,0,0-2.8,2.32v6.15c0,1.78,1.26,1,1.26,2,0,.46-.29.73-1,.73h-4c-.71,0-1-.27-1-.73,0-1,1.27-.19,1.27-2V930c0-2.11-1.43-1.08-1.43-2.32,0-1,3-1.57,3.5-1.57.81,0,.92.54,1,2.16h.05a5.11,5.11,0,0,1,4.32-2.16,3.84,3.84,0,0,1,3.72,2.16,5.49,5.49,0,0,1,4.7-2.16c2.16,0,4.51,1.16,4.51,4.29v6.18c0,1.78,1.27.95,1.27,2,0,.46-.3.73-1,.73Z"/><path d="M434.76,926.12c2.27,0,5.24,1,5.21,3.75,0,3.65-6.15,4.29-9,4.46a3.78,3.78,0,0,0,3.78,3.29,5.6,5.6,0,0,0,3.78-1.62c.32-.3.51-.57,1-.57a.57.57,0,0,1,.62.52v.1c0,1.35-3,3.51-6.24,3.51-3.72,0-6.85-2.54-6.88-6.39C427.1,929,429.71,926.12,434.76,926.12Zm-4,6.75c1.41-.14,5.67-.68,5.67-3.38a1.75,1.75,0,0,0-1.59-1.91h-.35c-2.56,0-3.75,2.59-3.7,5.29Z"/><path d="M452.77,939.29c-1.24,0-1.19-.59-1.27-1.59a5.07,5.07,0,0,1-4.34,1.86c-4.11,0-5.78-3-5.78-6.42,0-3.84,2.64-7,6.61-7a5.35,5.35,0,0,1,3.27,1.08v-5c0-1.32-1.51-1-1.51-1.94a.9.9,0,0,1,.65-.76,17.91,17.91,0,0,1,3.4-.81c.75,0,1,.17,1,1v17c0,1.35,1.29,1.16,1.29,1.79s-.21.83-1.29.83Zm-1.51-8.85a2.56,2.56,0,0,0-2.54-2.6,1.51,1.51,0,0,0-.3,0c-1.86,0-3.32,1.51-3.32,4.94s1.46,4.94,3.32,4.94a2.81,2.81,0,0,0,2.84-2.54Z"/><path d="M476,939.29c-1.13,0-1.24-.59-1.19-1.46h-.11c-.75,1.14-2.45,1.73-4.26,1.73-3.08,0-4.75-1.89-4.75-4,0-3.67,5-5.08,8.85-5.08a2.54,2.54,0,0,0-2.32-2.75h-.38c-2.13,0-2.32,1.56-4,1.56a1.05,1.05,0,0,1-1.17-.93.76.76,0,0,1,0-.15c0-1.29,2.64-2.1,5-2.1,3.54,0,6.4,1.3,6.4,4.75v5.8c0,1.35,1.35,1,1.35,1.79,0,.59-.22.83-1.29.83ZM474.53,932c-3.13,0-5.13,1.89-5.13,3.59a2.53,2.53,0,0,0,2.43,2.51,2.91,2.91,0,0,0,2.7-3Z"/><path d="M490.79,931.63c0-2-.17-3.51-2.57-3.51a2.84,2.84,0,0,0-2.81,2.87v5.6c0,1.78,1.27.95,1.27,2,0,.46-.29.73-1,.73h-4.05c-.7,0-1-.27-1-.73,0-1,1.26-.19,1.26-2V930c0-2.11-1.43-1.08-1.43-2.32,0-1,3-1.57,3.51-1.57.81,0,.92.54,1,2.16a5.66,5.66,0,0,1,4.45-2.16c3.35,0,4.88,1.67,4.88,5.29v5.18c0,1.78,1.27.95,1.27,2,0,.46-.29.73-1,.73h-4c-.71,0-1-.27-1-.73,0-1,1.27-.19,1.27-2Z"/><path d="M507.85,939.29c-1.24,0-1.19-.59-1.27-1.59a5.05,5.05,0,0,1-4.35,1.86c-4.1,0-5.77-3-5.77-6.42,0-3.84,2.64-7,6.61-7a5.35,5.35,0,0,1,3.27,1.08v-5c0-1.32-1.51-1-1.51-1.94a.89.89,0,0,1,.64-.76,17.91,17.91,0,0,1,3.4-.81c.76,0,1,.17,1,1v17c0,1.35,1.29,1.16,1.29,1.79s-.21.83-1.29.83Zm-1.51-8.85a2.56,2.56,0,0,0-2.54-2.6,1.51,1.51,0,0,0-.3,0c-1.86,0-3.32,1.51-3.32,4.94s1.46,4.94,3.32,4.94a2.81,2.81,0,0,0,2.84-2.54Z"/><path d="M513.63,939.29c-.7,0-1-.27-1-.73,0-1,1.27-.19,1.27-2v-5.45c0-3.1-1.81-1.94-1.81-3.1,0-.79.81-1,1.57-1.33a6.41,6.41,0,0,1,1.86-.59c1.19,0,1.38,2.29,1.46,3.16h0c.62-1.49,2-3.16,3.59-3.16a1.78,1.78,0,0,1,1.81,1.75V928c0,.73-.33,1.51-1.27,1.51-.4,0-1.08-.43-1.62-.43-1.11,0-2.13,1.86-2.13,3.89v3.61c0,1.78,1.27,1,1.27,2,0,.46-.3.73-1,.73Z"/><path d="M530.61,926.12c2.27,0,5.24,1,5.21,3.75,0,3.65-6.15,4.29-9,4.46a3.77,3.77,0,0,0,3.78,3.29,5.6,5.6,0,0,0,3.78-1.62c.32-.3.51-.57,1-.57a.57.57,0,0,1,.62.52v.1c0,1.35-3,3.51-6.24,3.51-3.72,0-6.86-2.54-6.88-6.39C522.94,929,525.56,926.12,530.61,926.12Zm-4,6.75c1.41-.14,5.67-.68,5.67-3.38a1.75,1.75,0,0,0-1.59-1.91h-.35c-2.56,0-3.75,2.59-3.7,5.29Z"/><path d="M538.87,921.72c0-.41-.13-.92-.13-1.16,0-1.32,1.4-1.73,2.29-1.73s2.3.41,2.3,1.73a11.13,11.13,0,0,1-.14,1.16L542,932.57c-.14,1.19-.3,1.54-1,1.54s-.81-.35-.94-1.54Zm0,15.95a2.18,2.18,0,1,1,2.45,1.87l-.29,0a2,2,0,0,1-2.16-1.83Z"/></svg>
