<?xml version="1.0" encoding="utf-8"?>
<!-- Generator: Adobe Illustrator 23.0.1, SVG Export Plug-In . SVG Version: 6.00 Build 0)  -->
<svg version="1.1" id="Layer_1" xmlns="http://www.w3.org/2000/svg" xmlns:xlink="http://www.w3.org/1999/xlink" x="0px" y="0px"
	 viewBox="0 0 1920 1080" style="enable-background:new 0 0 1920 1080;" xml:space="preserve">
<style type="text/css">
	.st0{fill:url(#SVGID_1_);}
	.st1{fill:url(#SVGID_2_);}
	.st2{fill:url(#SVGID_3_);}
	.st3{opacity:0.5;}
	.st4{fill:#788BB1;}
	.st5{fill:url(#SVGID_4_);}
	.st6{fill:url(#SVGID_5_);}
	.st7{fill:url(#SVGID_6_);}
	.st8{fill:url(#SVGID_7_);}
	.st9{fill:url(#SVGID_8_);}
	.st10{fill:url(#SVGID_9_);}
	.st11{fill:url(#SVGID_10_);}
	.st12{fill:url(#SVGID_11_);}
	.st13{fill:url(#SVGID_12_);}
	.st14{fill:url(#SVGID_13_);}
	.st15{fill:url(#SVGID_14_);}
	.st16{fill:url(#SVGID_15_);}
	.st17{fill:url(#SVGID_16_);}
	.st18{fill:url(#SVGID_17_);}
	.st19{fill:#FF85B5;}
	.st20{fill:#C1FFF5;}
	.st21{fill:#F2F2F1;}
	.st22{fill:url(#SVGID_18_);}
	.st23{fill:url(#SVGID_19_);}
	.st24{fill:#FFA55D;}
	.st25{fill:#FF0000;}
	.st26{fill:url(#SVGID_20_);}
	.st27{fill:url(#SVGID_21_);}
	.st28{fill:url(#SVGID_22_);}
	.st29{fill:url(#SVGID_23_);}
	.st30{fill:url(#SVGID_24_);}
	.st31{fill:#FFF85B;}
	.st32{fill:#F4FF0F;}
	.st33{fill:#F13D24;}
	.st34{fill:#F15A24;}
	.st35{fill:#C6D0FF;}
	.st36{fill:#FF941A;}
	.st37{fill:#7F3900;}
	.st38{fill:url(#SVGID_25_);}
	.st39{fill:url(#SVGID_26_);}
	.st40{fill:url(#SVGID_27_);}
	.st41{fill:url(#SVGID_28_);}
	.st42{fill:url(#SVGID_29_);}
	.st43{fill:url(#SVGID_30_);}
	.st44{fill:#324852;}
	.st45{fill:#FFFFFF;}
	.st46{opacity:0.4;}
	.st47{fill:#88C3DE;stroke:#152230;stroke-width:7;stroke-miterlimit:10;}
	.st48{fill:none;}
	.st49{font-family:'Souvenir-Medium';}
	.st50{font-size:29px;}
</style>
<linearGradient id="SVGID_1_" gradientUnits="userSpaceOnUse" x1="962.85" y1="280.2" x2="962.85" y2="-312" gradientTransform="matrix(1 0 0 1 0 312)">
	<stop  offset="0.1605" style="stop-color:#88C3DE"/>
	<stop  offset="0.3254" style="stop-color:#86BFDA"/>
	<stop  offset="0.4864" style="stop-color:#7FB4CE"/>
	<stop  offset="0.6458" style="stop-color:#75A0BB"/>
	<stop  offset="0.8043" style="stop-color:#66859F"/>
	<stop  offset="0.9608" style="stop-color:#52637C"/>
	<stop  offset="1" style="stop-color:#4D5972"/>
</linearGradient>
<rect class="st0" width="1925.7" height="592.2"/>
<linearGradient id="SVGID_2_" gradientUnits="userSpaceOnUse" x1="962.85" y1="770" x2="962.85" y2="280.2" gradientTransform="matrix(1 0 0 1 0 312)">
	<stop  offset="0" style="stop-color:#4D4D4D"/>
	<stop  offset="6.000000e-02" style="stop-color:#575757"/>
	<stop  offset="0.53" style="stop-color:#9F9FA0"/>
	<stop  offset="1" style="stop-color:#17C2A2"/>
</linearGradient>
<rect y="592.2" class="st1" width="1925.7" height="489.8"/>
<title>titelskaerm_endelig</title>
<radialGradient id="SVGID_3_" cx="1772.5" cy="-182.44" r="98.72" gradientTransform="matrix(1 0 0 1 0 312)" gradientUnits="userSpaceOnUse">
	<stop  offset="0" style="stop-color:#FFFA2A"/>
	<stop  offset="0" style="stop-color:#FFFA2C"/>
	<stop  offset="9.000000e-02" style="stop-color:#FEF649"/>
	<stop  offset="0.18" style="stop-color:#FDF260"/>
	<stop  offset="0.28" style="stop-color:#FCF070"/>
	<stop  offset="0.39" style="stop-color:#FCEE7A"/>
	<stop  offset="0.54" style="stop-color:#FCEE7D"/>
	<stop  offset="0.65" style="stop-color:#FCEF79"/>
	<stop  offset="0.75" style="stop-color:#FCF16E"/>
	<stop  offset="0.84" style="stop-color:#FDF55C"/>
	<stop  offset="0.93" style="stop-color:#FDFA42"/>
	<stop  offset="1" style="stop-color:#FEFF2A"/>
</radialGradient>
<circle class="st2" cx="1772.5" cy="129.6" r="98.7"/>
<rect x="1365.4" y="452.5" width="63.8" height="3.6"/>
<g class="st3">
	<path class="st4" d="M663.2,131.6h417.1c30.6,0,55.4,23.7,55.4,52.9v298c0,29.2-24.8,52.9-55.4,52.9H663.2
		c-30.6,0-55.4-23.7-55.4-52.9v-298C607.8,155.3,632.6,131.6,663.2,131.6z"/>
	<path d="M1080.3,136.2c27.9,0,50.5,21.6,50.6,48.3v298c0,26.6-22.7,48.2-50.6,48.3H663.2c-27.9,0-50.5-21.6-50.6-48.3v-298
		c0-26.6,22.7-48.2,50.6-48.3L1080.3,136.2 M1080.3,127H663.2c-33.2,0.1-60.1,25.8-60.2,57.5v298c0.1,31.7,27,57.4,60.2,57.5h417.1
		c33.2-0.1,60.1-25.8,60.2-57.5v-298C1140.4,152.8,1113.5,127.1,1080.3,127L1080.3,127z"/>
</g>
<linearGradient id="SVGID_4_" gradientUnits="userSpaceOnUse" x1="1331.062" y1="419.4674" x2="1335.4921" y2="419.4674" gradientTransform="matrix(0.9583 -0.2859 0.2859 0.9583 -106.8855 553.7027)">
	<stop  offset="0" style="stop-color:#FFB580"/>
	<stop  offset="0.38" style="stop-color:#FFB47D"/>
	<stop  offset="0.61" style="stop-color:#FFB175"/>
	<stop  offset="0.8" style="stop-color:#FFAD66"/>
	<stop  offset="0.97" style="stop-color:#FFA652"/>
	<stop  offset="1" style="stop-color:#FFA54E"/>
</linearGradient>
<path class="st5" d="M1287,562.2L1287,562.2c1.2-0.4,2.4,0.3,2.8,1.5l6.1,20.5c0.3,1.2-0.3,2.4-1.5,2.7l0,0
	c-1.2,0.3-2.4-0.3-2.7-1.5l-6.1-20.5C1285.1,563.7,1285.8,562.5,1287,562.2z"/>
<linearGradient id="SVGID_5_" gradientUnits="userSpaceOnUse" x1="1199.7384" y1="87.751" x2="1204.1783" y2="87.751" gradientTransform="matrix(0.9775 0.2108 -0.2108 0.9775 108.3695 240.2488)">
	<stop  offset="0" style="stop-color:#FFB580"/>
	<stop  offset="0.38" style="stop-color:#FFB47D"/>
	<stop  offset="0.61" style="stop-color:#FFB175"/>
	<stop  offset="0.8" style="stop-color:#FFAD66"/>
	<stop  offset="0.97" style="stop-color:#FFA652"/>
	<stop  offset="1" style="stop-color:#FFA54E"/>
</linearGradient>
<path class="st6" d="M1260.4,589.4l4.5-21c0.3-1.2,1.4-2,2.6-1.7l0,0c1.2,0.3,2,1.4,1.7,2.6l-4.5,21c-0.3,1.2-1.4,2-2.6,1.7l0,0
	C1260.9,591.8,1260.1,590.6,1260.4,589.4z"/>
<linearGradient id="SVGID_6_" gradientUnits="userSpaceOnUse" x1="1208.6729" y1="90.8443" x2="1213.1128" y2="90.8443" gradientTransform="matrix(0.98 0.21 -0.21 0.98 106.92 238.19)">
	<stop  offset="0" style="stop-color:#FFB580"/>
	<stop  offset="0.38" style="stop-color:#FFB47D"/>
	<stop  offset="0.61" style="stop-color:#FFB175"/>
	<stop  offset="0.8" style="stop-color:#FFAD66"/>
	<stop  offset="0.97" style="stop-color:#FFA652"/>
	<stop  offset="1" style="stop-color:#FFA54E"/>
</linearGradient>
<path class="st7" d="M1275.5,568.5L1275.5,568.5c1.2,0.2,2,1.4,1.7,2.6c0,0,0,0,0,0l-4.5,20.9c-0.3,1.2-1.4,2-2.6,1.7c0,0,0,0,0,0
	l0,0c-1.2-0.3-2-1.4-1.7-2.6l4.5-20.9C1273.1,569,1274.3,568.2,1275.5,568.5C1275.5,568.5,1275.5,568.5,1275.5,568.5z"/>
<linearGradient id="SVGID_7_" gradientUnits="userSpaceOnUse" x1="1214.5184" y1="87.7511" x2="1218.9584" y2="87.7511" gradientTransform="matrix(0.9775 0.2108 -0.2108 0.9775 108.3561 240.251)">
	<stop  offset="0" style="stop-color:#FFB580"/>
	<stop  offset="0.38" style="stop-color:#FFB47D"/>
	<stop  offset="0.61" style="stop-color:#FFB175"/>
	<stop  offset="0.8" style="stop-color:#FFAD66"/>
	<stop  offset="0.97" style="stop-color:#FFA652"/>
	<stop  offset="1" style="stop-color:#FFA54E"/>
</linearGradient>
<path class="st8" d="M1274.8,592.5l4.5-21c0.3-1.2,1.4-2,2.6-1.7l0,0c1.2,0.3,2,1.4,1.7,2.6l-4.5,21c-0.3,1.2-1.4,2-2.6,1.7l0,0
	C1275.3,594.9,1274.6,593.7,1274.8,592.5z"/>
<linearGradient id="SVGID_8_" gradientUnits="userSpaceOnUse" x1="1221.1683" y1="88.491" x2="1225.6084" y2="88.491" gradientTransform="matrix(0.9775 0.2108 -0.2108 0.9775 108.3602 240.2472)">
	<stop  offset="0" style="stop-color:#FFB580"/>
	<stop  offset="0.38" style="stop-color:#FFB47D"/>
	<stop  offset="0.61" style="stop-color:#FFB175"/>
	<stop  offset="0.8" style="stop-color:#FFAD66"/>
	<stop  offset="0.97" style="stop-color:#FFA652"/>
	<stop  offset="1" style="stop-color:#FFA54E"/>
</linearGradient>
<path class="st9" d="M1281.2,594.7l4.5-21c0.3-1.2,1.4-2,2.6-1.7l0,0c1.2,0.3,2,1.4,1.7,2.6l-4.5,21c-0.3,1.2-1.4,2-2.6,1.7l0,0
	C1281.7,597,1280.9,595.9,1281.2,594.7z"/>
<linearGradient id="SVGID_9_" gradientUnits="userSpaceOnUse" x1="1035.0615" y1="-205.321" x2="1039.4916" y2="-205.321" gradientTransform="matrix(0.63 0.78 -0.78 0.63 663.3419 -112.873)">
	<stop  offset="0" style="stop-color:#FFB580"/>
	<stop  offset="0.38" style="stop-color:#FFB47D"/>
	<stop  offset="0.61" style="stop-color:#FFB175"/>
	<stop  offset="0.8" style="stop-color:#FFAD66"/>
	<stop  offset="0.97" style="stop-color:#FFA652"/>
	<stop  offset="1" style="stop-color:#FFA54E"/>
</linearGradient>
<path class="st10" d="M1467.2,571.9l16.7-13.5c1-0.8,2.4-0.6,3.1,0.3l0,0c0.8,1,0.6,2.3-0.3,3.1l-16.7,13.5c-1,0.8-2.3,0.6-3.1-0.3
	l0,0C1466.1,574,1466.3,572.7,1467.2,571.9L1467.2,571.9z"/>
<linearGradient id="SVGID_10_" gradientUnits="userSpaceOnUse" x1="1507.028" y1="402.9185" x2="1511.458" y2="402.9185" gradientTransform="matrix(0.9823 -0.1874 0.1874 0.9823 -81.377 469.7566)">
	<stop  offset="0" style="stop-color:#FFB580"/>
	<stop  offset="0.38" style="stop-color:#FFB47D"/>
	<stop  offset="0.61" style="stop-color:#FFB175"/>
	<stop  offset="0.8" style="stop-color:#FFAD66"/>
	<stop  offset="0.97" style="stop-color:#FFA652"/>
	<stop  offset="1" style="stop-color:#FFA54E"/>
</linearGradient>
<path class="st11" d="M1474.2,570L1474.2,570c1.2-0.2,2.4,0.6,2.6,1.8l4,21.1c0.2,1.2-0.6,2.4-1.8,2.6l0,0c-1.2,0.2-2.4-0.6-2.6-1.8
	l-4-21.1C1472.2,571.4,1473,570.3,1474.2,570z"/>
<linearGradient id="SVGID_11_" gradientUnits="userSpaceOnUse" x1="1515.7677" y1="402.7539" x2="1520.1976" y2="402.7539" gradientTransform="matrix(0.9817 -0.1903 0.1903 0.9817 -81.5864 469.0245)">
	<stop  offset="0" style="stop-color:#FFB580"/>
	<stop  offset="0.38" style="stop-color:#FFB47D"/>
	<stop  offset="0.61" style="stop-color:#FFB175"/>
	<stop  offset="0.8" style="stop-color:#FFAD66"/>
	<stop  offset="0.97" style="stop-color:#FFA652"/>
	<stop  offset="1" style="stop-color:#FFA54E"/>
</linearGradient>
<path class="st12" d="M1480.3,563.4L1480.3,563.4c1.2-0.2,2.4,0.6,2.6,1.7l4.1,21c0.2,1.2-0.6,2.4-1.7,2.6l0,0
	c-1.2,0.2-2.4-0.6-2.6-1.7l-4.1-21C1478.3,564.8,1479.1,563.6,1480.3,563.4z"/>
<linearGradient id="SVGID_12_" gradientUnits="userSpaceOnUse" x1="1521.8079" y1="402.9185" x2="1526.2379" y2="402.9185" gradientTransform="matrix(0.9823 -0.1874 0.1874 0.9823 -81.3616 469.7525)">
	<stop  offset="0" style="stop-color:#FFB580"/>
	<stop  offset="0.38" style="stop-color:#FFB47D"/>
	<stop  offset="0.61" style="stop-color:#FFB175"/>
	<stop  offset="0.8" style="stop-color:#FFAD66"/>
	<stop  offset="0.97" style="stop-color:#FFA652"/>
	<stop  offset="1" style="stop-color:#FFA54E"/>
</linearGradient>
<path class="st13" d="M1488.7,567.3L1488.7,567.3c1.2-0.2,2.4,0.6,2.6,1.8l4,21.1c0.2,1.2-0.6,2.4-1.8,2.6l0,0
	c-1.2,0.2-2.4-0.6-2.6-1.8l-4-21.1C1486.8,568.6,1487.5,567.5,1488.7,567.3z"/>
<linearGradient id="SVGID_13_" gradientUnits="userSpaceOnUse" x1="1528.4579" y1="403.6585" x2="1532.8979" y2="403.6585" gradientTransform="matrix(0.9823 -0.1874 0.1874 0.9823 -81.3681 469.7511)">
	<stop  offset="0" style="stop-color:#FFB580"/>
	<stop  offset="0.38" style="stop-color:#FFB47D"/>
	<stop  offset="0.61" style="stop-color:#FFB175"/>
	<stop  offset="0.8" style="stop-color:#FFAD66"/>
	<stop  offset="0.97" style="stop-color:#FFA652"/>
	<stop  offset="1" style="stop-color:#FFA54E"/>
</linearGradient>
<path class="st14" d="M1495.4,566.7L1495.4,566.7c1.2-0.2,2.4,0.6,2.6,1.8l4,21.1c0.2,1.2-0.6,2.4-1.8,2.6l0,0
	c-1.2,0.2-2.4-0.6-2.6-1.8l-4-21.1C1493.4,568.1,1494.2,567,1495.4,566.7L1495.4,566.7z"/>
<linearGradient id="SVGID_14_" gradientUnits="userSpaceOnUse" x1="1346.5599" y1="364.9601" x2="1372.21" y2="364.9601" gradientTransform="matrix(1 0 0 1 0.64 312.8199)">
	<stop  offset="0" style="stop-color:#FFB580"/>
	<stop  offset="0.3" style="stop-color:#FFB47C"/>
	<stop  offset="0.57" style="stop-color:#FFB071"/>
	<stop  offset="0.82" style="stop-color:#FFAB5F"/>
	<stop  offset="1" style="stop-color:#FFA54E"/>
</linearGradient>
<path class="st15" d="M1349.1,507.5h21.8c1,0,1.9,0.9,1.9,1.9v336.7c0,1-0.9,1.9-1.9,1.9h-21.8c-1,0-1.9-0.9-1.9-1.9V509.4
	C1347.2,508.4,1348.1,507.5,1349.1,507.5z"/>
<linearGradient id="SVGID_15_" gradientUnits="userSpaceOnUse" x1="1340.79" y1="122.095" x2="1424.16" y2="122.095" gradientTransform="matrix(1 0 0 1 0 312)">
	<stop  offset="0" style="stop-color:#F15A24"/>
	<stop  offset="0.21" style="stop-color:#EE5628"/>
	<stop  offset="0.42" style="stop-color:#E44A34"/>
	<stop  offset="0.63" style="stop-color:#D43647"/>
	<stop  offset="0.84" style="stop-color:#BE1A62"/>
	<stop  offset="1" style="stop-color:#AA007B"/>
</linearGradient>
<path class="st16" d="M1347,340.6h71c3.4,0,6.2,2.8,6.2,6.2v174.5c0,3.4-2.8,6.2-6.2,6.2h-71c-3.4,0-6.2-2.8-6.2-6.2V346.8
	C1340.8,343.4,1343.6,340.6,1347,340.6z"/>
<linearGradient id="SVGID_16_" gradientUnits="userSpaceOnUse" x1="1332.11" y1="-26.4" x2="1423.77" y2="-26.4" gradientTransform="matrix(1 0 0 1 0 312)">
	<stop  offset="0" style="stop-color:#FFB580"/>
	<stop  offset="0.38" style="stop-color:#FFB47D"/>
	<stop  offset="0.61" style="stop-color:#FFB175"/>
	<stop  offset="0.8" style="stop-color:#FFAD66"/>
	<stop  offset="0.97" style="stop-color:#FFA652"/>
	<stop  offset="1" style="stop-color:#FFA54E"/>
</linearGradient>
<path class="st17" d="M1377.9,216L1377.9,216c25.3,0,45.8,20.5,45.8,45.8v47.5c0,25.3-20.5,45.8-45.8,45.8h0
	c-25.3,0-45.8-20.5-45.8-45.8v-47.5C1332.1,236.5,1352.6,216,1377.9,216z"/>
<ellipse cx="1392.4" cy="268.7" rx="8.4" ry="8.8"/>
<ellipse cx="1354.2" cy="268.7" rx="8.4" ry="8.8"/>
<linearGradient id="SVGID_17_" gradientUnits="userSpaceOnUse" x1="1412.3101" y1="-36.34" x2="1435.23" y2="-36.34" gradientTransform="matrix(1 0 0 1 0 312)">
	<stop  offset="0" style="stop-color:#FFB580"/>
	<stop  offset="0.55" style="stop-color:#FFAB62"/>
	<stop  offset="1" style="stop-color:#FFA54E"/>
</linearGradient>
<ellipse class="st18" cx="1423.8" cy="275.7" rx="11.5" ry="11.9"/>
<ellipse class="st19" cx="1423.8" cy="275.7" rx="7.6" ry="8"/>
<ellipse class="st20" cx="1423.8" cy="287.6" rx="3.8" ry="4"/>
<ellipse class="st21" cx="1388.6" cy="268.7" rx="3.2" ry="3.4"/>
<ellipse class="st21" cx="1350.4" cy="268.7" rx="3.2" ry="3.4"/>
<linearGradient id="SVGID_18_" gradientUnits="userSpaceOnUse" x1="1389.3999" y1="-20.44" x2="1408.5" y2="-20.44" gradientTransform="matrix(1 0 0 1 0 312)">
	<stop  offset="0" style="stop-color:#FF85B5"/>
	<stop  offset="0.27" style="stop-color:#FF7F9F"/>
	<stop  offset="0.84" style="stop-color:#FF6F68"/>
	<stop  offset="1" style="stop-color:#FF6A57"/>
</linearGradient>
<ellipse class="st22" cx="1398.9" cy="291.6" rx="9.6" ry="8"/>
<linearGradient id="SVGID_19_" gradientUnits="userSpaceOnUse" x1="1338.4399" y1="-20.44" x2="1357.54" y2="-20.44" gradientTransform="matrix(1 0 0 1 0 312)">
	<stop  offset="0" style="stop-color:#FF85B5"/>
	<stop  offset="0.27" style="stop-color:#FF7F9F"/>
	<stop  offset="0.84" style="stop-color:#FF6F68"/>
	<stop  offset="1" style="stop-color:#FF6A57"/>
</linearGradient>
<ellipse class="st23" cx="1349.3" cy="291.6" rx="9.6" ry="8"/>
<path d="M1397.9,259.7L1397.9,259.7c-1.1-0.2-1.8-1.2-1.6-2.2l0.6-4.2c0.1-1,1-1.8,2.1-1.7c0,0,0,0,0,0l0,0c1.1,0.2,1.8,1.2,1.6,2.2
	l-0.6,4.2C1399.9,259,1398.9,259.8,1397.9,259.7z"/>
<path d="M1402.4,262.1L1402.4,262.1c-0.8-0.8-0.8-2-0.1-2.8l3.3-3.7c0.7-0.8,1.8-0.9,2.6-0.2l0.1,0.1l0,0c0.8,0.7,0.8,2,0.1,2.8
	l-3.2,3.7C1404.4,262.8,1403.2,262.8,1402.4,262.1L1402.4,262.1z"/>
<path d="M1405.2,268.7L1405.2,268.7c-0.5-1-0.1-2.2,0.9-2.7l4.3-2.2c0.9-0.5,2.1-0.1,2.5,0.9c0,0,0,0,0,0v0l0,0
	c0.5,1,0.1,2.2-0.9,2.7l-4.3,2.2C1406.8,270.1,1405.7,269.7,1405.2,268.7C1405.3,268.8,1405.2,268.8,1405.2,268.7L1405.2,268.7z"/>
<path d="M1353.1,259.1L1353.1,259.1c-1,0.3-2.1-0.3-2.4-1.3c0,0,0,0,0,0l0,0l-1.4-4.8c-0.3-1,0.3-2.1,1.3-2.5l0,0
	c1-0.3,2.1,0.3,2.4,1.3c0,0,0,0,0,0l0,0l1.4,4.8C1354.6,257.7,1354.1,258.8,1353.1,259.1z"/>
<path d="M1347,262.2L1347,262.2c-0.8,0.7-1.9,0.6-2.6-0.1l-0.1-0.1l-3.2-3.8c-0.7-0.8-0.6-2.1,0.2-2.8l0,0c0.7-0.7,1.9-0.7,2.6,0.1
	c0,0,0,0,0,0l0.1,0.1l3.2,3.8C1347.9,260.2,1347.8,261.4,1347,262.2z"/>
<path d="M1344.3,268.5L1344.3,268.5c-0.4,1-1.5,1.5-2.4,1.1c0,0,0,0,0,0h-0.1l-4.4-1.9c-1-0.5-1.4-1.6-1-2.6l0,0
	c0.4-1,1.5-1.5,2.4-1.1c0,0,0,0,0,0h0.1l4.4,1.9C1344.3,266.3,1344.8,267.5,1344.3,268.5z"/>
<path class="st24" d="M1372.2,281.7l0.2,9.9h-0.2c-5.5-0.2-9.8-4.8-9.6-10.3c0.2-5.2,4.4-9.5,9.6-9.6V281.7z"/>
<ellipse class="st25" cx="1370.3" cy="310.1" rx="3.8" ry="4"/>
<ellipse class="st25" cx="1376" cy="310.1" rx="3.8" ry="4"/>
<path class="st25" d="M1376.2,311.4l5.5-1.7c1.2,4.3-0.2,8.6-3.2,9.6s-6.6-1.8-7.8-6.1v-0.1L1376.2,311.4z"/>
<linearGradient id="SVGID_20_" gradientUnits="userSpaceOnUse" x1="1397.87" y1="364.9601" x2="1423.52" y2="364.9601" gradientTransform="matrix(1 0 0 1 0.64 312.8199)">
	<stop  offset="0" style="stop-color:#FFB580"/>
	<stop  offset="0.3" style="stop-color:#FFB47C"/>
	<stop  offset="0.57" style="stop-color:#FFB071"/>
	<stop  offset="0.82" style="stop-color:#FFAB5F"/>
	<stop  offset="1" style="stop-color:#FFA54E"/>
</linearGradient>
<path class="st26" d="M1400.4,507.5h21.8c1,0,1.9,0.9,1.9,1.9v336.7c0,1-0.9,1.9-1.9,1.9h-21.8c-1,0-1.9-0.9-1.9-1.9V509.4
	C1398.5,508.4,1399.4,507.5,1400.4,507.5z"/>
<linearGradient id="SVGID_21_" gradientUnits="userSpaceOnUse" x1="1366.2678" y1="147.4462" x2="1398.6823" y2="203.5738" gradientTransform="matrix(1 0 0 1 0 312)">
	<stop  offset="0" style="stop-color:#FFFFFF"/>
	<stop  offset="0.36" style="stop-color:#FEFDFD"/>
	<stop  offset="0.55" style="stop-color:#FAF6F5"/>
	<stop  offset="0.7" style="stop-color:#F4EAE7"/>
	<stop  offset="0.83" style="stop-color:#EBDAD4"/>
	<stop  offset="0.95" style="stop-color:#E0C4BB"/>
	<stop  offset="1" style="stop-color:#DAB9AE"/>
</linearGradient>
<rect x="1340.8" y="474.2" class="st27" width="83.4" height="26.7"/>
<linearGradient id="SVGID_22_" gradientUnits="userSpaceOnUse" x1="1294.0504" y1="-398.3022" x2="1320.4042" y2="-352.6676" gradientTransform="matrix(0.9951 9.944733e-02 -9.944733e-02 0.9951 1.8048 766.3143)">
	<stop  offset="0" style="stop-color:#FFFFFF"/>
	<stop  offset="0.36" style="stop-color:#FEFDFD"/>
	<stop  offset="0.55" style="stop-color:#FAF6F5"/>
	<stop  offset="0.7" style="stop-color:#F4EAE7"/>
	<stop  offset="0.83" style="stop-color:#EBDAD4"/>
	<stop  offset="0.95" style="stop-color:#E0C4BB"/>
	<stop  offset="1" style="stop-color:#DAB9AE"/>
</linearGradient>
<path class="st28" d="M1305.6,514.6c1.4-13.1,17.1-22.1,34.9-20.1c17.8,2,31.1,14.2,29.7,27.2c-1.4,13.1-17.1,22.1-34.9,20.1
	C1317.5,539.8,1304.2,527.6,1305.6,514.6z"/>
<linearGradient id="SVGID_23_" gradientUnits="userSpaceOnUse" x1="1328.9209" y1="-769.5215" x2="1358.6908" y2="-717.9514" gradientTransform="matrix(0.989 0.1512 -0.1512 0.989 -24.4419 1047.2966)">
	<stop  offset="0" style="stop-color:#FFFFFF"/>
	<stop  offset="0.18" style="stop-color:#F6EEEB"/>
	<stop  offset="0.52" style="stop-color:#E7D1CA"/>
	<stop  offset="0.81" style="stop-color:#DDBFB5"/>
	<stop  offset="1" style="stop-color:#DAB9AE"/>
</linearGradient>
<path class="st29" d="M1384.6,512.2c2.8-15,20.1-24.5,38.7-21c18.6,3.4,31.5,18.4,28.7,33.4c-2.8,15-20.1,24.5-38.7,21
	C1394.7,542.2,1381.8,527.2,1384.6,512.2z"/>
<linearGradient id="SVGID_24_" gradientUnits="userSpaceOnUse" x1="1367.531" y1="184.5194" x2="1398.5491" y2="238.2559" gradientTransform="matrix(1 0 0 1 0 312)">
	<stop  offset="0" style="stop-color:#FFFFFF"/>
	<stop  offset="0.26" style="stop-color:#F4EAE7"/>
	<stop  offset="0.75" style="stop-color:#E1C7BE"/>
	<stop  offset="1" style="stop-color:#DAB9AE"/>
</linearGradient>
<ellipse class="st30" cx="1381.9" cy="521.4" rx="34.4" ry="29.8"/>
<path class="st31" d="M1350.5,839.2h15.4c0.6,0,1.1,0.5,1.1,1.1V867c0,0.6-0.5,1.1-1.1,1.1h-15.4c-0.6,0-1.1-0.5-1.1-1.1v-26.7
	C1349.4,839.7,1349.9,839.2,1350.5,839.2z"/>
<rect x="1349.4" y="844.8" class="st32" width="17.5" height="7.1"/>
<path class="st33" d="M1364.5,890.9l-21.2,0.5v-0.5c0-15.7,9.6-28.6,21.2-28.6s21.1,12.9,21.1,28.6H1364.5z"/>
<path class="st34" d="M1334.9,891l-38.1,0.5V891c0-17.6,17.2-32,38.1-32s38.1,14.4,38.1,32H1334.9z"/>
<rect x="1296.9" y="890.9" class="st35" width="88.8" height="4.1"/>
<path class="st36" d="M1339.2,836v0.8c0,4.4,4.3,8,9.5,8h19c5.3,0,9.5-3.6,9.5-8V836c0-4.4-4.3-8-9.5-8h-19
	C1343.4,828,1339.2,831.6,1339.2,836z"/>
<path class="st31" d="M1406.5,839.2h15.4c0.6,0,1.1,0.5,1.1,1.1V867c0,0.6-0.5,1.1-1.1,1.1h-15.4c-0.6,0-1.1-0.5-1.1-1.1v-26.7
	C1405.4,839.7,1405.9,839.2,1406.5,839.2z"/>
<rect x="1405.4" y="844.8" class="st32" width="17.5" height="7.1"/>
<path class="st33" d="M1407.8,890.9l21.2,0.5v-0.5c0-15.7-9.6-28.6-21.2-28.6s-21.1,12.9-21.1,28.6H1407.8z"/>
<path class="st34" d="M1437.4,891l38.1,0.5V891c0-17.6-17.2-32-38.1-32s-38.1,14.5-38.1,32H1437.4z"/>
<rect x="1386.7" y="890.9" class="st35" width="88.8" height="4.1"/>
<path class="st36" d="M1433.2,836v0.8c0,4.4-4.3,8-9.5,8h-19c-5.3,0-9.5-3.6-9.5-8V836c0-4.4,4.3-8,9.5-8h19
	C1428.9,828,1433.2,831.6,1433.2,836z"/>
<ellipse transform="matrix(0.6338 -0.7735 0.7735 0.6338 333.2183 1165.9412)" class="st37" cx="1397.9" cy="231.1" rx="13.6" ry="32.7"/>
<ellipse transform="matrix(0.7498 -0.6617 0.6617 0.7498 185.3234 952.3026)" class="st37" cx="1351.8" cy="231.1" rx="32.8" ry="13.6"/>
<ellipse transform="matrix(0.9996 -2.931733e-02 2.931733e-02 0.9996 -5.8196 41.8254)" class="st37" cx="1423.4" cy="219.4" rx="10.4" ry="9.6"/>
<ellipse transform="matrix(0.9996 -2.931733e-02 2.931733e-02 0.9996 -6.0739 42.5982)" class="st37" cx="1449.7" cy="228.4" rx="10.4" ry="9.6"/>
<ellipse transform="matrix(0.9996 -2.931733e-02 2.931733e-02 0.9996 -6.62 43.0747)" class="st37" cx="1465.6" cy="247.3" rx="10.4" ry="9.6"/>
<ellipse transform="matrix(0.9996 -2.931733e-02 2.931733e-02 0.9996 -7.3175 43.2508)" class="st37" cx="1471.3" cy="271.2" rx="10.4" ry="9.6"/>
<ellipse transform="matrix(0.4196 -0.9077 0.9077 0.4196 576.3552 1333.7019)" class="st37" cx="1331.1" cy="216.2" rx="9" ry="8.9"/>
<ellipse transform="matrix(0.4196 -0.9077 0.9077 0.4196 557.9072 1315.4945)" class="st37" cx="1307.6" cy="221.5" rx="9" ry="8.9"/>
<ellipse transform="matrix(0.4196 -0.9077 0.9077 0.4196 534.3275 1309.8854)" class="st37" cx="1291.5" cy="237.1" rx="9" ry="8.9"/>
<ellipse transform="matrix(0.4196 -0.9077 0.9077 0.4196 510.0842 1314.9602)" class="st37" cx="1283.3" cy="258.6" rx="9" ry="8.9"/>
<linearGradient id="SVGID_25_" gradientUnits="userSpaceOnUse" x1="1291.1875" y1="1591.2196" x2="1318.7676" y2="1591.2196" gradientTransform="matrix(0.97 -0.23 0.23 0.97 -175.14 -771.1)">
	<stop  offset="0" style="stop-color:#FFB580"/>
	<stop  offset="0.3" style="stop-color:#FFB47C"/>
	<stop  offset="0.57" style="stop-color:#FFB071"/>
	<stop  offset="0.82" style="stop-color:#FFAB5F"/>
	<stop  offset="1" style="stop-color:#FFA54E"/>
</linearGradient>
<path class="st38" d="M1488.8,584.4L1488.8,584.4c-6.9,1.6-13.8-2.7-15.4-9.6c0,0,0,0,0,0l-0.1-0.2L1427,373.3
	c-1.7-7.1,2.6-14.4,9.5-16.1l0,0c6.9-1.6,13.8,2.7,15.4,9.6c0,0,0,0,0,0l0.1,0.2l46.4,201.2C1500,575.4,1495.8,582.5,1488.8,584.4z"
	/>
<linearGradient id="SVGID_26_" gradientUnits="userSpaceOnUse" x1="-10471.0508" y1="-1198.6035" x2="-10443.4902" y2="-1198.6035" gradientTransform="matrix(-0.973 -0.2307 -0.2307 0.973 -9153 -776.2867)">
	<stop  offset="0" style="stop-color:#FFB580"/>
	<stop  offset="0.3" style="stop-color:#FFB47C"/>
	<stop  offset="0.57" style="stop-color:#FFB071"/>
	<stop  offset="0.82" style="stop-color:#FFAB5F"/>
	<stop  offset="1" style="stop-color:#FFA54E"/>
</linearGradient>
<path class="st39" d="M1274.9,584.4L1274.9,584.4c6.9,1.6,13.8-2.7,15.4-9.6c0,0,0,0,0,0l0.1-0.2l46.4-201.2
	c1.7-7.1-2.6-14.4-9.5-16.1l0,0c-6.9-1.6-13.8,2.7-15.4,9.6c0,0,0,0,0,0l-0.1,0.2l-46.4,201.2
	C1263.7,575.4,1267.9,582.5,1274.9,584.4z"/>
<linearGradient id="SVGID_27_" gradientUnits="userSpaceOnUse" x1="1396.229" y1="703.1064" x2="1430.609" y2="703.1064" gradientTransform="matrix(0.99 -0.11 0.11 0.99 -47.4 -183.97)">
	<stop  offset="0" style="stop-color:#FFB580"/>
	<stop  offset="0.3" style="stop-color:#FFB47C"/>
	<stop  offset="0.57" style="stop-color:#FFB071"/>
	<stop  offset="0.82" style="stop-color:#FFAB5F"/>
	<stop  offset="1" style="stop-color:#FFA54E"/>
</linearGradient>
<ellipse class="st40" cx="1434.8" cy="356" rx="17.2" ry="17.9"/>
<linearGradient id="SVGID_28_" gradientUnits="userSpaceOnUse" x1="1341.5691" y1="1034.0332" x2="1375.9491" y2="1034.0332" gradientTransform="matrix(0.99 -0.11 0.11 0.99 -47.4 -183.97)">
	<stop  offset="0" style="stop-color:#FFB580"/>
	<stop  offset="0.3" style="stop-color:#FFB47C"/>
	<stop  offset="0.57" style="stop-color:#FFB071"/>
	<stop  offset="0.82" style="stop-color:#FFAB5F"/>
	<stop  offset="1" style="stop-color:#FFA54E"/>
</linearGradient>
<ellipse class="st41" cx="1415.6" cy="689.8" rx="17.2" ry="17.9"/>
<linearGradient id="SVGID_29_" gradientUnits="userSpaceOnUse" x1="1287.109" y1="698.8781" x2="1319.1891" y2="698.8781" gradientTransform="matrix(0.99 -0.11 0.11 0.99 -47.4 -183.97)">
	<stop  offset="0" style="stop-color:#FFB580"/>
	<stop  offset="0.3" style="stop-color:#FFB47C"/>
	<stop  offset="0.57" style="stop-color:#FFB071"/>
	<stop  offset="0.82" style="stop-color:#FFAB5F"/>
	<stop  offset="1" style="stop-color:#FFA54E"/>
</linearGradient>
<ellipse class="st42" cx="1324.8" cy="364" rx="16" ry="16.7"/>
<linearGradient id="SVGID_30_" gradientUnits="userSpaceOnUse" x1="1284.1791" y1="1027.6342" x2="1318.5591" y2="1027.6342" gradientTransform="matrix(0.99 -0.11 0.11 0.99 -47.4 -183.97)">
	<stop  offset="0" style="stop-color:#FFB580"/>
	<stop  offset="0.3" style="stop-color:#FFB47C"/>
	<stop  offset="0.57" style="stop-color:#FFB071"/>
	<stop  offset="0.82" style="stop-color:#FFAB5F"/>
	<stop  offset="1" style="stop-color:#FFA54E"/>
</linearGradient>
<ellipse class="st43" cx="1357.8" cy="689.8" rx="17.2" ry="17.9"/>
<polygon class="st37" points="1458.9,285.4 1476.4,284.8 1493.9,284.3 1485.6,299.7 1477.4,315.1 1468.1,300.3 "/>
<polygon class="st37" points="1257.9,277.4 1275.4,276.8 1292.9,276.3 1284.6,291.7 1276.4,307.1 1267.1,292.3 "/>
<path class="st44" d="M516.5,254.6c0-7.4-8.5-4.6-8.5-11.8c0-3.5,2.1-5.4,10.3-4.8l51.5,3.7c28.5,2,49.5,16.9,49.5,46.3
	s-21,44.3-49.5,46.3l-51.5,3.7c-8.2,0.6-10.3-1.4-10.3-4.8c0-7.2,8.5-4.4,8.5-11.8V254.6z M552.8,313.8c0,7.9,1.6,9.9,6.8,9.6
	c18-1,29.2-17.8,29.2-35.5s-11.2-34.5-29.2-35.5c-5.2-0.3-6.8,1.7-6.8,9.6V313.8z"/>
<path class="st44" d="M631.2,260c0-6.2-6-3.8-6-9.8c0-2.9,1.5-4.5,7.2-4.1l49.6,3.5c5.2,0.4,7.4,2,7.4,6.7v4.8c0,4.3-2.3,6.1-4.4,6
	c-7.3-0.3-1-8-19.2-8.9c-7.7-0.4-9.1,0.3-9.1,7.8v13.1l12.3,0.2c7.6,0.1,6.2-4.2,10.2-4.2c2.6,0.1,3.9,1.9,3.9,9.5s-1.3,9.6-3.9,9.6
	c-4.1,0-2.5-4.3-10.2-4.3l-12.3,0v16.5c0,10.4,1.9,11.4,11.1,10.9c17.5-0.9,12.8-10.5,19.4-10.7c2.9-0.1,4.6,2,4.6,5.3
	c0,1.9-0.9,9.2-2,11.4c-0.9,1.8-2.8,2.3-6.8,2.5l-50.8,3.6c-5.7,0.4-7.2-1.2-7.2-4.1c0-6,6-3.6,6-9.8L631.2,260z"/>
<path class="st44" d="M699.2,263.2c0-5.5-4.7-3.3-4.7-8.6c0-2.6,1.2-4,5.6-3.7l18.3,1.3c4.1,0.3,5.1,1.8,5.1,4.2
	c0,5-4.2,2.5-4.2,7.7v44.7c0,5.6,0.9,5.9,6.7,5.6c9.5-0.5,7.8-11.1,13.4-11.3c1.8-0.1,3.5,1.5,3.5,4s-1.8,9.8-2.7,12.2
	c-0.9,2.3-1.7,2.8-4.8,3l-35.3,2.5c-4.5,0.3-5.6-1.1-5.6-3.7c0-5.3,4.7-3.1,4.7-8.6V263.2z"/>
<path class="st44" d="M746.8,265.5c0-5-3.8-3-3.8-7.8c0-2.3,1-3.6,4.7-3.4l28.3,2c8.2,0.6,13.2,7.1,13.2,14.5
	c0.2,5.8-2.9,11.1-8,13.9v0.2c6.2,1.9,10.6,7,10.6,16.2c0,10.3-5.5,17.7-15.2,18.4l-29,2.1c-3.7,0.3-4.7-1.1-4.7-3.4
	c0-4.8,3.8-2.8,3.8-7.8L746.8,265.5z M763.5,284.1c4.6-1.4,10.2-7,10.2-13.7c0-5.1-2.6-7.2-6.1-7.4s-4.1,1.5-4.1,5.6V284.1z
	 M763.5,306.2c0,4.2,0.3,6.3,3.9,6.1c5.5-0.3,9.1-5,9.1-11.9c0.1-4-1.5-7.9-4.5-10.6c-2.7,1.2-5.6,2.1-8.5,2.7V306.2z"/>
<path class="st44" d="M803.3,299.3c-1.2,5.1-1.9,7.9-1.9,9.7c0,3.3,2.9,1.9,2.9,5.3c0,2.2-1,3.4-3.3,3.6l-6.4,0.5
	c-1.9,0.1-2.8-0.8-2.8-3.1c0-2.9,2.8-3.7,3.2-5.5c1-4.9,9-36.5,11.5-43.9c1.8-5.4,2.8-7,7-6.8c4.7,0.3,5,0.8,6.8,6.2
	c0.8,2.5,10.6,39.8,11.1,42.6s2.3,1.7,2.3,4.9c0,2.1-1.1,2.9-2.9,3.1l-10.3,0.7c-2.3,0.2-3.6-0.8-3.6-2.7c0-2.4,2-2.8,2-4.1
	s-0.5-3-1.9-10.7L803.3,299.3z M814.9,291.1l-4.7-18.3l-5.2,18.4L814.9,291.1z"/>
<path class="st44" d="M835.9,269.7c0-4-2.5-2.4-2.5-6.3c0-1.9,0.6-3,3.1-2.8l18.9,1.3c5.3,0.4,10.2,3.6,10.2,13
	c0,6.3-2.7,10.8-5.9,13.3c2.5,4.5,4.1,10.3,5.3,16c1.1,5.5,2.7,3.9,2.7,6.5c0,1.4-0.7,2.4-2.8,2.5l-9.4,0.7
	c-2.1,0.1-2.9-0.4-2.9-2.5c0-2.4,1.7-2.5,1.7-4.2c0-3.5-2.9-12.1-4.5-15.1l-2.7,0.6v12.8c0,3.9,2.4,2,2.4,5.8c0,1.8-0.6,2.9-2.9,3.1
	l-10.1,0.7c-2.4,0.2-3.1-0.9-3.1-2.8c0-3.9,2.5-2.3,2.5-6.3L835.9,269.7z M847,286c0.3,0,0.6,0.1,0.9,0.1c3.7,0,7.1-3.8,7.1-10.1
	c0-4.4-1.8-8.3-4.7-8.4c-2.2-0.1-3.4,1.4-3.4,5.6L847,286z"/>
<path class="st44" d="M889,264.4c0.7,0,1.8,0.3,2.1,1.2c0.5,2.3,0.8,4.7,0.9,7.1c0,2.2-0.7,3.5-1.8,3.5c-2.1-0.1-1.6-5.9-5-6.1
	c-1,0-1.3,0.5-1.3,2.8V304c0,3.5,1.9,1.9,1.9,5.2c0,1.6-0.5,2.6-2.3,2.8l-8.2,0.6c-2,0.1-2.5-0.8-2.5-2.5c0-3.5,2-2,2-5.6v-32.1
	c0-2.3-0.3-2.9-1.4-3c-3.6-0.2-3.1,6-5.5,6c-1.2,0-2-1.5-2-3.9c0.1-2.5,0.5-5,1.1-7.5c0.4-0.9,1.6-1,2.4-0.9L889,264.4z"/>
<path class="st44" d="M782.2,474.7c-5.2-0.3-10.5-5.6-10.5-11.4c0-2.2,0.8-4.1,2-4.1c2.9,0.1,2.3,9.1,8,9.4c2.8,0.1,4.2-2.8,4.2-5.6
	c0-8.5-13.4-2.8-13.4-19.6c0-9,4.1-15.8,10.3-16.2c3.5-0.2,5.2,0.8,7.8,2.6c1.8,1.4,1.9,2.6,1.9,8.3c0,2.1-0.4,3.8-1.7,3.9
	c-2.6,0.1-1.4-10.1-6.8-9.8c-2.6,0.1-3.8,2.4-3.8,5.1c0,9.1,14,3.4,14,20.2C794.2,469.6,787.7,475,782.2,474.7z"/>
<path class="st44" d="M817.3,425.9c0.8-0.1,2,0,2.4,0.9c0.6,2.5,0.9,5,1.1,7.5c0,2.3-0.8,3.8-2,3.9c-2.3,0.1-1.8-6.1-5.4-6
	c-1,0-1.4,0.7-1.4,3v32.1c0,3.6,2,2.1,2,5.6c0,1.7-0.5,2.7-2.5,2.6l-8.2-0.5c-1.9-0.1-2.3-1.1-2.3-2.8c0-3.4,1.9-1.7,1.9-5.3v-31.4
	c0-2.2-0.3-2.8-1.3-2.8c-3.3,0.2-2.9,6.1-5,6.1c-1.1,0-1.8-1.3-1.8-3.5c0.1-2.4,0.4-4.8,1-7.1c0.3-0.9,1.4-1.1,2.1-1.2L817.3,425.9z
	"/>
<path class="st44" d="M823.6,433.9c0-3.7-2.1-2-2.1-5.5c0-1.7,0.5-2.8,2.6-2.9l17.8-1.2c5.7-0.4,11.1,2.4,11.1,12.4
	c0.2,5.5-2.3,10.8-6.6,14.3c2.8,4.8,4.5,10.9,5.9,17.1c1.3,6,3.1,4.5,3.1,7.4c0,1.6-0.8,2.5-3.2,2.3l-10.3-0.6c-2.1-0.1-3-0.8-3-2.8
	c0-2.4,1.7-2.3,1.7-4c0-3.5-2.9-12.4-4.5-15.3l-2.6,0.5v12.5c0,3.8,2.3,2.2,2.3,5.9c0,1.8-0.6,2.8-2.7,2.7l-9.1-0.5
	c-2.1-0.1-2.6-1.2-2.6-2.9c0-3.6,2.1-1.8,2.1-5.6L823.6,433.9z M833.6,448.8c0.3,0,0.6,0.1,0.9,0.1c3.6,0,7.1-4,7.1-10.4
	c0-4.5-1.8-8.2-4.7-8.1c-2.2,0.1-3.3,1.7-3.3,5.9V448.8z"/>
<path class="st44" d="M863.2,461.3c-1,4.7-1.7,7.2-1.7,8.9c0,3,2.5,2,2.5,5.2c0,2-0.8,3.1-2.9,3l-5.4-0.3c-1.5-0.1-2.3-1-2.3-3.1
	c0-2.6,2.3-3,2.5-4.6c0.8-4.3,7.6-33.5,9.8-40.7c1.6-5.3,2.6-7,6.5-7.3c4.6-0.3,4.8,0.1,6.7,5.4c0.8,2.5,11.4,41.1,12,44.1
	s2.6,2.1,2.6,5.5c0,2.3-1.2,3-3.3,2.9l-11.1-0.7c-2.3-0.1-3.6-1.3-3.6-3.2c0-2.4,2-2.6,2-3.9c0-1.2-0.5-3.1-1.9-10.8L863.2,461.3z
	 M873.9,453.7l-4.4-17.7l-4.7,17.7L873.9,453.7z"/>
<path class="st44" d="M923,418.9c1.5-0.1,4.4-0.3,5.3,0.9c1.4,1.7,1.8,8,1.8,10.5c0,2.2-0.7,4-2.5,4.1c-4.4,0.1-1.7-7.8-12.2-7.3
	c-4.6,0.2-5,1.3-5,5.8v12.6l6.3-0.1c4.9-0.1,4-3.6,6.6-3.6c1.8,0,2.7,1.4,2.7,7.8s-0.9,8-2.7,8c-2.7,0-1.7-3.5-6.6-3.6h-6.3V471
	c0,4.5,3.2,2.7,3.2,7.1c0,2.1-0.8,3.3-3.8,3.1l-12.7-0.8c-2.9-0.2-3.6-1.4-3.6-3.5c0-4.2,3-2.1,3-6.5v-39.8c0-4.4-3-2.3-3-6.5
	c0-2,0.7-3.3,3.6-3.5L923,418.9z"/>
<path class="st44" d="M936.2,428.8c0-4.8-3.5-2.5-3.5-7c0-2.2,0.8-3.6,4.2-3.8l29.5-1.9c9.9-0.6,16.5,6.1,16.5,14.5
	c0,8-4.6,13.1-10.1,16.1v0.2c7.9,2,13.6,7.9,13.6,18.7c0,12-7.2,19.8-19.1,19l-30.2-1.9c-3.4-0.2-4.2-1.6-4.2-3.8
	c0-4.6,3.5-2.3,3.5-7.1L936.2,428.8z M952.7,446.4c4.9-1.5,11.2-7.7,11.2-14.9c0-5.5-2.9-7.4-6.8-7.2s-4.3,2-4.3,6.2V446.4z
	 M952.7,469.1c0,4.3,0.3,6.5,4.1,6.7c6.2,0.3,10.3-4.4,10.3-11.9c0.1-4.4-1.8-8.7-5.2-11.5c-3,1.3-6.1,2.2-9.3,2.7V469.1z"/>
<path class="st44" d="M1002.7,464.2c-1.8,6.1-2.9,9.5-2.9,11.7c0,4,4.3,2.7,4.3,6.9c0,2.7-1.4,4-5,3.8L990,486
	c-2.6-0.2-3.8-1.4-3.8-4.1c0-3.4,3.8-3.9,4.3-6c1.5-5.6,13-44,16.8-53.4c2.8-7,4.5-9.4,11.4-9.8c8-0.5,8.5,0,11.7,7
	c1.5,3.3,20.3,54.8,21.3,58.8s4.7,2.8,4.7,7.4c0,3-2.2,4-6,3.8l-19.7-1.2c-4.1-0.2-6.3-1.8-6.3-4.3c0-3.2,3.6-3.4,3.6-5.1
	c0-1.6-0.9-4.1-3.3-14.3L1002.7,464.2z M1021.3,454.3l-7.7-23.4l-8.1,23.4L1021.3,454.3z"/>
<path class="st44" d="M1061.4,423.2c0-5.9-5.4-3-5.4-8.7c0-2.7,1.3-4.5,6.5-4.8l46.1-3c15.2-1,30,3.2,30,19.8
	c0,11.2-8.4,19.3-17.9,23.8c7.5,7.9,12.3,18,16,28.3c3.6,10,8.7,7.6,8.7,12.4c0,2.6-2.1,4.1-8.9,3.7l-27.7-1.6
	c-5.6-0.3-7.9-1.4-7.8-4.8c0-3.9,4.4-3.6,4.4-6.5c0-5.8-7.7-20.2-11.7-25l-6.7,0.9v20.1c0,6.2,5.9,3.7,5.9,9.7
	c0,2.9-1.4,4.5-7.1,4.2l-23.2-1.4c-5.2-0.3-6.5-2-6.5-4.8c0-5.7,5.4-2.8,5.4-8.7L1061.4,423.2z M1086.9,446.9c0.8,0,1.6,0.1,2.3,0.1
	c9.5-0.1,18.7-6.5,18.7-17c0-7.3-4.9-13.3-12.3-12.9c-5.6,0.3-8.6,3-8.6,9.6V446.9z"/>
<path class="st44" d="M1228,398.9c3.4-0.2,8.4-0.3,9.8,1.6c1.7,2,4.5,12.7,4.5,15.2c0,4.8-3.5,7.9-8.5,8
	c-9.6,0.3-7.5-12.3-22.2-11.6c-4.2,0.2-5.6,1.5-5.6,6.1v64.2c0,7.3,8.2,4.4,8.2,11.5c0,3.4-2,5.3-9.9,4.9l-32-1.9
	c-7.1-0.4-8.9-2.4-8.9-5.6c0-6.6,7.3-3.2,7.3-10.1v-61.3c0-4.4-1.3-5.5-5-5.3c-12.6,0.6-10.9,12-18.7,12.3c-3.9,0.1-6.6-2.4-6.6-6.5
	c0-2.2,2.2-11.9,3.5-13.8s5.1-2.3,7.9-2.5L1228,398.9z"/>
<circle class="st44" cx="842" cy="371" r="38"/>
<path class="st44" d="M827.7,376.8c-0.6,1-1.5,1.9-2.5,2.5c-1.1,0.6-2.4,1-3.7,0.9c-1.6,0.1-3.2-0.5-4.3-1.7c-1.2-1.3-1.9-3-1.8-4.7
	c0-2.1,0.8-4.2,2.3-5.7c1.3-1.3,3-2,4.9-2c1.5-0.1,2.9,0.5,4,1.5c1.1,1.3,1.7,2.9,1.7,4.6c0,0.5-0.1,1-0.2,1.5h-9.5
	c0,1,0.4,1.9,1,2.7c0.6,0.6,1.4,0.9,2.2,0.9c0.7,0,1.5-0.2,2.1-0.6c0.6-0.4,1-0.9,1.4-1.5L827.7,376.8z M825.3,371.4
	c-0.1-0.7-0.4-1.3-0.8-1.8c-0.5-0.5-1.2-0.8-1.9-0.7c-0.8,0-1.6,0.3-2.2,0.8c-0.5,0.5-1,1.1-1.2,1.8H825.3z"/>
<path class="st44" d="M836.3,359.8l-2.5,20h-3.1l2.5-20H836.3z"/>
<path class="st44" d="M843.3,359.8l-2.5,20h-3.1l2.5-20H843.3z"/>
<path class="st44" d="M857.2,376.8c-0.6,1-1.5,1.9-2.5,2.5c-1.1,0.6-2.4,1-3.7,0.9c-1.6,0.1-3.1-0.5-4.3-1.7c-1.2-1.3-1.9-3-1.8-4.7
	c0-2.1,0.8-4.2,2.3-5.7c1.3-1.3,3-2,4.9-2c1.5-0.1,2.9,0.5,4,1.5c1.1,1.3,1.7,2.9,1.7,4.6c0,0.5-0.1,1-0.2,1.5h-9.5
	c0,1,0.4,1.9,1,2.7c0.6,0.6,1.4,0.9,2.2,0.9c0.7,0,1.5-0.2,2.1-0.6c0.6-0.4,1-0.9,1.4-1.5L857.2,376.8z M854.8,371.4
	c-0.1-0.7-0.4-1.3-0.8-1.8c-0.5-0.5-1.2-0.8-1.9-0.7c-0.8,0-1.6,0.3-2.2,0.8c-0.5,0.5-1,1.1-1.2,1.8H854.8z"/>
<path class="st44" d="M861.9,366.5h3.1l-0.2,1.2c0.4-0.5,0.9-0.9,1.4-1.1c0.6-0.3,1.3-0.4,2-0.4c0.8,0,1.6,0.2,2.3,0.6l-1.5,2.8
	c-0.5-0.3-1.1-0.5-1.6-0.5c-0.7,0-1.5,0.3-2,0.8c-0.7,0.9-1.1,1.9-1.1,3l-0.9,6.9h-3.1L861.9,366.5z"/>
<path class="st44" d="M866,223c0,13.2-6.2,20.1-21.7,20.1c-20.1,0-27.1-3.9-27.1-23.2v-42.6c0-27.9,49.1-8.5,49.1-82
	c0-22.4-9.7-34.8-23.2-34.8c-13.2,0-18.6,8.5-18.6,20.1c0,24-8.9,36.8-36,36.8c-24,0-35.2-12-35.2-29.4c0-28.2,36-58.4,97.1-58.4
	c68.1,0,110.3,34.8,110.3,82.4c0,36.4-23.6,54.2-47.2,66.2c-24,12-47.6,18.2-47.6,31.7L866,223z"/>
<path class="st45" d="M827.7,374.8c-0.6,1-1.5,1.9-2.5,2.5c-1.1,0.6-2.4,1-3.7,0.9c-1.6,0.1-3.2-0.5-4.3-1.7c-1.2-1.3-1.9-3-1.8-4.7
	c0-2.1,0.8-4.2,2.3-5.7c1.3-1.3,3-2,4.9-2c1.5-0.1,2.9,0.5,4,1.5c1.1,1.3,1.7,2.9,1.7,4.6c0,0.5-0.1,1-0.2,1.5h-9.5
	c0,1,0.4,1.9,1,2.7c0.6,0.6,1.4,0.9,2.2,0.9c0.7,0,1.5-0.2,2.1-0.6c0.6-0.4,1-0.9,1.4-1.5L827.7,374.8z M825.3,369.4
	c-0.1-0.7-0.4-1.3-0.8-1.8c-0.5-0.5-1.2-0.8-1.9-0.7c-0.8,0-1.6,0.3-2.2,0.8c-0.5,0.5-1,1.1-1.2,1.8H825.3z"/>
<path class="st45" d="M836.3,357.8l-2.5,20h-3.1l2.5-20H836.3z"/>
<path class="st45" d="M843.3,357.8l-2.5,20h-3.1l2.5-20H843.3z"/>
<path class="st45" d="M857.2,374.8c-0.6,1-1.5,1.9-2.5,2.5c-1.1,0.6-2.4,1-3.7,0.9c-1.6,0.1-3.1-0.5-4.3-1.7c-1.2-1.3-1.9-3-1.8-4.7
	c0-2.1,0.8-4.2,2.3-5.7c1.3-1.3,3-2,4.9-2c1.5-0.1,2.9,0.5,4,1.5c1.1,1.3,1.7,2.9,1.7,4.6c0,0.5-0.1,1-0.2,1.5h-9.5
	c0,1,0.4,1.9,1,2.7c0.6,0.6,1.4,0.9,2.2,0.9c0.7,0,1.5-0.2,2.1-0.6c0.6-0.4,1-0.9,1.4-1.5L857.2,374.8z M854.8,369.4
	c-0.1-0.7-0.4-1.3-0.8-1.8c-0.5-0.5-1.2-0.8-1.9-0.7c-0.8,0-1.6,0.3-2.2,0.8c-0.5,0.5-1,1.1-1.2,1.8H854.8z"/>
<path class="st45" d="M861.9,364.5h3.1l-0.2,1.2c0.4-0.5,0.9-0.9,1.4-1.1c0.6-0.3,1.3-0.4,2-0.4c0.8,0,1.6,0.2,2.3,0.6l-1.5,2.8
	c-0.5-0.3-1.1-0.5-1.6-0.5c-0.7,0-1.5,0.3-2,0.8c-0.7,0.9-1.1,1.9-1.1,3l-0.9,6.9h-3.1L861.9,364.5z"/>
<g class="st46">
	<path class="st47" d="M123.6,607.9h559.8c9.9,0,17.9,8,17.9,17.9v371.7c0,9.9-8,17.9-17.9,17.9H123.6c-9.9,0-17.9-8-17.9-17.9
		V625.8C105.7,615.9,113.7,607.9,123.6,607.9z"/>
</g>
<rect x="135.7" y="640.9" class="st48" width="543.9" height="347.4"/>
<text transform="matrix(1 0 0 1 135.6982 663.0294)"><tspan x="0" y="0" class="st49 st50">Det er frikvarter, og eleverne tager bill</tspan><tspan x="519.1" y="0" class="st49 st50">-</tspan><tspan x="0" y="34.8" class="st49 st50">eder af alt det, der sker i skolegården.</tspan><tspan x="0" y="69.6" class="st49 st50">Billederne deles straks fra mobilerne til </tspan><tspan x="0" y="104.4" class="st49 st50">cloud&apos;en.</tspan><tspan x="0" y="174" class="st49 st50">Det er din opgave at sørge for, at der </tspan><tspan x="0" y="208.8" class="st49 st50">kun deles billeder af lovlig karakter - </tspan><tspan x="0" y="243.6" class="st49 st50">dette gør du ved at klikke de billeder </tspan><tspan x="0" y="278.4" class="st49 st50">væk, som du mener IKKE bør deles </tspan><tspan x="0" y="313.2" class="st49 st50">med andre!</tspan></text>
</svg>
