<svg id="Layer_1" data-name="Layer 1" xmlns="http://www.w3.org/2000/svg" width="1900" height="1000" viewBox="0 0 1900 1000"><defs><style>.cls-1{opacity:0.4;}.cls-2{fill:#4d5972;}.cls-3{fill:#88c3de;}</style></defs><title>settings</title><g class="cls-1"><path class="cls-2" d="M576.05,149.9h700.67a138.34,138.34,0,0,1,138.35,138.36V709.83a138.34,138.34,0,0,1-138.35,138.36H576.05A138.34,138.34,0,0,1,437.7,709.83V288.26C437.86,211.84,499.79,149.9,576.05,149.9Z"/><path class="cls-3" d="M590.06,173.63h671.85A138.34,138.34,0,0,1,1400.26,312V684.2a138.34,138.34,0,0,1-138.35,138.35H590.06A138.34,138.34,0,0,1,451.71,684.2V312C451.87,235.56,513.8,173.63,590.06,173.63Z"/></g><path d="M746.41,298.63c0,3.92,4.14,2,4.14,5.18,0,1.4-.74,2.22-3.4,2.22H734.71c-2.66,0-3.4-.82-3.4-2.22,0-3.18,4.14-1.26,4.14-5.18V259.26c0-3.93-4.14-2-4.14-5.18,0-1.41.74-2.22,3.4-2.22h12.44c2.66,0,3.4.81,3.4,2.22,0,3.18-4.14,1.25-4.14,5.18Z"/><path d="M782.3,285c0-5.33-.45-9.62-7-9.62a7.78,7.78,0,0,0-7.7,8v15.25c0,4.88,3.48,2.59,3.48,5.4,0,1.26-.82,2-2.74,2h-11.1c-1.92,0-2.74-.74-2.74-2,0-2.81,3.48-.52,3.48-5.4V280.57c0-5.77-3.92-3-3.92-6.36,0-2.82,8.14-4.3,9.62-4.3,2.22,0,2.51,1.48,2.66,5.92,3.26-3.77,7.25-5.92,12.21-5.92,9.18,0,13.4,4.59,13.4,14.51v14.21c0,4.88,3.48,2.59,3.48,5.4,0,1.26-.82,2-2.74,2h-11.1c-1.93,0-2.74-.74-2.74-2,0-2.81,3.48-.52,3.48-5.4Z"/><path d="M829.06,306c-3.4,0-3.25-1.63-3.47-4.37-3,3.55-6.44,5.11-11.92,5.11-11.25,0-15.84-8.29-15.84-17.62,0-10.5,7.26-19.24,18.14-19.24a14.67,14.67,0,0,1,8.95,3V259.26c0-3.63-4.14-2.81-4.14-5.33a2.45,2.45,0,0,1,1.77-2.07c1.19-.45,7.25-2.22,9.33-2.22s2.66.44,2.66,2.66v46.55c0,3.7,3.55,3.18,3.55,4.88s-.59,2.3-3.55,2.3Zm-4.14-24.28c0-4.58-3.48-7.1-7.77-7.1-5.11,0-9.1,4.14-9.1,13.54s4,13.55,9.1,13.55c4,0,7.77-3.26,7.77-7Z"/><path d="M857.26,269.91c7.92,0,12.28,3.11,12.28,5.41,0,4.66-.37,5-1.63,5-3.25,0-3.18-6-10.65-6-4.81,0-5.92,3-5.92,4.89,0,7,19.9,2.37,19.9,14.8,0,7.84-6.51,12.73-16.2,12.73-8.37,0-14.29-5.48-14.29-7.92,0-1.7,1-3.78,3-3.78,3.7,0,3.63,7.26,11.1,7.26,3.85,0,6.81-2.22,6.81-5.26,0-8-19.61-2.14-19.61-15.32C842,273.47,850.08,269.91,857.26,269.91Z"/><path d="M894,270.65c1.71,0,2.82.6,2.82,2.37s-1.11,2.37-2.82,2.37H888v21.46c0,3.48,1.18,4.44,4.95,4.44,3.41,0,4.3.52,4.3,2.15a2.26,2.26,0,0,1-2.59,2.59H884.12c-4.74,0-5.77-.82-5.77-4.81V275.39h-3c-2.14,0-2.81-.52-2.81-2.37s1.41-2.14,4.14-2.37c8.44-.81,6-12.87,9.4-12.87,1.56,0,1.93.74,1.93,3v9.91Z"/><path d="M902.4,306c-1.93,0-2.74-.67-2.74-1.93,0-2.81,3.48-.51,3.48-5.4V279.53c0-3.62-4-2.81-4-5,0-1.11,1-1.55,1.92-1.77,1.11-.3,7-2.82,9-2.82,2.3,0,2.67,1.56,2.67,5.63V298.7c0,4.89,3.47,2.59,3.47,5.4,0,1.26-.81,1.93-2.73,1.93ZM913,261.33c0,3.25-2.37,5.18-6.14,5.18-3.41,0-5.85-1.93-5.85-5.18s2.44-5.18,6.14-5.18C910.61,256.15,913,258.15,913,261.33Z"/><path d="M922.23,306c-1.93,0-2.74-.74-2.74-2,0-2.81,3.48-.52,3.48-5.4V259.26c0-4-4-2.22-4-5.48,0-1.48,7.92-4.14,10.95-4.14,1.7,0,2.67.88,2.67,4.88v44.11c0,4.88,3.47,2.59,3.47,5.4,0,1.26-.81,2-2.73,2Z"/><path d="M942.21,306c-1.93,0-2.74-.74-2.74-2,0-2.81,3.47-.52,3.47-5.4V259.26c0-4-4-2.22-4-5.48,0-1.48,7.92-4.14,10.95-4.14,1.7,0,2.67.88,2.67,4.88v44.11c0,4.88,3.47,2.59,3.47,5.4,0,1.26-.81,2-2.73,2Z"/><path d="M962.33,306c-1.92,0-2.74-.67-2.74-1.93,0-2.81,3.48-.51,3.48-5.4V279.53c0-3.62-4-2.81-4-5,0-1.11,1-1.55,1.92-1.77,1.11-.3,7-2.82,9-2.82,2.29,0,2.66,1.56,2.66,5.63V298.7c0,4.89,3.48,2.59,3.48,5.4,0,1.26-.81,1.93-2.74,1.93Zm10.58-44.7c0,3.25-2.36,5.18-6.14,5.18-3.4,0-5.84-1.93-5.84-5.18s2.44-5.18,6.14-5.18C970.55,256.15,972.91,258.15,972.91,261.33Z"/><path d="M1007.25,285c0-5.33-.44-9.62-7-9.62a7.79,7.79,0,0,0-7.7,8v15.25c0,4.88,3.48,2.59,3.48,5.4,0,1.26-.81,2-2.74,2h-11.1c-1.92,0-2.73-.74-2.73-2,0-2.81,3.47-.52,3.47-5.4V280.57c0-5.77-3.92-3-3.92-6.36,0-2.82,8.14-4.3,9.62-4.3,2.22,0,2.52,1.48,2.67,5.92,3.25-3.77,7.25-5.92,12.21-5.92,9.17,0,13.39,4.59,13.39,14.51v14.21c0,4.88,3.48,2.59,3.48,5.4,0,1.26-.81,2-2.74,2h-11.1c-1.92,0-2.74-.74-2.74-2,0-2.81,3.48-.52,3.48-5.4Z"/><path d="M1054.76,275.54a16.37,16.37,0,0,1,4.59,11.39c0,5.63-2.37,10.81-7.18,13.55,4.29,1.26,8.21,4.36,8.21,8.51,0,7-6.8,11.54-19.76,11.54-11.32,0-16.94-2.51-16.94-6.51,0-3.7,4.51-5.92,7.47-5.92,1.41,0,2.44.44,2.44,1.33,0,.67-.74,1.41-.74,2.37,0,1.33,1.19,3.26,8.07,3.26,7.47,0,10.14-2.67,10.14-5.63s-2.59-5.1-5.25-6.29a15.21,15.21,0,0,1-5,.82c-10.51,0-18.06-6.22-18.06-16.29,0-11.69,7.77-17.76,19.17-17.76,5,0,10.06.74,15.09.74,4.07,0,4.59,1,4.59,2.37,0,1.78-1,2.37-3.92,2.52Zm-13.69-1.19c-4.52,0-8.07,4.3-8.07,12.44s3.55,12.43,8.07,12.43,8.07-4.29,8.07-12.43S1045.58,274.35,1041.07,274.35Z"/><path d="M1085.32,269.91c6.22,0,14.36,2.89,14.28,10.29-.07,10-16.87,11.77-24.57,12.21a10.36,10.36,0,0,0,10.36,9,15.28,15.28,0,0,0,10.37-4.44c.88-.81,1.4-1.55,2.73-1.55a1.55,1.55,0,0,1,1.7,1.7c0,3.7-8.14,9.62-17.09,9.62-10.21,0-18.8-7-18.87-17.54C1064.3,277.76,1071.48,269.91,1085.32,269.91Zm-10.88,18.5c3.85-.37,15.54-1.84,15.54-9.25,0-3.33-2-5.25-5.33-5.25C1077.55,273.91,1074.29,281,1074.44,288.41Z"/><path d="M1107.59,306c-1.92,0-2.74-.74-2.74-2,0-2.81,3.48-.52,3.48-5.4V283.68c0-8.51-5-5.33-5-8.51,0-2.15,2.22-2.59,4.3-3.63a17.41,17.41,0,0,1,5.1-1.63c3.26,0,3.78,6.29,4,8.66h.15c1.7-4.07,5.4-8.66,9.84-8.66a4.89,4.89,0,0,1,5,5.18c0,2-.89,4.15-3.48,4.15-1.11,0-3-1.19-4.44-1.19-3,0-5.85,5.11-5.85,10.66v9.92c0,4.88,3.48,2.59,3.48,5.4,0,1.26-.81,2-2.74,2Z"/><path d="M729.46,315.28v-3.7h401.81v3.7Z"/><path d="M530.14,452.71c0-3.93-4.15-2-4.15-5.18,0-1.41.74-2.22,3.41-2.22h12.43c2.66,0,3.4.81,3.4,2.22,0,3.18-4.14,1.25-4.14,5.18v38.18c0,2.82.59,3.56,8.73,3.56,15.69,0,13.77-7,17.62-7,1,0,1.62.74,1.62,2.89,0,3.33-1.77,9.1-5.92,9.1H529.4c-2.67,0-3.41-.82-3.41-2.22,0-3.18,4.15-1.26,4.15-5.18Z"/><path d="M578.9,464.1c1.56,0,2.3.67,2.3,1.93,0,2-2.59,1-2.59,5.47,0,6.29,3.25,22.06,8.88,22.06,4.73,0,7.25-17.76,7.25-22.2,0-3.56-4.14-3.41-4.14-5.78,0-.88.44-1.48,1.62-1.48h9.63c1.48,0,2.07.67,2.07,1.56,0,2.22-3,1.55-3.7,6.88C597.7,492.37,588.38,514,574.54,514c-2.44,0-6.59-1.11-6.59-3.84,0-2.37,1.63-3.56,4.44-3.56,2.07,0,3.92,1.19,5.4,1.19,2.74,0,7.85-4.89,9.85-9.85a11.35,11.35,0,0,1-2.82.67c-13.69,0-15.39-21.24-16.72-28.94-.44-2.36-2.37-1.92-2.37-3.7,0-1.18.59-1.85,2.3-1.85Z"/><path d="M636.63,499.48c-3.41,0-3.26-1.63-3.48-4.37-3,3.55-6.44,5.11-11.92,5.11-11.25,0-15.83-8.29-15.83-17.61,0-10.51,7.25-19.25,18.13-19.25a14.67,14.67,0,0,1,9,3V452.71c0-3.63-4.14-2.81-4.14-5.33a2.45,2.45,0,0,1,1.77-2.07c1.19-.45,7.26-2.22,9.33-2.22s2.66.44,2.66,2.66V492.3c0,3.7,3.55,3.18,3.55,4.88s-.59,2.3-3.55,2.3Zm-4.15-24.28c0-4.58-3.48-7.1-7.77-7.1-5.11,0-9.1,4.14-9.1,13.54s4,13.55,9.1,13.55c4,0,7.77-3.26,7.77-7Z"/><path d="M669.41,463.36c6.21,0,14.35,2.89,14.28,10.29-.07,10-16.87,11.77-24.57,12.21a10.35,10.35,0,0,0,10.36,9,15.26,15.26,0,0,0,10.36-4.44c.89-.81,1.41-1.55,2.74-1.55a1.56,1.56,0,0,1,1.7,1.7c0,3.7-8.14,9.62-17.09,9.62-10.22,0-18.8-7-18.88-17.54C648.39,471.21,655.57,463.36,669.41,463.36Zm-10.88,18.5c3.85-.37,15.54-1.84,15.54-9.25,0-3.33-2-5.25-5.33-5.25C661.64,467.36,658.38,474.46,658.53,481.86Z"/><path d="M702.19,492.08c0,4.88,3.48,2.59,3.48,5.4,0,1.26-.82,2-2.74,2h-11.1c-1.93,0-2.74-.74-2.74-2,0-2.81,3.48-.52,3.48-5.4V468.84h-2.52c-1.7,0-2.81-.52-2.81-2.37s1.11-2.37,2.81-2.37h2.59c-.07-8.58.67-21.61,12.58-21.61,2.67,0,6.51,1.41,6.51,4.59a3.62,3.62,0,0,1-3.55,3.85c-2.07,0-2.66-2.07-4.14-2.07-.82,0-2,.74-2,7.62v7.62h5c1.7,0,2.81.6,2.81,2.37s-1.11,2.37-2.81,2.37h-4.81Z"/><path d="M726.61,492.08c0,4.88,3.47,2.59,3.47,5.4,0,1.26-.81,2-2.73,2h-11.1c-1.93,0-2.74-.74-2.74-2,0-2.81,3.48-.52,3.48-5.4V468.84h-2.52c-1.7,0-2.81-.52-2.81-2.37s1.11-2.37,2.81-2.37h2.59c-.07-8.58.67-21.61,12.58-21.61,2.66,0,6.51,1.41,6.51,4.59a3.62,3.62,0,0,1-3.55,3.85c-2.07,0-2.66-2.07-4.14-2.07-.82,0-2,.74-2,7.62v7.62h5c1.7,0,2.81.6,2.81,2.37s-1.11,2.37-2.81,2.37h-4.81Z"/><path d="M757.46,463.36c6.22,0,14.36,2.89,14.29,10.29-.08,10-16.88,11.77-24.57,12.21a10.34,10.34,0,0,0,10.36,9,15.28,15.28,0,0,0,10.36-4.44c.89-.81,1.4-1.55,2.74-1.55a1.56,1.56,0,0,1,1.7,1.7c0,3.7-8.14,9.62-17.1,9.62-10.21,0-18.79-7-18.87-17.54C736.45,471.21,743.62,463.36,757.46,463.36Zm-10.88,18.5c3.85-.37,15.55-1.84,15.55-9.25,0-3.33-2-5.25-5.33-5.25C749.69,467.36,746.44,474.46,746.58,481.86Z"/><path d="M778.18,499.48c-1.92,0-2.74-.74-2.74-2,0-2.81,3.48-.52,3.48-5.4V452.71c0-3.63-4-2.81-4-5,0-1.11,1.11-1.33,1.92-1.77,1.7-.89,7-2.81,9-2.81,2.29,0,2.66,1.55,2.66,4.88v32.41c2.81-1.4,12.07-8.51,12.07-11.17,0-1.7-3.7-1-3.7-3.33,0-1.26.74-1.78,1.92-1.78h10.51c1.77,0,2.81.6,2.81,1.78,0,2.07-2.07,1.7-4.88,4.37s-7,6.88-7.7,7.91A71.77,71.77,0,0,1,811.71,494c1.18,2,3.84,1.63,3.84,3.7,0,1.33-1,1.78-2.29,1.78H800.61a2.11,2.11,0,0,1-2.37-2.07c0-1.63,2.07-1.48,2.07-2.37,0-1.33-4.74-8.14-7.55-11.69l-4.22,3v5.77c0,4.88,3.48,2.59,3.48,5.4,0,1.26-.81,2-2.74,2Z"/><path d="M837,464.1c1.7,0,2.82.6,2.82,2.37s-1.12,2.37-2.82,2.37h-6.07V490.3c0,3.48,1.19,4.44,5,4.44,3.41,0,4.3.52,4.3,2.15s-.82,2.59-2.6,2.59H827.1c-4.74,0-5.78-.82-5.78-4.81V468.84h-3c-2.15,0-2.81-.52-2.81-2.37s1.4-2.14,4.14-2.37c8.44-.81,6-12.87,9.4-12.87,1.55,0,1.92.74,1.92,3v9.91Z"/><path d="M863.28,463.36c6.22,0,14.36,2.89,14.29,10.29-.08,10-16.88,11.77-24.57,12.21a10.34,10.34,0,0,0,10.36,9,15.28,15.28,0,0,0,10.36-4.44c.89-.81,1.4-1.55,2.74-1.55a1.56,1.56,0,0,1,1.7,1.7c0,3.7-8.14,9.62-17.1,9.62-10.21,0-18.79-7-18.87-17.54C842.27,471.21,849.44,463.36,863.28,463.36Zm-10.88,18.5c3.85-.37,15.55-1.84,15.55-9.25,0-3.33-2-5.25-5.33-5.25C855.51,467.36,852.26,474.46,852.4,481.86Z"/><path d="M885.56,499.48c-1.93,0-2.74-.74-2.74-2,0-2.81,3.48-.52,3.48-5.4V477.13c0-8.51-5-5.33-5-8.51,0-2.15,2.22-2.59,4.29-3.63a17.37,17.37,0,0,1,5.11-1.63c3.25,0,3.77,6.29,4,8.66h.15c1.7-4.07,5.4-8.66,9.84-8.66a4.88,4.88,0,0,1,5,5.18c0,2-.89,4.15-3.48,4.15-1.11,0-3-1.19-4.44-1.19-3,0-5.84,5.11-5.84,10.66v9.92c0,4.88,3.47,2.59,3.47,5.4,0,1.26-.81,2-2.73,2Z"/><path d="M543.46,614.68c1.63,0,2.51,1.63,3.7,4.74,4,9.18,7.55,18.2,11,28.12l12.36-29.82c1.18-2.82,1.33-3,4.29-3H586c1.78,0,2.59.89,2.59,2.45,0,3.47-5,.66-5,5.55v38.77c0,3.93,4.14,2,4.14,5.19,0,1.4-.74,2.22-3.4,2.22h-12c-2.66,0-3.4-.82-3.4-2.22,0-3.19,4.14-1.26,4.14-5.19V625.64h-.15c-5.4,14.35-7.84,19.09-13.91,32.85-1.11,2.52-1.92,3.71-3.26,3.71-1,0-2.59-1.63-3.85-4.45-5-11-10.06-21.75-13.32-32.11h-.14L537.69,661c0,4.14,5.47,2.29,5.47,5.77,0,1.19-.89,2.08-3.55,2.08h-11.4c-1.85,0-2.51-1-2.51-2.3,0-3,4.59-.89,5-6,1-12.73,1.63-27.39,1.63-38.49,0-3.7-5.77-1.33-5.77-5a2.25,2.25,0,0,1,2.36-2.37Z"/><path d="M623.53,668.86c-3.7,0-4-1.26-4.44-4.67a17.19,17.19,0,0,1-12.29,5.41c-8.58,0-12.13-5.48-12.13-12.22V642.21c0-5.25-3.41-3-3.41-5.77,0-2.37,8.88-3.7,10-3.7,1.78,0,3,.89,3,5.48v17.54c0,6.73,1.62,8.36,5.92,8.36,4.14,0,8.28-2.67,8.28-6.81v-15.1c0-5.25-3.4-3-3.4-5.77,0-2.37,8.88-3.7,10-3.7,1.78,0,3,.89,3,5.48v23.46c0,4.07,3.77,3.18,3.77,5.18,0,1.11-.52,2-2.74,2Z"/><path d="M650.54,632.74c7.91,0,12.28,3.11,12.28,5.4,0,4.67-.37,5-1.63,5-3.25,0-3.18-6-10.65-6-4.82,0-5.92,3-5.92,4.89,0,6.95,19.9,2.36,19.9,14.8,0,7.84-6.51,12.73-16.2,12.73-8.37,0-14.29-5.48-14.29-7.92,0-1.71,1-3.78,3-3.78,3.7,0,3.63,7.25,11.1,7.25,3.85,0,6.81-2.22,6.81-5.25,0-8-19.61-2.15-19.61-15.32C635.29,636.29,643.36,632.74,650.54,632.74Z"/><path d="M670.51,668.86c-1.92,0-2.73-.67-2.73-1.93,0-2.81,3.47-.52,3.47-5.4V642.36c0-3.62-4-2.81-4-5,0-1.11,1-1.55,1.92-1.78,1.11-.29,7-2.81,9-2.81,2.3,0,2.66,1.55,2.66,5.62v23.17c0,4.88,3.48,2.59,3.48,5.4,0,1.26-.81,1.93-2.73,1.93Zm10.59-44.7c0,3.25-2.37,5.18-6.15,5.18-3.4,0-5.84-1.93-5.84-5.18s2.44-5.18,6.14-5.18C678.73,619,681.1,621,681.1,624.16Z"/><path d="M689.9,668.86c-1.92,0-2.74-.75-2.74-2,0-2.82,3.48-.52,3.48-5.41V622.08c0-3.62-4-2.81-4-5,0-1.11,1.12-1.33,1.93-1.77,1.7-.89,7-2.82,9-2.82,2.29,0,2.66,1.56,2.66,4.89v32.41c2.81-1.4,12.07-8.51,12.07-11.17,0-1.7-3.71-1-3.71-3.33,0-1.26.74-1.78,1.93-1.78h10.51c1.77,0,2.81.59,2.81,1.78,0,2.07-2.07,1.7-4.88,4.36s-7,6.89-7.7,7.92a71.31,71.31,0,0,1,12.14,15.84c1.18,2,3.84,1.63,3.84,3.7,0,1.33-1,1.78-2.29,1.78H712.33a2.11,2.11,0,0,1-2.37-2.08c0-1.63,2.07-1.48,2.07-2.37,0-1.33-4.74-8.14-7.55-11.69l-4.22,3v5.77c0,4.89,3.48,2.59,3.48,5.41,0,1.25-.81,2-2.74,2Z"/></svg>
