<svg id="Layer_1" data-name="Layer 1" xmlns="http://www.w3.org/2000/svg" xmlns:xlink="http://www.w3.org/1999/xlink" width="1493" height="160" viewBox="0 0 1493 160"><defs><style>.cls-1{fill:#788bb1;}.cls-2{fill:#ebebed;}.cls-3{fill:none;}.cls-4{fill:url(#linear-gradient);}.cls-5{fill:url(#linear-gradient-2);}.cls-6{fill:url(#linear-gradient-3);}</style><linearGradient id="linear-gradient" x1="643.24" y1="87.38" x2="839.93" y2="87.38" gradientUnits="userSpaceOnUse"><stop offset="0" stop-color="#788bb1"/><stop offset="1" stop-color="#191d25"/></linearGradient><linearGradient id="linear-gradient-2" x1="994.93" y1="86.38" x2="1191.61" y2="86.38" gradientUnits="userSpaceOnUse"><stop offset="0" stop-color="#222732"/><stop offset="0.17" stop-color="#2c3341"/><stop offset="0.49" stop-color="#475268"/><stop offset="0.94" stop-color="#7284a8"/><stop offset="1" stop-color="#788bb1"/></linearGradient><linearGradient id="linear-gradient-3" x1="1241.26" y1="87.38" x2="1437.95" y2="87.38" gradientUnits="userSpaceOnUse"><stop offset="0" stop-color="#222732"/><stop offset="0.31" stop-color="#242934"/><stop offset="0.48" stop-color="#292f3c"/><stop offset="0.61" stop-color="#323a4a"/><stop offset="0.73" stop-color="#3f495e"/><stop offset="0.83" stop-color="#515d77"/><stop offset="0.93" stop-color="#657595"/><stop offset="1" stop-color="#788bb1"/></linearGradient></defs><title>toggleknap</title><rect class="cls-1" x="50.74" y="42.04" width="196.69" height="84.02" rx="41.5"/><circle class="cls-2" cx="90.58" cy="85.05" r="36"/><rect class="cls-3" x="-0.92" y="1.55" width="300" height="165"/><rect class="cls-1" x="348.58" y="41.04" width="198" height="84.02" rx="41.5"/><circle class="cls-2" cx="408.58" cy="84.05" r="36"/><rect class="cls-3" x="300.58" y="0.55" width="300" height="165"/><rect class="cls-4" x="643.24" y="45.37" width="196.69" height="84.02" rx="41.5"/><ellipse class="cls-2" cx="741.58" cy="87.38" rx="35.76" ry="36.44"/><rect class="cls-3" x="600.58" y="1.88" width="291" height="165"/><rect class="cls-5" x="940.26" y="44.37" width="196.69" height="84.02" rx="41.5"/><rect class="cls-3" x="891.58" y="1.88" width="300" height="165"/><rect class="cls-6" x="1241.26" y="45.37" width="196.69" height="84.02" rx="41.5"/><ellipse class="cls-2" cx="1394.24" cy="87.38" rx="35.76" ry="36.44"/><rect class="cls-3" x="1192.58" y="2.88" width="300" height="165"/><ellipse class="cls-2" cx="1090.34" cy="87.38" rx="35.76" ry="36.44"/></svg>
